/* XPM */
static char *_040_0d797dc47436b2d4a2c281760cbb8e86efd3420f37558638b83c954c0a585fd7[] = {
/* columns rows colors chars-per-pixel */
"80 80 102 2 ",
"   c #2D4A0D",
".  c #2F4B14",
"X  c #304C14",
"o  c #334E1B",
"O  c #345317",
"+  c #365718",
"@  c #38561E",
"#  c #365818",
"$  c #3A5C19",
"%  c #3B610D",
"&  c #3D6216",
"*  c #3E621B",
"=  c #364F21",
"-  c #375021",
";  c #395324",
":  c #3C5A23",
">  c #3E552B",
",  c #3F5C29",
"<  c #42671D",
"1  c #425C2C",
"2  c #415730",
"3  c #465B35",
"4  c #465A38",
"5  c #485D39",
"6  c #436523",
"7  c #466827",
"8  c #43612B",
"9  c #466829",
"0  c #4A6A2D",
"q  c #466231",
"w  c #496335",
"e  c #4D6B34",
"r  c #4C623C",
"t  c #4F6B38",
"y  c #506E36",
"u  c #516D3C",
"i  c #517037",
"p  c #4D5E40",
"a  c #4F6240",
"s  c #516444",
"d  c #526B41",
"f  c #546549",
"g  c #566A4A",
"h  c #596B4D",
"j  c #567046",
"k  c #5D754C",
"l  c #5D6D53",
"z  c #5E7052",
"x  c #637456",
"c  c #657A56",
"v  c #64725A",
"b  c #677D5A",
"n  c #6A7D5C",
"m  c #6B7762",
"M  c #6D7B65",
"N  c #737E6B",
"B  c #6D825E",
"V  c #6D8162",
"C  c #718465",
"Z  c #75826B",
"A  c #798A6E",
"S  c #7B8674",
"D  c #7C8A73",
"F  c #7E8878",
"G  c #828E7B",
"H  c #829177",
"J  c #85937D",
"K  c #88977E",
"L  c #8A9484",
"P  c #8D9984",
"I  c #8F9988",
"U  c #929A8C",
"Y  c #969F91",
"T  c #989F95",
"R  c #96A18E",
"E  c #97A390",
"W  c #9AA394",
"Q  c #9EA897",
"!  c #9EA69A",
"~  c #A2A99D",
"^  c #A5ABA0",
"/  c #A9AEA6",
"(  c #AAB2A5",
")  c #ADB3A9",
"_  c #B1B7AD",
"`  c #B3BBAF",
"'  c #B5BCB2",
"]  c #B9BEB5",
"[  c #BBBFB8",
"{  c #BBC1B7",
"}  c #BDC2BA",
"|  c #C1C6BE",
" . c #C5CAC2",
".. c #CACEC7",
"X. c #CCCFC9",
"o. c #CED1CB",
"O. c #D1D5CF",
"+. c #D3D6D1",
"@. c #D6D9D3",
"#. c #D9DBD7",
"$. c #DADCD9",
"%. c None",
/* pixels */
"%.%.%.%.%.%.%.%.%.%.%.%.%.%.%.%.%.%.%.%.%.%.%.%.%.%.%.%.%.%.%.%.%.%.%.%.%.%.%.%.%.%.%.%.%.%.%.%.%.%.%.%.%.%.%.%.%.%.%.%.%.%.%.%.%.%.%.%.%.%.%.%.%.%.%.%.%.%.%.%.",
"%.%.%.%.%.%.%.%.%.%.%.%.%.%.%.%.%.%.%.%.%.%.%.%.%.%.%.%.%.%.D } %.%.%.%.%.%.%.%.%.%.%.%.%.%.L %.%.%.%.%.%.%.%.%.%.%.%.%.%.%.%.%.%.%.%.%.%.%.%.%.%.%.%.%.%.%.%.%.",
"%.%.%.%.%.%.%.%.%.%.%.%.%.%.%.%.%.%.%.%.%.%.%.%.%.%.%.%.%.%.B * Q %.%.%.%.%.%.%.%.%.%.%.%.) 6 %.%.%.%.%.%.%.%.%.%.%.%.%.%.%.%.%.%.%.%.%.%.%.%.%.%.%.%.%.%.%.%.%.",
"%.%.%.%.%.%.%.%.%.%.%.%.%.%.%.%.%.%.%.%.%.%.%.%.%.%.%.%.%.%.K < < J %.%.%.%.%.%.%.%.%.%.%.e < %.%.%.%.B %.%.%.%.%.%.%.%.%.%.%.%.%.%.%.%.%.%.%.%.%.%.%.%.%.%.%.%.",
"%.%.%.%.%.%.%.%.%.%.%.%.%.%.%.%.%.%.%.%.%.%.%.%.%.%.%.%.%.%.Q < < < L %.%.%.%.%.%.%.%.%.{ < < %.%.%.j < R %.%.%.%.%.%.%.%.%.%.%.%.%.%.%.%.%.%.%.%.%.%.%.%.%.%.%.",
"%.%.%.%.%.%.%.%.%.%.%.%.%.%.%.%.%.%.%.%.%.%.%.%.%.%.%.%.%.%.) < < < < %.%.%.%.%.%.%.%.%.B < < Q %.V < < u %.%.%.%.%.%.%.%.%.%.%.%.%.%.%.%.%.%.%.%.%.%.%.%.%.%.%.",
"%.%.%.%.%.%.%.%.%.%.%.%.%.%.%.%.%.%.%.%.%.%.%.%.6 ~ %.%.%.%.| < < < < < @.%.%.d } %.%.%.& * < H { < < < & %.%.%.%.%.%.%.%.%.%.%.%.%.%.%.%.%.%.%.%.%.%.%.%.%.%.%.",
"%.%.%.%.%.%.%.%.%.%.%.%.%.%.%.%.%.%.%.%.%.%.%.%.< < c +.%.%.%.< < < < < V %.%.< < O.%.` < < < C C < < < < %.%.%.%.%.%.%.%.%.%.%.%.%.%.%.%.%.%.%.%.%.%.%.%.%.%.%.",
"%.%.%.%.%.%.%.%.%.%.%.%.%.%.%.%.%.%.%.%.%.%.%.%.< < < 6 Q %.%.t < < < < < { %.& < c %.D < < < i < * < < < %.%.%.%.%.%.%.%.%.%.%.%.%.%.%.%.%.%.%.%.%.%.%.%.%.%.%.",
"%.%.%.%.%.%.%.%.%.%.%.%.%.%.%.%.%.%.%.%.%.%.%.%.< < < < < k o.K < < < < < i %.< < < ` & 6 < < < * # < < < Z %.%.9 %.%.%.%.%.%.%.%.%.%.%.%.%.%.%.%.%.%.%.%.%.%.%.",
"%.%.%.%.%.%.%.%.%.%.%.%.%.%.%.%.%.%.%.%.%.%.%.%.< < < < < < < y < < < < < < i < < < 0 < < < < * # # < $ # g %.b < %.%.%.%.%.%.%.%.%.%.%.%.%.%.%.%.%.%.%.%.%.%.%.",
"%.%.%.%.%.%.%.%.%.%.%.%.%.%.%.%.%.%.%.%.%.%.%.%.& < < < < < < < < < < < < < 6 < 6 & < < < < < $ # # * # $ U E < 0 %.%.%.%.%.%.%.%.%.%.%.%.%.%.%.%.%.%.%.%.%.%.%.",
"%.%.%.%.%.%.%.%.%.%.%.%.%.%.%.%.%.%.%.%.%.%.%.%.A < < < < < < < < < < < < < < < & $ < < < < * # # $ # # # A < < e b P %.%.%.%.%.%.%.%.%.%.%.%.%.%.%.%.%.%.%.%.%.",
"%.%.%.%.%.%.%.%.%.%.%.%.%.%.U * & % e %.%.%.%.%.%.< < < < * < < < < < < < < < < $ $ * < < < * # # # # # + < < < < < < ( %.%.%.%.%.%.%.%.%.%.%.%.%.%.%.%.%.%.%.%.",
"%.%.%.%.%.%.%.%.%.%.%.%.%.%.' < < < < < < < e J %.B < < * $ < * * < < < * < < < # # * < * $ $ * $ # # # $ < < * * < < ( %.%.%.%.%.%.%.%.%.%.%.%.%.%.%.%.%.%.%.%.",
"%.%.%.%.%.%.%.%.%.%.%.%.%.%.%.< < < < < < < < < < 0 < < $ # < * # & < $ $ < 6 & # # * * # # # < $ + # # $ < $ # * < < o.%.%.%.%.%.%.%.%.%.%.%.%.%.%.%.%.%.%.%.%.",
"%.%.%.%.%.%.%.%.%.%.%.%.%.%.%.Z < < < < < < < < < < < * # # * $ # * * # # * * * # # $ $ # # * < $ # # + $ $ # # * * k { %.%.%.Y 3 ] %.%.%.%.%.%.%.%.%.%.%.%.%.%.",
"%.%.%.%.%.%.%.%.%.%.%.%.%.%.%.o.< < < < < < 6 & * < < * # # * # # # * # # & * * # # * * # * < < * # # # # * # # < < n , %. .3 + L %.%.%.%.%.%.%.%.%.%.%.%.%.%.%.",
"%.%.%.%.%.%.%.%.%.%.%.%.%.%.%.%.A < < < < < < $ # * * $ # # * # # # * # # $ * * # * < * # * * < # # # * * * # $ < * # r ) $ # , %.%.%.%.%.%.%.%.%.%.%.%.%.%.%.%.",
"%.%.%.%.%.%.%.%.%.%.%.%.%.%.%.%.%.u < < < < < # # # * $ # # # # # # # # # # * * * < < * * * * # $ & < < * * # # $ # # d : # # ~ %.%.%.%.%.%.%.%.%.%.%.%.%.%.%.%.",
"%.%.%.%.%.%.%.%.%.%.%.%.%.%.%.%.%.%.i < < < < $ # # # * # # # # # # # # # # # * * * 6 < * * * + * < < < < # # # # $ $ # # # , %.@.Z D %.%.%.%.%.%.%.%.%.%.%.%.%.",
"%.%.%.%.%.%.%.%.%.i * < < < < < < 9 y < < < * $ # # # # # # # # * # # # # # # # * * < < * # # * < < < < * # # # # < $ # # # D ( @ O { %.%.%.%.%.%.%.%.%.%.%.%.%.",
"%.%.%.%.%.%.%.%.%.< < < < < < < < < < < < & < * # # * # # # # $ < # # # # # # # & < < < * + # * < * * # # # # # * < $ # + + # # # : %.%.%.%.%.%.%.%.%.%.%.%.%.%.",
"%.%.%.%.%.%.%.%.%.D < < < < < < < < < < < $ # # # # * * * # $ & < # # # # # # # * < < < * # # # # # + # # # # # < < $ # $ * < $ # h %.%.%.%.%.%.%.%.%.%.%.%.%.%.",
"%.%.%.%.%.%.%.%.%.%.u < < * < < < < < < < * # # # + $ < < < # * < * # # # # # # # # * * * # # # # # # # # # # $ < < & < < < * # # J %.%.%.%.%.%.%.%.%.%.%.%.%.%.",
"%.%.%.%.%.R b j j V D < * $ * * < < * * < * # # # # $ < < < * < * $ # # # # # # # + # # $ # # # # # # # # # # # < < < < < < $ # # w x z %.%.%.%.%.%.%.%.%.%.%.%.",
"%.%.%.P 6 < < < < < < < < # # # * * # # * & # # # # # * < 6 < < < $ # # # # # # # # # # # # # # # # # # # # # # < < < < < * # # # # + %.%.%.%.%.%.%.%.%.%.%.%.%.",
"%.%.%. .0 < < < < < < < * $ # # # $ # # # $ * # # # # * < < < < < $ # # # # # # # # # # # # # # # # # # # # # # < $ * * $ # # # # + %.%.%.. X %.%.%.%.%.%.%.%.%.",
"%.%.%.%.@.k < < < < < < < & # # # # # # $ # $ # $ # # # * < < < * + # + # # # # + # # # # # # # # # # # # # # # # # # # # # # # # 8 %.. X X G %.%.%.%.%.%.%.%.%.",
"%.%.%.%.%.%.C < < < < 6 < < # # # # # # < * # # * * * * * < < < * # + + # # # # # # # # # # # # + # # # + # # # # # # # # # # # # # $ X . 4 %.%.) 3   %.%.%.%.%.",
"%.%.%.%.%.%.Q < < < < & * < * # # # # # * < * $ $ * < < < < < < * + + # # # # # # # # # + # # # # # # # # # # # # # + # # # # # # # # + X ] ) 4 X X g %.%.%.%.%.",
"%.%.%.%.%.k < < < < < & $ # * $ # # # # * * < < # * < < < < < * + + + # # # # # # # # # # # # # + # # # # # # # # # # # # # # # # # # + @ 4 . . . X { %.%.%.%.%.",
"%.%.%.%.7 < < < < < < * # # # # # # # # # < < < * # * * * * * # # # # # # # # # # # # # # # # # # # # # # # # # # # # # # # # # + # # + # X X X X L %.%.%.%.%.%.",
"%.%.%.%.{ < < < < < < < * # # # # # # # # * < < < # # # # # # + # # # # # # # + # # # # # # # # # # # # # # # # # # # # # # # # + + + + + O X X Y %.%.%.%.%.%.%.",
"%.%.%.%.%.` 6 < < < * < * # # # # * < * * * * < < * # # # # # # # + + # # # # # # # # # # # # # # # # # # # # # O # # # # # # # X X . X . . X q v O   . 4 ` %.%.",
"%.%.%.%.%.%.+.P i & 9 < < * # + # < < < < < * < * * # * * * * * * + + # # # # # # # # # # # # # # # # # # # # # # # # # # # O # # O + X . X X X o O O . S %.%.%.",
"%.%.%.%.%.%.%.%.%.%.K < < < * * # * < < * * # * < * # # * < < < * # # # # # # # # # # # # # # # # # # # # # # # # # # # # # # # # # O X X O # # # # X M %.%.%.%.",
"%.%.%.%.%.%.%.%.%.D < < * * # # # # * * * # # # * * # # # * < < * * # # # # # # # # # # O # # # # # # # # # # # # # # # # # # # # # X X # # # # # O N %.%.%.%.%.",
"%.%.%.%.%.%.%.%.B < < < < < # + * * # # # # # # # * # # # # # * * & # # # # # # # # # # # # # # # # # # # # # # # # # # # # # # O X X $ # # # # O U %.%.%.%.%.%.",
"%.%.%.%.%.%.X.0 & < < < * * * + * < * * # # # # # # # # # # # # # # # # # # # # # # # # # # # # # # O # # # # # # # # # # # # O X X + # # # # 5 %.%.%.%.%.%.%.%.",
"%.%.%.%.%.%.6 < * * < < * * * * # < < < < * # # # # # # # # # # # # # # # # # # # # # # # # # # # # # # # # # # # # # # # # # # + X # # # # O f %.%.%.%.%.%.%.%.",
"%.%.%.%.%.%.%.1 + + * < * # # # # * < < < < * * # # # # # # # # # # # # # # # # # # # # # # # # # # # # # # # # # # # # # # # # # . X + + X X X . o M %.%.%.%.%.",
"%.%.%.%.%.%.> . O * < 6 < * # # # # * < < < * # # # # # # # # # # # # # # # # # # # # # # # # # # O # # # # # # # # # . . . # # # X X X X X X X > U +.%.%.%.%.%.",
"%.%.Q Z o . . . * < < < < * # # # # * # * # # # # # # # # # # # # # # # # # # # # # # # O # # # + + # # # # # # # # # # # . . . X X X X X O X n %.%.%.%.%.%.%.%.",
"%.%...X . . . O < < < < * # # # * * < < * < * * # # # # # # # # # # # # # # # # # # # # # # # # # # # # # # # # # + # # # # . . X O + # # # # + O 5 %.%.%.%.%.%.",
"%.%.%.| X X X $ < < < < # # # # # # * < < < < * * # # * * * # # # # # # # # # # # # # # # # # # + # # # # # # # # # # + # O # . # # # # # # # # # O X %.%.%.%.%.",
"%.%.%.%.%.X X $ < < < * * # # # # * < < < < < < < * # * * < * # # # # # # # # # # # # # # # # # # # # # # # # # # # . . . . . O # # + # # # # + X X . %.%.%.%.%.",
"%.%.%.%.%.X X $ < < * # O O O # * * < < * < < < < * # # < < < * # # # # # # # # # # # # # # # # # # # # # # # # # # # O . . . . # # # # + + X . . r %.%.%.%.%.%.",
"%.%.%.%.o . X $ $ X X X X O $ $ * * * * + * < < < < * + # * < * # # # # # # # # # # # # # # # # # # # # # # # # # # # # O . . . + # # # # O > T %.%.%.%.%.%.%.%.",
"%.%.%.%.%.S . . X X O + + # + $ # * & # # * < < < * # # # # # # # # # # # # # # # # # # # # # # # # # # # # # # # # # # # O . . O # # # + + m %.%.%.%.%.%.%.%.%.",
"%.%.%.%.%.%.W O O X O $ # # # # # # # # * < < * * # # # # # # # # # # # # # # # # # # # # # # # # # # # O O O # # + # # # O . . . # # + # + . O ^ %.%.%.%.%.%.%.",
"%.%.%.%.%.^ + # + + X X # # # # # # # # * < < * # # # # # # # # # # # # # # # # + # + # # # # # # # # # + . . . . . . . . . . O . O # + # # . . . > W @.%.%.%.%.",
"%.%.%.%.Z + # # X . X X X O O X # # # # * * * # # # # # # # # # # # # # + # # # # # # # # # # # # # # # # # . . . . X X . # # @ + . O + + O O . a / %.%.%.%.%.%.",
"%.%.E + + $ + + O O X X X X X X # # # # # # # # # # # # # # # # # # # # # # # # # # # # # # # # # # # # # # # O O O X . . O # # # + . . . . Z %.%.%.%.%.%.%.%.%.",
"%.%.%.{ s # # # + # $ # # X X + # # # # # # * * * # # # # * * # # # # # # # # # # + # # # # # # # # # # # # # + # # O . . . O # + + X X X . 2 %.%.%.%.%.%.%.%.%.",
"%.%.%.' ! 8 # # # # # # # # O X + X X + # # * < * # # # * < + # # # # # # # # # # # # # # # # # # # # # # # # O O . . . . . . . X X X X X . . . I %.%.%.%.%.%.%.",
"%.%., # # # + + # + X O O O + + . X O # # * * * * # # * * * # # # # # # # # # # # # # # # # # # # + # # # * # # # # # o . X X X X X X X . X X . . ! %.%.%.%.%.%.",
"%.! # # # # # $ + . X . . . X X X X # # * * * & # # # < < * # # # # # # # # # # # # # # # # # # + + + O X # # # # # # # X X X X X X X . X X X X . .     o %.%.%.",
"%. .+ a ~ ~ G q + + O O + O X X X X * # * # # # # # * < < * * * # # # # # # # # # # # + # + # # X . O . . X # # # # # # # X X X X . X X X . X X X . . f %.%.%.%.",
"%.%.I %.%.@.J : + # + O X X X X X X X X . # # # # # * * < * < * # # # . # O O # # # # + # # # # + . # # # X . # # # # # # X . X X X X X X X X . d / %.%.%.%.%.%.",
"%.%.%.%.%.r # # O X X X X + # # # # X X + # # # O # # # * < < < # # # . O . # # # # # O # # # # # X # # # # X X X O O # # X . X X X X . X . X X X M %.%.%.%.%.%.",
"%.G ~ E d + # # # O X X X O # # # # # X + # # X # # # # * * < < # + + . . . # # # # # X O # # # + O + # # # # X X . . X . . . . X . X X X X X X X . ;  .%.%.%.%.",
"%.} X . + + # # # # # O X . + # # # + . X X . . # # # # * * * * # # # . . . # + # X + . O # # # + O X # # # # X . X X X X . X X X X X X X X X X . . . = +.%.%.%.",
"%.%.! . X X . + # # # # O O X O + + . X X X . . + # # # * < < * # # # # . . # # # . X . O # # X # + . # # # # O X X X X X . X X X X X . X X . X X . N / ~ %.%.%.",
"%.%.%.) ; O + + # # # O X X X X X X X X X X X X + + # $ # < < # O # # # X X O # # X X X X # # X . O X X # # # O . . X X X X X X X X . X X X X X X . l %.%.%.%.%.",
"%.%.%.%.W + # # # # O X X X O # # X X X X X X . O + O # # $ # # + O # # O X X O # X # X . + # O X X X X O + + O X X . X X X X . X X X X X . X . X X . ! %.%.%.%.",
"%.%.%.U + # # + # # # + O X # # O X X X X X X X X O O # # O O # O X # # O X X O O O # X . X + O X . X X . O # X X X X X . X X X X X X X X X X X X X . X I %.%.%.",
"%.%.O.Z # # # # # # # # O + # # O X X X X X X X X X X # # O O # o X O # + X X X X # $ O . . O O . X X X . X X . X . X X X X . X . . X X X X X X X X X X . ; %.%.",
"%.%.%._ O + O # # # # O X O O o X X # X X X X X . X . + # X X $ X . X # O X X X X # # # O . X X X X X X X X X X X X X X X X X X X X X X X X X X X = f p >   L %.",
"%.%.%. .%.%.! # # # # + O + # $ X # # O X X X X + X X O # X X X X X X X X X X . . $ # # O X X X X . X X X X X . . . X X X X X X X X . . X X X X . ~ %.%.%.%.%.%.",
"%.%.%.%.%.%.g # # # # # + + + X X # # + X X X # # O X . X X X X X . O . X X X X X # # # #   X X X X . X X . X X X X X X X X X X . X X . . . o . X T %.%.%.%.%.%.",
"%.%.%.%.%.%. .x X O # # # + X X n + # + X X O # O O X X . X X X X X + + X X X . . # # # O X X X . X X X . X . X . X . X X . X X X X X X . G +.M X %.%.%.%.%.%.%.",
"%.%.%._ a > . . X O # # q X X X ' O # X X . $ # # O X X X X X X X . O + + X . . X + + O X X X X X X X X X X X X X X X X X X = [ ~ G 2 X 4 %.%.%.S %.%.%.%.%.%.%.",
"%.%.%.%.%.v . . . X # + . X X X %.w O . . X + # O X X X X X . X X X X $ # X l . X O o X v X X X O X X X X X X X X S M X X . 5 %.%.%.[ 2 %.%.%.%.%.%.%.%.%.%.%.%.",
"%.%.%.%.%.%.%.%.' X + X r X . N %.{ . . v ) O X X X X X X X X X X 5 s O + o %.. X X X l ~ . X X S o X . X X X X . X.%.S o . N %.%.%.%.$.%.%.%.%.%.%.%.%.%.%.%.%.",
"%.%.%.%.%.%.%.%.4 X X M ! X . X.%.@.. m %.! . X n X X O L X o X X v %.4 O U %.. X X X { ! . X X ( S X X X X ; ) M %.%.%.#.^ [ %.%.%.%.%.%.%.%.%.%.%.%.%.%.%.%.%.",
"%.%.%.%.%.%.%.N . o G %. .. T %.%.%.$.%.%.N X . ] U . f %.h N U . p %.%.X %.%.o X . N %.T o X o %.%.f X X X ) %.+.%.%.%.%.%.%.%.%.%.%.%.%.%.%.%.%.%.%.%.%.%.%.%.",
"%.%.%.%.%.%.%.%.X.%.%.%.%.I %.%.%.%.%.%.%.s l ~ %.%.^ 2 %.$.T %.f o %.%.%.%.%.Y . > %.%.D > ! %.%.%.%.| ~ N %.%.%.%.%.%.%.%.%.%.%.%.%.%.%.%.%.%.%.%.%.%.%.%.%.%.",
"%.%.%.%.%.%.%.%.%.%.%.%.%.%.%.%.%.%.%.%.%.%.%.%.%.%.%.#.%.%.%.%.%.Z  .%.%.%.%.%.f %.%.%._ %.%.%.%.%.%.%.%.%.%.%.%.%.%.%.%.%.%.%.%.%.%.%.%.%.%.%.%.%.%.%.%.%.%.%.",
"%.%.%.%.%.%.%.%.%.%.%.%.%.%.%.%.%.%.%.%.%.%.%.%.%.%.%.%.%.%.%.%.%.%.%.%.%.%.%.%.%.%.%.%.%.%.%.%.%.%.%.%.%.%.%.%.%.%.%.%.%.%.%.%.%.%.%.%.%.%.%.%.%.%.%.%.%.%.%.%."
};
