/* XPM */
static char *_3544fa8952e47ade20af0087b406a0aYvcdFNQ4tHPOVmx2[] = {
/* columns rows colors chars-per-pixel */
"80 80 159 2 ",
"   c #2D7B0B",
".  c #377E0F",
"X  c #486316",
"o  c #586D1B",
"O  c #437414",
"+  c #4A7215",
"@  c #477815",
"#  c #547618",
"$  c #068501",
"%  c #0C8602",
"&  c #068B01",
"*  c #0D8C02",
"=  c #128703",
"-  c #148B03",
";  c #1B8D05",
":  c #0D9302",
">  c #0F9B03",
",  c #149303",
"<  c #1C9305",
"1  c #159B03",
"2  c #1C9B05",
"3  c #228E06",
"4  c #288F07",
"5  c #268E08",
"6  c #2C8B0A",
"7  c #32850D",
"8  c #3B850F",
"9  c #338B0C",
"0  c #3B8B0F",
"q  c #239307",
"w  c #299407",
"e  c #249A07",
"r  c #299B07",
"t  c #269308",
"y  c #2B9509",
"u  c #269A08",
"i  c #2C9B09",
"p  c #32960B",
"a  c #3B950E",
"s  c #349B0B",
"d  c #3B9D0D",
"f  c #3E8311",
"g  c #3D8C10",
"h  c #3E9211",
"j  c #14A203",
"k  c #1CA205",
"l  c #16A905",
"z  c #1CAA05",
"x  c #24A307",
"c  c #2AA407",
"v  c #24AA07",
"b  c #2AAA07",
"n  c #26A308",
"m  c #2CA309",
"M  c #26A908",
"N  c #2CAB09",
"B  c #34A30B",
"V  c #3CA30D",
"C  c #34AB0B",
"Z  c #3CAB0D",
"A  c #26B108",
"S  c #2DB20A",
"D  c #34B30B",
"F  c #3CB30D",
"G  c #37BA0C",
"H  c #3CB90D",
"J  c #41960F",
"K  c #419E0F",
"L  c #418412",
"P  c #4B8515",
"I  c #418B11",
"U  c #4A8E14",
"Y  c #518517",
"T  c #548A17",
"R  c #568818",
"E  c #449511",
"W  c #4B9313",
"Q  c #449B11",
"!  c #4B9B12",
"~  c #529116",
"^  c #549916",
"/  c #42A30F",
"(  c #43A90F",
")  c #40AB0E",
"_  c #42AB0F",
"`  c #41AC0F",
"'  c #48AB0F",
"]  c #43B00E",
"[  c #42B30F",
"{  c #40B40E",
"}  c #40B40F",
"|  c #43B40F",
" . c #48B50E",
".. c #43BA0F",
"X. c #43A110",
"o. c #44A310",
"O. c #46A210",
"+. c #43A510",
"@. c #45A610",
"#. c #48A211",
"$. c #4CA311",
"%. c #49A511",
"&. c #4BA511",
"*. c #49A611",
"=. c #4BA412",
"-. c #4DA511",
";. c #4DA612",
":. c #44A810",
">. c #47A911",
",. c #44AE10",
"<. c #4CAA11",
"1. c #48AF10",
"2. c #4BAF11",
"3. c #4CAD11",
"4. c #4EAD12",
"5. c #51A613",
"6. c #5DA217",
"7. c #53AB13",
"8. c #52AD13",
"9. c #50AE12",
"0. c #52AA14",
"q. c #5AAD15",
"w. c #46B010",
"e. c #45B310",
"r. c #46B510",
"t. c #4AB211",
"y. c #4BB311",
"u. c #4FB212",
"i. c #46BA10",
"p. c #4BBA11",
"a. c #4FBB12",
"s. c #53B213",
"d. c #53B313",
"f. c #57B515",
"g. c #57B615",
"h. c #5BB415",
"j. c #59B615",
"k. c #5BB716",
"l. c #50BA13",
"z. c #53BB13",
"x. c #53BE13",
"c. c #58BA14",
"v. c #5BBC15",
"b. c #61BD17",
"n. c #62B118",
"m. c #66BE18",
"M. c #43C00E",
"N. c #51C313",
"B. c #54C113",
"V. c #5CC315",
"C. c #50C812",
"Z. c #5DC916",
"A. c #63C017",
"S. c #62C417",
"D. c #65CA17",
"F. c #64C618",
"G. c #68C419",
"H. c #6DCF19",
"J. c #63D218",
/* pixels */
"j.j.( t B  .Z 8 7 &.B B B V , - s F s A.Z d V c.s 4.q m e.r.i Z i s i X.B s >.X.$.s.[ , z.u z >.4.[ 4.V i B r ; t r d j.@.#.d d 4 p - v C r i , &.s a F ; q q B ",
">.a.r V r d a . W / B 2 s V q t r C m d 5.p e ( c Z ` 2 d i d B y s n X.F i X.d o.o./ q 9.H j  .( u.a / c u q i Q y o.f.V B ,.d + p < s i q y t ; q C V ; y < t ",
"Z { B x.; p d / H B a : ; c s s < Z e B y x v r n +.<.% y p y d @.d t V r.d i p s / K d 9.Z t d.x B t r c B q  .-.i 4.V V i s X.j.+.q +.s ,.d o.- = C x t i ; t ",
"N.B l v % < ( Z B / / , e Q t./ V ` u ; 2 1 t ; y o.&.q i d m V 2.o.Q s p 4.e t V y d d / d p / o.2 x 1 - r y a i 2 9.B V q y i r.0.@.V d >.V V - - i < t i - s ",
"4.V V C ; u ` V s W p 2 v s.B s.r a.s u C , - p s o.&.u x N N C ; Q q y V 2.t 2 2.i o.V 1 Z p p / ..s , y 3 s u.< q 4.@.i B B u s.d.V B V u.C Z e V N < q a.d p ",
"K o.f.Z s ( s y B 4.a ; - n.N.0.y s Z y &.: r V - s p t 2 C Z c 3 #.; - y t.V ; &.n X./ 1 d.v.+.Z z.t i Z i Z { - k e.4.q B p.i d d.C y s z...F e V u , u +.o.d ",
"Z m 4.#.e B s s ( d.( V y / D.Z 3 s K y 0.t i s.; s s m B s d < y 5.q Z V s.i < y s s s ; q.c.Z.B t.#.e.B.k C ` 2 i m <.( B 4.V t 5.s ; y c.s - / B t - c Z >.n ",
"n s s <.m - s v r.<.8./ &.a.V.B ; ( s d K d y X.V i 1 C u.Z X.q s 0.a.r.,.>.e 3 3 c >.d t 0.q.A./ 4.V e.c.B c c < r i +.e.C +.5.d Q V w p 5.s - +.e.V - k S Z k ",
"1 F < d X.i F F +.@.q.y V V X./ V h./ t B Z q B Z e r Z s.( s.i i d.A.V.B o.u D d B :.d Z c <.V / X.s d.x./ y < t 3 p p Q B B s Y ~ ,.i Z / / v ,.X.d s v N d B ",
", r.s i ,.r.p.m &.s K B s.Z -.s d Q h.; Z Z 2 d r.; p Z B / ( V q >.q.j.s ; > e D X.s.B r.e Q u K y e z./ q.V 2.d ,.F C &.V 4.t f @.+.a V e.F N C V f.s.< c c B ",
"; >.s F S J.i.>.&.Q y o.f.B Z B u.p 4.m i s ; H V p t V B 4.s B M s &.t.$.- B q v C t.Z F q p i &.C N.< p 4.&.A.X.4.N a.c.X.X.t B Z @.s t / <.3 V 1 t.4.; B ( K ",
"#.Z k C e e.&.o./ Z x { q.B n >.<.c p.D V / s Z s d d V V 0.y ; i s 4.t.o.q Z >.w u.' ( N r a p / a.Z.s ; V Q q.u.<.c ,.b.d d p a d -.B a i @.r i & @.4.a a.u.a ",
"+.<.- < < y $.o.B <.r B #.d u #.3 / V m u ; V Q d <.a.Z d y y - s 4.V $.>.< Z #.s >.4.d d Z V j.t.4.f.n B B d @.V +.B y C Z <.s s s d j , l ,.Z B.3 a 9.V M.D m ",
"D B 6 q B s y Q q &.Q m y ,.y j.Z t.o.( < ; i &.<.F a.d ; s Z v C e.Q o.-.; V d.4.@.<.B d F.v 0.q.w &.k q B s Q w &.c < y Q t < s d t - % , 4.&.x.<.#.-.` B e B ",
"V B @.s.Z V 4.s u @.y M ,.H B a.i.e.Z X.- L y -.+.B 0.s , k Z +.u Z i V n ; q c d -.V a.V a.Z ,.<.- d C 2 V d.>.y :.2 , a V s ; < s < 3 % ; <.5.V.X.s.-.>.q ; y ",
"D m X.f.e.y 5.a.V d = C t.m t.V s C X.@.+.V.V <.V s 5.d N C e B q < q s N < p t s y t <.,.:.V Z Z & w k < 2 V e.c < : ; d d Q t s  .r q u i X.@.d.d <.-./ F < q ",
"s d d 0.>.i a V s s y s / s 2.B s q V s Z t.d V e.p.u.s p u w d s e < s V t q s s c Z s d K d s s = ; ; q m q e.a q a y K p / s <.s 2 < e <.,.C V r t $.y Z j s ",
"Q &.t.0./ V s V Z X.h a d d B V i e i D F r p s x.Z >.Z 2 y t z...B * C Z d r B a.Z ( < ; / / q c 3 5 ; q B m p s s q.4 d 4.( D d s r i < y.V Z B s 1 q.W u.1 s ",
"B C V >.m i r.B c a Q 4 y &.u i x e i V H 2 4 V <.i s >.6 V s f.C p < F Z B c i F f.( % - d / - r < &.&.u s N s C s E E c.j.F u B r ..i c C o.d s M d j.6.&.2 >.",
"B x u s i ; d s n s ,.  @ C &.- 3 t d V B y i j.Q y V k.,.Z ,.V s y 2 ( s ( d B i 5.d = s s * k q ; s.4.< r B B C C m j.A.j.f.3 m < B < V n Q i e z.s.0.0.<.m V ",
"<.` i w +.y d e.r.Z B ^ I s 0.t 3 a / ' t p t Z x B p.v.,.B B V a p ; / X.V -.3 x d d q &./ q C t t #.>.C B i & < 2 C 9.Z  .( K y q t ; s.s i p q h.<.B.B / w F ",
"[ ( &.3 0.y s 4.B Z u.^ B s 5.s t N B s Q q V y V s ,.u.Z C B s t d y s 4.c.-.- u d K d #.V t / -.d >.Z V Z <.i & < F >.c.e C q.B s s j s.y s Z 3 X.m s.B q - ( ",
"B s 0.K 0.y s t.m s a +.s y ! J e 2 < % ( <. .3 d t V c c C e.V d 4.v < B s.0.= i / 4.d X.>.4 o.s >.2.a.C B Q s ; q B B d.q Z <.B B V.w  ./ B V.s i y X.>.q w d ",
"q s Z q.4.s d m C q f V y d C 4 < t : t H V p ; X.s y s 2 B d f.s 4.j t d B -.; t <.9.s q 4.f.0.a.V r.p.B d Q @.4.w / t z.F V s d t / y d K B Z t.B C s 0.V d d ",
"y d B >. ., s y t y V C i d Z w w / t.F F 4.s - -.i F $.= C B 0.3 ( - < a s V u 3 -.5.+.2 >.f.Z Z N B y p @.V C ` Z 4.q o./ #.z m @./ Z a p s ; o.a B n  .B 1 d ",
"a.V s s.i t C N.s y V e H s Z f.x n k.x.m 4.i ; d p ( s ; i s X./ / t q @.V V v ; F F e.< -.+.m m 2 t y / @.s s c.{ 4.y s V [ , 1 V a V.d t d 3 y V m , / d * ; ",
"1 V Z S.u &.F H Z V.Z Z V Z B V r q 4.C * y.; t / 4.4.; t q i i ( V B - y.u.s ; q D D 4.; Q d m 1 ; d Q U V d B y.u.<.&.< : C s 3 q k y.d i :./ s s e ; V r ; - ",
"$ , F 0.; Z b p.[ c.d Z / / y q ; p q B p 3 N e &.q.d , t e N k a.m d - c #.g y m B V Q ; 3 p.r.l r s Q m B  .Z B &.,.q.d - s V 4.; e u B 4 B s.s j x B @.Z d / ",
"9.% p Q < V Z D s 4.V B B 5.j , +.,.r B s m m a a.f.Z 2 t V B - V ,.Z u n >.2.y V #.&.d s +.,.F 1 s V V C & / / / Z / ' d - w y n.&.C q V ( d 4.i N C N V C B j.",
"m.< t p r Z +.Z t V ' ` s d < ; H.Z r m B N i r p.y.2 n - 4.y s p -.<.B 2 4.>.p i s 0.B B v.Z 2.t i V V F y k.K m S / V m , s / f.C B p c N d i i V c.m s B Z o.",
"-.m t 3 s x.#.>./ d 0.s s s V y q.d a r V V e V e >.w V w >.Z s U E +.u q X.s Z q B t.u e.Z 2 d - i B y s i.G./ r 2 / ( S r / j.&.s V s / i Z , t s <.o.s s d #.",
"B 0.d m B c.u.,.b.Z s.f.F ` ' 5.0.{ V q e 2 t @.B i e X.p s N B Q i y j k ,.B D u c h.Z V C u w d $.C s y d j.d y i 4.&.B u K ( -./ u.e s < D % = s t.Q d Z i y ",
"s v.Z e.F @.o.@.q.V s.0.>.i &.&.s k b , - B B V i 2 s p / a  .B Z f.m , q d k S i r 5.r.>.F B i <.4.i B r y -.d s B / D /  .u C &.C Z t p e C < Z < >.s C q n 2 ",
"t 4.+.0.4.d y s @.o.V &.V q Q ! 3 s B Z - [ C B.s - y ' i.V Z p n d.C u - u , B m e X.s c i.i s >.N K & q i i s s B s n n [ n x M C s i u 2 i u s t p X.2.,.D S ",
"y q.&.E Q s ; q s 0.f.x.A q <.Z c V p v.y 0.o.' s q s 0.N.V.B y s X.-.r y i 1 < c M V t p ; y Z @.r t = - s.w d i q t.Z y / 2 < c m s s i , i p Z N.s +.e.b.i +.",
"d o.! N m < * u E i u.u.u c 4.i e * V 9.d #.j.B D x.e.` B.V 0 t Q Z >.y < s - q q - >.y q i s D r.0.t.r C V o.t m q o.+.w ( ; , 3 t -.a ; y m d r.p.u.d.s q.i X.",
"B < e.m u , - +.,.B @.@.q , d r Z i e / J w 9.< ,.b...s.&.c x.2 u >.a.F f.y <.m 3 = d 5.s u y C u t.u.+.F [ 4.B M.i v.V.B &.d w ; 2 X.-.3 s y d H >.&.-.C =.t s ",
"d B q <.V <.t V F B b ,.4.q t t r B q x g 7 d w o.q.V j.o.; f.1 , Z o.Z f.d 4.f.d q ,.Z X.y 2.i r q V >.s F V N H V j.r 0.Z -.h.s.u d V i A , s B t.@.4.,.X.q < ",
"s s Z d +.<.t n w d V D >.d s i d y d b c L 3 -.#.0.B #.o.- V < $ y s Q / 6 c 0.t.,.z.,.B V t.t y < t <.s V Z n z , 5.3 @.C +.q.q.d Z p.n A 1 r s e.t.c.V B e i ",
"Z V f.4.:.X.y k t s h.2.s [ V >.w K e - s x., / $./ K f 0.y B ; = p 4 p V s 2 6 V.V >.p.z.V 0.y y V V @.y t d N i i d Z f.v s V 0.X.>.@.j 2 p ; 2.r.d.j.X.h B x ",
"B 4./ q.s Z V ; k k &.-.y { A.<.w s s % q F i d K r @.s <.r B d q d 9 B B p - 2 ( D B x Z +.<.d -.V ,.V s % d w i i s V s < @.c i V ,.V < % K d ,.X.s q.0.s 4 t ",
"s @.w 0.s n s * : l ( s Z V h.K k m V / i V B v u Z D V m k N B y ! s C S d , c c Z s n m ,.B >.@.X.D V d B y.t.B i t y y p s ,.e.,.B y % ; , n Z +.u X.0.+.d t ",
"V J p.>.a s d q & < N r 4.t Z #.K s D  .r s ( 2 2 ,.t.s B ,.C r s Q a z 2 e m e ; y y t y y n +.B ,.i r h I 4.5.s ; e y s K K 0.s.s.d y 3 q.N F n N m c <.r.B p ",
"X.; B V c Z V B - y s.y x.i Z 4.9.y r h.N F ( - s r <.s >.f.V s / d Z i 1 B a.d ; s V 4 X.i - n S i./ l v h Z / s % a q s u Q -.z.@.Q N V 5.t.i.>.u q q d @.s Q ",
"4.q k C , d s B ; y 0.d 4.D B [ 9.&.q K d a / d D B >.i ( V / d q r x 2 C a.( ' u V 0.&.4.C m s p.>.u.1 , e s s F V y i i y m Z <./ p u y 5.z.x C e.3 s d @.s d ",
"<.r ; s ; i n d Z B s.s d s m H i ..s ; y y C x.N i +.y e r C e s C N m x.( Z Z 2 +.d &.u.s.+.q.s X.i y , q y / Z 4. .f.Z < V B 4.j.h.B i d n - l u.w ` Z Z V @.",
"r.e e i p t n V { B.F / ( ( M r < 4.Z t w Z C Z y q 4.V m F x V q ` m q 0.$.( r 1 V q p <.<.<.5.p p w 5.p ; x / i.d C i./ ( ( 4.Z c.0.X.q B q ; - 0./ ( 2 k Z F ",
"i.B B y #.y B F B ( ` s h.Z 2 4 y d B i e m Z H r t $.s / r < d s V i I V W 4 / , Z 6 d +.,.s.#.y t s V Z r j d / / b v u r 9.( x 0.V d V Z q e ( 5.-.s - , y Z ",
"s i 4.n E @./ B i H ( d 4.,.n 2 y E d i q < +.B * s -.d j.y t y s B.b Y c t.s &./ C y W 2 H e.>.[ Z x < s e : ,.f.V H B i s d s , 4.c.s r e C i / &. .i - i p f.",
"d 2 Z C B i c s y t s d 9.d B , r o.C B <.p d p ; V q V n.( 4./ e F B z.Z o.4.x.>.Q s Z C F C.C s.c.{ r 4 w % X.j.d C t s <.D u - B C y q B Z s r a B B i u s &.",
"V N < ; s r 1 c s q t 3 p a y = C ,.B u a.d V X.K 5.t r s.d.x./ q C C Z V Q r t.s V V @.c C f.r @.t.r.n ; 7 r :.#.d i y Z d.m :.B : z - - B x.Z < y q s e.i s d ",
"F r , - m i 3 i ,.Z s y y r i = s Z / r X.s B <.t.4.B i @.Z N ..; p s C V V i Q V e.,.&.o.q Q r V C s B v F N V V d V d V d K / e q 1 * w Z 4.C m K 2 B e.r d e.",
"s.p., r D i 3 , b V q V Q u i q s B ,.s a i V s.C Z 1 c s Q s B ; 3 y y o.s s s ; y ,.s / p t s s 1 y o.a.C C { Z s ( d / V 0.d u y t y s.c t.v V.-.s m / / Z x.",
"0./ s - C B p { l i Z >.d V r.F s , k m >.s p 9.x k B d q B / / t 4 d d v.@.d s - s c./ V s d < Z p p 0.v.c : ..H B ( d ' d 5.y y s ( a q.s 0 c x.K s e V d s v.",
"0.P a q >.Z C V j a V r 1 V V 0.n v V y &.W 0 V B < B <.s s s / s w a.,.k.c.y d i , q &.z.e e.q B ( / #.( - c B i ' Z K 9.B p i B F / d / ( d +.Z d s q y a s #.",
"<.` X.s &.w V I , F ,.3 i i X.Q o.c x m s Q f B { q s B J / / 3 #.Z V s -.h.B Z y , t i 4.s / s B B d B d i N e ; ( m t y d u H a.` / y , ( / ,.s p i i o.E V 4.",
"V C +.s o.= ,.d ; V B / B 0 i w / ..x y , d f [ e.&.+.e.B s +.X.m C q d @.#.i @.d i s ` / i e V Z s i V q.Z i y w V p t r d  .c Z #.2.Z < , e.x n < q y 0.# s 4.",
"F ( ` n q ; r d q q +.( y 9 x , s i s B c ' x ( B >.4.<.s c - C m u 2 h i V s.<.[ < V s.i q i Z p.B r [ C , t r  .t / y s.B { < y <.d.V u 2 B - % j < r.C 6 P &.",
"i y.s.s s < ; d w V Q V t % < Z / a -.D 2 d i s B t q #.p 1 Z B N i q C z m >.-.Z e y 0.B w s u.W : y 9.w 1 N Z ; ; 5.B f.B n s k >.>.B B >.B t % - k r.:.2 z.+.",
"i i.f.Z t B V s.y d q u c r C n 9.4.-.d ; s Z V d 4.; o.V q V Z V N p B D F -.4./ s 4.( t c i &.y = p p ; r i k.&.y Q q 5.( < f.c.d 0.; o.Q s d ; ; c ,.r.i V s ",
"y s &.V s C V >.B k q z u F s.e s o.t v k s i >.< B p p @.y +.a 0.C B 0.V V >.C 4.V 0.i.Z N.c Z s a s s B s ; -.u.i s 4 s B y d <.c.f.p p d F -.s 5 d s V.s i i ",
"s ( V H Q e.Z y h k i k q V s.V x.<.< k j D s V d s s s <.V B q X.V B d.&.p 4.M j.s N V e V y n p / @./ B Z t 4.V y J / s 2 s s X.7.Z q ; V p y p s d t u.X.i B ",
"s.' y H >.F m g T , N e 3 o.0.4.c.V 1 C < j 2 ,.i V V.V &.4.i y d c i :.<.s t.A n p : u e ; s t q B.9.a V a ( V ( <.Z [ ,.- q s e.z.d u >.B Z X.E Q d B c.d.C B ",
"V.4.s B e.G e q.-.q < t p -.o./ v.V k s.s - ; +.u B <.:.X.&.u i Z Z < s s V +.2 l N - t y y &.K < d a / d y ( 4.[ j...V { B ;  .Z Z i y e.Z t.t y F V B v.Z r.Z ",
"s.Z B #.9.y e 0.t.s < d t.V D a 2.d ; V Q a s d 2 m s K y p 4.m v V < ; s : y t r z , K p s d -.s u q d q C C X.i.&.-.s s t.s s >.:.z B i i :.k x x.4.p t.i B Q ",
"9.s q #.5.q B 9.V X.3 V.Z.s B s V d t s 4.4.d.b i y V V / 4 / -.b j 2 ; 2 m Z t ( r , p V s s d Z < X.V B C F B N y +.q.s X.r y 4.c.4.s y x N C z s.0.V s ; y d ",
"K s t V / p s s.s >.+.y.t.d V n n B Q s Z  .a.D Z y V [ ( B p 5.s - a y e F [ r B w - q j q y 2 n q s s C V e i c @.@.#.V g y y 0.0.&.t B M i m - m V Z V B c t.",
"d Z 4.t.Z Z D ( p Z B B t.t.B m B e.>.c.F s. .d v.4.d s -.x w w Z - n Z w m V ' / i B F : * B i i s p 3 V u , 4 V t.Z V D s <.3 a s s 2 t N Z i - < 2 m 4.v.F >.",
"m r V <.u.` B s i d i ; u z ; c V S.+.&.v. .4.t.b.Z r y &.s w ( t.B u B ; p p / / s <  .- 1 y.F s s s s d u t V V x s Z C N a t i ; n C i < ; d s y q t X.s.x.Z ",
"s o.s Q ( K d w i V V ; 3 , ; Z >.k.s ! q.,.Z B q.Z - ; d d F B o.r 2 v j V V Z ( p - @.e.- A.V Z t Z V g - d Z Z m r Z u < y ; t 1 m i C B p -.C a - 3 / <.2.y ",
"Q 4.9.#.-.' V 0.i i 2.s . ; ; X.y #., U R ( y #.V c 2 / V a c s d t t t , V y F Z e q ' -.t <./ i 3 q o.t y i 4.t.B < 9 s - ; a s 5 q y m V >.-.i Y a i r / -.y ",
"s Z { V 9.( s 4.B ; t.x.0.h p Z u y u Z.! 6 t o.a ; r >.e o.y o.y s s ; - V 3 { s B B ( >.p d.&.< B - d v.B B &.X.y b b w - < 5 W q ; q t V Q >.h o W t.n Z / ( ",
"C B V @.o.&.V.e.X.; @.4.( m p s B s N B s n y @.q < B V < s d d 5.o.K s 4 / 3 <.&.Z t ( Z C m :.r d < u.>.Z B 4.s f.s.c m 4.N i ~ e i < ,.Z.V ,.:.Q V r.z.:.B d.",
"y y Q X.t B q.x.V q d s S < q r i s o.= t.Z < s 9 B a.s n e &.i 9.! #./ t Q y o.X.a Z i &.n B p.i s t i i e.d -.s 0.j.Z ,.s.B V f.e e N e.u.u =.4.v V >.Z s 4.p ",
"u d s F q C ( 0.s q / / < ; q t e t V t V F 2 e a ,.s p q <  ., >.5.d Z L f s d V V x.C v.N Z @.3 t e.Z 1 6 d s.Z ( 0./ u +.Q r Z F m c +.c s q.0.d p X.y B Z a ",
"v c.e c q r t p s a H -.; 3 r.Z B <.Q p V n ; & s B r &.( e m x s s B >.a O K e.C s s <.i.a.y.C t q >.u.1 i < d a.V Z V { y V s u t.y e V y B V.q.d s =.w s s Z ",
"S f.t.e ; t B t u -.V V q d D Z Z f.p h Q V ; % q 2 < ; >.B < n F - i 4.s c s V p.d y i s 0.q.B < 2 V e - y < / >.Z V B ,.i D <.s u.=.- y y d <.y.s e :.,.u :.B ",
"Z V j.N t u r.n B 4.V y t Z e u +.p.= X L Z C 3 V w c - a ( K V V ; i t.@.2 2 q @.d.i y V B &.s - u y t 4 Z w ` B <.V V p.n u Q 4.Z 5.y B i u.h V e c +.:.i x S ",
",.y 0.,.( 1 V i C u.p a o.m , : i V C u D n t.p s.Z t s a ,.@.( B u n u 5.q +.d e.a.,.B d * q s * i y y e.4.B Z s q i 0.Z B u B 0.Z V V F n a.d.e % m B s B * i ",
"f.V V C r.B d 7 i 0.q Z 0.a.; * t s Z t.c i c.4.+.,.< s @.a.C ( ,.C u ; &.V <.<.a.f.:.n @.= y d s / 4.V F s s < a < a X.a Q q r d X.i Z D C < X.d p < n q s ; y "
};
