/* XPM */
static char *_90_1af252bb49e99800a9999e09bbcee90a56b375cee53761954d3767c871bca872[] = {
/* columns rows colors chars-per-pixel */
"80 80 78 1 ",
"  c #65B77B",
". c #66B77B",
"X c #68B87D",
"o c #6AB87E",
"O c #6BB97F",
"+ c #6DB981",
"@ c #6EBA82",
"# c #6FBA83",
"$ c #70BA83",
"% c #71BB84",
"& c #76BD88",
"* c #76BD89",
"= c #77BD89",
"- c #77BD8A",
"; c #78BE8A",
": c #79BE8B",
"> c #7BBF8D",
", c #7DBF8E",
"< c #7DC08E",
"1 c #7DC08F",
"2 c #7FC090",
"3 c #80C191",
"4 c #82C192",
"5 c #82C293",
"6 c #83C293",
"7 c #83C294",
"8 c #84C294",
"9 c #84C395",
"0 c #85C395",
"q c #85C396",
"w c #88C497",
"e c #88C498",
"r c #89C598",
"t c #8CC69B",
"y c #8CC69C",
"u c #8DC79C",
"i c #8FC79E",
"p c #8FC89E",
"a c #90C89F",
"s c #92C9A0",
"d c #92C9A1",
"f c #93C9A1",
"g c #94CAA2",
"h c #95CAA3",
"j c #97CBA5",
"k c #96CCA4",
"l c #96CCA5",
"z c #97CCA5",
"x c #97CDA5",
"c c #97CDA6",
"v c #98CBA5",
"b c #98CBA6",
"n c #98CCA6",
"m c #98CDA6",
"M c #99CCA7",
"N c #98CDA7",
"B c #99CDA7",
"V c #99CDA8",
"C c #9ACDA8",
"Z c #9BCDA8",
"A c #9BCDA9",
"S c #9ACEA8",
"D c #9BCEA8",
"F c #9BCEA9",
"G c #9CCDA9",
"H c #9CCEA9",
"J c #9CCEAA",
"K c #9DCEAA",
"L c #9DCEAB",
"P c #9DCFAB",
"I c #9ECEAB",
"U c #9ECFAB",
"Y c #9ECFAC",
"T c #9FCFAC",
"R c #A0CFAC",
"E c #A0CFAD",
"W c #A0D0AD",
"Q c #A1D0AD",
/* pixels */
"lJTTTTTTTTTTTTTTTTTTTTTTTTTTTTTTTTTTTTTTTTTTTTTCNTTTTTTTTTTTTTTTTTTTTTTTTTTTTTTT",
"JUTTTTTTTTTTTTTTTTTTTTTTTTTTTTTTTTTTTTTTTTTTTTSCKTTTTTTTTTTTTTTTTTTTTTTTTTTTTTTT",
"TTTTTTTTTTTTTTTTTTTTTTTTTTTTTTTTTTTTTTTTTTTTTTmCTTTTTTTTTTTTTTTTTTTTTTTTTTTTTTTT",
"TTTTTTTTTTTTUKTTTTTTTTTTTTTTTTTTTTTTTTTTTTTTTJBHTTTTTTTTTTTTTTTTTTTTTTTTTTTTTTTT",
"TTTTTTTTTTTUBNTTTTTTTTTTTTTTTTTTTTTTTTTTTTTTKNJTTTTTTTTTTTTTTTTTTTTTTTTTTTTTTTTT",
"TTTTTTTTTTTBkNTTTTTTTTTTTTTTTTTTTTTTTTTTTTTJNKTTTTTTTTTTTTTTTTTTTTTTTTTTTTTTTTTT",
"TTTTTTTTTTTmNKTTTTTTTTTTTTTTTTTTTTTTTTTTTTHBJTTTTTTTTTTTTTTTTTTTTTTTTTTTTTTTTTTT",
"TTTTTTTTTUDCKTTTTTTTTTTTTTTTTTTTTTTTTTTTTHCHTTTTTTTTTTTTTTTTTTTTTTTTTTTTTTTTTTTT",
"TTTTTTTTTUBKTTTTTTTTTTTTTTTTTTTTTTTTTTTTTmCTTTTTTTTTTTTTTTTTTTTTTTTTTTTTTTTTTTTT",
"TTTTTTTTTTTTTTTTTTTTTTTTTTTTTTTTTTTTTTTTTmCTTTTTTTTTTTTTTTTTTTTTTTTTTTTTTTTTTTTT",
"TTTTTTTTTTTTTTTTTTTTTTTTTTTTTTTTTTTTTTTTTNSTTTTTTTTTTTTTTTTTTTTTTTTTTTTTTTTTTTTT",
"TTTTTTTTTTTTTTTTTTTTTTTTTTTTTTTTTTTTTTTTTKPTTTTTTTTTTTTTTTTTTTTTTTTTTTTTTTTTTTTT",
"TTTTTTTTTTTTTTTTTTTTTFJTTTTTTTTTTTTTTTTTTTTTTTTTTTTTTTTTTTTTTTTj09jRTTTTTTTTTTTT",
"TTTTTTTTTTTTTTTTTTTTTSCKTTTTTTTTTTTTTTTTTTTTTTTTTTTTTTTTTTTTTTWi.&hETTTTTTTTTTTT",
"TTTTTTTTTTTTTTTTTTTTTTCNTTTTTTTTTTTTTTTTTTTTTTTTTTTTTTTTTTTTTTJt=jTTTTTTTTTTTTTT",
"TTTTTTTTTTTTTTTTTTTTTTCmUTTTTTTTTTTTTTTTTTTTTTTTTTTTTTTTTTTTTIw,vUTTTTTTTTTTTTTT",
"TTTTTTTTTTTTTTTTTTTTTTClBUTTTTTTTTTTTTTTTTTTTTTTTTTTTTTTTTTTI06gTTTTTTTTTTTTTTTT",
"TTTTTTTTTTTTRjrHETTTTTKCDUTTTTTTTTTTTTTTTTTTTTTTTTTTTTTTTTTTK*6WTTTTTTTTTTTTTTTT",
"TTTTTTTTTTTTEg,tZETTTTTTTTTTTTTTTTTTTTTTTTTTTTTTTTTTTTTTTTTTI=6TTTTTTTTTTTTTTTTT",
"TTTTTTTTTTTTTTv:yJTTTTTTTTTTTTTTTTTTTTTTTTTTTTTTTTTTTTTTTTTUj>wTTTTTTTTTTTTTTTTT",
"TTTTTTTTTTTTTTUj>wTTTTTTTTTTTTTTTTTTTTTTTTTTTTTTTTTTTTTTTTRM:yJTTTTTTTTTTTTTTTTT",
"TTTTTTTTTTTTTTTI=6ETTTTTTTTTTTTTTTTTTTTTTTTTTTTTTTTTTTTTTTTKsZETTTTTTTTTTTTTTTKN",
"TTTTTTTTTTTTTTTK=%uUTTTTTTTTTTTTTTTTTTTTTTTTTTTTTTTTTTTTTTTTETTTTTTTTTTTTTTTTKCC",
"TTTTTTTTTTTTTTTIqo-KTTTTTTTTTTTTTTTKUTTTTTTTTTTTTTTTTTTTTTTTTTTTTTTTTTTTTTTTKmmT",
"TTTTTTTTTTTTTTTTU4=KTTTTTTTTTTTTTTUcJTTTTTTTTTTTTTTTTTTTTTTTTTTTTTTTTTTTTTTTVlBT",
"TTTTTTTTTTTTTTTTT9;GTTTTTTTTTTTTTTUxHTTTTTTTTTTTTTTTTTTTTTTTTTTTTTTTTTTTTTTTUUUT",
"TTTTTTTTTTTTTTTTTne2CTTTTTTTTTTTTTUxJTTTTTTTTTTTTUVKTTTTTTTTTTTTTTTTTTTTTTTTTTTT",
"TTTTTTTTPFYTTTTTTQi@bETTTTTTTTTTTTUFCKTTTTTTTTTTTUxHTTTTTTTTTTTTTTTTTTTTTTTTTTTT",
"TTTTTTTTHlFUTTTTTEi#nETTTTTTTTTTTTTTmCTTTTTTTTTTTUcJTTTTTTTTTTTTTTTTTTTTTTTTTTTT",
"TTTTTTTTJxcHYTTTTEi+sLTTTTTTTTTTTTTTmCTTTTTTTTTTTUcJTTTTTTTTTTTTTTTTTTTTTTTTTTTT",
"TTTTTTTTTULBSTTTTEaX$fETTTTTTTTTTTTTNCTTTTTTTTTTTUcJTTTTTTTTTTTTTTTTTTTTTTTTTTTT",
"TTTTTTTTTTTmlSTTTTCapCTTTTTTTTTTTTTTKCSTTTTTTTTTTUcJTTTTTTTTTTTTTTTTTTTTTTTTTTTT",
"TTTTTTTTTTTHcmTTTTTEETTTTTTTTTTTTTTTTCmTTTTTTTTTTUxHTTTTTTTTTTTTTTTTTTTTTTTTTTTT",
"TTTTTTTTTTTTCmTTTTTTTTTTTTTTTTTTTTTTTCmTTTTTTTTTTUVKTTTTTTTTTTTTTTTTTTTTTTTTTTTT",
"TTTTTTTTTTTTCmTTTTTTTTTTTTTTTTTTTTTTTDBTTTTTTTTTTTTTTTTTTTTTTTTTTTTTTTTTTTTTTTTT",
"TTTTTTTTTTTTSNUTTTTTTTTTTTTTTTTTTTTTTUUTTTTTTTTTTTTTTTTTTTTTTTTTTTTTTTTTTTTTTTTT",
"TTTTTTTTTTTTUFBUTTTTTTTTTTTTTTTTTTTTTTTTTTTTTTTTTTTTTTTTTTTTTTTTTTTTTTTTTTTTTTTT",
"TTTTTTTTTTTTTUFUTTTTTTTTTTTTTTTTTTTTTTTTTTTTTTTTTTTTTTTTTTTTTTTTTTTTTTTHJTTTTTTT",
"TTTTTTTTTTTTTTTTTTTTTTTTTTTTTTTTTTTTTTTTTTTTTTTTTTTTTTTTTTTTTTTTTTTTTTJBHTTTTTTT",
"TTTTTTTTTTTTTTTTTTTTTTTTTTTTTTTTTTTTTTTTTTTTTTTTTTTTTTTTTTTTTTTTTTTTTKNJTTTTTTTT",
"TTTTTTTTTTTTTTTTTTTTTTTTTTTTTTTTTTTTTTTTTTTTTTTTTTTTTTTTTTTTTTTTTTTTJmKTTTTTTTTT",
"TTTTTTTTTTTTTTTTTTTTTTTTTTTTTTTTTTTTTTTTTTTTTTTTTTTTTTTTTTTTTTTTTTTTHxUTTTTTTTTT",
"TTTTTTTTTTTTTTTTTTTTTTTTTTTJHTTTTTTTTTTTTTTTTTTTTTTTTTTTTTTTTTTTTTTKCFUTTTTTTTTT",
"TTTTTTTTTTTTTTTTTTTTTTTTTTTCmTTTTTTTTTTTTTTTTTTTTTTTTTTTTTTTTTTTTTKCSTTTTTTTTTTT",
"TTTTTTUUTTTTTTTTTTTTTTTTTTTCmTTTTTTTTTTTTTTTTTTTTTTTTTTTTTTTTTTTTTBDTTTTTTTTTTTT",
"TTTTTTBDTTTTTTTTTTTTTTTTTTTCmTTTTTTTTTTTTTTTTTTIITTTTTTTTTTTTTTTTTUUTTTTTTTTTTTT",
"TTTTTTKCSTTTTTTTTTTTTTTTTTTCmTTTTTTTTTTTTTTTTTTt0ITTTTTTTTTTTTTTTTTTTTTTTTTTTTTT",
"TTTTTTTCmTTTTTTTTTTTTTTTTTTCmTTTTTTTTTTTTTTTTTT5*KTTTTTTTTTTTTTTTTTTTTTTTTTTTTTT",
"TTTTTTTCmTTTTTTTTTTTTTTTTTTCmTTTTTTTTTTTTTTTTTT6-KTTTTTTTTTTTTTTTTTTTTTTTTTTTTTT",
"TTTTTTTFBUTTTTTTTTTTTTTTTTTCmTTTTTTTTTTTTTTTTTT6-KTTTTTTTTTTTTTTTTTTTTTTTTTTTTTT",
"TTTTTTTYFmUTTTTTTTTTTTTTTTTCmTTTTTTTTTTTTTTTTTT6-KTTTTTTTTTTTTTTTTTTTTTTTTTTTTTT",
"TTTTTTTTJxUTTTTTTTTTTTTTTTTCmTTTTTTTTTTTTTTTTTT6-KTTTTTTTTTTTTTTTTTTTTTTTTTTTTTT",
"TTTTTTTTUSSUTTTTTTTTTTTTTTTCmTTTTTTTTTTTTTTTTTT5*KTTTTTTTTTTTTTTTTTTTTTTTPFUTTTT",
"TTTTTTTTTUxHTTTTTTTTTTTTTTTCmTTTTTTTTTTTTTTTTTTt0ITTTTTJHPTTTTTTTTTTTTTTTJxUTTTT",
"TTTTTTTTTUxHTTTTTTTTTTTTTTTFBUTTTTTTTTTTTTTTTTTIITTTTTUxlFTTTTTTTTTTTTTTYFmUTTTT",
"TTTTTTTTTUcJTTTTTTTTTTTTTTTYFmUTTTTTTTTTTTTTTTTTTTTTTTLcFYTTTTTTTTTTTTTTFBUTTTTT",
"TTTTTTTTTTKUTTTTTTTTTTTTTTTTJxUTTTTTTTTTTTTTTTTTTTTTTKBHUTTTTTTTTTTTTTTTCmTTTTTT",
"TTTTTTTTTTTTTTTTTTTTTTTTTTTTJcUTTTTTTTTTTTTTTTTTTTTTTJzUTTTTTTTTTTTTTTTTJHTTTTTT",
"TTTTTTTTTTTTTTTTTTTTTTTTTTTTHxUTTTTTTTTTTTTTTTTTTTTTUFBUTTTTTTTTTTTTTTTTTTTTTTTT",
"TTTTTTTTTTTTTTTTTTTTTTTTTTTTJmKTTTTTTTTTTTTTTTTTTTTTSNUTTTTTTTTTTTTTTTTTTTTTTTTT",
"TTTTTTTTTTTTTTTTTTTTTTTTTTTTTKmJTTTTTTTTTTTTTTTTTTTTCmTTTTTTTTTTTTTTTTTTTTTTTTTT",
"TTTTTTTTTTTTTTTTTTTTTTTTTTTTTUxHTTTTTTTTTTTTTTTTTTTTCmTTTTTTTTTTTTTTTTTTTTTTTTTT",
"TTTTTTTTTTTTTTTTTTTTTTTTTTTTTUxHTTTTTTTTTTTTTTTTTTTTCmTTTTTTTTTTTTTTTTTTTTTTTTTT",
"TTTTTTTTTTTTTTTTTTTTTTTTTTTTTUVKTTTTTTTTTTTTTTTTTTTTFSTTTTTTTTTTTTTTTTTKPTTTTTTT",
"TTTTTTTTTTTTTTTTTTTTTTTTTTTTTTTTTTTTTTTTTTTTTTTTTTTTTTTTTTTTTTTTTTTTTTPmSTTTTTTT",
"TTTTTTTTTTTTTTTTTTTTLUTTTTTTTTTTTTTTTTTTTTTTTTTTTTTTTTTTTTTTTTTTTTTTTUmlSTTTTTTT",
"TTTTTTTTTTTTTTTTTTTC3gETTTTTTTTTTTTTTTTTTTTTTTTTTTTTTTTTTTTTTTTTTTTTKBFJUTTTTTTT",
"TTTTTTTTTTTTKCDUTTEvO:fTTTTTTTTTTTTTTTTTTTTTTTTTTTTTTTTTTTTTTTTTTTTTJzUTTTTTTTTT",
"TTTTTTTTTTTKNkBUTTTC1 8ETTTTTTTTTTTTTTTTTTTTTTTTTTTTTTTTTTTTTTTTTTTUFBUTTTTTTTTT",
"TTTTTTTTTTPmkBUTTTTTG<6CTTTTTTTTTTTTTTTTTTTTTTTTTTTTTTTTTTTTTTTTTTUBNUTTTTTTTTTT",
"TTTTTTTTTUmkCUTTTTTTTC6<GTTTTTTTTTTTTTTTTTTTTTTTTTTTTTTTTTTTTTTTTTBkNTTTTTTTTTTT",
"TTTTTTTTTUzCUTTTTTTTTE8 <CTTTTTTTTTTTTTTTTTTTTTTTTTTTTTTTTTTTTTTTTmNKTTTTTTTTTTT",
"TTTTTTTTPSSUTTTTTTTTTTd7wATTTTTTTTTTTTTTTTTTTTTTTTTTTTTTTTTTTTTTTTmCTTTTTTTTTTTT",
"TTTTTTTTKBUTTTTTTTTTTTTTTTTTTTTTTTTTTTTTTTTTTTTTTTTTTTTTTTTTTTTTTTSFTTTTTTTTTTTT",
"TTTTTTTTTTTTTTTTTTTTTTTTTTTTTTTTTTTTTTTTTTTTTTTTTTTTTTTTTTTTTTTTTTTTTTTTTTTTTTTT",
"TTTTTTTTTTTTTTTTTTTTTTTTTTTTTTTTTTTTTTTTTTTTTTTTTTTTTTTTTTTTTTTTTTTTTTTTTTTTTTTT",
"TTTTTTTTTTTTTTTTTTTTTTTTTTTTTTTTTTTTTTTTTTTTTTTTTTTTTTTTTTTTTTTTTTTTTTTTTTTTTTTT",
"TTTTTTTTTTTTTTTTTTTTTTTTTTTTTTTTTTTTTTTTTTTTTTTTTTTTTTTTTTTTTTTTTTTTTTTTTTTTTTTT",
"TTTTTTTTTTTTTTTTTTTTTTTTTTTTTTTTTTTTTTTTTTTTTTTTTTTTTTTTTTTTTTTTTTTTTTTTTTTTTTTT",
"TTTTTTTTTTTTTTTTTTTTTTTTTTTTTTTTTTTTTTTTTTTTTTTTTTTTTTTTTTTTTTTTTTTTTTTTTTTTTTTT"
};
