/* XPM */
static char *_9575_d02ea32bc8f4d692bd7afbc7f195af7625823dda50e97f9b01b0d294e988cc93[] = {
/* columns rows colors chars-per-pixel */
"80 80 248 2 ",
"   c #3E6F3B",
".  c #27773C",
"X  c #27793C",
"o  c #277A3C",
"O  c #287B3C",
"+  c #287C3C",
"@  c #287D3C",
"#  c #2B7D3C",
"$  c #287E3C",
"%  c #287F3C",
"&  c #2A7E3C",
"*  c #32733B",
"=  c #35763D",
"-  c #3E753B",
";  c #3C753E",
":  c #3A7E3B",
">  c #6B5E38",
",  c #765A38",
"<  c #496B3A",
"1  c #4E693A",
"2  c #496F3A",
"3  c #54673A",
"4  c #5F6239",
"5  c #437E3E",
"6  c #4B793F",
"7  c #4A7C3D",
"8  c #5C7039",
"9  c #656039",
"0  c #62653B",
"q  c #6B6038",
"w  c #79613A",
"e  c #7F623D",
"r  c #7F663D",
"t  c #537940",
"y  c #537B40",
"u  c #6D6F41",
"i  c #607241",
"p  c #677641",
"a  c #6E7A42",
"s  c #727241",
"d  c #815637",
"f  c #835738",
"g  c #845939",
"h  c #855A39",
"j  c #865A3A",
"k  c #875C3B",
"l  c #885B39",
"z  c #895D3B",
"x  c #8B5E3B",
"c  c #8C5F3B",
"v  c #895D3C",
"b  c #8A5E3D",
"n  c #8E603B",
"m  c #8D613E",
"M  c #8D613F",
"N  c #8F623F",
"B  c #91633F",
"V  c #94653F",
"C  c #96663E",
"Z  c #98673F",
"A  c #906440",
"S  c #916541",
"D  c #936742",
"F  c #936743",
"G  c #946641",
"H  c #976942",
"J  c #966943",
"K  c #966944",
"L  c #926F45",
"P  c #996942",
"I  c #9A6B43",
"U  c #9C6C43",
"Y  c #9E6D43",
"T  c #986B45",
"R  c #9A6B44",
"E  c #996C46",
"W  c #9D6D44",
"Q  c #9D6E45",
"!  c #9F6E44",
"~  c #9D6E46",
"^  c #9E6F46",
"/  c #887D44",
"(  c #A16F44",
")  c #A17045",
"_  c #A07046",
"`  c #A27146",
"'  c #A47246",
"]  c #A47346",
"[  c #A57346",
"{  c #A77547",
"}  c #A87343",
"|  c #AB7645",
" . c #A97647",
".. c #AB7747",
"X. c #AC7747",
"o. c #AC7847",
"O. c #AD7847",
"+. c #AE7947",
"@. c #B07A47",
"#. c #B27B47",
"$. c #B57D47",
"%. c #28803C",
"&. c #29803C",
"*. c #29813C",
"=. c #29833C",
"-. c #2B833C",
";. c #2D803C",
":. c #2D823C",
">. c #29843C",
",. c #29853C",
"<. c #2A873C",
"1. c #2C853C",
"2. c #2E843C",
"3. c #2C873C",
"4. c #2A883C",
"5. c #2A893C",
"6. c #2A8A3C",
"7. c #2C893C",
"8. c #2D8B3C",
"9. c #2A8C3C",
"0. c #2B8D3C",
"q. c #2B8E3C",
"w. c #2B8F3C",
"e. c #2D8D3C",
"r. c #2F8C3C",
"t. c #2D8F3C",
"y. c #30853C",
"u. c #30873C",
"i. c #30893C",
"p. c #31893C",
"a. c #318B3C",
"s. c #338A3C",
"d. c #328C3C",
"f. c #328F3C",
"g. c #348D3C",
"h. c #2B903C",
"j. c #2B923C",
"k. c #2D913C",
"l. c #2C933C",
"z. c #2E933C",
"x. c #2C943C",
"c. c #2C963C",
"v. c #2E973C",
"b. c #2F993C",
"n. c #30903C",
"m. c #32923C",
"M. c #32933C",
"N. c #34913C",
"B. c #35913C",
"V. c #36903C",
"C. c #37903C",
"Z. c #35933C",
"A. c #30943C",
"S. c #33943C",
"D. c #30963C",
"F. c #33963C",
"G. c #35953C",
"H. c #34963C",
"J. c #35973C",
"K. c #39933C",
"L. c #38953C",
"P. c #39953C",
"I. c #3A953C",
"U. c #3A973C",
"Y. c #3C973C",
"T. c #31983C",
"R. c #31993C",
"E. c #33983C",
"W. c #319B3C",
"Q. c #34983C",
"!. c #36993C",
"~. c #369B3C",
"^. c #339D3C",
"/. c #349C3C",
"(. c #369D3C",
"). c #349E3C",
"_. c #359F3C",
"`. c #369F3C",
"'. c #39983C",
"]. c #399A3C",
"[. c #3A9B3C",
"{. c #3B9E3C",
"}. c #3D9D3C",
"|. c #3F9C3C",
" X c #3D9F3C",
".X c #37A13C",
"XX c #39A13C",
"oX c #39A33C",
"OX c #3CA13C",
"+X c #3CA23C",
"@X c #3EA33C",
"#X c #3AA43C",
"$X c #3CA43C",
"%X c #3EA43C",
"&X c #3CA63C",
"*X c #3DA73C",
"=X c #3EA83C",
"-X c #3FA93C",
";X c #4B863E",
":X c #578B3F",
">X c #64803F",
",X c #42A13B",
"<X c #43A63B",
"1X c #42A73B",
"2X c #44A53B",
"3X c #45A53B",
"4X c #45A73B",
"5X c #40A03C",
"6X c #40A43C",
"7X c #43A83B",
"8X c #47A83B",
"9X c #44AA3B",
"0X c #45AA3B",
"qX c #46AB3B",
"wX c #42AC3B",
"eX c #44AC3B",
"rX c #46AD3B",
"tX c #44AE3B",
"yX c #45AF3B",
"uX c #47AF3B",
"iX c #41A83C",
"pX c #40AA3C",
"aX c #42AC3C",
"sX c #4BAF3B",
"dX c #46B03B",
"fX c #47B13B",
"gX c #4BB03B",
"hX c #49B33B",
"jX c #4CB23B",
"kX c #4DB23B",
"lX c #4AB43B",
"zX c #4BB53B",
"xX c #4CB43B",
"cX c #4CB63B",
"vX c #4DB73B",
"bX c #4EB83B",
"nX c #4FB93B",
"mX c #50B63B",
"MX c #50B83B",
"NX c #51B83B",
"BX c #51BA3B",
"VX c #51BB3B",
"CX c #52BC3B",
"ZX c #53BD3B",
"AX c #54BE3B",
"SX c #57C13B",
"DX c #5F8940",
"FX c None",
/* pixels */
"FXFXFXFXFXFXFXFXFXFXFXFXFXFXFXFXFXFXFXFXFXFXFXFXFXFXFXFXFXFXFXFXFXFXFXFXFXFXFXFXFXFXFXFXFXFXFXFXFXFXFXFXFXFXFXFXFXFXFXFXFXFXFXFXFXFXFXFXFXFXFXFXFXFXFXFXFXFXFXFX",
"FXFXFXFXFXFXFXFXFXFXFXFXFXFXFXFXFXFXFXFXFXFXFXFXFXFXFXFXFXFXFXFXFXFXFXFXFXFXFXFXFXFXFXFXFXFXFXFXFXFXFXFXFXFXFXFXFXFXFXFXFXFXFXFXFXFXFXFXFXFXFXFXFXFXFXFXFXFXFXFX",
"FXFXFXFXFXFXFXFXFXFXFXFXFXFXFXFXFXFXFXFXFXFXFXFXFXFXFXFXFXFXFXFXFXFXFXFXFXFXFXFXFXFXFXFXFXFXFXFXFXFXFXFXFXFXFXFXFXFXFXFXFXFXFXFXFXFXFXFXFXFXFXFXFXFXFXFXFXFXFXFX",
"FXFXFXFXFXFXFXFXFXFXFXFXFXFXFXFXFXFXFXFXFXFXFXFXFXFXFXFXFXFXFXFXFXFXFXFXFXFXFXFXFXFXFXFXFXFXFXFXFXFXFXFXFXFXFXFXFXFXFXFXFXFXFXFXFXFXFXFXFXFXFXFXFXFXFXFXFXFXFXFX",
"FXFXFXFXFXFXFXFXFXFXFXFXFXFXFXFXFXFXFXFXFXFXFXFXFXFXFXFXFXFXFXFXFXFXFXFXFXFXFXFXFXFXFXFXFXFXFXFXFXFXFXFXFXFXFXFXFXFXFXFXFXFXFXFXFXFXFXFXFXFXFXFXFXFXFXFXFXFXFXFX",
"FXFXFXFXFXFXFXFXFXFXFXFXFXFXFXFXFXFXFXFXFXFXFXFXFXFXFXFXFXFXFXFXFXFXFXFXFXFX. SXOX. FXFXFXFXFXFXFXFXFXFXFXFXFXFXFXFXFXFXFXFXFXFXFXFXFXFXFXFXFXFXFXFXFXFXFXFXFXFX",
"FXFXFXFXFXFXFXFXFXFXFXFXFXFXFXFXFXFXFXFXFXFXFXFXFXFXFXFXFXFXFXFXFXFXFXFXL.XX{.nX8.q.>.FXFXFXFXFXFXFXFXFXFXFXFXFXFXFXFXFXFXFXFXFXFXFXFXFXFXFXFXFXFXFXFXFXFXFXFXFX",
"FXFXFXFXFXFXFXFXFXFXFXFXFXFXFXFXFXFXFXFXFXFXFXFXFXFXFXFXFXFXFXFXFX*.0XCXSXSXCXE.9.c.j.@ FXFXFXFXFXFXFXFXFXFXFXFXFXFXFXFXFXFXFXFXFXFXFXFXFXFXFXFXFXFXFXFXFXFXFXFX",
"FXFXFXFXFXFXFXFXFXFXFXFXFXFXFXFXFXFXFXFXFXFXFXFXFXFXFXFXFXFXFXFX. <.&X<.<.G.aXq.<.. <.O . FXFXFXFXFXFXFXFXFXFXFXFXFXFXFXFXFXFXFXFXFXFXFXFXFXFXFXFXFXFXFXFXFXFXFX",
"FXFXFXFXFXFXFXFXFXFXFXFXFXFXFXFXFXFXFXFXFXFXFXFXFXFXFXFXFXFXFXFX. X ,.r.sX@XcXq.t.r.. . . . FXFXFXFXFXFXFXFXFXFXFXFXFXFXFXFXFXFXFXFXFXFXFXFXFXFXFXFXFXFXFXFXFXFX",
"FXFXFXFXFXFXFXFXFXFXFXFXFXFXFXFXFXFXFXFXSXSXSXSXvX.X.XSXwXFXFXFXFX% eXCXSXtXaX=.v.W.. . FXFXFXFXFXFXFXFXFXFXFXFXFXFXFXFXFXFXFXFXFXFXFXFXFXFXFXFXFXFXFXFXFXFXFXFX",
"FXFXFXFXFXFXFXFXFXFXFXFXFXFXFXFXSXSXSXSXSXSXcXaXaXaX&X6.!..XQ.FX<.fXaX<.<.T..X% % . . . FXFXFXFXFXFXFXFXFXFXFXFXFXFXFXFXFXFXFXFXFXFXFXFXFXFXFXFXFXFXFXFXFXFXFXFX",
"FXFXFXFXFXFXFXFXFXFXFXFXFXFXcX+Xq.q.q.q.q.q.q.q.q.q.q.h.6.O =.. =.4.. 2.&XtXc.% q.. . . FXFXFXFXFXFXFXFXFXFXFXFXFXFXFXFXFXFXFXFXFXFXFXFXFXFXFXFXFXFXFXFXFXFXFXFX",
"FXFXFXFXFXFXFXFXFXFXFXFXSX+X<.n.!.F.q.A.!.!.q.k.{.6X6.% % 6.% . . X m.rXS.4.6.4.9.% . FXFXFXFXFXFXFXFXFXFXFXFXFXFXFXFXFXFXFXFXFXFXFXFXFXFXFXFXFXFXFXFXFXFXFXFXFX",
"FXFXFXFXFXFXFXFXFXFXSXSXaXU.+XcXcX[.+XcXSXfXq.G.CXaXW.+X% . 6.O . % [.% n.A.<.. . . . FXFXFXFXFXFXFXFXSXSXbXaXc.c.6.<.=.. % q.. FXFXFXFXFXFXFXFXFXFXFXFXFXFXFXFX",
"FXFXFXFXFXFXFXFXFXQ.AX).<.# qXcXj.% SX&XcX).. P.).j.. {.W.6.@ 4.. . . n.SX!.<.h.@ . . FXFXFXFXFXSXSXSXfX.X&XcXcXcXcXW..Xb.&XAXE.=.. FXFXFXFXFXFXFXFXFXFXFXFXFXFX",
"FXFXFXFXFXFXFXFX. 5XtXh.@ FXtX.X=.C.*Xj.q.=.O <X6.O :.A.A.q.q.=.. . . A.&XF.<.c.6.. FXFXFXFXZXAXaXcXfX.X.X&XcXfXW.c.W.!.v.aX-X3.2.2.$ FXFXFXFXFXFXFXFXFXFXFXFXFX",
"FXFXFXFXFXFXFXFX. .Xj.O |.aX&Xc.. 0Xn.% . . <.. . . U.O . . O <.. . . . c.q.<.j.O . <.FXVXcXcXCXSXaXaX.Xq.G.SXaX6.+XaXU.<.q.aX&X.X.Xj.*.FXFXFXFXFXFXFXFXFXFXFXFX",
"FXFXFXFXFXFXFXFX. % >.FX.Xc.6.% . 9.. . . FX% . . <.j.<.<.. . . . . . . O q.q.=.. . c.&XaXcXfXaXaXaX+X% . d..Xc.%.Y.cX&X&X!.<.T..Xq.O . . FXFXFXFXFXFXFXFXFXFXFX",
"FXFXFXFXFXFXFXFX. . . 9.% % X . <.,.u.2.,.2XsXq.0XzXc..Xc.q.6.% . . . . . 4.<.. 4.q.c.R.q.!.1.% % % &.FXFXl.j.c.*.sXW.% gXaXh.<.j.<.9.=.. FXFXFXFXFXFXFXFXFXFXFX",
"FXFXFXFXFXFXFXFX. . FXFXFXFXFXc.%XxX&XW.c.)..Xc.).aXtXc.c.c.c.c.q.@ . . . . . . q.c.6.@ . . . . . FXFXFXFX+ O % X FX&X. sXW.).eX<.<.4.j.. FXFXFXFXFXFXFXFXFXFXFX",
"FXFXFXFXFXFXFXFXFXFXFXFXFXaXcX.X.XcXaXaXaXaX<.<.n..Xq.>.9.. =.<.<.=.. . . . % <.5.c.c.q.. FXFXFXFXFXFXFXFX. . . . . #X. mXc.. hXc.% 6.<.. FXFXFXFXFXFXFXFXFXFXFX",
"FXFXFXFXFXFXFXFXFXFXFXFX0.cXfX.XaX7XZ.r.<.<.q.<.q.6.@ . % =.. . . X % . . . O q.D.fXaX/.q.M.FXFXFXFXFXFXFXFX. . . . q.. H.c.$ E.T.<.,.=.. . FXFXFXFXFXFXFXFXFXFX",
"FXFXFXFXFXFXFXFXc.cXSXnX&X).fX.X6.% x.c.m.cXc.. $ FX4.. . FXFXFXFXc.tX{.4.. . . X 2..XcXcXn.~.gX<.FXFXFXFXFXFXFXFX. . @ @ cXx.$ |.6.{.=.. . FXFXFXFXFXFXFXFXFXFX",
"FXFXFXFXFXFXFXFX. aX&X&XaX&X6.<.q.aXSX.X<.. ].. . . FXFXFXFXFXFXc.&Xn.<.. *   4 3 . % 6.cXcXn.U.cXyXFXFXFXFXFXFXFXFX. . . aXc.*.SX<.s.aX. . FXFXFXFXFXFXFXFXFXFX",
"FXFXFXFXFXFXFXvXb.W.).).q.% h.c.U.BX).c.6.. FXq.. FXFXFXFXFXFXfXaXp.h.. @ @ 3 d d 4 . . 4.j.E.&X<.cXlXh.FXFXFXFXFXFXFX. . . h.*.c.<.u.&X<.. . FXFXFXFXFXFXFXFXFX",
"FXFXFXFXFXFXSXAX&X&X9.<.q.z.fXfX6.'.#X<.X . . FXFXFXFXFXFXi.B..Xn.,.c.=.1   , d d d . . . O =.).(.f.J.N.O FXFXFXFXFXFXFX. FXX o % =.$ q.=.. . FXFXFXFXFXFXFXFXFX",
"FXFXFXFXFXFXSXfXaXq.6.&X.X;.jX.Xc.*.wX. . . FXFXFXFXFXFXc.cXfXaX% A.aX<.  > d d d d FX. . . <.c.<.&X6.<.q.<.*.FXFXFXFXFXFXFX. . . . . . . . . FXFXFXFXFXFXFXFXFX",
"FXFXFXFXFXSXcX&X6.q.j.jX.X5.].#Xc.<.. 9.+ FXFXFXFXFXFX. . sXaX.X. . =.% * , d d d d FXFXFXFX. =.. n.&X.Xq.<.<.. . FXFXFXFXFXFXFXFX. . . . . . . FXFXFXFXFXFXFXFX",
"FXFXFXFXFXSXCX`.=.&XeXa.=Xc.*.!.c.q.. FXFXFXFXFXFXFXFXK.8XjX&Xz.O m.1.2 : q d d g d FXFXFXFX. FX=.cXtXW.&X7.6.q.w.FXFXFXFXFXFXFXFXFX. FX. . . FXFXFXFXFXFXFXFXFX",
"FXFXFXFXFXcXaXA.q..X&X% SXc.% . c.<.. FXFXFXFXFXFXFXkXNXSXaX.X% !.cXW.  r w M b k d FXFXFXFXFXFX<.&X6.q..X&X<.c.c.FXFXFXFXFXFXFXFXFXFXFXFX. . FXFXFXFXFXFXFXFXFX",
"FXFXFXFXhX.Xq.6.% 6Xc.% SXc.<.. <.. FXFXFXFXFXFXFXFXdXcXcXcX&X% <.U.T.s.= e d d d d FXFXFXFXFXFX. =.. % aXW..XN.q.6.<.FXFXFXFXFXFXFXFXFXFXFXFXFXFXFXFXFXFXFXFXFX",
"FXFXFXFX^.W.(.x.6.bXc.h.s.c.<.. h.&.FXFXFXFXFXFXFXFXpX Xg.aXoX% A.-.t >X@ < d d d d FXFXFXFXFXFX. . % +XiXz.c.(.8.,.. FXFXFXFXFXFXFXFXFXFXFXFXFXFXFXFXFXFXFXFXFX",
"FXFXFXFXc.c.c.c.% SXc.c.. h.X . FXFXFXFXFXFXFXFXFXFXh.V.NXaX~.6.CXuX@ 0 8 - d d d d FXFXFXFXFXFX. FX9.W.<.% c.aX4Xh.=.FXFXFXFXFXFXFXFXFXFXFXFXFXFXFXFXFXFXFXFXFX",
"FXFXFXFXc.<.q.j.@ hX=.. . @ O FXFXFXFXFXFXFXFXFXFXFX>.mXaXaX(.<..XaXc.% 3 3 > d d d FXFXFXFXFXFXFXFX%.c.<.;.sXaX.X3Xq.c.FXFXFXFXFXFXFXFXFXFXFXFXFXFXFXFXFXFXFXFX",
"FXFXFXFXFX<.. . . c.. . . FXFXFXFXFXFXFXFXFXFXFXFXFXu.cXfXaX.X% O y.$X. . u D d d d FXFXFXFXFXFXFXFX@ j.. I.CXq.x.cX<.c.FXFXFXFXFXFXFXFXFXFXFXFXFXFXFXFXFXFXFXFX",
"FXFXFXFXFX<.. . . % . . FXFXFXFXFXFXFXFXFXFXFXFXFXFXE.AXfXaX~.6.+X5 ;X=..   d d d d FXFXFXFXFXFXFXFX. O . 0XW.. {.cXjX,.c.FXFXFXFXFXFXFXFXFXFXFXFXFXFXFXFXFXFXFX",
"FXFXFXFXFX. . . . <.FXFXFXFXFXFXFXFXFXFXFXFXFXFXFXFX_.cX!.q.aX% aXcX6.p DXO 3 d d d FXFXFXFXFXFXFXFX. . . 9Xc.. ,XfXaXO O <.FXFXFXFXFXFXFXFXFXFXFXFXFXFXFXFXFXFX",
"FXFXFXFXFXFXFXFXFXFXFXFXFXFXFXFXFXFXFXFXFXFXFXFXFXFXFX9.. 6.&X% +X~.b.6.; 7 3 d d d FXFXFXFXFXFXFXFXFX. 0X).c.. MXgX+Xq.. =.FXFXFXFXFXFXFXFXFXFXFXFXFXFXFXFXFXFX",
"FXFXFXFXFXFXFXFXFXFXFXFXFXFXFXFXFXFXFXFXFXFXFXFXFXFXFXFX@ &Xx.q.n.& }.T.. 9 , d d d FXFXFXFXFXFXFXFXFXFX=.h.q.. 1X,.=./.q.O FXFXFXFXFXFXFXFXFXFXFXFXFXFXFXFXFXFX",
"FXFXFXFXFXFXFXFXFXFXFXFXFXFXFXFXFXFXFXFXFXFXFXFXFXFXFXFX% aXT.<.aX[.O :X=.3 d d d d FXFXFXFXFXFXFXFXFXFX. % c.. hXc.s.cXc.q.. FXFXFXFXFXFXFXFXFXFXFXFXFXFXFXFXFX",
"FXFXFXFXFXFXFXFXFXFXFXFXFXFXFXFXFXFXFXFXFXFXFXFXFXFXFXFX. !.W.% aXaX6.6 y / _ d d d FXFXFXFXFXFXFXFXFXFX. . . <.j.% 8XCXW.c.=.FXFXFXFXFXFXFXFXFXFXFXFXFXFXFXFXFX",
"FXFXFXFXFXFXFXFXFXFXFXFXFXFXFXFXFXFXFXFXFXFXFXFXFXFXFXFX. O ~.h.+Xe.X . L L E d d d FXFXFXFXFXFXFXFXFXFXFX. . @ 6.@ !.).c.c.q.FXFXFXFXFXFXFXFXFXFXFXFXFXFXFXFXFX",
"FXFXFXFXFXFXFXFXFXFXFXFXFXFXFXFXFXFXFXFXFXFXFXFXFXFXFXFXFX. <.6.% . . i E E D d d d FXFXFXFXFXFXFXFXFXFXFX. . . . . . c.c.c.q.. FXFXFXFXFXFXFXFXFXFXFXFXFXFXFXFX",
"FXFXFXFXFXFXFXFXFXFXFXFXFXFXFXFXFXFXFXFXFXFXFXFXFXFXFXFXFX. . . a s l k M g d d d d FXFXFXFXFXFXFXFXFXFXFXFXFXFX. . . O <.q.=.. FXFXFXFXFXFXFXFXFXFXFXFXFXFXFXFX",
"FXFXFXFXFXFXFXFXFXFXFXFXFXFXFXFXFXFXFXFXFXFXFXFXFXFXFXFXFXFX. FX#.' ( Z n n x v g d FXFXFXFXFXFXFXFXFXFXFXFXFXFXFXFXFX. . O . . . FXFXFXFXFXFXFXFXFXFXFXFXFXFXFX",
"FXFXFXFXFXFXFXFXFXFXFXFXFXFXFXFXFXFXFXFXFXFXFXFXFXFXFXFXFXFXFXFXG o.^ ~ _ _ G j d d FXFXFXFXFXFXFXFXFXFXFXFXFXFXFXFXFXFXFXFXFXFXFXFXFXFXFXFXFXFXFXFXFXFXFXFXFXFX",
"FXFXFXFXFXFXFXFXFXFXFXFXFXFXFXFXFXFXFXFXFXFXFXFXFXFXFXFXFXFXFXFXV R ~ E E D d d d FXFXFXFXFXFXFXFXFXFXFXFXFXFXFXFXFXFXFXFXFXFXFXFXFXFXFXFXFXFXFXFXFXFXFXFXFXFXFX",
"FXFXFXFXFXFXFXFXFXFXFXFXFXFXFXFXFXFXFXFXFXFXFXFXFXFXFXFXFXFXFX$.G z D D D j d d d FXFXFXFXFXFXFXFXFXFXFXFXFXFXFXFXFXFXFXFXFXFXFXFXFXFXFXFXFXFXFXFXFXFXFXFXFXFXFX",
"FXFXFXFXFXFXFXFXFXFXFXFXFXFXFXFXFXFXFXFXFXFXFXFXFXFXFXFXFXFXFX$.~ U } d d d d N d FXFXFXFXFXFXFXFXFXFXFXFXFXFXFXFXFXFXFXFXFXFXFXFXFXFXFXFXFXFXFXFXFXFXFXFXFXFXFX",
"FXFXFXFXFXFXFXFXFXFXFXFXFXFXFXFXFXFXFXFXFXFXFXFXFXFXFXFXFXFXFXE { E E _ { B k d d FXFXFXFXFXFXFXFXFXFXFXFXFXFXFXFXFXFXFXFXFXFXFXFXFXFXFXFXFXFXFXFXFXFXFXFXFXFXFX",
"FXFXFXFXFXFXFXFXFXFXFXFXFXFXFXFXFXFXFXFXFXFXFXFXFXFXFXFXFXFXFXJ E ' E E E A d d d FXFXFXFXFXFXFXFXFXFXFXFXFXFXFXFXFXFXFXFXFXFXFXFXFXFXFXFXFXFXFXFXFXFXFXFXFXFXFX",
"FXFXFXFXFXFXFXFXFXFXFXFXFXFXFXFXFXFXFXFXFXFXFXFXFXFXFXFXFXFX{ C M T E E D j d d d FXFXFXFXFXFXFXFXFXFXFXFXFXFXFXFXFXFXFXFXFXFXFXFXFXFXFXFXFXFXFXFXFXFXFXFXFXFXFX",
"FXFXFXFXFXFXFXFXFXFXFXFXFXFXFXFXFXFXFXFXFXFXFXFXFXFXFXFXFXFX@.{ n b M M d d k d FXFXFXFXFXFXFXFXFXFXFXFXFXFXFXFXFXFXFXFXFXFXFXFXFXFXFXFXFXFXFXFXFXFXFXFXFXFXFXFX",
"FXFXFXFXFXFXFXFXFXFXFXFXFXFXFXFXFXFXFXFXFXFXFXFXFXFXFXFXFXFXO.{ _ { G V Z M k d FXFXFXFXFXFXFXFXFXFXFXFXFXFXFXFXFXFXFXFXFXFXFXFXFXFXFXFXFXFXFXFXFXFXFXFXFXFXFXFX",
"FXFXFXFXFXFXFXFXFXFXFXFXFXFXFXFXFXFXFXFXFXFXFXFXFXFXFXFXFXE ^ ..' _ [ ' I j d d FXFXFXFXFXFXFXFXFXFXFXFXFXFXFXFXFXFXFXFXFXFXFXFXFXFXFXFXFXFXFXFXFXFXFXFXFXFXFXFX",
"FXFXFXFXFXFXFXFXFXFXFXFXFXFXFXFXFXFXFXFXFXFXFXFXFXFXFXFXFXE H ~ _ ~ E E D d d d FXFXFXFXFXFXFXFXFXFXFXFXFXFXFXFXFXFXFXFXFXFXFXFXFXFXFXFXFXFXFXFXFXFXFXFXFXFXFXFX",
"FXFXFXFXFXFXFXFXFXFXFXFXFXFXFXFXFXFXFXFXFXFXFXFXFXFXFXFXFXX.V b M K E D b d d FXFXFXFXFXFXFXFXFXFXFXFXFXFXFXFXFXFXFXFXFXFXFXFXFXFXFXFXFXFXFXFXFXFXFXFXFXFXFXFXFX",
"FXFXFXFXFXFXFXFXFXFXFXFXFXFXFXFXFXFXFXFXFXFXFXFXFXFXFXFXFX{ ! z d j k g f v k FXFXFXFXFXFXFXFXFXFXFXFXFXFXFXFXFXFXFXFXFXFXFXFXFXFXFXFXFXFXFXFXFXFXFXFXFXFXFXFXFX",
"FXFXFXFXFXFXFXFXFXFXFXFXFXFXFXFXFXFXFXFXFXFXFXFXFXFXFXFXE #._ ..} } } D A j d FXFXFXFXFXFXFXFXFXFXFXFXFXFXFXFXFXFXFXFXFXFXFXFXFXFXFXFXFXFXFXFXFXFXFXFXFXFXFXFXFX",
"FXFXFXFXFXFXFXFXFXFXFXFXFXFXFXFXFXFXFXFXFXFXFXFXFXFXFXFXS $.' ~ E E E D d d d FXFXFXFXFXFXFXFXFXFXFXFXFXFXFXFXFXFXFXFXFXFXFXFXFXFXFXFXFXFXFXFXFXFXFXFXFXFXFXFXFX",
"FXFXFXFXFXFXFXFXFXFXFXFXFXFXFXFXFXFXFXFXFXFXFXFXFXFXFXFXG ) ' ^ E E E M d d d FXFXFXFXFXFXFXFXFXFXFXFXFXFXFXFXFXFXFXFXFXFXFXFXFXFXFXFXFXFXFXFXFXFXFXFXFXFXFXFXFX",
"FXFXFXFXFXFXFXFXFXFXFXFXFXFXFXFXFXFXFXFXFXFXFXFXFXFXFX] ..g b D D D D g d d FXFXFXFXFXFXFXFXFXFXFXFXFXFXFXFXFXFXFXFXFXFXFXFXFXFXFXFXFXFXFXFXFXFXFXFXFXFXFXFXFXFX",
"FXFXFXFXFXFXFXFXFXFXFXFXFXFXFXFXFXFXFXFXFXFXFXFXFXFXFX[ +.V g d d d d d g h FXFXFXFXFXFXFXFXFXFXFXFXFXFXFXFXFXFXFXFXFXFXFXFXFXFXFXFXFXFXFXFXFXFXFXFXFXFXFXFXFXFX",
"FXFXFXFXFXFXFXFXFXFXFXFXFXFXFXFXFXFXFXFXFXFXFXFXFXFXFX+.{ ' +.' n c f D d d FXFXFXFXFXFXFXFXFXFXFXFXFXFXFXFXFXFXFXFXFXFXFXFXFXFXFXFXFXFXFXFXFXFXFXFXFXFXFXFXFXFX",
"FXFXFXFXFXFXFXFXFXFXFXFXFXFXFXFXFXFXFXFXFXFXFXFXFXFXF W ' ' E ^ _ Q j d d FXFXFXFXFXFXFXFXFXFXFXFXFXFXFXFXFXFXFXFXFXFXFXFXFXFXFXFXFXFXFXFXFXFXFXFXFXFXFXFXFXFXFX",
"FXFXFXFXFXFXFXFXFXFXFXFXFXFXFXFXFXFXFXFXFXFXFXFXFXFXY M E _ E E E D d d d FXFXFXFXFXFXFXFXFXFXFXFXFXFXFXFXFXFXFXFXFXFXFXFXFXFXFXFXFXFXFXFXFXFXFXFXFXFXFXFXFXFXFX",
"FXFXFXFXFXFXFXFXFXFXFXFXFXFXFXFXFXFXFXFXFXFXFXFXFX$.| g k D E E E k d d d FXFXFXFXFXFXFXFXFXFXFXFXFXFXFXFXFXFXFXFXFXFXFXFXFXFXFXFXFXFXFXFXFXFXFXFXFXFXFXFXFXFXFX",
"FXFXFXFXFXFXFXFXFXFXFXFXFXFXFXFXFXFXFXFXFXFXFXFXFX$.` P g g k k k f d d d FXFXFXFXFXFXFXFXFXFXFXFXFXFXFXFXFXFXFXFXFXFXFXFXFXFXFXFXFXFXFXFXFXFXFXFXFXFXFXFXFXFXFX",
"FXFXFXFXFXFXFXFXFXFXFXFXFXFXFXFXFXFXFXFXFXFXFXFXFX$. .` | D N d d j D d d FXFXFXFXFXFXFXFXFXFXFXFXFXFXFXFXFXFXFXFXFXFXFXFXFXFXFXFXFXFXFXFXFXFXFXFXFXFXFXFXFXFXFX",
"FXFXFXFXFXFXFXFXFXFXFXFXFXFXFXFXFXFXFXFXFXFXFXFX^ _ #.~ E { { ~ M g d d FXFXFXFXFXFXFXFXFXFXFXFXFXFXFXFXFXFXFXFXFXFXFXFXFXFXFXFXFXFXFXFXFXFXFXFXFXFXFXFXFXFXFXFX",
"FXFXFXFXFXFXFXFXFXFXFXFXFXFXFXFXFXFXFXFXFXFXFXFXE ' ^ ' E E T b d d d d FXFXFXFXFXFXFXFXFXFXFXFXFXFXFXFXFXFXFXFXFXFXFXFXFXFXFXFXFXFXFXFXFXFXFXFXFXFXFXFXFXFXFXFX",
"FXFXFXFXFXFXFXFXFXFXFXFXFXFXFXFXFXFXFXFXFXFXFXFXm ~ E ~ E E b d d d d d FXFXFXFXFXFXFXFXFXFXFXFXFXFXFXFXFXFXFXFXFXFXFXFXFXFXFXFXFXFXFXFXFXFXFXFXFXFXFXFXFXFXFXFX",
"FXFXFXFXFXFXFXFXFXFXFXFXFXFXFXFXFXFXFXFXFXFXFXFXFXk K M M d d d d d d d FXFXFXFXFXFXFXFXFXFXFXFXFXFXFXFXFXFXFXFXFXFXFXFXFXFXFXFXFXFXFXFXFXFXFXFXFXFXFXFXFXFXFXFX",
"FXFXFXFXFXFXFXFXFXFXFXFXFXFXFXFXFXFXFXFXFXFXFXFXFXFXd d d d d d d d d FXFXFXFXFXFXFXFXFXFXFXFXFXFXFXFXFXFXFXFXFXFXFXFXFXFXFXFXFXFXFXFXFXFXFXFXFXFXFXFXFXFXFXFXFX",
"FXFXFXFXFXFXFXFXFXFXFXFXFXFXFXFXFXFXFXFXFXFXFXFXFXFXFXd d d d d d d FXFXFXFXFXFXFXFXFXFXFXFXFXFXFXFXFXFXFXFXFXFXFXFXFXFXFXFXFXFXFXFXFXFXFXFXFXFXFXFXFXFXFXFXFXFX",
"FXFXFXFXFXFXFXFXFXFXFXFXFXFXFXFXFXFXFXFXFXFXFXFXFXFXFXFXd d d d FXFXFXFXFXFXFXFXFXFXFXFXFXFXFXFXFXFXFXFXFXFXFXFXFXFXFXFXFXFXFXFXFXFXFXFXFXFXFXFXFXFXFXFXFXFXFXFX",
"FXFXFXFXFXFXFXFXFXFXFXFXFXFXFXFXFXFXFXFXFXFXFXFXFXFXFXFXFXFXFXFXFXFXFXFXFXFXFXFXFXFXFXFXFXFXFXFXFXFXFXFXFXFXFXFXFXFXFXFXFXFXFXFXFXFXFXFXFXFXFXFXFXFXFXFXFXFXFXFX",
"FXFXFXFXFXFXFXFXFXFXFXFXFXFXFXFXFXFXFXFXFXFXFXFXFXFXFXFXFXFXFXFXFXFXFXFXFXFXFXFXFXFXFXFXFXFXFXFXFXFXFXFXFXFXFXFXFXFXFXFXFXFXFXFXFXFXFXFXFXFXFXFXFXFXFXFXFXFXFXFX",
"FXFXFXFXFXFXFXFXFXFXFXFXFXFXFXFXFXFXFXFXFXFXFXFXFXFXFXFXFXFXFXFXFXFXFXFXFXFXFXFXFXFXFXFXFXFXFXFXFXFXFXFXFXFXFXFXFXFXFXFXFXFXFXFXFXFXFXFXFXFXFXFXFXFXFXFXFXFXFXFX"
};
