/* XPM */
static char *_6304_f8e57651e40ddecebe431a3edf81085beef2b3d1340dd4a477f6b3841e5b349d[] = {
/* columns rows colors chars-per-pixel */
"80 80 229 2 ",
"   c #3E6F3B",
".  c #27773C",
"X  c #27793C",
"o  c #277A3C",
"O  c #287B3C",
"+  c #287C3C",
"@  c #287D3C",
"#  c #287E3C",
"$  c #287F3C",
"%  c #32733B",
"&  c #35763D",
"*  c #38713B",
"=  c #3E753B",
"-  c #3C753E",
";  c #347F3B",
":  c #6B5E38",
">  c #765A38",
",  c #705C38",
"<  c #765E38",
"1  c #436D3A",
"2  c #4E693A",
"3  c #44733A",
"4  c #59753B",
"5  c #6B683A",
"6  c #71643C",
"7  c #6A763F",
"8  c #527340",
"9  c #7D6F44",
"0  c #607241",
"q  c #6A7542",
"w  c #6E7541",
"e  c #6E7A42",
"r  c #815637",
"t  c #835738",
"y  c #845939",
"u  c #855A39",
"i  c #865A3A",
"p  c #875C3B",
"a  c #885B39",
"s  c #895D3B",
"d  c #8B5E3B",
"f  c #8C5F3B",
"g  c #895D3C",
"h  c #8A5E3D",
"j  c #8E603B",
"k  c #8D613E",
"l  c #8D613F",
"z  c #8F623F",
"x  c #91633F",
"c  c #94653F",
"v  c #96663E",
"b  c #98673F",
"n  c #8F6340",
"m  c #8D6943",
"M  c #906440",
"N  c #916541",
"B  c #936742",
"V  c #946641",
"C  c #976942",
"Z  c #966943",
"A  c #996942",
"S  c #986A42",
"D  c #986B43",
"F  c #9A6B43",
"G  c #986B45",
"H  c #996C46",
"J  c #9B6D46",
"K  c #9D6D44",
"L  c #9D6E45",
"P  c #9F6E44",
"I  c #9D6E46",
"U  c #9E6F46",
"Y  c #857444",
"T  c #A16F43",
"R  c #A16F44",
"E  c #A17045",
"W  c #A07046",
"Q  c #A27146",
"!  c #A47245",
"~  c #A47246",
"^  c #A57346",
"/  c #A77547",
"(  c #A87343",
")  c #AB7645",
"_  c #A97647",
"`  c #AB7747",
"'  c #AC7747",
"]  c #AD7847",
"[  c #AE7947",
"{  c #B07A47",
"}  c #B27B47",
"|  c #B37C47",
" . c #B57D47",
".. c #28803C",
"X. c #29803C",
"o. c #29813C",
"O. c #2B813C",
"+. c #29823C",
"@. c #29833C",
"#. c #2B833C",
"$. c #2C813C",
"%. c #2E823C",
"&. c #29843C",
"*. c #29853C",
"=. c #2A873C",
"-. c #2E843C",
";. c #2C873C",
":. c #2F863C",
">. c #2A883C",
",. c #2A893C",
"<. c #2A8A3C",
"1. c #2C893C",
"2. c #2E883C",
"3. c #2A8C3C",
"4. c #2B8E3C",
"5. c #2D8D3C",
"6. c #2F8C3C",
"7. c #2D8F3C",
"8. c #37813D",
"9. c #30873C",
"0. c #39803D",
"q. c #318B3C",
"w. c #338A3C",
"e. c #348B3C",
"r. c #318D3C",
"t. c #318E3C",
"y. c #308F3C",
"u. c #328F3C",
"i. c #348F3C",
"p. c #2B903C",
"a. c #2B923C",
"s. c #2E933C",
"d. c #2C943C",
"f. c #2C963C",
"g. c #2E973C",
"h. c #2F993C",
"j. c #30903C",
"k. c #32913C",
"l. c #32923C",
"z. c #34913C",
"x. c #36903C",
"c. c #37903C",
"v. c #35933C",
"b. c #37923C",
"n. c #30943C",
"m. c #33943C",
"M. c #30963C",
"N. c #33963C",
"B. c #35953C",
"V. c #35973C",
"C. c #37963C",
"Z. c #38933C",
"A. c #3A953C",
"S. c #3A973C",
"D. c #3C973C",
"F. c #31983C",
"G. c #31993C",
"H. c #33983C",
"J. c #319B3C",
"K. c #36993C",
"L. c #369B3C",
"P. c #329C3C",
"I. c #349C3C",
"U. c #369D3C",
"Y. c #349E3C",
"T. c #399A3C",
"R. c #3A9B3C",
"E. c #3C9B3C",
"W. c #389E3C",
"Q. c #399E3C",
"!. c #399F3C",
"~. c #3B9E3C",
"^. c #3D9D3C",
"/. c #3F9C3C",
"(. c #37A13C",
"). c #3BA03C",
"_. c #39A23C",
"`. c #39A33C",
"'. c #3CA23C",
"]. c #3EA33C",
"[. c #3AA43C",
"{. c #3CA43C",
"}. c #3CA63C",
"|. c #3DA73C",
" X c #3EA83C",
".X c #3FA93C",
"XX c #4D883F",
"oX c #4B8E3F",
"OX c #47913D",
"+X c #419F3B",
"@X c #409F3C",
"#X c #42A13B",
"$X c #40A03C",
"%X c #40A43C",
"&X c #43A83B",
"*X c #47A83B",
"=X c #46A93B",
"-X c #44AA3B",
";X c #46AB3B",
":X c #42AC3B",
">X c #43AD3B",
",X c #44AC3B",
"<X c #44AE3B",
"1X c #47AF3B",
"2X c #41A83C",
"3X c #40AA3C",
"4X c #42AC3C",
"5X c #48AE3B",
"6X c #4BAF3B",
"7X c #46B03B",
"8X c #47B13B",
"9X c #4BB03B",
"0X c #4CB03B",
"qX c #4CB23B",
"wX c #4EB33B",
"eX c #4AB43B",
"rX c #4CB63B",
"tX c #4DB73B",
"yX c #4FB93B",
"uX c #50B63B",
"iX c #50BA3B",
"pX c #51BA3B",
"aX c #51BB3B",
"sX c #52BA3B",
"dX c #52BC3B",
"fX c #53BD3B",
"gX c #54BE3B",
"hX c #57C13B",
"jX c None",
/* pixels */
"jXjXjXjXjXjXjXjXjXjXjXjXjXjXjXjXjXjXjXjXjXjXjXjXjXjXjXjXjXjXjXjXjXjXjXjXjXjXjXjXjXjXjXjXjXjXjXjXjXjXjXjXjXjXjXjXjXjXjXjXjXjXjXjXjXjXjXjXjXjXjXjXjXjXjXjXjXjXjXjX",
"jXjXjXjXjXjXjXjXjXjXjXjXjXjXjXjXjXjXjXjXjXjXjXjXjXjXjXjXjXjXjXjXjXjXjXjXjXjXjXjXjXjXjXjXjXjXjXjXjXjXjXjXjXjXjXjXjXjXjXjXjXjXjXjXjXjXjXjXjXjXjXjXjXjXjXjXjXjXjXjX",
"jXjXjXjXjXjXjXjXjXjXjXjXjXjXjXjXjXjXjXjXjXjXjXjXjXjXjXjXjXjXjXjXjXjXjXjXjXjXjXjXjXjXjXjXjXjXjXjXjXjXjXjXjXjXjXjXjXjXjXjXjXjXjXjXjXjXjXjXjXjXjXjXjXjXjXjXjXjXjXjX",
"jXjXjXjXjXjXjXjXjXjXjXjXjXjXjXjXjXjXjXjXjXjXjXjXjXjXjXjXjXjXjXjXjXjXjXjXjXjXjXjXjXjXjXjXjXjXjXjXjXjXjXjXjXjXjXjXjXjXjXjXjXjXjXjXjXjXjXjXjXjXjXjXjXjXjXjXjXjXjXjX",
"jXjXjXjXjXjXjXjXjXjXjXjXjXjXjXjXjXjXjXjXjXjXjXjXjXjXjXjXjXjXjXjXjXjXjXjXjXjXjXjXjXjXjXjXjXjXjXjXjXjXjXjXjXjXjXjXjXjXjXjXjXjXjXjXjXjXjXjXjXjXjXjXjXjXjXjXjXjXjXjX",
"jXjXjXjXjXjXjXjXjXjXjXjXjXjXjXjXjXjXjXjXjXjXjXjXjXjXjXjXjXjXjXjXjXjXjXjXjXjXjX*XaX=.. jXjXjXjXjXjXjXjXjXjXjXjXjXjXjXjXjXjXjXjXjXjXjXjXjXjXjXjXjXjXjXjXjXjXjXjXjX",
"jXjXjXjXjXjXjXjXjXjXjXjXjXjXjXjXjXjXjXjXjXjXjXjXjXjXjXjXjXjXjXjXjXjXjXjXjX!.W.qX).=.4.*.jXjXjXjXjXjXjXjXjXjXjXjXjXjXjXjXjXjXjXjXjXjXjXjXjXjXjXjXjXjXjXjXjXjXjXjX",
"jXjXjXjXjXjXjXjXjXjXjXjXjXjXjXjXjXjXjXjXjXjXjXjXjXjXjXjXjXjXjXjXjXjX. '.hXhXhXdXK.=.f.d.@ jXjXjXjXjXjXjXjXjXjXjXjXjXjXjXjXjXjXjXjXjXjXjXjXjXjXjXjXjXjXjXjXjXjXjX",
"jXjXjXjXjXjXjXjXjXjXjXjXjXjXjXjXjXjXjXjXjXjXjXjXjXjXjXjXjXjXjXjXjXO a.K.=.6.K.4X=.=.$ @.. . jXjXjXjXjXjXjXjXjXjXjXjXjXjXjXjXjXjXjXjXjXjXjXjXjXjXjXjXjXjXjXjXjXjX",
"jXjXjXjXjXjXjXjXjXjXjXjXjXjXjXjXjXjXjXjXjXjXjXjXjXjXjXjXjXjXjXjXjX. @ @.~.=X'.4X=.F.O . . . jXjXjXjXjXjXjXjXjXjXjXjXjXjXjXjXjXjXjXjXjXjXjXjXjXjXjXjXjXjXjXjXjXjX",
"jXjXjXjXjXjXjXjXjXjXjXjXjXjXjXjXjXjXhXhXhXhXhXyX(.(.P.rXhXjXjXjXjXjX<.rXhXhX4X4X=.J.a.@ . jXjXjXjXjXjXjXjXjXjXjXjXjXjXjXjXjXjXjXjXjXjXjXjXjXjXjXjXjXjXjXjXjXjXjX",
"jXjXjXjXjXjXjXjXjXjXjXjXjXjXjXhX[.4X4X4X4X4X4X4X4X4XrXF.=.(.}.@.jXj.4X%X=.<.f.K.=.$ . . . jXjXjXjXjXjXjXjXjXjXjXjXjXjXjXjXjXjXjXjXjXjXjXjXjXjXjXjXjXjXjXjXjXjXjX",
"jXjXjXjXjXjXjXjXjXjXjXjXjXgXH.4.$ $ $ $ $ $ $ $ $ =.4.4.a.$ $ @ . 4.@ O i.8X}.=.4.=.. . . jXjXjXjXjXjXjXjXjXjXjXjXjXjXjXjXjXjXjXjXjXjXjXjXjXjXjXjXjXjXjXjXjXjXjX",
"jXjXjXjXjXjXjXjXjXjXjXjXhXeXj.j.rXeXM.F.8XrX}.d.].qXn.@.$ =.=.X . . . '.1X;.4.=.4.<.. . . jXjXjXjXjXjXjXjXjXjXjXjXjXjXjXjXjXjXjXjXjXjXjXjXjXjXjXjXjXjXjXjXjXjXjX",
"jXjXjXjXjXjXjXjXjXjXjXaXrX=.-.6XrX'.@ %XdXhXK.@.S.4X(.}.K.. $ <.. . @.z.=.B.4.=.O . . . jXjXjXjXjXjXjXhXhXhXhX4Xf.f.. . . . jXjXjXjXjXjXjXjXjXjXjXjXjXjXjXjXjXjX",
"jXjXjXjXjXjXjXjXjX. hX(.a.. rX(.f.$ jX}.f.f.@.w.(.f.@.9.}.J.*.X @.. . O .XrX=.f.*.O . . jXjXjXjXjXhXhXhX(.(.(.(.(.(.J.f.*.$ (.r.$ jXjXjXjXjXjXjXjXjXjXjXjXjXjXjX",
"jXjXjXjXjXjXjXjXjX@.8X7.O jX>X}.<.$.tX4.@.$ . 5.O.$ . v.4.n.4.4.O . . @.L..X=.f.d.@.@ jXjXjXjXrXrX<XrX4X(.(.}.4X.X(.J.4X}.J.<XQ.$ . . jXjXjXjXjXjXjXjXjXjXjXjXjX",
"jXjXjXjXjXjXjXjX. $ f.../.}.}.(.$ z.j.. . . =.@.. . c.2.. . . @.$ . . . $ f.=.f.=.. $ jXjXhX8X8XhXdX4X4Xf.<.%XhX4Xf.f.a.<.(.4X'.z.z.@.jXjXjXjXjXjXjXjXjXjXjXjXjX",
"jXjXjXjXjXjXjXjX. . . 4.=.=.O . =.&.. . jXD./.=.E.4X4.=.=.. . . . . . . O 4.4.$ . . f.}.4XrX4X4X4X4X'.$ . A.rX(.$ 6XhXrX<.=.<.}.(.f.<.O jXjXjXjXjXjXjXjXjXjXjXjX",
"jXjXjXjXjXjXjXjX. . . # . . . jXf.k.K.%XF.I.rX}.`.8Xf.(.f.4.<.$ O . . . . >.=.. @ 4.f.J.p.K.<.$ $ $ # . jXjXJ.f.&.e.8XI.].2X3.7.'.a.@.$ . jXjXjXjXjXjXjXjXjXjXjX",
"jXjXjXjXjXjXjXjXjXjXjXjXjXjX(.aXf.rX.Xf.<XrX}.f.f.}.rXY.f.f.f.f.a.>.. . . . . . $ f.f.*.X . . . . . jXjXjXjX$ f.4.jX4X4.w.hXf.p.=.a.>.f.. . jXjXjXjXjXjXjXjXjXjX",
"jXjXjXjXjXjXjXjXjXjXjXjXjX(.hX4X(.8X8X/.6.=.=.=.=.4.f.@.3.$ O =.=.=.O . . . . =.=.3.f.f.$ jXjXjXjXjXjXjXjXjX. . . . hX4.w.4Xa.5X4X$ <.=.=.. jXjXjXjXjXjXjXjXjXjX",
"jXjXjXjXjXjXjXjXjX(.:XiXF.J..X}.'.V.1.4.5.K.a.<.@.f.$ X . p.@ . . . @ O . . . =.4.U.rX}.s.a.x.jXjXjXjXjXjXjXjX. . . w.4.x.}.4.S.}.<.@.@.@.. jXjXjXjXjXjXjXjXjXjX",
"jXjXjXjXjXjXjXjX. 4XyX(.4X8XY.<.=.H.rX}.#.jXR.. . $ @.. . jXjXjXjXf.7X'.>.. . . . O (.yXyX<.}.9X=.jXjXjXjXjXjX. . . . @ o f.4.O R.f.<.@ . . jXjXjXjXjXjXjXjXjXjX",
"jXjXjXjXjXjXjXy.'.f.4X}.4.=.<.4.rXdXJ.f.$ jX3.. . jXjXjXjXjXjXf.(.'.=.$ .     : % . =.U.hXK.6.2XrXrXjXjXjXjXjXjX. . . @./.4X4.c.4Xw.~.O . . jXjXjXjXjXjXjXjXjXjX",
"jXjXjXjXjXjXhXrXY.}.4.@.<.h.(.J.D.[.f.@.. . jX. jXjXjXjXjXjX{.}.S.*.$ . >.  r r , % . @ 4.a.&Xr.'.rX|.jXjXjXjXjXjX. jX. X.a.p.Z. XO ^.;.O . jXjXjXjXjXjXjXjXjXjX",
"jXjXjXjXjXjXhXeX8Xa.@.I.J.q.pX}.a.t.3X. . . jXjXjXjXjXjXjX:.C.}.=.<.p.@.2 1 r r r > . . . O *.Y.U.u.V.z.O jXjXjXjXjXjXjX. . @.$ 4.=.O.h.=.. . jXjXjXjXjXjXjXjXjX",
"jXjXjXjXjXhXrX4XJ.=.f.rX4X. -Xf.f...4.$ . jXjXjXjXjXjXjXf.rX8X4X$ J.4X=.  : r r r r jX. . . <.f.=.}.<.=.4.,.jXjXjXjXjXjXjXjX. . . $ + =.$ . . jXjXjXjXjXjXjXjXjX",
"jXjXjXjXhXhXrXF.=.4X4.%Xf.4.z.(.f.$ jX3.jXjXjXjXjXjXjX. . rX4Xj.. . @.$   r r r r r jXjXjX. O O $ 4X(.(.=.O . jXjXjXjXjXjXjXjX. . . . . . . . jXjXjXjXjXjXjXjXjX",
"jXjXjXjXfX<X}.>.d.rX4.@X}.4.o f.a.@ jXjXjXjXjXjXjXjXjX+XuX4XI.@ 6.l.X 4 = r r r y r jXjXjXjX. . '.rX(.}.j.=.=...jXjXjXjXjXjXjXjXjX. . . . . . jXjXjXjXjXjXjXjXjX",
"jXjXjXjX X}.4.=.=.(.4./.4Xa.+ f.$ . jXjXjXjXjXjXjXjX6XhXhX(.n.@.rX}.$ 6 7 y l p p r jXjXjXjXjX. (.a.<.f.4Xj.4.f.f.jXjXjXjXjXjXjXjXjXjXjX. . . jXjXjXjXjXjXjXjXjX",
"jXjXjX[.}.(.4.a.uXf.4.z.(.4.. f.. jXjXjXjXjXjXjXjX4XrXrXrX4X=.@.z.4X-.. y h r r r r jXjXjXjXjX. $ . ..(.(.F.K.4.f.f.jXjXjXjXjXjXjXjXjXjXjXjXjXjXjXjXjXjXjXjXjXjX",
"jXjXjXf.h.h.f.p.jX}.d.+.f.>.. $ jXjXjXjXjXjXjXjXjX4X2Xb.K.4X<.>.6.0.5 ;   , r r r r jXjXjXjXjXjX. jXm.rXn.g.}.=.4.$ jXjXjXjXjXjXjXjXjXjXjXjXjXjXjXjXjXjXjXjXjXjX",
"jXjXjXf.p.p.f.d.sXJ.$ o $ . . jXjXjXjXjXjXjXjXjXjXf.@ 0X4X4X>.,XdX>.* < >.: r r r r jXjXjXjXjXjX. # g.J.. 4.f.S.3.@ . jXjXjXjXjXjXjXjXjXjXjXjXjXjXjXjXjXjXjXjXjX",
"jXjXjXf.=.. =.+ :X. . . f.jXjXjXjXjXjXjXjXjXjXjXjX=.hX4X(.(.=.}.4Xf.$   > > r r r r jXjXjXjXjXjXjX$ f.=.w.2X(.rXz.f.3.jXjXjXjXjXjXjXjXjXjXjXjXjXjXjXjXjXjXjXjXjX",
"jXjXjXjX3.jX. . jX@.. . jXjXjXjXjXjXjXjXjXjXjXjXjX. dX8X4X4X4.@ . ;XO.. - m B r r r jXjXjXjXjXjXjX. <.=.%.wXdXf.8Xw.f.f.jXjXjXjXjXjXjXjXjXjXjXjXjXjXjXjXjXjXjXjX",
"jXjXjXjX+ . . . jX@.jXjXjXjXjXjXjXjXjXjXjXjXjXjXjX4.dXyXJ.4X>.,X@.q 5.. . : r r r r jXjXjXjXjXjXjX. X @ #X.Xj.<.(.w.f.f.jXjXjXjXjXjXjXjXjXjXjXjXjXjXjXjXjXjXjXjX",
"jXjXjXjXjX. jX. jXjXjXjXjXjXjXjXjXjXjXjXjXjXjXjXjXf.rXj.4.4X=.rX4X8.0 XX. : r r r r jXjXjXjXjXjXjX. . . 4Xa.$ /.}.dX$ <.jXjXjXjXjXjXjXjXjXjXjXjXjXjXjXjXjXjXjXjX",
"jXjXjXjXjXjXjXjXjXjXjXjXjXjXjXjXjXjXjXjXjXjXjXjXjXjXa.# O }.N.4.~.Y.f.O w 3 r r r r jXjXjXjXjXjXjXjX. . }.f.=.hXhX(.$X>.X jXjXjXjXjXjXjXjXjXjXjXjXjXjXjXjXjXjXjX",
"jXjXjXjXjXjXjXjXjXjXjXjXjXjXjXjXjXjXjXjXjXjXjXjXjXjX$ jXR.f.p.I.O x._.@.  > r r r r jXjXjXjXjXjXjXjXjX. a.d.<.#X].O.J.$ O $ jXjXjXjXjXjXjXjXjXjXjXjXjXjXjXjXjXjX",
"jXjXjXjXjXjXjXjXjXjXjXjXjXjXjXjXjXjXjXjXjXjXjXjXjXjXjX..4Xf.=.rXK.& OX$   r r r r r jXjXjXjXjXjXjXjXjX. =.4.. %Xn.. (.f.$ . jXjXjXjXjXjXjXjXjXjXjXjXjXjXjXjXjXjX",
"jXjXjXjXjXjXjXjXjXjXjXjXjXjXjXjXjXjXjXjXjXjXjXjXjXjXjX. $ (.4.4.rXa.O 0 oX~ B r r r jXjXjXjXjXjXjXjXjXjX. O o.T.F.O hX}.f.=.. jXjXjXjXjXjXjXjXjXjXjXjXjXjXjXjXjX",
"jXjXjXjXjXjXjXjXjXjXjXjXjXjXjXjXjXjXjXjXjXjXjXjXjXjXjXjX. B.G.{.n.@ . 0 Y H M r r r jXjXjXjXjXjXjXjXjXjX. . . 4.4.jXrXY.f.a.. jXjXjXjXjXjXjXjXjXjXjXjXjXjXjXjXjX",
"jXjXjXjXjXjXjXjXjXjXjXjXjXjXjXjXjXjXjXjXjXjXjXjXjXjXjXjX. $ 4.=.. . 8 9 H H B r r r jXjXjXjXjXjXjXjXjXjXjX. . $ @.jX4.f.f.f.. jXjXjXjXjXjXjXjXjXjXjXjXjXjXjXjXjX",
"jXjXjXjXjXjXjXjXjXjXjXjXjXjXjXjXjXjXjXjXjXjXjXjXjXjXjXjXjX. . . e ! a p l y r r r r jXjXjXjXjXjXjXjXjXjXjXjXjX. . jX$ f.f.f.. . jXjXjXjXjXjXjXjXjXjXjXjXjXjXjXjX",
"jXjXjXjXjXjXjXjXjXjXjXjXjXjXjXjXjXjXjXjXjXjXjXjXjXjXjXjXjXjX. jX} W R b j j d h y r jXjXjXjXjXjXjXjXjXjXjXjXjXjXjX. . $ @.=.. . jXjXjXjXjXjXjXjXjXjXjXjXjXjXjXjX",
"jXjXjXjXjXjXjXjXjXjXjXjXjXjXjXjXjXjXjXjXjXjXjXjXjXjXjXjXjXjXjXjXV | U I W W V y r r jXjXjXjXjXjXjXjXjXjXjXjXjXjXjXjXjXjXjX. . . . jXjXjXjXjXjXjXjXjXjXjXjXjXjXjX",
"jXjXjXjXjXjXjXjXjXjXjXjXjXjXjXjXjXjXjXjXjXjXjXjXjXjXjXjXjXjXjXjXc I I H H B r r r jXjXjXjXjXjXjXjXjXjXjXjXjXjXjXjXjXjXjXjXjXjXjXjXjXjXjXjXjXjXjXjXjXjXjXjXjXjXjX",
"jXjXjXjXjXjXjXjXjXjXjXjXjXjXjXjXjXjXjXjXjXjXjXjXjXjXjXjXjXjXjX .V i B B B i r r r jXjXjXjXjXjXjXjXjXjXjXjXjXjXjXjXjXjXjXjXjXjXjXjXjXjXjXjXjXjXjXjXjXjXjXjXjXjXjX",
"jXjXjXjXjXjXjXjXjXjXjXjXjXjXjXjXjXjXjXjXjXjXjXjXjXjXjXjXjXjXjX .I S ( r r r r h r jXjXjXjXjXjXjXjXjXjXjXjXjXjXjXjXjXjXjXjXjXjXjXjXjXjXjXjXjXjXjXjXjXjXjXjXjXjXjX",
"jXjXjXjXjXjXjXjXjXjXjXjXjXjXjXjXjXjXjXjXjXjXjXjXjXjXjXjXjXjXjXH / H H W / x p r r jXjXjXjXjXjXjXjXjXjXjXjXjXjXjXjXjXjXjXjXjXjXjXjXjXjXjXjXjXjXjXjXjXjXjXjXjXjXjX",
"jXjXjXjXjXjXjXjXjXjXjXjXjXjXjXjXjXjXjXjXjXjXjXjXjXjXjXjXjXjXjXZ H _ H H H M r r r jXjXjXjXjXjXjXjXjXjXjXjXjXjXjXjXjXjXjXjXjXjXjXjXjXjXjXjXjXjXjXjXjXjXjXjXjXjXjX",
"jXjXjXjXjXjXjXjXjXjXjXjXjXjXjXjXjXjXjXjXjXjXjXjXjXjXjXjXjXjX/ v l H H H B i r r r jXjXjXjXjXjXjXjXjXjXjXjXjXjXjXjXjXjXjXjXjXjXjXjXjXjXjXjXjXjXjXjXjXjXjXjXjXjXjX",
"jXjXjXjXjXjXjXjXjXjXjXjXjXjXjXjXjXjXjXjXjXjXjXjXjXjXjXjXjXjX{ / j l l l r r p r jXjXjXjXjXjXjXjXjXjXjXjXjXjXjXjXjXjXjXjXjXjXjXjXjXjXjXjXjXjXjXjXjXjXjXjXjXjXjXjX",
"jXjXjXjXjXjXjXjXjXjXjXjXjXjXjXjXjXjXjXjXjXjXjXjXjXjXjXjXjXjX] / W / V c b l p r jXjXjXjXjXjXjXjXjXjXjXjXjXjXjXjXjXjXjXjXjXjXjXjXjXjXjXjXjXjXjXjXjXjXjXjXjXjXjXjX",
"jXjXjXjXjXjXjXjXjXjXjXjXjXjXjXjXjXjXjXjXjXjXjXjXjXjXjXjXjXH U ` ~ J ^ ~ F i r r jXjXjXjXjXjXjXjXjXjXjXjXjXjXjXjXjXjXjXjXjXjXjXjXjXjXjXjXjXjXjXjXjXjXjXjXjXjXjXjX",
"jXjXjXjXjXjXjXjXjXjXjXjXjXjXjXjXjXjXjXjXjXjXjXjXjXjXjXjXjXH C I W H H H B r r r jXjXjXjXjXjXjXjXjXjXjXjXjXjXjXjXjXjXjXjXjXjXjXjXjXjXjXjXjXjXjXjXjXjXjXjXjXjXjXjX",
"jXjXjXjXjXjXjXjXjXjXjXjXjXjXjXjXjXjXjXjXjXjXjXjXjXjXjXjXjX' c h l H H B h r r jXjXjXjXjXjXjXjXjXjXjXjXjXjXjXjXjXjXjXjXjXjXjXjXjXjXjXjXjXjXjXjXjXjXjXjXjXjXjXjXjX",
"jXjXjXjXjXjXjXjXjXjXjXjXjXjXjXjXjXjXjXjXjXjXjXjXjXjXjXjXjX/ P s r p p y t g p jXjXjXjXjXjXjXjXjXjXjXjXjXjXjXjXjXjXjXjXjXjXjXjXjXjXjXjXjXjXjXjXjXjXjXjXjXjXjXjXjX",
"jXjXjXjXjXjXjXjXjXjXjXjXjXjXjXjXjXjXjXjXjXjXjXjXjXjXjXjXH } W ` ( ( ( B M i r jXjXjXjXjXjXjXjXjXjXjXjXjXjXjXjXjXjXjXjXjXjXjXjXjXjXjXjXjXjXjXjXjXjXjXjXjXjXjXjXjX",
"jXjXjXjXjXjXjXjXjXjXjXjXjXjXjXjXjXjXjXjXjXjXjXjXjXjXjXjXN  .~ I H H H B r r r jXjXjXjXjXjXjXjXjXjXjXjXjXjXjXjXjXjXjXjXjXjXjXjXjXjXjXjXjXjXjXjXjXjXjXjXjXjXjXjXjX",
"jXjXjXjXjXjXjXjXjXjXjXjXjXjXjXjXjXjXjXjXjXjXjXjXjXjXjXjXV E ~ U H H H l r r r jXjXjXjXjXjXjXjXjXjXjXjXjXjXjXjXjXjXjXjXjXjXjXjXjXjXjXjXjXjXjXjXjXjXjXjXjXjXjXjXjX",
"jXjXjXjXjXjXjXjXjXjXjXjXjXjXjXjXjXjXjXjXjXjXjXjXjXjXjXD ` y h B B B B y r r jXjXjXjXjXjXjXjXjXjXjXjXjXjXjXjXjXjXjXjXjXjXjXjXjXjXjXjXjXjXjXjXjXjXjXjXjXjXjXjXjXjX",
"jXjXjXjXjXjXjXjXjXjXjXjXjXjXjXjXjXjXjXjXjXjXjXjXjXjXjX^ [ c y r r r r r y u jXjXjXjXjXjXjXjXjXjXjXjXjXjXjXjXjXjXjXjXjXjXjXjXjXjXjXjXjXjXjXjXjXjXjXjXjXjXjXjXjXjX",
"jXjXjXjXjXjXjXjXjXjXjXjXjXjXjXjXjXjXjXjXjXjXjXjXjXjXH [ / ~ [ ~ j f t B r r jXjXjXjXjXjXjXjXjXjXjXjXjXjXjXjXjXjXjXjXjXjXjXjXjXjXjXjXjXjXjXjXjXjXjXjXjXjXjXjXjXjX",
"jXjXjXjXjXjXjXjXjXjXjXjXjXjXjXjXjXjXjXjXjXjXjXjXjXjXn K ~ ~ H U W L i r r jXjXjXjXjXjXjXjXjXjXjXjXjXjXjXjXjXjXjXjXjXjXjXjXjXjXjXjXjXjXjXjXjXjXjXjXjXjXjXjXjXjXjX",
"jXjXjXjXjXjXjXjXjXjXjXjXjXjXjXjXjXjXjXjXjXjXjXjXjXjXc l H W H H H B r r r jXjXjXjXjXjXjXjXjXjXjXjXjXjXjXjXjXjXjXjXjXjXjXjXjXjXjXjXjXjXjXjXjXjXjXjXjXjXjXjXjXjXjX",
"jXjXjXjXjXjXjXjXjXjXjXjXjXjXjXjXjXjXjXjXjXjXjXjXjX .T y p B H H H r r r r jXjXjXjXjXjXjXjXjXjXjXjXjXjXjXjXjXjXjXjXjXjXjXjXjXjXjXjXjXjXjXjXjXjXjXjXjXjXjXjXjXjXjX",
"jXjXjXjXjXjXjXjXjXjXjXjXjXjXjXjXjXjXjXjXjXjXjXjXjX .~ A y y p p p r r r r jXjXjXjXjXjXjXjXjXjXjXjXjXjXjXjXjXjXjXjXjXjXjXjXjXjXjXjXjXjXjXjXjXjXjXjXjXjXjXjXjXjXjX",
"jXjXjXjXjXjXjXjXjXjXjXjXjXjXjXjXjXjXjXjXjXjXjXjXjX .~ Q ) B z r r i B r r jXjXjXjXjXjXjXjXjXjXjXjXjXjXjXjXjXjXjXjXjXjXjXjXjXjXjXjXjXjXjXjXjXjXjXjXjXjXjXjXjXjXjX",
"jXjXjXjXjXjXjXjXjXjXjXjXjXjXjXjXjXjXjXjXjXjXjXjXU W [ I H / / I l r r r jXjXjXjXjXjXjXjXjXjXjXjXjXjXjXjXjXjXjXjXjXjXjXjXjXjXjXjXjXjXjXjXjXjXjXjXjXjXjXjXjXjXjXjX",
"jXjXjXjXjXjXjXjXjXjXjXjXjXjXjXjXjXjXjXjXjXjXjXjXH ~ I ~ H H G h r r r r jXjXjXjXjXjXjXjXjXjXjXjXjXjXjXjXjXjXjXjXjXjXjXjXjXjXjXjXjXjXjXjXjXjXjXjXjXjXjXjXjXjXjXjX",
"jXjXjXjXjXjXjXjXjXjXjXjXjXjXjXjXjXjXjXjXjXjXjXjXk I H I H H h r r r r r jXjXjXjXjXjXjXjXjXjXjXjXjXjXjXjXjXjXjXjXjXjXjXjXjXjXjXjXjXjXjXjXjXjXjXjXjXjXjXjXjXjXjXjX",
"jXjXjXjXjXjXjXjXjXjXjXjXjXjXjXjXjXjXjXjXjXjXjXjXjXp B l l r r r r r r r jXjXjXjXjXjXjXjXjXjXjXjXjXjXjXjXjXjXjXjXjXjXjXjXjXjXjXjXjXjXjXjXjXjXjXjXjXjXjXjXjXjXjXjX",
"jXjXjXjXjXjXjXjXjXjXjXjXjXjXjXjXjXjXjXjXjXjXjXjXjXjXr r r r r r r r r jXjXjXjXjXjXjXjXjXjXjXjXjXjXjXjXjXjXjXjXjXjXjXjXjXjXjXjXjXjXjXjXjXjXjXjXjXjXjXjXjXjXjXjXjX",
"jXjXjXjXjXjXjXjXjXjXjXjXjXjXjXjXjXjXjXjXjXjXjXjXjXjXr r r r r r r r jXjXjXjXjXjXjXjXjXjXjXjXjXjXjXjXjXjXjXjXjXjXjXjXjXjXjXjXjXjXjXjXjXjXjXjXjXjXjXjXjXjXjXjXjXjX",
"jXjXjXjXjXjXjXjXjXjXjXjXjXjXjXjXjXjXjXjXjXjXjXjXjXjXjXjXr r r r jXjXjXjXjXjXjXjXjXjXjXjXjXjXjXjXjXjXjXjXjXjXjXjXjXjXjXjXjXjXjXjXjXjXjXjXjXjXjXjXjXjXjXjXjXjXjXjX",
"jXjXjXjXjXjXjXjXjXjXjXjXjXjXjXjXjXjXjXjXjXjXjXjXjXjXjXjXjXjXjXjXjXjXjXjXjXjXjXjXjXjXjXjXjXjXjXjXjXjXjXjXjXjXjXjXjXjXjXjXjXjXjXjXjXjXjXjXjXjXjXjXjXjXjXjXjXjXjXjX",
"jXjXjXjXjXjXjXjXjXjXjXjXjXjXjXjXjXjXjXjXjXjXjXjXjXjXjXjXjXjXjXjXjXjXjXjXjXjXjXjXjXjXjXjXjXjXjXjXjXjXjXjXjXjXjXjXjXjXjXjXjXjXjXjXjXjXjXjXjXjXjXjXjXjXjXjXjXjXjXjX",
"jXjXjXjXjXjXjXjXjXjXjXjXjXjXjXjXjXjXjXjXjXjXjXjXjXjXjXjXjXjXjXjXjXjXjXjXjXjXjXjXjXjXjXjXjXjXjXjXjXjXjXjXjXjXjXjXjXjXjXjXjXjXjXjXjXjXjXjXjXjXjXjXjXjXjXjXjXjXjXjX"
};
