/* XPM */
static char *_5756_41cd3bede0a04be6d80b80c1c6d0216bda8b75e5003df9ad0000d23e5df2d1ef[] = {
/* columns rows colors chars-per-pixel */
"80 80 230 2 ",
"   c #3E6F3B",
".  c #27773C",
"X  c #27793C",
"o  c #277A3C",
"O  c #287A3C",
"+  c #287B3C",
"@  c #287C3C",
"#  c #287D3C",
"$  c #287E3C",
"%  c #287F3C",
"&  c #32733B",
"*  c #38733B",
"=  c #3E753E",
"-  c #347F3B",
";  c #6B5E38",
":  c #765A38",
">  c #705C38",
",  c #496B3A",
"<  c #54673A",
"1  c #5F6239",
"2  c #556A3A",
"3  c #44743F",
"4  c #457C3F",
"5  c #4B783A",
"6  c #4B7C3F",
"7  c #77683C",
"8  c #527340",
"9  c #597240",
"0  c #607241",
"q  c #677342",
"w  c #6E7042",
"e  c #6B7841",
"r  c #6E7A42",
"t  c #6B7C41",
"y  c #727241",
"u  c #787140",
"i  c #815637",
"p  c #835738",
"a  c #845939",
"s  c #865A3A",
"d  c #875C3B",
"f  c #885B39",
"g  c #895D3B",
"h  c #8B5E3B",
"j  c #8C5F3B",
"k  c #895D3C",
"l  c #8A5E3D",
"z  c #8E603B",
"x  c #8D613F",
"c  c #8F623F",
"v  c #94653F",
"b  c #98673F",
"n  c #906440",
"m  c #916541",
"M  c #936742",
"N  c #936743",
"B  c #946641",
"V  c #956843",
"C  c #976942",
"Z  c #966944",
"A  c #996942",
"S  c #9A6B43",
"D  c #9E6C41",
"F  c #9C6C43",
"G  c #9E6D43",
"H  c #986B45",
"J  c #9A6B44",
"K  c #996C46",
"L  c #9D6D44",
"P  c #9D6E45",
"I  c #9F6E44",
"U  c #9D6E46",
"Y  c #9E6F46",
"T  c #857444",
"R  c #A16F44",
"E  c #A07046",
"W  c #A27146",
"Q  c #A47246",
"!  c #A47346",
"~  c #A57346",
"^  c #A77547",
"/  c #A87343",
"(  c #AB7645",
")  c #A97647",
"_  c #AB7747",
"`  c #AC7847",
"'  c #AD7847",
"]  c #AE7947",
"[  c #B07A47",
"{  c #B27B47",
"}  c #B37C47",
"|  c #B57D47",
" . c #28803C",
".. c #29813C",
"X. c #2B813C",
"o. c #29823C",
"O. c #29833C",
"+. c #2B833C",
"@. c #2D803C",
"#. c #2F833C",
"$. c #29843C",
"%. c #29853C",
"&. c #2A873C",
"*. c #2C843C",
"=. c #2C853C",
"-. c #2E843C",
";. c #2C873C",
":. c #2F863C",
">. c #2A883C",
",. c #2A893C",
"<. c #2A8A3C",
"1. c #2C893C",
"2. c #2E883C",
"3. c #2D8B3C",
"4. c #2F8A3C",
"5. c #2A8C3C",
"6. c #2B8E3C",
"7. c #2D8D3C",
"8. c #2F8C3C",
"9. c #2E8D3C",
"0. c #2D8F3C",
"q. c #2E8E3C",
"w. c #30803D",
"e. c #30853C",
"r. c #31863C",
"t. c #30873C",
"y. c #38853D",
"u. c #338A3C",
"i. c #318E3C",
"p. c #308F3C",
"a. c #328F3C",
"s. c #348F3C",
"d. c #398D3D",
"f. c #2B903C",
"g. c #2B923C",
"h. c #2D913C",
"j. c #2E923C",
"k. c #2E933C",
"l. c #2C943C",
"z. c #2C963C",
"x. c #2F993C",
"c. c #30903C",
"v. c #33903C",
"b. c #31933C",
"n. c #32923C",
"m. c #34913C",
"M. c #30943C",
"N. c #33943C",
"B. c #33963C",
"V. c #35943C",
"C. c #35953C",
"Z. c #35973C",
"A. c #39933C",
"S. c #3A953C",
"D. c #3A973C",
"F. c #31983C",
"G. c #33983C",
"H. c #319B3C",
"J. c #34983C",
"K. c #36993C",
"L. c #369B3C",
"P. c #329C3C",
"I. c #339D3C",
"U. c #349C3C",
"Y. c #349D3C",
"T. c #369D3C",
"R. c #349E3C",
"E. c #359F3C",
"W. c #3F9C3B",
"Q. c #3A9B3C",
"!. c #389C3C",
"~. c #399E3C",
"^. c #3B9E3C",
"/. c #3F9C3C",
"(. c #36A03C",
"). c #37A13C",
"_. c #3BA03C",
"`. c #38A23C",
"'. c #39A33C",
"]. c #3EA13C",
"[. c #3CA23C",
"{. c #3EA33C",
"}. c #3AA43C",
"|. c #3CA43C",
" X c #3EA43C",
".X c #3CA63C",
"XX c #3DA73C",
"oX c #3FA73C",
"OX c #3EA83C",
"+X c #3FA93C",
"@X c #428E3E",
"#X c #40A13B",
"$X c #45A53B",
"%X c #45A73B",
"&X c #40A03C",
"*X c #40A43C",
"=X c #41A63C",
"-X c #43A83B",
";X c #47A83B",
":X c #46A93B",
">X c #44AA3B",
",X c #45AA3B",
"<X c #44AC3B",
"1X c #44AE3B",
"2X c #45AF3B",
"3X c #46AE3B",
"4X c #47AF3B",
"5X c #41A83C",
"6X c #42AC3C",
"7X c #49AE3B",
"8X c #4BAF3B",
"9X c #46B03B",
"0X c #47B13B",
"qX c #4CB23B",
"wX c #4DB23B",
"eX c #4EB33B",
"rX c #4AB43B",
"tX c #4CB63B",
"yX c #4EB83B",
"uX c #4FB93B",
"iX c #50B63B",
"pX c #51B83B",
"aX c #50BA3B",
"sX c #51BA3B",
"dX c #52BC3B",
"fX c #54BE3B",
"gX c #57C13B",
"hX c #628340",
"jX c #788242",
"kX c None",
/* pixels */
"kXkXkXkXkXkXkXkXkXkXkXkXkXkXkXkXkXkXkXkXkXkXkXkXkXkXkXkXkXkXkXkXkXkXkXkXkXkXkXkXkXkXkXkXkXkXkXkXkXkXkXkXkXkXkXkXkXkXkXkXkXkXkXkXkXkXkXkXkXkXkXkXkXkXkXkXkXkXkXkX",
"kXkXkXkXkXkXkXkXkXkXkXkXkXkXkXkXkXkXkXkXkXkXkXkXkXkXkXkXkXkXkXkXkXkXkXkXkXkXkXkXkXkXkXkXkXkXkXkXkXkXkXkXkXkXkXkXkXkXkXkXkXkXkXkXkXkXkXkXkXkXkXkXkXkXkXkXkXkXkXkX",
"kXkXkXkXkXkXkXkXkXkXkXkXkXkXkXkXkXkXkXkXkXkXkXkXkXkXkXkXkXkXkXkXkXkXkXkXkXkXkXkXkXkXkXkXkXkXkXkXkXkXkXkXkXkXkXkXkXkXkXkXkXkXkXkXkXkXkXkXkXkXkXkXkXkXkXkXkXkXkXkX",
"kXkXkXkXkXkXkXkXkXkXkXkXkXkXkXkXkXkXkXkXkXkXkXkXkXkXkXkXkXkXkXkXkXkXkXkXkXkXkXkXkXkXkXkXkXkXkXkXkXkXkXkXkXkXkXkXkXkXkXkXkXkXkXkXkXkXkXkXkXkXkXkXkXkXkXkXkXkXkXkX",
"kXkXkXkXkXkXkXkXkXkXkXkXkXkXkXkXkXkXkXkXkXkXkXkXkXkXkXkXkXkXkXkXkXkXkXkXkXkXkXkXkXkXkXkXkXkXkXkXkXkXkXkXkXkXkXkXkXkXkXkXkXkXkXkXkXkXkXkXkXkXkXkXkXkXkXkXkXkXkXkX",
"kXkXkXkXkXkXkXkXkXkXkXkXkXkXkXkXkXkXkXkXkXkXkXkXkXkXkXkXkXkXkXkXkXkXkXkX. 8XtX. kXkXkXkXkXkXkXkXkXkXkXkXkXkXkXkXkXkXkXkXkXkXkXkXkXkXkXkXkXkXkXkXkXkXkXkXkXkXkXkX",
"kXkXkXkXkXkXkXkXkXkXkXkXkXkXkXkXkXkXkXkXkXkXkXkXkXkXkXkXkXkXkXkXkXkXS.}.!.sXc.6.5.% kXkXkXkXkXkXkXkXkXkXkXkXkXkXkXkXkXkXkXkXkXkXkXkXkXkXkXkXkXkXkXkXkXkXkXkXkXkX",
"kXkXkXkXkXkXkXkXkXkXkXkXkXkXkXkXkXkXkXkXkXkXkXkXkXkXkXkXkXkXkXkX$.4XgXgXfXfX&.z.z.g.. kXkXkXkXkXkXkXkXkXkXkXkXkXkXkXkXkXkXkXkXkXkXkXkXkXkXkXkXkXkXkXkXkXkXkXkXkX",
"kXkXkXkXkXkXkXkXkXkXkXkXkXkXkXkXkXkXkXkXkXkXkXkXkXkXkXkXkXkXkX. 6.T.&.&.Q.tX&.6.+ &.. . kXkXkXkXkXkXkXkXkXkXkXkXkXkXkXkXkXkXkXkXkXkXkXkXkXkXkXkXkXkXkXkXkXkXkXkX",
"kXkXkXkXkXkXkXkXkXkXkXkXkXkXkXkXkXkXkXkXkXkXkXkXkXkXkXkXkXkXkX.  .;.C.8XG.tX&.U.# . . . kXkXkXkXkXkXkXkXkXkXkXkXkXkXkXkXkXkXkXkXkXkXkXkXkXkXkXkXkXkXkXkXkXkXkXkX",
"kXkXkXkXkXkXkXkXkXkXkXkXkXkXkXkXkXkXkXgXgXgXgXgXkXkXkXkXkXkXkX. OXuXgXgX).).&.R.<.. kXkXkXkXkXkXkXkXkXkXkXkXkXkXkXkXkXkXkXkXkXkXkXkXkXkXkXkXkXkXkXkXkXkXkXkXkXkX",
"kXkXkXkXkXkXkXkXkXkXkXkXkXkXkXgXgXgXgXgXgX0X6X6XH.6X.XXXz.kXkX&.tX[.&.&.H.H.&.. . . . kXkXkXkXkXkXkXkXkXkXkXkXkXkXkXkXkXkXkXkXkXkXkXkXkXkXkXkXkXkXkXkXkXkXkXkXkX",
"kXkXkXkXkXkXkXkXkXkXkXkXkXkXj.6.6.6.6.6.6.6.6.f.1X.X% <.^.6.. O.O.X t.6X1Xz.&.6.. . . kXkXkXkXkXkXkXkXkXkXkXkXkXkXkXkXkXkXkXkXkXkXkXkXkXkXkXkXkXkXkXkXkXkXkXkXkX",
"kXkXkXkXkXkXkXkXkXkXkXgX XK.K.K.B.6.M.K.B.6.M.Z.1.O.O.<.&.# . . . n.tX8.<.%.6.5.+ . . kXkXkXkXkXkXkXkXkXkXkXkXkXkXkXkXkXkXkXkXkXkXkXkXkXkXkXkXkXkXkXkXkXkXkXkXkX",
"kXkXkXkXkXkXkXkXkXkXgXgXK.&.qXgX[.c.tXgXtXz.m.pX0X6.O.+ &.O.. . . c.8.% .X% &.. . . . kXkXkXkXkXgXgXgX6X6X6X).z.g.&.&.+ . 5.. . kXkXkXkXkXkXkXkXkXkXkXkXkXkXkXkX",
"kXkXkXkXkXkXkXkXkXyXfXR.O.u.uX.X>./.6XtX1X% @.{.z.g.eXL.% # 6.O.. . # 0XtX% z.% X . . kXkXkXkXkXdXgXuXtXtXtXtXtXtX.X).R.z.dX<X6.. . kXkXkXkXkXkXkXkXkXkXkXkXkXkX",
"kXkXkXkXkXkXkXkX. dX.Xf.. 7X.Xg.. 4XH.6.<.X D.B.6.+ s.R.).6.O.+ . . >.T.1X% z.l.# # kXkXkXgXaX0X0X6X'.z.6.<XtX).z.z.T.G..X6XG.% u.6.%.kXkXkXkXkXkXkXkXkXkXkXkXkX",
"kXkXkXkXkXkXkXkXO.tXF.+ kX6XH.&.u. X&.. . . &.. . . [.&.&.&.6.% . . . &.z.% z.O.. % kX6XgXtXtXgXgXgX0X&.. 8XgX6.c.6X*X8.&.).6XH.6Xg.O.. kXkXkXkXkXkXkXkXkXkXkXkX",
"kXkXkXkXkXkXkX. O.z. .8X).6X8.. kX% . . kX$.. . . 6X. . . . . . . . . . <.<.6.. . ..).6X6XtX6X6X&.&.+ . kX6Xz.6.:.;XtXH..Xm.g.[.).6.O.&.. kXkXkXkXkXkXkXkXkXkXkX",
"kXkXkXkXkXkXkX. . % + ).6.<.X . f.# % S.V.*X*X!.3X`.6.M.6.% # + + . . . X <.O.. # g.H.x.F.M.<.% . . kXkXkXkX6.z.5.. 6Xf.t.dXl.>.c.5.>.g.+ . kXkXkXkXkXkXkXkXkXkX",
"kXkXkXkXkXkXkXkX. . . % . . kXkXz.>XtX).x.z.).R.z.).z.H.z.z.l.g.g.>.. . . . . . % z.z.%.+ . . . kXkXkXkXkXkX. % # . yXB.. 0Xz.1X[.>.5.&.&.. kXkXkXkXkXkXkXkXkXkX",
"kXkXkXkXkXkXkXkXkX. kXkXkXkX2XtXz.6XtX6X6X6XK.&.&.K.6XM.z.&.<.6.&.&.+ . . . . &.&.5.z.z.&.kXkXkXkXkXkXkXkXkX. . . . /.b.. 6X6.kX6Xg.% &.% . kXkXkXkXkXkXkXkXkXkX",
"kXkXkXkXkXkXkXkXkXkXkXkXkX(.tX6X'.<X*Xm.1.&.<.5.&.g.6.% ..>.+ + . . = % . . . O.6.K.0X.XT.g.q.kXkXkXkXkXkXkXkX. . . . %.@ J.l.$ J.1X0.c.. . . kXkXkXkXkXkXkXkXkX",
"kXkXkXkXkXkXkXkXkXkX).gXg.x.+XH.R.O.O.z.f.-X.X6.. O.>.. . O >.. kXkX@XtX6.# . . . . c.+XgX.X7.0XdX,XkXkXkXkXkXkXkX. . . >.. 1Xf.. tX+.&XO.. . kXkXkXkXkXkXkXkXkX",
"kXkXkXkXkXkXkXkXkX5.tX0X6X6XF.&.&.F.tXtXF.+ /.4.. . kX% . kXkXkXz.P.6X&.O..   & ;   . O.6.gX5X&.&.0XgX}.kXkXkXkXkXkX. . . . .Xz.. 9X&.u.K.O.. . kXkXkXkXkXkXkXkX",
"kXkXkXkXkXkXkXkX*.Q.R.R.tXl.>.z.f.%XdXz.l.# . kX% kXkXkXkXkXkX6.6X=XX <.. >.. > i i . . . 6.g.6.tXk.7.[.B.. kXkXkXkXkXkX. . . 6.&.kX5.. z.6.. . kXkXkXkXkXkXkXkX",
"kXkXkXkXkXkXkXgXuXH.).'.6.%.0.6XrXB.i.OX7.. . o kXkXkXkXkXkXkXr.).G.% z.>., & > i i kXkX. . + # z.h.].<.a.>. .kXkXkXkXkXkX. . . + kX+ . % # . . kXkXkXkXkXkXkXkX",
"kXkXkXkXkXkXkXgXgX6X.X<.&.z.2.8X.Xz.&.6X-.. . kXkXkXkXkXkXkXp.*X6X8.6.6X6.. ; i i i kXkXkX. . O.6.. 6.z.g.6.6...kXkXkXkXkXkXkXkX. . . . . . . . . kXkXkXkXkXkXkX",
"kXkXkXkXkXkXgXdX6X).<.g.6XtX,./.E.H.6.. <.+ kXkXkXkXkXkXkX&.&X6X6X% . . &.+ < i i i kXkXkXkXkX. . + [.gXH..X&.&.+ . kXkXkXkXkXkXkXkXkX. . . . . . kXkXkXkXkXkXkX",
"kXkXkXkXkXkXgXfXtXg.3.).c.tXl.$.kXx.z.. kXkXkXkXkXkXkXkXkX@.W.0XF.% n.8.* 5 2 i a i kXkXkXkXkX. . % 1XT.f.).[.<.6.6.kXkXkXkXkXkXkXkXkXkXkXkX. . . kXkXkXkXkXkXkX",
"kXkXkXkXkXkXgXtX).&.T.gX&.yXH.&.. z.6.. kXkXkXkXkXkXkXkX/.$XdX6X&.8.dX).& : u l d i kXkXkXkXkXkXkX+ &.&.+ g.).6.<.z.z.kXkXkXkXkXkXkXkXkXkXkXkXkXkXkXkXkXkXkXkXkX",
"kXkXkXkXkXkX6X).z.&.<.[.6.u.OXz.. <.% . kXkXkXkXkXkXkXkXtXgXgXgX6.% &.*X^.. < i i i kXkXkXkXkXkXkX. . . c.tX).).^.&.6.&.kXkXkXkXkXkXkXkXkXkXkXkXkXkXkXkXkXkXkXkX",
"kXkXkXkXkXkX.X.X<.g.v.|.z.. I.g.. &.,.kXkXkXkXkXkXkXkXkX6X:X<X.X&.3.=.6 jXw.& i i i kXkXkXkXkXkXkXkX. # R.~.% z.U.8.<.X kXkXkXkXkXkXkXkXkXkXkXkXkXkXkXkXkXkXkXkX",
"kXkXkXkXkXz.z.H.z.<.&X).z.. 6.+ . kXkXkXkXkXkXkXkXkXkXI.c.e.oX6X&.4XuXO.9 7 O.i i i kXkXkXkXkXkXkXkXkX# z.6.. <.x.5XQ.<.# kXkXkXkXkXkXkXkXkXkXkXkXkXkXkXkXkXkXkX",
"kXkXkXkXkXkXz.6.z.6.*X).6.. # % kXkXkXkXkXkXkXkXkXkXkX6...gX6X).&.M.6X).6.. ; 1 i i kXkXkXkXkXkXkXkXkX. z.&.. gXtXz.8Xc.z.z.kXkXkXkXkXkXkXkXkXkXkXkXkXkXkXkXkXkX",
"kXkXkXkXkXkXg.# >.O.D.t.. . kXkXkXkXkXkXkXkXkXkXkXkXkX9.$X0X'.6X&.+ . 5X. . 8 i i i kXkXkXkXkXkXkXkXkX. # % wXtXG.g.6Xm.z.z.kXkXkXkXkXkXkXkXkXkXkXkXkXkXkXkXkXkX",
"kXkXkXkXkXkX&.. . . &.% . . kXkXkXkXkXkXkXkXkXkXkXkXkX=.0XuX6X6X&.[.# hX>.. . c i i kXkXkXkXkXkXkXkXkX. . A.5Xz.% D.6X%Xf.z.kXkXkXkXkXkXkXkXkXkXkXkXkXkXkXkXkXkX",
"kXkXkXkXkXkX% . . . % + . kXkXkXkXkXkXkXkXkXkXkXkXkXkX}.gX.X).6X&.tX).4 t y.. l i i kXkXkXkXkXkXkXkXkX. . #X).&.#.8X).*XO.% kXkXkXkXkXkXkXkXkXkXkXkXkXkXkXkXkXkX",
"kXkXkXkXkXkXkX. . . kXkXkXkXkXkXkXkXkXkXkXkXkXkXkXkXkX'..X. n..X&.[.6.H.% q - > i i kXkXkXkXkXkXkXkXkXkX. ..z.z.o.wXqX_.R.. # kXkXkXkXkXkXkXkXkXkXkXkXkXkXkXkXkX",
"kXkXkXkXkXkXkXkXkXkXkXkXkXkXkXkXkXkXkXkXkXkXkXkXkXkXkXkX,.kXc.z.6.M.X D.U.# < > i i kXkXkXkXkXkXkXkXkXkXkXX <.<.-.&X&.X.x.6.. kXkXkXkXkXkXkXkXkXkXkXkXkXkXkXkXkX",
"kXkXkXkXkXkXkXkXkXkXkXkXkXkXkXkXkXkXkXkXkXkXkXkXkXkXkXkXkX# 5Xz.&.0Xc.  D.+ < i i i kXkXkXkXkXkXkXkXkXkXkX. % &./.6X&./.).z.O.. kXkXkXkXkXkXkXkXkXkXkXkXkXkXkXkX",
"kXkXkXkXkXkXkXkXkXkXkXkXkXkXkXkXkXkXkXkXkXkXkXkXkXkXkXkX. % 6Xz.&.0XH.% e d.^ l i i kXkXkXkXkXkXkXkXkXkXkX. . . 5.z.. iX0Xz.g.+ kXkXkXkXkXkXkXkXkXkXkXkXkXkXkXkX",
"kXkXkXkXkXkXkXkXkXkXkXkXkXkXkXkXkXkXkXkXkXkXkXkXkXkXkXkXkXX N.H.T.L.O.. 3 T K c i i kXkXkXkXkXkXkXkXkXkXkXkX. . O.6.&.Y.x.z.f.kXkXkXkXkXkXkXkXkXkXkXkXkXkXkXkXkX",
"kXkXkXkXkXkXkXkXkXkXkXkXkXkXkXkXkXkXkXkXkXkXkXkXkXkXkXkXkX. -.).&.+ . 0 w K M i i i kXkXkXkXkXkXkXkXkXkXkXkXkX. . . . 6.z.z.6.. kXkXkXkXkXkXkXkXkXkXkXkXkXkXkXkX",
"kXkXkXkXkXkXkXkXkXkXkXkXkXkXkXkXkXkXkXkXkXkXkXkXkXkXkXkXkX. + % r y f d x a i i i i kXkXkXkXkXkXkXkXkXkXkXkXkXkX. . . + &.6.O.. kXkXkXkXkXkXkXkXkXkXkXkXkXkXkXkX",
"kXkXkXkXkXkXkXkXkXkXkXkXkXkXkXkXkXkXkXkXkXkXkXkXkXkXkXkXkXkX. . { Q R b z z h k a i kXkXkXkXkXkXkXkXkXkXkXkXkXkXkXkXkX. . + . . . kXkXkXkXkXkXkXkXkXkXkXkXkXkXkX",
"kXkXkXkXkXkXkXkXkXkXkXkXkXkXkXkXkXkXkXkXkXkXkXkXkXkXkXkXkXkXkXkXB ` Y U E E B s i i kXkXkXkXkXkXkXkXkXkXkXkXkXkXkXkXkXkXkXkXkXkXkXkXkXkXkXkXkXkXkXkXkXkXkXkXkXkX",
"kXkXkXkXkXkXkXkXkXkXkXkXkXkXkXkXkXkXkXkXkXkXkXkXkXkXkXkXkXkXkXkXv J U K K K i i i kXkXkXkXkXkXkXkXkXkXkXkXkXkXkXkXkXkXkXkXkXkXkXkXkXkXkXkXkXkXkXkXkXkXkXkXkXkXkX",
"kXkXkXkXkXkXkXkXkXkXkXkXkXkXkXkXkXkXkXkXkXkXkXkXkXkXkXkXkXkXkX| B g M M M s i i i kXkXkXkXkXkXkXkXkXkXkXkXkXkXkXkXkXkXkXkXkXkXkXkXkXkXkXkXkXkXkXkXkXkXkXkXkXkXkX",
"kXkXkXkXkXkXkXkXkXkXkXkXkXkXkXkXkXkXkXkXkXkXkXkXkXkXkXkXkXkXkX| U F / i i i i c i kXkXkXkXkXkXkXkXkXkXkXkXkXkXkXkXkXkXkXkXkXkXkXkXkXkXkXkXkXkXkXkXkXkXkXkXkXkXkX",
"kXkXkXkXkXkXkXkXkXkXkXkXkXkXkXkXkXkXkXkXkXkXkXkXkXkXkXkXkXkXkXK ^ K K E ^ B d i i kXkXkXkXkXkXkXkXkXkXkXkXkXkXkXkXkXkXkXkXkXkXkXkXkXkXkXkXkXkXkXkXkXkXkXkXkXkXkX",
"kXkXkXkXkXkXkXkXkXkXkXkXkXkXkXkXkXkXkXkXkXkXkXkXkXkXkXkXkXkXkXJ K Q K K K V i i i kXkXkXkXkXkXkXkXkXkXkXkXkXkXkXkXkXkXkXkXkXkXkXkXkXkXkXkXkXkXkXkXkXkXkXkXkXkXkX",
"kXkXkXkXkXkXkXkXkXkXkXkXkXkXkXkXkXkXkXkXkXkXkXkXkXkXkXkXkXkX^ D x H K K M s i i i kXkXkXkXkXkXkXkXkXkXkXkXkXkXkXkXkXkXkXkXkXkXkXkXkXkXkXkXkXkXkXkXkXkXkXkXkXkXkX",
"kXkXkXkXkXkXkXkXkXkXkXkXkXkXkXkXkXkXkXkXkXkXkXkXkXkXkXkXkXkX[ ^ z l x x i i d i kXkXkXkXkXkXkXkXkXkXkXkXkXkXkXkXkXkXkXkXkXkXkXkXkXkXkXkXkXkXkXkXkXkXkXkXkXkXkXkX",
"kXkXkXkXkXkXkXkXkXkXkXkXkXkXkXkXkXkXkXkXkXkXkXkXkXkXkXkXkXkX' ^ E ^ B v b x d i kXkXkXkXkXkXkXkXkXkXkXkXkXkXkXkXkXkXkXkXkXkXkXkXkXkXkXkXkXkXkXkXkXkXkXkXkXkXkXkX",
"kXkXkXkXkXkXkXkXkXkXkXkXkXkXkXkXkXkXkXkXkXkXkXkXkXkXkXkXkXkXY ^ Q E ~ Q S d i i kXkXkXkXkXkXkXkXkXkXkXkXkXkXkXkXkXkXkXkXkXkXkXkXkXkXkXkXkXkXkXkXkXkXkXkXkXkXkXkX",
"kXkXkXkXkXkXkXkXkXkXkXkXkXkXkXkXkXkXkXkXkXkXkXkXkXkXkXkXkXkXC E E U K K M i i i kXkXkXkXkXkXkXkXkXkXkXkXkXkXkXkXkXkXkXkXkXkXkXkXkXkXkXkXkXkXkXkXkXkXkXkXkXkXkXkX",
"kXkXkXkXkXkXkXkXkXkXkXkXkXkXkXkXkXkXkXkXkXkXkXkXkXkXkXkXkX! v d x Z K M l i i kXkXkXkXkXkXkXkXkXkXkXkXkXkXkXkXkXkXkXkXkXkXkXkXkXkXkXkXkXkXkXkXkXkXkXkXkXkXkXkXkX",
"kXkXkXkXkXkXkXkXkXkXkXkXkXkXkXkXkXkXkXkXkXkXkXkXkXkXkXkXkX_ I h i s d a p d d kXkXkXkXkXkXkXkXkXkXkXkXkXkXkXkXkXkXkXkXkXkXkXkXkXkXkXkXkXkXkXkXkXkXkXkXkXkXkXkXkX",
"kXkXkXkXkXkXkXkXkXkXkXkXkXkXkXkXkXkXkXkXkXkXkXkXkXkXkXkXK } E ^ / / / M n d i kXkXkXkXkXkXkXkXkXkXkXkXkXkXkXkXkXkXkXkXkXkXkXkXkXkXkXkXkXkXkXkXkXkXkXkXkXkXkXkXkX",
"kXkXkXkXkXkXkXkXkXkXkXkXkXkXkXkXkXkXkXkXkXkXkXkXkXkXkXkXm | Q E K K K M i i i kXkXkXkXkXkXkXkXkXkXkXkXkXkXkXkXkXkXkXkXkXkXkXkXkXkXkXkXkXkXkXkXkXkXkXkXkXkXkXkXkX",
"kXkXkXkXkXkXkXkXkXkXkXkXkXkXkXkXkXkXkXkXkXkXkXkXkXkXkXkXB S Q Q K K K x i i i kXkXkXkXkXkXkXkXkXkXkXkXkXkXkXkXkXkXkXkXkXkXkXkXkXkXkXkXkXkXkXkXkXkXkXkXkXkXkXkXkX",
"kXkXkXkXkXkXkXkXkXkXkXkXkXkXkXkXkXkXkXkXkXkXkXkXkXkXkX! _ p l M M M M a i i kXkXkXkXkXkXkXkXkXkXkXkXkXkXkXkXkXkXkXkXkXkXkXkXkXkXkXkXkXkXkXkXkXkXkXkXkXkXkXkXkXkX",
"kXkXkXkXkXkXkXkXkXkXkXkXkXkXkXkXkXkXkXkXkXkXkXkXkXkXkX~ ] b a i i i i i a a kXkXkXkXkXkXkXkXkXkXkXkXkXkXkXkXkXkXkXkXkXkXkXkXkXkXkXkXkXkXkXkXkXkXkXkXkXkXkXkXkXkX",
"kXkXkXkXkXkXkXkXkXkXkXkXkXkXkXkXkXkXkXkXkXkXkXkXkXkXkX] ^ Y ] ^ z j p M i i kXkXkXkXkXkXkXkXkXkXkXkXkXkXkXkXkXkXkXkXkXkXkXkXkXkXkXkXkXkXkXkXkXkXkXkXkXkXkXkXkXkX",
"kXkXkXkXkXkXkXkXkXkXkXkXkXkXkXkXkXkXkXkXkXkXkXkXkXkXN L Q ) K U E P s i i kXkXkXkXkXkXkXkXkXkXkXkXkXkXkXkXkXkXkXkXkXkXkXkXkXkXkXkXkXkXkXkXkXkXkXkXkXkXkXkXkXkXkX",
"kXkXkXkXkXkXkXkXkXkXkXkXkXkXkXkXkXkXkXkXkXkXkXkXkXkXG x K Q K K K M i i i kXkXkXkXkXkXkXkXkXkXkXkXkXkXkXkXkXkXkXkXkXkXkXkXkXkXkXkXkXkXkXkXkXkXkXkXkXkXkXkXkXkXkX",
"kXkXkXkXkXkXkXkXkXkXkXkXkXkXkXkXkXkXkXkXkXkXkXkXkX| ( a d n K K K d i i i kXkXkXkXkXkXkXkXkXkXkXkXkXkXkXkXkXkXkXkXkXkXkXkXkXkXkXkXkXkXkXkXkXkXkXkXkXkXkXkXkXkXkX",
"kXkXkXkXkXkXkXkXkXkXkXkXkXkXkXkXkXkXkXkXkXkXkXkXkX| W A a p d d d p i i i kXkXkXkXkXkXkXkXkXkXkXkXkXkXkXkXkXkXkXkXkXkXkXkXkXkXkXkXkXkXkXkXkXkXkXkXkXkXkXkXkXkXkX",
"kXkXkXkXkXkXkXkXkXkXkXkXkXkXkXkXkXkXkXkXkXkXkXkXkX| ) W ( M c i i s M i i kXkXkXkXkXkXkXkXkXkXkXkXkXkXkXkXkXkXkXkXkXkXkXkXkXkXkXkXkXkXkXkXkXkXkXkXkXkXkXkXkXkXkX",
"kXkXkXkXkXkXkXkXkXkXkXkXkXkXkXkXkXkXkXkXkXkXkXkXK E { U K ^ ^ E x a i i kXkXkXkXkXkXkXkXkXkXkXkXkXkXkXkXkXkXkXkXkXkXkXkXkXkXkXkXkXkXkXkXkXkXkXkXkXkXkXkXkXkXkXkX",
"kXkXkXkXkXkXkXkXkXkXkXkXkXkXkXkXkXkXkXkXkXkXkXkXK Q Y Q K K H x i i i i kXkXkXkXkXkXkXkXkXkXkXkXkXkXkXkXkXkXkXkXkXkXkXkXkXkXkXkXkXkXkXkXkXkXkXkXkXkXkXkXkXkXkXkX",
"kXkXkXkXkXkXkXkXkXkXkXkXkXkXkXkXkXkXkXkXkXkXkXkXd U K U K K l i i i i i kXkXkXkXkXkXkXkXkXkXkXkXkXkXkXkXkXkXkXkXkXkXkXkXkXkXkXkXkXkXkXkXkXkXkXkXkXkXkXkXkXkXkXkX",
"kXkXkXkXkXkXkXkXkXkXkXkXkXkXkXkXkXkXkXkXkXkXkXkXkXd Z x x i i i i i i i kXkXkXkXkXkXkXkXkXkXkXkXkXkXkXkXkXkXkXkXkXkXkXkXkXkXkXkXkXkXkXkXkXkXkXkXkXkXkXkXkXkXkXkX",
"kXkXkXkXkXkXkXkXkXkXkXkXkXkXkXkXkXkXkXkXkXkXkXkXkXkXi i i i i i i i i kXkXkXkXkXkXkXkXkXkXkXkXkXkXkXkXkXkXkXkXkXkXkXkXkXkXkXkXkXkXkXkXkXkXkXkXkXkXkXkXkXkXkXkXkX",
"kXkXkXkXkXkXkXkXkXkXkXkXkXkXkXkXkXkXkXkXkXkXkXkXkXkXkXi i i i i i i kXkXkXkXkXkXkXkXkXkXkXkXkXkXkXkXkXkXkXkXkXkXkXkXkXkXkXkXkXkXkXkXkXkXkXkXkXkXkXkXkXkXkXkXkXkX",
"kXkXkXkXkXkXkXkXkXkXkXkXkXkXkXkXkXkXkXkXkXkXkXkXkXkXkXkXi i i i kXkXkXkXkXkXkXkXkXkXkXkXkXkXkXkXkXkXkXkXkXkXkXkXkXkXkXkXkXkXkXkXkXkXkXkXkXkXkXkXkXkXkXkXkXkXkXkX",
"kXkXkXkXkXkXkXkXkXkXkXkXkXkXkXkXkXkXkXkXkXkXkXkXkXkXkXkXkXkXkXkXkXkXkXkXkXkXkXkXkXkXkXkXkXkXkXkXkXkXkXkXkXkXkXkXkXkXkXkXkXkXkXkXkXkXkXkXkXkXkXkXkXkXkXkXkXkXkXkX",
"kXkXkXkXkXkXkXkXkXkXkXkXkXkXkXkXkXkXkXkXkXkXkXkXkXkXkXkXkXkXkXkXkXkXkXkXkXkXkXkXkXkXkXkXkXkXkXkXkXkXkXkXkXkXkXkXkXkXkXkXkXkXkXkXkXkXkXkXkXkXkXkXkXkXkXkXkXkXkXkX",
"kXkXkXkXkXkXkXkXkXkXkXkXkXkXkXkXkXkXkXkXkXkXkXkXkXkXkXkXkXkXkXkXkXkXkXkXkXkXkXkXkXkXkXkXkXkXkXkXkXkXkXkXkXkXkXkXkXkXkXkXkXkXkXkXkXkXkXkXkXkXkXkXkXkXkXkXkXkXkXkX"
};
