/* XPM */
static char *_3163_f8a6a9142d3ebb5d534323669c6bb0c96811ab57b705a783b775c8f5afce1a4e[] = {
/* columns rows colors chars-per-pixel */
"80 80 227 2 ",
"   c #3E6F3B",
".  c #27773C",
"X  c #27793C",
"o  c #287A3C",
"O  c #287B3C",
"+  c #287C3C",
"@  c #287D3C",
"#  c #287E3C",
"$  c #287F3C",
"%  c #2E7F3C",
"&  c #32733B",
"*  c #35763D",
"=  c #347F3B",
"-  c #367A3D",
";  c #3A7E3B",
":  c #6B5E38",
">  c #7C5A37",
",  c #765A38",
"<  c #7C5F3A",
"1  c #436D3A",
"2  c #496B3A",
"3  c #54673A",
"4  c #5F6239",
"5  c #44743F",
"6  c #457C3F",
"7  c #4B793F",
"8  c #616C39",
"9  c #616E39",
"0  c #677142",
"q  c #677641",
"w  c #6E7042",
"e  c #6B7C41",
"r  c #815637",
"t  c #835738",
"y  c #845939",
"u  c #865A3A",
"i  c #875C3B",
"p  c #895D3B",
"a  c #8B5E3B",
"s  c #8C5F3B",
"d  c #895D3C",
"f  c #8A5E3D",
"g  c #8E603B",
"h  c #8D613F",
"j  c #8F623F",
"k  c #94653F",
"l  c #98673F",
"z  c #886B43",
"x  c #906440",
"c  c #916541",
"v  c #936742",
"b  c #936743",
"n  c #946641",
"m  c #956843",
"M  c #976942",
"N  c #966944",
"B  c #996942",
"V  c #9A6B43",
"C  c #9E6C41",
"Z  c #9C6C43",
"A  c #9E6D43",
"S  c #986B45",
"D  c #9A6B44",
"F  c #996C46",
"G  c #9D6D44",
"H  c #9D6E45",
"J  c #9F6E44",
"K  c #9D6E46",
"L  c #9E6F46",
"P  c #857444",
"I  c #A16F44",
"U  c #A17045",
"Y  c #A07046",
"T  c #A27146",
"R  c #A47246",
"E  c #A47346",
"W  c #A57346",
"Q  c #A77547",
"!  c #A87343",
"~  c #AB7645",
"^  c #A97647",
"/  c #AB7747",
"(  c #AC7747",
")  c #A07A46",
"_  c #AC7847",
"`  c #AD7847",
"'  c #AE7947",
"]  c #B07A47",
"[  c #B27B47",
"{  c #B57D47",
"}  c #28803C",
"|  c #29813C",
" . c #2B813C",
".. c #29833C",
"X. c #2B833C",
"o. c #2D803C",
"O. c #2F833C",
"+. c #29843C",
"@. c #29853C",
"#. c #2A873C",
"$. c #2C853C",
"%. c #2E843C",
"&. c #2C873C",
"*. c #2A883C",
"=. c #2A893C",
"-. c #2A8A3C",
";. c #2A8B3C",
":. c #2C893C",
">. c #2E883C",
",. c #2D8B3C",
"<. c #2F8A3C",
"1. c #2A8C3C",
"2. c #2B8D3C",
"3. c #2B8E3C",
"4. c #2B8F3C",
"5. c #2D8D3C",
"6. c #2F8C3C",
"7. c #30853C",
"8. c #31863C",
"9. c #3B843B",
"0. c #38853D",
"q. c #31893C",
"w. c #338A3C",
"e. c #348B3C",
"r. c #318D3C",
"t. c #328C3C",
"y. c #308F3C",
"u. c #348D3C",
"i. c #348F3C",
"p. c #2B903C",
"a. c #2B923C",
"s. c #2D913C",
"d. c #2E933C",
"f. c #2C943C",
"g. c #2C963C",
"h. c #2E973C",
"j. c #2F993C",
"k. c #30903C",
"l. c #32903C",
"z. c #30923C",
"x. c #31933C",
"c. c #32923C",
"v. c #33923C",
"b. c #34913C",
"n. c #37903C",
"m. c #35933C",
"M. c #30943C",
"N. c #33943C",
"B. c #30963C",
"V. c #33963C",
"C. c #35953C",
"Z. c #39953C",
"A. c #3A973C",
"S. c #31983C",
"D. c #33983C",
"F. c #319B3C",
"G. c #36993C",
"H. c #369B3C",
"J. c #329C3C",
"K. c #349C3C",
"L. c #369C3C",
"P. c #369D3C",
"I. c #349E3C",
"U. c #3B983C",
"Y. c #3A993C",
"T. c #399A3C",
"R. c #3A9B3C",
"E. c #3C983C",
"W. c #3C9B3C",
"Q. c #399E3C",
"!. c #3B9E3C",
"~. c #3F9C3C",
"^. c #37A13C",
"/. c #3BA03C",
"(. c #38A23C",
"). c #39A23C",
"_. c #3CA13C",
"`. c #3CA23C",
"'. c #3AA43C",
"]. c #3CA43C",
"[. c #3EA43C",
"{. c #3FA43C",
"}. c #3CA63C",
"|. c #578B3F",
" X c #40A13B",
".X c #42A13B",
"XX c #43A63B",
"oX c #45A53B",
"OX c #40A43C",
"+X c #41A63C",
"@X c #43A83B",
"#X c #47A83B",
"$X c #42AC3B",
"%X c #44AC3B",
"&X c #46AD3B",
"*X c #44AE3B",
"=X c #45AF3B",
"-X c #47AF3B",
";X c #41A83C",
":X c #40AA3C",
">X c #42AC3C",
",X c #48AC3B",
"<X c #4BAF3B",
"1X c #46B03B",
"2X c #47B13B",
"3X c #4BB03B",
"4X c #49B33B",
"5X c #4CB23B",
"6X c #4EB33B",
"7X c #4AB43B",
"8X c #4CB43B",
"9X c #4CB63B",
"0X c #4EB83B",
"qX c #4FB93B",
"wX c #50B63B",
"eX c #50B83B",
"rX c #51B83B",
"tX c #50BA3B",
"yX c #51BA3B",
"uX c #51BB3B",
"iX c #53BB3B",
"pX c #52BC3B",
"aX c #54BE3B",
"sX c #57C13B",
"dX c #6D8741",
"fX c #7C8242",
"gX c None",
/* pixels */
"gXgXgXgXgXgXgXgXgXgXgXgXgXgXgXgXgXgXgXgXgXgXgXgXgXgXgXgXgXgXgXgXgXgXgXgXgXgXgXgXgXgXgXgXgXgXgXgXgXgXgXgXgXgXgXgXgXgXgXgXgXgXgXgXgXgXgXgXgXgXgXgXgXgXgXgXgXgXgXgX",
"gXgXgXgXgXgXgXgXgXgXgXgXgXgXgXgXgXgXgXgXgXgXgXgXgXgXgXgXgXgXgXgXgXgXgXgXgXgXgXgXgXgXgXgXgXgXgXgXgXgXgXgXgXgXgXgXgXgXgXgXgXgXgXgXgXgXgXgXgXgXgXgXgXgXgXgXgXgXgXgX",
"gXgXgXgXgXgXgXgXgXgXgXgXgXgXgXgXgXgXgXgXgXgXgXgXgXgXgXgXgXgXgXgXgXgXgXgXgXgXgXgXgXgXgXgXgXgXgXgXgXgXgXgXgXgXgXgXgXgXgXgXgXgXgXgXgXgXgXgXgXgXgXgXgXgXgXgXgXgXgXgX",
"gXgXgXgXgXgXgXgXgXgXgXgXgXgXgXgXgXgXgXgXgXgXgXgXgXgXgXgXgXgXgXgXgXgXgXgXgXgXgXgXgXgXgXgXgXgXgXgXgXgXgXgXgXgXgXgXgXgXgXgXgXgXgXgXgXgXgXgXgXgXgXgXgXgXgXgXgXgXgXgX",
"gXgXgXgXgXgXgXgXgXgXgXgXgXgXgXgXgXgXgXgXgXgXgXgXgXgXgXgXgXgXgXgXgXgXgXgXgXgXgXgXgXgXgXgXgXgXgXgXgXgXgXgXgXgXgXgXgXgXgXgXgXgXgXgXgXgXgXgXgXgXgXgXgXgXgXgXgXgXgXgX",
"gXgXgXgXgXgXgXgXgXgXgXgXgXgXgXgXgXgXgXgXgXgXgXgXgXgXgXgXgXgXgXgXgXgXgXgXgXgX#XuX$ . gXgXgXgXgXgXgXgXgXgXgXgXgXgXgXgXgXgXgXgXgXgXgXgXgXgXgXgXgXgXgXgXgXgXgXgXgXgX",
"gXgXgXgXgXgXgXgXgXgXgXgXgXgXgXgXgXgXgXgXgXgXgXgXgXgXgXgXgXgXgXgXgXgXgXT.'.{.;Xr.p.#.gXgXgXgXgXgXgXgXgXgXgXgXgXgXgXgXgXgXgXgXgXgXgXgXgXgXgXgXgXgXgXgXgXgXgXgXgXgX",
"gXgXgXgXgXgXgXgXgXgXgXgXgXgXgXgXgXgXgXgXgXgXgXgXgXgXgXgXgXgXgXgXgXN.aXsXsXqX>X$ g.g.... gXgXgXgXgXgXgXgXgXgXgXgXgXgXgXgXgXgXgXgXgXgXgXgXgXgXgXgXgXgXgXgXgXgXgXgX",
"gXgXgXgXgXgXgXgXgXgXgXgXgXgXgXgXgXgXgXgXgXgXgXgXgXgXgXgXgXgXgXgX$ S.k.#.6.S.>X$ $ $ $ . . gXgXgXgXgXgXgXgXgXgXgXgXgXgXgXgXgXgXgXgXgXgXgXgXgXgXgXgXgXgXgXgXgXgXgX",
"gXgXgXgXgXgXgXgXgXgXgXgXgXgXgXgXgXgXgXgXgXgXgXgXgXgXgXgXgXgXgXgX. ..q.OXXX%X`.&.5.. . . . gXgXgXgXgXgXgXgXgXgXgXgXgXgXgXgXgXgXgXgXgXgXgXgXgXgXgXgXgXgXgXgXgXgXgX",
"gXgXgXgXgXgXgXgXgXgXgXgXgXgXgXgXgXgXgXsXsXsXsXsXsXgXgXgXgXgXgXgX+.%XaXsX9X9X#.j.h.... gXgXgXgXgXgXgXgXgXgXgXgXgXgXgXgXgXgXgXgXgXgXgXgXgXgXgXgXgXgXgXgXgXgXgXgXgX",
"gXgXgXgXgXgXgXgXgXgXgXgXgXgXgXsXsXsXsXsXsXsX>X>X>X^.>X(.>Xg.gX. >X2Xk.#.-.}.#.3.. . . . gXgXgXgXgXgXgXgXgXgXgXgXgXgXgXgXgXgXgXgXgXgXgXgXgXgXgXgXgXgXgXgXgXgXgXgX",
"gXgXgXgXgXgXgXgXgXgXgXgXgX9X%X3.3.3.3.3.3.3.3.3.f.9Xp...3.!.@ . 3.@ @ C.9XI.#.g.$ . . . gXgXgXgXgXgXgXgXgXgXgXgXgXgXgXgXgXgXgXgXgXgXgXgXgXgXgXgXgXgXgXgXgXgXgXgX",
"gXgXgXgXgXgXgXgXgXgXgXsX9X#.,.G.G.s.3.G.G.s.3.G.m.#.$ *.-.$ X . . @ %X;X| a.#.3.@.. . . gXgXgXgXgXgXgXgXgXgXgXgXgXgXgXgXgXgXgXgXgXgXgXgXgXgXgXgXgXgXgXgXgXgXgXgX",
"gXgXgXgXgXgXgXgXgXgXsXsX>X#.;XsX9Xk.G.sXsX^.3.oXsX^.#.O $ g.#.. . ..A.#.R.-.#.. . . . gXgXgXgXgXgXsXpX>X>X>X^.g.a.#.#.O . 1.. gXgXgXgXgXgXgXgXgXgXgXgXgXgXgXgXgX",
"gXgXgXgXgXgXgXgXgXgX9XI.+.Z.9X}...~.>X9X*X$ o.*Xg.a.6XH.$ O $ ... . @ 2X9X$ g.$ X . . gXgXgXgXgXsXsXqX9X9X9X9X9X9XI.^.I.g.pX%X*.. gXgXgXgXgXgXgXgXgXgXgXgXgXgXgX",
"gXgXgXgXgXgXgXgX. pXf...gX7X}.a.. -XF.3.-.X A.3.3.O i.I.^.3.-.O . . *.P.*X$ g.f.@ @ gXgXgXsXtX2X2X>X^.g.3.%X9X^.g.g.P.D.}.>XD. .w.$ gXgXgXgXgXgXgXgXgXgXgXgXgXgX",
"gXgXgXgXgXgXgXgX..9X... 4X>XF.#.~.[.#.. . . #.. . . `.#.#.$ ..$ . . . #.g.$ g.... $ gX>XsX9X9XsX9XsX;X#.. <XsX3.k.>XOX6.#.^.>X^.>Xg.=.gXgXgXgXgXgXgXgXgXgXgXgXgX",
"gXgXgXgXgXgXgX. ..g.gX$Xg.a.... g.$ . . gX+.. . . >X. . . . . . . . . . -.-.3.. . | ^.>X>X9X>X>X>X#.O gXgX'.g.#.O.rX>X^.>X#.-.}.^.3.. . gXgXgXgXgXgXgXgXgXgXgXgX",
"gXgXgXgXgXgXgX. . $ gX| $ @ . . =.$ %.t.l.,XOXM.eXJ.s.s.#.#...$ . . . . @ 3.O . *.a.F.h.V.M...$ $ . gXgXgX3.a.a.$ iXg.&.6X}.1.,.S.#.1.... gXgXgXgXgXgXgXgXgXgXgX",
"gXgXgXgXgXgXgX. . . gXgXgXgXgXg.`.8X>XF.g.I.^.g.I.F.j.j.g.g.g.g.3.@ . . . . . . 3.g.-.@ . . . . . gXgXgXgX. O $ X gX}.$ <X>Xg.%X`.@ *.#.... gXgXgXgXgXgXgXgXgXgX",
"gXgXgXgXgXgXgXgX. gXgXgXgX>XpX>X^.>X>X9X2X>X3.#.#.OX}.3.g.$ ..#.#.... . . . . #.#.1.g.g.$ gXgXgXgXgXgXgXgXgX. . . . ~.x.. >X3.~.>X3.#.#.#.. gXgXgXgXgXgXgXgXgXgX",
"gXgXgXgXgXgXgXgXgXgXgXgX-.}.9X>X}.%XOXb.:.#.-.1.#.a.3.$ | 2.@ . . . @ O . . . ..3.P.9X}.d.a.v.gXgXgXgXgXgXgXgX. . . . #.gXJ.3.>.P.f.....O . gXgXgXgXgXgXgXgXgXgX",
"gXgXgXgXgXgXgXgXgXgXqXsX}.I.*XF.k...3.g.c.9Xg.@ . g.. . . g.gXgXgXg.1X`.*.. . . . O ^.qXqX-.Q.3X#.gXgXgXgXgXgXgXgX. . $ @ 9Xf.# ~.p.!.... . gXgXgXgXgXgXgXgXgXgX",
"gXgXgXgXgXgXgXgXgX>X}.}.>X}.-.#.3.>XsX^.#.. T.. . . 3.. gXgXgXgXg.}.k.#.. .   4 3 . $ -.9X9Xk.A.9X2X=XgXgXgXgXgXgXgX. . . >Xg.| gX`.%.OX$ . . gXgXgXgXgXgXgXgXgX",
"gXgXgXgXgXgXgXgX$ }.I.I.3.$ p.g.A.yX}.g.-.. gX4.X gXgXgXgXgXgX;X>Xu.3.O @ @ 2 r r 4 . . . a.p.%Xk.3.D.>X. gXgXgXgXgXgXgX. . gX1.. g.$ A.g.$ . . gXgXgXgXgXgXgXgX",
"gXgXgXgXgXgXgXaX9XF.].*.#.f.).9XP.y._.S.@ . . gXgXgXgXgXgXgXe.C.^.&.p.a.& 1 2 r r r gX. . O O p.F.OXz.6.*...#.gXgXgXgXgXgX. gXO . ..@ +.3.@ . . gXgXgXgXgXgXgXgX",
"gXgXgXgXgXgXsXsX2X>Xa.a.>X3.~.9Xg.3.. b.. . . gXgXgXgXgXgX1.&X>XG...}.^.. : : r r r gXgX. . O a.3.-.g.g.#.3.#.gXgXgXgXgXgXgXgX. . . . . . . . . gXgXgXgXgXgXgXgX",
"gXgXgXgXgXgXsX2X>X3.-.-.9Xa.t.4Xg.3.. g.$ gXgXgXgXgXgXgX#.b.&X>X#.. . $ ..2 r r r r gXgXgXgXgX. $ %.pX>X>XM.$ $ . gXgXgXgXgXgXgXgXgX. . . . . . gXgXgXgXgXgXgXgX",
"gXgXgXgXgXgXsXqXI.#.}.D.W.I.1.8.g.f...$ -.gXgXgXgXgXgXgX. n.+X^...X.G.O 8 % r r y r gXgXgXgXgX. . D.].M.j.].k.3.3.gXgXgXgXgXgXgXgXgXgX. gXgX. . gXgXgXgXgXgXgXgX",
"gXgXgXgXgXsX9X2X-.3.pXF.. 9X3.. g.a.$ . gXgXgXgXgXgXgXgX#XsX}.^.$ ;X2X#.4 9 h f i r gXgXgXgXgXgX. g.3.. -.F.^.#.a.g.gXgXgXgXgXgXgXgXgXgXgXgXgX. gXgXgXgXgXgXgXgX",
"gXgXgXgXgX4X^.S.O 3.-.g.| 0XF.#.#.+.. gXgXgXgXgXgXgXgXuX9XsX9X>X$ ..A.>X. . r r r r gXgXgXgXgXgX. . . | 2X>Xg.>X6.g.#.gXgXgXgXgXgXgXgXgXgXgXgXgXgXgXgXgXgXgXgXgX",
"gXgXgXgXgX$X}.D.-.=.@Xg.#.gXh.... 3.. gXgXgXgXgXgXgXgX:X5X;X2XF...k.X fX; X 4 r r r gXgXgXgXgXgXgX. o -.2X&.-.F.N.p.O . gXgXgXgXgXgXgXgXgXgXgXgXgXgXgXgXgXgXgXgX",
"gXgXgXgXgXg.F.j.g.$ 9Xg.#.gX... . gXgXgXgXgXgXgXgXgXgXB.o.`.>X-.`.pXD.* > 9.& r r r gXgXgXgXgXgXgXgXgX-.g.$ O g.).8X#.*.gXgXgXgXgXgXgXgXgXgXgXgXgXgXgXgXgXgXgXgX",
"gXgXgXgXgXg.3.a.g.#.5XO . . } . gXgXgXgXgXgXgXgXgXgXgX#.~.9X>X^.#.}.>Xg.. 2 : r r r gXgXgXgXgXgXgXgX. #.a.O ~.sX^.9Xb.a.g.gXgXgXgXgXgXgXgXgXgXgXgXgXgXgXgXgXgXgX",
"gXgXgXgXgXg...@ 3.. XX. . . gXgXgXgXgXgXgXgXgXgXgXgXgXY.pXF.>Xg.O X .X6.. . z r r r gXgXgXgXgXgXgXgX. . -.E.pX`.p.g.~.3.g.gXgXgXgXgXgXgXgXgXgXgXgXgXgXgXgXgXgXgX",
"gXgXgXgXgXg.. . . . 3.. . gXgXgXgXgXgXgXgXgXgXgXgXgXgX!.pX>X>X-.`.c.0 6.. . 3 r r r gXgXgXgXgXgXgXgXgX. . E.>Xa.$ @X;XXXp.g.gXgXgXgXgXgXgXgXgXgXgXgXgXgXgXgXgXgX",
"gXgXgXgXgXgX. . . . . gXgXgXgXgXgXgXgXgXgXgXgXgXgXgXgX'.sX^.^.>X#.9X^.6 e 0.. r r r gXgXgXgXgXgXgXgXgX. .  X^.#.O.rX^.OX..$ gXgXgXgXgXgXgXgXgXgXgXgXgXgXgXgXgXgX",
"gXgXgXgXgXgXgX. . . gXgXgXgXgXgXgXgXgXgXgXgXgXgXgXgXgX^.`.. V.}.#./.K.g.@ 0 = r r r gXgXgXgXgXgXgXgXgXgXgX3.g.=.E.qX!.].$ . 3.gXgXgXgXgXgXgXgXgXgXgXgXgXgXgXgXgX",
"gXgXgXgXgXgXgXgXgXgXgXgXgXgXgXgXgXgXgXgXgXgXgXgXgXgXgX;.$ >.h.a.S.$.7.`.*.. , r r r gXgXgXgXgXgXgXgXgXgX. ..g.$ U.I.. M.p.... gXgXgXgXgXgXgXgXgXgXgXgXgXgXgXgXgX",
"gXgXgXgXgXgXgXgXgXgXgXgXgXgXgXgXgXgXgXgXgXgXgXgXgXgXgXgXgXOX^.#.>X;XO |.... r r r r gXgXgXgXgXgXgXgXgXgX. O 3.. 4Xg.w.&Xg.3.. gXgXgXgXgXgXgXgXgXgXgXgXgXgXgXgXgX",
"gXgXgXgXgXgXgXgXgXgXgXgXgXgXgXgXgXgXgXgXgXgXgXgXgXgXgXgX. G.F.3.G.2Xg.7 - dXQ f r r gXgXgXgXgXgXgXgXgXgXgX. . . 1.g.. wX2Xg.a.+ gXgXgXgXgXgXgXgXgXgXgXgXgXgXgXgX",
"gXgXgXgXgXgXgXgXgXgXgXgXgXgXgXgXgXgXgXgXgXgXgXgXgXgXgXgXgXO <.^.P.H.... 5 P F j r r gXgXgXgXgXgXgXgXgXgXgXgX. . ..3.. L.j.g.g.| gXgXgXgXgXgXgXgXgXgXgXgXgXgXgXgX",
"gXgXgXgXgXgXgXgXgXgXgXgXgXgXgXgXgXgXgXgXgXgXgXgXgXgXgXgXgX. O 3.#.O . 5 w F v r r r gXgXgXgXgXgXgXgXgXgXgXgXgX. . . . | g.g.g.} gXgXgXgXgXgXgXgXgXgXgXgXgXgXgXgX",
"gXgXgXgXgXgXgXgXgXgXgXgXgXgXgXgXgXgXgXgXgXgXgXgXgXgXgXgXgXgX. . 7 q < i h y r r r r gXgXgXgXgXgXgXgXgXgXgXgXgXgXgX. . . ..3.#.O . gXgXgXgXgXgXgXgXgXgXgXgXgXgXgX",
"gXgXgXgXgXgXgXgXgXgXgXgXgXgXgXgXgXgXgXgXgXgXgXgXgXgXgXgXgXgXgX. ) R I l g g a d y r gXgXgXgXgXgXgXgXgXgXgXgXgXgXgXgXgXgX. O . . . gXgXgXgXgXgXgXgXgXgXgXgXgXgXgX",
"gXgXgXgXgXgXgXgXgXgXgXgXgXgXgXgXgXgXgXgXgXgXgXgXgXgXgXgXgXgXgXgXn _ L K Y Y n u r r gXgXgXgXgXgXgXgXgXgXgXgXgXgXgXgXgXgXgXgXgXgXgXgXgXgXgXgXgXgXgXgXgXgXgXgXgXgX",
"gXgXgXgXgXgXgXgXgXgXgXgXgXgXgXgXgXgXgXgXgXgXgXgXgXgXgXgXgXgXgXgXk D K F F F r r r gXgXgXgXgXgXgXgXgXgXgXgXgXgXgXgXgXgXgXgXgXgXgXgXgXgXgXgXgXgXgXgXgXgXgXgXgXgXgX",
"gXgXgXgXgXgXgXgXgXgXgXgXgXgXgXgXgXgXgXgXgXgXgXgXgXgXgXgXgXgXgX{ n p v v v u r r r gXgXgXgXgXgXgXgXgXgXgXgXgXgXgXgXgXgXgXgXgXgXgXgXgXgXgXgXgXgXgXgXgXgXgXgXgXgXgX",
"gXgXgXgXgXgXgXgXgXgXgXgXgXgXgXgXgXgXgXgXgXgXgXgXgXgXgXgXgXgXgX{ K Z ! r r r r j r gXgXgXgXgXgXgXgXgXgXgXgXgXgXgXgXgXgXgXgXgXgXgXgXgXgXgXgXgXgXgXgXgXgXgXgXgXgXgX",
"gXgXgXgXgXgXgXgXgXgXgXgXgXgXgXgXgXgXgXgXgXgXgXgXgXgXgXgXgXgXgXF Q F F Y Q n i r r gXgXgXgXgXgXgXgXgXgXgXgXgXgXgXgXgXgXgXgXgXgXgXgXgXgXgXgXgXgXgXgXgXgXgXgXgXgXgX",
"gXgXgXgXgXgXgXgXgXgXgXgXgXgXgXgXgXgXgXgXgXgXgXgXgXgXgXgXgXgXgXD F R F F F m r r r gXgXgXgXgXgXgXgXgXgXgXgXgXgXgXgXgXgXgXgXgXgXgXgXgXgXgXgXgXgXgXgXgXgXgXgXgXgXgX",
"gXgXgXgXgXgXgXgXgXgXgXgXgXgXgXgXgXgXgXgXgXgXgXgXgXgXgXgXgXgXQ C h S F F v u r r r gXgXgXgXgXgXgXgXgXgXgXgXgXgXgXgXgXgXgXgXgXgXgXgXgXgXgXgXgXgXgXgXgXgXgXgXgXgXgX",
"gXgXgXgXgXgXgXgXgXgXgXgXgXgXgXgXgXgXgXgXgXgXgXgXgXgXgXgXgXgX] Q g f h h r r i r gXgXgXgXgXgXgXgXgXgXgXgXgXgXgXgXgXgXgXgXgXgXgXgXgXgXgXgXgXgXgXgXgXgXgXgXgXgXgXgX",
"gXgXgXgXgXgXgXgXgXgXgXgXgXgXgXgXgXgXgXgXgXgXgXgXgXgXgXgXgXgX` Q Y Q n k l h i r gXgXgXgXgXgXgXgXgXgXgXgXgXgXgXgXgXgXgXgXgXgXgXgXgXgXgXgXgXgXgXgXgXgXgXgXgXgXgXgX",
"gXgXgXgXgXgXgXgXgXgXgXgXgXgXgXgXgXgXgXgXgXgXgXgXgXgXgXgXgXF L Q R Y W R V i r r gXgXgXgXgXgXgXgXgXgXgXgXgXgXgXgXgXgXgXgXgXgXgXgXgXgXgXgXgXgXgXgXgXgXgXgXgXgXgXgX",
"gXgXgXgXgXgXgXgXgXgXgXgXgXgXgXgXgXgXgXgXgXgXgXgXgXgXgXgXgXF M Y Y K F F v r r r gXgXgXgXgXgXgXgXgXgXgXgXgXgXgXgXgXgXgXgXgXgXgXgXgXgXgXgXgXgXgXgXgXgXgXgXgXgXgXgX",
"gXgXgXgXgXgXgXgXgXgXgXgXgXgXgXgXgXgXgXgXgXgXgXgXgXgXgXgXgX( k i h N F v f r r gXgXgXgXgXgXgXgXgXgXgXgXgXgXgXgXgXgXgXgXgXgXgXgXgXgXgXgXgXgXgXgXgXgXgXgXgXgXgXgXgX",
"gXgXgXgXgXgXgXgXgXgXgXgXgXgXgXgXgXgXgXgXgXgXgXgXgXgXgXgXgXQ J a r u i y t i i gXgXgXgXgXgXgXgXgXgXgXgXgXgXgXgXgXgXgXgXgXgXgXgXgXgXgXgXgXgXgXgXgXgXgXgXgXgXgXgXgX",
"gXgXgXgXgXgXgXgXgXgXgXgXgXgXgXgXgXgXgXgXgXgXgXgXgXgXgXgXF [ Y Q ! ! ! v x i r gXgXgXgXgXgXgXgXgXgXgXgXgXgXgXgXgXgXgXgXgXgXgXgXgXgXgXgXgXgXgXgXgXgXgXgXgXgXgXgXgX",
"gXgXgXgXgXgXgXgXgXgXgXgXgXgXgXgXgXgXgXgXgXgXgXgXgXgXgXgXc { R Y F F F v r r r gXgXgXgXgXgXgXgXgXgXgXgXgXgXgXgXgXgXgXgXgXgXgXgXgXgXgXgXgXgXgXgXgXgXgXgXgXgXgXgXgX",
"gXgXgXgXgXgXgXgXgXgXgXgXgXgXgXgXgXgXgXgXgXgXgXgXgXgXgXgXn U R R F F F h r r r gXgXgXgXgXgXgXgXgXgXgXgXgXgXgXgXgXgXgXgXgXgXgXgXgXgXgXgXgXgXgXgXgXgXgXgXgXgXgXgXgX",
"gXgXgXgXgXgXgXgXgXgXgXgXgXgXgXgXgXgXgXgXgXgXgXgXgXgXgXE / y f v v v v y r r gXgXgXgXgXgXgXgXgXgXgXgXgXgXgXgXgXgXgXgXgXgXgXgXgXgXgXgXgXgXgXgXgXgXgXgXgXgXgXgXgXgX",
"gXgXgXgXgXgXgXgXgXgXgXgXgXgXgXgXgXgXgXgXgXgXgXgXgXgXgXW ' k y r r r r r y y gXgXgXgXgXgXgXgXgXgXgXgXgXgXgXgXgXgXgXgXgXgXgXgXgXgXgXgXgXgXgXgXgXgXgXgXgXgXgXgXgXgX",
"gXgXgXgXgXgXgXgXgXgXgXgXgXgXgXgXgXgXgXgXgXgXgXgXgXgXgX' Q R ' Q g s t v r r gXgXgXgXgXgXgXgXgXgXgXgXgXgXgXgXgXgXgXgXgXgXgXgXgXgXgXgXgXgXgXgXgXgXgXgXgXgXgXgXgXgX",
"gXgXgXgXgXgXgXgXgXgXgXgXgXgXgXgXgXgXgXgXgXgXgXgXgXgXb G R R F K Y H u r r gXgXgXgXgXgXgXgXgXgXgXgXgXgXgXgXgXgXgXgXgXgXgXgXgXgXgXgXgXgXgXgXgXgXgXgXgXgXgXgXgXgXgX",
"gXgXgXgXgXgXgXgXgXgXgXgXgXgXgXgXgXgXgXgXgXgXgXgXgXgXA h F Y F F F v r r r gXgXgXgXgXgXgXgXgXgXgXgXgXgXgXgXgXgXgXgXgXgXgXgXgXgXgXgXgXgXgXgXgXgXgXgXgXgXgXgXgXgXgX",
"gXgXgXgXgXgXgXgXgXgXgXgXgXgXgXgXgXgXgXgXgXgXgXgXgX{ ~ y i v F F F i r r r gXgXgXgXgXgXgXgXgXgXgXgXgXgXgXgXgXgXgXgXgXgXgXgXgXgXgXgXgXgXgXgXgXgXgXgXgXgXgXgXgXgXgX",
"gXgXgXgXgXgXgXgXgXgXgXgXgXgXgXgXgXgXgXgXgXgXgXgXgX{ T B y y i i i t r r r gXgXgXgXgXgXgXgXgXgXgXgXgXgXgXgXgXgXgXgXgXgXgXgXgXgXgXgXgXgXgXgXgXgXgXgXgXgXgXgXgXgXgX",
"gXgXgXgXgXgXgXgXgXgXgXgXgXgXgXgXgXgXgXgXgXgXgXgXgX{ ^ T ~ v j r r u v r r gXgXgXgXgXgXgXgXgXgXgXgXgXgXgXgXgXgXgXgXgXgXgXgXgXgXgXgXgXgXgXgXgXgXgXgXgXgXgXgXgXgXgX",
"gXgXgXgXgXgXgXgXgXgXgXgXgXgXgXgXgXgXgXgXgXgXgXgXF Y [ K F Q Q Y h y r r gXgXgXgXgXgXgXgXgXgXgXgXgXgXgXgXgXgXgXgXgXgXgXgXgXgXgXgXgXgXgXgXgXgXgXgXgXgXgXgXgXgXgXgX",
"gXgXgXgXgXgXgXgXgXgXgXgXgXgXgXgXgXgXgXgXgXgXgXgXF R L R F F S h r r r r gXgXgXgXgXgXgXgXgXgXgXgXgXgXgXgXgXgXgXgXgXgXgXgXgXgXgXgXgXgXgXgXgXgXgXgXgXgXgXgXgXgXgXgX",
"gXgXgXgXgXgXgXgXgXgXgXgXgXgXgXgXgXgXgXgXgXgXgXgXi K F K F F f r r r r r gXgXgXgXgXgXgXgXgXgXgXgXgXgXgXgXgXgXgXgXgXgXgXgXgXgXgXgXgXgXgXgXgXgXgXgXgXgXgXgXgXgXgXgX",
"gXgXgXgXgXgXgXgXgXgXgXgXgXgXgXgXgXgXgXgXgXgXgXgXgXi N h h r r r r r r r gXgXgXgXgXgXgXgXgXgXgXgXgXgXgXgXgXgXgXgXgXgXgXgXgXgXgXgXgXgXgXgXgXgXgXgXgXgXgXgXgXgXgXgX",
"gXgXgXgXgXgXgXgXgXgXgXgXgXgXgXgXgXgXgXgXgXgXgXgXgXgXr r r r r r r r r gXgXgXgXgXgXgXgXgXgXgXgXgXgXgXgXgXgXgXgXgXgXgXgXgXgXgXgXgXgXgXgXgXgXgXgXgXgXgXgXgXgXgXgXgX",
"gXgXgXgXgXgXgXgXgXgXgXgXgXgXgXgXgXgXgXgXgXgXgXgXgXgXgXr r r r r r r gXgXgXgXgXgXgXgXgXgXgXgXgXgXgXgXgXgXgXgXgXgXgXgXgXgXgXgXgXgXgXgXgXgXgXgXgXgXgXgXgXgXgXgXgXgX",
"gXgXgXgXgXgXgXgXgXgXgXgXgXgXgXgXgXgXgXgXgXgXgXgXgXgXgXgXr r r r gXgXgXgXgXgXgXgXgXgXgXgXgXgXgXgXgXgXgXgXgXgXgXgXgXgXgXgXgXgXgXgXgXgXgXgXgXgXgXgXgXgXgXgXgXgXgXgX",
"gXgXgXgXgXgXgXgXgXgXgXgXgXgXgXgXgXgXgXgXgXgXgXgXgXgXgXgXgXgXgXgXgXgXgXgXgXgXgXgXgXgXgXgXgXgXgXgXgXgXgXgXgXgXgXgXgXgXgXgXgXgXgXgXgXgXgXgXgXgXgXgXgXgXgXgXgXgXgXgX",
"gXgXgXgXgXgXgXgXgXgXgXgXgXgXgXgXgXgXgXgXgXgXgXgXgXgXgXgXgXgXgXgXgXgXgXgXgXgXgXgXgXgXgXgXgXgXgXgXgXgXgXgXgXgXgXgXgXgXgXgXgXgXgXgXgXgXgXgXgXgXgXgXgXgXgXgXgXgXgXgX",
"gXgXgXgXgXgXgXgXgXgXgXgXgXgXgXgXgXgXgXgXgXgXgXgXgXgXgXgXgXgXgXgXgXgXgXgXgXgXgXgXgXgXgXgXgXgXgXgXgXgXgXgXgXgXgXgXgXgXgXgXgXgXgXgXgXgXgXgXgXgXgXgXgXgXgXgXgXgXgXgX"
};
