/* XPM */
static char *_3112_3ba49c30b884de91959a8da26d52e8e6c70924419f1d193b5e5f51b0f2fa9eef[] = {
/* columns rows colors chars-per-pixel */
"80 80 210 2 ",
"   c #010101",
".  c #0A0502",
"X  c #0A0A05",
"o  c #00050C",
"O  c #05090C",
"+  c #0C0C0C",
"@  c #060705",
"#  c #140A05",
"$  c #120E0B",
"%  c #190D05",
"&  c #111106",
"*  c #16110A",
"=  c #1A130C",
"-  c #1E160B",
";  c #030D14",
":  c #0C0F13",
">  c #100F10",
",  c #0A1318",
"<  c #131313",
"1  c #13161A",
"2  c #1B1B1C",
"3  c #191816",
"4  c #2B0402",
"5  c #250803",
"6  c #3E0400",
"7  c #21160D",
"8  c #24190E",
"9  c #2A1609",
"0  c #331C0C",
"q  c #37160C",
"w  c #241C13",
"e  c #271D16",
"r  c #2A280A",
"t  c #25201B",
"y  c #3C2512",
"u  c #352C12",
"i  c #383416",
"p  c #34340F",
"a  c #171C21",
"s  c #1B262B",
"d  c #1B2730",
"f  c #242323",
"g  c #24272A",
"h  c #2B2B2B",
"j  c #27292A",
"k  c #3A2F24",
"l  c #3A3429",
"z  c #272D32",
"x  c #2E3538",
"c  c #343334",
"v  c #35393C",
"b  c #3B3B3B",
"n  c #383938",
"m  c #420503",
"M  c #630800",
"N  c #442D1C",
"B  c #4B2712",
"V  c #44321F",
"C  c #4C341D",
"Z  c #4E381E",
"A  c #58391D",
"S  c #51280E",
"D  c #653818",
"F  c #7C320E",
"G  c #491427",
"H  c #78083C",
"J  c #4D3923",
"K  c #473421",
"L  c #533720",
"P  c #533A20",
"I  c #503F2B",
"U  c #423D39",
"Y  c #3F403F",
"T  c #4B4B19",
"R  c #464618",
"E  c #54541C",
"W  c #564429",
"Q  c #565426",
"!  c #48413A",
"~  c #594B3A",
"^  c #684B2B",
"/  c #69562D",
"(  c #70512D",
")  c #694935",
"_  c #6E563E",
"`  c #7D5A34",
"'  c #725639",
"]  c #7A5C3D",
"[  c #7B5433",
"{  c #724E2D",
"}  c #686923",
"|  c #7F7E22",
" . c #742F4A",
".. c #434343",
"X. c #4C4B4B",
"o. c #45484A",
"O. c #524E4A",
"+. c #524741",
"@. c #5C524B",
"#. c #484D52",
"$. c #4D555C",
"%. c #535353",
"&. c #5B5B5C",
"*. c #585554",
"=. c #524B52",
"-. c #6D5A44",
";. c #6C5C4B",
":. c #655B4C",
">. c #765D42",
",. c #695C52",
"<. c #7D5B50",
"1. c #59635D",
"2. c #7D6046",
"3. c #69645C",
"4. c #7A6553",
"5. c #78685A",
"6. c #6E755C",
"7. c #5A5F62",
"8. c #5F6062",
"9. c #626262",
"0. c #7A787A",
"q. c #811908",
"w. c #920613",
"e. c #BF3A21",
"r. c #C73F23",
"t. c #88481F",
"y. c #A34319",
"u. c #894A24",
"i. c #914C23",
"p. c #945229",
"a. c #865D38",
"s. c #985836",
"d. c #865527",
"f. c #A85C37",
"g. c #866B35",
"h. c #8A6639",
"j. c #95683C",
"k. c #A5623C",
"l. c #AC6538",
"z. c #B56B3C",
"x. c #B66939",
"c. c #AA602E",
"v. c #C75F3B",
"b. c #C56835",
"n. c #C96B2A",
"m. c #BC0E56",
"M. c #843957",
"N. c #DA1A53",
"B. c #D83F43",
"V. c #DE3D5F",
"C. c #D73867",
"Z. c #8F5E42",
"A. c #8E6942",
"S. c #89664A",
"D. c #936A41",
"F. c #9A6943",
"G. c #8E7153",
"H. c #A66940",
"J. c #A57243",
"K. c #A67648",
"L. c #B1744C",
"P. c #8F786B",
"I. c #C25842",
"U. c #86862C",
"Y. c #8D8E34",
"T. c #919131",
"R. c #879131",
"E. c #A09F37",
"W. c #ADAD3B",
"Q. c #D18133",
"!. c #E09A36",
"~. c #B68A58",
"^. c #B28943",
"/. c #BDAF41",
"(. c #9A8269",
"). c #AC8F70",
"_. c #BAA469",
"`. c #AEA173",
"'. c #D5A44B",
"]. c #CE966A",
"[. c #CCAC70",
"{. c #C8C844",
"}. c #D2D24A",
"|. c #DDE255",
" X c #E6E64E",
".X c #FCF957",
"XX c #FFFF61",
"oX c #7E7C88",
"OX c #AC2389",
"+X c #D21197",
"@X c #DA13AE",
"#X c #E816A5",
"$X c #949392",
"%X c #AF9B8A",
"&X c #B3A583",
"*X c #B5AA9E",
"=X c #B1AFA8",
"-X c #B6B4AE",
";X c #B3B4B2",
":X c #C2BFBC",
">X c #BAC5AE",
",X c #DDC895",
"<X c #EAE897",
"1X c #C5C4BA",
"2X c #CCCDA8",
"3X c #D6E1AB",
"4X c #F5F8A4",
"5X c #C0CBCC",
"6X c #DAE3D0",
"7X c None",
/* pixels */
"7X7X7X7X7X7X7X7X7X7X7X7X7X7X7X7X7X7X7X7X7X7X7X7X7X7X7X7X7X7X7X7X7X7X7X7X7X7X7X7X7X7X7X7X7X7X7X7X7X7X7X7X7X7X7X7X7X7X7X7X7X7X7X7X7X7X7X7X7X7X7X7X7X7X7X7X7X7X7X7X",
"7X7X7X7X7X7X7X7X7X7X7X7X7X7X7X7X7X7X7X7X7X7X7X7X7X7X7X7X7X7X7X7X7X7X7X7X7X7X7X7X7X7X7X7X7X7X7X7X7X7X7X7X7X7X7X7X7X7X7X7X7X7X7X7X7X7X7X7X7X7X7X7X7X7X7X7X7X7X7X7X",
"7X7X7X7X7X7X7X7X7X7X7X7X7X7X7X7X7X7X7X7X7X7X7X7X7X7X7X7X7X7X7X7X7X7X7X7X7X7X7X7X7X7X7X7X7X7X7X7X7X7X7X7X7X7X7X7X7X7X7X7X7X7X7X7X7X7X7X7X7X7X7X7X7X7X7X7X7X7X7X7X",
"7X7X7X7X7X7X7X7X7X7X7X7X7X7X7X7X7X7X7X7X7X7X7X7X7X7X7X7X7X7X7X7X7X7X7X7X7X7X7X7X7X7X7X7X7X7X7X7X7X7X7X7X7X7X7X7X7X7X7X7X7X7X7X7X7X7X7X7X7X7X7X7X7X7X7X7X7X7X7X7X",
"7X7X7X7X7X7X7X7X7X7X7X7X7X7X7X7X7X7X7X7X7X7X7X7X7X7X7X7X7X7X7X7X7X7X7X7X7X7X7X7X7X7X7X7X7X7X7X7X7X7X7X7X7X7X7X7X7X7X7X7X7X7X7X7X7X7X7X7X7X7X7X7X7X7X7X7X7X7X7X7X",
"7X7X7X7X7X7X7X7X7X7X7X7X7X7X7X7X7X7X7X7X7X7X7X7X7X7X7X7X7X7X7X7X7X7X7X7X7X7X7X7X7X7X7X7X7X7X7X7X7X7X7X7X7X7X7X7X7X7X7X7X7X7X7X7X7X7X7X7X7X7X7X7X7X7X7X7X7X7X7X7X",
"7X7X7X7X7X7X7X7X7X7X7X7X7X7X7X7X7X7X7X7X7X7X7X7X7X7X7X7X7X7X7X7X7X7X7X7X7X7X7X7X7X7X7X7X7X7X7X7X7X7X7X7X7X7X7X7X7X7X7X7X7X7X7X7X7X7X7X7X7X7X7X7X7X7X7X7X7X7X7X7X",
"7X7X7X7X7X7X7X7X7X7X7X7X7X7X7X7X7X7X7X7X7X7X7X7X7X7X7X7X7X7X7X7X7X7X7X7X7X7X7X7X%.&.%.7X7X7X7X7X7X7X7X7X7X7X7X7X7X7X7X7X7X7X7X7X7X7X7X7X7X7X7X7X7X7X7X7X7X7X7X7X",
"7X7X7X7X7X7X7X7X7X7X7X7X7X7X7X7X7X7X7X7X7X7X7X7X7X7X7X7X7X7X7X7X7X7X7X7X7X7X7Xn c c c b 7X7X7X7X7X7X7X7X7X7X7X7X7X7X7X7X7X7X7X7X7X7X7X7X7X7X7X7X7X7X7X7X7X7X7X7X",
"7X7X7X7X7X7X7X7X7X7X7X7X7X7X7X7X7X7X7X7X7X7X7X7X7X7X..! X.....7X7X7X7X7X7Xn n 2       1 c n n 7X7X7X7X7X....X.....7X7X7X7X7X7X7X7X7X7X7X7X7X7X7X7X7X7X7X7X7X7X7X",
"7X7X7X7X7X7X7X7X7X7X7X7X7X7X7X7X7X7X7X7X7X7X7X7Xn ..j < 1 < f ..b 7X7X7Xo.h <           + j ..7X7X7Xb ..j < 1 < j ..n 7X7X7X7X7X7X7X7X7X7X7X7X7X7X7X7X7X7X7X7X7X",
"7X7X7X7X7X7X7X7X7X7X7X7X7X7X7X7X7X7X7X7X7X7X7X7Xc j +       @ a c c 7X7XY 1 1 k C V C k 2 < c 7X7XY c 2 @       @ f c b 7X7X7X7X7X7X7X7X7X7X7X7X7X7X7X7X7X7X7X7X",
"7X7X7X7X7X7X7X7X7X7X7X7X7X7X7X7X7X7X7X7X7X7X7Xo.f @ o < w - 7 = 2 z 7X,.e < O.4.h.g.h.S.*.< > #.7X7X2 O = 8 7 7 = + 2 ..7X7X7X7X7X7X7X7X7X7X7X7X7X7X7X7X7X7X7X7X",
"7X7X7X7X7X7X7X7X7X7X7X7X7X7X7X7X7X7X7X7X7X7X8.c @   f @.] ` h.^ 7 , @.H.B w _ J J h.K I ' 8 1 7.9.j : n -.a.` h.-.v : j &.7X7X7X7X7X7X7X7X7X7X7X7X7X7X7X7X7X7X7X",
"7X7X7X7X7X7X7X7X7X7X7X7X7X7X7X7X7X7X7X7X7X7XF.N     ~ 4.W g.g.Z C U :.H.S $ 0 m H OXH m 0 & s 9.A.0 = ;.-./ g./ -.;.3 0 F.7X7X7X7X7X7X7X7X7X7X7X7X7X7X7X7X7X7X7X",
"7X7X7X7X7X7X7X7X7X7X7X7X7X7X7X7X7X7X7X7X7X7Xb.D @   V C 4  . .4 A :.5.G.J   # q.N.#XN.q.%   d G.L.S 7 Z q G M.G q C = B b.7X7X7X7X7X7X7X7X7X7X7X7X7X7X7X7X7X7X7X",
"7X7X7X7X7X7X7X7X7X7X7X7X7X7X7X7X7X7X7X7X7X7XJ.L . . @ 4 w.+X+Xw.4 s 3.7X7X+ ^ x.v.I.b.L.( + 7X7XJ.C   . M N.@Xm.M     C J.7X7X7X7X7X7X7X7X7X7X7X7X7X7X7X7X7X7X7X",
"7X7X7X7X7X7X7X7X7X7X7X7X7X7X7X7X7X7X7X7X7X7X7XK X K D F e.C.C.v.D b 7X7X7X$ :.%X&X`.&X%X4.= 7X7X7XK   B y.B.C.B.y.y @ V 7X7X7X7X7X7X7X7X7X7X7X7X7X7X7X7X7X7X7X7X",
"7X7X7X7X7X7X7X7X7X7X7X7X7X7X7X7X7X7X7X7X7X7X7X7X$ >.].].'.^.^.~.].7X7X7X7X  z 0.1X6X1XP.z . 7X7X7X7Xt (.[.~.^.~.].5.2 7X7X7X7X7X7X7X7X7X7X7X7X7X7X7X7X7X7X7X7X7X",
"7X7X7X7X7X7X7X7X7X7X7X7X7X7X7X7X7X7X7X7X7X7X7X7XX U oX2X4X2X;X;X=X;X7X7X7X7X@ N _.<X_.K @ 7X7X7X7XO h $X1X-X=X-X:X$Xz 7X7X7X7X7X7X7X7X7X7X7X7X7X7X7X7X7X7X7X7X7X",
"7X7X7X7X7X7X7X7X7X7X7X7X7X7X7X7X7X7X7X7X7X7X7X7X7X1 s 7.>X5X6X3X6.v 7X7X7X7X..e V Q u w c 7X7X7X7X..z v 5.).(.(.*X7X7X7X7X7X7X7X7X7X7X7X7X7X7X7X7X7X7X7X7X7X7X7X",
"7X7X7X7X7X7X7X7X7X7X7X7X7X7X7X7X7X7X7X7X7X7X7X7X7X7X  = P.%X,X[.r $ 7X7X7X9.X.1     $ k X.7.7X7X7X&.2   5 W ^ d.7X7X7X7X7X7X7X7X7X7X7X7X7X7X7X7X7X7X7X7X7X7X7X7X",
"7X7X7X7X7X7X7X7X7X7X7X7X7X7X7X7X7X7X7X7X7X7X7X7X7X7X7Xt ' h.j.{ % a ..n ..Y +     $ ^ P $ x ..b ..j       O h 7X7X7X7X7X7X7X7X7X7X7X7X7X7X7X7X7X7X7X7X7X7X7X7X7X",
"7X7X7X7X7X7X7X7X7X7X7X7X7X7X7X7X7X7X7X7X7X7X7X7X7X7X7X7Xl e % #   + < + < $       . 8 =   + < + < +       : n 7X7X7X7X7X7X7X7X7X7X7X7X7X7X7X7X7X7X7X7X7X7X7X7X7X",
"7X7X7X7X7X7X7X7X7X7X7X7X7X7X7X7X7X7X7X7X7X7X7X7X7X7X7Xo.1                                                 f %.7X7X7X7X7X7X7X7X7X7X7X7X7X7X7X7X7X7X7X7X7X7X7X7X7X",
"7X7X7X7X7X7X7X7X7X7X7X7X7X7X7X7X7X7X7X7X7X7X7X7X7X7X%.j @                                                 2 ..7X7X7X7X7X7X7X7X7X7X7X7X7X7X7X7X7X7X7X7X7X7X7X7X7X",
"7X7X7X7X7X7X7X7X7X7X7X7X7X7X7X7X7X7X7X7X7X7X7X7X7X*.c                                                       > j 7X7X7X7X7X7X7X7X7X7X7X7X7X7X7X7X7X7X7X7X7X7X7X7X",
"7X7X7X7X7X7X7X7X7X7X7X7X7X7X7X7X7X7X7X7X7X7X7X7Xc j $                                                       @ h ..7X7X7X7X7X7X7X7X7X7X7X7X7X7X7X7X7X7X7X7X7X7X7X",
"7X7X7X7X7X7X7X7X7X7X7X7X7X7X7X7X7X7X7X7X7X7X7Xb j @                                                         @ j n 7X7X7X7X7X7X7X7X7X7X7X7X7X7X7X7X7X7X7X7X7X7X7X",
"7X7X7X7X7X7X7X7X7X7X7X7X7X7X7X7X7X7X7X7X7X7X7X7Xn +                       @                   @                 2 c 7X7X7X7X7X7X7X7X7X7X7X7X7X7X7X7X7X7X7X7X7X7X",
"7X7X7X7X7X7X7X7X7X7X7X7X7X7X7X7X7X7X7X7X7X7X7Xj 1 @                     2 2 X               1 2 +               2 U 7X7X7X7X7X7X7X7X7X7X7X7X7X7X7X7X7X7X7X7X7X7X",
"7X7X7X7X7X7X7X7X7X7X7X7X7X7X7X7X7X7X7X7X7X7Xh +                         : l Q r @           2 2 +               1 c 7X7X7X7X7X7X7X7X7X7X7X7X7X7X7X7X7X7X7X7X7X7X",
"7X7X7X7X7X7X7X7X7X7X7X7X7X7X7X7X7X7X7X7X7Xb +           @ 7X7X7X    @ & @ T  XT.$                 7X7X            O j c 7X7X7X7X7X7X7X7X7X7X7X7X7X7X7X7X7X7X7X7X",
"7X7X7X7X7X7X7X7X7X7X7X7X7X7X7X7X7X7X7X7Xj : @         7X7X7X7X7X    p E.T T  XT.$                 7X7X7X          @ f c 7X7X7X7X7X7X7X7X7X7X7X7X7X7X7X7X7X7X7X7X",
"7X7X7X7X7X7X7X7X7X7X7X7X7X7X7X7X7X7X7Xb 2           7X7X7X7X7X7X    T .XU.R {.U.: f L q .         7X7X7X7Xt < @   + j b 7X7X7X7X7X7X7X7X7X7X7X7X7X7X7X7X7X7X7X7X",
"7X7X7X7X7X7X7X7X7X7X7X7X7X7X7X7X7X7X7X%.z .     @ 7X7X7X7X7X7X7X  @ T {.E R }.| , *.L.u.5         7X7X7X7X7Xj +   + n %.7X7X7X7X7X7X7X7X7X7X7X7X7X7X7X7X7X7X7X7X",
"7X7X7X7X7X7X7X7X7X7X7X7X7X7X7X7X7X7X7X9.n +   < j 7X7X7X7X7X7X7XX } {.} @ E  XT.. : O.K.i.9 @   @ 7X7X7X7Xc +     $ ..9.7X7X7X7X7X7X7X7X7X7X7X7X7X7X7X7X7X7X7X7X",
"7X7X7X7X7X7X7X7X7X7X7X7X7X7X7X7X7X7X7Xc 2     + j o.7X7X7X7X7X7XR.|.}.r p E.T.p @   , +.Z.u.D Z P h.7X3.v <       + ..7X7X7X7X7X7X7X7X7X7X7X7X7X7X7X7X7X7X7X7X7X",
"7X7X7X7X7X7X7X7X7X7X7X7X7X7X7X7X7X7X7X          O z #.7X7X7X7X7XXX.X/.i Y.W.r   o     o n j.L.j.h.a.-...1         : 7X7X7X7X7X7X7X7X7X7X7X7X7X7X7X7X7X7X7X7X7X7X",
"7X7X7X7X7X7X7X7X7X7X7X7X7X7X7X7X7X7X7X7X7X          z ,.7X7X7X.X'.n.z.5.x X @ 2 f @     # U O.l $ . . @           7X7X7X7X7X7X7X7X7X7X7X7X7X7X7X7X7X7X7X7X7X7X7X",
"7X7X7X7X7X7X7X7X7X7X7X7X7X7X7X7X7X7X7X7X7X7X    $ L ] S.D.x.n.!.n.f.<.b :   1 n b e O     : 1 ;   7X7X7X7X7X7X7X7X7X7X7X7X7X7X7X7X7X7X7X7X7X7X7X7X7X7X7X7X7X7X7X",
"7X7X7X7X7X7X7X7X7X7X7X7X7X7X7X7X7X7X7X7X7X7X7X  = ' A.' >.a.s.s.k.S.x ;   + c o.X.n <           7X7X7X7X7X7X7X7X7X7X7X7X7X7X7X7X7X7X7X7X7X7X7X7X7X7X7X7X7X7X7X7X",
"7X7X7X7X7X7X7X7X7X7X7X7X7X7X7X7X7X7X7X7X7X7X7X7X7Xj c n ....X.&.8.c O     $ n X.X...3           7X7X7X7X7X7X7X7X7X7X7X7X7X7X7X7X7X7X7X7X7X7X7X7X7X7X7X7X7X7X7X7X",
"7X7X7X7X7X7X7X7X7X7X7X7X7X7X7X7X7X7X7X7X7X7X7X7X7X7X7X7X7X7X7X7Xo.2     + j ..*.&.o.h 1         7X7X7X7X7X7X7X7X7X7X7X7X7X7X7X7X7X7X7X7X7X7X7X7X7X7X7X7X7X7X7X7X",
"7X7X7X7X7X7X7X7X7X7X7X7X7X7X7X7X7X7X7X7X7X7X7X7X7X7X7X7X7X7X7X7XY 1     2 ..#.b n X.X.e         7X7X7X7X7X7X7X7X7X7X7X7X7X7X7X7X7X7X7X7X7X7X7X7X7X7X7X7X7X7X7X7X",
"7X7X7X7X7X7X7X7X7X7X7X7X7X7X7X7X7X7X7X7X7X7X7X7X7X7X7X7X7X7X7X7XX.j @   < U *.2 2 X.X.2         7X7X7X7X7X7X7X7X7X7X7X7X7X7X7X7X7X7X7X7X7X7X7X7X7X7X7X7X7X7X7X7X",
"7X7X7X7X7X7X7X7X7X7X7X7X7X7X7X7X7X7X7X7X7X7X7X7X7X7X7X7X7X7X7X7X&.j       1 U #.X...f           7X7X7X7X7X7X7X7X7X7X7X7X7X7X7X7X7X7X7X7X7X7X7X7X7X7X7X7X7X7X7X7X",
"7X7X7X7X7X7X7X7X7X7X7X7X7X7X7X7X7X7X7X7X7X7X7X7X7X7X7X7X7X7X7X7X7X..3     + b *.&...<         7X7X7X7X7X7X7X7X7X7X7X7X7X7X7X7X7X7X7X7X7X7X7X7X7X7X7X7X7X7X7X7X7X",
"7X7X7X7X7X7X7X7X7X7X7X7X7X7X7X7X7X7X7X7X7X7X7X7X7X7X7X7X7X7X7X7X7X7Xc +   + n X.X...1     @ @ 7X7X7X7X7X7X7X7X7X7X7X7X7X7X7X7X7X7X7X7X7X7X7X7X7X7X7X7X7X7X7X7X7X",
"7X7X7X7X7X7X7X7X7X7X7X7X7X7X7X7X7X7X7X7X7X7X7X7X7X7X7X7X7X7X7X7X7X7XY <   X h ..X.c <   @ f c 7X7X7X7X7X7X7X7X7X7X7X7X7X7X7X7X7X7X7X7X7X7X7X7X7X7X7X7X7X7X7X7X7X",
"7X7X7X7X7X7X7X7X7X7X7X7X7X7X7X7X7X7X7X7X7X7X7X7X7X7X7X7X7X7X7X7X7Xj 2 @     1 n n 2     O j o.7X7X7X7X7X7X7X7X7X7X7X7X7X7X7X7X7X7X7X7X7X7X7X7X7X7X7X7X7X7X7X7X7X",
"7X7X7X7X7X7X7X7X7X7X7X7X7X7X7X7X7X7X7X7X7X7X7X7X7X7X7X7X7X7X7X7XY e @         2 2 @     + U X.7X7X7X7X7X7X7X7X7X7X7X7X7X7X7X7X7X7X7X7X7X7X7X7X7X7X7X7X7X7X7X7X7X",
"7X7X7X7X7X7X7X7X7X7X7X7X7X7X7X7X7X7X7X7X7X7X7X7X7X7X7X7X7X7X7X7X%.f                     * ..X.7X7X7X7X7X7X7X7X7X7X7X7X7X7X7X7X7X7X7X7X7X7X7X7X7X7X7X7X7X7X7X7X7X",
"7X7X7X7X7X7X7X7X7X7X7X7X7X7X7X7X7X7X7X7X7X7X7X7X7X7X7X7X7X7X7X,.v +                       1 h 7X7X7X7X7X7X7X7X7X7X7X7X7X7X7X7X7X7X7X7X7X7X7X7X7X7X7X7X7X7X7X7X7X",
"7X7X7X7X7X7X7X7X7X7X7X7X7X7X7X7X7X7X7X7X7X7X7X7X7X7X7X7X7X7Xn c <                           X j 7X7X7X7X7X7X7X7X7X7X7X7X7X7X7X7X7X7X7X7X7X7X7X7X7X7X7X7X7X7X7X7X",
"7X7X7X7X7X7X7X7X7X7X7X7X7X7X7X7X7X7X7X7X7X7X7X7X7X7X7X7X7Xn f +                               + n 7X7X7X7X7X7X7X7X7X7X7X7X7X7X7X7X7X7X7X7X7X7X7X7X7X7X7X7X7X7X7X",
"7X7X7X7X7X7X7X7X7X7X7X7X7X7X7X7X7X7X7X7X7X7X7X7X7X7X7X7X7X..c @                                 < ..7X7X7X7X7X7X7X7X7X7X7X7X7X7X7X7X7X7X7X7X7X7X7X7X7X7X7X7X7X7X",
"7X7X7X7X7X7X7X7X7X7X7X7X7X7X7X7X7X7X7X7X7X7X7X7X7X7X7X7X7Xc 2                                   @ 2 c c 7X7X7X7X7X7X7X7X7X7X7X7X7X7X7X7X7X7X7X7X7X7X7X7X7X7X7X7X",
"7X7X7X7X7X7X7X7X7X7X7X7X7X7X7X7X7X7X7X7X7X7X7X7X7X7X7X7Xh 1 @           7X7X7X7X7X7X7X7X            + h 7X7X7X7X7X7X7X7X7X7X7X7X7X7X7X7X7X7X7X7X7X7X7X7X7X7X7X7X",
"7X7X7X7X7X7X7X7X7X7X7X7X7X7X7X7X7X7X7X7X7X7X7X7X7X7X7X7Xz *           7X7X7X7X7X7X7X7X7X7X          > n 7X7X7X7X7X7X7X7X7X7X7X7X7X7X7X7X7X7X7X7X7X7X7X7X7X7X7X7X",
"7X7X7X7X7X7X7X7X7X7X7X7X7X7X7X7X7X7X7X7X7X7X7X7X7X7X7X7Xh <         7X7X7X7X7X7X7X7X7X7X7X          < ..7X7X7X7X7X7X7X7X7X7X7X7X7X7X7X7X7X7X7X7X7X7X7X7X7X7X7X7X",
"7X7X7X7X7X7X7X7X7X7X7X7X7X7X7X7X7X7X7X7X7X7X7X7X7X7X7X7Xc <         7X7X7X7X7X7X7X7X7X7X7X          2 X.7X7X7X7X7X7X7X7X7X7X7X7X7X7X7X7X7X7X7X7X7X7X7X7X7X7X7X7X",
"7X7X7X7X7X7X7X7X7X7X7X7X7X7X7X7X7X7X7X7X7X7X7X7X7X7X7X7X..2         7X7X7X7X7X7X7X7X7X7X7X        1 b 7X7X7X7X7X7X7X7X7X7X7X7X7X7X7X7X7X7X7X7X7X7X7X7X7X7X7X7X7X",
"7X7X7X7X7X7X7X7X7X7X7X7X7X7X7X7X7X7X7X7X7X7X7X7X7X7X7X7X#.2         7X7X7X7X7X7X7X7X7X7X          e 7X7X7X7X7X7X7X7X7X7X7X7X7X7X7X7X7X7X7X7X7X7X7X7X7X7X7X7X7X7X",
"7X7X7X7X7X7X7X7X7X7X7X7X7X7X7X7X7X7X7X7X7X7X7X7X7X7X7X7X,.f O o ; ; a 7X7X7X7X7X7X7X7X7X  o O O ; g 7X7X7X7X7X7X7X7X7X7X7X7X7X7X7X7X7X7X7X7X7X7X7X7X7X7X7X7X7X7X",
"7X7X7X7X7X7X7X7X7X7X7X7X7X7X7X7X7X7X7X7X7X7X7X7X7X7X7X7X7X! j c U ....*.7X7X7X7X7X7X7X7XX f c c b ..O.*.7X7X7X7X7X7X7X7X7X7X7X7X7X7X7X7X7X7X7X7X7X7X7X7X7X7X7X7X",
"7X7X7X7X7X7X7X7X7X7X7X7X7X7X7X7X7X7X7X7X7X7X7X7X7X7X7X7Xj.2.[ s.l.k.l.z.S.$.7X7X7X7X7X7X^ _ >.>.j.l.x.s.4.8.$.7X7X7X7X7X7X7X7X7X7X7X7X7X7X7X7X7X7X7X7X7X7X7X7X7X",
"7X7X7X7X7X7X7X7X7X7X7X7X7X7X7X7X7X7X7X7X7X7X7X7X7X7X7X7Xh.D.J.c.t.p.c.u.) ,.7X7X7X7X7X7XF.D.D.F.l.i.i.f.~ Y :.7X7X7X7X7X7X7X7X7X7X7X7X7X7X7X7X7X7X7X7X7X7X7X7X7X",
"7X7X7X7X7X7X7X7X7X7X7X7X7X7X7X7X7X7X7X7X7X7X7X7X7X7X7X7XD.A.K.h.9 P [ 0 K A.7X7X7X7X7X7XD.D.D.J.j.N N [ y t >.7X7X7X7X7X7X7X7X7X7X7X7X7X7X7X7X7X7X7X7X7X7X7X7X7X",
"7X7X7X7X7X7X7X7X7X7X7X7X7X7X7X7X7X7X7X7X7X7X7X7X7X7X7X7X7X7X7X7X7X7X7X7X7X7X7X7X7X7X7X7X7X7X7X7X7X7X7X7X7X7X7X7X7X7X7X7X7X7X7X7X7X7X7X7X7X7X7X7X7X7X7X7X7X7X7X7X",
"7X7X7X7X7X7X7X7X7X7X7X7X7X7X7X7X7X7X7X7X7X7X7X7X7X7X7X7X7X7X7X7X7X7X7X7X7X7X7X7X7X7X7X7X7X7X7X7X7X7X7X7X7X7X7X7X7X7X7X7X7X7X7X7X7X7X7X7X7X7X7X7X7X7X7X7X7X7X7X7X",
"7X7X7X7X7X7X7X7X7X7X7X7X7X7X7X7X7X7X7X7X7X7X7X7X7X7X7X7X7X7X7X7X7X7X7X7X7X7X7X7X7X7X7X7X7X7X7X7X7X7X7X7X7X7X7X7X7X7X7X7X7X7X7X7X7X7X7X7X7X7X7X7X7X7X7X7X7X7X7X7X",
"7X7X7X7X7X7X7X7X7X7X7X7X7X7X7X7X7X7X7X7X7X7X7X7X7X7X7X7X7X7X7X7X7X7X7X7X7X7X7X7X7X7X7X7X7X7X7X7X7X7X7X7X7X7X7X7X7X7X7X7X7X7X7X7X7X7X7X7X7X7X7X7X7X7X7X7X7X7X7X7X",
"7X7X7X7X7X7X7X7X7X7X7X7X7X7X7X7X7X7X7X7X7X7X7X7X7X7X7X7X7X7X7X7X7X7X7X7X7X7X7X7X7X7X7X7X7X7X7X7X7X7X7X7X7X7X7X7X7X7X7X7X7X7X7X7X7X7X7X7X7X7X7X7X7X7X7X7X7X7X7X7X",
"7X7X7X7X7X7X7X7X7X7X7X7X7X7X7X7X7X7X7X7X7X7X7X7X7X7X7X7X7X7X7X7X7X7X7X7X7X7X7X7X7X7X7X7X7X7X7X7X7X7X7X7X7X7X7X7X7X7X7X7X7X7X7X7X7X7X7X7X7X7X7X7X7X7X7X7X7X7X7X7X",
"7X7X7X7X7X7X7X7X7X7X7X7X7X7X7X7X7X7X7X7X7X7X7X7X7X7X7X7X7X7X7X7X7X7X7X7X7X7X7X7X7X7X7X7X7X7X7X7X7X7X7X7X7X7X7X7X7X7X7X7X7X7X7X7X7X7X7X7X7X7X7X7X7X7X7X7X7X7X7X7X",
"7X7X7X7X7X7X7X7X7X7X7X7X7X7X7X7X7X7X7X7X7X7X7X7X7X7X7X7X7X7X7X7X7X7X7X7X7X7X7X7X7X7X7X7X7X7X7X7X7X7X7X7X7X7X7X7X7X7X7X7X7X7X7X7X7X7X7X7X7X7X7X7X7X7X7X7X7X7X7X7X",
"7X7X7X7X7X7X7X7X7X7X7X7X7X7X7X7X7X7X7X7X7X7X7X7X7X7X7X7X7X7X7X7X7X7X7X7X7X7X7X7X7X7X7X7X7X7X7X7X7X7X7X7X7X7X7X7X7X7X7X7X7X7X7X7X7X7X7X7X7X7X7X7X7X7X7X7X7X7X7X7X",
"7X7X7X7X7X7X7X7X7X7X7X7X7X7X7X7X7X7X7X7X7X7X7X7X7X7X7X7X7X7X7X7X7X7X7X7X7X7X7X7X7X7X7X7X7X7X7X7X7X7X7X7X7X7X7X7X7X7X7X7X7X7X7X7X7X7X7X7X7X7X7X7X7X7X7X7X7X7X7X7X",
"7X7X7X7X7X7X7X7X7X7X7X7X7X7X7X7X7X7X7X7X7X7X7X7X7X7X7X7X7X7X7X7X7X7X7X7X7X7X7X7X7X7X7X7X7X7X7X7X7X7X7X7X7X7X7X7X7X7X7X7X7X7X7X7X7X7X7X7X7X7X7X7X7X7X7X7X7X7X7X7X"
};
