/* XPM */
static char *_3637_a8ef015be48415af6d7a4e31c78587ddcded71b2cfa6259758014b87fee9edd2[] = {
/* columns rows colors chars-per-pixel */
"80 80 220 2 ",
"   c #000001",
".  c #090503",
"X  c #050804",
"o  c #0B0904",
"O  c #00040C",
"+  c #05080A",
"@  c #0C0C0B",
"#  c #150A03",
"$  c #180C08",
"%  c #14110C",
"&  c #1C140C",
"*  c #141506",
"=  c #0A0D11",
"-  c #050919",
";  c #0D1216",
":  c #061016",
">  c #131313",
",  c #14161A",
"<  c #15191C",
"1  c #1B1B1B",
"2  c #1A1812",
"3  c #280804",
"4  c #3D0600",
"5  c #25190E",
"6  c #29140B",
"7  c #341A0A",
"8  c #231C12",
"9  c #2B1F11",
"0  c #350A18",
"q  c #24240B",
"w  c #2A2A0D",
"e  c #2C2014",
"r  c #24231C",
"t  c #2B2C1B",
"y  c #382414",
"u  c #35351D",
"i  c #35210E",
"p  c #080827",
"a  c #0F1A20",
"s  c #151C23",
"d  c #171922",
"f  c #1C2326",
"g  c #232323",
"h  c #22242A",
"j  c #25292D",
"k  c #2C2C2C",
"l  c #2D2621",
"z  c #2F302F",
"x  c #33312C",
"c  c #2A2E33",
"v  c #262834",
"b  c #2E3336",
"n  c #343434",
"m  c #3C3C3C",
"M  c #34383A",
"N  c #460700",
"B  c #7A0706",
"V  c #432915",
"C  c #4E3011",
"Z  c #583719",
"A  c #41240B",
"S  c #6D2C0F",
"D  c #7D3B19",
"F  c #633A1C",
"G  c #4F1F2B",
"H  c #591C34",
"J  c #493420",
"K  c #41372C",
"L  c #573A23",
"P  c #423A36",
"I  c #41411E",
"U  c #4C4D1B",
"Y  c #55551F",
"T  c #7E441E",
"R  c #54601E",
"E  c #62621D",
"W  c #49462A",
"Q  c #58482E",
"!  c #5F5F22",
"~  c #45413C",
"^  c #4E4334",
"/  c #574738",
"(  c #684829",
")  c #754D2F",
"_  c #745A2D",
"`  c #704E35",
"'  c #734F3A",
"]  c #665538",
"[  c #745433",
"{  c #7C5A34",
"}  c #7C5C3C",
"|  c #75573B",
" . c #6A532F",
".. c #636339",
"X. c #72723E",
"o. c #363848",
"O. c #36434A",
"+. c #444443",
"@. c #454649",
"#. c #4B4B4B",
"$. c #4B4844",
"%. c #544A41",
"&. c #594C41",
"*. c #595249",
"=. c #4B5257",
"-. c #535352",
";. c #5A5A5A",
":. c #545759",
">. c #484E54",
",. c #655545",
"<. c #6C5B4A",
"1. c #6C5845",
"2. c #765D43",
"3. c #715F4C",
"4. c #655D52",
"5. c #6F6F4B",
"6. c #76634E",
"7. c #7F7F4D",
"8. c #6D6151",
"9. c #7B6757",
"0. c #566065",
"q. c #676868",
"w. c #797979",
"e. c #7C6B61",
"r. c #8B070E",
"t. c #A1090D",
"y. c #893D12",
"u. c #BE391F",
"i. c #960623",
"p. c #A60C37",
"a. c #B9441B",
"s. c #8C4B22",
"d. c #824721",
"f. c #94592A",
"g. c #835736",
"h. c #965B36",
"j. c #8E5829",
"k. c #A75C2B",
"l. c #88613D",
"z. c #94693E",
"x. c #9D6A3D",
"c. c #98643A",
"v. c #957739",
"b. c #8F7235",
"n. c #AA612F",
"m. c #BA642F",
"M. c #AD6433",
"N. c #AD653A",
"B. c #AD693C",
"V. c #A66238",
"C. c #B66531",
"Z. c #AD783C",
"A. c #BC7236",
"S. c #C24220",
"D. c #D14221",
"F. c #CE4031",
"G. c #DC4535",
"H. c #CD7334",
"J. c #883C59",
"K. c #DE3D51",
"L. c #DD3C4B",
"P. c #E3375B",
"I. c #CF0E77",
"U. c #C60F6C",
"Y. c #D9317F",
"T. c #D2386D",
"R. c #8E5D40",
"E. c #8C4B56",
"W. c #8D6B44",
"Q. c #8B6848",
"!. c #936A41",
"~. c #996D42",
"^. c #966442",
"/. c #9B7445",
"(. c #826751",
"). c #8B765D",
"_. c #A26E40",
"`. c #A17341",
"'. c #904461",
"]. c #8B7C6A",
"[. c #917D69",
"{. c #86862E",
"}. c #A0A033",
"|. c #B2B238",
" X c #888856",
".X c #8F8F4D",
"XX c #A88447",
"oX c #B38B49",
"OX c #A1815F",
"+X c #B88E5D",
"@X c #B5B548",
"#X c #AEAE53",
"$X c #9A856D",
"%X c #9E8970",
"&X c #BC946B",
"*X c #AB9375",
"=X c #B6906B",
"-X c #C89D76",
";X c #CBA47E",
":X c #DFDF56",
">X c #DBCE4C",
",X c #FBDE4E",
"<X c #E7E656",
"1X c #F7E855",
"2X c #F2F35B",
"3X c #FEFE5C",
"4X c #F9F954",
"5X c #EFF065",
"6X c #FEFE65",
"7X c #CA16B4",
"8X c #D613AF",
"9X c #8A8F81",
"0X c #B1AFA9",
"qX c #B4B2AB",
"wX c #B9B6B4",
"eX c #BBB9B8",
"rX c #ACAAA8",
"tX c #D9D987",
"yX c #C3C1BD",
"uX c None",
/* pixels */
"uXuXuXuXuXuXuXuXuXuXuXuXuXuXuXuXuXuXuXuXuXuXuXuXuXuXuXuXuXuXuXuXuXuXuXuXuXuXuXuXuXuXuXuXuXuXuXuXuXuXuXuXuXuXuXuXuXuXuXuXuXuXuXuXuXuXuXuXuXuXuXuXuXuXuXuXuXuXuXuX",
"uXuXuXuXuXuXuXuXuXuXuXuXuXuXuXuXuXuXuXuXuXuXuXuXuXuXuXuXuXuXuXuXuXuXuXuXuXuXuXuXuXuXuXuXuXuXuXuXuXuXuXuXuXuXuXuXuXuXuXuXuXuXuXuXuXuXuXuXuXuXuXuXuXuXuXuXuXuXuXuX",
"uXuXuXuXuXuXuXuXuXuXuXuXuXuXuXuXuXuXuXuXuXuXuXuXuXuXuXuXuXuXuXuXuXuXuXuXuXuXuXuXuXuXuXuXuXuXuXuXuXuXuXuXuXuXuXuXuXuXuXuXuXuXuXuXuXuXuXuXuXuXuXuXuXuXuXuXuXuXuXuX",
"uXuXuXuXuXuXuXuXuXuXuXuXuXuXuXuXuXuXuXuXuXuXuXuXuXuXuXuXuXuXuXuXuXuXuXuXuXuXuXuXuXuXuXuXuXuXuXuXuXuXuXuXuXuXuXuXuXuXuXuXuXuXuXuXuXuXuXuXuXuXuXuXuXuXuXuXuXuXuXuX",
"uXuXuXuXuXuXuXuXuXuXuXuXuXuXuXuXuXuXuXuXuXuXuXuXuXuXuXuXuXuXuXuXuXuXuXuXuXuXuXuXuXuXuXuXuXuXuXuXuXuXuXuXuXuXuXuXuXuXuXuXuXuXuXuXuXuXuXuXuXuXuXuXuXuXuXuXuXuXuXuX",
"uXuXuXuXuXuXuXuXuXuXuXuXuXuXuXuXuXuXuXuXuXuXuXuXuXuXuXuXuXuXuXuXuXuXuXuXuXuXuX+.-.-.+.uXuXuXuXuXuXuXuXuXuXuXuXuXuXuXuXuXuXuXuXuXuXuXuXuXuXuXuXuXuXuXuXuXuXuXuXuX",
"uXuXuXuXuXuXuXuXuXuXuXuXuXuXuXuXuXuXuXuXuXuXuXuXuXuXuXuXuXuXuXuXuXuXuXuXuXuXuX+.+.#.+.+.uXuXuXuXuXuXuXuXuXuXuXuXuXuXuXuXuXuXuXuXuXuXuXuXuXuXuXuXuXuXuXuXuXuXuXuX",
"uXuXuXuXuXuXuXuXuXuXuXuXuXuXuXuXuXuXuXuXuXuXuXuXuXuXuXuXuXuXuXuXuXuXuXuXuXP +.g , 1 1 n #.n uXuXuXuXuXuXuXuXuXuXuXuXuXuXuXuXuXuXuXuXuXuXuXuXuXuXuXuXuXuXuXuXuXuX",
"uXuXuXuXuXuXuXuXuXuXuXuXuXuXuXuXuXuXuXuXuXuXuXuXuXuXuXuXuXuXuXuXuXuXuXuXM x 8         ; k n uXuXuXuXuXuXuXuXuXuXuXuXuXuXuXuXuXuXuXuXuXuXuXuXuXuXuXuXuXuXuXuXuXuX",
"uXuXuXuXuXuXuXuXuXuXuXuXuXuXuXuXuXuXuXuXuXuXuXuXuXuXo.+.#.+.+.uXuXuXuXuXn , + % & & & @ @ k uXuXuXuXuXuXm @.#.~ uXuXuXuXuXuXuXuXuXuXuXuXuXuXuXuXuXuXuXuXuXuXuXuX",
"uXuXuXuXuXuXuXuXuXuXuXuXuXuXuXuXuXuXuXuXuXuXuXx ~ +.g > , > k +.M uXuX=.d > +.1.[ ` [ %.j ; n uXuXk m ~ 1 > , > n +.n uXuXuXuXuXuXuXuXuXuXuXuXuXuXuXuXuXuXuXuXuX",
"uXuXuXuXuXuXuXuXuXuXuXuXuXuXuXuXuXuXuXuXuXuXuXM k 1         @ g M uXuX' $ 8 ).] _ v. .3.,.  h ;.uXn k ,         > k n uXuXuXuXuXuXuXuXuXuXuXuXuXuXuXuXuXuXuXuXuX",
"uXuXuXuXuXuXuXuXuXuXuXuXuXuXuXuXuXuXuXuXuXuXuXn , @ 5 5 5 8 % = g uXuXk.7 2 ( 6 G E.3 y ( @ M q.uXx > + 8 8 & 8 ; @ k uXuXuXuXuXuXuXuXuXuXuXuXuXuXuXuXuXuXuXuXuX",
"uXuXuXuXuXuXuXuXuXuXuXuXuXuXuXuXuXuXuXuXuXuXm , , $.2.{ { { ,.b + g 8.c.i   3 B U.7Xi.4 o @ o.q.-., , -.| { { } ,.c @ +.;.uXuXuXuXuXuXuXuXuXuXuXuXuXuXuXuXuXuXuX",
"uXuXuXuXuXuXuXuXuXuXuXuXuXuXuXuXuXuXuXuXuXuX` $ t 9.]  .b.Q <.1.o s 9.Q.^ l S u.P.Y.G.D 2 X M e.g.# t ).Q _ v.J 6.,.  L R.uXuXuXuXuXuXuXuXuXuXuXuXuXuXuXuXuXuXuX",
"uXuXuXuXuXuXuXuXuXuXuXuXuXuXuXuXuXuXuXuXuXuXk.7 8 F 3 G J.0 i Z % c e.uX4.6.H.H.Z.Z.j.c.[ X uXuXk.6 8 ( 3 H '.3 V L   d.C.uXuXuXuXuXuXuXuXuXuXuXuXuXuXuXuXuXuXuX",
"uXuXuXuXuXuXuXuXuXuXuXuXuXuXuXuXuXuXuXuXuXuXz.9   3 B U.8Xp.N X @ M q.uX@.<.V.`.*X9Xt Z } o uXuXh.5   3 r.I.7Xt.4 X . ` x.uXuXuXuXuXuXuXuXuXuXuXuXuXuXuXuXuXuXuX",
"uXuXuXuXuXuXuXuXuXuXuXuXuXuXuXuXuXuXuXuXuXuXuXe o Z a.L.T.F.y.e X n uXuX#.-.8.W.OX].^ / %.uXuXuXuX& o F a.K.T.D.D 8 . ] uXuXuXuXuXuXuXuXuXuXuXuXuXuXuXuXuXuXuXuX",
"uXuXuXuXuXuXuXuXuXuXuXuXuXuXuXuXuXuXuXuXuXuXuX& x =X-XoXoX+X-XQ.@ uXuXuX;.:.-.3.{ { ~.*.s uXuXuXuXo K ;X&XoXoX+X&X<.  uXuXuXuXuXuXuXuXuXuXuXuXuXuXuXuXuXuXuXuXuX",
"uXuXuXuXuXuXuXuXuXuXuXuXuXuXuXuXuXuXuXuXuXuXuX  ~ rXyX0XqXqXwXw., uXuXuXuXuX@.+.n k o.g X uXuXuXuX@ #.wXwXqX0XqXeXw.  uXuXuXuXuXuXuXuXuXuXuXuXuXuXuXuXuXuXuXuXuX",
"uXuXuXuXuXuXuXuXuXuXuXuXuXuXuXuXuXuXuXuXuXuXuXuX, $.].*X*X%X4.c g uXuXuXuXuX#.s O   ; j m uXuXuXuXn b @.[.*X$X%X0XuXuXuXuXuXuXuXuXuXuXuXuXuXuXuXuXuXuXuXuXuXuXuX",
"uXuXuXuXuXuXuXuXuXuXuXuXuXuXuXuXuXuXuXuXuXuXuXuXuX  7 Z Z C #   1 #.uXuXuX#.x @ u ..% g -.uXuXuXuXo.@   A ( ( f.uXuXuXuXuXuXuXuXuXuXuXuXuXuXuXuXuXuXuXuXuXuXuXuX",
"uXuXuXuXuXuXuXuXuXuXuXuXuXuXuXuXuXuXuXuXuXuXuXuXuXuXO           . j m n m g   @  XtXt   @ m m n m @       ; ~ uXuXuXuXuXuXuXuXuXuXuXuXuXuXuXuXuXuXuXuXuXuXuXuXuX",
"uXuXuXuXuXuXuXuXuXuXuXuXuXuXuXuXuXuXuXuXuXuXuXuXuXuXuXc <         X > @ @ X   X t W o     @ @ @ %         1 #.uXuXuXuXuXuXuXuXuXuXuXuXuXuXuXuXuXuXuXuXuXuXuXuXuX",
"uXuXuXuXuXuXuXuXuXuXuXuXuXuXuXuXuXuXuXuXuXuXuXuXuXuXuX+.1                                               X n ;.uXuXuXuXuXuXuXuXuXuXuXuXuXuXuXuXuXuXuXuXuXuXuXuXuX",
"uXuXuXuXuXuXuXuXuXuXuXuXuXuXuXuXuXuXuXuXuXuXuXuXuXuXM 1                           . & @                 . k #.uXuXuXuXuXuXuXuXuXuXuXuXuXuXuXuXuXuXuXuXuXuXuXuXuX",
"uXuXuXuXuXuXuXuXuXuXuXuXuXuXuXuXuXuXuXuXuXuXuXuXuXk %                             8 | C                   + > k uXuXuXuXuXuXuXuXuXuXuXuXuXuXuXuXuXuXuXuXuXuXuXuX",
"uXuXuXuXuXuXuXuXuXuXuXuXuXuXuXuXuXuXuXuXuXuXuXuXm >                               % J e                     X m uXuXuXuXuXuXuXuXuXuXuXuXuXuXuXuXuXuXuXuXuXuXuXuX",
"uXuXuXuXuXuXuXuXuXuXuXuXuXuXuXuXuXuXuXuXuXuXuXn 1                                                           @ n M uXuXuXuXuXuXuXuXuXuXuXuXuXuXuXuXuXuXuXuXuXuXuX",
"uXuXuXuXuXuXuXuXuXuXuXuXuXuXuXuXuXuXuXuXuXuXk >                       X                   X                   @ g M uXuXuXuXuXuXuXuXuXuXuXuXuXuXuXuXuXuXuXuXuXuX",
"uXuXuXuXuXuXuXuXuXuXuXuXuXuXuXuXuXuXuXuXuXuXm >             , 1 X   @ g @               @ g @                 . l @.uXuXuXuXuXuXuXuXuXuXuXuXuXuXuXuXuXuXuXuXuXuX",
"uXuXuXuXuXuXuXuXuXuXuXuXuXuXuXuXuXuXuXuXuXn k >             r k @   @ g >               @ g >                   g n uXuXuXuXuXuXuXuXuXuXuXuXuXuXuXuXuXuXuXuXuXuX",
"uXuXuXuXuXuXuXuXuXuXuXuXuXuXuXuXuXuXuXuXn g           uXuXuX8 j @                                 uXuX            @ n uXuXuXuXuXuXuXuXuXuXuXuXuXuXuXuXuXuXuXuXuX",
"uXuXuXuXuXuXuXuXuXuXuXuXuXuXuXuXuXuXuXuXn g X       uXuXuXuX#.k +                                 uXuXuX          @ n uXuXuXuXuXuXuXuXuXuXuXuXuXuXuXuXuXuXuXuXuX",
"uXuXuXuXuXuXuXuXuXuXuXuXuXuXuXuXuXuXuXuXn g X       uXuXuXuX;.m .                                 uXuXuXuX        @ n uXuXuXuXuXuXuXuXuXuXuXuXuXuXuXuXuXuXuXuXuX",
"uXuXuXuXuXuXuXuXuXuXuXuXuXuXuXuXuXuXuXuXn g X       uXuXuXuXuX+.;                                 uXuXuXuXuX      @ n uXuXuXuXuXuXuXuXuXuXuXuXuXuXuXuXuXuXuXuXuX",
"uXuXuXuXuXuXuXuXuXuXuXuXuXuXuXuXuXuXuXuXn g .     uXuXuXuXuXuXuXj +                               uXuXuXuXuXuX    > +.uXuXuXuXuXuXuXuXuXuXuXuXuXuXuXuXuXuXuXuXuX",
"uXuXuXuXuXuXuXuXuXuXuXuXuXuXuXuXuXuXuXuXm k +     uXuXuXuXuXuXuXx %                               uXuXuXuXuXuX    , -.uXuXuXuXuXuXuXuXuXuXuXuXuXuXuXuXuXuXuXuXuX",
"uXuXuXuXuXuXuXuXuXuXuXuXuXuXuXuXuXuXuXuX#.z @     uXuXuXuXuXuXuXk ;           X X                 uXuXuXuXuXuX    1 ;.uXuXuXuXuXuXuXuXuXuXuXuXuXuXuXuXuXuXuXuXuX",
"uXuXuXuXuXuXuXuXuXuXuXuXuXuXuXuXuXuXuXuX#.k X     uXuXuXuXuXuXuXk ;         @ g 1               uXuXuXuXuXuXuX    1 ;.uXuXuXuXuXuXuXuXuXuXuXuXuXuXuXuXuXuXuXuXuX",
"uXuXuXuXuXuXuXuXuXuXuXuXuXuXuXuXuXuXuXuX;.m X     uXuXuXuXuXuXuXk ;       @ g m n ,             uXuXuXuXuXuX    > n uXuXuXuXuXuXuXuXuXuXuXuXuXuXuXuXuXuXuXuXuXuX",
"uXuXuXuXuXuXuXuXuXuXuXuXuXuXuXuXuXuXuXuXuX+.>     uXuXuXuXuXuXuXk %       > m #.+.g .           uXuXuXuXuX    . g $.uXuXuXuXuXuXuXuXuXuXuXuXuXuXuXuXuXuXuXuXuXuX",
"uXuXuXuXuXuXuXuXuXuXuXuXuXuXuXuXuXuXuXuXuXuXk @     uXuXuXuXuXuXk >       > n @.P g X           uXuXuXuXuX    X k -.uXuXuXuXuXuXuXuXuXuXuXuXuXuXuXuXuXuXuXuXuXuX",
"uXuXuXuXuXuXuXuXuXuXuXuXuXuXuXuXuXuXuXuXuXuXm =     uXuXuXuXuXuXm ,   . 1 z $.;.:.M g @         uXuXuXuXuXuX  X n ;.uXuXuXuXuXuXuXuXuXuXuXuXuXuXuXuXuXuXuXuXuXuX",
"uXuXuXuXuXuXuXuXuXuXuXuXuXuXuXuXuXuXuXuXuXuX+.g   . uXuXuXuXuXuX~ 1   o h $.+.n m #.n %         uXuXuXuXuX    > +.uXuXuXuXuXuXuXuXuXuXuXuXuXuXuXuXuXuXuXuXuXuXuX",
"uXuXuXuXuXuXuXuXuXuXuXuXuXuXuXuXuXuXuXuXuXuXuXm > @ uXuXuXuXuXuXo.,   + g +.m = 1 @.n ;         uXuXuXuX@ X @ n uXuXuXuXuXuXuXuXuXuXuXuXuXuXuXuXuXuXuXuXuXuXuXuX",
"uXuXuXuXuXuXuXuXuXuXuXuXuXuXuXuXuXuXuXuXuXuXuX@.d . ( uXuXuXuXuXo.1   + h @.@.o.o.$.M >         uXuXuXuX[ / o.uXuXuXuXuXuXuXuXuXuXuXuXuXuXuXuXuXuXuXuXuXuXuXuXuX",
"uXuXuXuXuXuXuXuXuXuXuXuXuXuXuXuXuXuXuXuXuXuXuXuXc 8 [ ^.uXuXuXuXuXW .   O - +.#X.Xc , @       uXuXuXuX~./.(.8.uXuXuXuXuXuXuXuXuXuXuXuXuXuXuXuXuXuXuXuXuXuXuXuXuX",
"uXuXuXuXuXuXuXuXuXuXuXuXuXuXuXuXuXuXuXuXuXuXuXuXuXP } ^.XXuXuXuXuX X-   * u X.:X#Xp       . uXuXuXuXuX!.!.z.x.uXuXuXuXuXuXuXuXuXuXuXuXuXuXuXuXuXuXuXuXuXuXuXuXuX",
"uXuXuXuXuXuXuXuXuXuXuXuXuXuXuXuXuXuXuXuXuXuXuXuXuX%.Q.c.`.<X3X3X2X Xp X }.6X<X).h d     @ j uXuXuXuXuXM.W.V.m.uXuXuXuXuXuXuXuXuXuXuXuXuXuXuXuXuXuXuXuXuXuXuXuXuX",
"uXuXuXuXuXuXuXuXuXuXuXuXuXuXuXuXuXuXuXuXuXuXuXuXuX+.^ ` oX2X6X3X3X5X@X{.R Y u j 8.@Xq   % M uXuXuXuXuXC.V.M.uXuXuXuXuXuXuXuXuXuXuXuXuXuXuXuXuXuXuXuXuXuXuXuXuXuX",
"uXuXuXuXuXuXuXuXuXuXuXuXuXuXuXuXuXuXuXuXuXuXuXuXuXuXc P /.>X1X,X,X>X<X2X{.w I ..@X|.q   , #.uXuXuXuXuXuXm.uXuXuXuXuXuXuXuXuXuXuXuXuXuXuXuXuXuXuXuXuXuXuXuXuXuXuX",
"uXuXuXuXuXuXuXuXuXuXuXuXuXuXuXuXuXuXuXuXuXuXuXuXuXuXuXc *.W.A.H.C.V R 2X6X4X4X<X{.* .   1 :.uXuXuXuXuXuXuXuXuXuXuXuXuXuXuXuXuXuXuXuXuXuXuXuXuXuXuXuXuXuXuXuXuXuX",
"uXuXuXuXuXuXuXuXuXuXuXuXuXuXuXuXuXuXuXuXuXuXuXuXuXuXuXuXuXuXg.J 7   * U E Y ! ! w       + g n uXuXuXuXuXuXuXuXuXuXuXuXuXuXuXuXuXuXuXuXuXuXuXuXuXuXuXuXuXuXuXuXuX",
"uXuXuXuXuXuXuXuXuXuXuXuXuXuXuXuXuXuXuXuXuXuXuXuXuXuXuXuXuXuX&.s       . o X X .           X > , uXuXuXuXuXuXuXuXuXuXuXuXuXuXuXuXuXuXuXuXuXuXuXuXuXuXuXuXuXuXuXuX",
"uXuXuXuXuXuXuXuXuXuXuXuXuXuXuXuXuXuXuXuXuXuXuXuXuXuXuXuXuXuX@.b +                             . X g +.uXuXuXuXuXuXuXuXuXuXuXuXuXuXuXuXuXuXuXuXuXuXuXuXuXuXuXuXuX",
"uXuXuXuXuXuXuXuXuXuXuXuXuXuXuXuXuXuXuXuXuXuXuXuXuXuXuXuXuXuXuX#.%                                 % k -.uXuXuXuXuXuXuXuXuXuXuXuXuXuXuXuXuXuXuXuXuXuXuXuXuXuXuXuX",
"uXuXuXuXuXuXuXuXuXuXuXuXuXuXuXuXuXuXuXuXuXuXuXuXuXuXuXuXuXuXn j +                                   @ k uXuXuXuXuXuXuXuXuXuXuXuXuXuXuXuXuXuXuXuXuXuXuXuXuXuXuXuX",
"uXuXuXuXuXuXuXuXuXuXuXuXuXuXuXuXuXuXuXuXuXuXuXuXuXuXuXuXuXz 2 X           uXuXuXuXuXuXuXuX            @ j uXuXuXuXuXuXuXuXuXuXuXuXuXuXuXuXuXuXuXuXuXuXuXuXuXuXuX",
"uXuXuXuXuXuXuXuXuXuXuXuXuXuXuXuXuXuXuXuXuXuXuXuXuXuXuXuXuXz >           uXuXuXuXuXuXuXuXuXuX          @ M uXuXuXuXuXuXuXuXuXuXuXuXuXuXuXuXuXuXuXuXuXuXuXuXuXuXuX",
"uXuXuXuXuXuXuXuXuXuXuXuXuXuXuXuXuXuXuXuXuXuXuXuXuXuXuXuXuXk ,         uXuXuXuXuXuXuXuXuXuXuX          @ +.;.uXuXuXuXuXuXuXuXuXuXuXuXuXuXuXuXuXuXuXuXuXuXuXuXuXuX",
"uXuXuXuXuXuXuXuXuXuXuXuXuXuXuXuXuXuXuXuXuXuXuXuXuXuXuXuXuXn ,         uXuXuXuXuXuXuXuXuXuXuX          > -.uXuXuXuXuXuXuXuXuXuXuXuXuXuXuXuXuXuXuXuXuXuXuXuXuXuXuX",
"uXuXuXuXuXuXuXuXuXuXuXuXuXuXuXuXuXuXuXuXuXuXuXuXuXuXuXuXuX~ 1         uXuXuXuXuXuXuXuXuXuXuX        > n uXuXuXuXuXuXuXuXuXuXuXuXuXuXuXuXuXuXuXuXuXuXuXuXuXuXuXuX",
"uXuXuXuXuXuXuXuXuXuXuXuXuXuXuXuXuXuXuXuXuXuXuXuXuXuXuXuXuX>.f         @ uXuXuXuXuXuXuXuXuX          2 uXuXuXuXuXuXuXuXuXuXuXuXuXuXuXuXuXuXuXuXuXuXuXuXuXuXuXuXuX",
"uXuXuXuXuXuXuXuXuXuXuXuXuXuXuXuXuXuXuXuXuXuXuXuXuXuXuXuXuXuXk O O : : a O.uXuXuXuXuXuXuXuX  O = + : f uXuXuXuXuXuXuXuXuXuXuXuXuXuXuXuXuXuXuXuXuXuXuXuXuXuXuXuXuX",
"uXuXuXuXuXuXuXuXuXuXuXuXuXuXuXuXuXuXuXuXuXuXuXuXuXuXuXuXuXuX/ g k P +.$.-.;.uXuXuXuXuXuXuXo 1 n x o.+.%.;.uXuXuXuXuXuXuXuXuXuXuXuXuXuXuXuXuXuXuXuXuXuXuXuXuXuXuX",
"uXuXuXuXuXuXuXuXuXuXuXuXuXuXuXuXuXuXuXuXuXuXuXuXuXuXuXuXuXz.l.| h.N._.V.B.Q.=.uXuXuXuXuXuX .' 2.} h.N.N.V.9.0.:.uXuXuXuXuXuXuXuXuXuXuXuXuXuXuXuXuXuXuXuXuXuXuXuX",
"uXuXuXuXuXuXuXuXuXuXuXuXuXuXuXuXuXuXuXuXuXuXuXuXuXuXuXuXuX!.!._.M.s.s.M.s.) 4.uXuXuXuXuXuX~.~.!.~.B.f.T k.` M 4.uXuXuXuXuXuXuXuXuXuXuXuXuXuXuXuXuXuXuXuXuXuXuXuX",
"uXuXuXuXuXuXuXuXuXuXuXuXuXuXuXuXuXuXuXuXuXuXuXuXuXuXuXuXuX!.!.~.l.y y g.V e !.uXuXuXuXuXuX~.~.!.~.~.Z & g.L > l.uXuXuXuXuXuXuXuXuXuXuXuXuXuXuXuXuXuXuXuXuXuXuXuX",
"uXuXuXuXuXuXuXuXuXuXuXuXuXuXuXuXuXuXuXuXuXuXuXuXuXuXuXuXuXuXuXuXuXuXuXuXuXuXuXuXuXuXuXuXuXuXuXuXuXuXuXuXuXuXuXuXuXuXuXuXuXuXuXuXuXuXuXuXuXuXuXuXuXuXuXuXuXuXuXuX",
"uXuXuXuXuXuXuXuXuXuXuXuXuXuXuXuXuXuXuXuXuXuXuXuXuXuXuXuXuXuXuXuXuXuXuXuXuXuXuXuXuXuXuXuXuXuXuXuXuXuXuXuXuXuXuXuXuXuXuXuXuXuXuXuXuXuXuXuXuXuXuXuXuXuXuXuXuXuXuXuX",
"uXuXuXuXuXuXuXuXuXuXuXuXuXuXuXuXuXuXuXuXuXuXuXuXuXuXuXuXuXuXuXuXuXuXuXuXuXuXuXuXuXuXuXuXuXuXuXuXuXuXuXuXuXuXuXuXuXuXuXuXuXuXuXuXuXuXuXuXuXuXuXuXuXuXuXuXuXuXuXuX",
"uXuXuXuXuXuXuXuXuXuXuXuXuXuXuXuXuXuXuXuXuXuXuXuXuXuXuXuXuXuXuXuXuXuXuXuXuXuXuXuXuXuXuXuXuXuXuXuXuXuXuXuXuXuXuXuXuXuXuXuXuXuXuXuXuXuXuXuXuXuXuXuXuXuXuXuXuXuXuXuX",
"uXuXuXuXuXuXuXuXuXuXuXuXuXuXuXuXuXuXuXuXuXuXuXuXuXuXuXuXuXuXuXuXuXuXuXuXuXuXuXuXuXuXuXuXuXuXuXuXuXuXuXuXuXuXuXuXuXuXuXuXuXuXuXuXuXuXuXuXuXuXuXuXuXuXuXuXuXuXuXuX",
"uXuXuXuXuXuXuXuXuXuXuXuXuXuXuXuXuXuXuXuXuXuXuXuXuXuXuXuXuXuXuXuXuXuXuXuXuXuXuXuXuXuXuXuXuXuXuXuXuXuXuXuXuXuXuXuXuXuXuXuXuXuXuXuXuXuXuXuXuXuXuXuXuXuXuXuXuXuXuXuX",
"uXuXuXuXuXuXuXuXuXuXuXuXuXuXuXuXuXuXuXuXuXuXuXuXuXuXuXuXuXuXuXuXuXuXuXuXuXuXuXuXuXuXuXuXuXuXuXuXuXuXuXuXuXuXuXuXuXuXuXuXuXuXuXuXuXuXuXuXuXuXuXuXuXuXuXuXuXuXuXuX",
"uXuXuXuXuXuXuXuXuXuXuXuXuXuXuXuXuXuXuXuXuXuXuXuXuXuXuXuXuXuXuXuXuXuXuXuXuXuXuXuXuXuXuXuXuXuXuXuXuXuXuXuXuXuXuXuXuXuXuXuXuXuXuXuXuXuXuXuXuXuXuXuXuXuXuXuXuXuXuXuX",
"uXuXuXuXuXuXuXuXuXuXuXuXuXuXuXuXuXuXuXuXuXuXuXuXuXuXuXuXuXuXuXuXuXuXuXuXuXuXuXuXuXuXuXuXuXuXuXuXuXuXuXuXuXuXuXuXuXuXuXuXuXuXuXuXuXuXuXuXuXuXuXuXuXuXuXuXuXuXuXuX",
"uXuXuXuXuXuXuXuXuXuXuXuXuXuXuXuXuXuXuXuXuXuXuXuXuXuXuXuXuXuXuXuXuXuXuXuXuXuXuXuXuXuXuXuXuXuXuXuXuXuXuXuXuXuXuXuXuXuXuXuXuXuXuXuXuXuXuXuXuXuXuXuXuXuXuXuXuXuXuXuX",
"uXuXuXuXuXuXuXuXuXuXuXuXuXuXuXuXuXuXuXuXuXuXuXuXuXuXuXuXuXuXuXuXuXuXuXuXuXuXuXuXuXuXuXuXuXuXuXuXuXuXuXuXuXuXuXuXuXuXuXuXuXuXuXuXuXuXuXuXuXuXuXuXuXuXuXuXuXuXuXuX"
};
