/* XPM */
static char *_9566_d9d3fed5373a4529b5154660d09ea344961a445eb99ee61bfe9bca7109b8183f[] = {
/* columns rows colors chars-per-pixel */
"80 80 190 2 ",
"   c #000000",
".  c #0A0502",
"X  c #0D0905",
"o  c #010409",
"O  c #060A0A",
"+  c #0C0C0C",
"@  c #020906",
"#  c #130A04",
"$  c #15110C",
"%  c #1D140A",
"&  c #19170B",
"*  c #0B0E12",
"=  c #0C141A",
"-  c #131313",
";  c #1D1814",
":  c #111519",
">  c #14191D",
",  c #1C1C1C",
"<  c #191716",
"1  c #3B0000",
"2  c #3C1C0D",
"3  c #38170C",
"4  c #261E15",
"5  c #261A0E",
"6  c #2E2115",
"7  c #29241B",
"8  c #352616",
"9  c #362A1A",
"0  c #121C24",
"q  c #1C2024",
"w  c #1D252A",
"e  c #242423",
"r  c #232629",
"t  c #2C2C2C",
"y  c #26292B",
"u  c #372E23",
"i  c #3B3229",
"p  c #36322D",
"a  c #2A2D32",
"s  c #2B3338",
"d  c #333434",
"f  c #33383C",
"g  c #3B3B3B",
"h  c #460602",
"j  c #5C0000",
"k  c #560806",
"l  c #461A0C",
"z  c #760015",
"x  c #681C09",
"c  c #472C16",
"v  c #4C341D",
"b  c #44371D",
"n  c #433524",
"m  c #4C3926",
"M  c #533A23",
"N  c #443A33",
"B  c #5A452A",
"V  c #4E423A",
"C  c #53473D",
"Z  c #6B4A2B",
"A  c #624429",
"S  c #754523",
"D  c #7A532D",
"F  c #674E32",
"G  c #694C33",
"H  c #65523D",
"J  c #6E573E",
"K  c #76593A",
"L  c #795737",
"P  c #6B562B",
"I  c #7F603F",
"U  c #3B3D41",
"Y  c #353E43",
"T  c #7E1147",
"R  c #394146",
"E  c #434343",
"W  c #4A4845",
"Q  c #414649",
"!  c #4B4B4B",
"~  c #4B4946",
"^  c #5F5343",
"/  c #484D52",
"(  c #4A5156",
")  c #4E565B",
"_  c #555555",
"`  c #5B5753",
"'  c #54565A",
"]  c #5B5B5B",
"[  c #5D5A57",
"{  c #675649",
"}  c #745B49",
"|  c #705F53",
" . c #645A56",
".. c #7E6345",
"X. c #7C6449",
"o. c #72614D",
"O. c #6B635A",
"+. c #716254",
"@. c #7A6B5D",
"#. c #796758",
"$. c #5B5E61",
"%. c #5E6267",
"&. c #636465",
"*. c #941807",
"=. c #972109",
"-. c #B82409",
";. c #C22508",
":. c #D41C23",
">. c #D72525",
",. c #80582F",
"<. c #9C5224",
"1. c #8B5D3D",
"2. c #855837",
"3. c #915E3E",
"4. c #915638",
"5. c #AE4D2A",
"6. c #A2562A",
"7. c #B65C2B",
"8. c #B2562D",
"9. c #AC5F30",
"0. c #BE5C3D",
"q. c #876C33",
"w. c #81603C",
"e. c #89623A",
"r. c #9D643B",
"t. c #956A3E",
"y. c #966738",
"u. c #AA6F2F",
"i. c #B3612D",
"p. c #BB642C",
"a. c #A86739",
"s. c #B56330",
"d. c #B96530",
"f. c #B56934",
"g. c #BB6A32",
"h. c #B36E3B",
"j. c #A8703B",
"k. c #B8723B",
"l. c #C05E2C",
"z. c #C15C34",
"x. c #C46D37",
"c. c #C87E35",
"v. c #940A4F",
"b. c #A9187E",
"n. c #DF2259",
"m. c #E01A70",
"M. c #8D5D40",
"N. c #8C6644",
"B. c #8D6943",
"V. c #856849",
"C. c #926A41",
"Z. c #996E42",
"A. c #966645",
"S. c #9C7143",
"D. c #94714C",
"F. c #9C7449",
"G. c #82705D",
"H. c #A37346",
"J. c #A67A45",
"K. c #B37646",
"L. c #877C70",
"P. c #CF943C",
"I. c #AF9849",
"U. c #B59E49",
"Y. c #8A8177",
"T. c #C89C41",
"R. c #DCB444",
"E. c #E0BB46",
"W. c #C1C14B",
"Q. c #E7CA4A",
"!. c #FFFF57",
"~. c #FFFF5A",
"^. c #FBF759",
"/. c #AF1D8D",
"(. c #AE328E",
"). c #BB26AA",
"_. c #DA1F8F",
"`. c #DC2082",
"'. c #D51DA9",
"]. c #D916C0",
"[. c #9B968F",
"{. c #A59989",
"}. c #ADA198",
"|. c #B2A491",
" X c #B4A99B",
".X c #B0A49B",
"XX c #BBB0A6",
"oX c #C1B5AB",
"OX c #C8BCB1",
"+X c None",
/* pixels */
"+X+X+X+X+X+X+X+X+X+X+X+X+X+X+X+X+X+X+X+X+X+X+X+X+X+X+X+X+X+X+X+X+X+X+X+X+X+X+X+X+X+X+X+X+X+X+X+X+X+X+X+X+X+X+X+X+X+X+X+X+X+X+X+X+X+X+X+X+X+X+X+X+X+X+X+X+X+X+X+X",
"+X+X+X+X+X+X+X+X+X+X+X+X+X+X+X+X+X+X+X+X+X+X+X+X+X+X+X+X+X+X+X+X+X+X+X+X+X+X+X+X+X+X+X+X+X+X+X+X+X+X+X+X+X+X+X+X+X+X+X+X+X+X+X+X+X+X+X+X+X+X+X+X+X+X+X+X+X+X+X+X",
"+X+X+X+X+X+X+X+X+X+X+X+X+X+X+X+X+X+X+X+X+X+X+X+X+X+X+X+X+X+X+X+X+X+X+X+X+X+X+X+X+X+X+X+X+X+X+X+X+X+X+X+X+X+X+X+X+X+X+X+X+X+X+X+X+X+X+X+X+X+X+X+X+X+X+X+X+X+X+X+X",
"+X+X+X+X+X+X+X+X+X+X+X+X+X+X+X+X+X+X+X+X+X+X+X+X+X+X+X+X+X+X+X+X+X+X+X+X+X+X+X+X+X+X+X+X+X+X+X+X+X+X+X+X+X+X+X+X+X+X+X+X+X+X+X+X+X+X+X+X+X+X+X+X+X+X+X+X+X+X+X+X",
"+X+X+X+X+X+X+X+X+X+X+X+X+X+X+X+X+X+X+X+X+X+X+X+X+X+X+X+X+X+X+X+X+X+X+X+X+X+X+X+X+X+X+X+X+X+X+X+X+X+X+X+X+X+X+X+X+X+X+X+X+X+X+X+X+X+X+X+X+X+X+X+X+X+X+X+X+X+X+X+X",
"+X+X+X+X+X+X+X+X+X+X+X+X+X+X+X+X+X+X+X+X+X+X+X+X+X+X+X+X+X+X+X+X+X+X+X+X+X+X+X+X+X+X+X+X+X+X+X+X+X+X+X+X+X+X+X+X+X+X+X+X+X+X+X+X+X+X+X+X+X+X+X+X+X+X+X+X+X+X+X+X",
"+X+X+X+X+X+X+X+X+X+X+X+X+X+X+X+X+X+X+X+X+X+X+X+X+X+X+X+X+X+X+X+X+X+X+X+X+X+X+X+X+X+X+X+X+X+X+X+X+X+X+X+X+X+X+X+X+X+X+X+X+X+X+X+X+X+X+X+X+X+X+X+X+X+X+X+X+X+X+X+X",
"+X+X+X+X+X+X+X+X+X+X+X+X+X+X+X+X+X+X+X+X+X+X+X+X+X+X+X+X+X+X+X+X+X+X+X+X+X+X+X+X+X+X+X+X+X+X+X+X+X+X+X+X+X+X+X+X+X+X+X+X+X+X+X+X+X+X+X+X+X+X+X+X+X+X+X+X+X+X+X+X",
"+X+X+X+X+X+X+X+X+X+X+X+X+X+X+X+X+X+X+X+X+X+X+X+X+X+X+X+X+X+X+X+X+X+X+X+Xg g W g N +X+X+X+X+X+X+X+X+X+X+X+X+X+X+X+X+X+X+X+X+X+X+X+X+X+X+X+X+X+X+X+X+X+X+X+X+X+X+X",
"+X+X+X+X+X+X+X+X+X+X+X+X+X+X+X+X+X+X+X+X+X+X+X+X+X+X+X+X+X+X+X+X+Xt g ! < O O o a ! d +X+X+X+X+X+X+X+X+X+X+X+X+X+X+X+X+X+X+X+X+X+X+X+X+X+X+X+X+X+X+X+X+X+X+X+X+X",
"+X+X+X+X+X+X+X+X+X+X+X+X+X+X+X+X+X+X+X+X+X+X+X+X+X! ] ] ! +X+X+X+XE t +           , d +X+X+X+X+X+X+X+X_ &.! +X+X+X+X+X+X+X+X+X+X+X+X+X+X+X+X+X+X+X+X+X+X+X+X+X+X",
"+X+X+X+X+X+X+X+X+X+X+X+X+X+X+X+X+X+X+X+X+X+X+X+X+Xd d g d +X+X+X+Xg : - 6 8 6 9 4 = e +X+X+X+X+X+X+Xd d g d g +X+X+X+X+X+X+X+X+X+X+X+X+X+X+X+X+X+X+X+X+X+X+X+X+X",
"+X+X+X+X+X+X+X+X+X+X+X+X+X+X+X+X+X+X+X+X+X+Xd g d         d g d [ , * ] V.t.C.C.#.U   t ( +X+Xt g E *       e E d +X+X+X+X+X+X+X+X+X+X+X+X+X+X+X+X+X+X+X+X+X+X+X",
"+X+X+X+X+X+X+X+X+X+X+X+X+X+X+X+X+X+X+X+X+X+XR , o           > V a.2 ; D.9 b q.> H K   f ] +X+XE e .           - d +X+X+X+X+X+X+X+X+X+X+X+X+X+X+X+X+X+X+X+X+X+X+X",
"+X+X+X+X+X+X+X+X+X+X+X+X+X+X+X+X+X+X+X+X+X+Xy - t M v m m t = 9 f.c # c 1 T (.k l 8   g &.+X+Xs - q n M b M i > < R +X+X+X+X+X+X+X+X+X+X+X+X+X+X+X+X+X+X+X+X+X+X",
"+X+X+X+X+X+X+X+X+X+X+X+X+X+X+X+X+X+X+X+X+X{ @ e @.w.t.t.M.@.t . } 9 . # *.m.'.:.k # & E +X+X+.4 * O...t.S.e.#.!   N #.+X+X+X+X+X+X+X+X+X+X+X+X+X+X+X+X+X+X+X+X+X",
"+X+X+X+X+X+X+X+X+X+X+X+X+X+X+X+X+X+X+X+X+X9.# u V.@ B P @ w.M o ` q % e.s.z.z.l.i.6.w.+X+X+Xx.8 - Z.4 9 q.+ B K   S x.+X+X+X+X+X+X+X+X+X+X+X+X+X+X+X+X+X+X+X+X+X",
"+X+X+X+X+X+X+X+X+X+X+X+X+X+X+X+X+X+X+X+X+Xa.% % 3 j b./.j 3 % * ( , $ G.H.u.y.o.B.k.g.+X+X+Xk.c . 5 h v.).z 1 4   S k.+X+X+X+X+X+X+X+X+X+X+X+X+X+X+X+X+X+X+X+X+X",
"+X+X+X+X+X+X+X+X+X+X+X+X+X+X+X+X+X+X+X+X+XB.% . l -.`.`.;.l # + ] e @ f { D.B.| V.t.a.+X+X+XF.9   % =.n.'.>.x X   F +X+X+X+X+X+X+X+X+X+X+X+X+X+X+X+X+X+X+X+X+X+X",
"+X+X+X+X+X+X+X+X+X+X+X+X+X+X+X+X+X+X+X+X+X+XX 9 H.h.g.p.g.J.b o +X+X+X  R +.r.i.a.X.' +X+X+X+X6 $ A.k.g.f.g.K.H   +X+X+X+X+X+X+X+X+X+X+X+X+X+X+X+X+X+X+X+X+X+X+X",
"+X+X+X+X+X+X+X+X+X+X+X+X+X+X+X+X+X+X+X+X+X+X  t L.}..X.X.XY.u   +X+X+Xg > 7 C { | O.+X+X+X+X+X  e XXoX X X XOXY.@ +X+X+X+X+X+X+X+X+X+X+X+X+X+X+X+X+X+X+X+X+X+X+X",
"+X+X+X+X+X+X+X+X+X+X+X+X+X+X+X+X+X+X+X+X+X+X+X$ E {.|.|.{.E w d +X+X+X&.+   > 0 y U +X+X+X+X+Xe d &.[.|.{.{.[.%.. +X+X+X+X+X+X+X+X+X+X+X+X+X+X+X+X+X+X+X+X+X+X+X",
"+X+X+X+X+X+X+X+X+X+X+X+X+X+X+X+X+X+X+X+X+X+X+X+X. Z ,.,.D . > _ +X+X+X! <         * ! +X+X+X+X! y   v 2.2.y.H y +X+X+X+X+X+X+X+X+X+X+X+X+X+X+X+X+X+X+X+X+X+X+X+X",
"+X+X+X+X+X+X+X+X+X+X+X+X+X+X+X+X+X+X+X+X+X+X+X+X+X. . X X     - t ! g +             + g ! d ! e o   . ; V +X+X+X+X+X+X+X+X+X+X+X+X+X+X+X+X+X+X+X+X+X+X+X+X+X+X+X",
"+X+X+X+X+X+X+X+X+X+X+X+X+X+X+X+X+X+X+X+X+X+X+X+X+X+Xq *         - , -                 - < - , +       * g +X+X+X+X+X+X+X+X+X+X+X+X+X+X+X+X+X+X+X+X+X+X+X+X+X+X+X",
"+X+X+X+X+X+X+X+X+X+X+X+X+X+X+X+X+X+X+X+X+X+X+X+X+X+Xg <                                               e _ +X+X+X+X+X+X+X+X+X+X+X+X+X+X+X+X+X+X+X+X+X+X+X+X+X+X+X",
"+X+X+X+X+X+X+X+X+X+X+X+X+X+X+X+X+X+X+X+X+X+X+X+X+X! <                                                 e ] +X+X+X+X+X+X+X+X+X+X+X+X+X+X+X+X+X+X+X+X+X+X+X+X+X+X+X",
"+X+X+X+X+X+X+X+X+X+X+X+X+X+X+X+X+X+X+X+X+X+X+X+X_ < o                                                 + < t +X+X+X+X+X+X+X+X+X+X+X+X+X+X+X+X+X+X+X+X+X+X+X+X+X+X",
"+X+X+X+X+X+X+X+X+X+X+X+X+X+X+X+X+X+X+X+X+X+X+Xd t                                                         d +X+X+X+X+X+X+X+X+X+X+X+X+X+X+X+X+X+X+X+X+X+X+X+X+X+X",
"+X+X+X+X+X+X+X+X+X+X+X+X+X+X+X+X+X+X+X+X+X+Xg <                                                         O d g +X+X+X+X+X+X+X+X+X+X+X+X+X+X+X+X+X+X+X+X+X+X+X+X+X",
"+X+X+X+X+X+X+X+X+X+X+X+X+X+X+X+X+X+X+X+X+X+X! e                                                           X q d +X+X+X+X+X+X+X+X+X+X+X+X+X+X+X+X+X+X+X+X+X+X+X+X",
"+X+X+X+X+X+X+X+X+X+X+X+X+X+X+X+X+X+X+X+X+Xt e -           < -     < ,                 , <                   e E +X+X+X+X+X+X+X+X+X+X+X+X+X+X+X+X+X+X+X+X+X+X+X+X",
"+X+X+X+X+X+X+X+X+X+X+X+X+X+X+X+X+X+X+X+X+Xg O             t e     , e                 e <                   , g +X+X+X+X+X+X+X+X+X+X+X+X+X+X+X+X+X+X+X+X+X+X+X+X",
"+X+X+X+X+X+X+X+X+X+X+X+X+X+X+X+X+X+X+X+X+XE *           +Xt ,                                 +X+X            + t +X+X+X+X+X+X+X+X+X+X+X+X+X+X+X+X+X+X+X+X+X+X+X",
"+X+X+X+X+X+X+X+X+X+X+X+X+X+X+X+X+X+X+X+Xe - .         +X+XE e                                 +X+X+X          + d +X+X+X+X+X+X+X+X+X+X+X+X+X+X+X+X+X+X+X+X+X+X+X",
"+X+X+X+X+X+X+X+X+X+X+X+X+X+X+X+X+X+X+Xg t           +X+X+X] y                                 +X+X+X+X        + t +X+X+X+X+X+X+X+X+X+X+X+X+X+X+X+X+X+X+X+X+X+X+X",
"+X+X+X+X+X+X+X+X+X+X+X+X+X+X+X+X+X+X+XE t         +X+X+X+X&.d .                               +X+X+X+X+X      + d +X+X+X+X+X+X+X+X+X+X+X+X+X+X+X+X+X+X+X+X+X+X+X",
"+X+X+X+X+X+X+X+X+X+X+X+X+X+X+X+X+X+Xt < .   +X+X+X+X+X+X+X+X! ,                               +X+X+X+X+X      + t +X+X+X+X+X+X+X+X+X+X+X+X+X+X+X+X+X+X+X+X+X+X+X",
"+X+X+X+X+X+X+X+X+X+X+X+X+X+X+X+X+X+Xt +     +X+X+X+X+X+X+X+X+Xt .                             +X+X+X+X+X+X    + t +X+X+X+X+X+X+X+X+X+X+X+X+X+X+X+X+X+X+X+X+X+X+X",
"+X+X+X+X+X+X+X+X+X+X+X+X+X+X+X+X+X+Xd <     +X+X+X+X+X+X+X+X+Xe .         . +                 +X+X+X+X+X+X    + d +X+X+X+X+X+X+X+X+X+X+X+X+X+X+X+X+X+X+X+X+X+X+X",
"+X+X+X+X+X+X+X+X+X+X+X+X+X+X+X+X+X+XE <     +X+X+X+X+X+X+X+X+Xt o         < d .             +X+X+X+X+X+X+X    - E +X+X+X+X+X+X+X+X+X+X+X+X+X+X+X+X+X+X+X+X+X+X+X",
"+X+X+X+X+X+X+X+X+X+X+X+X+X+X+X+X+X+X( >   +X+X+X+X+X+X+X+X+X+Xg O       < d U t +           +X+X+X+X+X+X+X    - E +X+X+X+X+X+X+X+X+X+X+X+X+X+X+X+X+X+X+X+X+X+X+X",
"+X+X+X+X+X+X+X+X+X+X+X+X+X+X+X+X+X+X+.m 9 +X+X+X+X+X+X+X+X+X+XE .       e E E g -           +X+X+X+X+X+X+X    - ! +X+X+X+X+X+X+X+X+X+X+X+X+X+X+X+X+X+X+X+X+X+X+X",
"+X+X+X+X+X+X+X+X+X+X+X+X+X+X+X+X+X+Xt.Z.A.+X+X+X+X+X+X+X+X+X+X! +       e E E f < .         +X+X+X+X+X+X      < _ +X+X+X+X+X+X+X+X+X+X+X+X+X+X+X+X+X+X+X+X+X+X+X",
"+X+X+X+X+X+X+X+X+X+X+X+X+X+X+X+X+X+XB.B.M.+X+X+X+X+X+X+X+X+X+X+Xd +     e g W ! f ,         +X+X+X+X+X+X    - g +X+X+X+X+X+X+X+X+X+X+X+X+X+X+X+X+X+X+X+X+X+X+X+X",
"+X+X+X+X+X+X+X+X+X+X+X+X+X+X+X+X+X+XB.M.F.+X+X+X+X+X+X+X+X+X+X+Xf -     e E E < t y       +X+X+X+X+X+X+X    , ! +X+X+X+X+X+X+X+X+X+X+X+X+X+X+X+X+X+X+X+X+X+X+X+X",
"+X+X+X+X+X+X+X+X+X+X+X+X+X+X+X+X+X+Xr.2.U.+X!.!.+X+X+X+X+X+X+X+Xd -     e E N * 4 y       +X+X+X+X+X+X    O t ! +X+X+X+X+X+X+X+X+X+X+X+X+X+X+X+X+X+X+X+X+X+X+X+X",
"+X+X+X+X+X+X+X+X+X+X+X+X+X+X+X+X+X+Xd.4.I.!.!.!.+X+X+X+X+X+X+X+Xd -     e g ! Q g q       +X+X+X+X+X    . t +X+X+X+X+X+X+X+X+X+X+X+X+X+X+X+X+X+X+X+X+X+X+X+X+X+X",
"+X+X+X+X+X+X+X+X+X+X+X+X+X+X+X+X+X+Xd.5.T.~.~.!.+X+X+X+X+X+X+X+XR <     + 4 g ~ g e       +X+X+X+X+Xo o s +X+X+X+X+X+X+X+X+X+X+X+X+X+X+X+X+X+X+X+X+X+X+X+X+X+X+X",
"+X+X+X+X+X+X+X+X+X+X+X+X+X+X+X+X+X+Xd.7.c.Q.!.+X+X+X+X+X+X+X+X+X` e       * g E E e       +X+X+X+X+Xi M } +X+X+X+X+X+X+X+X+X+X+X+X+X+X+X+X+X+X+X+X+X+X+X+X+X+X+X",
"+X+X+X+X+X+X+X+X+X+X+X+X+X+X+X+X+X+X+Xd.8.9.Q.^.+X+X+X+X+X+X+X+X_ e       - d E g ,       +X+X+X+X' V.k.7.N +X+X+X+X+X+X+X+X+X+X+X+X+X+X+X+X+X+X+X+X+X+X+X+X+X+X",
"+X+X+X+X+X+X+X+X+X+X+X+X+X+X+X+X+X+X+X+X+X8.d.E.~.+X+X+X+X+X+Xy - .       o * d q .       +X+X+X+X[ V.j.y.~ +X+X+X+X+X+X+X+X+X+X+X+X+X+X+X+X+X+X+X+X+X+X+X+X+X+X",
"+X+X+X+X+X+X+X+X+X+X+X+X+X+X+X+X+X+X+X+X+XR.5.P.~.+X+X+X+X+X+Xg               - .     < t +X+X+X+X+X+.} ^ W +X+X+X+X+X+X+X+X+X+X+X+X+X+X+X+X+X+X+X+X+X+X+X+X+X+X",
"+X+X+X+X+X+X+X+X+X+X+X+X+X+X+X+X+X+X+X+X+X~.+X+X~.+X+X+X+X+Xg t .                     , E +X+X+X+X+X] / R +X+X+X+X+X+X+X+X+X+X+X+X+X+X+X+X+X+X+X+X+X+X+X+X+X+X+X",
"+X+X+X+X+X+X+X+X+X+X+X+X+X+X+X+X+X+X+X+X+X!.+X+X+X~.~.W.+Xs ,                           e E +X+X+X+X+X+X+X+X+X+X+X+X+X+X+X+X+X+X+X+X+X+X+X+X+X+X+X+X+X+X+X+X+X+X",
"+X+X+X+X+X+X+X+X+X+X+X+X+X+X+X+X+X+X+X+X+X+X!.+X+X+X+X+X+XU 0 .                         O <   < +X+X+X+X+X+X+X+X+X+X+X+X+X+X+X+X+X+X+X+X+X+X+X+X+X+X+X+X+X+X+X+X",
"+X+X+X+X+X+X+X+X+X+X+X+X+X+X+X+X+X+X+X+X+X+X!.+X+X+X+X+X+X' t                                 - t +X+X+X+X+X+X+X+X+X+X+X+X+X+X+X+X+X+X+X+X+X+X+X+X+X+X+X+X+X+X+X",
"+X+X+X+X+X+X+X+X+X+X+X+X+X+X+X+X+X+X+X+X+X+X+X+X+X+X+X+X+X' t                                   $ U +X+X+X+X+X+X+X+X+X+X+X+X+X+X+X+X+X+X+X+X+X+X+X+X+X+X+X+X+X+X",
"+X+X+X+X+X+X+X+X+X+X+X+X+X+X+X+X+X+X+X+X+X+X+X+X+X+X+X+X+X+X+X          +X+X+X+X+X+X+X          o + r +X+X+X+X+X+X+X+X+X+X+X+X+X+X+X+X+X+X+X+X+X+X+X+X+X+X+X+X+X",
"+X+X+X+X+X+X+X+X+X+X+X+X+X+X+X+X+X+X+X+X+X+X+X+X+X+X+X+X+X+X          +X+X+X+X+X+X+X+X+X            y N +X+X+X+X+X+X+X+X+X+X+X+X+X+X+X+X+X+X+X+X+X+X+X+X+X+X+X+X",
"+X+X+X+X+X+X+X+X+X+X+X+X+X+X+X+X+X+X+X+X+X+X+X+X+X+X+X+X+X+           +X+X+X+X+X+X+X+X+X+X          d _ +X+X+X+X+X+X+X+X+X+X+X+X+X+X+X+X+X+X+X+X+X+X+X+X+X+X+X+X",
"+X+X+X+X+X+X+X+X+X+X+X+X+X+X+X+X+X+X+X+X+X+X+X+X+X+X+X+Xa +       +X+X+X+X+X+X+X+X+X+X+X+X          g ] +X+X+X+X+X+X+X+X+X+X+X+X+X+X+X+X+X+X+X+X+X+X+X+X+X+X+X+X",
"+X+X+X+X+X+X+X+X+X+X+X+X+X+X+X+X+X+X+X+X+X+X+X+X+X+X+X+Xg +       +X+X+X+X+X+X+X+X+X+X+X+X      O 4 ! +X+X+X+X+X+X+X+X+X+X+X+X+X+X+X+X+X+X+X+X+X+X+X+X+X+X+X+X+X",
"+X+X+X+X+X+X+X+X+X+X+X+X+X+X+X+X+X+X+X+X+X+X+X+X+X+X+X+X! +         +X+X+X+X+X+X+X+X+X+X        * g +X+X+X+X+X+X+X+X+X+X+X+X+X+X+X+X+X+X+X+X+X+X+X+X+X+X+X+X+X+X",
"+X+X+X+X+X+X+X+X+X+X+X+X+X+X+X+X+X+X+X+X+X+X+X+X+X+X+X+X[ < o   . . , +X+X+X+X+X+X+X+X    o   . - +X+X+X+X+X+X+X+X+X+X+X+X+X+X+X+X+X+X+X+X+X+X+X+X+X+X+X+X+X+X+X",
"+X+X+X+X+X+X+X+X+X+X+X+X+X+X+X+X+X+X+X+X+X+X+X+X+X+X+X+X+Xp 0 w s s Y ) +X+X+X+X+X+X+X  o q q a Y R ( +X+X+X+X+X+X+X+X+X+X+X+X+X+X+X+X+X+X+X+X+X+X+X+X+X+X+X+X+X",
"+X+X+X+X+X+X+X+X+X+X+X+X+X+X+X+X+X+X+X+X+X+X+X+X+X+X+X+X+X{ G 2.A.1.M.A. .+X+X+X+X+X+Xm B { H K 1.3.3.} %.' +X+X+X+X+X+X+X+X+X+X+X+X+X+X+X+X+X+X+X+X+X+X+X+X+X+X",
"+X+X+X+X+X+X+X+X+X+X+X+X+X+X+X+X+X+X+X+X+X+X+X+X+X+X+X+Xt.C.h.d.6.i.p.<.} ] +X+X+X+X+XS.S.Z.A.h.i.6.p.4.E ` +X+X+X+X+X+X+X+X+X+X+X+X+X+X+X+X+X+X+X+X+X+X+X+X+X+X",
"+X+X+X+X+X+X+X+X+X+X+X+X+X+X+X+X+X+X+X+X+X+X+X+X+X+X+X+XC.C.S.L X A L . Z F.+X+X+X+X+XC.e.C.C.H.Z X D B @ K +X+X+X+X+X+X+X+X+X+X+X+X+X+X+X+X+X+X+X+X+X+X+X+X+X+X",
"+X+X+X+X+X+X+X+X+X+X+X+X+X+X+X+X+X+X+X+X+X+X+X+X+X+X+X+X+X+X+X+X+X+X+X+X+X+X+X+X+X+X+X+X+X+X+X+X+X+X+X+X+X+X+X+X+X+X+X+X+X+X+X+X+X+X+X+X+X+X+X+X+X+X+X+X+X+X+X+X",
"+X+X+X+X+X+X+X+X+X+X+X+X+X+X+X+X+X+X+X+X+X+X+X+X+X+X+X+X+X+X+X+X+X+X+X+X+X+X+X+X+X+X+X+X+X+X+X+X+X+X+X+X+X+X+X+X+X+X+X+X+X+X+X+X+X+X+X+X+X+X+X+X+X+X+X+X+X+X+X+X",
"+X+X+X+X+X+X+X+X+X+X+X+X+X+X+X+X+X+X+X+X+X+X+X+X+X+X+X+X+X+X+X+X+X+X+X+X+X+X+X+X+X+X+X+X+X+X+X+X+X+X+X+X+X+X+X+X+X+X+X+X+X+X+X+X+X+X+X+X+X+X+X+X+X+X+X+X+X+X+X+X",
"+X+X+X+X+X+X+X+X+X+X+X+X+X+X+X+X+X+X+X+X+X+X+X+X+X+X+X+X+X+X+X+X+X+X+X+X+X+X+X+X+X+X+X+X+X+X+X+X+X+X+X+X+X+X+X+X+X+X+X+X+X+X+X+X+X+X+X+X+X+X+X+X+X+X+X+X+X+X+X+X",
"+X+X+X+X+X+X+X+X+X+X+X+X+X+X+X+X+X+X+X+X+X+X+X+X+X+X+X+X+X+X+X+X+X+X+X+X+X+X+X+X+X+X+X+X+X+X+X+X+X+X+X+X+X+X+X+X+X+X+X+X+X+X+X+X+X+X+X+X+X+X+X+X+X+X+X+X+X+X+X+X",
"+X+X+X+X+X+X+X+X+X+X+X+X+X+X+X+X+X+X+X+X+X+X+X+X+X+X+X+X+X+X+X+X+X+X+X+X+X+X+X+X+X+X+X+X+X+X+X+X+X+X+X+X+X+X+X+X+X+X+X+X+X+X+X+X+X+X+X+X+X+X+X+X+X+X+X+X+X+X+X+X",
"+X+X+X+X+X+X+X+X+X+X+X+X+X+X+X+X+X+X+X+X+X+X+X+X+X+X+X+X+X+X+X+X+X+X+X+X+X+X+X+X+X+X+X+X+X+X+X+X+X+X+X+X+X+X+X+X+X+X+X+X+X+X+X+X+X+X+X+X+X+X+X+X+X+X+X+X+X+X+X+X",
"+X+X+X+X+X+X+X+X+X+X+X+X+X+X+X+X+X+X+X+X+X+X+X+X+X+X+X+X+X+X+X+X+X+X+X+X+X+X+X+X+X+X+X+X+X+X+X+X+X+X+X+X+X+X+X+X+X+X+X+X+X+X+X+X+X+X+X+X+X+X+X+X+X+X+X+X+X+X+X+X",
"+X+X+X+X+X+X+X+X+X+X+X+X+X+X+X+X+X+X+X+X+X+X+X+X+X+X+X+X+X+X+X+X+X+X+X+X+X+X+X+X+X+X+X+X+X+X+X+X+X+X+X+X+X+X+X+X+X+X+X+X+X+X+X+X+X+X+X+X+X+X+X+X+X+X+X+X+X+X+X+X",
"+X+X+X+X+X+X+X+X+X+X+X+X+X+X+X+X+X+X+X+X+X+X+X+X+X+X+X+X+X+X+X+X+X+X+X+X+X+X+X+X+X+X+X+X+X+X+X+X+X+X+X+X+X+X+X+X+X+X+X+X+X+X+X+X+X+X+X+X+X+X+X+X+X+X+X+X+X+X+X+X",
"+X+X+X+X+X+X+X+X+X+X+X+X+X+X+X+X+X+X+X+X+X+X+X+X+X+X+X+X+X+X+X+X+X+X+X+X+X+X+X+X+X+X+X+X+X+X+X+X+X+X+X+X+X+X+X+X+X+X+X+X+X+X+X+X+X+X+X+X+X+X+X+X+X+X+X+X+X+X+X+X"
};
