/* XPM */
static char *_5394_890a034052ee4213a30f013c09b06b15cfb09388f096cd9459da7b7ca5e2b238[] = {
/* columns rows colors chars-per-pixel */
"80 80 194 2 ",
"   c #000000",
".  c #090501",
"X  c #0C0906",
"o  c #030609",
"O  c #0C0C0C",
"+  c #070D07",
"@  c #130C06",
"#  c #130F0B",
"$  c #15120E",
"%  c #181C0E",
"&  c #1C140B",
"*  c #0D0F12",
"=  c #131414",
"-  c #1C1A13",
";  c #141619",
":  c #1B1B1B",
">  c #17191B",
",  c #0C1419",
"<  c #3D0703",
"1  c #2B1D0F",
"2  c #241608",
"3  c #341B0B",
"4  c #271D14",
"5  c #23210F",
"6  c #2E2519",
"7  c #362616",
"8  c #34291C",
"9  c #3D2B1A",
"0  c #3C2615",
"q  c #3D351A",
"w  c #151C22",
"e  c #191E23",
"r  c #1E2125",
"t  c #1D252B",
"y  c #242424",
"u  c #242629",
"i  c #262829",
"p  c #2B2B2B",
"a  c #2C2420",
"s  c #35312C",
"d  c #3D3328",
"f  c #2A2E32",
"g  c #262D32",
"h  c #2D353A",
"j  c #2E3135",
"k  c #343434",
"l  c #3B3B3B",
"z  c #34383B",
"x  c #460400",
"c  c #4E0000",
"v  c #55000C",
"b  c #43150A",
"n  c #591005",
"m  c #71000D",
"M  c #621C08",
"N  c #791E09",
"B  c #442B17",
"V  c #522B14",
"C  c #45311E",
"Z  c #403C1A",
"A  c #55351C",
"S  c #453725",
"D  c #493624",
"F  c #4D3922",
"G  c #423528",
"H  c #533A22",
"J  c #593D20",
"K  c #453D35",
"L  c #5D452B",
"P  c #53463A",
"I  c #564A3D",
"U  c #594735",
"Y  c #7A542E",
"T  c #634D33",
"R  c #6D4B34",
"E  c #67533E",
"W  c #775533",
"Q  c #7A5B3B",
"!  c #7C5638",
"~  c #68482B",
"^  c #323A40",
"/  c #7A0E42",
"(  c #3E4042",
")  c #3B4449",
"_  c #444444",
"`  c #44494D",
"'  c #4B4B4B",
"]  c #4A4846",
"[  c #554C46",
"{  c #58544F",
"}  c #434C54",
"|  c #4A5357",
" . c #545454",
".. c #5D5854",
"X. c #52565A",
"o. c #555A5E",
"O. c #5B5C5C",
"+. c #695B4D",
"@. c #665340",
"#. c #705E48",
"$. c #615B54",
"%. c #635E5C",
"&. c #715E50",
"*. c #72614E",
"=. c #7C654C",
"-. c #7E6346",
";. c #6D6459",
":. c #7D6954",
">. c #786556",
",. c #5B5D60",
"<. c #5F6366",
"1. c #616263",
"2. c #6E6860",
"3. c #706961",
"4. c #871F09",
"5. c #901708",
"6. c #9E2209",
"7. c #820029",
"8. c #890437",
"9. c #D5251E",
"0. c #D61D28",
"q. c #DC2438",
"w. c #945128",
"e. c #855C33",
"r. c #8A583B",
"t. c #915D3F",
"y. c #875828",
"u. c #A15425",
"i. c #B25E29",
"p. c #A15F31",
"a. c #BE5C3D",
"s. c #8A633B",
"d. c #876837",
"f. c #946A3D",
"g. c #9D6B3D",
"h. c #996539",
"j. c #877031",
"k. c #B7622C",
"l. c #B9642E",
"z. c #B7692F",
"x. c #A76637",
"c. c #B56331",
"v. c #BB6932",
"b. c #B56D3A",
"n. c #B26834",
"m. c #AE7334",
"M. c #B5713D",
"N. c #BE7037",
"B. c #C35E2C",
"V. c #C15C33",
"C. c #C2652B",
"Z. c #C56D38",
"A. c #990D59",
"S. c #DE2445",
"D. c #DF1A69",
"F. c #DF2262",
"G. c #835F48",
"H. c #846444",
"J. c #8C6542",
"K. c #8D6944",
"L. c #85644A",
"P. c #8B6B4B",
"I. c #966243",
"U. c #936A41",
"Y. c #996E42",
"T. c #966647",
"R. c #9C7244",
"E. c #9C7449",
"W. c #96724E",
"Q. c #A17245",
"!. c #A37A4D",
"~. c #B47443",
"^. c #857F77",
"/. c #FFFF57",
"(. c #FFFF58",
"). c #AF3491",
"_. c #BD28B1",
"`. c #B925A6",
"'. c #D51DAA",
"]. c #D816C3",
"[. c #8A8781",
"{. c #9E958B",
"}. c #9A9187",
"|. c #A69988",
" X c #AEA190",
".X c #B4A593",
"XX c #B5A99C",
"oX c #A0A4A9",
"OX c #B1ADA7",
"+X c #BFB3A9",
"@X c #BDB1A7",
"#X c #C9BDB2",
"$X c #CEC1B6",
"%X c None",
/* pixels */
"%X%X%X%X%X%X%X%X%X%X%X%X%X%X%X%X%X%X%X%X%X%X%X%X%X%X%X%X%X%X%X%X%X%X%X%X%X%X%X%X%X%X%X%X%X%X%X%X%X%X%X%X%X%X%X%X%X%X%X%X%X%X%X%X%X%X%X%X%X%X%X%X%X%X%X%X%X%X%X%X",
"%X%X%X%X%X%X%X%X%X%X%X%X%X%X%X%X%X%X%X%X%X%X%X%X%X%X%X%X%X%X%X%X%X%X%X%X%X%X%X%X%X%X%X%X%X%X%X%X%X%X%X%X%X%X%X%X%X%X%X%X%X%X%X%X%X%X%X%X%X%X%X%X%X%X%X%X%X%X%X%X",
"%X%X%X%X%X%X%X%X%X%X%X%X%X%X%X%X%X%X%X%X%X%X%X%X%X%X%X%X%X%X%X%X%X%X%X%X%X%X%X%X%X%X%X%X%X%X%X%X%X%X%X%X%X%X%X%X%X%X%X%X%X%X%X%X%X%X%X%X%X%X%X%X%X%X%X%X%X%X%X%X",
"%X%X%X%X%X%X%X%X%X%X%X%X%X%X%X%X%X%X%X%X%X%X%X%X%X%X%X%X%X%X%X%X%X%X%X%X%X%X%X%X%X%X%X%X%X%X%X%X%X%X%X%X%X%X%X%X%X%X%X%X%X%X%X%X%X%X%X%X%X%X%X%X%X%X%X%X%X%X%X%X",
"%X%X%X%X%X%X%X%X%X%X%X%X%X%X%X%X%X%X%X%X%X%X%X%X%X%X%X%X%X%X%X%X%X%X%X%X%X%X%X%X%X%X%X%X%X%X%X%X%X%X%X%X%X%X%X%X%X%X%X%X%X%X%X%X%X%X%X%X%X%X%X%X%X%X%X%X%X%X%X%X",
"%X%X%X%X%X%X%X%X%X%X%X%X%X%X%X%X%X%X%X%X%X%X%X%X%X%X%X%X%X%X%X%X%X%X%X%X%X%X%X%X%X%X%X%X%X%X%X%X%X%X%X%X%X%X%X%X%X%X%X%X%X%X%X%X%X%X%X%X%X%X%X%X%X%X%X%X%X%X%X%X",
"%X%X%X%X%X%X%X%X%X%X%X%X%X%X%X%X%X%X%X%X%X%X%X%X%X%X%X%X%X%X%X%X%X%X%X%X%X%X%X%X%X%X%X%X%X%X%X%X%X%X%X%X%X%X%X%X%X%X%X%X%X%X%X%X%X%X%X%X%X%X%X%X%X%X%X%X%X%X%X%X",
"%X%X%X%X%X%X%X%X%X%X%X%X%X%X%X%X%X%X%X%X%X%X%X%X%X%X%X%X%X%X%X%X%X%X%X%X%X%X%X%X%X%X%X%X%X%X%X%X%X%X%X%X%X%X%X%X%X%X%X%X%X%X%X%X%X%X%X%X%X%X%X%X%X%X%X%X%X%X%X%X",
"%X%X%X%X%X%X%X%X%X%X%X%X%X%X%X%X%X%X%X%X%X%X%X%X%X%X%X%X%X%X%X%X%X%X%X%X%X%X%X%Xl l ' l ( %X%X%X%X%X%X%X%X%X%X%X%X%X%X%X%X%X%X%X%X%X%X%X%X%X%X%X%X%X%X%X%X%X%X%X",
"%X%X%X%X%X%X%X%X%X%X%X%X%X%X%X%X%X%X%X%X%X%X%X%X%X%X%X%X%X%X%X%X%X%X%X%X%Xp l ` ; . o . p ' k %X%X%X%X%X%X%X%X%X%X%X%X%X%X%X%X%X%X%X%X%X%X%X%X%X%X%X%X%X%X%X%X%X",
"%X%X%X%X%X%X%X%X%X%X%X%X%X%X%X%X%X%X%X%X%X%X%X%X%X%X%XX.<.' %X%X%X%X%X%X%X_ p O         o > k %X%X%X%X%X .O. .%X%X%X%X%X%X%X%X%X%X%X%X%X%X%X%X%X%X%X%X%X%X%X%X%X",
"%X%X%X%X%X%X%X%X%X%X%X%X%X%X%X%X%X%X%X%X%X%X%X%X%X%Xk k l k K %X%X%X%X%X%Xl = = 6 7 6 7 4 = y %X%X%X%Xl k l k k %X%X%X%X%X%X%X%X%X%X%X%X%X%X%X%X%X%X%X%X%X%X%X%X",
"%X%X%X%X%X%X%X%X%X%X%X%X%X%X%X%X%X%X%X%X%X%X%Xj l _ O       i _ k %X%X%X%.: O O.L.f.U.f.:.(   %X%Xk _ :       : _ k %X%X%X%X%X%X%X%X%X%X%X%X%X%X%X%X%X%X%X%X%X%X",
"%X%X%X%X%X%X%X%X%X%X%X%X%X%X%X%X%X%X%X%X%X%X%XK y .           = k %X%X%Xb.3 $ W.8 Z j.% T #.  f ' p $           O p %X%X%X%X%X%X%X%X%X%X%X%X%X%X%X%X%X%X%X%X%X%X",
"%X%X%X%X%X%X%X%X%X%X%X%X%X%X%X%X%X%X%X%X%X%X%Xp ; r S H C H d w : h %X%XZ.B X C < / ).v b 0   p l ; w d L C F G e = l %X%X%X%X%X%X%X%X%X%X%X%X%X%X%X%X%X%X%X%X%X",
"%X%X%X%X%X%X%X%X%X%X%X%X%X%X%X%X%X%X%X%X%X%X[ # * ;.-.f.R.s.:._   g +.%XE.9   . 5.D.].0.n X * ( y    .:.s.R.s.L.$.o a ;.%X%X%X%X%X%X%X%X%X%X%X%X%X%X%X%X%X%X%X%X",
"%X%X%X%X%X%X%X%X%X%X%X%X%X%X%X%X%X%X%X%X%X%Xv.3 - Y.- q d.+ L W   l ,.%X%X7 # s.k.a.a.B.x.#. .<.p . J.S % d.5 8 U.O V Z.%X%X%X%X%X%X%X%X%X%X%X%X%X%X%X%X%X%X%X%X",
"%X%X%X%X%X%X%X%X%X%X%X%X%X%X%X%X%X%X%X%X%X%Xb.0 X 1 c A.`.m b 2   _ 1.%X%X@ = *.R.m.h.*.I.b.P.;.k   1 x 7._.8.x 1   A M.%X%X%X%X%X%X%X%X%X%X%X%X%X%X%X%X%X%X%X%X",
"%X%X%X%X%X%X%X%X%X%X%X%X%X%X%X%X%X%X%X%X%X%XE.8   2 6.F.'.9.M X   _ %X%X%X%Xo u I s.U.&.h.n.L.3.h   @ N q.'.S.4.&   F !.%X%X%X%X%X%X%X%X%X%X%X%X%X%X%X%X%X%X%X%X",
"%X%X%X%X%X%X%X%X%X%X%X%X%X%X%X%X%X%X%X%X%X%X%X4 $ Y.b.v.z.z.~.T   %X%X%X%X%X%X  e I U.k.x.=.O.%X%X. Q ~.v.z.v.~.s.o %X%X%X%X%X%X%X%X%X%X%X%X%X%X%X%X%X%X%X%X%X%X",
"%X%X%X%X%X%X%X%X%X%X%X%X%X%X%X%X%X%X%X%X%X%X%X  k +X+XXXXXXX$X^.  %X%X%X%X%X%X] = - P U P { O.%X%XX |.#XXXXXXX@X}.; %X%X%X%X%X%X%X%X%X%X%X%X%X%X%X%X%X%X%X%X%X%X",
"%X%X%X%X%X%X%X%X%X%X%X%X%X%X%X%X%X%X%X%X%X%X%X%X> 1.{..X|..X[.` > %X%X%X%X%X1.l +   , , g %X%X%X%Xk o.[..X|.|.OXoXr %X%X%X%X%X%X%X%X%X%X%X%X%X%X%X%X%X%X%X%X%X%X",
"%X%X%X%X%X%X%X%X%X%X%X%X%X%X%X%X%X%X%X%X%X%X%X%X%X  J e.Y e.2   f %X%X%X%X .k           %X%X%X%X%X]   3 s.! y.%X%X%X%X%X%X%X%X%X%X%X%X%X%X%X%X%X%X%X%X%X%X%X%X%X",
"%X%X%X%X%X%X%X%X%X%X%X%X%X%X%X%X%X%X%X%X%X%X%X%X%X%X$ X @ X     . l _ k ' y o           p ' k ' k O     $ s %X%X%X%X%X%X%X%X%X%X%X%X%X%X%X%X%X%X%X%X%X%X%X%X%X%X",
"%X%X%X%X%X%X%X%X%X%X%X%X%X%X%X%X%X%X%X%X%X%XO.,.` k o             = : = : o             O : = : O       o z %X%X%X%X%X%X%X%X%X%X%X%X%X%X%X%X%X%X%X%X%X%X%X%X%X%X",
"%X%X%X%X%X%X%X%X%X%X%X%X%X%X%X%X%X%X%X%X%X%XK l p y O                                                   = ' %X%X%X%X%X%X%X%X%X%X%X%X%X%X%X%X%X%X%X%X%X%X%X%X%X%X",
"%X%X%X%X%X%X%X%X%X%X%X%X%X%X%X%X%X%X .' l i                                                             =  .%X%X%X%X%X%X%X%X%X%X%X%X%X%X%X%X%X%X%X%X%X%X%X%X%X%X",
"%X%X%X%X%X%X%X%X%X%X%X%X%X%X%X%X%X_ = = O O                                                             . ; i %X%X%X%X%X%X%X%X%X%X%X%X%X%X%X%X%X%X%X%X%X%X%X%X%X",
"%X%X%X%X%X%X%X%X%X%X%X%X%X%X%X%XO.k                                                                         p _ %X%X%X%X%X%X%X%X%X%X%X%X%X%X%X%X%X%X%X%X%X%X%X%X",
"%X%X%X%X%X%X%X%X%X%X%X%X%X%X%X%X] p                                                                         p l %X%X%X%X%X%X%X%X%X%X%X%X%X%X%X%X%X%X%X%X%X%X%X%X",
"%X%X%X%X%X%X%X%X%X%X%X%X%X%X%X%Xk y               %X%X%X%X%X                                                . > k %X%X%X%X%X%X%X%X%X%X%X%X%X%X%X%X%X%X%X%X%X%X%X",
"%X%X%X%X%X%X%X%X%X%X%X%X%X%X%X%Xl y       %X%X%X%X%X%X%X%X%Xy =     , 4 o               = :                   = ] %X%X%X%X%X%X%X%X%X%X%X%X%X%X%X%X%X%X%X%X%X%X%X",
"%X%X%X%X%X%X%X%X%X%X%X%X%X%X%X%Xp :       %X%X%X%X%X%X%X%X%Xl u     = i o               : y                   = k %X%X%X%X%X%X%X%X%X%X%X%X%X%X%X%X%X%X%X%X%X%X%X",
"%X%X%X%X%X%X%X%X%X%X%X%X%X%X%Xk =         %X%X%X%X%X%X%X%X%Xk r                                   %X            o p %X%X%X%X%X%X%X%X%X%X%X%X%X%X%X%X%X%X%X%X%X%X",
"%X%X%X%X%X%X%X%X%X%X%X%X%X%X%Xk O     %X%X%X%X%X%X%X%X%X%X%Xk 6                                   %X%X            i %X%X%X%X%X%X%X%X%X%X%X%X%X%X%X%X%X%X%X%X%X%X",
"%X%X%X%X%X%X%X%X%X%X%X%X%X%X%Xl =     %X%X%X%X%X%X%X%X%X%X%Xl p                                   %X%X%X        . i %X%X%X%X%X%X%X%X%X%X%X%X%X%X%X%X%X%X%X%X%X%X",
"%X%X%X%X%X%X%X%X%X%X%X%X%X%X%X' :     %X%X%X%X%X%X%X%X%X%X%X' k                                   %X%X%X%X      o y %X%X%X%X%X%X%X%X%X%X%X%X%X%X%X%X%X%X%X%X%X%X",
"%X%X%X%X%X%X%X%X%X%X%X%X%X%X%XX.r   %X%X%X%X%X%X%X%X%X%X%X%X1.l                                   %X%X%X%X      . i %X%X%X%X%X%X%X%X%X%X%X%X%X%X%X%X%X%X%X%X%X%X",
"%X%X%X%X%X%X%X%X%X%X%X%X%Xt k =.8   %X%X%X%X%X%X%X%X%X%X%X%X%X' : o                               %X%X%X%X%X    o k %X%X%X%X%X%X%X%X%X%X%X%X%X%X%X%X%X%X%X%X%X%X",
"%X%X%X%X%X%X%X%X%X%X%X%XK K U Y.9   %X%X%X%X%X%X%X%X%X%X%X%X%X%Xk O           O                 %X%X%X%X%X%X    . l %X%X%X%X%X%X%X%X%X%X%X%X%X%X%X%X%X%X%X%X%X%X",
"%X%X%X%X%X%X%X%X%X%X%X_ H.f.U.Y.%X%X%X%X%X%X%X%X%X%X%X%X%X%X%X%Xs O         O k O             %X%X%X%X%X%X      o z %X%X%X%X%X%X%X%X%X%X%X%X%X%X%X%X%X%X%X%X%X%X",
"%X%X%X%X%X%X%X%X%X%X%X| H.Y.Y.%X%X%X%X%X%X%X%X%X%X%X%X%X%X%X%X%Xp O       # p _ k =           %X%X%X%X%X%X        _ O.%X%X%X%X%X%X%X%X%X%X%X%X%X%X%X%X%X%X%X%X%X",
"%X%X%X%X%X%X%X%X%X%X%.G.h.g.U.%X%X%X%X%X%X%X%X%X%X%X%X%X%X%X%X%Xl O     = p _ _ K :           %X%X%X%X%X      o -  .%X%X%X%X%X%X%X%X%X%X%X%X%X%X%X%X%X%X%X%X%X%X",
"%X%X%X%X%X%X%X%X%XO.L.C.C.x.J.%X%X%X%X%X%X%X%X%X%X%X%X%X%X%X%X%X_ =   o s ^ ' ' ^ : o         %X%X%X%X        = l %X%X%X%X%X%X%X%X%X%X%X%X%X%X%X%X%X%X%X%X%X%X%X",
"%X%X%X%X%X%X%X%Xo.I.c.l.%X%X%X%X%X%X%X%X%X%X%X%X%X%X%X%X%X%X%X%X_ #   o p l ' O.' l i o       %X%X%X%X        = _ %X%X%X%X%X%X%X%X%X%X%X%X%X%X%X%X%X%X%X%X%X%X%X",
"%X/././././.%X%X%X%X%X%X%X%X%X%X%X%X%X%X%X%X%X%X%X%X%X%X%X%X%X%X' *   . p _ l y l ] p o     %X%X%X%X%X      : k %X%X%X%X%X%X%X%X%X%X%X%X%X%X%X%X%X%X%X%X%X%X%X%X",
"%X(././././.%X%X%X%X%X%X%X%X%X%X%X%X%X%X%X%X%X%X%X%X%X%X%X%X%X%XO.y o o p _ z O k ' s .     %X%X%X%Xo     O l %X%X%X%X%X%X%X%X%X%X%X%X%X%X%X%X%X%X%X%X%X%X%X%X%X",
"%X%X%X%X%X%X%X%X%X%X%X%X%X%X%X%X%X%X%X%X%X%X%X%X%X%X%X%X%X%X%X%X%Xl =   y K '  .' ^ p       %X%X%Xp o   O p %X%X%X%X%X%X%X%X%X%X%X%X%X%X%X%X%X%X%X%X%X%X%X%X%X%X",
"%X%X%X%X%X%X%X%X%X%X%X%X%X%X%X%X%X%X%X%X%X%X%X%X%X%X%X%X%X%X%X%X%Xl =   p _ ' ' _ y O     = %X%X[ W W S r %X%X%X%X%X%X%X%X%X%X%X%X%X%X%X%X%X%X%X%X%X%X%X%X%X%X%X",
"%X%X%X%X%X%X%X%X%X%X%X%X%X%X%X%X%X%X%X%X%X%X%X%X%X%X%X%X%X%X%X%X%Xl :   : k _ _ l :       %X%X{ Q Q.P.I %X%X%X%X%X%X%X%X%X%X%X%X%X%X%X%X%X%X%X%X%X%X%X%X%X%X%X%X",
"%X%XO.O.O.%X%X%X%X%X%X%X%X%X%X%X%X%X%X%X%X%X%X%X%X%X%X%X%X%X%X%X%X' p     = k _ k =     %X%X .P.g.H.] %X%X%X%X%X%X%X%X%X%X%X%X%X%X%X%X%X%X%X%X%X%X%X%X%X%X%X%X%X",
"%XO.%X%X%X%X%X%X%X%X%X%X%X%X%X%X%X%X%X%X%X%X%X%X%X%X%X%X%X%X%X%X%XO.l       = l ; o     %X%XO.K.K. .%X%X%X%X%X%X%X%X%X%X%X%X%X%X%X%X%X%X%X%X%X%X%X%X%X%X%X%X%X%X",
"%XO.%X%X%X%X%X%X%X%X%X%X%X%X%X%X%X%X%X%X%X%X%X%X%X%X%X%X%X%X%X%Xk s :         =         : %X%X;.>.*.%X%X%X%X%X%X%X%X%X%X%X%X%X%X%X%X%X%X%X%X%X%X%X%X%X%X%X%X%X%X",
"%X%X%X%X%X%X%X%X%X%X%X%X%X%X%X%X%X%X%X%X%X%X%X%X%X%X%X%X%X%X%X%Xi                       = s %X} +.g.%X%X%X%X%X%X%X%X%X%X%X%X%X%X%X%X%X%X%X%X%X%X%X%X%X%X%X%X%X%X",
"%X%X%X%X%X%X%X%X%X%X%X%X%X%X%X%X%X%X%X%X%X%X%X%X%X%X%X%X%X%X_ k                           = _ %X%X%X%X%X%X%X%X%X%X%X%X%X%X%X%X%X%X%X%X%X%X%X%X%X%X%X%X%X%X%X%X%X",
"%X%X%X%X%X%X%X%X%X%X%X%X%X%X%X%X%X%X%X%X%X%X%X%X%X%X%X%X%Xk y O                           o = i %X%X%X%X%X%X%X%X%X%X%X%X%X%X%X%X%X%X%X%X%X%X%X%X%X%X%X%X%X%X%X%X",
"%X%X%X%X%X%X%X%X%X%X%X%X%X%X%X%X%X%X%X%X%X%X%X%X%X%X%X%X%XK =                                 = k %X%X%X%X%X%X%X%X%X%X%X%X%X%X%X%X%X%X%X%X%X%X%X%X%X%X%X%X%X%X%X",
"%X%X%X%X%X%X%X%X%X%X%X%X%X%X%X%X%X%X%X%X%X%X%X%X%X%X%X%X%X_ :                                   > _ %X%X%X%X%X%X%X%X%X%X%X%X%X%X%X%X%X%X%X%X%X%X%X%X%X%X%X%X%X%X",
"%X%X%X%X%X%X%X%X%X%X%X%X%X%X%X%X%X%X%X%X%X%X%X%X%X%X%X%Xg = o           %X%X%X%X%X%X%X            = p %X%X%X%X%X%X%X%X%X%X%X%X%X%X%X%X%X%X%X%X%X%X%X%X%X%X%X%X%X",
"%X%X%X%X%X%X%X%X%X%X%X%X%X%X%X%X%X%X%X%X%X%X%X%X%X%X%X%Xi             %X%X%X%X%X%X%X%X%X            f %X%X%X%X%X%X%X%X%X%X%X%X%X%X%X%X%X%X%X%X%X%X%X%X%X%X%X%X%X",
"%X%X%X%X%X%X%X%X%X%X%X%X%X%X%X%X%X%X%X%X%X%X%X%X%X%X%X%Xy o         %X%X%X%X%X%X%X%X%X%X          o K %X%X%X%X%X%X%X%X%X%X%X%X%X%X%X%X%X%X%X%X%X%X%X%X%X%X%X%X%X",
"%X%X%X%X%X%X%X%X%X%X%X%X%X%X%X%X%X%X%X%X%X%X%X%X%X%X%X%Xi .       %X%X%X%X%X%X%X%X%X%X%X          o ' %X%X%X%X%X%X%X%X%X%X%X%X%X%X%X%X%X%X%X%X%X%X%X%X%X%X%X%X%X",
"%X%X%X%X%X%X%X%X%X%X%X%X%X%X%X%X%X%X%X%X%X%X%X%X%X%X%X%Xk o       %X%X%X%X%X%X%X%X%X%X%X        O i %X%X%X%X%X%X%X%X%X%X%X%X%X%X%X%X%X%X%X%X%X%X%X%X%X%X%X%X%X%X",
"%X%X%X%X%X%X%X%X%X%X%X%X%X%X%X%X%X%X%X%X%X%X%X%X%X%X%X%X( o         %X%X%X%X%X%X%X%X%X%X        = _ %X%X%X%X%X%X%X%X%X%X%X%X%X%X%X%X%X%X%X%X%X%X%X%X%X%X%X%X%X%X",
"%X%X%X%X%X%X%X%X%X%X%X%X%X%X%X%X%X%X%X%X%X%X%X%X%X%X%X%X' O   o o   i %X%X%X%X%X%X%X%X        o : %X%X%X%X%X%X%X%X%X%X%X%X%X%X%X%X%X%X%X%X%X%X%X%X%X%X%X%X%X%X%X",
"%X%X%X%X%X%X%X%X%X%X%X%X%X%X%X%X%X%X%X%X%X%X%X%X%X%X%X%X%Xp w u z h ) X.%X%X%X%X%X%X%X  * u u f ^ ) X.%X%X%X%X%X%X%X%X%X%X%X%X%X%X%X%X%X%X%X%X%X%X%X%X%X%X%X%X%X",
"%X%X%X%X%X%X%X%X%X%X%X%X%X%X%X%X%X%X%X%X%X%X%X%X%X%X%X%X%XE R r.T.t.I.T...%X%X%X%X%X%XD U @.@.! I.t.t.&.,.X.%X%X%X%X%X%X%X%X%X%X%X%X%X%X%X%X%X%X%X%X%X%X%X%X%X%X",
"%X%X%X%X%X%X%X%X%X%X%X%X%X%X%X%X%X%X%X%X%X%X%X%X%X%X%XU.K.Y.b.k.w.k.i.w.+.%X%X%X%X%X%XR.Y.Y.Y.b.i.w.C.! ` $.%X%X%X%X%X%X%X%X%X%X%X%X%X%X%X%X%X%X%X%X%X%X%X%X%X%X",
"%X%X%X%X%X%X%X%X%X%X%X%X%X%X%X%X%X%X%X%X%X%X%X%X%X%X%X%Xf.K.Q.~ . ! L @ Q %X%X%X%X%X%XU.U.s.U.Q.H @ r.S $ s.%X%X%X%X%X%X%X%X%X%X%X%X%X%X%X%X%X%X%X%X%X%X%X%X%X%X",
"%X%X%X%X%X%X%X%X%X%X%X%X%X%X%X%X%X%X%X%X%X%X%X%X%X%X%X%X%X%X%X%X%X%X%X%X%X%X%X%X%X%X%X%X%X%X%X%X%X%X%X%X%X%X%X%X%X%X%X%X%X%X%X%X%X%X%X%X%X%X%X%X%X%X%X%X%X%X%X%X",
"%X%X%X%X%X%X%X%X%X%X%X%X%X%X%X%X%X%X%X%X%X%X%X%X%X%X%X%X%X%X%X%X%X%X%X%X%X%X%X%X%X%X%X%X%X%X%X%X%X%X%X%X%X%X%X%X%X%X%X%X%X%X%X%X%X%X%X%X%X%X%X%X%X%X%X%X%X%X%X%X",
"%X%X%X%X%X%X%X%X%X%X%X%X%X%X%X%X%X%X%X%X%X%X%X%X%X%X%X%X%X%X%X%X%X%X%X%X%X%X%X%X%X%X%X%X%X%X%X%X%X%X%X%X%X%X%X%X%X%X%X%X%X%X%X%X%X%X%X%X%X%X%X%X%X%X%X%X%X%X%X%X",
"%X%X%X%X%X%X%X%X%X%X%X%X%X%X%X%X%X%X%X%X%X%X%X%X%X%X%X%X%X%X%X%X%X%X%X%X%X%X%X%X%X%X%X%X%X%X%X%X%X%X%X%X%X%X%X%X%X%X%X%X%X%X%X%X%X%X%X%X%X%X%X%X%X%X%X%X%X%X%X%X",
"%X%X%X%X%X%X%X%X%X%X%X%X%X%X%X%X%X%X%X%X%X%X%X%X%X%X%X%X%X%X%X%X%X%X%X%X%X%X%X%X%X%X%X%X%X%X%X%X%X%X%X%X%X%X%X%X%X%X%X%X%X%X%X%X%X%X%X%X%X%X%X%X%X%X%X%X%X%X%X%X",
"%X%X%X%X%X%X%X%X%X%X%X%X%X%X%X%X%X%X%X%X%X%X%X%X%X%X%X%X%X%X%X%X%X%X%X%X%X%X%X%X%X%X%X%X%X%X%X%X%X%X%X%X%X%X%X%X%X%X%X%X%X%X%X%X%X%X%X%X%X%X%X%X%X%X%X%X%X%X%X%X",
"%X%X%X%X%X%X%X%X%X%X%X%X%X%X%X%X%X%X%X%X%X%X%X%X%X%X%X%X%X%X%X%X%X%X%X%X%X%X%X%X%X%X%X%X%X%X%X%X%X%X%X%X%X%X%X%X%X%X%X%X%X%X%X%X%X%X%X%X%X%X%X%X%X%X%X%X%X%X%X%X",
"%X%X%X%X%X%X%X%X%X%X%X%X%X%X%X%X%X%X%X%X%X%X%X%X%X%X%X%X%X%X%X%X%X%X%X%X%X%X%X%X%X%X%X%X%X%X%X%X%X%X%X%X%X%X%X%X%X%X%X%X%X%X%X%X%X%X%X%X%X%X%X%X%X%X%X%X%X%X%X%X",
"%X%X%X%X%X%X%X%X%X%X%X%X%X%X%X%X%X%X%X%X%X%X%X%X%X%X%X%X%X%X%X%X%X%X%X%X%X%X%X%X%X%X%X%X%X%X%X%X%X%X%X%X%X%X%X%X%X%X%X%X%X%X%X%X%X%X%X%X%X%X%X%X%X%X%X%X%X%X%X%X",
"%X%X%X%X%X%X%X%X%X%X%X%X%X%X%X%X%X%X%X%X%X%X%X%X%X%X%X%X%X%X%X%X%X%X%X%X%X%X%X%X%X%X%X%X%X%X%X%X%X%X%X%X%X%X%X%X%X%X%X%X%X%X%X%X%X%X%X%X%X%X%X%X%X%X%X%X%X%X%X%X",
"%X%X%X%X%X%X%X%X%X%X%X%X%X%X%X%X%X%X%X%X%X%X%X%X%X%X%X%X%X%X%X%X%X%X%X%X%X%X%X%X%X%X%X%X%X%X%X%X%X%X%X%X%X%X%X%X%X%X%X%X%X%X%X%X%X%X%X%X%X%X%X%X%X%X%X%X%X%X%X%X"
};
