/* XPM */
static char *_1874_2dccd4e2438b5c7612353bdbfadd531716aceed9609c3290afacb1f924eb0213[] = {
/* columns rows colors chars-per-pixel */
"80 80 202 2 ",
"   c #000000",
".  c #0B0301",
"X  c #070709",
"o  c #04090C",
"O  c #0B0B0B",
"+  c #140001",
"@  c #120C06",
"#  c #130E09",
"$  c #1C0602",
"%  c #171009",
"&  c #1A140C",
"*  c #1B1A0F",
"=  c #1C1107",
"-  c #070C11",
";  c #030F19",
":  c #0E0F10",
">  c #0C141A",
",  c #0B141B",
"<  c #141414",
"1  c #1A1B13",
"2  c #16191B",
"3  c #1C1C1C",
"4  c #1B1610",
"5  c #2B0900",
"6  c #290005",
"7  c #340100",
"8  c #3F0000",
"9  c #26150A",
"0  c #3B1B0C",
"q  c #291D12",
"w  c #271E14",
"e  c #2B2115",
"r  c #2B2318",
"t  c #322316",
"y  c #3A2717",
"u  c #3E2B19",
"i  c #352818",
"p  c #3F321E",
"a  c #161C22",
"s  c #1B252C",
"d  c #1E2326",
"f  c #232323",
"g  c #292724",
"h  c #2E2922",
"j  c #252729",
"k  c #2C2C2C",
"l  c #22282E",
"z  c #39322A",
"x  c #3D3B21",
"c  c #232D35",
"v  c #2D2F31",
"b  c #2A343B",
"n  c #343434",
"m  c #393735",
"M  c #333638",
"N  c #3C3C3C",
"B  c #3D3A36",
"V  c #322C27",
"C  c #45240E",
"Z  c #502D0F",
"A  c #453100",
"S  c #472610",
"D  c #412F1D",
"F  c #492613",
"G  c #41311D",
"H  c #4F371C",
"J  c #583519",
"K  c #643C1E",
"L  c #7B3710",
"P  c #413E2B",
"I  c #5C3A22",
"U  c #513723",
"Y  c #473D36",
"T  c #523D32",
"R  c #582932",
"E  c #5B4329",
"W  c #50412E",
"Q  c #4E4339",
"!  c #554B3B",
"~  c #4E4929",
"^  c #6A4928",
"/  c #774F2A",
"(  c #6A5B28",
")  c #665B25",
"_  c #694733",
"`  c #6C5439",
"'  c #7B5734",
"]  c #7C5B34",
"[  c #7F543B",
"{  c #706327",
"}  c #383D42",
"|  c #6A2242",
" . c #3B4145",
".. c #3C4249",
"X. c #3E4951",
"o. c #434343",
"O. c #454749",
"+. c #46494C",
"@. c #4B4B4B",
"#. c #4D4944",
"$. c #544E47",
"%. c #504A48",
"&. c #58524B",
"*. c #444F56",
"=. c #4C5156",
"-. c #4D565C",
";. c #535353",
":. c #53565A",
">. c #545A5D",
",. c #595959",
"<. c #585757",
"1. c #635343",
"2. c #6B5641",
"3. c #685A4D",
"4. c #755645",
"5. c #7C5A44",
"6. c #795B48",
"7. c #695E56",
"8. c #74624D",
"9. c #7E6042",
"0. c #66615E",
"q. c #736659",
"w. c #565C61",
"e. c gray38",
"r. c #686868",
"t. c #766D61",
"y. c #676D70",
"u. c #7D7B7A",
"i. c #890400",
"p. c #AC061F",
"a. c #BD3D0E",
"s. c #BC0922",
"d. c #C01810",
"f. c #D73C1E",
"g. c #8B4518",
"h. c #97552C",
"j. c #805B33",
"k. c #9D5D32",
"l. c #B05F2B",
"z. c #8A762C",
"x. c #86613C",
"c. c #8A633B",
"v. c #8F683F",
"b. c #9B6436",
"n. c #90653A",
"m. c #9D693D",
"M. c #97673C",
"N. c #97703A",
"B. c #BD642F",
"V. c #B67D27",
"C. c #A56D3B",
"Z. c #AA6636",
"A. c #BC6631",
"S. c #B26232",
"D. c #B17239",
"F. c #D24F2D",
"G. c #CC5F3D",
"H. c #C45527",
"J. c #C4642E",
"K. c #C66B2F",
"L. c #C66931",
"P. c #992077",
"I. c #943B6A",
"U. c #DD344D",
"Y. c #D8316A",
"T. c #8A5D43",
"R. c #864752",
"E. c #8E6A42",
"W. c #8A6B4A",
"Q. c #89644F",
"!. c #936A41",
"~. c #986D42",
"^. c #9D7145",
"/. c #9D754A",
"(. c #947145",
"). c #816C52",
"_. c #8B765D",
"`. c #91735C",
"'. c #9D7C5C",
"]. c #A37445",
"[. c #AF7741",
"{. c #B87B53",
"}. c #D0465F",
"|. c #D4484B",
" X c #BA8545",
".X c #B78851",
"XX c #A88A6B",
"oX c #B78C64",
"OX c #AD9071",
"+X c #B09373",
"@X c #C2916A",
"#X c #D80C88",
"$X c #F21BAA",
"%X c #DA0EC5",
"&X c #E00FC8",
"*X c #B39B83",
"=X c #B1B4AE",
"-X c #BABAB9",
";X c #D6A981",
":X c #BDC0BD",
">X c #CBCBC9",
",X c None",
/* pixels */
",X,X,X,X,X,X,X,X,X,X,X,X,X,X,X,X,X,X,X,X,X,X,X,X,X,X,X,X,X,X,X,X,X,X,X,X,X,X,X,X,X,X,X,X,X,X,X,X,X,X,X,X,X,X,X,X,X,X,X,X,X,X,X,X,X,X,X,X,X,X,X,X,X,X,X,X,X,X,X,X",
",X,X,X,X,X,X,X,X,X,X,X,X,X,X,X,X,X,X,X,X,X,X,X,X,X,X,X,X,X,X,X,X,X,X,X,X,X,X,X,X,X,X,X,X,X,X,X,X,X,X,X,X,X,X,X,X,X,X,X,X,X,X,X,X,X,X,X,X,X,X,X,X,X,X,X,X,X,X,X,X",
",X,X,X,X,X,X,X,X,X,X,X,X,X,X,X,X,X,X,X,X,X,X,X,X,X,X,X,X,X,X,X,X,X,X,X,X,X,X,X,X,X,X,X,X,X,X,X,X,X,X,X,X,X,X,X,X,X,X,X,X,X,X,X,X,X,X,X,X,X,X,X,X,X,X,X,X,X,X,X,X",
",X,X,X,X,X,X,X,X,X,X,X,X,X,X,X,X,X,X,X,X,X,X,X,X,X,X,X,X,X,X,X,X,X,X,X,X,X,X,X,X,X,X,X,X,X,X,X,X,X,X,X,X,X,X,X,X,X,X,X,X,X,X,X,X,X,X,X,X,X,X,X,X,X,X,X,X,X,X,X,X",
",X,X,X,X,X,X,X,X,X,X,X,X,X,X,X,X,X,X,X,X,X,X,X,X,X,X,X,X,X,X,X,X,X,X,X,X,X,X,X,X,X,X,X,X,X,X,X,X,X,X,X,X,X,X,X,X,X,X,X,X,X,X,X,X,X,X,X,X,X,X,X,X,X,X,X,X,X,X,X,X",
",X,X,X,X,X,X,X,X,X,X,X,X,X,X,X,X,X,X,X,X,X,X,X,X,X,X,X,X,X,X,X,X,X,X,X,X,X,X,X,X,X,X,X,X,X,X,X,X,X,X,X,X,X,X,X,X,X,X,X,X,X,X,X,X,X,X,X,X,X,X,X,X,X,X,X,X,X,X,X,X",
",X,X,X,X,X,X,X,X,X,X,X,X,X,X,X,X,X,X,X,X,X,X,X,X,X,X,X,X,X,X,X,X,X,X,X,X,X,X,X,X,X,X,X,X,X,X,X,X,X,X,X,X,X,X,X,X,X,X,X,X,X,X,X,X,X,X,X,X,X,X,X,X,X,X,X,X,X,X,X,X",
",X,X,X,X,X,X,X,X,X,X,X,X,X,X,X,X,X,X,X,X,X,X,X,X,X,X,X,X,X,X,X,X,X,X,X,X,X,X,X,X,X,X,X,X,X,X,X,X,X,X,X,X,X,X,X,X,X,X,X,X,X,X,X,X,X,X,X,X,X,X,X,X,X,X,X,X,X,X,X,X",
",X,X,X,X,X,X,X,X,X,X,X,X,X,X,X,X,X,X,X,X,X,X,X,X,X,X,X,X,X,X,X,X,X,X,X,X,X,X,X,X,X,X,X,X,X,X,X,X,X,X,X,X,X,X,X,X,X,X,X,X,X,X,X,X,X,X,X,X,X,X,X,X,X,X,X,X,X,X,X,X",
",X,X,X,X,X,X,X,X,X,X,X,X,X,X,X,X,X,X,X,X,X,X,X,X,X,X,X,X,X,X,X,X,X,X,X,X,X,Xo.;.;.o.,X,X,X,X,X,X,X,X,X,X,X,X,X,X,X,X,X,X,X,X,X,X,X,X,X,X,X,X,X,X,X,X,X,X,X,X,X,X",
",X,X,X,X,X,X,X,X,X,X,X,X,X,X,X,X,X,X,X,X,X,X,X,X,X,X,X,X,X,X,X,X,X,X,X,X,X,Xn N N n ,X,X,X,X,X,X,X,X,X,X,X,X,X,X,X,X,X,X,X,X,X,X,X,X,X,X,X,X,X,X,X,X,X,X,X,X,X,X",
",X,X,X,X,X,X,X,X,X,X,X,X,X,X,X,X,X,X,X,X,X,X,X,X,X,X,X,X,X,X,X,X,X,X,Xv ;.#.o     X n o.n ,X,X,X,X,X,X#.;.=.o.,X,X,X,X,X,X,X,X,X,X,X,X,X,X,X,X,X,X,X,X,X,X,X,X,X",
",X,X,X,X,X,X,X,X,X,X,X,X,X,X,X,X,X,X,X,X,X,X,X,X,X@.,.e.;.,X,X,X,X,X,XN f X           d N ,X,X,Xn ;.N < 2 1 f @.o.k ,X,X,X,X,X,X,X,X,X,X,X,X,X,X,X,X,X,X,X,X,X,X",
",X,X,X,X,X,X,X,X,X,X,X,X,X,X,X,X,X,X,X,X,X,X,X,X,Xn n n k o.,X,X,X,X,Xj - 1 G i y G 3 - k ,X,X,Xn k :         3 n N ,X,X,X,X,X,X,X,X,X,X,X,X,X,X,X,X,X,X,X,X,X,X",
",X,X,X,X,X,X,X,X,X,X,X,X,X,X,X,X,X,X,X,X,X,Xv Q N O       k o.n ,X,X%.  j t.E.N.N.E.t.j   @.,X,Xk X   & @ # #   < N ,X,X,X,X,X,X,X,X,X,X,X,X,X,X,X,X,X,X,X,X,X,X",
",X,X,X,X,X,X,X,X,X,X,X,X,X,X,X,X,X,X,X,X,X,XM g O           > m ,X,Xh.  T W.1 ( ( 1 W.E   O.y. .X s 3.x.] j.5.O.- 2 =.>.,X,X,X,X,X,X,X,X,X,X,X,X,X,X,X,X,X,X,X,X",
",X,X,X,X,X,X,X,X,X,X,X,X,X,X,X,X,X,X,X,X,X,XV X               3 ,X,Xk.@ & 0 8 P.P.8 0 9 o @.`.I   &._.~ n.{ ! _.g @ [ T.,X,X,X,X,X,X,X,X,X,X,X,X,X,X,X,X,X,X,X,X",
",X,X,X,X,X,X,X,X,X,X,X,X,X,X,X,X,X,X,X,X,X,X9   O 4 & % & < X   ,X,Xx.O   5 d.$X$Xs.5   - -.{.g.. E J + | | + ^ w 9 l.L.,X,X,X,X,X,X,X,X,X,X,X,X,X,X,X,X,X,X,X,X",
",X,X,X,X,X,X,X,X,X,X,X,X,X,X,X,X,X,X,X,X!.x.= ; <.E.n.c.M.q.c   ^ ,X,X. i m.J.G.L.L.m.i X ,X'./ .   7 p.%XY.L .   q n.m.,X,X,X,X,X,X,X,X,X,X,X,X,X,X,X,X,X,X,X,X",
",X,X,X,X,X,X,X,X,X,X,X,X,X,X,X,X,X,X,X,XZ.k.= g `.P ) z.x ).2.  Q ` ,X  B XX].A A ].XXY   ,X,X] X % L f.Y.U.a.Z   * ,X,X,X,X,X,X,X,X,X,X,X,X,X,X,X,X,X,X,X,X,X,X",
",X,X,X,X,X,X,X,X,X,X,X,X,X,X,X,X,X,X,X,XK.B.9 9 I $ | I.6 F H X ..,X,X  > $./.P G /.$.,   ,X,X,X  8.@X@X.X.X@XoXh . ,X,X,X,X,X,X,X,X,X,X,X,X,X,X,X,X,X,X,X,X,X,X",
",X,X,X,X,X,X,X,X,X,X,X,X,X,X,X,X,X,X,X,X,X,X9   + i.#X&Xs.7   X ,X,X,X,X  & !./.].!.4   ,X,X,X,XX u.>X-X:X=X:X-XO.  ,X,X,X,X,X,X,X,X,X,X,X,X,X,X,X,X,X,X,X,X,X,X",
",X,X,X,X,X,X,X,X,X,X,X,X,X,X,X,X,X,X,X,X,X,X  r ' H.|.}.F.k.p   +.,X,X,X,XN w t q r N ,X,X,X,X,Xm l &.+XOXXX+X,X,X,X,X,X,X,X,X,X,X,X,X,X,X,X,X,X,X,X,X,X,X,X,X,X",
",X,X,X,X,X,X,X,X,X,X,X,X,X,X,X,X,X,X,X,X,X,X,Xw ' D.V.V. X~.D   f M ,X,X,.v         v ,.,X,X,X,.v   . J ( K ,X,X,X,X,X,X,X,X,X,X,X,X,X,X,X,X,X,X,X,X,X,X,X,X,X,X",
",X,X,X,X,X,X,X,X,X,X,X,X,X,X,X,X,X,X,X,X,X,X,X,X. ` /.(.E.w       O n o.3             3 N v N k         a v ,X,X,X,X,X,X,X,X,X,X,X,X,X,X,X,X,X,X,X,X,X,X,X,X,X,X",
",X,X,X,X,X,X,X,X,X,X,X,X,X,X,X,X,X,X,X,X,X,X,X,X,X,X#.m 4 .         O : X             X O O O O           2 k ,X,X,X,X,X,X,X,X,X,X,X,X,X,X,X,X,X,X,X,X,X,X,X,X,X",
",X,X,X,X,X,X,X,X,X,X,X,X,X,X,X,X,X,X,X,X,X,X,X,X,X,Xa o                                                   1  .,X,X,X,X,X,X,X,X,X,X,X,X,X,X,X,X,X,X,X,X,X,X,X,X,X",
",X,X,X,X,X,X,X,X,X,X,X,X,X,X,X,X,X,X,X,X,X,X,X,X,X} 1                                                     j <.,X,X,X,X,X,X,X,X,X,X,X,X,X,X,X,X,X,X,X,X,X,X,X,X,X",
",X,X,X,X,X,X,X,X,X,X,X,X,X,X,X,X,X,X,X,X,X,X,X,X,X@.f                                                     n e.,X,X,X,X,X,X,X,X,X,X,X,X,X,X,X,X,X,X,X,X,X,X,X,X,X",
",X,X,X,X,X,X,X,X,X,X,X,X,X,X,X,X,X,X,X,X,X,X,X,Xk f O                                                     O g k ,X,X,X,X,X,X,X,X,X,X,X,X,X,X,X,X,X,X,X,X,X,X,X,X",
",X,X,X,X,X,X,X,X,X,X,X,X,X,X,X,X,X,X,X,X,X,X,X,Xk X                                                           k ,X,X,X,X,X,X,X,X,X,X,X,X,X,X,X,X,X,X,X,X,X,X,X,X",
",X,X,X,X,X,X,X,X,X,X,X,X,X,X,X,X,X,X,X,X,X,X,X,Xo.O                   X                   X                 O k ,X,X,X,X,X,X,X,X,X,X,X,X,X,X,X,X,X,X,X,X,X,X,X,X",
",X,X,X,X,X,X,X,X,X,X,X,X,X,X,X,X,X,X,X,X,X,X,X,X,.<         O f O   X g <               O g <               O k ,X,X,X,X,X,X,X,X,X,X,X,X,X,X,X,X,X,X,X,X,X,X,X,X",
",X,X,X,X,X,X,X,X,X,X,X,X,X,X,X,X,X,X,X,X,X,X,Xm n O         < n <   X f <               X d <               O k ,X,X,X,X,X,X,X,X,X,X,X,X,X,X,X,X,X,X,X,X,X,X,X,X",
",X,X,X,X,X,X,X,X,X,X,X,X,X,X,X,X,X,X,X,X,X,Xn 3           ,X,Xn <                                           O o.,X,X,X,X,X,X,X,X,X,X,X,X,X,X,X,X,X,X,X,X,X,X,X,X",
",X,X,X,X,X,X,X,X,X,X,X,X,X,X,X,X,X,X,X,X,X,Xm 2           ,X,Xk O                                 ,X,X      < :.,X,X,X,X,X,X,X,X,X,X,X,X,X,X,X,X,X,X,X,X,X,X,X,X",
",X,X,X,X,X,X,X,X,X,X,X,X,X,X,X,X,X,X,X,X,X,Xn f           ,X,XM O                                 ,X,X,X    O g n ,X,X,X,X,X,X,X,X,X,X,X,X,X,X,X,X,X,X,X,X,X,X,X",
",X,X,X,X,X,X,X,X,X,X,X,X,X,X,X,X,X,X,X,X,X,Xn 3           ,X,X#.<                                 ,X,X,X        1 n ,X,X,X,X,X,X,X,X,X,X,X,X,X,X,X,X,X,X,X,X,X,X",
",X,X,X,X,X,X,X,X,X,X,X,X,X,X,X,X,X,X,X,X,X,Xn 2         ,X,X,X:.2                                 ,X,X,X        2 m ,X,X,X,X,X,X,X,X,X,X,X,X,X,X,X,X,X,X,X,X,X,X",
",X,X,X,X,X,X,X,X,X,X,X,X,X,X,X,X,X,X,X,X,X,Xo.g         ,X,X,X,Xn O           < <                 ,X,X,X        w M ,X,X,X,X,X,X,X,X,X,X,X,X,X,X,X,X,X,X,X,X,X,X",
",X,X,X,X,X,X,X,X,X,X,X,X,X,X,X,X,X,X,X,X,X,X:.k         ,X,X,X,XY 3         O n n %               ,X,X,X        a M ,X,X,X,X,X,X,X,X,X,X,X,X,X,X,X,X,X,X,X,X,X,X",
",X,X,X,X,X,X,X,X,X,X,X,X,X,X,X,X,X,X,X,X,X,Xe.m         ,X,X,X,XN 2       X n o.@.k X             ,X,X,X        a m ,X,X,X,X,X,X,X,X,X,X,X,X,X,X,X,X,X,X,X,X,X,X",
",X,X,X,X,X,X,X,X,X,X,X,X,X,X,X,X,X,X,X,X,X,X,X@.w X       ,X,X,XN 3       O o.@.@. .O           ,X,X,X,X,X      w m ,X,X,X,X,X,X,X,X,X,X,X,X,X,X,X,X,X,X,X,X,X,X",
",X,X,X,X,X,X,X,X,X,X,X,X,X,X,X,X,X,X,X,X,X,X,X,Xn X       ,X,X,Xn 2     X d o.<.,.O.w o         ,X,X,X,X,X,X    a m ,X,X,X,X,X,X,X,X,X,X,X,X,X,X,X,X,X,X,X,X,X,X",
",X,X,X,X,X,X,X,X,X,X,X,X,X,X,X,X,X,X,X,X,X,X,X,XY >       ,X,X,XN 3     3 o.@.@.@.@.o.3         ,X,X,X,X,X,X    a m ,X,X,X,X,X,X,X,X,X,X,X,X,X,X,X,X,X,X,X,X,X,X",
",X,X,X,X,X,X,X,X,X,X,X,X,X,X,X,X,X,X,X,X,X,X,X,X,Xn :     ,X,X,X;.f     < @.:.2 < <.@.2         ,X,X,X,X,X,X    w M ,X,X,X,X,X,X,X,X,X,X,X,X,X,X,X,X,X,X,X,X,X,X",
",X,X,X,X,X,X,X,X,X,X,X,X,X,X,X,X,X,X,X,X,X,X,X,X,X@.2       ,X,Xr.k     X f @.M N ;.r           ,X,X,X,X,X,X    a n ,X,X,X,X,X,X,X,X,X,X,X,X,X,X,X,X,X,X,X,X,X,X",
",X,X,X,X,X,X,X,X,X,X,X,X,X,X,X,X,X,X,X,X,X,X,X,X,X@.k X     < ,X,XN X     X Q e.e.} X           ,X,X,X,X,X,X    f N ,X,X,X,X,X,X,X,X,X,X,X,X,X,X,X,X,X,X,X,X,X,X",
",X,X,X,X,X,X,X,X,X,X,X,X,X,X,X,X,X,X,X,X,X,X,X,X,X,Xo.f       ,X,X,Xk     O o.;.;.o.O           ,X,X,X,X,X,X    k @.,X,X,X,X,X,X,X,X,X,X,X,X,X,X,X,X,X,X,X,X,X,X",
",X,X,X,X,X,X,X,X,X,X,X,X,X,X,X,X,X,X,X,X,X,X,X,X,X,X,X,Xf O     ,X,Xo.X   O N @.o.N O         ,X,X,X,X,X,X,X2   g @.,X,X,X,X,X,X,X,X,X,X,X,X,X,X,X,X,X,X,X,X,X,X",
",X,X,X,X,X,X,X,X,X,X,X,X,X,X,X,X,X,X,X,X,X,X,X,X,X,X,X,Xo.<     ,XN k X     3 N N 3       O ,X,X,X,X,X,X,X,Xv   g ,.,X,X,X,X,X,X,X,X,X,X,X,X,X,X,X,X,X,X,X,X,X,X",
",X,X,X,X,X,X,X,X,X,X,X,X,X,X,X,X,X,X,X,X,X,X,X,X,X,X,X,X@.3   O k 3           f g       O n ,X,X,X,X,X,X,X<.n   v w.,X,X,X,X,X,X,X,X,X,X,X,X,X,X,X,X,X,X,X,X,X,X",
",X,X,X,X,X,X,X,X,X,X,X,X,X,X,X,X,X,X,X,X,X,X,X,X,X,X,X,X,Xo.n k < .           X X       O o.,X,X,X,X,X,X,.;.} b M N ,X,X,X,X,X,X,X,X,X,X,X,X,X,X,X,X,X,X,X,X,X,X",
",X,X,X,X,X,X,X,X,X,X,X,X,X,X,X,X,X,X,X,X,X,X,X,X,X,X,X,X,XN N 3                         X f k ,X,X,X,X,X:.&.4.!.T d ,X,X,X,X,X,X,X,X,X,X,X,X,X,X,X,X,X,X,X,X,X,X",
",X,X,X,X,X,X,X,X,X,X,X,X,X,X,X,X,X,X,X,X,X,X,X,X,X,X,X,X,XN 3                               2 N ,X,X,X,X:.8.D.K._ c ,X,X,X,X,X,X,X,X,X,X,X,X,X,X,X,X,X,X,X,X,X,X",
",X,X,X,X,X,X,X,X,X,X,X,X,X,X,X,X,X,X,X,X,X,X,X,X,X,X,X,X,X@.k                               k @.,X,X,X,Xw.8.C.C.2.N ,X,X,X,X,X,X,X,X,X,X,X,X,X,X,X,X,X,X,X,X,X,X",
",X,X,X,X,X,X,X,X,X,X,X,X,X,X,X,X,X,X,X,X,X,X,X,X,X,X,X,X,X;.k                               < g k ,X,X,X,X7.3.1.#.,X,X,X,X,X,X,X,X,X,X,X,X,X,X,X,X,X,X,X,X,X,X,X",
",X,X,X,X,X,X,X,X,X,X,X,X,X,X,X,X,X,X,X,X,X,X,X,X,X,X,X,X,X:.N                                 O m ,X,X,X,X,X=. .,X,X,X,X,X,X,X,X,X,X,X,X,X,X,X,X,X,X,X,X,X,X,X,X",
",X,X,X,X,X,X,X,X,X,X,X,X,X,X,X,X,X,X,X,X,X,X,X,X,X,X,X,X,X:.o.          ,X,X,X,X,X,X          < o.,X,X,X,X,X,X,X,X,X,X,X,X,X,X,X,X,X,X,X,X,X,X,X,X,X,X,X,X,X,X,X",
",X,X,X,X,X,X,X,X,X,X,X,X,X,X,X,X,X,X,X,X,X,X,X,X,X,X,X,Xk g <         ,X,X,X,X,X,X,X,X        X < k ,X,X,X,X,X,X,X,X,X,X,X,X,X,X,X,X,X,X,X,X,X,X,X,X,X,X,X,X,X,X",
",X,X,X,X,X,X,X,X,X,X,X,X,X,X,X,X,X,X,X,X,X,X,X,X,X,X,X,Xn O         ,X,X,X,X,X,X,X,X,X,X          3 N ,X,X,X,X,X,X,X,X,X,X,X,X,X,X,X,X,X,X,X,X,X,X,X,X,X,X,X,X,X",
",X,X,X,X,X,X,X,X,X,X,X,X,X,X,X,X,X,X,X,X,X,X,X,X,X,X,X,Xn :         ,X,X,X,X,X,X,X,X,X,X,X        n ;.,X,X,X,X,X,X,X,X,X,X,X,X,X,X,X,X,X,X,X,X,X,X,X,X,X,X,X,X,X",
",X,X,X,X,X,X,X,X,X,X,X,X,X,X,X,X,X,X,X,X,X,X,X,X,X,X,X,Xo.2         ,X,X,X,X,X,X,X,X,X,X,X        N e.,X,X,X,X,X,X,X,X,X,X,X,X,X,X,X,X,X,X,X,X,X,X,X,X,X,X,X,X,X",
",X,X,X,X,X,X,X,X,X,X,X,X,X,X,X,X,X,X,X,X,X,X,X,X,X,X,X,XO.1         ,X,X,X,X,X,X,X,X,X,X,X        o.,X,X,X,X,X,X,X,X,X,X,X,X,X,X,X,X,X,X,X,X,X,X,X,X,X,X,X,X,X,X",
",X,X,X,X,X,X,X,X,X,X,X,X,X,X,X,X,X,X,X,X,X,X,X,X,X,X,X,X@.<         ,X,X,X,X,X,X,X,X,X,X,X        ,X,X,X,X,X,X,X,X,X,X,X,X,X,X,X,X,X,X,X,X,X,X,X,X,X,X,X,X,X,X,X",
",X,X,X,X,X,X,X,X,X,X,X,X,X,X,X,X,X,X,X,X,X,X,X,X,X,X,X,X>.3         O ,X,X,X,X,X,X,X,X,X          ,X,X,X,X,X,X,X,X,X,X,X,X,X,X,X,X,X,X,X,X,X,X,X,X,X,X,X,X,X,X,X",
",X,X,X,X,X,X,X,X,X,X,X,X,X,X,X,X,X,X,X,X,X,X,X,X,X,X,X,X,Xz ; , s s c *.,X,X,X,X,X,X,X,X  > a a s b *.-.,X,X,X,X,X,X,X,X,X,X,X,X,X,X,X,X,X,X,X,X,X,X,X,X,X,X,X,X",
",X,X,X,X,X,X,X,X,X,X,X,X,X,X,X,X,X,X,X,X,X,X,X,X,X,X,X,X,X1.Q _ 6.9.4.Q.0.,X,X,X,X,X,X,Xt T ! ! 4.6.4.6.e.,X,X,X,X,X,X,X,X,X,X,X,X,X,X,X,X,X,X,X,X,X,X,X,X,X,X,X",
",X,X,X,X,X,X,X,X,X,X,X,X,X,X,X,X,X,X,X,X,X,X,X,X,X,X,X,X!.E.m.A.A.A.J.J.T.-.,X,X,X,X,X,X!.!.!.~.A.B.J.S.3.-.<.,X,X,X,X,X,X,X,X,X,X,X,X,X,X,X,X,X,X,X,X,X,X,X,X,X",
",X,X,X,X,X,X,X,X,X,X,X,X,X,X,X,X,X,X,X,X,X,X,X,X,X,X,X,XE.!.].b.S K b.S U W.,X,X,X,X,X^.^.~.!.].C.F J M.t z W.,X,X,X,X,X,X,X,X,X,X,X,X,X,X,X,X,X,X,X,X,X,X,X,X,X",
",X,X,X,X,X,X,X,X,X,X,X,X,X,X,X,X,X,X,X,X,X,X,X,X,X,X,X,X!.E.].c.# u c.@ y /.,X,X,X,X,X,X!.!.!.].!.% t j.& i ].,X,X,X,X,X,X,X,X,X,X,X,X,X,X,X,X,X,X,X,X,X,X,X,X,X",
",X,X,X,X,X,X,X,X,X,X,X,X,X,X,X,X,X,X,X,X,X,X,X,X,X,X,X,X,X,X,X,X,X,X,X,X,X,X,X,X,X,X,X,X,X,X,X,X,X,X,X,X,X,X,X,X,X,X,X,X,X,X,X,X,X,X,X,X,X,X,X,X,X,X,X,X,X,X,X,X",
",X,X,X,X,X,X,X,X,X,X,X,X,X,X,X,X,X,X,X,X,X,X,X,X,X,X,X,X,X,X,X,X,X,X,X,X,X,X,X,X,X,X,X,X,X,X,X,X,X,X,X,X,X,X,X,X,X,X,X,X,X,X,X,X,X,X,X,X,X,X,X,X,X,X,X,X,X,X,X,X",
",X,X,X,X,X,X,X,X,X,X,X,X,X,X,X,X,X,X,X,X,X,X,X,X,X,X,X,X,X,X,X,X,X,X,X,X,X,X,X,X,X,X,X,X,X,X,X,X,X,X,X,X,X,X,X,X,X,X,X,X,X,X,X,X,X,X,X,X,X,X,X,X,X,X,X,X,X,X,X,X",
",X,X,X,X,X,X,X,X,X,X,X,X,X,X,X,X,X,X,X,X,X,X,X,X,X,X,X,X,X,X,X,X,X,X,X,X,X,X,X,X,X,X,X,X,X,X,X,X,X,X,X,X,X,X,X,X,X,X,X,X,X,X,X,X,X,X,X,X,X,X,X,X,X,X,X,X,X,X,X,X",
",X,X,X,X,X,X,X,X,X,X,X,X,X,X,X,X,X,X,X,X,X,X,X,X,X,X,X,X,X,X,X,X,X,X,X,X,X,X,X,X,X,X,X,X,X,X,X,X,X,X,X,X,X,X,X,X,X,X,X,X,X,X,X,X,X,X,X,X,X,X,X,X,X,X,X,X,X,X,X,X",
",X,X,X,X,X,X,X,X,X,X,X,X,X,X,X,X,X,X,X,X,X,X,X,X,X,X,X,X,X,X,X,X,X,X,X,X,X,X,X,X,X,X,X,X,X,X,X,X,X,X,X,X,X,X,X,X,X,X,X,X,X,X,X,X,X,X,X,X,X,X,X,X,X,X,X,X,X,X,X,X",
",X,X,X,X,X,X,X,X,X,X,X,X,X,X,X,X,X,X,X,X,X,X,X,X,X,X,X,X,X,X,X,X,X,X,X,X,X,X,X,X,X,X,X,X,X,X,X,X,X,X,X,X,X,X,X,X,X,X,X,X,X,X,X,X,X,X,X,X,X,X,X,X,X,X,X,X,X,X,X,X",
",X,X,X,X,X,X,X,X,X,X,X,X,X,X,X,X,X,X,X,X,X,X,X,X,X,X,X,X,X,X,X,X,X,X,X,X,X,X,X,X,X,X,X,X,X,X,X,X,X,X,X,X,X,X,X,X,X,X,X,X,X,X,X,X,X,X,X,X,X,X,X,X,X,X,X,X,X,X,X,X",
",X,X,X,X,X,X,X,X,X,X,X,X,X,X,X,X,X,X,X,X,X,X,X,X,X,X,X,X,X,X,X,X,X,X,X,X,X,X,X,X,X,X,X,X,X,X,X,X,X,X,X,X,X,X,X,X,X,X,X,X,X,X,X,X,X,X,X,X,X,X,X,X,X,X,X,X,X,X,X,X"
};
