/* XPM */
static char *_206_e48eeebf218cdca2783443fb988b706742049f44b33df707c82803fea03c278e[] = {
/* columns rows colors chars-per-pixel */
"80 80 194 2 ",
"   c #000000",
".  c #0A0603",
"X  c #0C0A05",
"o  c #030509",
"O  c #0B0B0B",
"+  c #040909",
"@  c #130D07",
"#  c #120D09",
"$  c #1C0900",
"%  c #0E100D",
"&  c #14110A",
"*  c #18130B",
"=  c #0A0D11",
"-  c #050E15",
";  c #0C131A",
":  c #0D141A",
">  c #131313",
",  c #1B1813",
"<  c #13161A",
"1  c #16191C",
"2  c #1C1C1C",
"3  c #210600",
"4  c #240C00",
"5  c #27080F",
"6  c #340B00",
"7  c #241802",
"8  c #25160C",
"9  c #27180B",
"0  c #3A1E0C",
"q  c #281E14",
"w  c #211E1B",
"e  c #2D251C",
"r  c #2D2114",
"t  c #322315",
"y  c #3E2C1B",
"u  c #362817",
"i  c #161B20",
"p  c #3D1620",
"a  c #1E2226",
"s  c #1B252C",
"d  c #232323",
"f  c #2B2B2C",
"g  c #23282C",
"h  c #322E29",
"j  c #34312E",
"k  c #39322A",
"l  c #3E3427",
"z  c #2C2F31",
"x  c #232E34",
"c  c #2C3134",
"v  c #2A333A",
"b  c #343434",
"n  c #3A3734",
"m  c #333639",
"M  c #3C3C3C",
"N  c #383837",
"B  c #4C0000",
"V  c #551300",
"C  c #660000",
"Z  c #6C0015",
"A  c #472610",
"S  c #572B11",
"D  c #5C381B",
"F  c #472B14",
"G  c #7F3C14",
"H  c #643C1E",
"J  c #41342C",
"K  c #493824",
"L  c #573C22",
"P  c #513723",
"I  c #473F3A",
"U  c #523D32",
"Y  c #754906",
"T  c #4D412D",
"R  c #5B4125",
"E  c #56452A",
"W  c #43413F",
"Q  c #4F4237",
"!  c #554431",
"~  c #574B3F",
"^  c #5E5426",
"/  c #6C4C2C",
"(  c #65472A",
")  c #7D4921",
"_  c #72532F",
"`  c #654534",
"'  c #6C4A30",
"]  c #6C5135",
"[  c #655538",
"{  c #735333",
"}  c #745738",
"|  c #7F6135",
" . c #363D41",
".. c #3A3E41",
"X. c #3E4144",
"o. c #3E4951",
"O. c #3F5461",
"+. c #434343",
"@. c #4A4A4B",
"#. c #49494A",
"$. c #5F4940",
"%. c #4D5054",
"&. c #4D565C",
"*. c #545454",
"=. c #52565A",
"-. c #595A5A",
";. c #55595B",
":. c #4F5252",
">. c #625442",
",. c #6D5B4C",
"<. c #7C5A44",
"1. c #7B5C4A",
"2. c #755744",
"3. c #695D55",
"4. c #75634E",
"5. c #7B6349",
"6. c #6A625E",
"7. c #766657",
"8. c #565E63",
"9. c #576065",
"0. c #616161",
"q. c #696968",
"w. c #72716E",
"e. c #810003",
"r. c #AA1D00",
"t. c #BD083C",
"y. c #D2381D",
"u. c #D71F21",
"i. c #9D581A",
"p. c #9C451B",
"a. c #AD4519",
"s. c #955D20",
"d. c #865F39",
"f. c #A45528",
"g. c #88722F",
"h. c #86623B",
"j. c #8A623B",
"k. c #8F683F",
"l. c #9C6436",
"z. c #9C693D",
"x. c #95693A",
"c. c #977B35",
"v. c #BC652F",
"b. c #A56D3B",
"n. c #A96739",
"m. c #BC6631",
"M. c #B46432",
"N. c #B87139",
"B. c #A0652A",
"V. c #E3483C",
"C. c #C5682D",
"Z. c #C66B33",
"A. c #C1723E",
"S. c #9E1168",
"D. c #CA0A5D",
"F. c #E81B6E",
"G. c #895E44",
"H. c #8D6942",
"J. c #89684C",
"K. c #936A41",
"L. c #996E43",
"P. c #986847",
"I. c #9B7146",
"U. c #9D7549",
"Y. c #816C5F",
"T. c #987754",
"R. c #88715A",
"E. c #A37346",
"W. c #AA7748",
"Q. c #B87A48",
"!. c #964D62",
"~. c #897A68",
"^. c #897763",
"/. c #947B60",
"(. c #837B72",
"). c #E9484C",
"_. c #B38254",
"`. c #C28856",
"'. c #BB1EA7",
"]. c #C9109F",
"[. c #F63A88",
"{. c #E417A4",
"}. c #EC4B88",
"|. c #DD12DA",
" X c #AB9F91",
".X c #B2AE8E",
"XX c #B4AA98",
"oX c #ADA69B",
"OX c #B8B2A2",
"+X c #C2B9AF",
"@X c #C7BEB2",
"#X c #CFC1B4",
"$X c #D0C2B4",
"%X c None",
/* pixels */
"%X%X%X%X%X%X%X%X%X%X%X%X%X%X%X%X%X%X%X%X%X%X%X%X%X%X%X%X%X%X%X%X%X%X%X%X%X%X%X%X%X%X%X%X%X%X%X%X%X%X%X%X%X%X%X%X%X%X%X%X%X%X%X%X%X%X%X%X%X%X%X%X%X%X%X%X%X%X%X%X",
"%X%X%X%X%X%X%X%X%X%X%X%X%X%X%X%X%X%X%X%X%X%X%X%X%X%X%X%X%X%X%X%X%X%X%X%X%X%X%X%X%X%X%X%X%X%X%X%X%X%X%X%X%X%X%X%X%X%X%X%X%X%X%X%X%X%X%X%X%X%X%X%X%X%X%X%X%X%X%X%X",
"%X%X%X%X%X%X%X%X%X%X%X%X%X%X%X%X%X%X%X%X%X%X%X%X%X%X%X%X%X%X%X%X%X%X%X%X%X%X%X%X%X%X%X%X%X%X%X%X%X%X%X%X%X%X%X%X%X%X%X%X%X%X%X%X%X%X%X%X%X%X%X%X%X%X%X%X%X%X%X%X",
"%X%X%X%X%X%X%X%X%X%X%X%X%X%X%X%X%X%X%X%X%X%X%X%X%X%X%X%X%X%X%X%X%X%X%X%X%X%X%X%X%X%X%X%X%X%X%X%X%X%X%X%X%X%X%X%X%X%X%X%X%X%X%X%X%X%X%X%X%X%X%X%X%X%X%X%X%X%X%X%X",
"%X%X%X%X%X%X%X%X%X%X%X%X%X%X%X%X%X%X%X%X%X%X%X%X%X%X%X%X%X%X%X%X%X%X%X%X%X%X%X%X%X%X%X%X%X%X%X%X%X%X%X%X%X%X%X%X%X%X%X%X%X%X%X%X%X%X%X%X%X%X%X%X%X%X%X%X%X%X%X%X",
"%X%X%X%X%X%X%X%X%X%X%X%X%X%X%X%X%X%X%X%X%X%X%X%X%X%X%X%X%X%X%X%X%X%X%X%X%X%X%X%X%X%X%X%X%X%X%X%X%X%X%X%X%X%X%X%X%X%X%X%X%X%X%X%X%X%X%X%X%X%X%X%X%X%X%X%X%X%X%X%X",
"%X%X%X%X%X%X%X%X%X%X%X%X%X%X%X%X%X%X%X%X%X%X%X%X%X%X%X%X%X%X%X%X%X%X%X%X%X%X%X%X%X%X%X%X%X%X%X%X%X%X%X%X%X%X%X%X%X%X%X%X%X%X%X%X%X%X%X%X%X%X%X%X%X%X%X%X%X%X%X%X",
"%X%X%X%X%X%X%X%X%X%X%X%X%X%X%X%X%X%X%X%X%X%X%X%X%X%X%X%X%X%X%X%X%X%X%X%X%X%X%X%X%X%X%X%X%X%X%X%X%X%X%X%X%X%X%X%X%X%X%X%X%X%X%X%X%X%X%X%X%X%X%X%X%X%X%X%X%X%X%X%X",
"%X%X%X%X%X%X%X%X%X%X%X%X%X%X%X%X%X%X%X%X%X%X%X%X%X%X%X%X%X%X%X%X%X%X%X%X%X%X-.0.%X%X%X%X%X%X%X%X%X%X%X%X%X%X%X%X%X%X%X%X%X%X%X%X%X%X%X%X%X%X%X%X%X%X%X%X%X%X%X%X",
"%X%X%X%X%X%X%X%X%X%X%X%X%X%X%X%X%X%X%X%X%X%X%X%X%X%X%X%X%X%X%X%X%X%X%X%X%X#.-.0.*.%X%X%X%X%X%X%X%X%X%X%X%X%X%X%X%X%X%X%X%X%X%X%X%X%X%X%X%X%X%X%X%X%X%X%X%X%X%X%X",
"%X%X%X%X%X%X%X%X%X%X%X%X%X%X%X%X%X%X%X%X%X%X%X%X%X%X%X%X%X%X%X%X%X%X%X%X#.b j b f M #.%X%X%X%X%X%X%X%X%X%X%X%X%X%X%X%X%X%X%X%X%X%X%X%X%X%X%X%X%X%X%X%X%X%X%X%X%X",
"%X%X%X%X%X%X%X%X%X%X%X%X%X%X%X%X%X%X%X%X%X%X%X%X%X%X%X%X%X%X%X%X%X%Xb M b O       e +.b b %X%X%X%X%X#.*.-.#.+.%X%X%X%X%X%X%X%X%X%X%X%X%X%X%X%X%X%X%X%X%X%X%X%X%X",
"%X%X%X%X%X%X%X%X%X%X%X%X%X%X%X%X%X%X%X%X%X%X%X%X@.+.*.@.+.%X%X%X%X%XW i             % m X.%X%Xd @.-.d d d d M #.m f %X%X%X%X%X%X%X%X%X%X%X%X%X%X%X%X%X%X%X%X%X%X",
"%X%X%X%X%X%X%X%X%X%X%X%X%X%X%X%X%X%X%X%X%X%XW 0.b > , > j @.m %X%X9.f = d ! P P R j ; , X.9.%Xz #.f         d N b N %X%X%X%X%X%X%X%X%X%X%X%X%X%X%X%X%X%X%X%X%X%X",
"%X%X%X%X%X%X%X%X%X%X%X%X%X%X%X%X%X%X%X%X%XN N f O       + f b m %X3.X 2 w.J.g.c.h.^.#.  l q.-.M >     . o     > b +.%X%X%X%X%X%X%X%X%X%X%X%X%X%X%X%X%X%X%X%X%X%X",
"%X%X%X%X%X%X%X%X%X%X%X%X%X%X%X%X%X%X%X%X%X#.2   . @ # * . o d +.J.M.4 e H.* K d.& ] ]   G P.&.< - I { / / { I ; > +.=.=.%X%X%X%X%X%X%X%X%X%X%X%X%X%X%X%X%X%X%X%X",
"%X%X%X%X%X%X%X%X%X%X%X%X%X%X%X%X%X%X%X%X8.g +  .5.h._ h.,.c o c R.n.9 + 9 B S.'.Z 6 * X ) W.`   n ^.[ g.g.[ ^.J o I <.G.%X%X%X%X%X%X%X%X%X%X%X%X%X%X%X%X%X%X%X%X",
"%X%X%X%X%X%X%X%X%X%X%X%X%X%X%X%X%X%X%X%XP.8 % R.>.^ c.E 4.5.. a 7.E.t   $ r.F.{.u.V     Q W.f.. K { . ` ' . { L o ..n.m.%X%X%X%X%X%X%X%X%X%X%X%X%X%X%X%X%X%X%X%X",
"%X%X%X%X%X%X%X%X%X%X%X%X%X%X%X%X%X%X%X%XZ.0 # / 4 p !.5 0 _ X s 7.E.8 , I.A.m.v.Z.Q.E   > %Xz.#   3 e.].].C 4   - #.H.z.%X%X%X%X%X%X%X%X%X%X%X%X%X%X%X%X%X%X%X%X",
"%X%X%X%X%X%X%X%X%X%X%X%X%X%X%X%X%X%X%X%XQ.F     C D.|.t.B     c 7.!   W #X@XXX.XOX$X(.o   %XW.#   S y.[.[.y.S X o N T.%X%X%X%X%X%X%X%X%X%X%X%X%X%X%X%X%X%X%X%X%X",
"%X%X%X%X%X%X%X%X%X%X%X%X%X%X%X%X%X%X%X%X%XL   F a.).}.V.p.y   i *.%X< M w.oXOX XXXOXw.o   %X%X  l _.N.i.i.N._.K   > %X%X%X%X%X%X%X%X%X%X%X%X%X%X%X%X%X%X%X%X%X%X",
"%X%X%X%X%X%X%X%X%X%X%X%X%X%X%X%X%X%X%X%X%X0 = T._.s.Y B.`.5..   %X%X%X:   D L.j.L.T.,   %X%X%X  c ~.I.7 7 U.~.m     %X%X%X%X%X%X%X%X%X%X%X%X%X%X%X%X%X%X%X%X%X%X",
"%X%X%X%X%X%X%X%X%X%X%X%X%X%X%X%X%X%X%X%X%X%X: *._.T   { /.#.O   @.%X%X%Xf e q e r q M %X%X%X%X%X: h U.{ ] U.j = %X%X%X%X%X%X%X%X%X%X%X%X%X%X%X%X%X%X%X%X%X%X%X%X",
"%X%X%X%X%X%X%X%X%X%X%X%X%X%X%X%X%X%X%X%X%X%X  = } I.{ U.! = 8 o d N %X%X-.g         z -.%X%X%X@.a , / h.h.' , 1 %X%X%X%X%X%X%X%X%X%X%X%X%X%X%X%X%X%X%X%X%X%X%X%X",
"%X%X%X%X%X%X%X%X%X%X%X%X%X%X%X%X%X%X%X%X%X%X%X2 l ( { / K 2 .     O b #.2             2 I f M b , <   . > 2 M %X%X%X%X%X%X%X%X%X%X%X%X%X%X%X%X%X%X%X%X%X%X%X%X%X",
"%X%X%X%X%X%X%X%X%X%X%X%X%X%X%X%X%X%X%X%X%X%X%X%X%X%Xf w 2 d o       O = o             o O O O O           1 z %X%X%X%X%X%X%X%X%X%X%X%X%X%X%X%X%X%X%X%X%X%X%X%X%X",
"%X%X%X%X%X%X%X%X%X%X%X%X%X%X%X%X%X%X%X%X%X%X%X%X%X%Xs O                                                   < W %X%X%X%X%X%X%X%X%X%X%X%X%X%X%X%X%X%X%X%X%X%X%X%X%X",
"%X%X%X%X%X%X%X%X%X%X%X%X%X%X%X%X%X%X%X%X%X%X%X%X%XM 1                                                     f *.%X%X%X%X%X%X%X%X%X%X%X%X%X%X%X%X%X%X%X%X%X%X%X%X%X",
"%X%X%X%X%X%X%X%X%X%X%X%X%X%X%X%X%X%X%X%X%X%X%X%X%X@.d                                                     b 0.%X%X%X%X%X%X%X%X%X%X%X%X%X%X%X%X%X%X%X%X%X%X%X%X%X",
"%X%X%X%X%X%X%X%X%X%X%X%X%X%X%X%X%X%X%X%X%X%X%X%Xj d O                                                     O d b %X%X%X%X%X%X%X%X%X%X%X%X%X%X%X%X%X%X%X%X%X%X%X%X",
"%X%X%X%X%X%X%X%X%X%X%X%X%X%X%X%X%X%X%X%X%X%X%X%Xf o                                                           f %X%X%X%X%X%X%X%X%X%X%X%X%X%X%X%X%X%X%X%X%X%X%X%X",
"%X%X%X%X%X%X%X%X%X%X%X%X%X%X%X%X%X%X%X%X%X%X%X%X+.O                   o                   o                 O f %X%X%X%X%X%X%X%X%X%X%X%X%X%X%X%X%X%X%X%X%X%X%X%X",
"%X%X%X%X%X%X%X%X%X%X%X%X%X%X%X%X%X%X%X%X%X%X%X%X-.<         O d O   . g ,               O d <               O f %X%X%X%X%X%X%X%X%X%X%X%X%X%X%X%X%X%X%X%X%X%X%X%X",
"%X%X%X%X%X%X%X%X%X%X%X%X%X%X%X%X%X%X%X%X%X%X%Xb j O         < b <   o d >               o d >               O j %X%X%X%X%X%X%X%X%X%X%X%X%X%X%X%X%X%X%X%X%X%X%X%X",
"%X%X%X%X%X%X%X%X%X%X%X%X%X%X%X%X%X%X%X%X%X%Xb 2           %X%Xb &                                           O #.%X%X%X%X%X%X%X%X%X%X%X%X%X%X%X%X%X%X%X%X%X%X%X%X",
"%X%X%X%X%X%X%X%X%X%X%X%X%X%X%X%X%X%X%X%X%X%XN 1           %X%Xf O                                 %X%X      < *.%X%X%X%X%X%X%X%X%X%X%X%X%X%X%X%X%X%X%X%X%X%X%X%X",
"%X%X%X%X%X%X%X%X%X%X%X%X%X%X%X%X%X%X%X%X%X%Xb d           %X%Xb O                                 %X%X%X    O d b %X%X%X%X%X%X%X%X%X%X%X%X%X%X%X%X%X%X%X%X%X%X%X",
"%X%X%X%X%X%X%X%X%X%X%X%X%X%X%X%X%X%X%X%X%X%Xb 2           %X%X#.<                                 %X%X%X        < b %X%X%X%X%X%X%X%X%X%X%X%X%X%X%X%X%X%X%X%X%X%X",
"%X%X%X%X%X%X%X%X%X%X%X%X%X%X%X%X%X%X%X%X%X%Xb 2         %X%X%X*.,                                 %X%X%X        2 b %X%X%X%X%X%X%X%X%X%X%X%X%X%X%X%X%X%X%X%X%X%X",
"%X%X%X%X%X%X%X%X%X%X%X%X%X%X%X%X%X%X%X%X%X%X+.d         %X%X%X%Xb O           < <                 %X%X%X        2 N %X%X%X%X%X%X%X%X%X%X%X%X%X%X%X%X%X%X%X%X%X%X",
"%X%X%X%X%X%X%X%X%X%X%X%X%X%X%X%X%X%X%X%X%X%X-.f         %X%X%X%XM 2         = b b O               %X%X%X        2 N %X%X%X%X%X%X%X%X%X%X%X%X%X%X%X%X%X%X%X%X%X%X",
"%X%X%X%X%X%X%X%X%X%X%X%X%X%X%X%X%X%X%X%X%X%X0.b         %X%X%X%XN 2       . b #.#.f .             %X%X%X        2 N %X%X%X%X%X%X%X%X%X%X%X%X%X%X%X%X%X%X%X%X%X%X",
"%X%X%X%X%X%X%X%X%X%X%X%X%X%X%X%X%X%X%X%X%X%X%X@.w o       %X%X%XN 2       O +.@.@.+.O           %X%X%X%X%X      2 N %X%X%X%X%X%X%X%X%X%X%X%X%X%X%X%X%X%X%X%X%X%X",
"%X%X%X%X%X%X%X%X%X%X%X%X%X%X%X%X%X%X%X%X%X%X%X%XN o       %X%X%XN 1     + w +.-.-.+.2 O         %X%X%X%X%X%X    2 N %X%X%X%X%X%X%X%X%X%X%X%X%X%X%X%X%X%X%X%X%X%X",
"%X%X%X%X%X%X%X%X%X%X%X%X%X%X%X%X%X%X%X%X%X%X%X%XW >       %X%X%XN 2     2 +.#.#.#.#.+.1         %X%X%X%X%X%X    2 N %X%X%X%X%X%X%X%X%X%X%X%X%X%X%X%X%X%X%X%X%X%X",
"%X%X%X%X%X%X%X%X%X%X%X%X%X%X%X%X%X%X%X%X%X%X%X%X%Xb O     %X%X%X*.d     , #.-., < -.#.,         %X%X%X%X%X%X    2 b %X%X%X%X%X%X%X%X%X%X%X%X%X%X%X%X%X%X%X%X%X%X",
"%X%X%X%X%X%X%X%X%X%X%X%X%X%X%X%X%X%X%X%X%X%X%X%X%X#.2       %X%Xq.f     o d :.N N :.d o         %X%X%X%X%X%X    2 b %X%X%X%X%X%X%X%X%X%X%X%X%X%X%X%X%X%X%X%X%X%X",
"%X%X%X%X%X%X%X%X%X%X%X%X%X%X%X%X%X%X%X%X%X%X%X%X%X@.f o     > %X%XM +     o I 9.0.I o           %X%X%X%X%X%X    d M %X%X%X%X%X%X%X%X%X%X%X%X%X%X%X%X%X%X%X%X%X%X",
"%X%X%X%X%X%X%X%X%X%X%X%X%X%X%X%X%X%X%X%X%X%X%X%X%X%XM d       %X%X%Xf     O +.*.@.#.O           %X%X%X%X%X%X    f #.%X%X%X%X%X%X%X%X%X%X%X%X%X%X%X%X%X%X%X%X%X%X",
"%X%X%X%X%X%X%X%X%X%X%X%X%X%X%X%X%X%X%X%X%X%X%X%X%X%X%X%Xd O     %X%X#.O   O N #.#.N O         %X%X%X%X%X%X%X1   d #.%X%X%X%X%X%X%X%X%X%X%X%X%X%X%X%X%X%X%X%X%X%X",
"%X%X%X%X%X%X%X%X%X%X%X%X%X%X%X%X%X%X%X%X%X%X%X%X%X%X%X%X+.>     %XM f o     2 M I i       O %X%X%X%X%X%X%X%Xf   f -.%X%X%X%X%X%X%X%X%X%X%X%X%X%X%X%X%X%X%X%X%X%X",
"%X%X%X%X%X%X%X%X%X%X%X%X%X%X%X%X%X%X%X%X%X%X%X%X%X%X%X%X@.2   O f 2           d d       O b %X%X%X%X%X%X%X-.b   f 0.%X%X%X%X%X%X%X%X%X%X%X%X%X%X%X%X%X%X%X%X%X%X",
"%X%X%X%X%X%X%X%X%X%X%X%X%X%X%X%X%X%X%X%X%X%X%X%X%X%X%X%X%X+.N f >             o o       O +.%X%X%X%X%X%X-.*. .v m N %X%X%X%X%X%X%X%X%X%X%X%X%X%X%X%X%X%X%X%X%X%X",
"%X%X%X%X%X%X%X%X%X%X%X%X%X%X%X%X%X%X%X%X%X%X%X%X%X%X%X%X%X+.N 2                         o d j %X%X%X%X%X*.*.2.H.U a %X%X%X%X%X%X%X%X%X%X%X%X%X%X%X%X%X%X%X%X%X%X",
"%X%X%X%X%X%X%X%X%X%X%X%X%X%X%X%X%X%X%X%X%X%X%X%X%X%X%X%X%XN d                               2 M %X%X%X%X=.4.N.Z.' x %X%X%X%X%X%X%X%X%X%X%X%X%X%X%X%X%X%X%X%X%X%X",
"%X%X%X%X%X%X%X%X%X%X%X%X%X%X%X%X%X%X%X%X%X%X%X%X%X%X%X%X%X#.f                               f @.%X%X%X%X;.4.b.b.>...%X%X%X%X%X%X%X%X%X%X%X%X%X%X%X%X%X%X%X%X%X%X",
"%X%X%X%X%X%X%X%X%X%X%X%X%X%X%X%X%X%X%X%X%X%X%X%X%X%X%X%X%X:.j                               > d f %X%X%X%X3.,.>.@.%X%X%X%X%X%X%X%X%X%X%X%X%X%X%X%X%X%X%X%X%X%X%X",
"%X%X%X%X%X%X%X%X%X%X%X%X%X%X%X%X%X%X%X%X%X%X%X%X%X%X%X%X%X*.M                                 O m %X%X%X%X%X%.+.%X%X%X%X%X%X%X%X%X%X%X%X%X%X%X%X%X%X%X%X%X%X%X%X",
"%X%X%X%X%X%X%X%X%X%X%X%X%X%X%X%X%X%X%X%X%X%X%X%X%X%X%X%X%X*.+.          %X%X%X%X%X%X          > +.%X%X%X%X%X%X%X%X%X%X%X%X%X%X%X%X%X%X%X%X%X%X%X%X%X%X%X%X%X%X%X",
"%X%X%X%X%X%X%X%X%X%X%X%X%X%X%X%X%X%X%X%X%X%X%X%X%X%X%X%Xb d >         %X%X%X%X%X%X%X%X        o < f %X%X%X%X%X%X%X%X%X%X%X%X%X%X%X%X%X%X%X%X%X%X%X%X%X%X%X%X%X%X",
"%X%X%X%X%X%X%X%X%X%X%X%X%X%X%X%X%X%X%X%X%X%X%X%X%X%X%X%Xf O         %X%X%X%X%X%X%X%X%X%X          w M %X%X%X%X%X%X%X%X%X%X%X%X%X%X%X%X%X%X%X%X%X%X%X%X%X%X%X%X%X",
"%X%X%X%X%X%X%X%X%X%X%X%X%X%X%X%X%X%X%X%X%X%X%X%X%X%X%X%Xb >         %X%X%X%X%X%X%X%X%X%X%X        b *.%X%X%X%X%X%X%X%X%X%X%X%X%X%X%X%X%X%X%X%X%X%X%X%X%X%X%X%X%X",
"%X%X%X%X%X%X%X%X%X%X%X%X%X%X%X%X%X%X%X%X%X%X%X%X%X%X%X%X+.<         %X%X%X%X%X%X%X%X%X%X%X        M 0.%X%X%X%X%X%X%X%X%X%X%X%X%X%X%X%X%X%X%X%X%X%X%X%X%X%X%X%X%X",
"%X%X%X%X%X%X%X%X%X%X%X%X%X%X%X%X%X%X%X%X%X%X%X%X%X%X%X%X#.,         %X%X%X%X%X%X%X%X%X%X%X        +.%X%X%X%X%X%X%X%X%X%X%X%X%X%X%X%X%X%X%X%X%X%X%X%X%X%X%X%X%X%X",
"%X%X%X%X%X%X%X%X%X%X%X%X%X%X%X%X%X%X%X%X%X%X%X%X%X%X%X%X@.<         %X%X%X%X%X%X%X%X%X%X%X        %X%X%X%X%X%X%X%X%X%X%X%X%X%X%X%X%X%X%X%X%X%X%X%X%X%X%X%X%X%X%X",
"%X%X%X%X%X%X%X%X%X%X%X%X%X%X%X%X%X%X%X%X%X%X%X%X%X%X%X%X-.2         O %X%X%X%X%X%X%X%X%X          %X%X%X%X%X%X%X%X%X%X%X%X%X%X%X%X%X%X%X%X%X%X%X%X%X%X%X%X%X%X%X",
"%X%X%X%X%X%X%X%X%X%X%X%X%X%X%X%X%X%X%X%X%X%X%X%X%X%X%X%X%Xn - ; s s x %.%X%X%X%X%X%X%X%X  : 1 i s v o.&.%X%X%X%X%X%X%X%X%X%X%X%X%X%X%X%X%X%X%X%X%X%X%X%X%X%X%X%X",
"%X%X%X%X%X%X%X%X%X%X%X%X%X%X%X%X%X%X%X%X%X%X%X%X%X%X%X%X%X[ W ` 1.<.,.J.3.%X%X%X%X%X%X%Xe Q $.~ 2.<.<.1.0.%X%X%X%X%X%X%X%X%X%X%X%X%X%X%X%X%X%X%X%X%X%X%X%X%X%X%X",
"%X%X%X%X%X%X%X%X%X%X%X%X%X%X%X%X%X%X%X%X%X%X%X%X%X%X%X%Xk.H.z.m.v.m.C.C.G.&.%X%X%X%X%X%XK.K.H.z.v.v.v.M.,.&.-.%X%X%X%X%X%X%X%X%X%X%X%X%X%X%X%X%X%X%X%X%X%X%X%X%X",
"%X%X%X%X%X%X%X%X%X%X%X%X%X%X%X%X%X%X%X%X%X%X%X%X%X%X%X%XK.K.E.n.A H l.A P J.%X%X%X%X%XI.L.L.L.E.n.A D l.e k J.%X%X%X%X%X%X%X%X%X%X%X%X%X%X%X%X%X%X%X%X%X%X%X%X%X",
"%X%X%X%X%X%X%X%X%X%X%X%X%X%X%X%X%X%X%X%X%X%X%X%X%X%X%X%XK.k.I.j.@ y j.# y I.%X%X%X%X%X%XK.K.K.E.k.@ t d.* u E.%X%X%X%X%X%X%X%X%X%X%X%X%X%X%X%X%X%X%X%X%X%X%X%X%X",
"%X%X%X%X%X%X%X%X%X%X%X%X%X%X%X%X%X%X%X%X%X%X%X%X%X%X%X%X%X%X%X%X%X%X%X%X%X%X%X%X%X%X%X%X%X%X%X%X%X%X%X%X%X%X%X%X%X%X%X%X%X%X%X%X%X%X%X%X%X%X%X%X%X%X%X%X%X%X%X%X",
"%X%X%X%X%X%X%X%X%X%X%X%X%X%X%X%X%X%X%X%X%X%X%X%X%X%X%X%X%X%X%X%X%X%X%X%X%X%X%X%X%X%X%X%X%X%X%X%X%X%X%X%X%X%X%X%X%X%X%X%X%X%X%X%X%X%X%X%X%X%X%X%X%X%X%X%X%X%X%X%X",
"%X%X%X%X%X%X%X%X%X%X%X%X%X%X%X%X%X%X%X%X%X%X%X%X%X%X%X%X%X%X%X%X%X%X%X%X%X%X%X%X%X%X%X%X%X%X%X%X%X%X%X%X%X%X%X%X%X%X%X%X%X%X%X%X%X%X%X%X%X%X%X%X%X%X%X%X%X%X%X%X",
"%X%X%X%X%X%X%X%X%X%X%X%X%X%X%X%X%X%X%X%X%X%X%X%X%X%X%X%X%X%X%X%X%X%X%X%X%X%X%X%X%X%X%X%X%X%X%X%X%X%X%X%X%X%X%X%X%X%X%X%X%X%X%X%X%X%X%X%X%X%X%X%X%X%X%X%X%X%X%X%X",
"%X%X%X%X%X%X%X%X%X%X%X%X%X%X%X%X%X%X%X%X%X%X%X%X%X%X%X%X%X%X%X%X%X%X%X%X%X%X%X%X%X%X%X%X%X%X%X%X%X%X%X%X%X%X%X%X%X%X%X%X%X%X%X%X%X%X%X%X%X%X%X%X%X%X%X%X%X%X%X%X",
"%X%X%X%X%X%X%X%X%X%X%X%X%X%X%X%X%X%X%X%X%X%X%X%X%X%X%X%X%X%X%X%X%X%X%X%X%X%X%X%X%X%X%X%X%X%X%X%X%X%X%X%X%X%X%X%X%X%X%X%X%X%X%X%X%X%X%X%X%X%X%X%X%X%X%X%X%X%X%X%X",
"%X%X%X%X%X%X%X%X%X%X%X%X%X%X%X%X%X%X%X%X%X%X%X%X%X%X%X%X%X%X%X%X%X%X%X%X%X%X%X%X%X%X%X%X%X%X%X%X%X%X%X%X%X%X%X%X%X%X%X%X%X%X%X%X%X%X%X%X%X%X%X%X%X%X%X%X%X%X%X%X",
"%X%X%X%X%X%X%X%X%X%X%X%X%X%X%X%X%X%X%X%X%X%X%X%X%X%X%X%X%X%X%X%X%X%X%X%X%X%X%X%X%X%X%X%X%X%X%X%X%X%X%X%X%X%X%X%X%X%X%X%X%X%X%X%X%X%X%X%X%X%X%X%X%X%X%X%X%X%X%X%X",
"%X%X%X%X%X%X%X%X%X%X%X%X%X%X%X%X%X%X%X%X%X%X%X%X%X%X%X%X%X%X%X%X%X%X%X%X%X%X%X%X%X%X%X%X%X%X%X%X%X%X%X%X%X%X%X%X%X%X%X%X%X%X%X%X%X%X%X%X%X%X%X%X%X%X%X%X%X%X%X%X"
};
