/* XPM */
static char *_8561_18365f6540241754ac96f66823e114e6f03036a43b0569bc8c6ac7c40fb2f76a[] = {
/* columns rows colors chars-per-pixel */
"80 80 200 2 ",
"   c #000000",
".  c #0B0401",
"X  c #0C0A06",
"o  c #060809",
"O  c #0B0B0B",
"+  c #140002",
"@  c #140C06",
"#  c #1A0B02",
"$  c #120D08",
"%  c #15110A",
"&  c #1C140B",
"*  c #1E180D",
"=  c #090F15",
"-  c #040D18",
";  c #0E1319",
":  c #0B141B",
">  c #141414",
",  c #181715",
"<  c #16191B",
"1  c #1C1C1C",
"2  c #1A1916",
"3  c #230C00",
"4  c #350C00",
"5  c #310000",
"6  c #2E1105",
"7  c #271407",
"8  c #271C11",
"9  c #2D251C",
"0  c #292117",
"q  c #312315",
"w  c #3C2C1A",
"e  c #33291C",
"r  c #1E1F20",
"t  c #141A20",
"y  c #1F2327",
"u  c #1B262C",
"i  c #232323",
"p  c #292624",
"a  c #2C2C2C",
"s  c #21272F",
"d  c #322D28",
"f  c #38322B",
"g  c #37302F",
"h  c #2D2E30",
"j  c #232D34",
"k  c #2F3031",
"l  c #2A343A",
"z  c #343434",
"x  c #323538",
"c  c #3C3C3C",
"v  c #393A3A",
"b  c #490000",
"n  c #590000",
"m  c #551300",
"M  c #6C0013",
"N  c #492811",
"B  c #593619",
"V  c #45240D",
"C  c #703918",
"Z  c #4D3B26",
"A  c #543921",
"S  c #563C2B",
"D  c #513723",
"F  c #403E3C",
"G  c #4C3F37",
"H  c #523C32",
"J  c #582832",
"K  c #62411F",
"L  c #57432A",
"P  c #5C4229",
"I  c #4B433B",
"U  c #53493F",
"Y  c #554839",
"T  c #4E4928",
"R  c #6A4B29",
"E  c #764F2B",
"W  c #754B30",
"Q  c #6B5339",
"!  c #795936",
"~  c #6C4E2F",
"^  c #706326",
"/  c #7F6136",
"(  c #2D3F4B",
")  c #383D42",
"_  c #3C4349",
"`  c #3C4145",
"'  c #3E4951",
"]  c #434343",
"[  c #474A4E",
"{  c #4B4B4B",
"}  c #4D4A45",
"|  c #58524B",
" . c #444F56",
".. c #4C5155",
"X. c #4B555A",
"o. c #4E585D",
"O. c #545454",
"+. c #585757",
"@. c #52565A",
"#. c #555A5E",
"$. c #5A5A5A",
"%. c #5A4B42",
"&. c #625343",
"*. c #6B5A4E",
"=. c #685A48",
"-. c #7D5A45",
";. c #775946",
":. c #635D56",
">. c #665F5B",
",. c #74624E",
"<. c #7D6042",
"1. c #66615E",
"2. c #7A6F5E",
"3. c #565C60",
"4. c gray38",
"5. c #686868",
"6. c #756C65",
"7. c #757779",
"8. c #810300",
"9. c #AA1C00",
"0. c #AD061D",
"q. c #BE3C0D",
"w. c #C51F0B",
"e. c #D73B1E",
"r. c #D81F21",
"t. c #85431C",
"y. c #9D4D1D",
"u. c #985729",
"i. c #805837",
"p. c #91552B",
"a. c #B05F2B",
"s. c #84633C",
"d. c #8A623B",
"f. c #8F6C3A",
"g. c #9B6336",
"h. c #906439",
"j. c #90683F",
"k. c #9C6A3E",
"l. c #9E6639",
"z. c #967438",
"x. c #8B792B",
"c. c #BC652E",
"v. c #A56D3B",
"b. c #AD6B38",
"n. c #BC6631",
"m. c #B46333",
"M. c #B17239",
"N. c #C4682E",
"B. c #C16B36",
"V. c #C1723D",
"C. c #9D0D69",
"Z. c #DE354D",
"A. c #E71B6D",
"S. c #D8316A",
"D. c #8A5D43",
"F. c #864752",
"G. c #8E6942",
"H. c #886848",
"J. c #936A41",
"K. c #996E42",
"L. c #9C7146",
"P. c #8B7258",
"I. c #9D7C5C",
"U. c #8B6B57",
"Y. c #A27446",
"T. c #AC7549",
"R. c #BB7C4A",
"E. c #827564",
"W. c #887868",
"Q. c #BB8A58",
"!. c #B48648",
"~. c #B08B67",
"^. c #AD9070",
"/. c #B09372",
"(. c #C3916A",
"). c #7B7F81",
"_. c #AF168B",
"`. c #B0178E",
"'. c #BB1EA8",
"]. c #D30C87",
"[. c #E8198E",
"{. c #E317A4",
"}. c #DA0EC6",
"|. c #AA9D8F",
" X c #B39B83",
".X c #AFAC8E",
"XX c #B1AF8E",
"oX c #ABA597",
"OX c #BAAD9D",
"+X c #B4AD97",
"@X c #9E9FA1",
"#X c #B1B4AF",
"$X c #BBB4A6",
"%X c #BBBCBA",
"&X c #D6A980",
"*X c #C7BDB2",
"=X c #CFC0B1",
"-X c #D5C6B8",
";X c #CBCBC9",
":X c None",
/* pixels */
":X:X:X:X:X:X:X:X:X:X:X:X:X:X:X:X:X:X:X:X:X:X:X:X:X:X:X:X:X:X:X:X:X:X:X:X:X:X:X:X:X:X:X:X:X:X:X:X:X:X:X:X:X:X:X:X:X:X:X:X:X:X:X:X:X:X:X:X:X:X:X:X:X:X:X:X:X:X:X:X",
":X:X:X:X:X:X:X:X:X:X:X:X:X:X:X:X:X:X:X:X:X:X:X:X:X:X:X:X:X:X:X:X:X:X:X:X:X:X:X:X:X:X:X:X:X:X:X:X:X:X:X:X:X:X:X:X:X:X:X:X:X:X:X:X:X:X:X:X:X:X:X:X:X:X:X:X:X:X:X:X",
":X:X:X:X:X:X:X:X:X:X:X:X:X:X:X:X:X:X:X:X:X:X:X:X:X:X:X:X:X:X:X:X:X:X:X:X:X:X:X:X:X:X:X:X:X:X:X:X:X:X:X:X:X:X:X:X:X:X:X:X:X:X:X:X:X:X:X:X:X:X:X:X:X:X:X:X:X:X:X:X",
":X:X:X:X:X:X:X:X:X:X:X:X:X:X:X:X:X:X:X:X:X:X:X:X:X:X:X:X:X:X:X:X:X:X:X:X:X:X:X:X:X:X:X:X:X:X:X:X:X:X:X:X:X:X:X:X:X:X:X:X:X:X:X:X:X:X:X:X:X:X:X:X:X:X:X:X:X:X:X:X",
":X:X:X:X:X:X:X:X:X:X:X:X:X:X:X:X:X:X:X:X:X:X:X:X:X:X:X:X:X:X:X:X:X:X:X:X:X:X:X:X:X:X:X:X:X:X:X:X:X:X:X:X:X:X:X:X:X:X:X:X:X:X:X:X:X:X:X:X:X:X:X:X:X:X:X:X:X:X:X:X",
":X:X:X:X:X:X:X:X:X:X:X:X:X:X:X:X:X:X:X:X:X:X:X:X:X:X:X:X:X:X:X:X:X:X:X:X:X:X:X:X:X:X:X:X:X:X:X:X:X:X:X:X:X:X:X:X:X:X:X:X:X:X:X:X:X:X:X:X:X:X:X:X:X:X:X:X:X:X:X:X",
":X:X:X:X:X:X:X:X:X:X:X:X:X:X:X:X:X:X:X:X:X:X:X:X:X:X:X:X:X:X:X:X:X:X:X:X:X:X:X:X:X:X:X:X:X:X:X:X:X:X:X:X:X:X:X:X:X:X:X:X:X:X:X:X:X:X:X:X:X:X:X:X:X:X:X:X:X:X:X:X",
":X:X:X:X:X:X:X:X:X:X:X:X:X:X:X:X:X:X:X:X:X:X:X:X:X:X:X:X:X:X:X:X:X:X:X:X:X:X:X:X:X:X:X:X:X:X:X:X:X:X:X:X:X:X:X:X:X:X:X:X:X:X:X:X:X:X:X:X:X:X:X:X:X:X:X:X:X:X:X:X",
":X:X:X:X:X:X:X:X:X:X:X:X:X:X:X:X:X:X:X:X:X:X:X:X:X:X:X:X:X:X:X:X:X:X:X:X:X:X:X4.4.:X:X:X:X:X:X:X:X:X:X:X:X:X:X:X:X:X:X:X:X:X:X:X:X:X:X:X:X:X:X:X:X:X:X:X:X:X:X:X",
":X:X:X:X:X:X:X:X:X:X:X:X:X:X:X:X:X:X:X:X:X:X:X:X:X:X:X:X:X:X:X:X:X:X:X:X:X:X{ $.4.{ :X:X:X:X:X:X:X:X:X:X:X:X:X:X:X:X:X:X:X:X:X:X:X:X:X:X:X:X:X:X:X:X:X:X:X:X:X:X",
":X:X:X:X:X:X:X:X:X:X:X:X:X:X:X:X:X:X:X:X:X:X:X:X:X:X:X:X:X:X:X:X:X:X:X:X:X{ a z k h { :X:X:X:X:X:X:X:X:X:X:X:X:X:X:X:X:X:X:X:X:X:X:X:X:X:X:X:X:X:X:X:X:X:X:X:X:X",
":X:X:X:X:X:X:X:X:X:X:X:X:X:X:X:X:X:X:X:X:X:X:X:X:X:X:X:X:X:X:X:X:X:X:Xz ] a         a I z :X:X:X:X:X:X] O...] :X:X:X:X:X:X:X:X:X:X:X:X:X:X:X:X:X:X:X:X:X:X:X:X:X",
":X:X:X:X:X:X:X:X:X:X:X:X:X:X:X:X:X:X:X:X:X:X:X:X:X{ O.$.{ :X:X:X:X:X:Xc <             , c :X:X:Xz { F 2 1 < 0 { ] a :X:X:X:X:X:X:X:X:X:X:X:X:X:X:X:X:X:X:X:X:X:X",
":X:X:X:X:X:X:X:X:X:X:X:X:X:X:X:X:X:X:X:X:X:X:X:X:X] O.$.] ] :X:X:X:XX.1 = a L Z D P a - r X.:X:Xz k >         r z c :X:X:X:X:X:X:X:X:X:X:X:X:X:X:X:X:X:X:X:X:X:X",
":X:X:X:X:X:X:X:X:X:X:X:X:X:X:X:X:X:X:X:X:X:Xa F ] a z v a c ] z :X6.%.  a 2.H.z.z./ 2.h   Y :X:Xh o   $ $ @ $   > c :X:X:X:X:X:X:X:X:X:X:X:X:X:X:X:X:X:X:X:X:X:X",
":X:X:X:X:X:X:X:X:X:X:X:X:X:X:X:X:X:X:X:X:X:Xz c z o       y c k :X:Xu.+ Z H.X R ~ X H.T . y.U.( o u =.d.! i.<.] = < ..3.:X:X:X:X:X:X:X:X:X:X:X:X:X:X:X:X:X:X:X:X",
":X:X:X:X:X:X:X:X:X:X:X:X:X:X:X:X:X:X:X:X:X:XF 0             % x :X:Xu.@ % 6 n _.`.n 6 % # p.T.S   %.P.T f.^ I P.p @ ! D.:X:X:X:X:X:X:X:X:X:X:X:X:X:X:X:X:X:X:X:X",
":X:X:X:X:X:X:X:X:X:X:X:X:X:X:X:X:X:X:X:X:X#.p - u L A D P f : < _ 2.j.%   4 w.[.[.w.4   X ;.R.t.. L A + *.J . R 8 3 a.N.:X:X:X:X:X:X:X:X:X:X:X:X:X:X:X:X:X:X:X:X",
":X:X:X:X:X:X:X:X:X:X:X:X:X:X:X:X:X:X:X:X:X*.O < 2.<.f.z.s.P.]   z P.:X. e T.V.n.n.V.T.w . :XI.E .   5 0.}.A.8..   8 h.k.:X:X:X:X:X:X:X:X:X:X:X:X:X:X:X:X:X:X:X:X",
":X:X:X:X:X:X:X:X:X:X:X:X:X:X:X:X:X:X:X:X:Xm.3 9 H.* Z s.% Q Q o t.u.:X  ,.;X$X.XXX$X=X:.  :X:X! . 7 C e.S.Z.e.N o * :X:X:X:X:X:X:X:X:X:X:X:X:X:X:X:X:X:X:X:X:X:X",
":X:X:X:X:X:X:X:X:X:X:X:X:X:X:X:X:X:X:X:X:Xb.7 O 7 b C.'.M 4 * . p.E :X< _ ).OXOX|.OX@X_   :X:X:X  ,.(.(.!.Q.(./.p . :X:X:X:X:X:X:X:X:X:X:X:X:X:X:X:X:X:X:X:X:X:X",
":X:X:X:X:X:X:X:X:X:X:X:X:X:X:X:X:X:X:X:X:XL.q   # 9.A.{.r.m   o ~ :X:X:X= . E L.h.K.d   :X:X:X:XX 7.;X%X#X#X%X%X{   :X:X:X:X:X:X:X:X:X:X:X:X:X:X:X:X:X:X:X:X:X:X",
":X:X:X:X:X:X:X:X:X:X:X:X:X:X:X:X:X:X:X:X:X:XX * L.V.n.c.B.R.L   U :X:X:X:Xp # 8 9 0 v :X:X:X:X:Xc u | /./.I./.:X:X:X:X:X:X:X:X:X:X:X:X:X:X:X:X:X:X:X:X:X:X:X:X:X",
":X:X:X:X:X:X:X:X:X:X:X:X:X:X:X:X:X:X:X:X:X:X  I =X*X.X.X$X-XW.  < x :X:X+.k         z +.:X:X:X+.z   . B E R :X:X:X:X:X:X:X:X:X:X:X:X:X:X:X:X:X:X:X:X:X:X:X:X:X:X",
":X:X:X:X:X:X:X:X:X:X:X:X:X:X:X:X:X:X:X:X:X:X< c 7.oXOXoXOX@X{     O v ] 1             1 ] a c z         r h :X:X:X:X:X:X:X:X:X:X:X:X:X:X:X:X:X:X:X:X:X:X:X:X:X:X",
":X:X:X:X:X:X:X:X:X:X:X:X:X:X:X:X:X:X:X:X:X:X:Xs   K k.d.! d         O O o               O O O O           < h :X:X:X:X:X:X:X:X:X:X:X:X:X:X:X:X:X:X:X:X:X:X:X:X:X",
":X:X:X:X:X:X:X:X:X:X:X:X:X:X:X:X:X:X:X:X:X:X:X:X:X% 9 0 o                                                 < F :X:X:X:X:X:X:X:X:X:X:X:X:X:X:X:X:X:X:X:X:X:X:X:X:X",
":X:X:X:X:X:X:X:X:X:X:X:X:X:X:X:X:X:X:X:X:X:X:X:X:Xv ;                                                     p +.:X:X:X:X:X:X:X:X:X:X:X:X:X:X:X:X:X:X:X:X:X:X:X:X:X",
":X:X:X:X:X:X:X:X:X:X:X:X:X:X:X:X:X:X:X:X:X:X:X:X:X..i                                                     a 4.:X:X:X:X:X:X:X:X:X:X:X:X:X:X:X:X:X:X:X:X:X:X:X:X:X",
":X:X:X:X:X:X:X:X:X:X:X:X:X:X:X:X:X:X:X:X:X:X:X:Xk r O                                                     > a a :X:X:X:X:X:X:X:X:X:X:X:X:X:X:X:X:X:X:X:X:X:X:X:X",
":X:X:X:X:X:X:X:X:X:X:X:X:X:X:X:X:X:X:X:X:X:X:X:Xa .                                                           a :X:X:X:X:X:X:X:X:X:X:X:X:X:X:X:X:X:X:X:X:X:X:X:X",
":X:X:X:X:X:X:X:X:X:X:X:X:X:X:X:X:X:X:X:X:X:X:X:X] O                   o                   o                 o a :X:X:X:X:X:X:X:X:X:X:X:X:X:X:X:X:X:X:X:X:X:X:X:X",
":X:X:X:X:X:X:X:X:X:X:X:X:X:X:X:X:X:X:X:X:X:X:X:X+.>         O i O   o p >               O a >               O a :X:X:X:X:X:X:X:X:X:X:X:X:X:X:X:X:X:X:X:X:X:X:X:X",
":X:X:X:X:X:X:X:X:X:X:X:X:X:X:X:X:X:X:X:X:X:X:Xz z O         > v >   o i >               o 1 >               O a :X:X:X:X:X:X:X:X:X:X:X:X:X:X:X:X:X:X:X:X:X:X:X:X",
":X:X:X:X:X:X:X:X:X:X:X:X:X:X:X:X:X:X:X:X:X:Xc <           :X:Xz >                                           = ] :X:X:X:X:X:X:X:X:X:X:X:X:X:X:X:X:X:X:X:X:X:X:X:X",
":X:X:X:X:X:X:X:X:X:X:X:X:X:X:X:X:X:X:X:X:X:Xz 2           :X:Xa O                                 :X:X      > +.:X:X:X:X:X:X:X:X:X:X:X:X:X:X:X:X:X:X:X:X:X:X:X:X",
":X:X:X:X:X:X:X:X:X:X:X:X:X:X:X:X:X:X:X:X:X:Xv 1           :X:Xc O                                 :X:X:X    O p k :X:X:X:X:X:X:X:X:X:X:X:X:X:X:X:X:X:X:X:X:X:X:X",
":X:X:X:X:X:X:X:X:X:X:X:X:X:X:X:X:X:X:X:X:X:Xv <           :X:X] >                                 :X:X:X        , v :X:X:X:X:X:X:X:X:X:X:X:X:X:X:X:X:X:X:X:X:X:X",
":X:X:X:X:X:X:X:X:X:X:X:X:X:X:X:X:X:X:X:X:X:Xv <         :X:X:XO.>                                 :X:X:X        1 v :X:X:X:X:X:X:X:X:X:X:X:X:X:X:X:X:X:X:X:X:X:X",
":X:X:X:X:X:X:X:X:X:X:X:X:X:X:X:X:X:X:X:X:X:Xc p         :X:X:X:Xv O           > >                 :X:X:X        < v :X:X:X:X:X:X:X:X:X:X:X:X:X:X:X:X:X:X:X:X:X:X",
":X:X:X:X:X:X:X:X:X:X:X:X:X:X:X:X:X:X:X:X:X:X+.a         :X:X:X:Xc 1         O v v O .             :X:X:X        1 z :X:X:X:X:X:X:X:X:X:X:X:X:X:X:X:X:X:X:X:X:X:X",
":X:X:X:X:X:X:X:X:X:X:X:X:X:X:X:X:X:X:X:X:X:X5.z         :X:X:X:Xc <       o z ] ] k o             :X:X:X        8 z :X:X:X:X:X:X:X:X:X:X:X:X:X:X:X:X:X:X:X:X:X:X",
":X:X:X:X:X:X:X:X:X:X:X:X:X:X:X:X:X:X:X:X:X:X:X{ 1 .       :X:X:Xz 1       O ] { { ] O           :X:X:X:X:X      r x :X:X:X:X:X:X:X:X:X:X:X:X:X:X:X:X:X:X:X:X:X:X",
":X:X:X:X:X:X:X:X:X:X:X:X:X:X:X:X:X:X:X:X:X:X:X:Xv o       :X:X:Xv <     O 1 ] +.+.] 1 O         :X:X:X:X:X:X    r x :X:X:X:X:X:X:X:X:X:X:X:X:X:X:X:X:X:X:X:X:X:X",
":X:X:X:X:X:X:X:X:X:X:X:X:X:X:X:X:X:X:X:X:X:X:X:XF >       :X:X:Xc 1     < ] { { { { ] <         :X:X:X:X:X:X    1 c :X:X:X:X:X:X:X:X:X:X:X:X:X:X:X:X:X:X:X:X:X:X",
":X:X:X:X:X:X:X:X:X:X:X:X:X:X:X:X:X:X:X:X:X:X:X:X:Xz >     :X:X:X{ p     > { +.> > +.{ >         :X:X:X:X:X:X    8 z :X:X:X:X:X:X:X:X:X:X:X:X:X:X:X:X:X:X:X:X:X:X",
":X:X:X:X:X:X:X:X:X:X:X:X:X:X:X:X:X:X:X:X:X:X:X:X:X{ <       :X:X5.a     . i { v c ..i o         :X:X:X:X:X:X    r z :X:X:X:X:X:X:X:X:X:X:X:X:X:X:X:X:X:X:X:X:X:X",
":X:X:X:X:X:X:X:X:X:X:X:X:X:X:X:X:X:X:X:X:X:X:X:X:X{ a o     > :X:XF O     o ] 4.4.c .           :X:X:X:X:X:X    r ) :X:X:X:X:X:X:X:X:X:X:X:X:X:X:X:X:X:X:X:X:X:X",
":X:X:X:X:X:X:X:X:X:X:X:X:X:X:X:X:X:X:X:X:X:X:X:X:X:X) i       :X:X:Xa     O ] ....] O           :X:X:X:X:X:X    a { :X:X:X:X:X:X:X:X:X:X:X:X:X:X:X:X:X:X:X:X:X:X",
":X:X:X:X:X:X:X:X:X:X:X:X:X:X:X:X:X:X:X:X:X:X:X:X:X:X:X:Xi O     :X:X] O   O c { } c O         :X:X:X:X:X:X:X<   i { :X:X:X:X:X:X:X:X:X:X:X:X:X:X:X:X:X:X:X:X:X:X",
":X:X:X:X:X:X:X:X:X:X:X:X:X:X:X:X:X:X:X:X:X:X:X:X:X:X:X:X` >     :Xc a o   o r ) c 1 .     O :X:X:X:X:X:X:X:Xa   p +.:X:X:X:X:X:X:X:X:X:X:X:X:X:X:X:X:X:X:X:X:X:X",
":X:X:X:X:X:X:X:X:X:X:X:X:X:X:X:X:X:X:X:X:X:X:X:X:X:X:X:X{ 1 . o a 1           8 i       o z :X:X:X:X:X:X:X$.x   h $.:X:X:X:X:X:X:X:X:X:X:X:X:X:X:X:X:X:X:X:X:X:X",
":X:X:X:X:X:X:X:X:X:X:X:X:X:X:X:X:X:X:X:X:X:X:X:X:X:X:X:X:XF v a >             o o       O ] :X:X:X:X:X:X$...) l x c :X:X:X:X:X:X:X:X:X:X:X:X:X:X:X:X:X:X:X:X:X:X",
":X:X:X:X:X:X:X:X:X:X:X:X:X:X:X:X:X:X:X:X:X:X:X:X:X:X:X:X:X] x r                         o i a :X:X:X:X:X+.| ;.J.H s :X:X:X:X:X:X:X:X:X:X:X:X:X:X:X:X:X:X:X:X:X:X",
":X:X:X:X:X:X:X:X:X:X:X:X:X:X:X:X:X:X:X:X:X:X:X:X:X:X:X:X:Xv 8                               < c :X:X:X:X@.,.M.N.W s :X:X:X:X:X:X:X:X:X:X:X:X:X:X:X:X:X:X:X:X:X:X",
":X:X:X:X:X:X:X:X:X:X:X:X:X:X:X:X:X:X:X:X:X:X:X:X:X:X:X:X:X{ h                               a { :X:X:X:X3.,.v.v.&.) :X:X:X:X:X:X:X:X:X:X:X:X:X:X:X:X:X:X:X:X:X:X",
":X:X:X:X:X:X:X:X:X:X:X:X:X:X:X:X:X:X:X:X:X:X:X:X:X:X:X:X:X{ a                               > p a :X:X:X:X1.*.&.} :X:X:X:X:X:X:X:X:X:X:X:X:X:X:X:X:X:X:X:X:X:X:X",
":X:X:X:X:X:X:X:X:X:X:X:X:X:X:X:X:X:X:X:X:X:X:X:X:X:X:X:X:XO.c                                 O v :X:X:X:X:X..` :X:X:X:X:X:X:X:X:X:X:X:X:X:X:X:X:X:X:X:X:X:X:X:X",
":X:X:X:X:X:X:X:X:X:X:X:X:X:X:X:X:X:X:X:X:X:X:X:X:X:X:X:X:X+.]           :X:X:X:X:X:X          > ] :X:X:X:X:X:X:X:X:X:X:X:X:X:X:X:X:X:X:X:X:X:X:X:X:X:X:X:X:X:X:X",
":X:X:X:X:X:X:X:X:X:X:X:X:X:X:X:X:X:X:X:X:X:X:X:X:X:X:X:Xk p >         :X:X:X:X:X:X:X:X        o > a :X:X:X:X:X:X:X:X:X:X:X:X:X:X:X:X:X:X:X:X:X:X:X:X:X:X:X:X:X:X",
":X:X:X:X:X:X:X:X:X:X:X:X:X:X:X:X:X:X:X:X:X:X:X:X:X:X:X:Xh O         :X:X:X:X:X:X:X:X:X:X          i c :X:X:X:X:X:X:X:X:X:X:X:X:X:X:X:X:X:X:X:X:X:X:X:X:X:X:X:X:X",
":X:X:X:X:X:X:X:X:X:X:X:X:X:X:X:X:X:X:X:X:X:X:X:X:X:X:X:Xz >         :X:X:X:X:X:X:X:X:X:X:X        z O.:X:X:X:X:X:X:X:X:X:X:X:X:X:X:X:X:X:X:X:X:X:X:X:X:X:X:X:X:X",
":X:X:X:X:X:X:X:X:X:X:X:X:X:X:X:X:X:X:X:X:X:X:X:X:X:X:X:X] >         :X:X:X:X:X:X:X:X:X:X:X        c $.:X:X:X:X:X:X:X:X:X:X:X:X:X:X:X:X:X:X:X:X:X:X:X:X:X:X:X:X:X",
":X:X:X:X:X:X:X:X:X:X:X:X:X:X:X:X:X:X:X:X:X:X:X:X:X:X:X:X{ ,         :X:X:X:X:X:X:X:X:X:X:X        ] :X:X:X:X:X:X:X:X:X:X:X:X:X:X:X:X:X:X:X:X:X:X:X:X:X:X:X:X:X:X",
":X:X:X:X:X:X:X:X:X:X:X:X:X:X:X:X:X:X:X:X:X:X:X:X:X:X:X:X{ ,         :X:X:X:X:X:X:X:X:X:X:X        :X:X:X:X:X:X:X:X:X:X:X:X:X:X:X:X:X:X:X:X:X:X:X:X:X:X:X:X:X:X:X",
":X:X:X:X:X:X:X:X:X:X:X:X:X:X:X:X:X:X:X:X:X:X:X:X:X:X:X:X#.<         = :X:X:X:X:X:X:X:X:X          :X:X:X:X:X:X:X:X:X:X:X:X:X:X:X:X:X:X:X:X:X:X:X:X:X:X:X:X:X:X:X",
":X:X:X:X:X:X:X:X:X:X:X:X:X:X:X:X:X:X:X:X:X:X:X:X:X:X:X:X:Xg - : u u j  .:X:X:X:X:X:X:X:X. ; t < u l ' o.:X:X:X:X:X:X:X:X:X:X:X:X:X:X:X:X:X:X:X:X:X:X:X:X:X:X:X:X",
":X:X:X:X:X:X:X:X:X:X:X:X:X:X:X:X:X:X:X:X:X:X:X:X:X:X:X:X:XQ G Q D.;.;.H.>.:X:X:X:X:X:X:Xq I } %.;.;.-.;.1.:X:X:X:X:X:X:X:X:X:X:X:X:X:X:X:X:X:X:X:X:X:X:X:X:X:X:X",
":X:X:X:X:X:X:X:X:X:X:X:X:X:X:X:X:X:X:X:X:X:X:X:X:X:X:X:XG.G.k.n.n.m.n.N.D.o.:X:X:X:X:X:XJ.J.J.k.n.c.N.m.*...+.:X:X:X:X:X:X:X:X:X:X:X:X:X:X:X:X:X:X:X:X:X:X:X:X:X",
":X:X:X:X:X:X:X:X:X:X:X:X:X:X:X:X:X:X:X:X:X:X:X:X:X:X:X:XG.J.Y.l.V C l.N D H.:X:X:X:X:XL.K.K.K.Y.v.N B g.9 f H.:X:X:X:X:X:X:X:X:X:X:X:X:X:X:X:X:X:X:X:X:X:X:X:X:X",
":X:X:X:X:X:X:X:X:X:X:X:X:X:X:X:X:X:X:X:X:X:X:X:X:X:X:X:XJ.j.Y.d.@ w d.$ w L.:X:X:X:X:X:XJ.J.J.Y.J.$ q i.& e Y.:X:X:X:X:X:X:X:X:X:X:X:X:X:X:X:X:X:X:X:X:X:X:X:X:X",
":X:X:X:X:X:X:X:X:X:X:X:X:X:X:X:X:X:X:X:X:X:X:X:X:X:X:X:X:X:X:X:X:X:X:X:X:X:X:X:X:X:X:X:X:X:X:X:X:X:X:X:X:X:X:X:X:X:X:X:X:X:X:X:X:X:X:X:X:X:X:X:X:X:X:X:X:X:X:X:X",
":X:X:X:X:X:X:X:X:X:X:X:X:X:X:X:X:X:X:X:X:X:X:X:X:X:X:X:X:X:X:X:X:X:X:X:X:X:X:X:X:X:X:X:X:X:X:X:X:X:X:X:X:X:X:X:X:X:X:X:X:X:X:X:X:X:X:X:X:X:X:X:X:X:X:X:X:X:X:X:X",
":X:X:X:X:X:X:X:X:X:X:X:X:X:X:X:X:X:X:X:X:X:X:X:X:X:X:X:X:X:X:X:X:X:X:X:X:X:X:X:X:X:X:X:X:X:X:X:X:X:X:X:X:X:X:X:X:X:X:X:X:X:X:X:X:X:X:X:X:X:X:X:X:X:X:X:X:X:X:X:X",
":X:X:X:X:X:X:X:X:X:X:X:X:X:X:X:X:X:X:X:X:X:X:X:X:X:X:X:X:X:X:X:X:X:X:X:X:X:X:X:X:X:X:X:X:X:X:X:X:X:X:X:X:X:X:X:X:X:X:X:X:X:X:X:X:X:X:X:X:X:X:X:X:X:X:X:X:X:X:X:X",
":X:X:X:X:X:X:X:X:X:X:X:X:X:X:X:X:X:X:X:X:X:X:X:X:X:X:X:X:X:X:X:X:X:X:X:X:X:X:X:X:X:X:X:X:X:X:X:X:X:X:X:X:X:X:X:X:X:X:X:X:X:X:X:X:X:X:X:X:X:X:X:X:X:X:X:X:X:X:X:X",
":X:X:X:X:X:X:X:X:X:X:X:X:X:X:X:X:X:X:X:X:X:X:X:X:X:X:X:X:X:X:X:X:X:X:X:X:X:X:X:X:X:X:X:X:X:X:X:X:X:X:X:X:X:X:X:X:X:X:X:X:X:X:X:X:X:X:X:X:X:X:X:X:X:X:X:X:X:X:X:X",
":X:X:X:X:X:X:X:X:X:X:X:X:X:X:X:X:X:X:X:X:X:X:X:X:X:X:X:X:X:X:X:X:X:X:X:X:X:X:X:X:X:X:X:X:X:X:X:X:X:X:X:X:X:X:X:X:X:X:X:X:X:X:X:X:X:X:X:X:X:X:X:X:X:X:X:X:X:X:X:X",
":X:X:X:X:X:X:X:X:X:X:X:X:X:X:X:X:X:X:X:X:X:X:X:X:X:X:X:X:X:X:X:X:X:X:X:X:X:X:X:X:X:X:X:X:X:X:X:X:X:X:X:X:X:X:X:X:X:X:X:X:X:X:X:X:X:X:X:X:X:X:X:X:X:X:X:X:X:X:X:X",
":X:X:X:X:X:X:X:X:X:X:X:X:X:X:X:X:X:X:X:X:X:X:X:X:X:X:X:X:X:X:X:X:X:X:X:X:X:X:X:X:X:X:X:X:X:X:X:X:X:X:X:X:X:X:X:X:X:X:X:X:X:X:X:X:X:X:X:X:X:X:X:X:X:X:X:X:X:X:X:X"
};
