/* XPM */
static char *_6080_2beaf7f79d74a1402fdea233a1a3b61fd037f0bf6cfd317b536aef23a6884c22[] = {
/* columns rows colors chars-per-pixel */
"80 80 195 2 ",
"   c #000000",
".  c #0A0502",
"X  c #030509",
"o  c #04090C",
"O  c #0B0B0B",
"+  c #120C05",
"@  c #170803",
"#  c #13100A",
"$  c #19130D",
"%  c #1B190E",
"&  c #040B12",
"*  c #0B0E11",
"=  c #040F19",
"-  c #0B141B",
";  c #0C151B",
":  c #131313",
">  c #1A1714",
",  c #191A15",
"<  c #16191C",
"1  c #1B1C1B",
"2  c #101519",
"3  c #2B0900",
"4  c #2D0005",
"5  c #3E0000",
"6  c #320300",
"7  c #29190A",
"8  c #381B0B",
"9  c #261B11",
"0  c #2B1E12",
"q  c #3D2A0E",
"w  c #2D2115",
"e  c #2D241B",
"r  c #20201F",
"t  c #322316",
"y  c #3A2717",
"u  c #3E2B19",
"i  c #372816",
"p  c #32351B",
"a  c #141A21",
"s  c #1E2125",
"d  c #1B252C",
"f  c #232323",
"g  c #242729",
"h  c #2C2C2C",
"j  c #2A2725",
"k  c #39322A",
"l  c #37362B",
"z  c #242D33",
"x  c #2C2F32",
"c  c #2A353C",
"v  c #2E3031",
"b  c #343434",
"n  c #323639",
"m  c #3C3C3C",
"M  c #3B3834",
"N  c #6B0000",
"B  c #44240F",
"V  c #453100",
"C  c #472610",
"Z  c #422F1E",
"A  c #43331E",
"S  c #5A351C",
"D  c #653E1D",
"F  c #783815",
"G  c #463327",
"H  c #523827",
"J  c #443E39",
"K  c #523D32",
"L  c #5C4127",
"P  c #56422C",
"I  c #5C5620",
"U  c #4D4135",
"Y  c #4E473D",
"T  c #594A3C",
"R  c #65482B",
"E  c #764D2A",
"W  c #6A5B28",
"Q  c #684A32",
"!  c #69573A",
"~  c #735333",
"^  c #7C5A37",
"/  c #7D692E",
"(  c #383D42",
")  c #681F41",
"_  c #3C4247",
"`  c #3E4951",
"'  c #434344",
"]  c #46494A",
"[  c #4B4B4B",
"{  c #4D4A44",
"}  c #554E46",
"|  c #584D40",
" . c #5A534D",
".. c #444F56",
"X. c #4C5155",
"o. c #4D565B",
"O. c #4E585D",
"+. c #535353",
"@. c #585757",
"#. c #535659",
"$. c #56595C",
"%. c #5A5A5A",
"&. c #645443",
"*. c #6C5A4D",
"=. c #6E5943",
"-. c #7C5A44",
";. c #785846",
":. c #695E56",
">. c #78644D",
",. c #66615E",
"<. c #726456",
"1. c #7E6652",
"2. c #565D62",
"3. c #5F6264",
"4. c gray38",
"5. c #6A6A6A",
"6. c #766D61",
"7. c #7A7065",
"8. c #646C71",
"9. c #7E7A76",
"0. c #910700",
"q. c #94001B",
"w. c #BC3712",
"e. c #C01810",
"r. c #C40B22",
"t. c #E23A2F",
"y. c #914B1D",
"u. c #904C18",
"i. c #BD4B16",
"p. c #825E39",
"a. c #9C5F3B",
"s. c #9B5228",
"d. c #A65D24",
"f. c #8B6537",
"g. c #87613A",
"h. c #8F693F",
"j. c #8A623C",
"k. c #9B6436",
"l. c #9D693D",
"z. c #97673C",
"x. c #97703A",
"c. c #917A31",
"v. c #847429",
"b. c #BC652F",
"n. c #A56D3B",
"m. c #BC6631",
"M. c #B66833",
"N. c #B17239",
"B. c #D14721",
"V. c #D3423B",
"C. c #CC5F3D",
"Z. c #C4642E",
"A. c #CC6E2F",
"S. c #C06730",
"D. c #BE0B7A",
"F. c #992077",
"G. c #96386E",
"H. c #CF3F4F",
"J. c #E00D7F",
"K. c #F43A70",
"L. c #895E43",
"P. c #8E6A42",
"I. c #85694A",
"U. c #8A6B4B",
"Y. c #87654A",
"T. c #926A41",
"R. c #956E45",
"E. c #9D7145",
"W. c #9D754A",
"Q. c #836E5C",
"!. c #906E59",
"~. c #967656",
"^. c #88765E",
"/. c #A56E4D",
"(. c #A37445",
"). c #B87746",
"_. c #A57B53",
"`. c #877461",
"'. c #C77B46",
"]. c #A9845F",
"[. c #BF8553",
"{. c #B4975E",
"}. c #9A836A",
"|. c #A88A6B",
" X c #B7976E",
".X c #F43A9A",
"XX c #CE13BB",
"oX c #F21BAA",
"OX c #E30CC4",
"+X c #AFB0AF",
"@X c #B5B6B5",
"#X c #A4A7AB",
"$X c #CAA98B",
"%X c #CBC7C3",
"&X c None",
/* pixels */
"&X&X&X&X&X&X&X&X&X&X&X&X&X&X&X&X&X&X&X&X&X&X&X&X&X&X&X&X&X&X&X&X&X&X&X&X&X&X&X&X&X&X&X&X&X&X&X&X&X&X&X&X&X&X&X&X&X&X&X&X&X&X&X&X&X&X&X&X&X&X&X&X&X&X&X&X&X&X&X&X",
"&X&X&X&X&X&X&X&X&X&X&X&X&X&X&X&X&X&X&X&X&X&X&X&X&X&X&X&X&X&X&X&X&X&X&X&X&X&X&X&X&X&X&X&X&X&X&X&X&X&X&X&X&X&X&X&X&X&X&X&X&X&X&X&X&X&X&X&X&X&X&X&X&X&X&X&X&X&X&X&X",
"&X&X&X&X&X&X&X&X&X&X&X&X&X&X&X&X&X&X&X&X&X&X&X&X&X&X&X&X&X&X&X&X&X&X&X&X&X&X&X&X&X&X&X&X&X&X&X&X&X&X&X&X&X&X&X&X&X&X&X&X&X&X&X&X&X&X&X&X&X&X&X&X&X&X&X&X&X&X&X&X",
"&X&X&X&X&X&X&X&X&X&X&X&X&X&X&X&X&X&X&X&X&X&X&X&X&X&X&X&X&X&X&X&X&X&X&X&X&X&X&X&X&X&X&X&X&X&X&X&X&X&X&X&X&X&X&X&X&X&X&X&X&X&X&X&X&X&X&X&X&X&X&X&X&X&X&X&X&X&X&X&X",
"&X&X&X&X&X&X&X&X&X&X&X&X&X&X&X&X&X&X&X&X&X&X&X&X&X&X&X&X&X&X&X&X&X&X&X&X&X&X&X&X&X&X&X&X&X&X&X&X&X&X&X&X&X&X&X&X&X&X&X&X&X&X&X&X&X&X&X&X&X&X&X&X&X&X&X&X&X&X&X&X",
"&X&X&X&X&X&X&X&X&X&X&X&X&X&X&X&X&X&X&X&X&X&X&X&X&X&X&X&X&X&X&X&X&X&X&X&X&X&X&X&X&X&X&X&X&X&X&X&X&X&X&X&X&X&X&X&X&X&X&X&X&X&X&X&X&X&X&X&X&X&X&X&X&X&X&X&X&X&X&X&X",
"&X&X&X&X&X&X&X&X&X&X&X&X&X&X&X&X&X&X&X&X&X&X&X&X&X&X&X&X&X&X&X&X&X&X&X&X&X&X&X&X&X&X&X&X&X&X&X&X&X&X&X&X&X&X&X&X&X&X&X&X&X&X&X&X&X&X&X&X&X&X&X&X&X&X&X&X&X&X&X&X",
"&X&X&X&X&X&X&X&X&X&X&X&X&X&X&X&X&X&X&X&X&X&X&X&X&X&X&X&X&X&X&X&X&X&X&X&X&X&X&X&X&X&X&X&X&X&X&X&X&X&X&X&X&X&X&X&X&X&X&X&X&X&X&X&X&X&X&X&X&X&X&X&X&X&X&X&X&X&X&X&X",
"&X&X&X&X&X&X&X&X&X&X&X&X&X&X&X&X&X&X&X&X&X&X&X&X&X&X&X&X&X&X&X&X&X&X&X&X&X&X&X&X&X&X&X&X&X&X&X&X&X&X&X&X&X&X&X&X&X&X&X&X&X&X&X&X&X&X&X&X&X&X&X&X&X&X&X&X&X&X&X&X",
"&X&X&X&X&X&X&X&X&X&X&X&X&X&X&X&X&X&X&X&X&X&X&X&X&X&X&X&X&X&X&X&X&X&X&X&X&X&X' +.+.' &X&X&X&X&X&X&X&X&X&X&X&X&X&X&X&X&X&X&X&X&X&X&X&X&X&X&X&X&X&X&X&X&X&X&X&X&X&X",
"&X&X&X&X&X&X&X&X&X&X&X&X&X&X&X&X&X&X&X&X&X&X&X&X&X&X&X&X&X&X&X&X&X&X&X&X&X%.b m m M ] &X&X&X&X&X&X&X&X&X&X&X&X&X&X&X&X&X&X&X&X&X&X&X&X&X&X&X&X&X&X&X&X&X&X&X&X&X",
"&X&X&X&X&X&X&X&X&X&X&X&X&X&X&X&X&X&X&X&X&X&X&X&X&X&X&X&X&X&X&X&X&X&X&Xv +.] X     X b ' b &X&X&X&X&X&X[ $.+.' &X&X&X&X&X&X&X&X&X&X&X&X&X&X&X&X&X&X&X&X&X&X&X&X&X",
"&X&X&X&X&X&X&X&X&X&X&X&X&X&X&X&X&X&X&X&X&X&X&X&X&XY ' [ Y ' &X&X&X&X&Xm f X           r m &X&X&Xb %.[ r f 1 h [ ' h &X&X&X&X&X&X&X&X&X&X&X&X&X&X&X&X&X&X&X&X&X&X",
"&X&X&X&X&X&X&X&X&X&X&X&X&X&X&X&X&X&X&X&X&X&Xh ' ] 1 o * * b [ x &X&Xo.g & , A y y Z 1 & h %.&X&Xb ' f         h b b &X&X&X&X&X&X&X&X&X&X&X&X&X&X&X&X&X&X&X&X&X&X",
"&X&X&X&X&X&X&X&X&X&X&X&X&X&X&X&X&X&X&X&X&X&Xb h :         X f b &X&X{   g 6.P.x.x.P.6.g   ] &X&Xb O   . . .     1 ' &X&X&X&X&X&X&X&X&X&X&X&X&X&X&X&X&X&X&X&X&X&X",
"&X&X&X&X&X&X&X&X&X&X&X&X&X&X&X&X&X&X&X&X&X&Xx : X 9 0 9 w # o h  ./.s.. P I., W W , U.L   ] 8._ O a Y ~ Q E ! n * 1 $.%.&X&X&X&X&X&X&X&X&X&X&X&X&X&X&X&X&X&X&X&X",
"&X&X&X&X&X&X&X&X&X&X&X&X&X&X&X&X&X&X&X&X&X$.: - +.I.f.f.h.<.c   c !.d.+ % 8 5 F.F.5 8 7 & ] !.H   } ^.W c./ &.`.0 o  .<.&X&X&X&X&X&X&X&X&X&X&X&X&X&X&X&X&X&X&X&X",
"&X&X&X&X&X&X&X&X&X&X&X&X&X&X&X&X&X&X&X&X&Xa.@ e ~.k I v.p >.=.  H ).P.O   3 e.oXoXe.3   & o.'.u.. Q L . ^ G . p.y & *.Y.&X&X&X&X&X&X&X&X&X&X&X&X&X&X&X&X&X&X&X&X",
"&X&X&X&X&X&X&X&X&X&X&X&X&X&X&X&X&X&X&X&X&XM.7 $ S @ ) G.4 B A . F '.&X. t n.Z.C.C.Z.l.i X &X_.E X   6 q.XXD.N @   ; :.1.&X&X&X&X&X&X&X&X&X&X&X&X&X&X&X&X&X&X&X&X",
"&X&X&X&X&X&X&X&X&X&X&X&X&X&X&X&X&X&X&X&X&Xl.0     0.oXOXr.5   . ~ p.&X  m |.(.V V (.|.J   &X&X~ . O F t..XK.w.q   2 <.Q.&X&X&X&X&X&X&X&X&X&X&X&X&X&X&X&X&X&X&X&X",
"&X&X&X&X&X&X&X&X&X&X&X&X&X&X&X&X&X&X&X&X&XM.0 X D i.V.H.B.y.w   T &X&X  - } W.A A W.} -   &X&X&X  T [.M.u.d.'._.e   &X&X&X&X&X&X&X&X&X&X&X&X&X&X&X&X&X&X&X&X&X&X",
"&X&X&X&X&X&X&X&X&X&X&X&X&X&X&X&X&X&X&X&X&X&X. l $X$X{.{. X$X<.  b &X&X&X  $ P.W.W.P.$   &X&X&X&X  ' }.f.+ q _.7.g   &X&X&X&X&X&X&X&X&X&X&X&X&X&X&X&X&X&X&X&X&X&X",
"&X&X&X&X&X&X&X&X&X&X&X&X&X&X&X&X&X&X&X&X&X&X  ' #X@X+X+X@X%X9.  b &X&X&X' m 0 t w 0 m ' &X&X&X&Xf & U W.R ^ ~.f X &X&X&X&X&X&X&X&X&X&X&X&X&X&X&X&X&X&X&X&X&X&X&X",
"&X&X&X&X&X&X&X&X&X&X&X&X&X&X&X&X&X&X&X&X&X&Xf z 1 I.|.W.|.|.G   f n ( :.@.x X       x %.%.m +.@.v X e ~ g./ H , &X&X&X&X&X&X&X&X&X&X&X&X&X&X&X&X&X&X&X&X&X&X&X&X",
"&X&X&X&X&X&X&X&X&X&X&X&X&X&X&X&X&X&X&X&X&X&X&X:   8 R Q ^ t       o b ' 1             1 J v m h O : # X > > 1 ' &X&X&X&X&X&X&X&X&X&X&X&X&X&X&X&X&X&X&X&X&X&X&X&X",
"&X&X&X&X&X&X&X&X&X&X&X&X&X&X&X&X&X&X&X&X&X&X&X&X&X&Xm l >         . O O X             X O O O O         X < x &X&X&X&X&X&X&X&X&X&X&X&X&X&X&X&X&X&X&X&X&X&X&X&X&X",
"&X&X&X&X&X&X&X&X&X&X&X&X&X&X&X&X&X&X&X&X&X&X&X&X&X&Xs o                                                   : m &X&X&X&X&X&X&X&X&X&X&X&X&X&X&X&X&X&X&X&X&X&X&X&X&X",
"&X&X&X&X&X&X&X&X&X&X&X&X&X&X&X&X&X&X&X&X&X&X&X&X&Xm 1                                                     f @.&X&X&X&X&X&X&X&X&X&X&X&X&X&X&X&X&X&X&X&X&X&X&X&X&X",
"&X&X&X&X&X&X&X&X&X&X&X&X&X&X&X&X&X&X&X&X&X&X&X&X&X[ f                                                     b 4.&X&X&X&X&X&X&X&X&X&X&X&X&X&X&X&X&X&X&X&X&X&X&X&X&X",
"&X&X&X&X&X&X&X&X&X&X&X&X&X&X&X&X&X&X&X&X&X&X&X&Xh f O                                                     O f b &X&X&X&X&X&X&X&X&X&X&X&X&X&X&X&X&X&X&X&X&X&X&X&X",
"&X&X&X&X&X&X&X&X&X&X&X&X&X&X&X&X&X&X&X&X&X&X&Xm h X                                                           h m &X&X&X&X&X&X&X&X&X&X&X&X&X&X&X&X&X&X&X&X&X&X&X",
"&X&X&X&X&X&X&X&X&X&X&X&X&X&X&X&X&X&X&X&X&X&X&X+.' O                   X                   X                 O h b &X&X&X&X&X&X&X&X&X&X&X&X&X&X&X&X&X&X&X&X&X&X&X",
"&X&X&X&X&X&X&X&X&X&X&X&X&X&X&X&X&X&X&X&X&X&X&X+.%.:         O f O   . g ,               O f :               O h b &X&X&X&X&X&X&X&X&X&X&X&X&X&X&X&X&X&X&X&X&X&X&X",
"&X&X&X&X&X&X&X&X&X&X&X&X&X&X&X&X&X&X&X&X&X&X&Xb b O         : b :   X f :               X f :               O h m &X&X&X&X&X&X&X&X&X&X&X&X&X&X&X&X&X&X&X&X&X&X&X",
"&X&X&X&X&X&X&X&X&X&X&X&X&X&X&X&X&X&X&X&X&X&Xb 1           &X&Xb :                                           : ' @.&X&X&X&X&X&X&X&X&X&X&X&X&X&X&X&X&X&X&X&X&X&X&X",
"&X&X&X&X&X&X&X&X&X&X&X&X&X&X&X&X&X&X&X&X&X&Xb 1           &X&Xh O                                 &X        : @.+.&X&X&X&X&X&X&X&X&X&X&X&X&X&X&X&X&X&X&X&X&X&X&X",
"&X&X&X&X&X&X&X&X&X&X&X&X&X&X&X&X&X&X&X&X&X&Xb f           &X&Xb O                                 &X&X      O f b h &X&X&X&X&X&X&X&X&X&X&X&X&X&X&X&X&X&X&X&X&X&X",
"&X&X&X&X&X&X&X&X&X&X&X&X&X&X&X&X&X&X&X&X&X&Xb 1           &X&X[ :                                 &X&X&X        : b &X&X&X&X&X&X&X&X&X&X&X&X&X&X&X&X&X&X&X&X&X&X",
"&X&X&X&X&X&X&X&X&X&X&X&X&X&X&X&X&X&X&X&X&X&Xb 1         &X&X&X@.1                                 &X&X&X        1 m &X&X&X&X&X&X&X&X&X&X&X&X&X&X&X&X&X&X&X&X&X&X",
"&X&X&X&X&X&X&X&X&X&X&X&X&X&X&X&X&X&X&X&X&X&X' f         &X&X&X%.b O           : :                 &X&X&X        1 b &X&X&X&X&X&X&X&X&X&X&X&X&X&X&X&X&X&X&X&X&X&X",
"&X&X&X&X&X&X&X&X&X&X&X&X&X&X&X&X&X&X&X&X&X&X@.h         &X&X&X&Xm 1         O b b #                 &X&X        1 m &X&X&X&X&X&X&X&X&X&X&X&X&X&X&X&X&X&X&X&X&X&X",
"&X&X&X&X&X&X&X&X&X&X&X&X&X&X&X&X&X&X&X&X&X&X4.b         &X&X&X&Xm 1       X b ' ] v X             &X&X&X        1 b &X&X&X&X&X&X&X&X&X&X&X&X&X&X&X&X&X&X&X&X&X&X",
"&X&X&X&X&X&X&X&X&X&X&X&X&X&X&X&X&X&X&X&X&X&X&X[ 1 X       &X&X&Xb 1       O ' [ [ ' O           &X&X&X&X&X      1 b &X&X&X&X&X&X&X&X&X&X&X&X&X&X&X&X&X&X&X&X&X&X",
"&X&X&X&X&X&X&X&X&X&X&X&X&X&X&X&X&X&X&X&X&X&X&X+.M X         &X&Xb 1     O r ' @.%.' f .         &X&X&X&X&X      1 m &X&X&X&X&X&X&X&X&X&X&X&X&X&X&X&X&X&X&X&X&X&X",
"&X&X&X&X&X&X&X&X&X&X&X&X&X&X&X&X&X&X&X&X&X&X&X[ ( :       &X&X&Xm 1     1 ' [ ] [ ] ' 1         &X&X&X&X&X      1 b &X&X&X&X&X&X&X&X&X&X&X&X&X&X&X&X&X&X&X&X&X&X",
"&X&X&X&X&X&X&X&X&X&X&X&X&X&X&X&X&X&X&X&X&X&X&X&X&Xb #       &X&X+.f     : [ %.: : @.[ ,         &X&X&X&X&X      f b &X&X&X&X&X&X&X&X&X&X&X&X&X&X&X&X&X&X&X&X&X&X",
"&X&X&X&X&X&X&X&X&X&X&X&X&X&X&X&X&X&X&X&X&X&X&X&X&X[ 1       &X&X5.h     X f [ m m [ f X         &X&X&X&X&X      1 b &X&X&X&X&X&X&X&X&X&X&X&X&X&X&X&X&X&X&X&X&X&X",
"&X&X&X&X&X&X&X&X&X&X&X&X&X&X&X&X&X&X&X&X&X&X&X&X&X{ h X     : &X5.m X     . ' 4.4.m O           &X&X&X&X&X      1 m &X&X&X&X&X&X&X&X&X&X&X&X&X&X&X&X&X&X&X&X&X&X",
"&X&X&X&X&X&X&X&X&X&X&X&X&X&X&X&X&X&X&X&X&X&X&X&X&X&Xm f       &X&X+.j X   O ' +.[ ' O           &X&X&X&X&X      h [ &X&X&X&X&X&X&X&X&X&X&X&X&X&X&X&X&X&X&X&X&X&X",
"&X&X&X&X&X&X&X&X&X&X&X&X&X&X&X&X&X&X&X&X&X&X&X&X&X&X&Xb f O     &X&X] .   O m [ [ m O         &X&X&X&X&X&Xf 1   f [ &X&X&X&X&X&X&X&X&X&X&X&X&X&X&X&X&X&X&X&X&X&X",
"&X&X&X&X&X&X&X&X&X&X&X&X&X&X&X&X&X&X&X&X&X&X&X&X&X&X&X&X' :     f m h X     1 m m a       O : &X&X&X&X&X&X[ h   f @.&X&X&X&X&X&X&X&X&X&X&X&X&X&X&X&X&X&X&X&X&X&X",
"&X&X&X&X&X&X&X&X&X&X&X&X&X&X&X&X&X&X&X&X&X&X&X&X&X&X&X&X[ 1   O h 1           f f .     O b J &X&X&X&X&X&X$.b X v 4.&X&X&X&X&X&X&X&X&X&X&X&X&X&X&X&X&X&X&X&X&X&X",
"&X&X&X&X&X&X&X&X&X&X&X&X&X&X&X&X&X&X&X&X&X&X&X&X&X&X&X&X&X' b h : X           X .       O ' ] &X&X&X&X&X%.+.( z n m &X&X&X&X&X&X&X&X&X&X&X&X&X&X&X&X&X&X&X&X&X&X",
"&X&X&X&X&X&X&X&X&X&X&X&X&X&X&X&X&X&X&X&X&X&X&X&X&X&X&X&X&Xm m 1                         X f h h &X&X&X&X#. .;.P.K s &X&X&X&X&X&X&X&X&X&X&X&X&X&X&X&X&X&X&X&X&X&X",
"&X&X&X&X&X&X&X&X&X&X&X&X&X&X&X&X&X&X&X&X&X&X&X&X&X&X&X&X&Xm 1                               1 m &X&X&X&X#.*.N.A.Q z &X&X&X&X&X&X&X&X&X&X&X&X&X&X&X&X&X&X&X&X&X&X",
"&X&X&X&X&X&X&X&X&X&X&X&X&X&X&X&X&X&X&X&X&X&X&X&X&X&X&X&X&X[ h                               h [ &X&X&X&X2.>.n.n.! ( &X&X&X&X&X&X&X&X&X&X&X&X&X&X&X&X&X&X&X&X&X&X",
"&X&X&X&X&X&X&X&X&X&X&X&X&X&X&X&X&X&X&X&X&X&X&X&X&X&X&X&X&X[ v                               : j h &X&X&X3.:.*.&.{ &X&X&X&X&X&X&X&X&X&X&X&X&X&X&X&X&X&X&X&X&X&X&X",
"&X&X&X&X&X&X&X&X&X&X&X&X&X&X&X&X&X&X&X&X&X&X&X&X&X&X&X&X&X@.m                                 O M &X&X&X&X&XX._ &X&X&X&X&X&X&X&X&X&X&X&X&X&X&X&X&X&X&X&X&X&X&X&X",
"&X&X&X&X&X&X&X&X&X&X&X&X&X&X&X&X&X&X&X&X&X&X&X&X&X&X&X&X&X@.'             &X&X&X&X&X          : ' m &X&X&X&X&X&X&X&X&X&X&X&X&X&X&X&X&X&X&X&X&X&X&X&X&X&X&X&X&X&X",
"&X&X&X&X&X&X&X&X&X&X&X&X&X&X&X&X&X&X&X&X&X&X&X&X&X&X&X&Xb f :           &X&X&X&X&X&X&X        X : h x &X&X&X&X&X&X&X&X&X&X&X&X&X&X&X&X&X&X&X&X&X&X&X&X&X&X&X&X&X",
"&X&X&X&X&X&X&X&X&X&X&X&X&X&X&X&X&X&X&X&X&X&X&X&X&X&X&X&Xv O           &X&X&X&X&X&X&X&X&X          a Y &X&X&X&X&X&X&X&X&X&X&X&X&X&X&X&X&X&X&X&X&X&X&X&X&X&X&X&X&X",
"&X&X&X&X&X&X&X&X&X&X&X&X&X&X&X&X&X&X&X&X&X&X&X&X&X&X&X&Xb :         &X&X&X&X&X&X&X&X&X&X&X        b X.&X&X&X&X&X&X&X&X&X&X&X&X&X&X&X&X&X&X&X&X&X&X&X&X&X&X&X&X&X",
"&X&X&X&X&X&X&X&X&X&X&X&X&X&X&X&X&X&X&X&X&X&X&X&X&X&X&X&X' :         &X&X&X&X&X&X&X&X&X&X&X        m ,.&X&X&X&X&X&X&X&X&X&X&X&X&X&X&X&X&X&X&X&X&X&X&X&X&X&X&X&X&X",
"&X&X&X&X&X&X&X&X&X&X&X&X&X&X&X&X&X&X&X&X&X&X&X&X&X&X&X&X] ,         &X&X&X&X&X&X&X&X&X&X&X        ' &X&X&X&X&X&X&X&X&X&X&X&X&X&X&X&X&X&X&X&X&X&X&X&X&X&X&X&X&X&X",
"&X&X&X&X&X&X&X&X&X&X&X&X&X&X&X&X&X&X&X&X&X&X&X&X&X&X&X&X[ 2         &X&X&X&X&X&X&X&X&X&X          &X&X&X&X&X&X&X&X&X&X&X&X&X&X&X&X&X&X&X&X&X&X&X&X&X&X&X&X&X&X&X",
"&X&X&X&X&X&X&X&X&X&X&X&X&X&X&X&X&X&X&X&X&X&X&X&X&X&X&X&X$.1       X o &X&X&X&X&X&X&X&X            &X&X&X&X&X&X&X&X&X&X&X&X&X&X&X&X&X&X&X&X&X&X&X&X&X&X&X&X&X&X&X",
"&X&X&X&X&X&X&X&X&X&X&X&X&X&X&X&X&X&X&X&X&X&X&X&X&X&X&X&X&Xk = ; d d z ..&X&X&X&X&X&X&X  X - a a d c ` #.&X&X&X&X&X&X&X&X&X&X&X&X&X&X&X&X&X&X&X&X&X&X&X&X&X&X&X&X",
"&X&X&X&X&X&X&X&X&X&X&X&X&X&X&X&X&X&X&X&X&X&X&X&X&X&X&X&X&X&.U Q -.-.;.Y.<.&X&X&X&X&X&X0 i K | T ;.;.;.;.4.2.&X&X&X&X&X&X&X&X&X&X&X&X&X&X&X&X&X&X&X&X&X&X&X&X&X&X",
"&X&X&X&X&X&X&X&X&X&X&X&X&X&X&X&X&X&X&X&X&X&X&X&X&X&X&X&XT.P.l.m.m.m.S.Z.L.#.&X&X&X&X&XT.P.T.T.T.m.b.Z.M.*.o.@.&X&X&X&X&X&X&X&X&X&X&X&X&X&X&X&X&X&X&X&X&X&X&X&X&X",
"&X&X&X&X&X&X&X&X&X&X&X&X&X&X&X&X&X&X&X&X&X&X&X&X&X&X&X&XP.T.(.l.C D k.C H U.&X&X&X&X&XE.E.R.T.(.n.B S k.e k U.&X&X&X&X&X&X&X&X&X&X&X&X&X&X&X&X&X&X&X&X&X&X&X&X&X",
"&X&X&X&X&X&X&X&X&X&X&X&X&X&X&X&X&X&X&X&X&X&X&X&X&X&X&X&XP.T.(.p.# u j.+ y E.&X&X&X&X&XR.z.T.T.(.P.@ t p.$ t (.&X&X&X&X&X&X&X&X&X&X&X&X&X&X&X&X&X&X&X&X&X&X&X&X&X",
"&X&X&X&X&X&X&X&X&X&X&X&X&X&X&X&X&X&X&X&X&X&X&X&X&X&X&X&X&X&X&X&X&X&X&X&X&X&X&X&X&X&X&X&X&X&X&X&X&X&X&X&X&X&X&X&X&X&X&X&X&X&X&X&X&X&X&X&X&X&X&X&X&X&X&X&X&X&X&X&X",
"&X&X&X&X&X&X&X&X&X&X&X&X&X&X&X&X&X&X&X&X&X&X&X&X&X&X&X&X&X&X&X&X&X&X&X&X&X&X&X&X&X&X&X&X&X&X&X&X&X&X&X&X&X&X&X&X&X&X&X&X&X&X&X&X&X&X&X&X&X&X&X&X&X&X&X&X&X&X&X&X",
"&X&X&X&X&X&X&X&X&X&X&X&X&X&X&X&X&X&X&X&X&X&X&X&X&X&X&X&X&X&X&X&X&X&X&X&X&X&X&X&X&X&X&X&X&X&X&X&X&X&X&X&X&X&X&X&X&X&X&X&X&X&X&X&X&X&X&X&X&X&X&X&X&X&X&X&X&X&X&X&X",
"&X&X&X&X&X&X&X&X&X&X&X&X&X&X&X&X&X&X&X&X&X&X&X&X&X&X&X&X&X&X&X&X&X&X&X&X&X&X&X&X&X&X&X&X&X&X&X&X&X&X&X&X&X&X&X&X&X&X&X&X&X&X&X&X&X&X&X&X&X&X&X&X&X&X&X&X&X&X&X&X",
"&X&X&X&X&X&X&X&X&X&X&X&X&X&X&X&X&X&X&X&X&X&X&X&X&X&X&X&X&X&X&X&X&X&X&X&X&X&X&X&X&X&X&X&X&X&X&X&X&X&X&X&X&X&X&X&X&X&X&X&X&X&X&X&X&X&X&X&X&X&X&X&X&X&X&X&X&X&X&X&X",
"&X&X&X&X&X&X&X&X&X&X&X&X&X&X&X&X&X&X&X&X&X&X&X&X&X&X&X&X&X&X&X&X&X&X&X&X&X&X&X&X&X&X&X&X&X&X&X&X&X&X&X&X&X&X&X&X&X&X&X&X&X&X&X&X&X&X&X&X&X&X&X&X&X&X&X&X&X&X&X&X",
"&X&X&X&X&X&X&X&X&X&X&X&X&X&X&X&X&X&X&X&X&X&X&X&X&X&X&X&X&X&X&X&X&X&X&X&X&X&X&X&X&X&X&X&X&X&X&X&X&X&X&X&X&X&X&X&X&X&X&X&X&X&X&X&X&X&X&X&X&X&X&X&X&X&X&X&X&X&X&X&X",
"&X&X&X&X&X&X&X&X&X&X&X&X&X&X&X&X&X&X&X&X&X&X&X&X&X&X&X&X&X&X&X&X&X&X&X&X&X&X&X&X&X&X&X&X&X&X&X&X&X&X&X&X&X&X&X&X&X&X&X&X&X&X&X&X&X&X&X&X&X&X&X&X&X&X&X&X&X&X&X&X",
"&X&X&X&X&X&X&X&X&X&X&X&X&X&X&X&X&X&X&X&X&X&X&X&X&X&X&X&X&X&X&X&X&X&X&X&X&X&X&X&X&X&X&X&X&X&X&X&X&X&X&X&X&X&X&X&X&X&X&X&X&X&X&X&X&X&X&X&X&X&X&X&X&X&X&X&X&X&X&X&X"
};
