/* XPM */
static char *_6479_f3e127214dac622915f6f8e3f056f6e15eb10a1f102d571b79e934e2666bce05[] = {
/* columns rows colors chars-per-pixel */
"80 80 198 2 ",
"   c #000000",
".  c #0B0502",
"X  c #070709",
"o  c #04090C",
"O  c #0B0B0B",
"+  c #080906",
"@  c #140001",
"#  c #120C06",
"$  c #130E09",
"%  c #1C0A00",
"&  c #151109",
"*  c #19140C",
"=  c #1B190E",
"-  c #070C11",
";  c #0B0E12",
":  c #040F19",
">  c #100F10",
",  c #0D131A",
"<  c #0B141B",
"1  c #141414",
"2  c #1A1B13",
"3  c #16191B",
"4  c #1C1C1C",
"5  c #2B0900",
"6  c #230C00",
"7  c #3F0000",
"8  c #330600",
"9  c #271609",
"0  c #3B1B0C",
"q  c #251C12",
"w  c #2C2114",
"e  c #2D251B",
"r  c #27211C",
"t  c #322316",
"y  c #3A2717",
"u  c #392918",
"i  c #141A20",
"p  c #1F2325",
"a  c #1B252C",
"s  c #232323",
"d  c #292724",
"f  c #252729",
"g  c #2C2C2C",
"h  c #292827",
"j  c #37312E",
"k  c #39322A",
"l  c #2D2F31",
"z  c #232E34",
"x  c #2A3339",
"c  c #343434",
"v  c #313538",
"b  c #3C3C3C",
"n  c #3B3937",
"m  c #322C25",
"M  c #490000",
"N  c #551300",
"B  c #6C0015",
"V  c #502D0F",
"C  c #453100",
"Z  c #472610",
"A  c #422F1E",
"S  c #41311D",
"D  c #583519",
"F  c #45240E",
"G  c #643C1E",
"H  c #7B3710",
"J  c #4D3921",
"K  c #583923",
"L  c #443D37",
"P  c #523D32",
"I  c #582932",
"U  c #62411F",
"Y  c #53412D",
"T  c #5A432A",
"R  c #5D4227",
"E  c #4C433B",
"W  c #53493F",
"Q  c #564C3A",
"!  c #4E4929",
"~  c #6B4A29",
"^  c #6A5B28",
"/  c #694733",
"(  c #695239",
")  c #795433",
"_  c #7C5B34",
"`  c #755437",
"'  c #774F2A",
"]  c #706327",
"[  c #7F6135",
"{  c #393D42",
"}  c #394146",
"|  c #3E4951",
" . c #434343",
".. c #46494D",
"X. c #4B4B4B",
"o. c #494946",
"O. c #534D47",
"+. c #58524B",
"@. c #444F56",
"#. c #4C5156",
"$. c #4D565C",
"%. c #545454",
"&. c #555B5E",
"*. c #595959",
"=. c #545659",
"-. c #635343",
";. c #6C5A4E",
":. c #60584D",
">. c #7C5A44",
",. c #775947",
"<. c #695E56",
"1. c #74624D",
"2. c #7E6042",
"3. c #66615E",
"4. c #565C61",
"5. c gray38",
"6. c #686868",
"7. c #766D62",
"8. c #7F7260",
"9. c #676D70",
"0. c #767879",
"q. c #820100",
"w. c #AA1D00",
"e. c #AC061F",
"r. c #BD3D0E",
"t. c #C01810",
"y. c #D73C1E",
"u. c #D71F21",
"i. c #86431B",
"p. c #97552C",
"a. c #805B33",
"s. c #955930",
"d. c #8A5126",
"f. c #B05F2B",
"g. c #85623B",
"h. c #8A623B",
"j. c #8F683F",
"k. c #9B6436",
"l. c #91683E",
"z. c #9D693D",
"x. c #956839",
"c. c #97703A",
"v. c #997739",
"b. c #8B782B",
"n. c #BC652F",
"m. c #A56D3B",
"M. c #AD6A38",
"N. c #BC6631",
"B. c #B36332",
"V. c #B17239",
"C. c #CC5F3D",
"Z. c #C4642E",
"A. c #C66B2F",
"S. c #C16934",
"D. c #C1723E",
"F. c #9E1168",
"G. c #992077",
"H. c #DD344D",
"J. c #E81B6E",
"K. c #D8316A",
"L. c #8A5D43",
"P. c #864752",
"I. c #8E6A42",
"U. c #8A6B4B",
"Y. c #85664C",
"T. c #936A41",
"R. c #996E43",
"E. c #9D7145",
"W. c #9D744A",
"Q. c #8B765D",
"!. c #98775B",
"~. c #A37445",
"^. c #B87B4E",
"/. c #847869",
"(. c #B6884D",
"). c #A88A6B",
"_. c #B78C64",
"`. c #AD9071",
"'. c #B09373",
"]. c #C2916A",
"[. c #BB1EA7",
"{. c #D30B86",
"}. c #F21BAA",
"|. c #E417A4",
" X c #DA0EC5",
".X c #B39B83",
"XX c #B2AE8E",
"oX c #AAA29A",
"OX c #B8AD9A",
"+X c #B4B3AA",
"@X c #BABAB9",
"#X c #D6A981",
"$X c #C7BEB2",
"%X c #BDC0BD",
"&X c #CFC1B4",
"*X c #D3C5B5",
"=X c #CBCBC9",
"-X c None",
/* pixels */
"-X-X-X-X-X-X-X-X-X-X-X-X-X-X-X-X-X-X-X-X-X-X-X-X-X-X-X-X-X-X-X-X-X-X-X-X-X-X-X-X-X-X-X-X-X-X-X-X-X-X-X-X-X-X-X-X-X-X-X-X-X-X-X-X-X-X-X-X-X-X-X-X-X-X-X-X-X-X-X-X",
"-X-X-X-X-X-X-X-X-X-X-X-X-X-X-X-X-X-X-X-X-X-X-X-X-X-X-X-X-X-X-X-X-X-X-X-X-X-X-X-X-X-X-X-X-X-X-X-X-X-X-X-X-X-X-X-X-X-X-X-X-X-X-X-X-X-X-X-X-X-X-X-X-X-X-X-X-X-X-X-X",
"-X-X-X-X-X-X-X-X-X-X-X-X-X-X-X-X-X-X-X-X-X-X-X-X-X-X-X-X-X-X-X-X-X-X-X-X-X-X-X-X-X-X-X-X-X-X-X-X-X-X-X-X-X-X-X-X-X-X-X-X-X-X-X-X-X-X-X-X-X-X-X-X-X-X-X-X-X-X-X-X",
"-X-X-X-X-X-X-X-X-X-X-X-X-X-X-X-X-X-X-X-X-X-X-X-X-X-X-X-X-X-X-X-X-X-X-X-X-X-X-X-X-X-X-X-X-X-X-X-X-X-X-X-X-X-X-X-X-X-X-X-X-X-X-X-X-X-X-X-X-X-X-X-X-X-X-X-X-X-X-X-X",
"-X-X-X-X-X-X-X-X-X-X-X-X-X-X-X-X-X-X-X-X-X-X-X-X-X-X-X-X-X-X-X-X-X-X-X-X-X-X-X-X-X-X-X-X-X-X-X-X-X-X-X-X-X-X-X-X-X-X-X-X-X-X-X-X-X-X-X-X-X-X-X-X-X-X-X-X-X-X-X-X",
"-X-X-X-X-X-X-X-X-X-X-X-X-X-X-X-X-X-X-X-X-X-X-X-X-X-X-X-X-X-X-X-X-X-X-X-X-X-X-X-X-X-X-X-X-X-X-X-X-X-X-X-X-X-X-X-X-X-X-X-X-X-X-X-X-X-X-X-X-X-X-X-X-X-X-X-X-X-X-X-X",
"-X-X-X-X-X-X-X-X-X-X-X-X-X-X-X-X-X-X-X-X-X-X-X-X-X-X-X-X-X-X-X-X-X-X-X-X-X-X-X-X-X-X-X-X-X-X-X-X-X-X-X-X-X-X-X-X-X-X-X-X-X-X-X-X-X-X-X-X-X-X-X-X-X-X-X-X-X-X-X-X",
"-X-X-X-X-X-X-X-X-X-X-X-X-X-X-X-X-X-X-X-X-X-X-X-X-X-X-X-X-X-X-X-X-X-X-X-X-X-X-X-X-X-X-X-X-X-X-X-X-X-X-X-X-X-X-X-X-X-X-X-X-X-X-X-X-X-X-X-X-X-X-X-X-X-X-X-X-X-X-X-X",
"-X-X-X-X-X-X-X-X-X-X-X-X-X-X-X-X-X-X-X-X-X-X-X-X-X-X-X-X-X-X-X-X-X-X-X-X-X-X-X-X-X-X-X-X-X-X-X-X-X-X-X-X-X-X-X-X-X-X-X-X-X-X-X-X-X-X-X-X-X-X-X-X-X-X-X-X-X-X-X-X",
"-X-X-X-X-X-X-X-X-X-X-X-X-X-X-X-X-X-X-X-X-X-X-X-X-X-X-X-X-X-X-X-X-X-X-X-X-X-Xo.#.%.o.-X-X-X-X-X-X-X-X-X-X-X-X-X-X-X-X-X-X-X-X-X-X-X-X-X-X-X-X-X-X-X-X-X-X-X-X-X-X",
"-X-X-X-X-X-X-X-X-X-X-X-X-X-X-X-X-X-X-X-X-X-X-X-X-X-X-X-X-X-X-X-X-X-X-X-X-X-Xn b b c -X-X-X-X-X-X-X-X-X-X-X-X-X-X-X-X-X-X-X-X-X-X-X-X-X-X-X-X-X-X-X-X-X-X-X-X-X-X",
"-X-X-X-X-X-X-X-X-X-X-X-X-X-X-X-X-X-X-X-X-X-X-X-X-X-X-X-X-X-X-X-X-X-X-Xl #.o.X     X c o.c -X-X-X-X-X-Xo.%.#. .-X-X-X-X-X-X-X-X-X-X-X-X-X-X-X-X-X-X-X-X-X-X-X-X-X",
"-X-X-X-X-X-X-X-X-X-X-X-X-X-X-X-X-X-X-X-X-X-X-X-X-Xo.=.*.X.-X-X-X-X-X-Xb s +           4 b -X-X-Xc O.b 3 4 1 s X. .g -X-X-X-X-X-X-X-X-X-X-X-X-X-X-X-X-X-X-X-X-X-X",
"-X-X-X-X-X-X-X-X-X-X-X-X-X-X-X-X-X-X-X-X-X-X-X-X-X .=.*.o. .-X-X-X-X-Xf O 3 u u y A 4 - g -X-X-Xc l ;         4 c b -X-X-X-X-X-X-X-X-X-X-X-X-X-X-X-X-X-X-X-X-X-X",
"-X-X-X-X-X-X-X-X-X-X-X-X-X-X-X-X-X-X-X-X-X-Xg b o.g c c g b o.g -X-XO.  f 7.I.c.c.I.7.f   o.-X-Xg O   & # # #   1 b -X-X-X-X-X-X-X-X-X-X-X-X-X-X-X-X-X-X-X-X-X-X",
"-X-X-X-X-X-X-X-X-X-X-X-X-X-X-X-X-X-X-X-X-X-Xc b l O       p b x -X-Xp.  P U.2 ^ ^ 2 U.T   ..9.} X a :.h._ a.>...; 3 #.&.-X-X-X-X-X-X-X-X-X-X-X-X-X-X-X-X-X-X-X-X",
"-X-X-X-X-X-X-X-X-X-X-X-X-X-X-X-X-X-X-X-X-X-XL p             1 v -X-Xp.$ 2 0 M G.[.M 0 9 o ..Q.~   -.Q.! b.] Q /.e # _ L.-X-X-X-X-X-X-X-X-X-X-X-X-X-X-X-X-X-X-X-X",
"-X-X-X-X-X-X-X-X-X-X-X-X-X-X-X-X-X-X-X-X-X&.h - p T K J R j < 2 } /.l.$   5 t.}.|.w.5   - #.^.i.. T D @ P.I @ ~ w 6 f.Z.-X-X-X-X-X-X-X-X-X-X-X-X-X-X-X-X-X-X-X-X",
"-X-X-X-X-X-X-X-X-X-X-X-X-X-X-X-X-X-X-X-X-X;.+ 4 7.1.x.v.g.Q. .  j !.-X+ e m.Z.S.Z.Z.R.y   -X!.' .   8 e. X{.q.    q x.z.-X-X-X-X-X-X-X-X-X-X-X-X-X-X-X-X-X-X-X-X",
"-X-X-X-X-X-X-X-X-X-X-X-X-X-X-X-X-X-X-X-X-XB.6 e I.& ! [ & ( (   H s.-X  n ).~.C C ~.).L   -X-X_   & H y.K.H.r.V   2 -X-X-X-X-X-X-X-X-X-X-X-X-X-X-X-X-X-X-X-X-X-X",
"-X-X-X-X-X-X-X-X-X-X-X-X-X-X-X-X-X-X-X-X-XM.9 X 9 M F.[.B 8 * . d.) -X  < O.W.S S W.O.<   -X-X-X  1.].].(.(.]._.d + -X-X-X-X-X-X-X-X-X-X-X-X-X-X-X-X-X-X-X-X-X-X",
"-X-X-X-X-X-X-X-X-X-X-X-X-X-X-X-X-X-X-X-X-XR.w   6 w.J.|.u.N   X ( -X-X-X  * T.W.W.l.*   -X-X-X-XO 0.=X@X+X@X%X@Xo.  -X-X-X-X-X-X-X-X-X-X-X-X-X-X-X-X-X-X-X-X-X-X",
"-X-X-X-X-X-X-X-X-X-X-X-X-X-X-X-X-X-X-X-X-X-X. w E.V.N.Z.S.^.Q   W -X-X-X-Xb w t w w b -X-X-X-X-Xb f O.'.'.).'.-X-X-X-X-X-X-X-X-X-X-X-X-X-X-X-X-X-X-X-X-X-X-X-X-X",
"-X-X-X-X-X-X-X-X-X-X-X-X-X-X-X-X-X-X-X-X-X-X  E &X&XXXXX+X*X/.  3 v -X-X*.l         l *.-X-X-X*.c   . D ' ~ -X-X-X-X-X-X-X-X-X-X-X-X-X-X-X-X-X-X-X-X-X-X-X-X-X-X",
"-X-X-X-X-X-X-X-X-X-X-X-X-X-X-X-X-X-X-X-X-X-X3 { 0.oXOXoXOXoX..    O c o.3             4 b j b l         i l -X-X-X-X-X-X-X-X-X-X-X-X-X-X-X-X-X-X-X-X-X-X-X-X-X-X",
"-X-X-X-X-X-X-X-X-X-X-X-X-X-X-X-X-X-X-X-X-X-X-Xp   ~ z.a.` m         O $ X             X O X O O           3 l -X-X-X-X-X-X-X-X-X-X-X-X-X-X-X-X-X-X-X-X-X-X-X-X-X",
"-X-X-X-X-X-X-X-X-X-X-X-X-X-X-X-X-X-X-X-X-X-X-X-X-X& e r +                                                 3 L -X-X-X-X-X-X-X-X-X-X-X-X-X-X-X-X-X-X-X-X-X-X-X-X-X",
"-X-X-X-X-X-X-X-X-X-X-X-X-X-X-X-X-X-X-X-X-X-X-X-X-X{ 1                                                     h *.-X-X-X-X-X-X-X-X-X-X-X-X-X-X-X-X-X-X-X-X-X-X-X-X-X",
"-X-X-X-X-X-X-X-X-X-X-X-X-X-X-X-X-X-X-X-X-X-X-X-X-XX.s                                                     c 4.-X-X-X-X-X-X-X-X-X-X-X-X-X-X-X-X-X-X-X-X-X-X-X-X-X",
"-X-X-X-X-X-X-X-X-X-X-X-X-X-X-X-X-X-X-X-X-X-X-X-Xc s O                                                     $ h l -X-X-X-X-X-X-X-X-X-X-X-X-X-X-X-X-X-X-X-X-X-X-X-X",
"-X-X-X-X-X-X-X-X-X-X-X-X-X-X-X-X-X-X-X-X-X-X-X-Xg X                                                           g -X-X-X-X-X-X-X-X-X-X-X-X-X-X-X-X-X-X-X-X-X-X-X-X",
"-X-X-X-X-X-X-X-X-X-X-X-X-X-X-X-X-X-X-X-X-X-X-X-X .O                   X                   X                 O g -X-X-X-X-X-X-X-X-X-X-X-X-X-X-X-X-X-X-X-X-X-X-X-X",
"-X-X-X-X-X-X-X-X-X-X-X-X-X-X-X-X-X-X-X-X-X-X-X-X*.1         ; d O   X d 1               O d 1               O g -X-X-X-X-X-X-X-X-X-X-X-X-X-X-X-X-X-X-X-X-X-X-X-X",
"-X-X-X-X-X-X-X-X-X-X-X-X-X-X-X-X-X-X-X-X-X-X-Xn c O         1 c 1   X s 1               X p 1               O l -X-X-X-X-X-X-X-X-X-X-X-X-X-X-X-X-X-X-X-X-X-X-X-X",
"-X-X-X-X-X-X-X-X-X-X-X-X-X-X-X-X-X-X-X-X-X-Xc 4           -X-Xc 1                                           O  .-X-X-X-X-X-X-X-X-X-X-X-X-X-X-X-X-X-X-X-X-X-X-X-X",
"-X-X-X-X-X-X-X-X-X-X-X-X-X-X-X-X-X-X-X-X-X-Xc 4           -X-Xg O                                 -X-X      1 =.-X-X-X-X-X-X-X-X-X-X-X-X-X-X-X-X-X-X-X-X-X-X-X-X",
"-X-X-X-X-X-X-X-X-X-X-X-X-X-X-X-X-X-X-X-X-X-Xc s           -X-Xc O                                 -X-X-X    O d c -X-X-X-X-X-X-X-X-X-X-X-X-X-X-X-X-X-X-X-X-X-X-X",
"-X-X-X-X-X-X-X-X-X-X-X-X-X-X-X-X-X-X-X-X-X-Xc 4           -X-Xo.1                                 -X-X-X        1 c -X-X-X-X-X-X-X-X-X-X-X-X-X-X-X-X-X-X-X-X-X-X",
"-X-X-X-X-X-X-X-X-X-X-X-X-X-X-X-X-X-X-X-X-X-Xc 3         -X-X-X=.4                                 -X-X-X        4 c -X-X-X-X-X-X-X-X-X-X-X-X-X-X-X-X-X-X-X-X-X-X",
"-X-X-X-X-X-X-X-X-X-X-X-X-X-X-X-X-X-X-X-X-X-X .d         -X-X-X-Xc O           1 1                 -X-X-X        4 b -X-X-X-X-X-X-X-X-X-X-X-X-X-X-X-X-X-X-X-X-X-X",
"-X-X-X-X-X-X-X-X-X-X-X-X-X-X-X-X-X-X-X-X-X-X=.g         -X-X-X-Xb 4         O c c O               -X-X-X        4 n -X-X-X-X-X-X-X-X-X-X-X-X-X-X-X-X-X-X-X-X-X-X",
"-X-X-X-X-X-X-X-X-X-X-X-X-X-X-X-X-X-X-X-X-X-X5.c         -X-X-X-Xb 4       X c o.o.l X             -X-X-X        4 c -X-X-X-X-X-X-X-X-X-X-X-X-X-X-X-X-X-X-X-X-X-X",
"-X-X-X-X-X-X-X-X-X-X-X-X-X-X-X-X-X-X-X-X-X-X-XX.q o       -X-X-Xc 4       O  .X.X.{ O           -X-X-X-X-X      i n -X-X-X-X-X-X-X-X-X-X-X-X-X-X-X-X-X-X-X-X-X-X",
"-X-X-X-X-X-X-X-X-X-X-X-X-X-X-X-X-X-X-X-X-X-X-X-Xc X       -X-X-Xc 4     X p  .*.*...q O         -X-X-X-X-X-X    r v -X-X-X-X-X-X-X-X-X-X-X-X-X-X-X-X-X-X-X-X-X-X",
"-X-X-X-X-X-X-X-X-X-X-X-X-X-X-X-X-X-X-X-X-X-X-X-X .;       -X-X-Xb 4     4  .o.X.o.X. .4         -X-X-X-X-X-X    4 n -X-X-X-X-X-X-X-X-X-X-X-X-X-X-X-X-X-X-X-X-X-X",
"-X-X-X-X-X-X-X-X-X-X-X-X-X-X-X-X-X-X-X-X-X-X-X-X-Xc 1     -X-X-XX.d     3 o.*.1 1 *.o.3         -X-X-X-X-X-X    4 c -X-X-X-X-X-X-X-X-X-X-X-X-X-X-X-X-X-X-X-X-X-X",
"-X-X-X-X-X-X-X-X-X-X-X-X-X-X-X-X-X-X-X-X-X-X-X-X-Xo.4       -X-X6.g     X s X.v b O.d X         -X-X-X-X-X-X    4 c -X-X-X-X-X-X-X-X-X-X-X-X-X-X-X-X-X-X-X-X-X-X",
"-X-X-X-X-X-X-X-X-X-X-X-X-X-X-X-X-X-X-X-X-X-X-X-X-Xo.g X     1 -X-X} +     X E 5.5.{ X           -X-X-X-X-X-X    s b -X-X-X-X-X-X-X-X-X-X-X-X-X-X-X-X-X-X-X-X-X-X",
"-X-X-X-X-X-X-X-X-X-X-X-X-X-X-X-X-X-X-X-X-X-X-X-X-X-X} r       -X-X-Xg     O  .%.%. .O           -X-X-X-X-X-X    g o.-X-X-X-X-X-X-X-X-X-X-X-X-X-X-X-X-X-X-X-X-X-X",
"-X-X-X-X-X-X-X-X-X-X-X-X-X-X-X-X-X-X-X-X-X-X-X-X-X-X-X-Xs O     -X-X .O   O b o.o.b O         -X-X-X-X-X-X-X4   f o.-X-X-X-X-X-X-X-X-X-X-X-X-X-X-X-X-X-X-X-X-X-X",
"-X-X-X-X-X-X-X-X-X-X-X-X-X-X-X-X-X-X-X-X-X-X-X-X-X-X-X-X .1     -Xb g X     4 b b 4       O -X-X-X-X-X-X-X-Xg   d =.-X-X-X-X-X-X-X-X-X-X-X-X-X-X-X-X-X-X-X-X-X-X",
"-X-X-X-X-X-X-X-X-X-X-X-X-X-X-X-X-X-X-X-X-X-X-X-X-X-X-X-XO.i   O g 4           s s       O c -X-X-X-X-X-X-X*.v   l 5.-X-X-X-X-X-X-X-X-X-X-X-X-X-X-X-X-X-X-X-X-X-X",
"-X-X-X-X-X-X-X-X-X-X-X-X-X-X-X-X-X-X-X-X-X-X-X-X-X-X-X-X-X .v g 1             X X       O o.-X-X-X-X-X-X*.%.{ x c b -X-X-X-X-X-X-X-X-X-X-X-X-X-X-X-X-X-X-X-X-X-X",
"-X-X-X-X-X-X-X-X-X-X-X-X-X-X-X-X-X-X-X-X-X-X-X-X-X-X-X-X-X .b q                         X s g -X-X-X-X-X=.+.,.T.P p -X-X-X-X-X-X-X-X-X-X-X-X-X-X-X-X-X-X-X-X-X-X",
"-X-X-X-X-X-X-X-X-X-X-X-X-X-X-X-X-X-X-X-X-X-X-X-X-X-X-X-X-Xb i                               4 b -X-X-X-X$.1.V.A./ z -X-X-X-X-X-X-X-X-X-X-X-X-X-X-X-X-X-X-X-X-X-X",
"-X-X-X-X-X-X-X-X-X-X-X-X-X-X-X-X-X-X-X-X-X-X-X-X-X-X-X-X-Xo.l                               g o.-X-X-X-X4.1.m.m.-.{ -X-X-X-X-X-X-X-X-X-X-X-X-X-X-X-X-X-X-X-X-X-X",
"-X-X-X-X-X-X-X-X-X-X-X-X-X-X-X-X-X-X-X-X-X-X-X-X-X-X-X-X-XO.g                               1 d g -X-X-X-X<.;.-.O.-X-X-X-X-X-X-X-X-X-X-X-X-X-X-X-X-X-X-X-X-X-X-X",
"-X-X-X-X-X-X-X-X-X-X-X-X-X-X-X-X-X-X-X-X-X-X-X-X-X-X-X-X-X=.b                                 O c -X-X-X-X-X#.} -X-X-X-X-X-X-X-X-X-X-X-X-X-X-X-X-X-X-X-X-X-X-X-X",
"-X-X-X-X-X-X-X-X-X-X-X-X-X-X-X-X-X-X-X-X-X-X-X-X-X-X-X-X-X=. .          -X-X-X-X-X-X          1 o.-X-X-X-X-X-X-X-X-X-X-X-X-X-X-X-X-X-X-X-X-X-X-X-X-X-X-X-X-X-X-X",
"-X-X-X-X-X-X-X-X-X-X-X-X-X-X-X-X-X-X-X-X-X-X-X-X-X-X-X-Xl d 1         -X-X-X-X-X-X-X-X        X 1 g -X-X-X-X-X-X-X-X-X-X-X-X-X-X-X-X-X-X-X-X-X-X-X-X-X-X-X-X-X-X",
"-X-X-X-X-X-X-X-X-X-X-X-X-X-X-X-X-X-X-X-X-X-X-X-X-X-X-X-Xc O         -X-X-X-X-X-X-X-X-X-X          4 b -X-X-X-X-X-X-X-X-X-X-X-X-X-X-X-X-X-X-X-X-X-X-X-X-X-X-X-X-X",
"-X-X-X-X-X-X-X-X-X-X-X-X-X-X-X-X-X-X-X-X-X-X-X-X-X-X-X-Xc O         -X-X-X-X-X-X-X-X-X-X-X        c %.-X-X-X-X-X-X-X-X-X-X-X-X-X-X-X-X-X-X-X-X-X-X-X-X-X-X-X-X-X",
"-X-X-X-X-X-X-X-X-X-X-X-X-X-X-X-X-X-X-X-X-X-X-X-X-X-X-X-Xo.1         -X-X-X-X-X-X-X-X-X-X-X        b 5.-X-X-X-X-X-X-X-X-X-X-X-X-X-X-X-X-X-X-X-X-X-X-X-X-X-X-X-X-X",
"-X-X-X-X-X-X-X-X-X-X-X-X-X-X-X-X-X-X-X-X-X-X-X-X-X-X-X-Xo.3         -X-X-X-X-X-X-X-X-X-X-X         .-X-X-X-X-X-X-X-X-X-X-X-X-X-X-X-X-X-X-X-X-X-X-X-X-X-X-X-X-X-X",
"-X-X-X-X-X-X-X-X-X-X-X-X-X-X-X-X-X-X-X-X-X-X-X-X-X-X-X-XX.1         -X-X-X-X-X-X-X-X-X-X-X        -X-X-X-X-X-X-X-X-X-X-X-X-X-X-X-X-X-X-X-X-X-X-X-X-X-X-X-X-X-X-X",
"-X-X-X-X-X-X-X-X-X-X-X-X-X-X-X-X-X-X-X-X-X-X-X-X-X-X-X-X&.4         ; -X-X-X-X-X-X-X-X-X          -X-X-X-X-X-X-X-X-X-X-X-X-X-X-X-X-X-X-X-X-X-X-X-X-X-X-X-X-X-X-X",
"-X-X-X-X-X-X-X-X-X-X-X-X-X-X-X-X-X-X-X-X-X-X-X-X-X-X-X-X-Xk : < a a z @.-X-X-X-X-X-X-X-X  , 3 3 a x | $.-X-X-X-X-X-X-X-X-X-X-X-X-X-X-X-X-X-X-X-X-X-X-X-X-X-X-X-X",
"-X-X-X-X-X-X-X-X-X-X-X-X-X-X-X-X-X-X-X-X-X-X-X-X-X-X-X-X-X-.E / L.>.,.Y.<.-X-X-X-X-X-X-Xt P O.O.,.>.>.,.5.-X-X-X-X-X-X-X-X-X-X-X-X-X-X-X-X-X-X-X-X-X-X-X-X-X-X-X",
"-X-X-X-X-X-X-X-X-X-X-X-X-X-X-X-X-X-X-X-X-X-X-X-X-X-X-X-XT.I.z.N.n.N.Z.Z.L.$.-X-X-X-X-X-XT.T.I.z.N.n.Z.B.;.$.*.-X-X-X-X-X-X-X-X-X-X-X-X-X-X-X-X-X-X-X-X-X-X-X-X-X",
"-X-X-X-X-X-X-X-X-X-X-X-X-X-X-X-X-X-X-X-X-X-X-X-X-X-X-X-XI.T.~.k.F G k.F J U.-X-X-X-X-XW.R.R.R.~.m.Z D k.d k U.-X-X-X-X-X-X-X-X-X-X-X-X-X-X-X-X-X-X-X-X-X-X-X-X-X",
"-X-X-X-X-X-X-X-X-X-X-X-X-X-X-X-X-X-X-X-X-X-X-X-X-X-X-X-XT.T.~.h.$ A h.# u W.-X-X-X-X-X-XR.T.T.~.l.& t h.& t ~.-X-X-X-X-X-X-X-X-X-X-X-X-X-X-X-X-X-X-X-X-X-X-X-X-X",
"-X-X-X-X-X-X-X-X-X-X-X-X-X-X-X-X-X-X-X-X-X-X-X-X-X-X-X-X-X-X-X-X-X-X-X-X-X-X-X-X-X-X-X-X-X-X-X-X-X-X-X-X-X-X-X-X-X-X-X-X-X-X-X-X-X-X-X-X-X-X-X-X-X-X-X-X-X-X-X-X",
"-X-X-X-X-X-X-X-X-X-X-X-X-X-X-X-X-X-X-X-X-X-X-X-X-X-X-X-X-X-X-X-X-X-X-X-X-X-X-X-X-X-X-X-X-X-X-X-X-X-X-X-X-X-X-X-X-X-X-X-X-X-X-X-X-X-X-X-X-X-X-X-X-X-X-X-X-X-X-X-X",
"-X-X-X-X-X-X-X-X-X-X-X-X-X-X-X-X-X-X-X-X-X-X-X-X-X-X-X-X-X-X-X-X-X-X-X-X-X-X-X-X-X-X-X-X-X-X-X-X-X-X-X-X-X-X-X-X-X-X-X-X-X-X-X-X-X-X-X-X-X-X-X-X-X-X-X-X-X-X-X-X",
"-X-X-X-X-X-X-X-X-X-X-X-X-X-X-X-X-X-X-X-X-X-X-X-X-X-X-X-X-X-X-X-X-X-X-X-X-X-X-X-X-X-X-X-X-X-X-X-X-X-X-X-X-X-X-X-X-X-X-X-X-X-X-X-X-X-X-X-X-X-X-X-X-X-X-X-X-X-X-X-X",
"-X-X-X-X-X-X-X-X-X-X-X-X-X-X-X-X-X-X-X-X-X-X-X-X-X-X-X-X-X-X-X-X-X-X-X-X-X-X-X-X-X-X-X-X-X-X-X-X-X-X-X-X-X-X-X-X-X-X-X-X-X-X-X-X-X-X-X-X-X-X-X-X-X-X-X-X-X-X-X-X",
"-X-X-X-X-X-X-X-X-X-X-X-X-X-X-X-X-X-X-X-X-X-X-X-X-X-X-X-X-X-X-X-X-X-X-X-X-X-X-X-X-X-X-X-X-X-X-X-X-X-X-X-X-X-X-X-X-X-X-X-X-X-X-X-X-X-X-X-X-X-X-X-X-X-X-X-X-X-X-X-X",
"-X-X-X-X-X-X-X-X-X-X-X-X-X-X-X-X-X-X-X-X-X-X-X-X-X-X-X-X-X-X-X-X-X-X-X-X-X-X-X-X-X-X-X-X-X-X-X-X-X-X-X-X-X-X-X-X-X-X-X-X-X-X-X-X-X-X-X-X-X-X-X-X-X-X-X-X-X-X-X-X",
"-X-X-X-X-X-X-X-X-X-X-X-X-X-X-X-X-X-X-X-X-X-X-X-X-X-X-X-X-X-X-X-X-X-X-X-X-X-X-X-X-X-X-X-X-X-X-X-X-X-X-X-X-X-X-X-X-X-X-X-X-X-X-X-X-X-X-X-X-X-X-X-X-X-X-X-X-X-X-X-X",
"-X-X-X-X-X-X-X-X-X-X-X-X-X-X-X-X-X-X-X-X-X-X-X-X-X-X-X-X-X-X-X-X-X-X-X-X-X-X-X-X-X-X-X-X-X-X-X-X-X-X-X-X-X-X-X-X-X-X-X-X-X-X-X-X-X-X-X-X-X-X-X-X-X-X-X-X-X-X-X-X"
};
