/* XPM */
static char *_1647_df99e2215a74a16575ff6f13cef72cf61ba747ac70aa5342d0d5c4c56453d19b[] = {
/* columns rows colors chars-per-pixel */
"80 80 199 2 ",
"   c #000000",
".  c #0C0503",
"X  c #040508",
"o  c #04090D",
"O  c #0B0B0B",
"+  c #120C05",
"@  c #170903",
"#  c #151009",
"$  c #1B140D",
"%  c #1B190F",
"&  c #1E1106",
"*  c #050C12",
"=  c #0B0E12",
"-  c #030F1A",
";  c #0B141B",
":  c #0B181F",
">  c #131313",
",  c #1A1A15",
"<  c #101619",
"1  c #16191C",
"2  c #1B1C1B",
"3  c #1B1610",
"4  c #2B0900",
"5  c #290005",
"6  c #350300",
"7  c #3F0000",
"8  c #221409",
"9  c #28180B",
"0  c #3B1B0C",
"q  c #2B1F13",
"w  c #261C12",
"e  c #3D2A0E",
"r  c #2C2115",
"t  c #2D241B",
"y  c #23201A",
"u  c #322316",
"i  c #3A2717",
"p  c #3E2B19",
"a  c #372816",
"s  c #3F321F",
"d  c #161C22",
"f  c #201F20",
"g  c #1B252C",
"h  c #1E2326",
"j  c #232323",
"k  c #242729",
"l  c #2C2C2C",
"z  c #292825",
"x  c #39322A",
"c  c #3D3B21",
"v  c #232D35",
"b  c #2D2F31",
"n  c #2A343B",
"m  c #343434",
"M  c #323639",
"N  c #3C3C3C",
"B  c #3C3934",
"V  c #6B0000",
"C  c #43250F",
"Z  c #453100",
"A  c #472610",
"S  c #412F1D",
"D  c #492613",
"F  c #41311D",
"G  c #4F371C",
"H  c #5C3418",
"J  c #643C1E",
"K  c #723011",
"L  c #463829",
"P  c #543824",
"I  c #443E39",
"U  c #523D32",
"Y  c #613C25",
"T  c #5C4127",
"R  c #56422C",
"E  c #4E4135",
"W  c #43413F",
"Q  c #4E463C",
"!  c #594A3C",
"~  c #674729",
"^  c #764D2A",
"/  c #6A5B28",
"(  c #665B25",
")  c #6C4B30",
"_  c #654B33",
"`  c #69573A",
"'  c #765534",
"]  c #7C5A36",
"[  c #7D692E",
"{  c #3C3F42",
"}  c #363C42",
"|  c #6A2242",
" . c #3D4144",
".. c #3B4348",
"X. c #3E4951",
"o. c #434444",
"O. c #474A4C",
"+. c #4B4B4B",
"@. c #4B4946",
"#. c #544D46",
"$. c #5D554E",
"%. c #474E53",
"&. c #4D5054",
"*. c #4C545A",
"=. c #4E585D",
"-. c #535353",
";. c #585757",
":. c #535659",
">. c #5A5A5A",
",. c #575A5C",
"<. c #645443",
"1. c #6C5741",
"2. c #6C5A4D",
"3. c #645348",
"4. c #7C5A44",
"5. c #785846",
"6. c #695E56",
"7. c #75624E",
"8. c #66615E",
"9. c #716257",
"0. c #796656",
"q. c #5B5E60",
"w. c #565D62",
"e. c #5F6264",
"r. c gray38",
"t. c #696969",
"y. c #756B62",
"u. c #7A7065",
"i. c #686E71",
"p. c #777777",
"a. c #8F0700",
"s. c #94001B",
"d. c #BC3712",
"f. c #BC0922",
"g. c #C01810",
"h. c #E23A2F",
"j. c #904C17",
"k. c #9C572B",
"l. c #845F3B",
"z. c #9F5D32",
"x. c #A65D24",
"c. c #876139",
"v. c #8A633C",
"b. c #8F683F",
"n. c #9B6436",
"m. c #91683F",
"M. c #9E693D",
"N. c #966538",
"B. c #97703A",
"V. c #917A31",
"C. c #88742D",
"Z. c #BC652F",
"A. c #B67D27",
"S. c #A56D3B",
"D. c #BC6631",
"F. c #B46732",
"G. c #B17239",
"H. c #D24F2D",
"J. c #CC5F3D",
"K. c #C45527",
"L. c #C3642E",
"P. c #CC6E2F",
"I. c #C06730",
"U. c #BE0B7A",
"Y. c #992077",
"T. c #943B6A",
"R. c #F43A70",
"E. c #895E43",
"W. c #8E6A42",
"Q. c #8A6B4A",
"!. c #87654A",
"~. c #936A41",
"^. c #946A43",
"/. c #967246",
"(. c #9D7145",
"). c #9D754A",
"_. c #866E59",
"`. c #956B50",
"'. c #90765A",
"]. c #88765E",
"[. c #AC6E4A",
"{. c #A37445",
"}. c #B57845",
"|. c #A57B53",
" X c #877461",
".X c #D0465F",
"XX c #D4484B",
"oX c #C47A4B",
"OX c #BE8241",
"+X c #BF8553",
"@X c #978168",
"#X c #A88A6B",
"$X c #C0844C",
"%X c #DC0D89",
"&X c #F43A9A",
"*X c #CE13BB",
"=X c #F21BAA",
"-X c #E00FC8",
";X c None",
/* pixels */
";X;X;X;X;X;X;X;X;X;X;X;X;X;X;X;X;X;X;X;X;X;X;X;X;X;X;X;X;X;X;X;X;X;X;X;X;X;X;X;X;X;X;X;X;X;X;X;X;X;X;X;X;X;X;X;X;X;X;X;X;X;X;X;X;X;X;X;X;X;X;X;X;X;X;X;X;X;X;X;X",
";X;X;X;X;X;X;X;X;X;X;X;X;X;X;X;X;X;X;X;X;X;X;X;X;X;X;X;X;X;X;X;X;X;X;X;X;X;X;X;X;X;X;X;X;X;X;X;X;X;X;X;X;X;X;X;X;X;X;X;X;X;X;X;X;X;X;X;X;X;X;X;X;X;X;X;X;X;X;X;X",
";X;X;X;X;X;X;X;X;X;X;X;X;X;X;X;X;X;X;X;X;X;X;X;X;X;X;X;X;X;X;X;X;X;X;X;X;X;X;X;X;X;X;X;X;X;X;X;X;X;X;X;X;X;X;X;X;X;X;X;X;X;X;X;X;X;X;X;X;X;X;X;X;X;X;X;X;X;X;X;X",
";X;X;X;X;X;X;X;X;X;X;X;X;X;X;X;X;X;X;X;X;X;X;X;X;X;X;X;X;X;X;X;X;X;X;X;X;X;X;X;X;X;X;X;X;X;X;X;X;X;X;X;X;X;X;X;X;X;X;X;X;X;X;X;X;X;X;X;X;X;X;X;X;X;X;X;X;X;X;X;X",
";X;X;X;X;X;X;X;X;X;X;X;X;X;X;X;X;X;X;X;X;X;X;X;X;X;X;X;X;X;X;X;X;X;X;X;X;X;X;X;X;X;X;X;X;X;X;X;X;X;X;X;X;X;X;X;X;X;X;X;X;X;X;X;X;X;X;X;X;X;X;X;X;X;X;X;X;X;X;X;X",
";X;X;X;X;X;X;X;X;X;X;X;X;X;X;X;X;X;X;X;X;X;X;X;X;X;X;X;X;X;X;X;X;X;X;X;X;X;X;X;X;X;X;X;X;X;X;X;X;X;X;X;X;X;X;X;X;X;X;X;X;X;X;X;X;X;X;X;X;X;X;X;X;X;X;X;X;X;X;X;X",
";X;X;X;X;X;X;X;X;X;X;X;X;X;X;X;X;X;X;X;X;X;X;X;X;X;X;X;X;X;X;X;X;X;X;X;X;X;X;X;X;X;X;X;X;X;X;X;X;X;X;X;X;X;X;X;X;X;X;X;X;X;X;X;X;X;X;X;X;X;X;X;X;X;X;X;X;X;X;X;X",
";X;X;X;X;X;X;X;X;X;X;X;X;X;X;X;X;X;X;X;X;X;X;X;X;X;X;X;X;X;X;X;X;X;X;X;X;X;X;X;X;X;X;X;X;X;X;X;X;X;X;X;X;X;X;X;X;X;X;X;X;X;X;X;X;X;X;X;X;X;X;X;X;X;X;X;X;X;X;X;X",
";X;X;X;X;X;X;X;X;X;X;X;X;X;X;X;X;X;X;X;X;X;X;X;X;X;X;X;X;X;X;X;X;X;X;X;X;X;X;X;X;X;X;X;X;X;X;X;X;X;X;X;X;X;X;X;X;X;X;X;X;X;X;X;X;X;X;X;X;X;X;X;X;X;X;X;X;X;X;X;X",
";X;X;X;X;X;X;X;X;X;X;X;X;X;X;X;X;X;X;X;X;X;X;X;X;X;X;X;X;X;X;X;X;X;X;X;X;X;X@.&.-.@.;X;X;X;X;X;X;X;X;X;X;X;X;X;X;X;X;X;X;X;X;X;X;X;X;X;X;X;X;X;X;X;X;X;X;X;X;X;X",
";X;X;X;X;X;X;X;X;X;X;X;X;X;X;X;X;X;X;X;X;X;X;X;X;X;X;X;X;X;X;X;X;X;X;X;X;X>.M B N m @.;X;X;X;X;X;X;X;X;X;X;X;X;X;X;X;X;X;X;X;X;X;X;X;X;X;X;X;X;X;X;X;X;X;X;X;X;X",
";X;X;X;X;X;X;X;X;X;X;X;X;X;X;X;X;X;X;X;X;X;X;X;X;X;X;X;X;X;X;X;X;X;X;Xl &.@.O     X m o.m ;X;X;X;X;X;X+.;.-.@.;X;X;X;X;X;X;X;X;X;X;X;X;X;X;X;X;X;X;X;X;X;X;X;X;X",
";X;X;X;X;X;X;X;X;X;X;X;X;X;X;X;X;X;X;X;X;X;X;X;X;X+.;.>.+.O.;X;X;X;X;XN j X         X 2 N ;X;X;Xm >.+.y j d z +.@.z ;X;X;X;X;X;X;X;X;X;X;X;X;X;X;X;X;X;X;X;X;X;X",
";X;X;X;X;X;X;X;X;X;X;X;X;X;X;X;X;X;X;X;X;X;Xl o.+.l m M l W @.b ;X;X:.z * , F p i F 2 = z >.;X;Xm o.k       X l M m ;X;X;X;X;X;X;X;X;X;X;X;X;X;X;X;X;X;X;X;X;X;X",
";X;X;X;X;X;X;X;X;X;X;X;X;X;X;X;X;X;X;X;X;X;Xl N B O       z W m #.y.+.  k 0.Q.B.B.W.y.k X @.i.;Xm O       .     1 o.;X;X;X;X;X;X;X;X;X;X;X;X;X;X;X;X;X;X;X;X;X;X",
";X;X;X;X;X;X;X;X;X;X;X;X;X;X;X;X;X;X;X;X;X;Xm k O         X < m 3.[.k.  E Q., / / , Q.T   O.i...= d Q ' ) ^ ` M - w ,.,.;X;X;X;X;X;X;X;X;X;X;X;X;X;X;X;X;X;X;X;X",
";X;X;X;X;X;X;X;X;X;X;X;X;X;X;X;X;X;X;X;X;X;.j .               , { `.x.+ % 0 7 Y.Y.7 0 9 o O. XP   #.]./ C.c.`  Xt X ;.9.;X;X;X;X;X;X;X;X;X;X;X;X;X;X;X;X;X;X;X;X",
";X;X;X;X;X;X;X;X;X;X;X;X;X;X;X;X;X;X;X;X;X~.8   O % $ # $ > X   P }.!.#   4 g.=X=Xg.4   * &.oXj.  ) ~ . l.L . ] a * 2.!.;X;X;X;X;X;X;X;X;X;X;X;X;X;X;X;X;X;X;X;X",
";X;X;X;X;X;X;X;X;X;X;X;X;X;X;X;X;X;X;X;X;XN.& - :.Q.b.b.m.9.v   ^ $X;X. t S.L.J.J.L.M.a X ;X|.^ . X 6 s.*XU.V @   ; 2.0.;X;X;X;X;X;X;X;X;X;X;X;X;X;X;X;X;X;X;X;X",
";X;X;X;X;X;X;X;X;X;X;X;X;X;X;X;X;X;X;X;X;Xx.@ z '.L ( C.c _.` X Q ` ;X  m #X{.Z Z {.#XI   ;X;X' X O K h.&XR.d.Z   < 9._.;X;X;X;X;X;X;X;X;X;X;X;X;X;X;X;X;X;X;X;X",
";X;X;X;X;X;X;X;X;X;X;X;X;X;X;X;X;X;X;X;X;XI.9 3 P 5 Y Y.5 D G . o.;X;X  ; #.).L F ).#.;   ;X;X;X  ! +XF.j.x.P.@Xt   ;X;X;X;X;X;X;X;X;X;X;X;X;X;X;X;X;X;X;X;X;X;X",
";X;X;X;X;X;X;X;X;X;X;X;X;X;X;X;X;X;X;X;X;X;X8   . a.%X-Xf.6   X W ;X;X;X  3 W.).).W.%   ;X;X;X;X  o.@Xc.+ e @Xu.k   ;X;X;X;X;X;X;X;X;X;X;X;X;X;X;X;X;X;X;X;X;X;X",
";X;X;X;X;X;X;X;X;X;X;X;X;X;X;X;X;X;X;X;X;X;X  r ] K.XX.XH.z.s   o.>.;X;X@.B w u r w N o.;X;X;XM z * E )._ ] /.h X ;X;X;X;X;X;X;X;X;X;X;X;X;X;X;X;X;X;X;X;X;X;X;X",
";X;X;X;X;X;X;X;X;X;X;X;X;X;X;X;X;X;X;X;X;X;X= t ' G.A.A.OX^.S   k M I q.>.b       X b ;.,.B -.>.b   w ' v.c.R , ;X;X;X;X;X;X;X;X;X;X;X;X;X;X;X;X;X;X;X;X;X;X;X;X",
";X;X;X;X;X;X;X;X;X;X;X;X;X;X;X;X;X;X;X;X;X;X;XX   ) /./.W.r       O m @.2             2 W l B b       X f 2 , o.;X;X;X;X;X;X;X;X;X;X;X;X;X;X;X;X;X;X;X;X;X;X;X;X",
";X;X;X;X;X;X;X;X;X;X;X;X;X;X;X;X;X;X;X;X;X;X;X;X;X;XW B 3         X O O X             X O O O O         X 1 b ;X;X;X;X;X;X;X;X;X;X;X;X;X;X;X;X;X;X;X;X;X;X;X;X;X",
";X;X;X;X;X;X;X;X;X;X;X;X;X;X;X;X;X;X;X;X;X;X;X;X;X;Xh o                                                   > W ;X;X;X;X;X;X;X;X;X;X;X;X;X;X;X;X;X;X;X;X;X;X;X;X;X",
";X;X;X;X;X;X;X;X;X;X;X;X;X;X;X;X;X;X;X;X;X;X;X;X;XN ,                                                     k ;.;X;X;X;X;X;X;X;X;X;X;X;X;X;X;X;X;X;X;X;X;X;X;X;X;X",
";X;X;X;X;X;X;X;X;X;X;X;X;X;X;X;X;X;X;X;X;X;X;X;X;X+.j                                                     m r.;X;X;X;X;X;X;X;X;X;X;X;X;X;X;X;X;X;X;X;X;X;X;X;X;X",
";X;X;X;X;X;X;X;X;X;X;X;X;X;X;X;X;X;X;X;X;X;X;Xm l j O                                                     O k l m ;X;X;X;X;X;X;X;X;X;X;X;X;X;X;X;X;X;X;X;X;X;X;X",
";X;X;X;X;X;X;X;X;X;X;X;X;X;X;X;X;X;X;X;X;X;X;XN l X                                                         X z m ;X;X;X;X;X;X;X;X;X;X;X;X;X;X;X;X;X;X;X;X;X;X;X",
";X;X;X;X;X;X;X;X;X;X;X;X;X;X;X;X;X;X;X;X;X;X;X-.o.O                   X                   X                 O l m ;X;X;X;X;X;X;X;X;X;X;X;X;X;X;X;X;X;X;X;X;X;X;X",
";X;X;X;X;X;X;X;X;X;X;X;X;X;X;X;X;X;X;X;X;X;X;X-.>.>         # j O   . z 1               O k >               O z m ;X;X;X;X;X;X;X;X;X;X;X;X;X;X;X;X;X;X;X;X;X;X;X",
";X;X;X;X;X;X;X;X;X;X;X;X;X;X;X;X;X;X;X;X;X;Xb M m O         > m >   X j >               X y >               O b I ;X;X;X;X;X;X;X;X;X;X;X;X;X;X;X;X;X;X;X;X;X;X;X",
";X;X;X;X;X;X;X;X;X;X;X;X;X;X;X;X;X;X;X;X;X;Xm 2           ;X;Xm >                                           O o.:.;X;X;X;X;X;X;X;X;X;X;X;X;X;X;X;X;X;X;X;X;X;X;X",
";X;X;X;X;X;X;X;X;X;X;X;X;X;X;X;X;X;X;X;X;X;XM ,           ;X;Xl O                                           > ;.-.;X;X;X;X;X;X;X;X;X;X;X;X;X;X;X;X;X;X;X;X;X;X;X",
";X;X;X;X;X;X;X;X;X;X;X;X;X;X;X;X;X;X;X;X;X;Xm j           ;X;Xm O                                 ;X;X      O k m l ;X;X;X;X;X;X;X;X;X;X;X;X;X;X;X;X;X;X;X;X;X;X",
";X;X;X;X;X;X;X;X;X;X;X;X;X;X;X;X;X;X;X;X;X;Xm 2           ;X;XO.>                                   ;X;X        , m ;X;X;X;X;X;X;X;X;X;X;X;X;X;X;X;X;X;X;X;X;X;X",
";X;X;X;X;X;X;X;X;X;X;X;X;X;X;X;X;X;X;X;X;X;Xm 2         ;X;Xp.;.,                                   ;X;X        2 m ;X;X;X;X;X;X;X;X;X;X;X;X;X;X;X;X;X;X;X;X;X;X",
";X;X;X;X;X;X;X;X;X;X;X;X;X;X;X;X;X;X;X;X;X;XW k         ;X;X;X>.m O           > >                   ;X;X        w M ;X;X;X;X;X;X;X;X;X;X;X;X;X;X;X;X;X;X;X;X;X;X",
";X;X;X;X;X;X;X;X;X;X;X;X;X;X;X;X;X;X;X;X;X;X;.l         ;X;X;X;X{ 2 X       O m m O                 ;X;X        d M ;X;X;X;X;X;X;X;X;X;X;X;X;X;X;X;X;X;X;X;X;X;X",
";X;X;X;X;X;X;X;X;X;X;X;X;X;X;X;X;X;X;X;X;X;Xr.m         ;X;X;X;XB 2       X m @.@.b X               ;X;X        w M ;X;X;X;X;X;X;X;X;X;X;X;X;X;X;X;X;X;X;X;X;X;X",
";X;X;X;X;X;X;X;X;X;X;X;X;X;X;X;X;X;X;X;X;X;X;X+.d .         ;X;XM 2       O o.+.+.o.O             ;X;X;X;X      d M ;X;X;X;X;X;X;X;X;X;X;X;X;X;X;X;X;X;X;X;X;X;X",
";X;X;X;X;X;X;X;X;X;X;X;X;X;X;X;X;X;X;X;X;X;X;X-.B X         ;X;XM ,     O 2 o.>.,.@.2 O         ;X;X;X;X;X      f M ;X;X;X;X;X;X;X;X;X;X;X;X;X;X;X;X;X;X;X;X;X;X",
";X;X;X;X;X;X;X;X;X;X;X;X;X;X;X;X;X;X;X;X;X;X;X+.{ >         ;X;XN w     2 o.O.@.@.O. .2         ;X;X;X;X;X      w M ;X;X;X;X;X;X;X;X;X;X;X;X;X;X;X;X;X;X;X;X;X;X",
";X;X;X;X;X;X;X;X;X;X;X;X;X;X;X;X;X;X;X;X;X;X;X;X@.m O       ;X;X&.k     > +.,.> > ;.+.,         ;X;X;X;X;X      d B ;X;X;X;X;X;X;X;X;X;X;X;X;X;X;X;X;X;X;X;X;X;X",
";X;X;X;X;X;X;X;X;X;X;X;X;X;X;X;X;X;X;X;X;X;X;X;X;X+.,       , ;Xt.z X   X j &.B B +.k X         ;X;X;X;X;X      w M ;X;X;X;X;X;X;X;X;X;X;X;X;X;X;X;X;X;X;X;X;X;X",
";X;X;X;X;X;X;X;X;X;X;X;X;X;X;X;X;X;X;X;X;X;X;X;X;X+.l X     > ;Xt.N .     . W e.r. ..           ;X;X;X;X;X      f { ;X;X;X;X;X;X;X;X;X;X;X;X;X;X;X;X;X;X;X;X;X;X",
";X;X;X;X;X;X;X;X;X;X;X;X;X;X;X;X;X;X;X;X;X;X;X;X;X;XW j       ;X;X:.z X   O o.-.&.o.O           ;X;X;X;X;X      z +.;X;X;X;X;X;X;X;X;X;X;X;X;X;X;X;X;X;X;X;X;X;X",
";X;X;X;X;X;X;X;X;X;X;X;X;X;X;X;X;X;X;X;X;X;X;X;X;X;X;Xl j O     ;X;X@.O   O B +.+.B O         ;X;X;X;X;X;Xh ,   k +.;X;X;X;X;X;X;X;X;X;X;X;X;X;X;X;X;X;X;X;X;X;X",
";X;X;X;X;X;X;X;X;X;X;X;X;X;X;X;X;X;X;X;X;X;X;X;X;X;X;X;XW >     k N z X     2 N N 2       O > ;X;X;X;X;X;X+.l   k >.;X;X;X;X;X;X;X;X;X;X;X;X;X;X;X;X;X;X;X;X;X;X",
";X;X;X;X;X;X;X;X;X;X;X;X;X;X;X;X;X;X;X;X;X;X;X;X;X;X;X;X%.w   O z ,           j k       O m N ;X;X;X;X;X;X,.m X l r.;X;X;X;X;X;X;X;X;X;X;X;X;X;X;X;X;X;X;X;X;X;X",
";X;X;X;X;X;X;X;X;X;X;X;X;X;X;X;X;X;X;X;X;X;X;X;X;X;X;X;X+.o.m l >             X X       O @.@.;X;X;X;X;X>.-.N n M N ;X;X;X;X;X;X;X;X;X;X;X;X;X;X;X;X;X;X;X;X;X;X",
";X;X;X;X;X;X;X;X;X;X;X;X;X;X;X;X;X;X;X;X;X;X;X;X;X;X;X;X;X{ N 2 X                       X j l l ;X;X;X;X:.$.4.E.U h ;X;X;X;X;X;X;X;X;X;X;X;X;X;X;X;X;X;X;X;X;X;X",
";X;X;X;X;X;X;X;X;X;X;X;X;X;X;X;X;X;X;X;X;X;X;X;X;X;X;X;X;XB d                               2 N ;X;X;X;X*.7.G.P.) v ;X;X;X;X;X;X;X;X;X;X;X;X;X;X;X;X;X;X;X;X;X;X",
";X;X;X;X;X;X;X;X;X;X;X;X;X;X;X;X;X;X;X;X;X;X;X;X;X;X;X;X;X+.b                               z +.;X;X;X;Xw.7.S.S.<.N ;X;X;X;X;X;X;X;X;X;X;X;X;X;X;X;X;X;X;X;X;X;X",
";X;X;X;X;X;X;X;X;X;X;X;X;X;X;X;X;X;X;X;X;X;X;X;X;X;X;X;X;X+.b                               > k l ;X;X;Xe.6.2.<.@.o.;X;X;X;X;X;X;X;X;X;X;X;X;X;X;X;X;X;X;X;X;X;X",
";X;X;X;X;X;X;X;X;X;X;X;X;X;X;X;X;X;X;X;X;X;X;X;X;X;X;X;X;X;.N                                 O m N ;X;X;Xq.&...W ;X;X;X;X;X;X;X;X;X;X;X;X;X;X;X;X;X;X;X;X;X;X;X",
";X;X;X;X;X;X;X;X;X;X;X;X;X;X;X;X;X;X;X;X;X;X;X;X;X;X;X;X;X;.o.            ;X;X;X;X;X          > @.N ;X;X;X;X;X;X;X;X;X;X;X;X;X;X;X;X;X;X;X;X;X;X;X;X;X;X;X;X;X;X",
";X;X;X;X;X;X;X;X;X;X;X;X;X;X;X;X;X;X;X;X;X;X;X;X;X;X;X;Xb k >           ;X;X;X;X;X;X;X        X > k b ;X;X;X;X;X;X;X;X;X;X;X;X;X;X;X;X;X;X;X;X;X;X;X;X;X;X;X;X;X",
";X;X;X;X;X;X;X;X;X;X;X;X;X;X;X;X;X;X;X;X;X;X;X;X;X;X;Xm b O           ;X;X;X;X;X;X;X;X;X          j N ;X;X;X;X;X;X;X;X;X;X;X;X;X;X;X;X;X;X;X;X;X;X;X;X;X;X;X;X;X",
";X;X;X;X;X;X;X;X;X;X;X;X;X;X;X;X;X;X;X;X;X;X;X;X;X;X;Xm m >         ;X;X;X;X;X;X;X;X;X;X;X        m -.;X;X;X;X;X;X;X;X;X;X;X;X;X;X;X;X;X;X;X;X;X;X;X;X;X;X;X;X;X",
";X;X;X;X;X;X;X;X;X;X;X;X;X;X;X;X;X;X;X;X;X;X;X;X;X;X;X@.o.>         ;X;X;X;X;X;X;X;X;X;X;X      X N 6.;X;X;X;X;X;X;X;X;X;X;X;X;X;X;X;X;X;X;X;X;X;X;X;X;X;X;X;X;X",
";X;X;X;X;X;X;X;X;X;X;X;X;X;X;X;X;X;X;X;X;X;X;X;X;X;X;X+.O.,         ;X;X;X;X;X;X;X;X;X;X;X        o.t.;X;X;X;X;X;X;X;X;X;X;X;X;X;X;X;X;X;X;X;X;X;X;X;X;X;X;X;X;X",
";X;X;X;X;X;X;X;X;X;X;X;X;X;X;X;X;X;X;X;X;X;X;X;X;X;X;X&.+.1         ;X;X;X;X;X;X;X;X;X;X          B ;X;X;X;X;X;X;X;X;X;X;X;X;X;X;X;X;X;X;X;X;X;X;X;X;X;X;X;X;X;X",
";X;X;X;X;X;X;X;X;X;X;X;X;X;X;X;X;X;X;X;X;X;X;X;X;X;X;Xq.,.,     X X O ;X;X;X;X;X;X;X;X          X k ;X;X;X;X;X;X;X;X;X;X;X;X;X;X;X;X;X;X;X;X;X;X;X;X;X;X;X;X;X;X",
";X;X;X;X;X;X;X;X;X;X;X;X;X;X;X;X;X;X;X;X;X;X;X;X;X;X;X;X;Xx - : g g v %.q.;X;X;X;X;X;X    ; d d g n X.=.;X;X;X;X;X;X;X;X;X;X;X;X;X;X;X;X;X;X;X;X;X;X;X;X;X;X;X;X",
";X;X;X;X;X;X;X;X;X;X;X;X;X;X;X;X;X;X;X;X;X;X;X;X;X;X;X;X;X` I _ E.4.5.!.6.*.;X;X;X;X;Xq t E ! ! 5.5.5.5.8.w.*.;X;X;X;X;X;X;X;X;X;X;X;X;X;X;X;X;X;X;X;X;X;X;X;X;X",
";X;X;X;X;X;X;X;X;X;X;X;X;X;X;X;X;X;X;X;X;X;X;X;X;X;X;X~.^.W.M.D.D.D.I.L.E.=.;X;X;X;X;X~.~.~.W.M.D.Z.L.F.2.*.;.;X;X;X;X;X;X;X;X;X;X;X;X;X;X;X;X;X;X;X;X;X;X;X;X;X",
";X;X;X;X;X;X;X;X;X;X;X;X;X;X;X;X;X;X;X;X;X;X;X;X;X;X;X~.~.~.{.n.A J n.C P Q.;X;X;X;X;X(.(.^.^.{.S.C H n.t x Q.;X;X;X;X;X;X;X;X;X;X;X;X;X;X;X;X;X;X;X;X;X;X;X;X;X",
";X;X;X;X;X;X;X;X;X;X;X;X;X;X;X;X;X;X;X;X;X;X;X;X;X;X;X;X~.W.{.v.# p c.# a (.;X;X;X;X;X^.~.~.~.{.m.# u l.$ t {.;X;X;X;X;X;X;X;X;X;X;X;X;X;X;X;X;X;X;X;X;X;X;X;X;X",
";X;X;X;X;X;X;X;X;X;X;X;X;X;X;X;X;X;X;X;X;X;X;X;X;X;X;X;X;X;X;X;X;X;X;X;X;X;X;X;X;X;X;X;X;X;X;X;X;X;X;X;X;X;X;X;X;X;X;X;X;X;X;X;X;X;X;X;X;X;X;X;X;X;X;X;X;X;X;X;X",
";X;X;X;X;X;X;X;X;X;X;X;X;X;X;X;X;X;X;X;X;X;X;X;X;X;X;X;X;X;X;X;X;X;X;X;X;X;X;X;X;X;X;X;X;X;X;X;X;X;X;X;X;X;X;X;X;X;X;X;X;X;X;X;X;X;X;X;X;X;X;X;X;X;X;X;X;X;X;X;X",
";X;X;X;X;X;X;X;X;X;X;X;X;X;X;X;X;X;X;X;X;X;X;X;X;X;X;X;X;X;X;X;X;X;X;X;X;X;X;X;X;X;X;X;X;X;X;X;X;X;X;X;X;X;X;X;X;X;X;X;X;X;X;X;X;X;X;X;X;X;X;X;X;X;X;X;X;X;X;X;X",
";X;X;X;X;X;X;X;X;X;X;X;X;X;X;X;X;X;X;X;X;X;X;X;X;X;X;X;X;X;X;X;X;X;X;X;X;X;X;X;X;X;X;X;X;X;X;X;X;X;X;X;X;X;X;X;X;X;X;X;X;X;X;X;X;X;X;X;X;X;X;X;X;X;X;X;X;X;X;X;X",
";X;X;X;X;X;X;X;X;X;X;X;X;X;X;X;X;X;X;X;X;X;X;X;X;X;X;X;X;X;X;X;X;X;X;X;X;X;X;X;X;X;X;X;X;X;X;X;X;X;X;X;X;X;X;X;X;X;X;X;X;X;X;X;X;X;X;X;X;X;X;X;X;X;X;X;X;X;X;X;X",
";X;X;X;X;X;X;X;X;X;X;X;X;X;X;X;X;X;X;X;X;X;X;X;X;X;X;X;X;X;X;X;X;X;X;X;X;X;X;X;X;X;X;X;X;X;X;X;X;X;X;X;X;X;X;X;X;X;X;X;X;X;X;X;X;X;X;X;X;X;X;X;X;X;X;X;X;X;X;X;X",
";X;X;X;X;X;X;X;X;X;X;X;X;X;X;X;X;X;X;X;X;X;X;X;X;X;X;X;X;X;X;X;X;X;X;X;X;X;X;X;X;X;X;X;X;X;X;X;X;X;X;X;X;X;X;X;X;X;X;X;X;X;X;X;X;X;X;X;X;X;X;X;X;X;X;X;X;X;X;X;X",
";X;X;X;X;X;X;X;X;X;X;X;X;X;X;X;X;X;X;X;X;X;X;X;X;X;X;X;X;X;X;X;X;X;X;X;X;X;X;X;X;X;X;X;X;X;X;X;X;X;X;X;X;X;X;X;X;X;X;X;X;X;X;X;X;X;X;X;X;X;X;X;X;X;X;X;X;X;X;X;X",
";X;X;X;X;X;X;X;X;X;X;X;X;X;X;X;X;X;X;X;X;X;X;X;X;X;X;X;X;X;X;X;X;X;X;X;X;X;X;X;X;X;X;X;X;X;X;X;X;X;X;X;X;X;X;X;X;X;X;X;X;X;X;X;X;X;X;X;X;X;X;X;X;X;X;X;X;X;X;X;X"
};
