/* XPM */
static char *_3459_315c213e39a229c0b28db1045d9b517ebe51ac14ebb201a5a74a07a23d2e136b[] = {
/* columns rows colors chars-per-pixel */
"80 80 198 2 ",
"   c #000000",
".  c #0A0502",
"X  c #03090E",
"o  c #0B0B0B",
"O  c #060707",
"+  c #180903",
"@  c #14120B",
"#  c #1A140C",
"$  c #1C160B",
"%  c #090E12",
"&  c #030F19",
"*  c #0D1319",
"=  c #09151D",
"-  c #131313",
";  c #1A1611",
":  c #1D1813",
">  c #10161A",
",  c #17191C",
"<  c #1C1C1C",
"1  c #260603",
"2  c #340B00",
"3  c #370200",
"4  c #2A1506",
"5  c #25160A",
"6  c #261608",
"7  c #281E13",
"8  c #231D15",
"9  c #2E2216",
"0  c #2C241C",
"q  c #242015",
"w  c #332315",
"e  c #3C2A19",
"r  c #392918",
"t  c #3F321E",
"y  c #161C23",
"u  c #1F2427",
"i  c #1B252C",
"p  c #232323",
"a  c #262A2E",
"s  c #2C2C2C",
"d  c #272726",
"f  c #34312E",
"g  c #38322B",
"h  c #3D3B21",
"j  c #232D35",
"k  c #2E2F31",
"l  c #2A343B",
"z  c #2F3030",
"x  c #343434",
"c  c #333638",
"v  c #3C3C3C",
"b  c #3A3631",
"n  c #322C27",
"m  c #490000",
"M  c #510000",
"N  c #591803",
"B  c #6C0015",
"V  c #720014",
"C  c #45240E",
"Z  c #472610",
"A  c #452A18",
"S  c #4F371C",
"D  c #5E391A",
"F  c #48330C",
"G  c #643C1E",
"H  c #7E3E18",
"J  c #4F3721",
"K  c #463925",
"L  c #563A22",
"P  c #4A3B34",
"I  c #523D32",
"U  c #56412B",
"Y  c #5C4329",
"T  c #43413F",
"R  c #4F4237",
"E  c #54493E",
"W  c #58493A",
"Q  c #6A4C2C",
"!  c #7F4A20",
"~  c #6B5629",
"^  c #6D4C31",
"/  c #634635",
"(  c #6C5235",
")  c #6C553B",
"_  c #7B5734",
"`  c #705435",
"'  c #7E6236",
"]  c #393D41",
"[  c #363D42",
"{  c #6A2242",
"}  c #3C4247",
"|  c #3E4951",
" . c #434343",
".. c #4D4944",
"X. c #444A4E",
"o. c #4B4B4B",
"O. c #474646",
"+. c #504F4F",
"@. c #5D554E",
"#. c #444F56",
"$. c #4D5054",
"%. c #4D565C",
"&. c #545454",
"*. c #53565A",
"=. c #5A5A5A",
"-. c #57595A",
";. c #645443",
":. c #6C5949",
">. c #755645",
",. c #7C5A44",
"<. c #775B49",
"1. c #6A5D55",
"2. c #705F56",
"3. c #74614E",
"4. c #7B6647",
"5. c #69615C",
"6. c #786958",
"7. c #595E61",
"8. c #586369",
"9. c #616161",
"0. c #696968",
"q. c #786E63",
"w. c #6E7478",
"e. c #8F0700",
"r. c #AA1D00",
"t. c #B32608",
"y. c #BC0922",
"u. c #D71F21",
"i. c #DF292D",
"p. c #804B23",
"a. c #9D5D32",
"s. c #B25D28",
"d. c #85633B",
"f. c #8B633B",
"g. c #8E6939",
"h. c #9B6436",
"j. c #97693B",
"k. c #997838",
"l. c #88742D",
"z. c #BB632D",
"x. c #B67D27",
"c. c #A56D3B",
"v. c #AC6939",
"b. c #BC6631",
"n. c #B46433",
"m. c #B17239",
"M. c #D24F2D",
"N. c #C45527",
"B. c #C5682D",
"V. c #C16A35",
"C. c #C66931",
"Z. c #C1723D",
"A. c #9E1168",
"S. c #A3106B",
"D. c #943B6A",
"F. c #E81B6E",
"G. c #F4297E",
"H. c #895E43",
"J. c #8D6942",
"K. c #8B6B4B",
"L. c #86654C",
"P. c #946A41",
"I. c #996E43",
"U. c #926C4A",
"Y. c #9B6848",
"T. c #9C7146",
"R. c #9C7449",
"E. c #957248",
"W. c #836B52",
"Q. c #957758",
"!. c #A37346",
"~. c #A87948",
"^. c #B97B49",
"/. c #A26D50",
"(. c #AE7750",
"). c #877762",
"_. c #8C7B68",
"`. c #837B72",
"'. c #D0465F",
"]. c #D4484B",
"[. c #BE8241",
"{. c #AB8153",
"}. c #A78A6B",
"|. c #BB1DA8",
" X c #DC0D89",
".X c #E417A4",
"XX c #F429B3",
"oX c #E00FC8",
"OX c #AB9F91",
"+X c #B2AE8E",
"@X c #B4AA98",
"#X c #ADA69B",
"$X c #B8B2A2",
"%X c #C2B9AF",
"&X c #C7BEB2",
"*X c #CFC1B4",
"=X c #D0C2B4",
"-X c None",
/* pixels */
"-X-X-X-X-X-X-X-X-X-X-X-X-X-X-X-X-X-X-X-X-X-X-X-X-X-X-X-X-X-X-X-X-X-X-X-X-X-X-X-X-X-X-X-X-X-X-X-X-X-X-X-X-X-X-X-X-X-X-X-X-X-X-X-X-X-X-X-X-X-X-X-X-X-X-X-X-X-X-X-X",
"-X-X-X-X-X-X-X-X-X-X-X-X-X-X-X-X-X-X-X-X-X-X-X-X-X-X-X-X-X-X-X-X-X-X-X-X-X-X-X-X-X-X-X-X-X-X-X-X-X-X-X-X-X-X-X-X-X-X-X-X-X-X-X-X-X-X-X-X-X-X-X-X-X-X-X-X-X-X-X-X",
"-X-X-X-X-X-X-X-X-X-X-X-X-X-X-X-X-X-X-X-X-X-X-X-X-X-X-X-X-X-X-X-X-X-X-X-X-X-X-X-X-X-X-X-X-X-X-X-X-X-X-X-X-X-X-X-X-X-X-X-X-X-X-X-X-X-X-X-X-X-X-X-X-X-X-X-X-X-X-X-X",
"-X-X-X-X-X-X-X-X-X-X-X-X-X-X-X-X-X-X-X-X-X-X-X-X-X-X-X-X-X-X-X-X-X-X-X-X-X-X-X-X-X-X-X-X-X-X-X-X-X-X-X-X-X-X-X-X-X-X-X-X-X-X-X-X-X-X-X-X-X-X-X-X-X-X-X-X-X-X-X-X",
"-X-X-X-X-X-X-X-X-X-X-X-X-X-X-X-X-X-X-X-X-X-X-X-X-X-X-X-X-X-X-X-X-X-X-X-X-X-X-X-X-X-X-X-X-X-X-X-X-X-X-X-X-X-X-X-X-X-X-X-X-X-X-X-X-X-X-X-X-X-X-X-X-X-X-X-X-X-X-X-X",
"-X-X-X-X-X-X-X-X-X-X-X-X-X-X-X-X-X-X-X-X-X-X-X-X-X-X-X-X-X-X-X-X-X-X-X-X-X-X-X-X-X-X-X-X-X-X-X-X-X-X-X-X-X-X-X-X-X-X-X-X-X-X-X-X-X-X-X-X-X-X-X-X-X-X-X-X-X-X-X-X",
"-X-X-X-X-X-X-X-X-X-X-X-X-X-X-X-X-X-X-X-X-X-X-X-X-X-X-X-X-X-X-X-X-X-X-X-X-X-X-X-X-X-X-X-X-X-X-X-X-X-X-X-X-X-X-X-X-X-X-X-X-X-X-X-X-X-X-X-X-X-X-X-X-X-X-X-X-X-X-X-X",
"-X-X-X-X-X-X-X-X-X-X-X-X-X-X-X-X-X-X-X-X-X-X-X-X-X-X-X-X-X-X-X-X-X-X-X-X-X-X-X-X-X-X-X-X-X-X-X-X-X-X-X-X-X-X-X-X-X-X-X-X-X-X-X-X-X-X-X-X-X-X-X-X-X-X-X-X-X-X-X-X",
"-X-X-X-X-X-X-X-X-X-X-X-X-X-X-X-X-X-X-X-X-X-X-X-X-X-X-X-X-X-X-X-X-X-X-X-X-X-X=.9.-X-X-X-X-X-X-X-X-X-X-X-X-X-X-X-X-X-X-X-X-X-X-X-X-X-X-X-X-X-X-X-X-X-X-X-X-X-X-X-X",
"-X-X-X-X-X-X-X-X-X-X-X-X-X-X-X-X-X-X-X-X-X-X-X-X-X-X-X-X-X-X-X-X-X-X-X-X-Xo.=.9.&.-X-X-X-X-X-X-X-X-X-X-X-X-X-X-X-X-X-X-X-X-X-X-X-X-X-X-X-X-X-X-X-X-X-X-X-X-X-X-X",
"-X-X-X-X-X-X-X-X-X-X-X-X-X-X-X-X-X-X-X-X-X-X-X-X-X-X-X-X-X-X-X-X-X-X-X-Xo.x z x s v O.-X-X-X-X-X-X-X-Xo.=.&.O.-X-X-X-X-X-X-X-X-X-X-X-X-X-X-X-X-X-X-X-X-X-X-X-X-X",
"-X-X-X-X-X-X-X-X-X-X-X-X-X-X-X-X-X-X-X-X-X-X-X-X-X-X-X-X-X-X-X-X-X-Xx v x o       p T c x -X-X-X-X-X&.s z s x o.-X-X-X-X-X-X-X-X-X-X-X-X-X-X-X-X-X-X-X-X-X-X-X-X",
"-X-X-X-X-X-X-X-X-X-X-X-X-X-X-X-X-X-X-X-X-X-X-X-X-Xo.=.9.&.-X-X-X-X-X .p             - x T -X-X-Xx +.s       o x v x -X-X-X-X-X-X-X-X-X-X-X-X-X-X-X-X-X-X-X-X-X-X",
"-X-X-X-X-X-X-X-X-X-X-X-X-X-X-X-X-X-X-X-X-X-X-X-X-Xx x x s  .-X-X-X8.a o u U U S Y g * , } *.-X-Xx -             <  .-X-X-X-X-X-X-X-X-X-X-X-X-X-X-X-X-X-X-X-X-X-X",
"-X-X-X-X-X-X-X-X-X-X-X-X-X-X-X-X-X-X-X-X-X-Xx v v o       s ] c -X1.o < q.4.g.k.d.). .  g 5.8.X., * g Y S L U p % s =.-X-X-X-X-X-X-X-X-X-X-X-X-X-X-X-X-X-X-X-X-X",
"-X-X-X-X-X-X-X-X-X-X-X-X-X-X-X-X-X-X-X-X-X-Xx d o         O * v -Xn.1 0 J.- S d.@ ( `   H Y.0.P   O.).d.k.g.4.q.< o &.7.-X-X-X-X-X-X-X-X-X-X-X-X-X-X-X-X-X-X-X-X",
"-X-X-X-X-X-X-X-X-X-X-X-X-X-X-X-X-X-X-X-X-X-Xn O               8 -Xc.6 O 6 m S.|.B 2 # . ! U./.!   ( ( @ ' J ; J.e X 1.1.-X-X-X-X-X-X-X-X-X-X-X-X-X-X-X-X-X-X-X-X",
"-X-X-X-X-X-X-X-X-X-X-X-X-X-X-X-X-X-X-X-X-X-X5   o ; # @ $ -     -X~.w   + r.F..Xu.N   O L 6.(.! . @ 2 V |.S.M 5 . & :.L.-X-X-X-X-X-X-X-X-X-X-X-X-X-X-X-X-X-X-X-X",
"-X-X-X-X-X-X-X-X-X-X-X-X-X-X-X-X-X-X-X-Xj.f.# & *.K.g.f.j.6.j   Q ~.5 : T.Z.V.z.V.^.U   ; -X{.( O   N i.XXG.t.4   > 3.W.-X-X-X-X-X-X-X-X-X-X-X-X-X-X-X-X-X-X-X-X",
"-X-X-X-X-X-X-X-X-X-X-X-X-X-X-X-X-X-X-X-Xv.a.+ d Q.K ~ l.h W.:.  E W   T *X*X@X+X$X*X`.O   -X-X^   R [.V.s.s.Z.R.8 o E.-X-X-X-X-X-X-X-X-X-X-X-X-X-X-X-X-X-X-X-X-X",
"-X-X-X-X-X-X-X-X-X-X-X-X-X-X-X-X-X-X-X-XC.z.4 : L 1 { D.1 Z S O } -X- ] w.#X@XOX#X%X0.X   -X-X-X  ..}.g.6 F {._.p   -X-X-X-X-X-X-X-X-X-X-X-X-X-X-X-X-X-X-X-X-X-X",
"-X-X-X-X-X-X-X-X-X-X-X-X-X-X-X-X-X-X-X-X-X-X4   . e. XoXy.3   O -X-X-X*   D T.f.I.E.:   -X-X-X-X  i W R.K Q E.z *   -X-X-X-X-X-X-X-X-X-X-X-X-X-X-X-X-X-X-X-X-X-X",
"-X-X-X-X-X-X-X-X-X-X-X-X-X-X-X-X-X-X-X-X-X-XO 7 p.N.].'.M.a.h   o.-X-X-Xs 0 7 0 9 7 v -X-X-X-X-Xx * 9 f.g.P.^ - - -X-X-X-X-X-X-X-X-X-X-X-X-X-X-X-X-X-X-X-X-X-X-X",
"-X-X-X-X-X-X-X-X-X-X-X-X-X-X-X-X-X-X-X-X-X-X-X7 _ ~.x.x.[.Y.A   p c -X-X&.a         s =.-X-X-X=.x , : w K r 0 o.-X-X-X-X-X-X-X-X-X-X-X-X-X-X-X-X-X-X-X-X-X-X-X-X",
"-X-X-X-X-X-X-X-X-X-X-X-X-X-X-X-X-X-X-X-X-X-X-X-X. ( R.E.J.7       o x O.u             < v x v s         < a -X-X-X-X-X-X-X-X-X-X-X-X-X-X-X-X-X-X-X-X-X-X-X-X-X-X",
"-X-X-X-X-X-X-X-X-X-X-X-X-X-X-X-X-X-X-X-X-X-X-X-X-X-X..b ; .         o o O             O o o o o           y k -X-X-X-X-X-X-X-X-X-X-X-X-X-X-X-X-X-X-X-X-X-X-X-X-X",
"-X-X-X-X-X-X-X-X-X-X-X-X-X-X-X-X-X-X-X-X-X-X-X-X-X-Xu X                                                   , P -X-X-X-X-X-X-X-X-X-X-X-X-X-X-X-X-X-X-X-X-X-X-X-X-X",
"-X-X-X-X-X-X-X-X-X-X-X-X-X-X-X-X-X-X-X-X-X-X-X-X-Xv ,                                                     d -.-X-X-X-X-X-X-X-X-X-X-X-X-X-X-X-X-X-X-X-X-X-X-X-X-X",
"-X-X-X-X-X-X-X-X-X-X-X-X-X-X-X-X-X-X-X-X-X-X-X-X-Xo.p                                                     x 9.-X-X-X-X-X-X-X-X-X-X-X-X-X-X-X-X-X-X-X-X-X-X-X-X-X",
"-X-X-X-X-X-X-X-X-X-X-X-X-X-X-X-X-X-X-X-X-X-X-X-Xs p o                                                     o d s -X-X-X-X-X-X-X-X-X-X-X-X-X-X-X-X-X-X-X-X-X-X-X-X",
"-X-X-X-X-X-X-X-X-X-X-X-X-X-X-X-X-X-X-X-X-X-X-X-Xs O                                                           s -X-X-X-X-X-X-X-X-X-X-X-X-X-X-X-X-X-X-X-X-X-X-X-X",
"-X-X-X-X-X-X-X-X-X-X-X-X-X-X-X-X-X-X-X-X-X-X-X-X .o                   O                   O                 o s -X-X-X-X-X-X-X-X-X-X-X-X-X-X-X-X-X-X-X-X-X-X-X-X",
"-X-X-X-X-X-X-X-X-X-X-X-X-X-X-X-X-X-X-X-X-X-X-X-X=.,         o d o   O d ,               o d ,               o s -X-X-X-X-X-X-X-X-X-X-X-X-X-X-X-X-X-X-X-X-X-X-X-X",
"-X-X-X-X-X-X-X-X-X-X-X-X-X-X-X-X-X-X-X-X-X-X-Xc z o         - x ,   O p -               O p -               o s -X-X-X-X-X-X-X-X-X-X-X-X-X-X-X-X-X-X-X-X-X-X-X-X",
"-X-X-X-X-X-X-X-X-X-X-X-X-X-X-X-X-X-X-X-X-X-Xb ,           -X-Xx @                                           o O.-X-X-X-X-X-X-X-X-X-X-X-X-X-X-X-X-X-X-X-X-X-X-X-X",
"-X-X-X-X-X-X-X-X-X-X-X-X-X-X-X-X-X-X-X-X-X-Xx <           -X-Xs o                                 -X-X      , &.-X-X-X-X-X-X-X-X-X-X-X-X-X-X-X-X-X-X-X-X-X-X-X-X",
"-X-X-X-X-X-X-X-X-X-X-X-X-X-X-X-X-X-X-X-X-X-Xc p           -X-Xc o                                 -X-X-X    o d x -X-X-X-X-X-X-X-X-X-X-X-X-X-X-X-X-X-X-X-X-X-X-X",
"-X-X-X-X-X-X-X-X-X-X-X-X-X-X-X-X-X-X-X-X-X-Xc <           -X-XO.,                                 -X-X-X        , x -X-X-X-X-X-X-X-X-X-X-X-X-X-X-X-X-X-X-X-X-X-X",
"-X-X-X-X-X-X-X-X-X-X-X-X-X-X-X-X-X-X-X-X-X-Xc <         -X-X-X-.-                                 -X-X-X        < x -X-X-X-X-X-X-X-X-X-X-X-X-X-X-X-X-X-X-X-X-X-X",
"-X-X-X-X-X-X-X-X-X-X-X-X-X-X-X-X-X-X-X-X-X-XP d         -X-X-X-Xx o           , ,                 -X-X-X        8 x -X-X-X-X-X-X-X-X-X-X-X-X-X-X-X-X-X-X-X-X-X-X",
"-X-X-X-X-X-X-X-X-X-X-X-X-X-X-X-X-X-X-X-X-X-X=.s         -X-X-X-XP y         o x x o               -X-X-X        y b -X-X-X-X-X-X-X-X-X-X-X-X-X-X-X-X-X-X-X-X-X-X",
"-X-X-X-X-X-X-X-X-X-X-X-X-X-X-X-X-X-X-X-X-X-X9.x         -X-X-X-Xv ,       O x O.O.x O             -X-X-X        < c -X-X-X-X-X-X-X-X-X-X-X-X-X-X-X-X-X-X-X-X-X-X",
"-X-X-X-X-X-X-X-X-X-X-X-X-X-X-X-X-X-X-X-X-X-X-Xo.8 O       -X-X-Xx <       o  .o.o. .o           -X-X-X-X-X      8 x -X-X-X-X-X-X-X-X-X-X-X-X-X-X-X-X-X-X-X-X-X-X",
"-X-X-X-X-X-X-X-X-X-X-X-X-X-X-X-X-X-X-X-X-X-X-X-Xx O       -X-X-Xc <     X q  .=.=. .< o         -X-X-X-X-X-X    y v -X-X-X-X-X-X-X-X-X-X-X-X-X-X-X-X-X-X-X-X-X-X",
"-X-X-X-X-X-X-X-X-X-X-X-X-X-X-X-X-X-X-X-X-X-X-X-Xv -       -X-X-Xv <     <  .o.o.o.o.P y         -X-X-X-X-X-X    y c -X-X-X-X-X-X-X-X-X-X-X-X-X-X-X-X-X-X-X-X-X-X",
"-X-X-X-X-X-X-X-X-X-X-X-X-X-X-X-X-X-X-X-X-X-X-X-X-Xx -     -X-X-X+.p     , o.&., , -.o.,         -X-X-X-X-X-X    8 b -X-X-X-X-X-X-X-X-X-X-X-X-X-X-X-X-X-X-X-X-X-X",
"-X-X-X-X-X-X-X-X-X-X-X-X-X-X-X-X-X-X-X-X-X-X-X-X-Xo.<       -X-X0.s     O p o.c b +.p O         -X-X-X-X-X-X    < x -X-X-X-X-X-X-X-X-X-X-X-X-X-X-X-X-X-X-X-X-X-X",
"-X-X-X-X-X-X-X-X-X-X-X-X-X-X-X-X-X-X-X-X-X-X-X-X-Xo.s O     - -X-Xv o     O  .5.9.] .           -X-X-X-X-X-X    p v -X-X-X-X-X-X-X-X-X-X-X-X-X-X-X-X-X-X-X-X-X-X",
"-X-X-X-X-X-X-X-X-X-X-X-X-X-X-X-X-X-X-X-X-X-X-X-X-X-Xv p       -X-X-Xs     o  .&.&. .o           -X-X-X-X-X-X    s o.-X-X-X-X-X-X-X-X-X-X-X-X-X-X-X-X-X-X-X-X-X-X",
"-X-X-X-X-X-X-X-X-X-X-X-X-X-X-X-X-X-X-X-X-X-X-X-X-X-X-X-Xp o     -X-XO.o   o v o.O.v o         -X-X-X-X-X-X-X<   d o.-X-X-X-X-X-X-X-X-X-X-X-X-X-X-X-X-X-X-X-X-X-X",
"-X-X-X-X-X-X-X-X-X-X-X-X-X-X-X-X-X-X-X-X-X-X-X-X-X-X-X-X .-     -Xv s O     < v v <       o -X-X-X-X-X-X-X-Xs   d =.-X-X-X-X-X-X-X-X-X-X-X-X-X-X-X-X-X-X-X-X-X-X",
"-X-X-X-X-X-X-X-X-X-X-X-X-X-X-X-X-X-X-X-X-X-X-X-X-X-X-X-Xo.<   o s <           p p       o x -X-X-X-X-X-X-X-.c   s 7.-X-X-X-X-X-X-X-X-X-X-X-X-X-X-X-X-X-X-X-X-X-X",
"-X-X-X-X-X-X-X-X-X-X-X-X-X-X-X-X-X-X-X-X-X-X-X-X-X-X-X-X-X .x s -             O O       o O.-X-X-X-X-X-X=.&.] l c v -X-X-X-X-X-X-X-X-X-X-X-X-X-X-X-X-X-X-X-X-X-X",
"-X-X-X-X-X-X-X-X-X-X-X-X-X-X-X-X-X-X-X-X-X-X-X-X-X-X-X-X-X .v <                         O p s -X-X-X-X-X*.@.>.P.I u -X-X-X-X-X-X-X-X-X-X-X-X-X-X-X-X-X-X-X-X-X-X",
"-X-X-X-X-X-X-X-X-X-X-X-X-X-X-X-X-X-X-X-X-X-X-X-X-X-X-X-X-Xv <                               < v -X-X-X-X*.:.m.C.^ j -X-X-X-X-X-X-X-X-X-X-X-X-X-X-X-X-X-X-X-X-X-X",
"-X-X-X-X-X-X-X-X-X-X-X-X-X-X-X-X-X-X-X-X-X-X-X-X-X-X-X-X-Xo.s                               s o.-X-X-X-X7.3.c.c.;.v -X-X-X-X-X-X-X-X-X-X-X-X-X-X-X-X-X-X-X-X-X-X",
"-X-X-X-X-X-X-X-X-X-X-X-X-X-X-X-X-X-X-X-X-X-X-X-X-X-X-X-X-X+.k                               - d s -X-X-X-X1.:.;...-X-X-X-X-X-X-X-X-X-X-X-X-X-X-X-X-X-X-X-X-X-X-X",
"-X-X-X-X-X-X-X-X-X-X-X-X-X-X-X-X-X-X-X-X-X-X-X-X-X-X-X-X-X&.v                                 o c -X-X-X-X-X$.} -X-X-X-X-X-X-X-X-X-X-X-X-X-X-X-X-X-X-X-X-X-X-X-X",
"-X-X-X-X-X-X-X-X-X-X-X-X-X-X-X-X-X-X-X-X-X-X-X-X-X-X-X-X-X&. .          -X-X-X-X-X-X          - O.-X-X-X-X-X-X-X-X-X-X-X-X-X-X-X-X-X-X-X-X-X-X-X-X-X-X-X-X-X-X-X",
"-X-X-X-X-X-X-X-X-X-X-X-X-X-X-X-X-X-X-X-X-X-X-X-X-X-X-X-Xx d -         -X-X-X-X-X-X-X-X        O - s -X-X-X-X-X-X-X-X-X-X-X-X-X-X-X-X-X-X-X-X-X-X-X-X-X-X-X-X-X-X",
"-X-X-X-X-X-X-X-X-X-X-X-X-X-X-X-X-X-X-X-X-X-X-X-X-X-X-X-Xz o         -X-X-X-X-X-X-X-X-X-X          < v -X-X-X-X-X-X-X-X-X-X-X-X-X-X-X-X-X-X-X-X-X-X-X-X-X-X-X-X-X",
"-X-X-X-X-X-X-X-X-X-X-X-X-X-X-X-X-X-X-X-X-X-X-X-X-X-X-X-Xx -         -X-X-X-X-X-X-X-X-X-X-X        x &.-X-X-X-X-X-X-X-X-X-X-X-X-X-X-X-X-X-X-X-X-X-X-X-X-X-X-X-X-X",
"-X-X-X-X-X-X-X-X-X-X-X-X-X-X-X-X-X-X-X-X-X-X-X-X-X-X-X-X .;         -X-X-X-X-X-X-X-X-X-X-X        v 9.-X-X-X-X-X-X-X-X-X-X-X-X-X-X-X-X-X-X-X-X-X-X-X-X-X-X-X-X-X",
"-X-X-X-X-X-X-X-X-X-X-X-X-X-X-X-X-X-X-X-X-X-X-X-X-X-X-X-XO.,         -X-X-X-X-X-X-X-X-X-X-X         .-X-X-X-X-X-X-X-X-X-X-X-X-X-X-X-X-X-X-X-X-X-X-X-X-X-X-X-X-X-X",
"-X-X-X-X-X-X-X-X-X-X-X-X-X-X-X-X-X-X-X-X-X-X-X-X-X-X-X-Xo.,         -X-X-X-X-X-X-X-X-X-X-X        -X-X-X-X-X-X-X-X-X-X-X-X-X-X-X-X-X-X-X-X-X-X-X-X-X-X-X-X-X-X-X",
"-X-X-X-X-X-X-X-X-X-X-X-X-X-X-X-X-X-X-X-X-X-X-X-X-X-X-X-X=.<         % -X-X-X-X-X-X-X-X-X          -X-X-X-X-X-X-X-X-X-X-X-X-X-X-X-X-X-X-X-X-X-X-X-X-X-X-X-X-X-X-X",
"-X-X-X-X-X-X-X-X-X-X-X-X-X-X-X-X-X-X-X-X-X-X-X-X-X-X-X-X-Xg & = i i j #.-X-X-X-X-X-X-X-X  * y y i l | %.-X-X-X-X-X-X-X-X-X-X-X-X-X-X-X-X-X-X-X-X-X-X-X-X-X-X-X-X",
"-X-X-X-X-X-X-X-X-X-X-X-X-X-X-X-X-X-X-X-X-X-X-X-X-X-X-X-X-X) R / H.<.>.L.2.-X-X-X-X-X-X-X0 I E W >.,.,.<.9.-X-X-X-X-X-X-X-X-X-X-X-X-X-X-X-X-X-X-X-X-X-X-X-X-X-X-X",
"-X-X-X-X-X-X-X-X-X-X-X-X-X-X-X-X-X-X-X-X-X-X-X-X-X-X-X-XP.J.j.b.B.n.B.B.H.%.-X-X-X-X-X-XP.P.P.I.b.z.z.n.1.*.-.-X-X-X-X-X-X-X-X-X-X-X-X-X-X-X-X-X-X-X-X-X-X-X-X-X",
"-X-X-X-X-X-X-X-X-X-X-X-X-X-X-X-X-X-X-X-X-X-X-X-X-X-X-X-XJ.P.!.c.C G h.Z J K.-X-X-X-X-XT.I.I.P.!.c.C D a.9 g K.-X-X-X-X-X-X-X-X-X-X-X-X-X-X-X-X-X-X-X-X-X-X-X-X-X",
"-X-X-X-X-X-X-X-X-X-X-X-X-X-X-X-X-X-X-X-X-X-X-X-X-X-X-X-XP.g.!.f.@ e f.@ e R.-X-X-X-X-X-XP.P.P.!.P.@ w f.# 0 !.-X-X-X-X-X-X-X-X-X-X-X-X-X-X-X-X-X-X-X-X-X-X-X-X-X",
"-X-X-X-X-X-X-X-X-X-X-X-X-X-X-X-X-X-X-X-X-X-X-X-X-X-X-X-X-X-X-X-X-X-X-X-X-X-X-X-X-X-X-X-X-X-X-X-X-X-X-X-X-X-X-X-X-X-X-X-X-X-X-X-X-X-X-X-X-X-X-X-X-X-X-X-X-X-X-X-X",
"-X-X-X-X-X-X-X-X-X-X-X-X-X-X-X-X-X-X-X-X-X-X-X-X-X-X-X-X-X-X-X-X-X-X-X-X-X-X-X-X-X-X-X-X-X-X-X-X-X-X-X-X-X-X-X-X-X-X-X-X-X-X-X-X-X-X-X-X-X-X-X-X-X-X-X-X-X-X-X-X",
"-X-X-X-X-X-X-X-X-X-X-X-X-X-X-X-X-X-X-X-X-X-X-X-X-X-X-X-X-X-X-X-X-X-X-X-X-X-X-X-X-X-X-X-X-X-X-X-X-X-X-X-X-X-X-X-X-X-X-X-X-X-X-X-X-X-X-X-X-X-X-X-X-X-X-X-X-X-X-X-X",
"-X-X-X-X-X-X-X-X-X-X-X-X-X-X-X-X-X-X-X-X-X-X-X-X-X-X-X-X-X-X-X-X-X-X-X-X-X-X-X-X-X-X-X-X-X-X-X-X-X-X-X-X-X-X-X-X-X-X-X-X-X-X-X-X-X-X-X-X-X-X-X-X-X-X-X-X-X-X-X-X",
"-X-X-X-X-X-X-X-X-X-X-X-X-X-X-X-X-X-X-X-X-X-X-X-X-X-X-X-X-X-X-X-X-X-X-X-X-X-X-X-X-X-X-X-X-X-X-X-X-X-X-X-X-X-X-X-X-X-X-X-X-X-X-X-X-X-X-X-X-X-X-X-X-X-X-X-X-X-X-X-X",
"-X-X-X-X-X-X-X-X-X-X-X-X-X-X-X-X-X-X-X-X-X-X-X-X-X-X-X-X-X-X-X-X-X-X-X-X-X-X-X-X-X-X-X-X-X-X-X-X-X-X-X-X-X-X-X-X-X-X-X-X-X-X-X-X-X-X-X-X-X-X-X-X-X-X-X-X-X-X-X-X",
"-X-X-X-X-X-X-X-X-X-X-X-X-X-X-X-X-X-X-X-X-X-X-X-X-X-X-X-X-X-X-X-X-X-X-X-X-X-X-X-X-X-X-X-X-X-X-X-X-X-X-X-X-X-X-X-X-X-X-X-X-X-X-X-X-X-X-X-X-X-X-X-X-X-X-X-X-X-X-X-X",
"-X-X-X-X-X-X-X-X-X-X-X-X-X-X-X-X-X-X-X-X-X-X-X-X-X-X-X-X-X-X-X-X-X-X-X-X-X-X-X-X-X-X-X-X-X-X-X-X-X-X-X-X-X-X-X-X-X-X-X-X-X-X-X-X-X-X-X-X-X-X-X-X-X-X-X-X-X-X-X-X",
"-X-X-X-X-X-X-X-X-X-X-X-X-X-X-X-X-X-X-X-X-X-X-X-X-X-X-X-X-X-X-X-X-X-X-X-X-X-X-X-X-X-X-X-X-X-X-X-X-X-X-X-X-X-X-X-X-X-X-X-X-X-X-X-X-X-X-X-X-X-X-X-X-X-X-X-X-X-X-X-X"
};
