/* XPM */
static char *_4850_008bf39fd792ca724ddb32d53f148e90942d54cac4a168924193f4d0ec5b4c2a[] = {
/* columns rows colors chars-per-pixel */
"80 80 201 2 ",
"   c #000000",
".  c #0B0402",
"X  c #0C0B05",
"o  c #06090A",
"O  c #0B0B0B",
"+  c #04070A",
"@  c #140001",
"#  c #130D07",
"$  c #140D08",
"%  c #1A0702",
"&  c #151109",
"*  c #1B140B",
"=  c #1D180D",
"-  c #090E12",
";  c #040D18",
":  c #0E141A",
">  c #0B141B",
",  c #141414",
"<  c #181713",
"1  c #16181B",
"2  c #1C1C1C",
"3  c #181817",
"4  c #220B00",
"5  c #330000",
"6  c #340800",
"7  c #231007",
"8  c #26190D",
"9  c #291608",
"0  c #231B11",
"q  c #281D12",
"w  c #2A200F",
"e  c #22211F",
"r  c #2C251D",
"t  c #292014",
"y  c #332415",
"u  c #3B2A18",
"i  c #161C21",
"p  c #1F2327",
"a  c #1B252C",
"s  c #232323",
"d  c #21262D",
"f  c #2B2B2B",
"g  c #282928",
"h  c #312D29",
"j  c #3A322B",
"k  c #2C2E31",
"l  c #232D34",
"z  c #2A343A",
"x  c #2F3132",
"c  c #343434",
"v  c #333639",
"b  c #3B3C3C",
"n  c #393937",
"m  c #490000",
"M  c #551300",
"N  c #6C0013",
"B  c #492811",
"V  c #53331B",
"C  c #5B381A",
"Z  c #45240D",
"A  c #7D3A14",
"S  c #643B1E",
"D  c #493824",
"F  c #573B25",
"G  c #582633",
"H  c #463F3B",
"J  c #523C32",
"K  c #794B08",
"L  c #4D4827",
"P  c #57422A",
"I  c #5F4326",
"U  c #4B4438",
"Y  c #564A3B",
"T  c #6D4C2B",
"R  c #664728",
"E  c #634B38",
"W  c #704830",
"Q  c #6B5339",
"!  c #745333",
"~  c #7B5933",
"^  c #785738",
"/  c #774F2A",
"(  c #6D6027",
")  c #706326",
"_  c #7F6136",
"`  c #373D42",
"'  c #3B4145",
"]  c #3E4951",
"[  c #434343",
"{  c #46494E",
"}  c #4B4B4B",
"|  c #4D4A45",
" . c #58524B",
".. c #444F56",
"X. c #4C5155",
"o. c #4D565B",
"O. c #535353",
"+. c #5A5655",
"@. c #52565A",
"#. c #53595D",
"$. c #5A5A5A",
"%. c #604F42",
"&. c #625343",
"*. c #67584B",
"=. c #7D5A45",
"-. c #775946",
";. c #685E58",
":. c #74624E",
">. c #7D6042",
",. c #66625D",
"<. c #7D6755",
"1. c #575D61",
"2. c #556670",
"3. c #556168",
"4. c #616161",
"5. c #696968",
"6. c #757371",
"7. c #810200",
"8. c #AA1C00",
"9. c #B0051F",
"0. c #AD061D",
"q. c #BE3C0D",
"w. c #D73B1E",
"e. c #D81F21",
"r. c #89441B",
"t. c #8A5516",
"y. c #BF451B",
"u. c #814920",
"i. c #815936",
"p. c #B05F2B",
"a. c #8B782C",
"s. c #86633B",
"d. c #8B623B",
"f. c #8F6F37",
"g. c #9B6336",
"h. c #90683F",
"j. c #9C6A3E",
"k. c #97653A",
"l. c #997639",
"z. c #BC652E",
"x. c #A56D3B",
"c. c #AD6D38",
"v. c #BB6631",
"b. c #B36233",
"n. c #B4723B",
"m. c #DD472F",
"M. c #C4682E",
"N. c #C16933",
"B. c #C1723D",
"V. c #9D0D69",
"C. c #DE354D",
"Z. c #E71B6D",
"A. c #D8316A",
"S. c #8D5D42",
"D. c #835D44",
"F. c #874654",
"G. c #8B6742",
"H. c #8E6942",
"J. c #876749",
"K. c #936A41",
"L. c #9B6D44",
"P. c #976A48",
"I. c #9D7146",
"U. c #9F7549",
"Y. c #806A5E",
"T. c #88735B",
"R. c #917252",
"E. c #9D7B59",
"W. c #A27446",
"Q. c #BA7C48",
"!. c #AD7552",
"~. c #887661",
"^. c #837B71",
"/. c #ED4960",
"(. c #EE4A7F",
"). c #A5805A",
"_. c #BC8A59",
"`. c #B48648",
"'. c #B08B67",
"]. c #AD9070",
"[. c #B09372",
"{. c #C3916A",
"}. c #BB1EA8",
"|. c #D40D86",
" X c #E317A4",
".X c #DE11C8",
"XX c #DA0EC6",
"oX c #AB9F91",
"OX c #B39B83",
"+X c #B1AF8E",
"@X c #AEA996",
"#X c #B7AA9B",
"$X c #B1B4AF",
"%X c #B8B2A2",
"&X c #BBBCBA",
"*X c #D6A980",
"=X c #C2B9AE",
"-X c #C7BDB2",
";X c #D0C2B4",
":X c #CBCBC9",
">X c None",
/* pixels */
">X>X>X>X>X>X>X>X>X>X>X>X>X>X>X>X>X>X>X>X>X>X>X>X>X>X>X>X>X>X>X>X>X>X>X>X>X>X>X>X>X>X>X>X>X>X>X>X>X>X>X>X>X>X>X>X>X>X>X>X>X>X>X>X>X>X>X>X>X>X>X>X>X>X>X>X>X>X>X>X",
">X>X>X>X>X>X>X>X>X>X>X>X>X>X>X>X>X>X>X>X>X>X>X>X>X>X>X>X>X>X>X>X>X>X>X>X>X>X>X>X>X>X>X>X>X>X>X>X>X>X>X>X>X>X>X>X>X>X>X>X>X>X>X>X>X>X>X>X>X>X>X>X>X>X>X>X>X>X>X>X",
">X>X>X>X>X>X>X>X>X>X>X>X>X>X>X>X>X>X>X>X>X>X>X>X>X>X>X>X>X>X>X>X>X>X>X>X>X>X>X>X>X>X>X>X>X>X>X>X>X>X>X>X>X>X>X>X>X>X>X>X>X>X>X>X>X>X>X>X>X>X>X>X>X>X>X>X>X>X>X>X",
">X>X>X>X>X>X>X>X>X>X>X>X>X>X>X>X>X>X>X>X>X>X>X>X>X>X>X>X>X>X>X>X>X>X>X>X>X>X>X>X>X>X>X>X>X>X>X>X>X>X>X>X>X>X>X>X>X>X>X>X>X>X>X>X>X>X>X>X>X>X>X>X>X>X>X>X>X>X>X>X",
">X>X>X>X>X>X>X>X>X>X>X>X>X>X>X>X>X>X>X>X>X>X>X>X>X>X>X>X>X>X>X>X>X>X>X>X>X>X>X>X>X>X>X>X>X>X>X>X>X>X>X>X>X>X>X>X>X>X>X>X>X>X>X>X>X>X>X>X>X>X>X>X>X>X>X>X>X>X>X>X",
">X>X>X>X>X>X>X>X>X>X>X>X>X>X>X>X>X>X>X>X>X>X>X>X>X>X>X>X>X>X>X>X>X>X>X>X>X>X>X>X>X>X>X>X>X>X>X>X>X>X>X>X>X>X>X>X>X>X>X>X>X>X>X>X>X>X>X>X>X>X>X>X>X>X>X>X>X>X>X>X",
">X>X>X>X>X>X>X>X>X>X>X>X>X>X>X>X>X>X>X>X>X>X>X>X>X>X>X>X>X>X>X>X>X>X>X>X>X>X>X>X>X>X>X>X>X>X>X>X>X>X>X>X>X>X>X>X>X>X>X>X>X>X>X>X>X>X>X>X>X>X>X>X>X>X>X>X>X>X>X>X",
">X>X>X>X>X>X>X>X>X>X>X>X>X>X>X>X>X>X>X>X>X>X>X>X>X>X>X>X>X>X>X>X>X>X>X>X>X>X>X>X>X>X>X>X>X>X>X>X>X>X>X>X>X>X>X>X>X>X>X>X>X>X>X>X>X>X>X>X>X>X>X>X>X>X>X>X>X>X>X>X",
">X>X>X>X>X>X>X>X>X>X>X>X>X>X>X>X>X>X>X>X>X>X>X>X>X>X>X>X>X>X>X>X>X>X>X>X>X>X$.4.>X>X>X>X>X>X>X>X>X>X>X>X>X>X>X>X>X>X>X>X>X>X>X>X>X>X>X>X>X>X>X>X>X>X>X>X>X>X>X>X",
">X>X>X>X>X>X>X>X>X>X>X>X>X>X>X>X>X>X>X>X>X>X>X>X>X>X>X>X>X>X>X>X>X>X>X>X>X} $.4.O.>X>X>X>X>X>X>X>X>X>X>X>X>X>X>X>X>X>X>X>X>X>X>X>X>X>X>X>X>X>X>X>X>X>X>X>X>X>X>X",
">X>X>X>X>X>X>X>X>X>X>X>X>X>X>X>X>X>X>X>X>X>X>X>X>X>X>X>X>X>X>X>X>X>X>X>X} c x c x b } >X>X>X>X>X>X>X>X>X>X>X>X>X>X>X>X>X>X>X>X>X>X>X>X>X>X>X>X>X>X>X>X>X>X>X>X>X",
">X>X>X>X>X>X>X>X>X>X>X>X>X>X>X>X>X>X>X>X>X>X>X>X>X>X>X>X>X>X>X>X>X>Xc b c o       2 [ c c >X>X>X>X>X>X{ +.} [ >X>X>X>X>X>X>X>X>X>X>X>X>X>X>X>X>X>X>X>X>X>X>X>X>X",
">X>X>X>X>X>X>X>X>X>X>X>X>X>X>X>X>X>X>X>X>X>X>X>X>X[ } O.[ >X>X>X>X>X' s             , c [ >X>X>Xc } b 3 2 , s } [ f >X>X>X>X>X>X>X>X>X>X>X>X>X>X>X>X>X>X>X>X>X>X",
">X>X>X>X>X>X>X>X>X>X>X>X>X>X>X>X>X>X>X>X>X>Xg } ;.d , , , b } x >X3.f - s J C D I j > 3 ` 1.>X>Xc x &         2 c n >X>X>X>X>X>X>X>X>X>X>X>X>X>X>X>X>X>X>X>X>X>X",
">X>X>X>X>X>X>X>X>X>X>X>X>X>X>X>X>X>X>X>X>X>Xc n g         - f v +.;.. 2 5.J.f.l.s.~.[   j ;.>X>Xx o   * # # $   , b >X>X>X>X>X>X>X>X>X>X>X>X>X>X>X>X>X>X>X>X>X>X",
">X>X>X>X>X>X>X>X>X>X>X>X>X>X>X>X>X>X>X>X>X>Xn ,   # & $ & . o k J.b.4 r h.= D _ & Q Q   A L.2.' . d +.s.~ ~ >.{ - 1 X.1.>X>X>X>X>X>X>X>X>X>X>X>X>X>X>X>X>X>X>X>X",
">X>X>X>X>X>X>X>X>X>X>X>X>X>X>X>X>X>X>X>X>X#.1 - [ J.i.~ s.*.a o %.c.9 o 9 m V.}.N 6 = X u.R.<.S    .T.L a.) L ~.h . ~ S.>X>X>X>X>X>X>X>X>X>X>X>X>X>X>X>X>X>X>X>X",
">X>X>X>X>X>X>X>X>X>X>X>X>X>X>X>X>X>X>X>X>XS.. r R.U ( a.L T.&.  n R.u   % 8.Z. Xe.M   . P <.!.r.. P C @ F.G @ T t 7 b.M.>X>X>X>X>X>X>X>X>X>X>X>X>X>X>X>X>X>X>X>X",
">X>X>X>X>X>X>X>X>X>X>X>X>X>X>X>X>X>X>X>X>Xv.7 t R @ G F.@ V I   b R.8 < I.B.v.v.N.Q.P   3 >XE./ .   5 0.XX|.7..   0 d.j.>X>X>X>X>X>X>X>X>X>X>X>X>X>X>X>X>X>X>X>X",
">X>X>X>X>X>X>X>X>X>X>X>X>X>X>X>X>X>X>X>X>Xj.0   . 7.|..X0.5   + } Y   U ;X-X@X+X%X;X^.    >X>X~ . * A w.A.C.q.V . = >X>X>X>X>X>X>X>X>X>X>X>X>X>X>X>X>X>X>X>X>X>X",
">X>X>X>X>X>X>X>X>X>X>X>X>X>X>X>X>X>X>X>X>Xn.0 . C y./.(.m.u.t   { >X: ` 6.@X%XoX#X=X5.+   >X>X>X  :.{.{.`._.{.[.h . >X>X>X>X>X>X>X>X>X>X>X>X>X>X>X>X>X>X>X>X>X>X",
">X>X>X>X>X>X>X>X>X>X>X>X>X>X>X>X>X>X>X>X>X>X% e ).Q.t.K c._.E   >X>X>X,   C P.d.L.R.=   >X>X>X>Xo 6.:X&X$X$X&X&X[   >X>X>X>X>X>X>X>X>X>X>X>X>X>X>X>X>X>X>X>X>X>X",
">X>X>X>X>X>X>X>X>X>X>X>X>X>X>X>X>X>X>X>X>X>X  p ,.E.u X d.~.v   v >X>X>Xf r q r t 0 b >X>X>X>X>Xb d  .[.[.).[.>X>X>X>X>X>X>X>X>X>X>X>X>X>X>X>X>X>X>X>X>X>X>X>X>X",
">X>X>X>X>X>X>X>X>X>X>X>X>X>X>X>X>X>X>X>X>X>X>X  3 h.h.^ W.j +   s n >X>X+.f         c $.>X>X>X+.c     C / R >X>X>X>X>X>X>X>X>X>X>X>X>X>X>X>X>X>X>X>X>X>X>X>X>X>X",
">X>X>X>X>X>X>X>X>X>X>X>X>X>X>X>X>X>X>X>X>X>X>X, 2 D ! ! R h ,     O c [ s             2 [ f b c         i k >X>X>X>X>X>X>X>X>X>X>X>X>X>X>X>X>X>X>X>X>X>X>X>X>X>X",
">X>X>X>X>X>X>X>X>X>X>X>X>X>X>X>X>X>X>X>X>X>X>X>X>X>Xg e X 2 i .     O O .               O O O o           1 k >X>X>X>X>X>X>X>X>X>X>X>X>X>X>X>X>X>X>X>X>X>X>X>X>X",
">X>X>X>X>X>X>X>X>X>X>X>X>X>X>X>X>X>X>X>X>X>X>X>X>X>Xd O                                                   3 H >X>X>X>X>X>X>X>X>X>X>X>X>X>X>X>X>X>X>X>X>X>X>X>X>X",
">X>X>X>X>X>X>X>X>X>X>X>X>X>X>X>X>X>X>X>X>X>X>X>X>Xb 2                                                     g $.>X>X>X>X>X>X>X>X>X>X>X>X>X>X>X>X>X>X>X>X>X>X>X>X>X",
">X>X>X>X>X>X>X>X>X>X>X>X>X>X>X>X>X>X>X>X>X>X>X>X>X} s                                                     x ,.>X>X>X>X>X>X>X>X>X>X>X>X>X>X>X>X>X>X>X>X>X>X>X>X>X",
">X>X>X>X>X>X>X>X>X>X>X>X>X>X>X>X>X>X>X>X>X>X>X>Xf s O                                                     , s k >X>X>X>X>X>X>X>X>X>X>X>X>X>X>X>X>X>X>X>X>X>X>X>X",
">X>X>X>X>X>X>X>X>X>X>X>X>X>X>X>X>X>X>X>X>X>X>X>Xf .                                                           f >X>X>X>X>X>X>X>X>X>X>X>X>X>X>X>X>X>X>X>X>X>X>X>X",
">X>X>X>X>X>X>X>X>X>X>X>X>X>X>X>X>X>X>X>X>X>X>X>X[ O                   .                   .                 o g >X>X>X>X>X>X>X>X>X>X>X>X>X>X>X>X>X>X>X>X>X>X>X>X",
">X>X>X>X>X>X>X>X>X>X>X>X>X>X>X>X>X>X>X>X>X>X>X>X$.,         - s O   o s 1               o g ,               o g >X>X>X>X>X>X>X>X>X>X>X>X>X>X>X>X>X>X>X>X>X>X>X>X",
">X>X>X>X>X>X>X>X>X>X>X>X>X>X>X>X>X>X>X>X>X>X>Xc x O         , c ,   . s ,               . e ,               o c >X>X>X>X>X>X>X>X>X>X>X>X>X>X>X>X>X>X>X>X>X>X>X>X",
">X>X>X>X>X>X>X>X>X>X>X>X>X>X>X>X>X>X>X>X>X>Xv 2           >X>Xc ,                                           , [ >X>X>X>X>X>X>X>X>X>X>X>X>X>X>X>X>X>X>X>X>X>X>X>X",
">X>X>X>X>X>X>X>X>X>X>X>X>X>X>X>X>X>X>X>X>X>Xn 2           >X>Xf O                                 >X>X      , +.>X>X>X>X>X>X>X>X>X>X>X>X>X>X>X>X>X>X>X>X>X>X>X>X",
">X>X>X>X>X>X>X>X>X>X>X>X>X>X>X>X>X>X>X>X>X>Xc 2           >X>Xn O                                 >X>X>X    o g c >X>X>X>X>X>X>X>X>X>X>X>X>X>X>X>X>X>X>X>X>X>X>X",
">X>X>X>X>X>X>X>X>X>X>X>X>X>X>X>X>X>X>X>X>X>Xc 2           >X>X[ ,                                 >X>X>X        3 n >X>X>X>X>X>X>X>X>X>X>X>X>X>X>X>X>X>X>X>X>X>X",
">X>X>X>X>X>X>X>X>X>X>X>X>X>X>X>X>X>X>X>X>X>Xc 2         >X>X>X+.,                                 >X>X>X        2 c >X>X>X>X>X>X>X>X>X>X>X>X>X>X>X>X>X>X>X>X>X>X",
">X>X>X>X>X>X>X>X>X>X>X>X>X>X>X>X>X>X>X>X>X>X[ s         >X>X>X>Xc O           , ,                 >X>X>X        2 n >X>X>X>X>X>X>X>X>X>X>X>X>X>X>X>X>X>X>X>X>X>X",
">X>X>X>X>X>X>X>X>X>X>X>X>X>X>X>X>X>X>X>X>X>X+.f         >X>X>X>X[ 2         $ c c O .             >X>X>X        2 c >X>X>X>X>X>X>X>X>X>X>X>X>X>X>X>X>X>X>X>X>X>X",
">X>X>X>X>X>X>X>X>X>X>X>X>X>X>X>X>X>X>X>X>X>X5.c +       >X>X>X>Xn 2       X x { [ c o             >X>X>X        2 n >X>X>X>X>X>X>X>X>X>X>X>X>X>X>X>X>X>X>X>X>X>X",
">X>X>X>X>X>X>X>X>X>X>X>X>X>X>X>X>X>X>X>X>X>X>X} 2 .       >X>X>Xc 2       o [ } } [ o           >X>X>X>X>X      2 c >X>X>X>X>X>X>X>X>X>X>X>X>X>X>X>X>X>X>X>X>X>X",
">X>X>X>X>X>X>X>X>X>X>X>X>X>X>X>X>X>X>X>X>X>X>X>Xv .       >X>X>Xc 2     o 2 [ +.$.[ e o         >X>X>X>X>X>X    2 n >X>X>X>X>X>X>X>X>X>X>X>X>X>X>X>X>X>X>X>X>X>X",
">X>X>X>X>X>X>X>X>X>X>X>X>X>X>X>X>X>X>X>X>X>X>X>XH ,       >X>X>Xn 2     2 [ } } } [ [ 2         >X>X>X>X>X>X    2 v >X>X>X>X>X>X>X>X>X>X>X>X>X>X>X>X>X>X>X>X>X>X",
">X>X>X>X>X>X>X>X>X>X>X>X>X>X>X>X>X>X>X>X>X>X>X>X>Xc -     >X>X>XO.s     2 [ $.1 3 $.} ,         >X>X>X>X>X>X    0 n >X>X>X>X>X>X>X>X>X>X>X>X>X>X>X>X>X>X>X>X>X>X",
">X>X>X>X>X>X>X>X>X>X>X>X>X>X>X>X>X>X>X>X>X>X>X>X>X} 2       >X>X5.f       s X.n n } s +         >X>X>X>X>X>X    i c >X>X>X>X>X>X>X>X>X>X>X>X>X>X>X>X>X>X>X>X>X>X",
">X>X>X>X>X>X>X>X>X>X>X>X>X>X>X>X>X>X>X>X>X>X>X>X>X} g o     , >X>Xb o     . b 4.4.[ .           >X>X>X>X>X>X    e ` >X>X>X>X>X>X>X>X>X>X>X>X>X>X>X>X>X>X>X>X>X>X",
">X>X>X>X>X>X>X>X>X>X>X>X>X>X>X>X>X>X>X>X>X>X>X>X>X>Xb s .     >X>X>Xg .   O [ O.O.[ O           >X>X>X>X>X>X    g } >X>X>X>X>X>X>X>X>X>X>X>X>X>X>X>X>X>X>X>X>X>X",
">X>X>X>X>X>X>X>X>X>X>X>X>X>X>X>X>X>X>X>X>X>X>X>X>X>X>X>Xs o     >X>X[ o   o n } } b o         >X>X>X>X>X>X>X2   s } >X>X>X>X>X>X>X>X>X>X>X>X>X>X>X>X>X>X>X>X>X>X",
">X>X>X>X>X>X>X>X>X>X>X>X>X>X>X>X>X>X>X>X>X>X>X>X>X>X>X>X[ ,     >Xb f o   . 2 b b 2 +     O >X>X>X>X>X>X>X>Xf   s $.>X>X>X>X>X>X>X>X>X>X>X>X>X>X>X>X>X>X>X>X>X>X",
">X>X>X>X>X>X>X>X>X>X>X>X>X>X>X>X>X>X>X>X>X>X>X>X>X>X>X>X{ 0   O g 2           p s       . c >X>X>X>X>X>X>X$.c + c $.>X>X>X>X>X>X>X>X>X>X>X>X>X>X>X>X>X>X>X>X>X>X",
">X>X>X>X>X>X>X>X>X>X>X>X>X>X>X>X>X>X>X>X>X>X>X>X>X>X>X>X>Xb v f , .           . .       o { >X>X>X>X>X>X$.X.` l v b >X>X>X>X>X>X>X>X>X>X>X>X>X>X>X>X>X>X>X>X>X>X",
">X>X>X>X>X>X>X>X>X>X>X>X>X>X>X>X>X>X>X>X>X>X>X>X>X>X>X>X>X[ n 2                         . s f >X>X>X>X>X$. .=.G.J p >X>X>X>X>X>X>X>X>X>X>X>X>X>X>X>X>X>X>X>X>X>X",
">X>X>X>X>X>X>X>X>X>X>X>X>X>X>X>X>X>X>X>X>X>X>X>X>X>X>X>X>Xn s                               2 b >X>X>X>X@.:.n.M.W l >X>X>X>X>X>X>X>X>X>X>X>X>X>X>X>X>X>X>X>X>X>X",
">X>X>X>X>X>X>X>X>X>X>X>X>X>X>X>X>X>X>X>X>X>X>X>X>X>X>X>X>X} g                               g } >X>X>X>X1.:.x.x.&.` >X>X>X>X>X>X>X>X>X>X>X>X>X>X>X>X>X>X>X>X>X>X",
">X>X>X>X>X>X>X>X>X>X>X>X>X>X>X>X>X>X>X>X>X>X>X>X>X>X>X>X>X} f                               , s g >X>X>X>X;.*.&.| >X>X>X>X>X>X>X>X>X>X>X>X>X>X>X>X>X>X>X>X>X>X>X",
">X>X>X>X>X>X>X>X>X>X>X>X>X>X>X>X>X>X>X>X>X>X>X>X>X>X>X>X>X+.b                                 O n >X>X>X>X>X@.' >X>X>X>X>X>X>X>X>X>X>X>X>X>X>X>X>X>X>X>X>X>X>X>X",
">X>X>X>X>X>X>X>X>X>X>X>X>X>X>X>X>X>X>X>X>X>X>X>X>X>X>X>X>X$.[           >X>X>X>X>X>X          , [ >X>X>X>X>X>X>X>X>X>X>X>X>X>X>X>X>X>X>X>X>X>X>X>X>X>X>X>X>X>X>X",
">X>X>X>X>X>X>X>X>X>X>X>X>X>X>X>X>X>X>X>X>X>X>X>X>X>X>X>Xc s ,         >X>X>X>X>X>X>X>X        . , g >X>X>X>X>X>X>X>X>X>X>X>X>X>X>X>X>X>X>X>X>X>X>X>X>X>X>X>X>X>X",
">X>X>X>X>X>X>X>X>X>X>X>X>X>X>X>X>X>X>X>X>X>X>X>X>X>X>X>Xf O         >X>X>X>X>X>X>X>X>X>X          s b >X>X>X>X>X>X>X>X>X>X>X>X>X>X>X>X>X>X>X>X>X>X>X>X>X>X>X>X>X",
">X>X>X>X>X>X>X>X>X>X>X>X>X>X>X>X>X>X>X>X>X>X>X>X>X>X>X>Xc ,         >X>X>X>X>X>X>X>X>X>X>X        c O.>X>X>X>X>X>X>X>X>X>X>X>X>X>X>X>X>X>X>X>X>X>X>X>X>X>X>X>X>X",
">X>X>X>X>X>X>X>X>X>X>X>X>X>X>X>X>X>X>X>X>X>X>X>X>X>X>X>X[ ,         >X>X>X>X>X>X>X>X>X>X>X        b $.>X>X>X>X>X>X>X>X>X>X>X>X>X>X>X>X>X>X>X>X>X>X>X>X>X>X>X>X>X",
">X>X>X>X>X>X>X>X>X>X>X>X>X>X>X>X>X>X>X>X>X>X>X>X>X>X>X>X} 3         >X>X>X>X>X>X>X>X>X>X>X      . [ >X>X>X>X>X>X>X>X>X>X>X>X>X>X>X>X>X>X>X>X>X>X>X>X>X>X>X>X>X>X",
">X>X>X>X>X>X>X>X>X>X>X>X>X>X>X>X>X>X>X>X>X>X>X>X>X>X>X>X{ ,         >X>X>X>X>X>X>X>X>X>X>X        >X>X>X>X>X>X>X>X>X>X>X>X>X>X>X>X>X>X>X>X>X>X>X>X>X>X>X>X>X>X>X",
">X>X>X>X>X>X>X>X>X>X>X>X>X>X>X>X>X>X>X>X>X>X>X>X>X>X>X>X$.2         - >X>X>X>X>X>X>X>X>X          >X>X>X>X>X>X>X>X>X>X>X>X>X>X>X>X>X>X>X>X>X>X>X>X>X>X>X>X>X>X>X",
">X>X>X>X>X>X>X>X>X>X>X>X>X>X>X>X>X>X>X>X>X>X>X>X>X>X>X>X>Xj ; > a a l ..>X>X>X>X>X>X>X>X  : i i a z ] o.>X>X>X>X>X>X>X>X>X>X>X>X>X>X>X>X>X>X>X>X>X>X>X>X>X>X>X>X",
">X>X>X>X>X>X>X>X>X>X>X>X>X>X>X>X>X>X>X>X>X>X>X>X>X>X>X>X>XQ H E D.=.-.J.;.>X>X>X>X>X>X>Xy H Y Y -.=.=.-.4.>X>X>X>X>X>X>X>X>X>X>X>X>X>X>X>X>X>X>X>X>X>X>X>X>X>X>X",
">X>X>X>X>X>X>X>X>X>X>X>X>X>X>X>X>X>X>X>X>X>X>X>X>X>X>X>XK.H.L.v.v.v.M.M.D.#.>X>X>X>X>X>XK.K.K.L.v.z.M.b.*.@.$.>X>X>X>X>X>X>X>X>X>X>X>X>X>X>X>X>X>X>X>X>X>X>X>X>X",
">X>X>X>X>X>X>X>X>X>X>X>X>X>X>X>X>X>X>X>X>X>X>X>X>X>X>X>XH.K.W.x.B S g.Z F J.>X>X>X>X>XI.I.L.K.W.x.B V g.r j J.>X>X>X>X>X>X>X>X>X>X>X>X>X>X>X>X>X>X>X>X>X>X>X>X>X",
">X>X>X>X>X>X>X>X>X>X>X>X>X>X>X>X>X>X>X>X>X>X>X>X>X>X>X>XK.K.I.i.# u d.# u W.>X>X>X>X>X>XK.K.K.W.K.$ y s.* y W.>X>X>X>X>X>X>X>X>X>X>X>X>X>X>X>X>X>X>X>X>X>X>X>X>X",
">X>X>X>X>X>X>X>X>X>X>X>X>X>X>X>X>X>X>X>X>X>X>X>X>X>X>X>X>X>X>X>X>X>X>X>X>X>X>X>X>X>X>X>X>X>X>X>X>X>X>X>X>X>X>X>X>X>X>X>X>X>X>X>X>X>X>X>X>X>X>X>X>X>X>X>X>X>X>X>X",
">X>X>X>X>X>X>X>X>X>X>X>X>X>X>X>X>X>X>X>X>X>X>X>X>X>X>X>X>X>X>X>X>X>X>X>X>X>X>X>X>X>X>X>X>X>X>X>X>X>X>X>X>X>X>X>X>X>X>X>X>X>X>X>X>X>X>X>X>X>X>X>X>X>X>X>X>X>X>X>X",
">X>X>X>X>X>X>X>X>X>X>X>X>X>X>X>X>X>X>X>X>X>X>X>X>X>X>X>X>X>X>X>X>X>X>X>X>X>X>X>X>X>X>X>X>X>X>X>X>X>X>X>X>X>X>X>X>X>X>X>X>X>X>X>X>X>X>X>X>X>X>X>X>X>X>X>X>X>X>X>X",
">X>X>X>X>X>X>X>X>X>X>X>X>X>X>X>X>X>X>X>X>X>X>X>X>X>X>X>X>X>X>X>X>X>X>X>X>X>X>X>X>X>X>X>X>X>X>X>X>X>X>X>X>X>X>X>X>X>X>X>X>X>X>X>X>X>X>X>X>X>X>X>X>X>X>X>X>X>X>X>X",
">X>X>X>X>X>X>X>X>X>X>X>X>X>X>X>X>X>X>X>X>X>X>X>X>X>X>X>X>X>X>X>X>X>X>X>X>X>X>X>X>X>X>X>X>X>X>X>X>X>X>X>X>X>X>X>X>X>X>X>X>X>X>X>X>X>X>X>X>X>X>X>X>X>X>X>X>X>X>X>X",
">X>X>X>X>X>X>X>X>X>X>X>X>X>X>X>X>X>X>X>X>X>X>X>X>X>X>X>X>X>X>X>X>X>X>X>X>X>X>X>X>X>X>X>X>X>X>X>X>X>X>X>X>X>X>X>X>X>X>X>X>X>X>X>X>X>X>X>X>X>X>X>X>X>X>X>X>X>X>X>X",
">X>X>X>X>X>X>X>X>X>X>X>X>X>X>X>X>X>X>X>X>X>X>X>X>X>X>X>X>X>X>X>X>X>X>X>X>X>X>X>X>X>X>X>X>X>X>X>X>X>X>X>X>X>X>X>X>X>X>X>X>X>X>X>X>X>X>X>X>X>X>X>X>X>X>X>X>X>X>X>X",
">X>X>X>X>X>X>X>X>X>X>X>X>X>X>X>X>X>X>X>X>X>X>X>X>X>X>X>X>X>X>X>X>X>X>X>X>X>X>X>X>X>X>X>X>X>X>X>X>X>X>X>X>X>X>X>X>X>X>X>X>X>X>X>X>X>X>X>X>X>X>X>X>X>X>X>X>X>X>X>X",
">X>X>X>X>X>X>X>X>X>X>X>X>X>X>X>X>X>X>X>X>X>X>X>X>X>X>X>X>X>X>X>X>X>X>X>X>X>X>X>X>X>X>X>X>X>X>X>X>X>X>X>X>X>X>X>X>X>X>X>X>X>X>X>X>X>X>X>X>X>X>X>X>X>X>X>X>X>X>X>X"
};
