/* XPM */
static char *_0678_2f2ac7f378af76aa9c0c209bc8b99a437bc82c2bca0a4142b8d47b565f7bfd26[] = {
/* columns rows colors chars-per-pixel */
"80 80 4 1 ",
"  c #0B0B3B",
". c #F8AD08",
"X c #F8D808",
"o c None",
/* pixels */
"oooooooooooooooooooooooooooooooooooooooooooooooooooooooooooooooooooooooooooooooo",
"oooooooooooooooooooooooooooooooooooooooooooooooooooooooooooooooooooooooooooooooo",
"oooooooooooooooooooooooooooooooooooooooooooooooooooooooooooooooooooooooooooooooo",
"oooooooooooooooooooooooooooooooooooooooooooooooooooooooooooooooooooooooooooooooo",
"oooooooooooooooooooooooooooooooooooooooooooooooooooooooooooooooooooooooooooooooo",
"oooooooooooooooooooooooooooooooooooooooooooooooooooooooooooooooooooooooooooooooo",
"oooooooooooooooooooooooooooooooooooooooooooooooooooooooooooooooooooooooooooooooo",
"oooooooooooooooooooooooooooooooooooooooooooooooooooooooooooooooooooooooooooooooo",
"oooooooooooooooooooooooooooooooooooooooooooooooooooooooooooooooooooooooooooooooo",
"oooooooooooooooooooooooooooooooooooooooooooooooooooooooooooooooooooooooooooooooo",
"oooooooooooooooooooooooooooooooooooooooooooooooooooooooooooooooooooooooooooooooo",
"oooooooooooooooooooooooooooooooooooooooooooooooooooooooooooooooooooooooooooooooo",
"oooooooooooooooooooooooooooooooooooooooooooooooooooooooooooooooooooooooooooooooo",
"oooooooooooooooooooooooooooooooooooooooooooooooooooooooooooooooooooooooooooooooo",
"oooooooooooooooooooooooooooooooooooooooooooooooooooooooooooooooooooooooooooooooo",
"oooooooooooooooooooooooooooooooooooooooooooooooooooooooooooooooooooooooooooooooo",
"oooooooooooooooooooooooooooooooooooooooooooooooooooooooooooooooooooooooooooooooo",
"oooooooooooooooooooooooooooooooooooooooooooooooooooooooooooooooooooooooooooooooo",
"oooooooooooooooooooooooooooooooooooooooooooooooooooooooooooooooooooooooooooooooo",
"oooooooooooooooooooooooooooooooooooooooooooooooooooooooooooooooooooooooooooooooo",
"oooooooooooooooooooooooooooooooooooooooooooooooooooooooooooooooooooooooooooooooo",
"oooooooooooooooooooooooooooooooooooooooooooooooooooooooooooooooooooooooooooooooo",
"oooooooooooooooooooooooooooooooooooooooooooooooooooooooooooooooooooooooooooooooo",
"oooooooooooooooooooooooooooooooooooo    oooooooooooooooooooooooooooooooooooooooo",
"oooooooooooooooooooooooooooooooooooo    oooooooooooooooooooooooooooooooooooooooo",
"oooooooooooooooooooooooooooooooooo      oooooooooooooooooooooooooooooooooooooooo",
"oooooooooooooooooooooooooooooooooo      oooooooooooooooooooooooooooooooooooooooo",
"oooooooooooooooooooooooooooooooo  XXXX  oooooooooooooooooooooooooooooooooooooooo",
"oooooooooooooooooooooooooooooooo  XXXX  oooooooooooooooooooooooooooooooooooooooo",
"oooooooooooooooooooooooooooooooo  XXXX  oooooooooooooooooooooooooooooooooooooooo",
"oooooooooooooooooooooooooooooooo  XXXX  oooooooooooooooooooooooooooooooooooooooo",
"oooooooooooooooooooooooooooooo  XXXXXX  oooooooooooooooooooooooooooooooooooooooo",
"oooooooooooooooooooooooooooooo  XXXXXX  oooooooooooooooooooooooooooooooooooooooo",
"oooooooooooooooooooooooooooooo  XXXXXX  oooooooooooooooooooooooooooooooooooooooo",
"oooooooooooooooooooooooooooooo  XXXXXX  oooooooooooooooooooooooooooooooooooooooo",
"oooooooooooooooooooooooooooooo  XXXXXXXX  oooooooooooooooooooooooooooooooooooooo",
"oooooooooooooooooooooooooooooo  XXXXXXXX  oooooooooooooooooooooooooooooooooooooo",
"oooooooooooooooooooooooooooooo  XXXXXXXX  oooooooooooooooooooooooooooooooooooooo",
"oooooooooooooooooooooooooooooo  XXXXXXXX  oooooooooooooooooooooooooooooooooooooo",
"oooooooooooooooooooooooooooooo  XXXXXXXX  oooooooooooooooooooooooooooooooooooooo",
"oooooooooooooooooooooooooooooo  XXXXXXXX  oooooooooooooooooooooooooooooooooooooo",
"oooooooooooooooooooooooooooooo  XXXXXX....  oooooooooooooooooooooooooooooooooooo",
"oooooooooooooooooooooooooooooo  XXXXXX....  oooooooooooooooooooooooooooooooooooo",
"oooooooooooooooooooooooooooooo  XX....XXXX  oooooooooooooooooooooooooooooooooooo",
"oooooooooooooooooooooooooooooo  XX....XXXX  oooooooooooooooooooooooooooooooooooo",
"oooooooooooooooooooooooooooooo  ..XXXX......  oooooooooooooooooooooooooooooooooo",
"oooooooooooooooooooooooooooooo  ..XXXX......  oooooooooooooooooooooooooooooooooo",
"oooooooooooooooooooooooooooooooo  XX..........  oooooooooooooooooooooooooooooooo",
"oooooooooooooooooooooooooooooooo  XX..........  oooooooooooooooooooooooooooooooo",
"oooooooooooooooooooooooooooooooo  ..............  oooooooooooooooooooooooooooooo",
"oooooooooooooooooooooooooooooooo  ..............  oooooooooooooooooooooooooooooo",
"oooooooooooooooooooooooooooooooooo  ............  oooooooooooooooooooooooooooooo",
"oooooooooooooooooooooooooooooooooo  ............  oooooooooooooooooooooooooooooo",
"oooooooooooooooooooooooooooooooooooo    ......    oooooooooooooooooooooooooooooo",
"oooooooooooooooooooooooooooooooooooo    ......    oooooooooooooooooooooooooooooo",
"oooooooooooooooooooooooooooooooooooooooo        oooooooooooooooooooooooooooooooo",
"oooooooooooooooooooooooooooooooooooooooo        oooooooooooooooooooooooooooooooo",
"oooooooooooooooooooooooooooooooooooooooooooooooooooooooooooooooooooooooooooooooo",
"oooooooooooooooooooooooooooooooooooooooooooooooooooooooooooooooooooooooooooooooo",
"oooooooooooooooooooooooooooooooooooooooooooooooooooooooooooooooooooooooooooooooo",
"oooooooooooooooooooooooooooooooooooooooooooooooooooooooooooooooooooooooooooooooo",
"oooooooooooooooooooooooooooooooooooooooooooooooooooooooooooooooooooooooooooooooo",
"oooooooooooooooooooooooooooooooooooooooooooooooooooooooooooooooooooooooooooooooo",
"oooooooooooooooooooooooooooooooooooooooooooooooooooooooooooooooooooooooooooooooo",
"oooooooooooooooooooooooooooooooooooooooooooooooooooooooooooooooooooooooooooooooo",
"oooooooooooooooooooooooooooooooooooooooooooooooooooooooooooooooooooooooooooooooo",
"oooooooooooooooooooooooooooooooooooooooooooooooooooooooooooooooooooooooooooooooo",
"oooooooooooooooooooooooooooooooooooooooooooooooooooooooooooooooooooooooooooooooo",
"oooooooooooooooooooooooooooooooooooooooooooooooooooooooooooooooooooooooooooooooo",
"oooooooooooooooooooooooooooooooooooooooooooooooooooooooooooooooooooooooooooooooo",
"oooooooooooooooooooooooooooooooooooooooooooooooooooooooooooooooooooooooooooooooo",
"oooooooooooooooooooooooooooooooooooooooooooooooooooooooooooooooooooooooooooooooo",
"oooooooooooooooooooooooooooooooooooooooooooooooooooooooooooooooooooooooooooooooo",
"oooooooooooooooooooooooooooooooooooooooooooooooooooooooooooooooooooooooooooooooo",
"oooooooooooooooooooooooooooooooooooooooooooooooooooooooooooooooooooooooooooooooo",
"oooooooooooooooooooooooooooooooooooooooooooooooooooooooooooooooooooooooooooooooo",
"oooooooooooooooooooooooooooooooooooooooooooooooooooooooooooooooooooooooooooooooo",
"oooooooooooooooooooooooooooooooooooooooooooooooooooooooooooooooooooooooooooooooo",
"oooooooooooooooooooooooooooooooooooooooooooooooooooooooooooooooooooooooooooooooo",
"oooooooooooooooooooooooooooooooooooooooooooooooooooooooooooooooooooooooooooooooo"
};
