/* XPM */
static char *_4475_5c47189b87adbf270f30754ac2472f3f2c6e6000ca91e6c41797be8266f9efba[] = {
/* columns rows colors chars-per-pixel */
"80 80 4 1 ",
"  c #0B0B3B",
". c #F8AD08",
"X c #F8D808",
"o c None",
/* pixels */
"oooooooooooooooooooooooooooooooooooooooooooooooooooooooooooooooooooooooooooooooo",
"oooooooooooooooooooooooooooooooooooooooooooooooooooooooooooooooooooooooooooooooo",
"oooooooooooooooooooooooooooooooooooooooooooooooooooooooooooooooooooooooooooooooo",
"oooooooooooooooooooooooooooooooooooooooooooooooooooooooooooooooooooooooooooooooo",
"oooooooooooooooooooooooooooooooooooooooooooooooooooooooooooooooooooooooooooooooo",
"oooooooooooooooooooooooooooooooooooooooooooooooooooooooooooooooooooooooooooooooo",
"oooooooooooooooooooooooooooooooooooooooooooooooooooooooooooooooooooooooooooooooo",
"oooooooooooooooooooooooooooooooooooooooooooooooooooooooooooooooooooooooooooooooo",
"oooooooooooooooooooooooooooooooooooooooooooooooooooooooooooooooooooooooooooooooo",
"oooooooooooooooooooooooooooooooooooooooooooooooooooooooooooooooooooooooooooooooo",
"oooooooooooooooooooooooooooooooooooooooooooooooooooooooooooooooooooooooooooooooo",
"oooooooooooooooooooooooooooooooooooooooooooooooooooooooooooooooooooooooooooooooo",
"oooooooooooooooooooooooooooooooooooooooooooooooooooooooooooooooooooooooooooooooo",
"oooooooooooooooooooooooooooooooooooooooooooooooooooooooooooooooooooooooooooooooo",
"oooooooooooooooooooooooooooooooooooooooooooooooooooooooooooooooooooooooooooooooo",
"oooooooooooooooooooooooooooooooooooooooooooooooooooooooooooooooooooooooooooooooo",
"oooooooooooooooooooooooooooooooooooooooooooooooooooooooooooooooooooooooooooooooo",
"oooooooooooooooooooooooooooooooooooooooooooooooooooooooooooooooooooooooooooooooo",
"oooooooooooooooooooooooooooooooooooooooooooooooooooooooooooooooooooooooooooooooo",
"oooooooooooooooooooooooooooooooooooooooooooooooooooooooooooooooooooooooooooooooo",
"oooooooooooooooooooooooooooooooooooooooooooooooooooooooooooooooooooooooooooooooo",
"oooooooooooooooooooooooooooooooooooooooooooooooooooooooooooooooooooooooooooooooo",
"oooooooooooooooooooooooooooooooooooooooooooooooooooooooooooooooooooooooooooooooo",
"ooooooooooooooooooooooooooooooooo    ooooooooooooooooooooooooooooooooooooooooooo",
"ooooooooooooooooooooooooooooooooo    ooooooooooooooooooooooooooooooooooooooooooo",
"ooooooooooooooooooooooooooooooo      ooooooooooooooooooooooooooooooooooooooooooo",
"ooooooooooooooooooooooooooooooo      ooooooooooooooooooooooooooooooooooooooooooo",
"ooooooooooooooooooooooooooooo  XXXX  ooooooooooooooooooooooooooooooooooooooooooo",
"ooooooooooooooooooooooooooooo  XXXX  ooooooooooooooooooooooooooooooooooooooooooo",
"ooooooooooooooooooooooooooo  XXXXXX  ooooooooooooooooooooooooooooooooooooooooooo",
"ooooooooooooooooooooooooooo  XXXXXX  ooooooooooooooooooooooooooooooooooooooooooo",
"ooooooooooooooooooooooooooo  XXXXXX  ooooooooooooooooooooooooooooooooooooooooooo",
"ooooooooooooooooooooooooooo  XXXXXX  ooooooooooooooooooooooooooooooooooooooooooo",
"ooooooooooooooooooooooooo  XXXXXXXX  ooooooooooooooooooooooooooooooooooooooooooo",
"ooooooooooooooooooooooooo  XXXXXXXX  ooooooooooooooooooooooooooooooooooooooooooo",
"ooooooooooooooooooooooooo  XXXXXXXX  ooooooooooooooooooooooooooooooooooooooooooo",
"ooooooooooooooooooooooooo  XXXXXXXX  ooooooooooooooooooooooooooooooooooooooooooo",
"ooooooooooooooooooooooooo  XXXXXXXXXX  ooooooooooooooooooooooooooooooooooooooooo",
"ooooooooooooooooooooooooo  XXXXXXXXXX  ooooooooooooooooooooooooooooooooooooooooo",
"ooooooooooooooooooooooooo  XXXXXXXXXXXX  ooooooooooooooooooooooooooooooooooooooo",
"ooooooooooooooooooooooooo  XXXXXXXXXXXX  ooooooooooooooooooooooooooooooooooooooo",
"ooooooooooooooooooooooooo  XXXXXXXXXX....  ooooooooooooooooooooooooooooooooooooo",
"ooooooooooooooooooooooooo  XXXXXXXXXX....  ooooooooooooooooooooooooooooooooooooo",
"ooooooooooooooooooooooooooo  XXXXXX..XXXXXX    ooooooooooooooooooooooooooooooooo",
"ooooooooooooooooooooooooooo  XXXXXX..XXXXXX    ooooooooooooooooooooooooooooooooo",
"ooooooooooooooooooooooooooo  XXXX..XXXX........        ooooooooooooooooooooooooo",
"ooooooooooooooooooooooooooo  XXXX..XXXX........        ooooooooooooooooooooooooo",
"ooooooooooooooooooooooooooooo  ....XX................  ooooooooooooooooooooooooo",
"ooooooooooooooooooooooooooooo  ....XX................  ooooooooooooooooooooooooo",
"ooooooooooooooooooooooooooooooo  ....................  ooooooooooooooooooooooooo",
"ooooooooooooooooooooooooooooooo  ....................  ooooooooooooooooooooooooo",
"ooooooooooooooooooooooooooooooooo    ............    ooooooooooooooooooooooooooo",
"ooooooooooooooooooooooooooooooooo    ............    ooooooooooooooooooooooooooo",
"ooooooooooooooooooooooooooooooooooooo            ooooooooooooooooooooooooooooooo",
"ooooooooooooooooooooooooooooooooooooo            ooooooooooooooooooooooooooooooo",
"oooooooooooooooooooooooooooooooooooooooooooooooooooooooooooooooooooooooooooooooo",
"oooooooooooooooooooooooooooooooooooooooooooooooooooooooooooooooooooooooooooooooo",
"oooooooooooooooooooooooooooooooooooooooooooooooooooooooooooooooooooooooooooooooo",
"oooooooooooooooooooooooooooooooooooooooooooooooooooooooooooooooooooooooooooooooo",
"oooooooooooooooooooooooooooooooooooooooooooooooooooooooooooooooooooooooooooooooo",
"oooooooooooooooooooooooooooooooooooooooooooooooooooooooooooooooooooooooooooooooo",
"oooooooooooooooooooooooooooooooooooooooooooooooooooooooooooooooooooooooooooooooo",
"oooooooooooooooooooooooooooooooooooooooooooooooooooooooooooooooooooooooooooooooo",
"oooooooooooooooooooooooooooooooooooooooooooooooooooooooooooooooooooooooooooooooo",
"oooooooooooooooooooooooooooooooooooooooooooooooooooooooooooooooooooooooooooooooo",
"oooooooooooooooooooooooooooooooooooooooooooooooooooooooooooooooooooooooooooooooo",
"oooooooooooooooooooooooooooooooooooooooooooooooooooooooooooooooooooooooooooooooo",
"oooooooooooooooooooooooooooooooooooooooooooooooooooooooooooooooooooooooooooooooo",
"oooooooooooooooooooooooooooooooooooooooooooooooooooooooooooooooooooooooooooooooo",
"oooooooooooooooooooooooooooooooooooooooooooooooooooooooooooooooooooooooooooooooo",
"oooooooooooooooooooooooooooooooooooooooooooooooooooooooooooooooooooooooooooooooo",
"oooooooooooooooooooooooooooooooooooooooooooooooooooooooooooooooooooooooooooooooo",
"oooooooooooooooooooooooooooooooooooooooooooooooooooooooooooooooooooooooooooooooo",
"oooooooooooooooooooooooooooooooooooooooooooooooooooooooooooooooooooooooooooooooo",
"oooooooooooooooooooooooooooooooooooooooooooooooooooooooooooooooooooooooooooooooo",
"oooooooooooooooooooooooooooooooooooooooooooooooooooooooooooooooooooooooooooooooo",
"oooooooooooooooooooooooooooooooooooooooooooooooooooooooooooooooooooooooooooooooo",
"oooooooooooooooooooooooooooooooooooooooooooooooooooooooooooooooooooooooooooooooo",
"oooooooooooooooooooooooooooooooooooooooooooooooooooooooooooooooooooooooooooooooo",
"oooooooooooooooooooooooooooooooooooooooooooooooooooooooooooooooooooooooooooooooo"
};
