/* XPM */
static char *_0336_bc48c045b1ee3914fbe21eaccbcd8adeb0279353e5e9c8a11a3bff762ab8f352[] = {
/* columns rows colors chars-per-pixel */
"80 80 4 1 ",
"  c #0B0B3B",
". c #F8AD08",
"X c #F8D808",
"o c None",
/* pixels */
"oooooooooooooooooooooooooooooooooooooooooooooooooooooooooooooooooooooooooooooooo",
"oooooooooooooooooooooooooooooooooooooooooooooooooooooooooooooooooooooooooooooooo",
"oooooooooooooooooooooooooooooooooooooooooooooooooooooooooooooooooooooooooooooooo",
"oooooooooooooooooooooooooooooooooooooooooooooooooooooooooooooooooooooooooooooooo",
"oooooooooooooooooooooooooooooooooooooooooooooooooooooooooooooooooooooooooooooooo",
"oooooooooooooooooooooooooooooooooooooooooooooooooooooooooooooooooooooooooooooooo",
"oooooooooooooooooooooooooooooooooooooooooooooooooooooooooooooooooooooooooooooooo",
"oooooooooooooooooooooooooooooooooooooooooooooooooooooooooooooooooooooooooooooooo",
"oooooooooooooooooooooooooooooooooooooooooooooooooooooooooooooooooooooooooooooooo",
"oooooooooooooooooooooooooooooooooooooooooooooooooooooooooooooooooooooooooooooooo",
"oooooooooooooooooooooooooooooooooooooooooooooooooooooooooooooooooooooooooooooooo",
"oooooooooooooooooooooooooooooooooooooooooooooooooooooooooooooooooooooooooooooooo",
"oooooooooooooooooooooooooooooooooooooooooooooooooooooooooooooooooooooooooooooooo",
"oooooooooooooooooooooooooooooooooooooooooooooooooooooooooooooooooooooooooooooooo",
"oooooooooooooooooooooooooooooooooooooooooooooooooooooooooooooooooooooooooooooooo",
"oooooooooooooooooooooooooooooooooooooooooooooooooooooooooooooooooooooooooooooooo",
"oooooooooooooooooooooooooooooooooooooooooooooooooooooooooooooooooooooooooooooooo",
"oooooooooooooooooooooooooooooooooooooooooooooooooooooooooooooooooooooooooooooooo",
"oooooooooooooooooooooooooooooooooooooooooooooooooooooooooooooooooooooooooooooooo",
"oooooooooooooooooooooooooooooooooooooooooooooooooooooooooooooooooooooooooooooooo",
"oooooooooooooooooooooooooooooooooooooooooooooooooooooooooooooooooooooooooooooooo",
"oooooooooooooooooooooooooooooooooooooooooooooooooooooooooooooooooooooooooooooooo",
"oooooooooooooooooooooooooooooooooooooooooooooooooooooooooooooooooooooooooooooooo",
"oooooooooooooooooooooooooooooooooooooooooooooooooooooooooooooooooooooooooooooooo",
"oooooooooooooooooooooooooooooooooooooooo    oooooooooooooooooooooooooooooooooooo",
"oooooooooooooooooooooooooooooooooooooooo    oooooooooooooooooooooooooooooooooooo",
"oooooooooooooooooooooooooooooooooooooooo      oooooooooooooooooooooooooooooooooo",
"oooooooooooooooooooooooooooooooooooooooo      oooooooooooooooooooooooooooooooooo",
"oooooooooooooooooooooooooooooooooooooooo  XXXX  oooooooooooooooooooooooooooooooo",
"oooooooooooooooooooooooooooooooooooooooo  XXXX  oooooooooooooooooooooooooooooooo",
"oooooooooooooooooooooooooooooooooooooooo  XXXX  oooooooooooooooooooooooooooooooo",
"oooooooooooooooooooooooooooooooooooooooo  XXXX  oooooooooooooooooooooooooooooooo",
"oooooooooooooooooooooooooooooooooooooooo  XXXXXX  oooooooooooooooooooooooooooooo",
"oooooooooooooooooooooooooooooooooooooooo  XXXXXX  oooooooooooooooooooooooooooooo",
"oooooooooooooooooooooooooooooooooooooooo  XXXXXX  oooooooooooooooooooooooooooooo",
"oooooooooooooooooooooooooooooooooooooooo  XXXXXX  oooooooooooooooooooooooooooooo",
"oooooooooooooooooooooooooooooooooooooo  XXXXXXXX  oooooooooooooooooooooooooooooo",
"oooooooooooooooooooooooooooooooooooooo  XXXXXXXX  oooooooooooooooooooooooooooooo",
"oooooooooooooooooooooooooooooooooooooo  XXXXXXXX  oooooooooooooooooooooooooooooo",
"oooooooooooooooooooooooooooooooooooooo  XXXXXXXX  oooooooooooooooooooooooooooooo",
"oooooooooooooooooooooooooooooooooooooo  XXXXXXXX  oooooooooooooooooooooooooooooo",
"oooooooooooooooooooooooooooooooooooooo  XXXXXXXX  oooooooooooooooooooooooooooooo",
"oooooooooooooooooooooooooooooooooooo  ....XXXXXX  oooooooooooooooooooooooooooooo",
"oooooooooooooooooooooooooooooooooooo  ....XXXXXX  oooooooooooooooooooooooooooooo",
"oooooooooooooooooooooooooooooooooooo  XXXX....XX  oooooooooooooooooooooooooooooo",
"oooooooooooooooooooooooooooooooooooo  XXXX....XX  oooooooooooooooooooooooooooooo",
"oooooooooooooooooooooooooooooooooo  ......XXXX..  oooooooooooooooooooooooooooooo",
"oooooooooooooooooooooooooooooooooo  ......XXXX..  oooooooooooooooooooooooooooooo",
"oooooooooooooooooooooooooooooooo  ..........XX  oooooooooooooooooooooooooooooooo",
"oooooooooooooooooooooooooooooooo  ..........XX  oooooooooooooooooooooooooooooooo",
"oooooooooooooooooooooooooooooo  ..............  oooooooooooooooooooooooooooooooo",
"oooooooooooooooooooooooooooooo  ..............  oooooooooooooooooooooooooooooooo",
"oooooooooooooooooooooooooooooo  ............  oooooooooooooooooooooooooooooooooo",
"oooooooooooooooooooooooooooooo  ............  oooooooooooooooooooooooooooooooooo",
"oooooooooooooooooooooooooooooo    ......    oooooooooooooooooooooooooooooooooooo",
"oooooooooooooooooooooooooooooo    ......    oooooooooooooooooooooooooooooooooooo",
"oooooooooooooooooooooooooooooooo        oooooooooooooooooooooooooooooooooooooooo",
"oooooooooooooooooooooooooooooooo        oooooooooooooooooooooooooooooooooooooooo",
"oooooooooooooooooooooooooooooooooooooooooooooooooooooooooooooooooooooooooooooooo",
"oooooooooooooooooooooooooooooooooooooooooooooooooooooooooooooooooooooooooooooooo",
"oooooooooooooooooooooooooooooooooooooooooooooooooooooooooooooooooooooooooooooooo",
"oooooooooooooooooooooooooooooooooooooooooooooooooooooooooooooooooooooooooooooooo",
"oooooooooooooooooooooooooooooooooooooooooooooooooooooooooooooooooooooooooooooooo",
"oooooooooooooooooooooooooooooooooooooooooooooooooooooooooooooooooooooooooooooooo",
"oooooooooooooooooooooooooooooooooooooooooooooooooooooooooooooooooooooooooooooooo",
"oooooooooooooooooooooooooooooooooooooooooooooooooooooooooooooooooooooooooooooooo",
"oooooooooooooooooooooooooooooooooooooooooooooooooooooooooooooooooooooooooooooooo",
"oooooooooooooooooooooooooooooooooooooooooooooooooooooooooooooooooooooooooooooooo",
"oooooooooooooooooooooooooooooooooooooooooooooooooooooooooooooooooooooooooooooooo",
"oooooooooooooooooooooooooooooooooooooooooooooooooooooooooooooooooooooooooooooooo",
"oooooooooooooooooooooooooooooooooooooooooooooooooooooooooooooooooooooooooooooooo",
"oooooooooooooooooooooooooooooooooooooooooooooooooooooooooooooooooooooooooooooooo",
"oooooooooooooooooooooooooooooooooooooooooooooooooooooooooooooooooooooooooooooooo",
"oooooooooooooooooooooooooooooooooooooooooooooooooooooooooooooooooooooooooooooooo",
"oooooooooooooooooooooooooooooooooooooooooooooooooooooooooooooooooooooooooooooooo",
"oooooooooooooooooooooooooooooooooooooooooooooooooooooooooooooooooooooooooooooooo",
"oooooooooooooooooooooooooooooooooooooooooooooooooooooooooooooooooooooooooooooooo",
"oooooooooooooooooooooooooooooooooooooooooooooooooooooooooooooooooooooooooooooooo",
"oooooooooooooooooooooooooooooooooooooooooooooooooooooooooooooooooooooooooooooooo",
"oooooooooooooooooooooooooooooooooooooooooooooooooooooooooooooooooooooooooooooooo"
};
