/* XPM */
static char *_2068_5bf1ebb5e25bb8c193525b18528fc75308c283b4f0942db9f213e2bd0e14a67d[] = {
/* columns rows colors chars-per-pixel */
"80 80 4 1 ",
"  c #0B0B3B",
". c #F8AD08",
"X c #F8D808",
"o c None",
/* pixels */
"oooooooooooooooooooooooooooooooooooooooooooooooooooooooooooooooooooooooooooooooo",
"oooooooooooooooooooooooooooooooooooooooooooooooooooooooooooooooooooooooooooooooo",
"oooooooooooooooooooooooooooooooooooooooooooooooooooooooooooooooooooooooooooooooo",
"oooooooooooooooooooooooooooooooooooooooooooooooooooooooooooooooooooooooooooooooo",
"oooooooooooooooooooooooooooooooooooooooooooooooooooooooooooooooooooooooooooooooo",
"oooooooooooooooooooooooooooooooooooooooooooooooooooooooooooooooooooooooooooooooo",
"oooooooooooooooooooooooooooooooooooooooooooooooooooooooooooooooooooooooooooooooo",
"oooooooooooooooooooooooooooooooooooooooooooooooooooooooooooooooooooooooooooooooo",
"oooooooooooooooooooooooooooooooooooooooooooooooooooooooooooooooooooooooooooooooo",
"oooooooooooooooooooooooooooooooooooooooooooooooooooooooooooooooooooooooooooooooo",
"oooooooooooooooooooooooooooooooooooooooooooooooooooooooooooooooooooooooooooooooo",
"oooooooooooooooooooooooooooooooooooooooooooooooooooooooooooooooooooooooooooooooo",
"oooooooooooooooooooooooooooooooooooooooooooooooooooooooooooooooooooooooooooooooo",
"oooooooooooooooooooooooooooooooooooooooooooooooooooooooooooooooooooooooooooooooo",
"oooooooooooooooooooooooooooooooooooooooooooooooooooooooooooooooooooooooooooooooo",
"oooooooooooooooooooooooooooooooooooooooooooooooooooooooooooooooooooooooooooooooo",
"oooooooooooooooooooooooooooooooooooooooooooooooooooooooooooooooooooooooooooooooo",
"oooooooooooooooooooooooooooooooooooooooooooooooooooooooooooooooooooooooooooooooo",
"oooooooooooooooooooooooooooooooooooooooooooooooooooooooooooooooooooooooooooooooo",
"oooooooooooooooooooooooooooooooooooooooooooooooooooooooooooooooooooooooooooooooo",
"oooooooooooooooooooooooooooooooooooooooooooooooooooooooooooooooooooooooooooooooo",
"oooooooooooooooooooooooooooooooooooooooooooooooooooooooooooooooooooooooooooooooo",
"oooooooooooooooooooooooooooooooooooooooooooooooooooooooooooooooooooooooooooooooo",
"ooooooooooooooooooooooooooooooooooooo    ooooooooooooooooooooooooooooooooooooooo",
"ooooooooooooooooooooooooooooooooooooo    ooooooooooooooooooooooooooooooooooooooo",
"ooooooooooooooooooooooooooooooooooo      ooooooooooooooooooooooooooooooooooooooo",
"ooooooooooooooooooooooooooooooooooo      ooooooooooooooooooooooooooooooooooooooo",
"ooooooooooooooooooooooooooooooooo  XXXX  ooooooooooooooooooooooooooooooooooooooo",
"ooooooooooooooooooooooooooooooooo  XXXX  ooooooooooooooooooooooooooooooooooooooo",
"ooooooooooooooooooooooooooooooooo  XXXX  ooooooooooooooooooooooooooooooooooooooo",
"ooooooooooooooooooooooooooooooooo  XXXX  ooooooooooooooooooooooooooooooooooooooo",
"ooooooooooooooooooooooooooooooo  XXXXXX  ooooooooooooooooooooooooooooooooooooooo",
"ooooooooooooooooooooooooooooooo  XXXXXX  ooooooooooooooooooooooooooooooooooooooo",
"ooooooooooooooooooooooooooooooo  XXXXXX  ooooooooooooooooooooooooooooooooooooooo",
"ooooooooooooooooooooooooooooooo  XXXXXX  ooooooooooooooooooooooooooooooooooooooo",
"ooooooooooooooooooooooooooooooo  XXXXXXXX  ooooooooooooooooooooooooooooooooooooo",
"ooooooooooooooooooooooooooooooo  XXXXXXXX  ooooooooooooooooooooooooooooooooooooo",
"ooooooooooooooooooooooooooooooo  XXXXXXXX  ooooooooooooooooooooooooooooooooooooo",
"ooooooooooooooooooooooooooooooo  XXXXXXXX  ooooooooooooooooooooooooooooooooooooo",
"ooooooooooooooooooooooooooooooo  XXXXXXXXXX  ooooooooooooooooooooooooooooooooooo",
"ooooooooooooooooooooooooooooooo  XXXXXXXXXX  ooooooooooooooooooooooooooooooooooo",
"ooooooooooooooooooooooooooooooo  XXXXXXXXXX  ooooooooooooooooooooooooooooooooooo",
"ooooooooooooooooooooooooooooooo  XXXXXXXXXX  ooooooooooooooooooooooooooooooooooo",
"ooooooooooooooooooooooooooooooo  XXXXXXXXXX..  ooooooooooooooooooooooooooooooooo",
"ooooooooooooooooooooooooooooooo  XXXXXXXXXX..  ooooooooooooooooooooooooooooooooo",
"ooooooooooooooooooooooooooooooooo  ..XXXX..XX..  ooooooooooooooooooooooooooooooo",
"ooooooooooooooooooooooooooooooooo  ..XXXX..XX..  ooooooooooooooooooooooooooooooo",
"ooooooooooooooooooooooooooooooooo  ......XX......  ooooooooooooooooooooooooooooo",
"ooooooooooooooooooooooooooooooooo  ......XX......  ooooooooooooooooooooooooooooo",
"ooooooooooooooooooooooooooooooooooo  XXXX........  ooooooooooooooooooooooooooooo",
"ooooooooooooooooooooooooooooooooooo  XXXX........  ooooooooooooooooooooooooooooo",
"ooooooooooooooooooooooooooooooooooooo    ......    ooooooooooooooooooooooooooooo",
"ooooooooooooooooooooooooooooooooooooo    ......    ooooooooooooooooooooooooooooo",
"ooooooooooooooooooooooooooooooooooooooooo        ooooooooooooooooooooooooooooooo",
"ooooooooooooooooooooooooooooooooooooooooo        ooooooooooooooooooooooooooooooo",
"oooooooooooooooooooooooooooooooooooooooooooooooooooooooooooooooooooooooooooooooo",
"oooooooooooooooooooooooooooooooooooooooooooooooooooooooooooooooooooooooooooooooo",
"oooooooooooooooooooooooooooooooooooooooooooooooooooooooooooooooooooooooooooooooo",
"oooooooooooooooooooooooooooooooooooooooooooooooooooooooooooooooooooooooooooooooo",
"oooooooooooooooooooooooooooooooooooooooooooooooooooooooooooooooooooooooooooooooo",
"oooooooooooooooooooooooooooooooooooooooooooooooooooooooooooooooooooooooooooooooo",
"oooooooooooooooooooooooooooooooooooooooooooooooooooooooooooooooooooooooooooooooo",
"oooooooooooooooooooooooooooooooooooooooooooooooooooooooooooooooooooooooooooooooo",
"oooooooooooooooooooooooooooooooooooooooooooooooooooooooooooooooooooooooooooooooo",
"oooooooooooooooooooooooooooooooooooooooooooooooooooooooooooooooooooooooooooooooo",
"oooooooooooooooooooooooooooooooooooooooooooooooooooooooooooooooooooooooooooooooo",
"oooooooooooooooooooooooooooooooooooooooooooooooooooooooooooooooooooooooooooooooo",
"oooooooooooooooooooooooooooooooooooooooooooooooooooooooooooooooooooooooooooooooo",
"oooooooooooooooooooooooooooooooooooooooooooooooooooooooooooooooooooooooooooooooo",
"oooooooooooooooooooooooooooooooooooooooooooooooooooooooooooooooooooooooooooooooo",
"oooooooooooooooooooooooooooooooooooooooooooooooooooooooooooooooooooooooooooooooo",
"oooooooooooooooooooooooooooooooooooooooooooooooooooooooooooooooooooooooooooooooo",
"oooooooooooooooooooooooooooooooooooooooooooooooooooooooooooooooooooooooooooooooo",
"oooooooooooooooooooooooooooooooooooooooooooooooooooooooooooooooooooooooooooooooo",
"oooooooooooooooooooooooooooooooooooooooooooooooooooooooooooooooooooooooooooooooo",
"oooooooooooooooooooooooooooooooooooooooooooooooooooooooooooooooooooooooooooooooo",
"oooooooooooooooooooooooooooooooooooooooooooooooooooooooooooooooooooooooooooooooo",
"oooooooooooooooooooooooooooooooooooooooooooooooooooooooooooooooooooooooooooooooo",
"oooooooooooooooooooooooooooooooooooooooooooooooooooooooooooooooooooooooooooooooo",
"oooooooooooooooooooooooooooooooooooooooooooooooooooooooooooooooooooooooooooooooo"
};
