/* XPM */
static char *_6636_ac0764c3e57b3ddd37b2cb184dd64a62be40342fe0b4c3a205077f74f796f721[] = {
/* columns rows colors chars-per-pixel */
"80 80 4 1 ",
"  c #0B0B3B",
". c #F8AD08",
"X c #F8D808",
"o c None",
/* pixels */
"oooooooooooooooooooooooooooooooooooooooooooooooooooooooooooooooooooooooooooooooo",
"oooooooooooooooooooooooooooooooooooooooooooooooooooooooooooooooooooooooooooooooo",
"oooooooooooooooooooooooooooooooooooooooooooooooooooooooooooooooooooooooooooooooo",
"oooooooooooooooooooooooooooooooooooooooooooooooooooooooooooooooooooooooooooooooo",
"oooooooooooooooooooooooooooooooooooooooooooooooooooooooooooooooooooooooooooooooo",
"oooooooooooooooooooooooooooooooooooooooooooooooooooooooooooooooooooooooooooooooo",
"oooooooooooooooooooooooooooooooooooooooooooooooooooooooooooooooooooooooooooooooo",
"oooooooooooooooooooooooooooooooooooooooooooooooooooooooooooooooooooooooooooooooo",
"oooooooooooooooooooooooooooooooooooooooooooooooooooooooooooooooooooooooooooooooo",
"oooooooooooooooooooooooooooooooooooooooooooooooooooooooooooooooooooooooooooooooo",
"oooooooooooooooooooooooooooooooooooooooooooooooooooooooooooooooooooooooooooooooo",
"oooooooooooooooooooooooooooooooooooooooooooooooooooooooooooooooooooooooooooooooo",
"oooooooooooooooooooooooooooooooooooooooooooooooooooooooooooooooooooooooooooooooo",
"oooooooooooooooooooooooooooooooooooooooooooooooooooooooooooooooooooooooooooooooo",
"oooooooooooooooooooooooooooooooooooooooooooooooooooooooooooooooooooooooooooooooo",
"oooooooooooooooooooooooooooooooooooooooooooooooooooooooooooooooooooooooooooooooo",
"oooooooooooooooooooooooooooooooooooooooooooooooooooooooooooooooooooooooooooooooo",
"oooooooooooooooooooooooooooooooooooooooooooooooooooooooooooooooooooooooooooooooo",
"oooooooooooooooooooooooooooooooooooooooooooooooooooooooooooooooooooooooooooooooo",
"oooooooooooooooooooooooooooooooooooooooooooooooooooooooooooooooooooooooooooooooo",
"oooooooooooooooooooooooooooooooooooooooooooooooooooooooooooooooooooooooooooooooo",
"oooooooooooooooooooooooooooooooooooooooooooooooooooooooooooooooooooooooooooooooo",
"oooooooooooooooooooooooooooooooooooooooooooooooooooooooooooooooooooooooooooooooo",
"ooooooooooooooooooooooooooooooooooooo    ooooooooooooooooooooooooooooooooooooooo",
"ooooooooooooooooooooooooooooooooooooo    ooooooooooooooooooooooooooooooooooooooo",
"ooooooooooooooooooooooooooooooooooo      ooooooooooooooooooooooooooooooooooooooo",
"ooooooooooooooooooooooooooooooooooo      ooooooooooooooooooooooooooooooooooooooo",
"ooooooooooooooooooooooooooooooooooo  XX  ooooooooooooooooooooooooooooooooooooooo",
"ooooooooooooooooooooooooooooooooooo  XX  ooooooooooooooooooooooooooooooooooooooo",
"ooooooooooooooooooooooooooooooooo  XXXX  ooooooooooooooooooooooooooooooooooooooo",
"ooooooooooooooooooooooooooooooooo  XXXX  ooooooooooooooooooooooooooooooooooooooo",
"ooooooooooooooooooooooooooooooooo  XXXXXX  ooooooooooooooooooooooooooooooooooooo",
"ooooooooooooooooooooooooooooooooo  XXXXXX  ooooooooooooooooooooooooooooooooooooo",
"ooooooooooooooooooooooooooooooo  XXXXXXXX  ooooooooooooooooooooooooooooooooooooo",
"ooooooooooooooooooooooooooooooo  XXXXXXXX  ooooooooooooooooooooooooooooooooooooo",
"ooooooooooooooooooooooooooooooo  XXXXXXXX  ooooooooooooooooooooooooooooooooooooo",
"ooooooooooooooooooooooooooooooo  XXXXXXXX  ooooooooooooooooooooooooooooooooooooo",
"ooooooooooooooooooooooooooooooo  XXXXXXXXXX  ooooooooooooooooooooooooooooooooooo",
"ooooooooooooooooooooooooooooooo  XXXXXXXXXX  ooooooooooooooooooooooooooooooooooo",
"ooooooooooooooooooooooooooooooo  XXXXXXXXXX  ooooooooooooooooooooooooooooooooooo",
"ooooooooooooooooooooooooooooooo  XXXXXXXXXX  ooooooooooooooooooooooooooooooooooo",
"ooooooooooooooooooooooooooooooo  XXXXXXXXXX..  ooooooooooooooooooooooooooooooooo",
"ooooooooooooooooooooooooooooooo  XXXXXXXXXX..  ooooooooooooooooooooooooooooooooo",
"ooooooooooooooooooooooooooooooo  XXXXXXXX....  ooooooooooooooooooooooooooooooooo",
"ooooooooooooooooooooooooooooooo  XXXXXXXX....  ooooooooooooooooooooooooooooooooo",
"ooooooooooooooooooooooooooooooo    ..XX..XXXX..    ooooooooooooooooooooooooooooo",
"ooooooooooooooooooooooooooooooo    ..XX..XXXX..    ooooooooooooooooooooooooooooo",
"ooooooooooooooooooooooooooooooooo  ....XXXX........    ooooooooooooooooooooooooo",
"ooooooooooooooooooooooooooooooooo  ....XXXX........    ooooooooooooooooooooooooo",
"ooooooooooooooooooooooooooooooooooo  XXXX............  ooooooooooooooooooooooooo",
"ooooooooooooooooooooooooooooooooooo  XXXX............  ooooooooooooooooooooooooo",
"ooooooooooooooooooooooooooooooooooooo  ............  ooooooooooooooooooooooooooo",
"ooooooooooooooooooooooooooooooooooooo  ............  ooooooooooooooooooooooooooo",
"ooooooooooooooooooooooooooooooooooooooo            ooooooooooooooooooooooooooooo",
"ooooooooooooooooooooooooooooooooooooooo            ooooooooooooooooooooooooooooo",
"oooooooooooooooooooooooooooooooooooooooooooooooooooooooooooooooooooooooooooooooo",
"oooooooooooooooooooooooooooooooooooooooooooooooooooooooooooooooooooooooooooooooo",
"oooooooooooooooooooooooooooooooooooooooooooooooooooooooooooooooooooooooooooooooo",
"oooooooooooooooooooooooooooooooooooooooooooooooooooooooooooooooooooooooooooooooo",
"oooooooooooooooooooooooooooooooooooooooooooooooooooooooooooooooooooooooooooooooo",
"oooooooooooooooooooooooooooooooooooooooooooooooooooooooooooooooooooooooooooooooo",
"oooooooooooooooooooooooooooooooooooooooooooooooooooooooooooooooooooooooooooooooo",
"oooooooooooooooooooooooooooooooooooooooooooooooooooooooooooooooooooooooooooooooo",
"oooooooooooooooooooooooooooooooooooooooooooooooooooooooooooooooooooooooooooooooo",
"oooooooooooooooooooooooooooooooooooooooooooooooooooooooooooooooooooooooooooooooo",
"oooooooooooooooooooooooooooooooooooooooooooooooooooooooooooooooooooooooooooooooo",
"oooooooooooooooooooooooooooooooooooooooooooooooooooooooooooooooooooooooooooooooo",
"oooooooooooooooooooooooooooooooooooooooooooooooooooooooooooooooooooooooooooooooo",
"oooooooooooooooooooooooooooooooooooooooooooooooooooooooooooooooooooooooooooooooo",
"oooooooooooooooooooooooooooooooooooooooooooooooooooooooooooooooooooooooooooooooo",
"oooooooooooooooooooooooooooooooooooooooooooooooooooooooooooooooooooooooooooooooo",
"oooooooooooooooooooooooooooooooooooooooooooooooooooooooooooooooooooooooooooooooo",
"oooooooooooooooooooooooooooooooooooooooooooooooooooooooooooooooooooooooooooooooo",
"oooooooooooooooooooooooooooooooooooooooooooooooooooooooooooooooooooooooooooooooo",
"oooooooooooooooooooooooooooooooooooooooooooooooooooooooooooooooooooooooooooooooo",
"oooooooooooooooooooooooooooooooooooooooooooooooooooooooooooooooooooooooooooooooo",
"oooooooooooooooooooooooooooooooooooooooooooooooooooooooooooooooooooooooooooooooo",
"oooooooooooooooooooooooooooooooooooooooooooooooooooooooooooooooooooooooooooooooo",
"oooooooooooooooooooooooooooooooooooooooooooooooooooooooooooooooooooooooooooooooo",
"oooooooooooooooooooooooooooooooooooooooooooooooooooooooooooooooooooooooooooooooo"
};
