/* XPM */
static char *_202_4fc10e984320349792a784fb9dd24ec3755af260c0739ec9c5d9436737fca282[] = {
/* columns rows colors chars-per-pixel */
"80 80 4 1 ",
"  c #03033A",
". c #FFAF00",
"X c #FFD900",
"o c None",
/* pixels */
"oooooooooooooooooooooooooooooooooooooooooooooooooooooooooooooooooooooooooooooooo",
"oooooooooooooooooooooooooooooooooooooooooooooooooooooooooooooooooooooooooooooooo",
"oooooooooooooooooooooooooooooooooooooooooooooooooooooooooooooooooooooooooooooooo",
"oooooooooooooooooooooooooooooooooooooooooooooooooooooooooooooooooooooooooooooooo",
"oooooooooooooooooooooooooooooooooooooooooooooooooooooooooooooooooooooooooooooooo",
"oooooooooooooooooooooooooooooooooooooooooooooooooooooooooooooooooooooooooooooooo",
"oooooooooooooooooooooooooooooooooooooooooooooooooooooooooooooooooooooooooooooooo",
"oooooooooooooooooooooooooooooooooooooooooooooooooooooooooooooooooooooooooooooooo",
"oooooooooooooooooooooooooooooooooooooooooooooooooooooooooooooooooooooooooooooooo",
"oooooooooooooooooooooooooooooooooooooooooooooooooooooooooooooooooooooooooooooooo",
"oooooooooooooooooooooooooooooooooooooooooooooooooooooooooooooooooooooooooooooooo",
"oooooooooooooooooooooooooooooooooooooooooooooooooooooooooooooooooooooooooooooooo",
"oooooooooooooooooooooooooooooooooooooooooooooooooooooooooooooooooooooooooooooooo",
"oooooooooooooooooooooooooooooooooooooooooooooooooooooooooooooooooooooooooooooooo",
"oooooooooooooooooooooooooooooooooooooooooooooooooooooooooooooooooooooooooooooooo",
"oooooooooooooooooooooooooooooooooooooooooooooooooooooooooooooooooooooooooooooooo",
"oooooooooooooooooooooooooooooooooooooooooooooooooooooooooooooooooooooooooooooooo",
"oooooooooooooooooooooooooooooooooooooooooooooooooooooooooooooooooooooooooooooooo",
"oooooooooooooooooooooooooooooooooooooooooooooooooooooooooooooooooooooooooooooooo",
"oooooooooooooooooooooooooooooooooooooooooooooooooooooooooooooooooooooooooooooooo",
"oooooooooooooooooooooooooooooooooooooooooooooooooooooooooooooooooooooooooooooooo",
"oooooooooooooooooooooooooooooooooooooooooooooooooooooooooooooooooooooooooooooooo",
"oooooooooooooooooooooooooooooooooooooooooooooooooooooooooooooooooooooooooooooooo",
"ooooooooooooooooooooooooooooooooooooo    ooooooooooooooooooooooooooooooooooooooo",
"ooooooooooooooooooooooooooooooooooooo    ooooooooooooooooooooooooooooooooooooooo",
"ooooooooooooooooooooooooooooooooooo      ooooooooooooooooooooooooooooooooooooooo",
"ooooooooooooooooooooooooooooooooooo      ooooooooooooooooooooooooooooooooooooooo",
"ooooooooooooooooooooooooooooooooooo  XX  ooooooooooooooooooooooooooooooooooooooo",
"ooooooooooooooooooooooooooooooooooo  XX  ooooooooooooooooooooooooooooooooooooooo",
"ooooooooooooooooooooooooooooooooo  XXXX  ooooooooooooooooooooooooooooooooooooooo",
"ooooooooooooooooooooooooooooooooo  XXXX  ooooooooooooooooooooooooooooooooooooooo",
"ooooooooooooooooooooooooooooooooo  XXXXXX  ooooooooooooooooooooooooooooooooooooo",
"ooooooooooooooooooooooooooooooooo  XXXXXX  ooooooooooooooooooooooooooooooooooooo",
"ooooooooooooooooooooooooooooooo  XXXXXXXX  ooooooooooooooooooooooooooooooooooooo",
"ooooooooooooooooooooooooooooooo  XXXXXXXX  ooooooooooooooooooooooooooooooooooooo",
"ooooooooooooooooooooooooooooooo  XXXXXXXX  ooooooooooooooooooooooooooooooooooooo",
"ooooooooooooooooooooooooooooooo  XXXXXXXX  ooooooooooooooooooooooooooooooooooooo",
"ooooooooooooooooooooooooooooooo  XXXXXXXXXX  ooooooooooooooooooooooooooooooooooo",
"ooooooooooooooooooooooooooooooo  XXXXXXXXXX  ooooooooooooooooooooooooooooooooooo",
"ooooooooooooooooooooooooooooooo  XXXXXXXXXX  ooooooooooooooooooooooooooooooooooo",
"ooooooooooooooooooooooooooooooo  XXXXXXXXXX  ooooooooooooooooooooooooooooooooooo",
"ooooooooooooooooooooooooooooooo  XXXXXXXXXXXX  ooooooooooooooooooooooooooooooooo",
"ooooooooooooooooooooooooooooooo  XXXXXXXXXXXX  ooooooooooooooooooooooooooooooooo",
"ooooooooooooooooooooooooooooooo  XXXXXXXXXXXX  ooooooooooooooooooooooooooooooooo",
"ooooooooooooooooooooooooooooooo  XXXXXXXXXXXX  ooooooooooooooooooooooooooooooooo",
"ooooooooooooooooooooooooooooooo    XXXXXXXXXXXX    ooooooooooooooooooooooooooooo",
"ooooooooooooooooooooooooooooooo    XXXXXXXXXXXX    ooooooooooooooooooooooooooooo",
"ooooooooooooooooooooooooooooooooo  XXXXXXXXXXXX....    ooooooooooooooooooooooooo",
"ooooooooooooooooooooooooooooooooo  XXXXXXXXXXX.....    ooooooooooooooooooooooooo",
"ooooooooooooooooooooooooooooooooooo  XXXXXXX.........  ooooooooooooooooooooooooo",
"ooooooooooooooooooooooooooooooooooo  XXXXXXX.........  ooooooooooooooooooooooooo",
"ooooooooooooooooooooooooooooooooooooo  XXX.........  ooooooooooooooooooooooooooo",
"ooooooooooooooooooooooooooooooooooooo  ............  ooooooooooooooooooooooooooo",
"ooooooooooooooooooooooooooooooooooooooo            ooooooooooooooooooooooooooooo",
"ooooooooooooooooooooooooooooooooooooooo            ooooooooooooooooooooooooooooo",
"oooooooooooooooooooooooooooooooooooooooooooooooooooooooooooooooooooooooooooooooo",
"oooooooooooooooooooooooooooooooooooooooooooooooooooooooooooooooooooooooooooooooo",
"oooooooooooooooooooooooooooooooooooooooooooooooooooooooooooooooooooooooooooooooo",
"oooooooooooooooooooooooooooooooooooooooooooooooooooooooooooooooooooooooooooooooo",
"oooooooooooooooooooooooooooooooooooooooooooooooooooooooooooooooooooooooooooooooo",
"oooooooooooooooooooooooooooooooooooooooooooooooooooooooooooooooooooooooooooooooo",
"oooooooooooooooooooooooooooooooooooooooooooooooooooooooooooooooooooooooooooooooo",
"oooooooooooooooooooooooooooooooooooooooooooooooooooooooooooooooooooooooooooooooo",
"oooooooooooooooooooooooooooooooooooooooooooooooooooooooooooooooooooooooooooooooo",
"oooooooooooooooooooooooooooooooooooooooooooooooooooooooooooooooooooooooooooooooo",
"oooooooooooooooooooooooooooooooooooooooooooooooooooooooooooooooooooooooooooooooo",
"oooooooooooooooooooooooooooooooooooooooooooooooooooooooooooooooooooooooooooooooo",
"oooooooooooooooooooooooooooooooooooooooooooooooooooooooooooooooooooooooooooooooo",
"oooooooooooooooooooooooooooooooooooooooooooooooooooooooooooooooooooooooooooooooo",
"oooooooooooooooooooooooooooooooooooooooooooooooooooooooooooooooooooooooooooooooo",
"oooooooooooooooooooooooooooooooooooooooooooooooooooooooooooooooooooooooooooooooo",
"oooooooooooooooooooooooooooooooooooooooooooooooooooooooooooooooooooooooooooooooo",
"oooooooooooooooooooooooooooooooooooooooooooooooooooooooooooooooooooooooooooooooo",
"oooooooooooooooooooooooooooooooooooooooooooooooooooooooooooooooooooooooooooooooo",
"oooooooooooooooooooooooooooooooooooooooooooooooooooooooooooooooooooooooooooooooo",
"oooooooooooooooooooooooooooooooooooooooooooooooooooooooooooooooooooooooooooooooo",
"oooooooooooooooooooooooooooooooooooooooooooooooooooooooooooooooooooooooooooooooo",
"oooooooooooooooooooooooooooooooooooooooooooooooooooooooooooooooooooooooooooooooo",
"oooooooooooooooooooooooooooooooooooooooooooooooooooooooooooooooooooooooooooooooo",
"oooooooooooooooooooooooooooooooooooooooooooooooooooooooooooooooooooooooooooooooo"
};
