/* XPM */
static char *_0411_b582a41031d80b860e31707339ba910fc0f9c2d9a4fb4984b9a854bd9d98240a[] = {
/* columns rows colors chars-per-pixel */
"80 80 4 1 ",
"  c #03033A",
". c #FFAF00",
"X c #FFD900",
"o c None",
/* pixels */
"oooooooooooooooooooooooooooooooooooooooooooooooooooooooooooooooooooooooooooooooo",
"oooooooooooooooooooooooooooooooooooooooooooooooooooooooooooooooooooooooooooooooo",
"oooooooooooooooooooooooooooooooooooooooooooooooooooooooooooooooooooooooooooooooo",
"oooooooooooooooooooooooooooooooooooooooooooooooooooooooooooooooooooooooooooooooo",
"oooooooooooooooooooooooooooooooooooooooooooooooooooooooooooooooooooooooooooooooo",
"oooooooooooooooooooooooooooooooooooooooooooooooooooooooooooooooooooooooooooooooo",
"oooooooooooooooooooooooooooooooooooooooooooooooooooooooooooooooooooooooooooooooo",
"oooooooooooooooooooooooooooooooooooooooooooooooooooooooooooooooooooooooooooooooo",
"oooooooooooooooooooooooooooooooooooooooooooooooooooooooooooooooooooooooooooooooo",
"oooooooooooooooooooooooooooooooooooooooooooooooooooooooooooooooooooooooooooooooo",
"oooooooooooooooooooooooooooooooooooooooooooooooooooooooooooooooooooooooooooooooo",
"oooooooooooooooooooooooooooooooooooooooooooooooooooooooooooooooooooooooooooooooo",
"oooooooooooooooooooooooooooooooooooooooooooooooooooooooooooooooooooooooooooooooo",
"oooooooooooooooooooooooooooooooooooooooooooooooooooooooooooooooooooooooooooooooo",
"oooooooooooooooooooooooooooooooooooooooooooooooooooooooooooooooooooooooooooooooo",
"oooooooooooooooooooooooooooooooooooooooooooooooooooooooooooooooooooooooooooooooo",
"oooooooooooooooooooooooooooooooooooooooooooooooooooooooooooooooooooooooooooooooo",
"oooooooooooooooooooooooooooooooooooooooooooooooooooooooooooooooooooooooooooooooo",
"oooooooooooooooooooooooooooooooooooooooooooooooooooooooooooooooooooooooooooooooo",
"oooooooooooooooooooooooooooooooooooooooooooooooooooooooooooooooooooooooooooooooo",
"oooooooooooooooooooooooooooooooooooooooooooooooooooooooooooooooooooooooooooooooo",
"oooooooooooooooooooooooooooooooooooooooooooooooooooooooooooooooooooooooooooooooo",
"oooooooooooooooooooooooooooooooooooooooooooooooooooooooooooooooooooooooooooooooo",
"oooooooooooooooooooooooooooooooooooooooooo    oooooooooooooooooooooooooooooooooo",
"oooooooooooooooooooooooooooooooooooooooooo    oooooooooooooooooooooooooooooooooo",
"oooooooooooooooooooooooooooooooooooooooooo      oooooooooooooooooooooooooooooooo",
"oooooooooooooooooooooooooooooooooooooooooo      oooooooooooooooooooooooooooooooo",
"oooooooooooooooooooooooooooooooooooooooooo  XX  oooooooooooooooooooooooooooooooo",
"oooooooooooooooooooooooooooooooooooooooooo  XX  oooooooooooooooooooooooooooooooo",
"oooooooooooooooooooooooooooooooooooooooooo  XXXX  oooooooooooooooooooooooooooooo",
"oooooooooooooooooooooooooooooooooooooooooo  XXXX  oooooooooooooooooooooooooooooo",
"oooooooooooooooooooooooooooooooooooooooo  XXXXXX  oooooooooooooooooooooooooooooo",
"oooooooooooooooooooooooooooooooooooooooo  XXXXXX  oooooooooooooooooooooooooooooo",
"oooooooooooooooooooooooooooooooooooooooo  XXXXXXXX  oooooooooooooooooooooooooooo",
"oooooooooooooooooooooooooooooooooooooooo  XXXXXXXX  oooooooooooooooooooooooooooo",
"oooooooooooooooooooooooooooooooooooooooo  XXXXXXXX  oooooooooooooooooooooooooooo",
"oooooooooooooooooooooooooooooooooooooooo  XXXXXXXX  oooooooooooooooooooooooooooo",
"oooooooooooooooooooooooooooooooooooooo  XXXXXXXXXX  oooooooooooooooooooooooooooo",
"oooooooooooooooooooooooooooooooooooooo  XXXXXXXXXX  oooooooooooooooooooooooooooo",
"oooooooooooooooooooooooooooooooooooooo  XXXXXXXXXX  oooooooooooooooooooooooooooo",
"oooooooooooooooooooooooooooooooooooooo  XXXXXXXXXX  oooooooooooooooooooooooooooo",
"oooooooooooooooooooooooooooooooooooo  XXXXXXXXXXXX  oooooooooooooooooooooooooooo",
"oooooooooooooooooooooooooooooooooooo  XXXXXXXXXXXX  oooooooooooooooooooooooooooo",
"oooooooooooooooooooooooooooooooooooo  XXXXXXXXXXXX  oooooooooooooooooooooooooooo",
"oooooooooooooooooooooooooooooooooooo  XXXXXXXXXXXX  oooooooooooooooooooooooooooo",
"oooooooooooooooooooooooooooooooo    XXXXXXXXXXXX    oooooooooooooooooooooooooooo",
"oooooooooooooooooooooooooooooooo    .XXXXXXXXXXX    oooooooooooooooooooooooooooo",
"oooooooooooooooooooooooooooo    .....XXXXXXXXXXX  oooooooooooooooooooooooooooooo",
"oooooooooooooooooooooooooooo    .....XXXXXXXXXXX  oooooooooooooooooooooooooooooo",
"oooooooooooooooooooooooooooo  .........XXXXXXX  oooooooooooooooooooooooooooooooo",
"oooooooooooooooooooooooooooo  .........XXXXXXX  oooooooooooooooooooooooooooooooo",
"oooooooooooooooooooooooooooooo  ............  oooooooooooooooooooooooooooooooooo",
"oooooooooooooooooooooooooooooo  ............  oooooooooooooooooooooooooooooooooo",
"oooooooooooooooooooooooooooooooo            oooooooooooooooooooooooooooooooooooo",
"oooooooooooooooooooooooooooooooo            oooooooooooooooooooooooooooooooooooo",
"oooooooooooooooooooooooooooooooooooooooooooooooooooooooooooooooooooooooooooooooo",
"oooooooooooooooooooooooooooooooooooooooooooooooooooooooooooooooooooooooooooooooo",
"oooooooooooooooooooooooooooooooooooooooooooooooooooooooooooooooooooooooooooooooo",
"oooooooooooooooooooooooooooooooooooooooooooooooooooooooooooooooooooooooooooooooo",
"oooooooooooooooooooooooooooooooooooooooooooooooooooooooooooooooooooooooooooooooo",
"oooooooooooooooooooooooooooooooooooooooooooooooooooooooooooooooooooooooooooooooo",
"oooooooooooooooooooooooooooooooooooooooooooooooooooooooooooooooooooooooooooooooo",
"oooooooooooooooooooooooooooooooooooooooooooooooooooooooooooooooooooooooooooooooo",
"oooooooooooooooooooooooooooooooooooooooooooooooooooooooooooooooooooooooooooooooo",
"oooooooooooooooooooooooooooooooooooooooooooooooooooooooooooooooooooooooooooooooo",
"oooooooooooooooooooooooooooooooooooooooooooooooooooooooooooooooooooooooooooooooo",
"oooooooooooooooooooooooooooooooooooooooooooooooooooooooooooooooooooooooooooooooo",
"oooooooooooooooooooooooooooooooooooooooooooooooooooooooooooooooooooooooooooooooo",
"oooooooooooooooooooooooooooooooooooooooooooooooooooooooooooooooooooooooooooooooo",
"oooooooooooooooooooooooooooooooooooooooooooooooooooooooooooooooooooooooooooooooo",
"oooooooooooooooooooooooooooooooooooooooooooooooooooooooooooooooooooooooooooooooo",
"oooooooooooooooooooooooooooooooooooooooooooooooooooooooooooooooooooooooooooooooo",
"oooooooooooooooooooooooooooooooooooooooooooooooooooooooooooooooooooooooooooooooo",
"oooooooooooooooooooooooooooooooooooooooooooooooooooooooooooooooooooooooooooooooo",
"oooooooooooooooooooooooooooooooooooooooooooooooooooooooooooooooooooooooooooooooo",
"oooooooooooooooooooooooooooooooooooooooooooooooooooooooooooooooooooooooooooooooo",
"oooooooooooooooooooooooooooooooooooooooooooooooooooooooooooooooooooooooooooooooo",
"oooooooooooooooooooooooooooooooooooooooooooooooooooooooooooooooooooooooooooooooo",
"oooooooooooooooooooooooooooooooooooooooooooooooooooooooooooooooooooooooooooooooo",
"oooooooooooooooooooooooooooooooooooooooooooooooooooooooooooooooooooooooooooooooo"
};
