/* XPM */
static char *_269_df52b0bfec2a674a626177f64036d991c86b7ff4add0adde5bcdadc0447fb18c[] = {
/* columns rows colors chars-per-pixel */
"80 80 4 1 ",
"  c #0B0B3B",
". c #F8AD08",
"X c #F8D808",
"o c None",
/* pixels */
"oooooooooooooooooooooooooooooooooooooooooooooooooooooooooooooooooooooooooooooooo",
"oooooooooooooooooooooooooooooooooooooooooooooooooooooooooooooooooooooooooooooooo",
"oooooooooooooooooooooooooooooooooooooooooooooooooooooooooooooooooooooooooooooooo",
"oooooooooooooooooooooooooooooooooooooooooooooooooooooooooooooooooooooooooooooooo",
"oooooooooooooooooooooooooooooooooooooooooooooooooooooooooooooooooooooooooooooooo",
"oooooooooooooooooooooooooooooooooooooooooooooooooooooooooooooooooooooooooooooooo",
"oooooooooooooooooooooooooooooooooooooooooooooooooooooooooooooooooooooooooooooooo",
"oooooooooooooooooooooooooooooooooooooooooooooooooooooooooooooooooooooooooooooooo",
"oooooooooooooooooooooooooooooooooooooooooooooooooooooooooooooooooooooooooooooooo",
"oooooooooooooooooooooooooooooooooooooooooooooooooooooooooooooooooooooooooooooooo",
"oooooooooooooooooooooooooooooooooooooooooooooooooooooooooooooooooooooooooooooooo",
"oooooooooooooooooooooooooooooooooooooooooooooooooooooooooooooooooooooooooooooooo",
"oooooooooooooooooooooooooooooooooooooooooooooooooooooooooooooooooooooooooooooooo",
"oooooooooooooooooooooooooooooooooooooooooooooooooooooooooooooooooooooooooooooooo",
"oooooooooooooooooooooooooooooooooooooooooooooooooooooooooooooooooooooooooooooooo",
"oooooooooooooooooooooooooooooooooooooooooooooooooooooooooooooooooooooooooooooooo",
"oooooooooooooooooooooooooooooooooooooooooooooooooooooooooooooooooooooooooooooooo",
"oooooooooooooooooooooooooooooooooooooooooooooooooooooooooooooooooooooooooooooooo",
"oooooooooooooooooooooooooooooooooooooooooooooooooooooooooooooooooooooooooooooooo",
"oooooooooooooooooooooooooooooooooooooooooooooooooooooooooooooooooooooooooooooooo",
"oooooooooooooooooooooooooooooooooooooooooooooooooooooooooooooooooooooooooooooooo",
"oooooooooooooooooooooooooooooooooooooooooooooooooooooooooooooooooooooooooooooooo",
"oooooooooooooooooooooooooooooooooooooooooooooooooooooooooooooooooooooooooooooooo",
"oooooooooooooooooooooooooooooooooooooooooooooooooooooooooooooooooooooooooooooooo",
"ooooooooooooooooooooooooooooooooooooooooooo    ooooooooooooooooooooooooooooooooo",
"ooooooooooooooooooooooooooooooooooooooooooo    ooooooooooooooooooooooooooooooooo",
"ooooooooooooooooooooooooooooooooooooooooooo      ooooooooooooooooooooooooooooooo",
"ooooooooooooooooooooooooooooooooooooooooooo      ooooooooooooooooooooooooooooooo",
"ooooooooooooooooooooooooooooooooooooooooooo  XXXX  ooooooooooooooooooooooooooooo",
"ooooooooooooooooooooooooooooooooooooooooooo  XXXX  ooooooooooooooooooooooooooooo",
"ooooooooooooooooooooooooooooooooooooooooooo  XXXXXX  ooooooooooooooooooooooooooo",
"ooooooooooooooooooooooooooooooooooooooooooo  XXXXXX  ooooooooooooooooooooooooooo",
"ooooooooooooooooooooooooooooooooooooooooooo  XXXXXX  ooooooooooooooooooooooooooo",
"ooooooooooooooooooooooooooooooooooooooooooo  XXXXXX  ooooooooooooooooooooooooooo",
"ooooooooooooooooooooooooooooooooooooooooooo  XXXXXXXX  ooooooooooooooooooooooooo",
"ooooooooooooooooooooooooooooooooooooooooooo  XXXXXXXX  ooooooooooooooooooooooooo",
"ooooooooooooooooooooooooooooooooooooooooooo  XXXXXXXX  ooooooooooooooooooooooooo",
"ooooooooooooooooooooooooooooooooooooooooooo  XXXXXXXX  ooooooooooooooooooooooooo",
"ooooooooooooooooooooooooooooooooooooooooo  XXXXXXXXXX  ooooooooooooooooooooooooo",
"ooooooooooooooooooooooooooooooooooooooooo  XXXXXXXXXX  ooooooooooooooooooooooooo",
"ooooooooooooooooooooooooooooooooooooooo  XXXXXXXXXXXX  ooooooooooooooooooooooooo",
"ooooooooooooooooooooooooooooooooooooooo  XXXXXXXXXXXX  ooooooooooooooooooooooooo",
"ooooooooooooooooooooooooooooooooooooo  ....XXXXXXXXXX  ooooooooooooooooooooooooo",
"ooooooooooooooooooooooooooooooooooooo  ....XXXXXXXXXX  ooooooooooooooooooooooooo",
"ooooooooooooooooooooooooooooooooo    XXXXXX..XXXXXX  ooooooooooooooooooooooooooo",
"ooooooooooooooooooooooooooooooooo    XXXXXX..XXXXXX  ooooooooooooooooooooooooooo",
"ooooooooooooooooooooooooo        ........XXXX..XXXX  ooooooooooooooooooooooooooo",
"ooooooooooooooooooooooooo        ........XXXX..XXXX  ooooooooooooooooooooooooooo",
"ooooooooooooooooooooooooo  ................XX....  ooooooooooooooooooooooooooooo",
"ooooooooooooooooooooooooo  ................XX....  ooooooooooooooooooooooooooooo",
"ooooooooooooooooooooooooo  ....................  ooooooooooooooooooooooooooooooo",
"ooooooooooooooooooooooooo  ....................  ooooooooooooooooooooooooooooooo",
"ooooooooooooooooooooooooooo    ............    ooooooooooooooooooooooooooooooooo",
"ooooooooooooooooooooooooooo    ............    ooooooooooooooooooooooooooooooooo",
"ooooooooooooooooooooooooooooooo            ooooooooooooooooooooooooooooooooooooo",
"ooooooooooooooooooooooooooooooo            ooooooooooooooooooooooooooooooooooooo",
"oooooooooooooooooooooooooooooooooooooooooooooooooooooooooooooooooooooooooooooooo",
"oooooooooooooooooooooooooooooooooooooooooooooooooooooooooooooooooooooooooooooooo",
"oooooooooooooooooooooooooooooooooooooooooooooooooooooooooooooooooooooooooooooooo",
"oooooooooooooooooooooooooooooooooooooooooooooooooooooooooooooooooooooooooooooooo",
"oooooooooooooooooooooooooooooooooooooooooooooooooooooooooooooooooooooooooooooooo",
"oooooooooooooooooooooooooooooooooooooooooooooooooooooooooooooooooooooooooooooooo",
"oooooooooooooooooooooooooooooooooooooooooooooooooooooooooooooooooooooooooooooooo",
"oooooooooooooooooooooooooooooooooooooooooooooooooooooooooooooooooooooooooooooooo",
"oooooooooooooooooooooooooooooooooooooooooooooooooooooooooooooooooooooooooooooooo",
"oooooooooooooooooooooooooooooooooooooooooooooooooooooooooooooooooooooooooooooooo",
"oooooooooooooooooooooooooooooooooooooooooooooooooooooooooooooooooooooooooooooooo",
"oooooooooooooooooooooooooooooooooooooooooooooooooooooooooooooooooooooooooooooooo",
"oooooooooooooooooooooooooooooooooooooooooooooooooooooooooooooooooooooooooooooooo",
"oooooooooooooooooooooooooooooooooooooooooooooooooooooooooooooooooooooooooooooooo",
"oooooooooooooooooooooooooooooooooooooooooooooooooooooooooooooooooooooooooooooooo",
"oooooooooooooooooooooooooooooooooooooooooooooooooooooooooooooooooooooooooooooooo",
"oooooooooooooooooooooooooooooooooooooooooooooooooooooooooooooooooooooooooooooooo",
"oooooooooooooooooooooooooooooooooooooooooooooooooooooooooooooooooooooooooooooooo",
"oooooooooooooooooooooooooooooooooooooooooooooooooooooooooooooooooooooooooooooooo",
"oooooooooooooooooooooooooooooooooooooooooooooooooooooooooooooooooooooooooooooooo",
"oooooooooooooooooooooooooooooooooooooooooooooooooooooooooooooooooooooooooooooooo",
"oooooooooooooooooooooooooooooooooooooooooooooooooooooooooooooooooooooooooooooooo",
"oooooooooooooooooooooooooooooooooooooooooooooooooooooooooooooooooooooooooooooooo",
"oooooooooooooooooooooooooooooooooooooooooooooooooooooooooooooooooooooooooooooooo"
};
