/* XPM */
static char *_744_a0f10d882e506f4a0ed04f1f6484fb7c7f7de84c809a8dbdd35db2c84367ed8e[] = {
/* columns rows colors chars-per-pixel */
"80 80 4 1 ",
"  c #0B0B3B",
". c #F8AD08",
"X c #F8D808",
"o c None",
/* pixels */
"oooooooooooooooooooooooooooooooooooooooooooooooooooooooooooooooooooooooooooooooo",
"oooooooooooooooooooooooooooooooooooooooooooooooooooooooooooooooooooooooooooooooo",
"oooooooooooooooooooooooooooooooooooooooooooooooooooooooooooooooooooooooooooooooo",
"oooooooooooooooooooooooooooooooooooooooooooooooooooooooooooooooooooooooooooooooo",
"oooooooooooooooooooooooooooooooooooooooooooooooooooooooooooooooooooooooooooooooo",
"oooooooooooooooooooooooooooooooooooooooooooooooooooooooooooooooooooooooooooooooo",
"oooooooooooooooooooooooooooooooooooooooooooooooooooooooooooooooooooooooooooooooo",
"oooooooooooooooooooooooooooooooooooooooooooooooooooooooooooooooooooooooooooooooo",
"oooooooooooooooooooooooooooooooooooooooooooooooooooooooooooooooooooooooooooooooo",
"oooooooooooooooooooooooooooooooooooooooooooooooooooooooooooooooooooooooooooooooo",
"oooooooooooooooooooooooooooooooooooooooooooooooooooooooooooooooooooooooooooooooo",
"oooooooooooooooooooooooooooooooooooooooooooooooooooooooooooooooooooooooooooooooo",
"oooooooooooooooooooooooooooooooooooooooooooooooooooooooooooooooooooooooooooooooo",
"oooooooooooooooooooooooooooooooooooooooooooooooooooooooooooooooooooooooooooooooo",
"oooooooooooooooooooooooooooooooooooooooooooooooooooooooooooooooooooooooooooooooo",
"oooooooooooooooooooooooooooooooooooooooooooooooooooooooooooooooooooooooooooooooo",
"oooooooooooooooooooooooooooooooooooooooooooooooooooooooooooooooooooooooooooooooo",
"oooooooooooooooooooooooooooooooooooooooooooooooooooooooooooooooooooooooooooooooo",
"oooooooooooooooooooooooooooooooooooooooooooooooooooooooooooooooooooooooooooooooo",
"oooooooooooooooooooooooooooooooooooooooooooooooooooooooooooooooooooooooooooooooo",
"oooooooooooooooooooooooooooooooooooooooooooooooooooooooooooooooooooooooooooooooo",
"oooooooooooooooooooooooooooooooooooooooooooooooooooooooooooooooooooooooooooooooo",
"oooooooooooooooooooooooooooooooooooooooooooooooooooooooooooooooooooooooooooooooo",
"oooooooooooooooooooooooooooooooooooooooo    oooooooooooooooooooooooooooooooooooo",
"oooooooooooooooooooooooooooooooooooooooo    oooooooooooooooooooooooooooooooooooo",
"oooooooooooooooooooooooooooooooooooooooo      oooooooooooooooooooooooooooooooooo",
"oooooooooooooooooooooooooooooooooooooooo      oooooooooooooooooooooooooooooooooo",
"oooooooooooooooooooooooooooooooooooooooo  XXXX  oooooooooooooooooooooooooooooooo",
"oooooooooooooooooooooooooooooooooooooooo  XXXX  oooooooooooooooooooooooooooooooo",
"oooooooooooooooooooooooooooooooooooooooo  XXXX  oooooooooooooooooooooooooooooooo",
"oooooooooooooooooooooooooooooooooooooooo  XXXX  oooooooooooooooooooooooooooooooo",
"oooooooooooooooooooooooooooooooooooooooo  XXXXXX  oooooooooooooooooooooooooooooo",
"oooooooooooooooooooooooooooooooooooooooo  XXXXXX  oooooooooooooooooooooooooooooo",
"oooooooooooooooooooooooooooooooooooooooo  XXXXXX  oooooooooooooooooooooooooooooo",
"oooooooooooooooooooooooooooooooooooooooo  XXXXXX  oooooooooooooooooooooooooooooo",
"oooooooooooooooooooooooooooooooooooooo  XXXXXXXX  oooooooooooooooooooooooooooooo",
"oooooooooooooooooooooooooooooooooooooo  XXXXXXXX  oooooooooooooooooooooooooooooo",
"oooooooooooooooooooooooooooooooooooooo  XXXXXXXX  oooooooooooooooooooooooooooooo",
"oooooooooooooooooooooooooooooooooooooo  XXXXXXXX  oooooooooooooooooooooooooooooo",
"oooooooooooooooooooooooooooooooooooo  XXXXXXXXXX  oooooooooooooooooooooooooooooo",
"oooooooooooooooooooooooooooooooooooo  XXXXXXXXXX  oooooooooooooooooooooooooooooo",
"oooooooooooooooooooooooooooooooooooo  XXXXXXXXXX  oooooooooooooooooooooooooooooo",
"oooooooooooooooooooooooooooooooooooo  XXXXXXXXXX  oooooooooooooooooooooooooooooo",
"oooooooooooooooooooooooooooooooooo  ..XXXXXXXXXX  oooooooooooooooooooooooooooooo",
"oooooooooooooooooooooooooooooooooo  ..XXXXXXXXXX  oooooooooooooooooooooooooooooo",
"oooooooooooooooooooooooooooooooo  ..XX..XXXX..  oooooooooooooooooooooooooooooooo",
"oooooooooooooooooooooooooooooooo  ..XX..XXXX..  oooooooooooooooooooooooooooooooo",
"oooooooooooooooooooooooooooooo  ....XXXX......  oooooooooooooooooooooooooooooooo",
"oooooooooooooooooooooooooooooo  ....XXXX......  oooooooooooooooooooooooooooooooo",
"oooooooooooooooooooooooooooooo  ........XXXX  oooooooooooooooooooooooooooooooooo",
"oooooooooooooooooooooooooooooo  ........XXXX  oooooooooooooooooooooooooooooooooo",
"oooooooooooooooooooooooooooooo    ......    oooooooooooooooooooooooooooooooooooo",
"oooooooooooooooooooooooooooooo    ......    oooooooooooooooooooooooooooooooooooo",
"oooooooooooooooooooooooooooooooo        oooooooooooooooooooooooooooooooooooooooo",
"oooooooooooooooooooooooooooooooo        oooooooooooooooooooooooooooooooooooooooo",
"oooooooooooooooooooooooooooooooooooooooooooooooooooooooooooooooooooooooooooooooo",
"oooooooooooooooooooooooooooooooooooooooooooooooooooooooooooooooooooooooooooooooo",
"oooooooooooooooooooooooooooooooooooooooooooooooooooooooooooooooooooooooooooooooo",
"oooooooooooooooooooooooooooooooooooooooooooooooooooooooooooooooooooooooooooooooo",
"oooooooooooooooooooooooooooooooooooooooooooooooooooooooooooooooooooooooooooooooo",
"oooooooooooooooooooooooooooooooooooooooooooooooooooooooooooooooooooooooooooooooo",
"oooooooooooooooooooooooooooooooooooooooooooooooooooooooooooooooooooooooooooooooo",
"oooooooooooooooooooooooooooooooooooooooooooooooooooooooooooooooooooooooooooooooo",
"oooooooooooooooooooooooooooooooooooooooooooooooooooooooooooooooooooooooooooooooo",
"oooooooooooooooooooooooooooooooooooooooooooooooooooooooooooooooooooooooooooooooo",
"oooooooooooooooooooooooooooooooooooooooooooooooooooooooooooooooooooooooooooooooo",
"oooooooooooooooooooooooooooooooooooooooooooooooooooooooooooooooooooooooooooooooo",
"oooooooooooooooooooooooooooooooooooooooooooooooooooooooooooooooooooooooooooooooo",
"oooooooooooooooooooooooooooooooooooooooooooooooooooooooooooooooooooooooooooooooo",
"oooooooooooooooooooooooooooooooooooooooooooooooooooooooooooooooooooooooooooooooo",
"oooooooooooooooooooooooooooooooooooooooooooooooooooooooooooooooooooooooooooooooo",
"oooooooooooooooooooooooooooooooooooooooooooooooooooooooooooooooooooooooooooooooo",
"oooooooooooooooooooooooooooooooooooooooooooooooooooooooooooooooooooooooooooooooo",
"oooooooooooooooooooooooooooooooooooooooooooooooooooooooooooooooooooooooooooooooo",
"oooooooooooooooooooooooooooooooooooooooooooooooooooooooooooooooooooooooooooooooo",
"oooooooooooooooooooooooooooooooooooooooooooooooooooooooooooooooooooooooooooooooo",
"oooooooooooooooooooooooooooooooooooooooooooooooooooooooooooooooooooooooooooooooo",
"oooooooooooooooooooooooooooooooooooooooooooooooooooooooooooooooooooooooooooooooo",
"oooooooooooooooooooooooooooooooooooooooooooooooooooooooooooooooooooooooooooooooo",
"oooooooooooooooooooooooooooooooooooooooooooooooooooooooooooooooooooooooooooooooo"
};
