/* XPM */
static char *_1116_c87b413447326f580fcb076b8ee1ed92bdd85d395712fb31f7739611f073a2c7[] = {
/* columns rows colors chars-per-pixel */
"80 80 4 1 ",
"  c #0B0B3B",
". c #F8AD08",
"X c #F8D808",
"o c None",
/* pixels */
"oooooooooooooooooooooooooooooooooooooooooooooooooooooooooooooooooooooooooooooooo",
"oooooooooooooooooooooooooooooooooooooooooooooooooooooooooooooooooooooooooooooooo",
"oooooooooooooooooooooooooooooooooooooooooooooooooooooooooooooooooooooooooooooooo",
"oooooooooooooooooooooooooooooooooooooooooooooooooooooooooooooooooooooooooooooooo",
"oooooooooooooooooooooooooooooooooooooooooooooooooooooooooooooooooooooooooooooooo",
"oooooooooooooooooooooooooooooooooooooooooooooooooooooooooooooooooooooooooooooooo",
"oooooooooooooooooooooooooooooooooooooooooooooooooooooooooooooooooooooooooooooooo",
"oooooooooooooooooooooooooooooooooooooooooooooooooooooooooooooooooooooooooooooooo",
"oooooooooooooooooooooooooooooooooooooooooooooooooooooooooooooooooooooooooooooooo",
"oooooooooooooooooooooooooooooooooooooooooooooooooooooooooooooooooooooooooooooooo",
"oooooooooooooooooooooooooooooooooooooooooooooooooooooooooooooooooooooooooooooooo",
"oooooooooooooooooooooooooooooooooooooooooooooooooooooooooooooooooooooooooooooooo",
"oooooooooooooooooooooooooooooooooooooooooooooooooooooooooooooooooooooooooooooooo",
"oooooooooooooooooooooooooooooooooooooooooooooooooooooooooooooooooooooooooooooooo",
"oooooooooooooooooooooooooooooooooooooooooooooooooooooooooooooooooooooooooooooooo",
"oooooooooooooooooooooooooooooooooooooooooooooooooooooooooooooooooooooooooooooooo",
"oooooooooooooooooooooooooooooooooooooooooooooooooooooooooooooooooooooooooooooooo",
"oooooooooooooooooooooooooooooooooooooooooooooooooooooooooooooooooooooooooooooooo",
"oooooooooooooooooooooooooooooooooooooooooooooooooooooooooooooooooooooooooooooooo",
"oooooooooooooooooooooooooooooooooooooooooooooooooooooooooooooooooooooooooooooooo",
"oooooooooooooooooooooooooooooooooooooooooooooooooooooooooooooooooooooooooooooooo",
"oooooooooooooooooooooooooooooooooooooooooooooooooooooooooooooooooooooooooooooooo",
"oooooooooooooooooooooooooooooooooooooooooooooooooooooooooooooooooooooooooooooooo",
"oooooooooooooooooooooooooooooooooooooooooo    oooooooooooooooooooooooooooooooooo",
"oooooooooooooooooooooooooooooooooooooooooo    oooooooooooooooooooooooooooooooooo",
"oooooooooooooooooooooooooooooooooooooooooo      oooooooooooooooooooooooooooooooo",
"oooooooooooooooooooooooooooooooooooooooooo      oooooooooooooooooooooooooooooooo",
"oooooooooooooooooooooooooooooooooooooooooo  XX  oooooooooooooooooooooooooooooooo",
"oooooooooooooooooooooooooooooooooooooooooo  XX  oooooooooooooooooooooooooooooooo",
"oooooooooooooooooooooooooooooooooooooooooo  XXXX  oooooooooooooooooooooooooooooo",
"oooooooooooooooooooooooooooooooooooooooooo  XXXX  oooooooooooooooooooooooooooooo",
"oooooooooooooooooooooooooooooooooooooooo  XXXXXX  oooooooooooooooooooooooooooooo",
"oooooooooooooooooooooooooooooooooooooooo  XXXXXX  oooooooooooooooooooooooooooooo",
"oooooooooooooooooooooooooooooooooooooooo  XXXXXXXX  oooooooooooooooooooooooooooo",
"oooooooooooooooooooooooooooooooooooooooo  XXXXXXXX  oooooooooooooooooooooooooooo",
"oooooooooooooooooooooooooooooooooooooooo  XXXXXXXX  oooooooooooooooooooooooooooo",
"oooooooooooooooooooooooooooooooooooooooo  XXXXXXXX  oooooooooooooooooooooooooooo",
"oooooooooooooooooooooooooooooooooooooo  XXXXXXXXXX  oooooooooooooooooooooooooooo",
"oooooooooooooooooooooooooooooooooooooo  XXXXXXXXXX  oooooooooooooooooooooooooooo",
"oooooooooooooooooooooooooooooooooooooo  XXXXXXXXXX  oooooooooooooooooooooooooooo",
"oooooooooooooooooooooooooooooooooooooo  XXXXXXXXXX  oooooooooooooooooooooooooooo",
"oooooooooooooooooooooooooooooooooooo  ..XXXXXXXXXX  oooooooooooooooooooooooooooo",
"oooooooooooooooooooooooooooooooooooo  ..XXXXXXXXXX  oooooooooooooooooooooooooooo",
"oooooooooooooooooooooooooooooooooooo  ....XXXXXXXX  oooooooooooooooooooooooooooo",
"oooooooooooooooooooooooooooooooooooo  ....XXXXXXXX  oooooooooooooooooooooooooooo",
"oooooooooooooooooooooooooooooooo    ..XXXX..XX..    oooooooooooooooooooooooooooo",
"oooooooooooooooooooooooooooooooo    ..XXXX..XX..    oooooooooooooooooooooooooooo",
"oooooooooooooooooooooooooooo    ........XXXX....  oooooooooooooooooooooooooooooo",
"oooooooooooooooooooooooooooo    ........XXXX....  oooooooooooooooooooooooooooooo",
"oooooooooooooooooooooooooooo  ............XXXX  oooooooooooooooooooooooooooooooo",
"oooooooooooooooooooooooooooo  ............XXXX  oooooooooooooooooooooooooooooooo",
"oooooooooooooooooooooooooooooo  ............  oooooooooooooooooooooooooooooooooo",
"oooooooooooooooooooooooooooooo  ............  oooooooooooooooooooooooooooooooooo",
"oooooooooooooooooooooooooooooooo            oooooooooooooooooooooooooooooooooooo",
"oooooooooooooooooooooooooooooooo            oooooooooooooooooooooooooooooooooooo",
"oooooooooooooooooooooooooooooooooooooooooooooooooooooooooooooooooooooooooooooooo",
"oooooooooooooooooooooooooooooooooooooooooooooooooooooooooooooooooooooooooooooooo",
"oooooooooooooooooooooooooooooooooooooooooooooooooooooooooooooooooooooooooooooooo",
"oooooooooooooooooooooooooooooooooooooooooooooooooooooooooooooooooooooooooooooooo",
"oooooooooooooooooooooooooooooooooooooooooooooooooooooooooooooooooooooooooooooooo",
"oooooooooooooooooooooooooooooooooooooooooooooooooooooooooooooooooooooooooooooooo",
"oooooooooooooooooooooooooooooooooooooooooooooooooooooooooooooooooooooooooooooooo",
"oooooooooooooooooooooooooooooooooooooooooooooooooooooooooooooooooooooooooooooooo",
"oooooooooooooooooooooooooooooooooooooooooooooooooooooooooooooooooooooooooooooooo",
"oooooooooooooooooooooooooooooooooooooooooooooooooooooooooooooooooooooooooooooooo",
"oooooooooooooooooooooooooooooooooooooooooooooooooooooooooooooooooooooooooooooooo",
"oooooooooooooooooooooooooooooooooooooooooooooooooooooooooooooooooooooooooooooooo",
"oooooooooooooooooooooooooooooooooooooooooooooooooooooooooooooooooooooooooooooooo",
"oooooooooooooooooooooooooooooooooooooooooooooooooooooooooooooooooooooooooooooooo",
"oooooooooooooooooooooooooooooooooooooooooooooooooooooooooooooooooooooooooooooooo",
"oooooooooooooooooooooooooooooooooooooooooooooooooooooooooooooooooooooooooooooooo",
"oooooooooooooooooooooooooooooooooooooooooooooooooooooooooooooooooooooooooooooooo",
"oooooooooooooooooooooooooooooooooooooooooooooooooooooooooooooooooooooooooooooooo",
"oooooooooooooooooooooooooooooooooooooooooooooooooooooooooooooooooooooooooooooooo",
"oooooooooooooooooooooooooooooooooooooooooooooooooooooooooooooooooooooooooooooooo",
"oooooooooooooooooooooooooooooooooooooooooooooooooooooooooooooooooooooooooooooooo",
"oooooooooooooooooooooooooooooooooooooooooooooooooooooooooooooooooooooooooooooooo",
"oooooooooooooooooooooooooooooooooooooooooooooooooooooooooooooooooooooooooooooooo",
"oooooooooooooooooooooooooooooooooooooooooooooooooooooooooooooooooooooooooooooooo",
"oooooooooooooooooooooooooooooooooooooooooooooooooooooooooooooooooooooooooooooooo"
};
