/* XPM */
static char *fef22784696f4095f0b439dbbde59abafbV2RXipd0QnsWht[] = {
/* columns rows colors chars-per-pixel */
"80 80 185 2 ",
"   c None",
".  c #2F0000",
"X  c #330000",
"o  c #3A0000",
"O  c #420000",
"+  c #4D0000",
"@  c #540000",
"#  c #5B0101",
"$  c #5F1012",
"%  c #610406",
"&  c #6A0306",
"*  c #630609",
"=  c #69060B",
"-  c #65090B",
";  c #690C0E",
":  c #6C0E11",
">  c #700F12",
",  c #6E1113",
"<  c #671316",
"1  c #711316",
"2  c #751619",
"3  c #78161B",
"4  c #76191C",
"5  c #791A1E",
"6  c #7B201E",
"7  c #761E21",
"8  c #7D1D22",
"9  c #7E2223",
"0  c #7F252A",
"q  c #7D3235",
"w  c #821E23",
"e  c #8E1A21",
"r  c #822125",
"t  c #852B25",
"y  c #84242A",
"u  c #89272C",
"i  c #8B292E",
"p  c #8B352C",
"a  c #8F382F",
"s  c #852D32",
"d  c #8E2C32",
"f  c #862730",
"g  c #912E34",
"h  c #8E393D",
"j  c #853136",
"k  c #933037",
"l  c #923E31",
"z  c #95333A",
"x  c #9B353D",
"c  c #9C383F",
"v  c #9B4A3A",
"b  c #9D4739",
"n  c #853F41",
"m  c #9D3A42",
"M  c #963A41",
"N  c #A33D46",
"B  c #A93E49",
"V  c #A13B44",
"C  c #9F4049",
"Z  c #A5414A",
"A  c #AA434C",
"S  c #A35743",
"D  c #AB5D47",
"F  c #A85A45",
"G  c #AC4750",
"H  c #AE4953",
"J  c #B24B55",
"K  c #B94B57",
"L  c #B54E58",
"P  c #BB4E5A",
"I  c #B14450",
"U  c #B4515B",
"Y  c #BA525D",
"T  c #AF634C",
"R  c #B2644C",
"E  c #BB6F53",
"W  c #B76E52",
"Q  c #BD7657",
"!  c #B65560",
"~  c #BC5561",
"^  c #BC5B67",
"/  c #BF626E",
"(  c #C1505E",
")  c #C37B5B",
"_  c #C25662",
"`  c #C35965",
"'  c #CA5867",
"]  c #C65D6A",
"[  c #CB5D6A",
"{  c #D35F6F",
"}  c #CB616E",
"|  c #C7626F",
" . c #CD6472",
".. c #C66975",
"X. c #D26573",
"o. c #D46976",
"O. c #D66C7A",
"+. c #DA6D7C",
"@. c #DD6778",
"#. c #DD707F",
"$. c #D6707F",
"%. c #E46C7E",
"&. c #C68561",
"*. c #D38D68",
"=. c #D6956D",
"-. c #D99971",
";. c #E19D73",
":. c #DEA176",
">. c #D1A074",
",. c #E3A577",
"<. c #EBAE7E",
"1. c #EAA477",
"2. c #E6B07E",
"3. c #DD7483",
"4. c #DF7886",
"5. c #E76E81",
"6. c #E86F82",
"7. c #E37685",
"8. c #EB7285",
"9. c #EF7488",
"0. c #E47B8B",
"q. c #EB7C8C",
"w. c #F2778B",
"e. c #F47A8E",
"r. c #EE7F90",
"t. c #F47D90",
"y. c #FB7D93",
"u. c #E9808E",
"i. c #ED8293",
"p. c #F38394",
"a. c #FC8397",
"s. c #F58799",
"d. c #FA8799",
"f. c #F58A9C",
"g. c #F9889A",
"h. c #FA899B",
"j. c #FB889A",
"k. c #FA8899",
"l. c #FD8B9D",
"z. c #FA899B",
"x. c #F3BB86",
"c. c #F9BC87",
"v. c #FABF89",
"b. c #F2BB86",
"n. c #FF8EA1",
"m. c #FE8EA1",
"M. c #F291A2",
"N. c #FD90A3",
"B. c #FF92A5",
"V. c #FE92A5",
"C. c #FF95A9",
"Z. c #FF96A9",
"A. c #FF9BAF",
"S. c #FF99AC",
"D. c #FF99AD",
"F. c #FF9CB0",
"G. c #FF9EB3",
"H. c #FF9DB2",
"J. c #FF9FB4",
"K. c #FF9DB2",
"L. c #FFA1B6",
"P. c #FFA1B6",
"I. c #FFA3B9",
"U. c #FFA4BA",
"Y. c #FFA4B9",
"T. c #FFA5BA",
"R. c #FFA9BE",
"E. c #FCC48D",
"W. c #FEC98F",
"Q. c #FFCC91",
"!. c #FFD296",
"~. c #FFD698",
"^. c #FFDE9E",
"/. c #FFE09F",
"(. c #FFE3A1",
"). c #FFEAA6",
"_. c #FFEDA8",
"`. c #FFF0A9",
"'. c #FFFBB1",
"]. c #FFACC2",
"[. c #FFB2C6",
"{. c #FFB5CC",
"}. c #FFB8CD",
"|. c #FFB8D0",
" X c #FFC8DF",
/* pixels */
"                                                                                                                                                                ",
"                                                                                                                                                                ",
"                                                                                                                                                                ",
"                                                                                                                                                                ",
"                                                                                                    9 1 2 r                                                     ",
"                                                                                              i 4 ; ; : ; : : 5                                                 ",
"                                                                i 8 5 1 , , 3 5 y           1 - # @ = 1 , # @ % ; 8                                             ",
"                                                            w : ; # @ @ # # @ @ % ; 2     , - # 9 Y +.q.q.O.J : @ * 3                                           ",
"                                                        d ; % @ # 8 m G L J A d : @ # ; ; ; 1 J n.I.S.C.C.G.T.p.d # % 8                                         ",
"                                      i 8 1 : ; ; , ; , ; # % N +.h.S.G.G.G.G.C.q._ 9 @ - - u ].J.d.z.z.h.h.d.G.G.k # ;                                         ",
"                                  r , - # @ # # , 5 1 , @ r 7.P.G.V.l.h.h.h.h.l.C.T.B.P % # % m F.B.d.z.h.h.h.d.S.B.4 % , : ; ; 1 9                             ",
"                              i ; - @ # r N U 7.} : ; @ N A.P.h.d.h.h.h.h.h.h.h.z.h.B.T.0., # @ A P.l.h.h.h.z.z.d.T.| O @ # % # @ % ; i                         ",
"                            7 - # # g X.l.G.T.R.m # @ A I.B.d.h.h.h.h.h.h.h.h.h.z.h.d.d.P.s., # @  .].J.J.G.C.l.d.n.B.A m } +.[ N % # * d                       ",
"                          2 = @ 3 o.G.P.V.h.G.J + # k T.V.h.h.h.h.h.h.h.h.h.h.h.z.h.h.h.d.I.0.% # 3 J H ~ } q.C.P.n.z.F.G.G.S.P.P.7.1 # *                       ",
"                        1 * @ g B.I.l.h.h.h.G.A O w G.T.l.l.z.z.h.h.h.h.n.S.P.G.G.J.P.G.B.d.T.U @ : @ @ @ # : g ] B.P.l.h.h.h.h.h.T.i.; # 5                     ",
"                      w - # z G.C.d.h.h.d.B.I.S.Y X.p.7.l.G.G.l.d.h.C.P.z.+.~ J A G Y o.s.P.J.B.8 % 3 5 - @ @ @ @ 8 X.P.B.d.h.h.h.h.T.U # -                     ",
"                      ; @ y G.C.d.h.s.n.P.g.~ z d 4 ; : 8 N +.C.G.G.s.L 8 # @ @ + @ @ % 3 A q.}.! @ % ] s.` c : # @ @ N S.S.d.h.h.h.S.0.: % y                   ",
"                    1 % ; i.A.d.h.d.B.G.` 1 @ @ @ @ @ + @ @ # g p.X., @ @ @ % 1 4 2 % @ @ @ % | s.; @ Z ].P.G.p.A * # @ u C.C.d.h.h.n.z.9 # 9                   ",
"                  k ; @ U T.h.h.h.l.n.m @ # @ 4 c J L A d - @ # ; - # # 8 J +.q.p.q.#.U y # O < S.i . y S.l.l.C.T.q.3 @ @ i S.B.h.h.B.f.8 # r                   ",
"                  3 # 5 m.B.h.h.h.G. .o @ : Y l.S.G.P.G.C.q.x @ % ; 3 ] B.P.G.C.B.C.A.P.S.[ 8 U P.+.y O.C.d.B.F.G.T.n.r @ @ N I.z.d.G.3.= *                     ",
"                  : @ ! [.B.B.n.h.B.p.u r i.T.C.z.h.h.h.l.A.T._ # % 2 M.P.s.h.h.z.z.z.h.n.S.S.C.B.T.].C.z.P.s.X.o.z.G.B.3 # # o.J.s.T.A # 1                     ",
"                h # ; 3.n.7.p.B.G.f.m.B.C.C.d.h.h.h.h.h.h.h.n.R.Y @ @ z G.l.C.S.G.G.S.B.h.h.l.C.+.4 Y T.S.Y 1 # O G G.P.4.% @ 9 C.S.o.# ; 3 r                   ",
"                y - 4 r 1 : 1 8 L n.l.n.n.d.z.h.h.h.h.h.h.h.h.l.P.d # # 3.R.q.O.[ } +.d.G.S.h.P.M o # i.L + # @ + J G.h.T.Z @ #  .}.m o # # # - 1               ",
"                , 1 ; @ + @ @ + O +.S.h.h.h.h.h.h.h.h.h.h.h.h.d.G.3.= % g N 1 # # # - 3 c 7.S.S.} # ; 3 , % , U #.n.l.h.S.0.- @ z T.q.x c z 4 @ # ; e           ",
"            7 - % @ 2 g A G N 7 k g.V.h.z.z.z.z.h.h.h.h.h.h.h.h.l.P.u - - @ @ @ % % @ @ @ @ ~ A.J.z @ ; ; ; 7.].G.z.d.h.h.G.z @ 3 e.A.G.S.C.h.` ; # & q         ",
"          2 - # 1 _ s.C.A.G.S.l.B.m.s.h.z.z.z.z.h.h.h.h.h.h.h.h.P.O., ; @ , Z [ O.o.Y g % o x G.F.0.% : # Z I.l.z.z.h.h.d.P.Y @ - $.S.z.l.l.C.T.s.3 # &         ",
"        8 - @ d l.I.C.l.h.h.l.V.S.F.G.G.P.S.V.h.h.h.h.h.h.h.d.G.0.# # # m d.J.J.S.G.P.S.o.G p.l.g.T.Z @ # A G.h.z.h.h.h.z.G. .# # ` G.h.z.h.h.h.P.0.; % 3       ",
"        - # i J.A.d.h.h.d.l.G.C.8.] L J Y O.d.P.C.h.h.h.h.h.l.V.8 # # Y T.S.d.h.h.h.h.l.S.T.V.d.g.C.s.; o y C.l.z.h.h.V.n.C.3.; @ Y G.h.h.h.h.h.h.R.J @ ;       ",
"      1 # 2 f.S.k.h.h.d.C.G.X.i ; # @ @ @ * 3 A g.P.h.h.h.h.P.J @ # N T.n.d.h.h.h.h.h.h.h.h.h.h.h.d.G. .3  .S.n.z.d.B.z.n.].0.; @ ~ I.d.z.z.h.h.h.S.4.; = i     ",
"      ; # ! T.h.h.h.h.C.z.z @ @ @ # ; : * @ @ @ , o.T.l.h.h.P.J o : M.S.h.h.z.z.h.z.h.h.h.h.h.h.g.h.B.].R.P.n.B.G.T.+.1 9 o.3.; # z I.T.G.z.d.h.h.n.s.8 # r     ",
"    r # , i.C.h.h.h.l.n.r @ # - Z  .7.0.#.Y r # @ # ] P.h.h.l.g.~ 4.G.S.J.G.F.F.G.G.C.l.h.h.d.h.S.J.r._ N z d d z p.! X @ # 5 1 1 % m }  .n.l.h.h.n.m.0 # r     ",
"    3 # z S.z.h.h.h.V.h.; O u q.P.J.S.C.S.T.C.P # # @ O.G.d.d.B.|.T.t.X.Y A N Z J ] q.B.J.C.n.P.q.m : @ @ + + @ o < s.L 1 @ * 2 1 1 @ @ O L J.h.h.B.i.2 # y     ",
"  4 1 # A P.h.h.h.h.h.B.3.Y N.G.h.h.h.h.h.d.V.R. .# @ 1 z.B.P.V.[ z 2 # @ @ + @ @ # ; y J p.P.Y - @ @ # 1 r d y ; z S.T.z.Z # ; , 8 3 # @ ` G.d.d.P. .# ;       ",
"  1 1 @ H P.h.h.h.h.h.h.C.P.l.k.h.h.h.h.h.h.d.l.].H # @ ^ {.[ 7 # + @ @ = , 2 1 - # @ @ @ 3 z # % # d X.p.l.B.n.r.n.l.d.S.R.` @ * 2 O.#.3.B.h.h.n.P.d # ,       ",
"  8 1 # Z G.l.h.h.h.h.h.z.z.h.h.h.h.h.h.h.h.h.h.B.f.2 # i N @ @ @ : V ` O.q.i.q.3.} A 8 @ @ % ; , +.T.J.C.n.l.n.C.l.h.h.h.l.R.U @ # H }.S.z.h.h.J.U # * d       ",
"    5 # y V.l.h.h.h.z.z.z.z.h.h.h.h.h.h.h.h.h.h.h.I.G # ; # @ , Y p.G.G.S.C.B.C.S.P.P.l.} r @ - ; ] P.V.d.h.h.h.h.h.h.h.h.h.n.G.u @ * 7.C.z.z.S.+.@ - 4         ",
"    i * # $.P.h.h.h.h.h.h.h.h.h.h.h.h.h.h.h.h.h.h.P.] @ ; @ c g.T.C.h.h.z.z.z.z.h.h.h.n.T.C.Y # # @ Z P.n.h.h.h.h.h.h.h.h.h.d.P.O.# @ L I.z.z.C.0.# # 2         ",
"      ; # z P.l.h.h.h.h.h.h.h.h.h.h.h.h.h.h.h.h.h.C.q.# + Y P.S.h.h.h.h.z.z.z.z.h.h.h.h.d.V.T.7.; # @ H P.h.h.h.h.h.h.h.h.h.d.V.f.4 @ M S.z.z.d.S.7.; # :       ",
"      r * # ] R.h.h.h.h.h.h.h.h.h.h.h.h.h.h.h.h.h.h.B.O.o.G.n.h.h.h.h.h.h.h.z.z.h.h.h.h.h.h.h.T.i.- # #  .S.h.h.h.h.h.h.z.z.z.l.C.d @ u B.l.h.h.h.]. .# * y     ",
"        ; * # o.R.B.d.h.h.h.h.h.h.h.h.h.h.h.h.h.h.d.h.S.S.h.h.h.h.h.h.h.h.h.z.z.h.h.h.h.h.h.h.d.T.3.# . C P.h.h.h.h.h.h.h.z.z.l.C.z + r n.n.h.h.z.l.S.d # 4     ",
"          - # # P n.I.G.C.C.S.n.d.h.z.z.z.z.h.h.h.h.h.h.h.h.h.h.h.h.h.h.h.h.h.h.h.h.h.h.h.h.h.h.z.G.] z q.V.h.h.h.h.h.h.h.h.h.l.B.d @ u V.l.h.h.z.s.I.L # 1 1   ",
"            - ; @ 7 L o.q.q.#.M.B.d.z.z.z.z.h.h.h.h.h.h.h.h.h.h.h.h.h.h.h.h.h.h.h.h.h.h.h.h.h.h.h.z.S.P.V.d.h.h.h.h.h.h.h.h.z.n.z.7 + c S.z.h.h.z.h.J.! # 1 1   ",
"              3 ; # @ % : 1 # i S.C.d.z.h.h.h.h.h.h.z.z.h.h.h.h.l.z.h.h.h.h.h.h.h.h.h.h.h.h.h.h.h.h.h.z.d.h.h.h.h.h.h.h.h.h.h.G.$.% @ L P.z.z.h.z.h.P.Z @ 1 8   ",
"                  4 , - % % - @ c P.C.d.h.h.h.h.h.h.h.z.h.h.h.C.G.S.l.d.h.h.h.h.h.h.h.h.h.h.h.h.h.h.h.h.h.h.h.h.h.h.h.h.h.h.l.P.z @ - 7.S.z.z.h.d.S.s.> % 8     ",
"                        u   5 - @ x C.P.z.d.z.z.l.h.h.z.k.V.R.0.i G G.n.h.h.h.V.G.l.d.h.h.h.h.h.h.h.h.h.z.A.P.B.h.h.z.z.h.z.].] # # M ].V.d.h.h.F.T.c @ &       ",
"                              4 - @ 8 +.G.P.C.n.l.l.B.S.I.V.` : + + ~ T.G.C.T.s.{ M.C.h.h.h.h.h.h.h.h.l.G.Y c i.T.C.l.l.S.R.o.% - - 4 ` V.P.P.G.p.c # * 7       ",
"                                3 = # # z  .q.l.V.n.p.7.Y r @ @ # - # A 7.q.X.9 + c J.S.d.h.h.h.h.d.n.R.| @ O 3 } s.B.n.q.G # # ; 2 - # r J Y N , # - >         ",
"                                  s ; = # # : 0 i u 5 - @ @ @ t Y : @ # - ; # @ * @ k l.T.S.V.n.C.P.G._ % - # # # 3 i r ; # # 1 r ; 3 2 # @ # @ # ; 3           ",
"                                      r 2 ; ; = % @ + + % t Y A.}.4.t # @ @ @ i z : @ 1 ~ 7.s.z.q.X.d # # : B 8 # @ @ @ @ # 8 { w.1 - 1 5 1 1 3 7               ",
"                                            1 : 1 m Z U #.A.R.F.n.R.P.#.U L  .[.| # : @ @ ; 8 9 1 # # ; : ' m.5.I k d g c ( w.y.y.K # ;                         ",
"                                            h % # .. XR.Y.S.N.V.V.N.Z.Y.R.R.}.M.: % 5 p # @ @ + * 2 , # ' j.5.9.y.y.w.e.y.y.8.5.w.8.5 % y                       ",
"                                              1 % - u.[.V.V.V.V.V.V.V.V.V.Z.R.U @ # &.(.*.D b D a - # d y.5.5.5.6.6.6.6.5.5.5.5.5.y.c # 1                       ",
"                                                - # - #.].R.Z.N.V.V.V.V.V.Z.A.t @ 9 E.!.^.^././.p # ; @.y.5.5.5.5.5.5.5.5.5.5.5.5.y.K # ;                       ",
"                                                d - % # m q.F.[.Y.Y.F.A.Z.I.M.1 @ S ^.v.v.v./.Q @ # A j.%.5.5.5.5.5.5.5.5.5.5.5.%.y.' = ;                       ",
"                                                  g ; = @ % i U +.u.f.M.C.P.p., @ T /.E.v.E.~.l @ 3 5.9.5.5.5.5.5.5.5.5.5.5.5.5.5.e.{ ; ;                       ",
"                                                      7 , * # @ # ; 4 6 y y 9 1 @ S ^.x.v.E.Q.p + d y.5.5.5.5.5.5.5.5.5.5.5.5.5.5.e.[ ; ;                       ",
"                                                          r 4 , ; - % % # # # , = 9 Q.Q.v.E.!.a @ 8 8.w.5.5.5.5.5.5.5.5.5.5.5.5.5.y.( # ;                       ",
"                                                                  t r r 9 r r 2 : # &.).c.v./.W @ # V m.8.5.5.5.5.5.5.5.5.5.5.5.5.a.V # ,                       ",
"                                                                                , # , E.^.c.W.W.4 @ * B y.y.9.5.5.5.5.5.5.5.5.5.a.%., # 7                       ",
"                                                                                h * @ 5 E.(.c.^.:.# # # u [ 9.y.a.y.e.w.e.y.a.y.%.8 % =                         ",
"                                                                                  r = # 2 ;.).Q./.-.: @ # # w m K ' { X.{ ' P x ; % - r                         ",
"                                                                                    r - # # S v.(.`.x.b * @ @ @ # ; : , : ; # # * - w                           ",
"                                                                                      u : * @ : R c.'.).1.R t > * # @ @ ; 1 > 1 7                               ",
"                                                                                          3 ; * @ : T v.'.).W.<.=.) Q E 4 * r                                   ",
"                                                                                              3 - # @ 1 E ~./.Q.~.^.(.).p @ 8                                   ",
"                                                                                                  5 ; # @ r <./.v.v.v.^.D @ ;                                   ",
"                                                                                                      2 = # # -.(.v.v.~.:.* # w                                 ",
"                                                                                                        r : # # :.^.c.v.(.v @ = n                               ",
"                                                                                                            : # 4 Q.Q.c.~.b.1 # -                               ",
"                                                                                                            j = @ F ).c.c.(.=.# = 3                             ",
"                                                                                                              4 # * x.^.c.v.).T # ;                             ",
"                                                                                                                ; @ r ^.(.Q.'.>.# ;                             ",
"                                                                                                                r - # p ;.x.*.y * ;                             ",
"                                                                                                                  4 ; # * 1 # * * u                             ",
"                                                                                                                    8 ; : : : : y                               ",
"                                                                                                                        3 , 8                                   ",
"                                                                                                                                                                ",
"                                                                                                                                                                ",
"                                                                                                                                                                ",
"                                                                                                                                                                "
};
