/* XPM */
static char *_7ea732fd96e4ecfdd45519823c124d7nPkavGvI7YpyW4XM[] = {
/* columns rows colors chars-per-pixel */
"80 80 182 2 ",
"   c None",
".  c #372B24",
"X  c #3A2E26",
"o  c #3D3229",
"O  c #5E2F1D",
"+  c #5F3219",
"@  c #6B3716",
"#  c #65361D",
"$  c #67381D",
"%  c #6C3D1D",
"&  c #703711",
"*  c #743C14",
"=  c #7A3F16",
"-  c #723F1D",
";  c #41352C",
":  c #44392E",
">  c #473C30",
",  c #493E32",
"<  c #663520",
"1  c #663A21",
"2  c #6D3C20",
"3  c #713F20",
"4  c #6F401C",
"5  c #74441E",
"6  c #79451D",
"7  c #7A491F",
"8  c #4D4235",
"9  c #504637",
"0  c #514738",
"q  c #544A3A",
"w  c #594F3E",
"e  c #5A513F",
"r  c #664127",
"t  c #754520",
"y  c #784720",
"u  c #774923",
"i  c #7B4921",
"p  c #7A4429",
"a  c #744C2A",
"s  c #77552E",
"d  c #79522B",
"f  c #6F5935",
"g  c #6F5E3B",
"h  c #725033",
"j  c #7C5934",
"k  c #73573F",
"l  c #7A5B38",
"z  c #7E613E",
"x  c #5C5441",
"c  c #5B5A41",
"v  c #615744",
"b  c #625A45",
"n  c #675E49",
"m  c #685F4A",
"M  c #626147",
"N  c #666649",
"B  c #6B634C",
"V  c #66694A",
"C  c #6B6B4D",
"Z  c #716542",
"A  c #7F6643",
"S  c #77674C",
"D  c #6D714F",
"F  c #626F52",
"G  c #6F6C50",
"H  c #736D52",
"J  c #6E7150",
"K  c #6C7C5C",
"L  c #747254",
"P  c #797357",
"I  c #7C7659",
"U  c #7E795B",
"Y  c #7A7D62",
"T  c #81451C",
"R  c #8B4D1E",
"E  c #93521E",
"W  c #814E24",
"Q  c #844E2A",
"!  c #865225",
"~  c #895427",
"^  c #855129",
"/  c #8C5529",
"(  c #8E5829",
")  c #995721",
"_  c #9C5A23",
"`  c #935C2B",
"'  c #985F2D",
"]  c #815B34",
"[  c #9A5F31",
"{  c #97602B",
"}  c #9C622E",
"|  c #9E6330",
" . c #A0662F",
".. c #A8672D",
"X. c #A4682F",
"o. c #A16630",
"O. c #A56A32",
"+. c #AA6D33",
"@. c #AE7135",
"#. c #B17336",
"$. c #B77935",
"%. c #B97939",
"&. c #826641",
"*. c #846945",
"=. c #846C48",
"-. c #867451",
";. c #837857",
":. c #827C5E",
">. c #897C58",
",. c #857E60",
"<. c #82805F",
"1. c #878162",
"2. c #878262",
"3. c #868161",
"4. c #878462",
"5. c #868262",
"6. c #888263",
"7. c #888163",
"8. c #888463",
"9. c #8A8365",
"0. c #898464",
"q. c #898564",
"w. c #8A8564",
"e. c #8A8565",
"r. c #8A8665",
"t. c #8B8665",
"y. c #8B8765",
"u. c #8B8766",
"i. c #8C8766",
"p. c #8D8766",
"a. c #8C8666",
"s. c #8B8665",
"d. c #8B8866",
"f. c #8D8866",
"g. c #8D8867",
"h. c #8D8967",
"j. c #8C8866",
"k. c #8E8967",
"l. c #8E8867",
"z. c #8E8A67",
"x. c #8D8867",
"c. c #878969",
"v. c #8E8968",
"b. c #8F8968",
"n. c #8E8A68",
"m. c #8F8A68",
"M. c #8F8B69",
"N. c #8D8A68",
"B. c #8E8A69",
"V. c #908B69",
"C. c #908A69",
"Z. c #908A6A",
"A. c #908C69",
"S. c #918C6A",
"D. c #918D6A",
"F. c #928D6B",
"G. c #938E6B",
"H. c #938F6C",
"J. c #958E6D",
"K. c #918C6A",
"L. c #95916D",
"P. c #97936E",
"I. c #96926E",
"U. c #97946F",
"Y. c #96926D",
"T. c #98936F",
"R. c #98946F",
"E. c #98946F",
"W. c #8F9171",
"Q. c #919473",
"!. c #999570",
"~. c #9B9772",
"^. c #9A9671",
"/. c #9A9671",
"(. c #9D9973",
"). c #9E9B74",
"_. c #9F9C75",
"`. c #9D9973",
"'. c #989A79",
"]. c #A29E77",
"[. c #A09D75",
"{. c #A5A279",
/* pixels */
"                                                                  C N e M V C C C C C                                                                           ",
"                                                            J L D c w v 0 o N M.1.6.0.,.:.U H                                                                   ",
"                                                        J J L V N L 4./.b X B ^.M.M.M.z.S.S.S.S.:.B                                                             ",
"                                                    J J D D N C :.L.z.M.m X C T.j.j.9.S.j.f.q.f.L.U.f.H                                                         ",
"                                                  J D J L V H J.M.7.7.^.H . H ,.U U U U U 1.M.M.9.1.S.^.v.B                                                     ",
"                                                J J J J C C L.f.r.9.v.0.I w S ~.z.9.1.:.U U U ,.j.z.f.j.S.^.P                                                   ",
"                                              J J L D D V 0.S.9.r.M.,.H H.,.> B j.f.f.M.S.4.:.U I :.f.f.9.j.L.S.                                                ",
"                                              J J D J V L J.p.p.N.7.H 0.!.,., o U z.9.j.j.<.9.L.4.U I 9.z.j.f.f.f.                                              ",
"                                            J J J J J V :.S.9.j.M.I :.v.L.I o w S.f.9.v.r.4.j.j.v.S.1.L 1.S.4.j.v.,.                                            ",
"                                            J J J J J V 6.v.j.v.1.I M.9.L.B X I L.p.j.j.j.1.9.j.p.p.Z.f.H 1.S.9.f.p.                                            ",
"                                          J J D J J J V 9.f.v.S.U U S.j.S.0 w !.v.v.9.v.v.v.v.9.9.j.j.v.4.H f.f.f.H.U                                           ",
"                                          J J J J J C C f.v.9.S.U :.j.L.,.; I L.9.9.j.j.9.j.j.j.v.9.4.9.S.U I S.9.S.3.                                          ",
"                                          D J J J J C C f.f.f.v.U <.j.!.B q !.l.j.j.j.9.f.j.f.j.j.q.p.f.f.v.P 9.f.v.9.                                          ",
"                                          J J J J J C H Z.p.p.p.I 4.v.L.x P ].v.f.j.j.j.j.j.f.9.j.q.f.9.f.S.U U S.v.f.                                          ",
"                                          J D J D D C C Z.f.f.9.U 4.j.9.N I U u.L.^.Z.9.v.S.j.j.f.f.9.4.j.f.1.U S.f.p.                                          ",
"                                          J J J J D C L Z.f.v.1.U v.f.,.H B ; w b G 7.S.9.1.j.M.!.L.M.j.q.j.9.U 9.f.p.                                          ",
"                                          J J J J J C J v.p.f.0.I f.v.M.B q > ; : o v _.B q J.0.B n 9.S.f.9.j.U 4.v.9.                                          ",
"                                          J D J J J C D v.f.f.6.L 9.f.L.,.8 q x 8 : e ^.v 0 (.H . . C L.f.4.j.U ,.v.f.                                          ",
"                                          D J J J J C G v.f.f.6.L 3.9.v.H.0 B !.1.x 0 ^.e x ).m 0 q q 9.v.9.S.:.U j.j.                                          ",
"                                          J J J D J C J v.f.v.6.L 4.l.v.1.8 H !.{.v x /.0 v ).x b L : 1.S.j.S.:.U N.f.                                          ",
"                                          J J J D J C G v.v.v.,.U M.f.S.:., L `.9.: U U.8 B (.w m 9.: I H.u.v.U :.S.f.                                          ",
"                                          J J J J J C G v.f.v.,.U S.9.L.:.> :.].e q /.9.8 B ^.q B L., S !.u.v.U :.S.9.                                          ",
"                                          J D L J J C G f.v.v.,.I M.r.M.H > v.I : 4./.<.: H !.9 P {.0 n !.v.S.:.U S.j.                                          ",
"                                          D D D J J D G l.f.v.:.I S.j.U.H 0 P 8 I ^.S.U : I J.0 B P X m L.9.S.:.U S.v.                                          ",
"                                          J J D J J C C p.v.v.,.U j.j.L.N w B 0 L.f.L.I ; :.S.q : 8 v 9.S.9.f.U ,.M.f.                                          ",
"                                          J J J J J D H p.f.S.:.U j.4.d.x e 1.0 1.S.U.H : 6.0.0 L j.U.S.j.v.j.L 1.M.f.                                          ",
"                                          J L D J J D C 9.f.Z.:.U S.4.z.x x S.0 I L.U.B > f.:.q S.L.j.j.j.r.f.U ,.v.j.                                          ",
"                                          D D J J J J C 9.f.Z.:.L v.9.j.q c (.q B U.L.n , S.I 0 p.v.v.9.j.4.M.U ,.v.9.                                          ",
"                                          J J J J J C C 9.Z.S.:.I M.j.4., n [.x v ^.L.v 8 T.L 0 p.v.p.9.9.j.j.U 1.v.f.                                          ",
"                                          J J J D J J C 6.Z.S.U :.S.z.:., P ^.b w L.L.0 8 ~.H 0 v.v.f.f.v.f.9.U 9.f.j.                                          ",
"                                          J J D J J J C 1.Z.S.U I j.S.9.I p.S.G : p.L.B m ).n 8 S.f.j.v.j.4.f.U f.j.                                            ",
"                                          J J J J J J V ,.Z.S.:.U j.f.4.4.p.q.:.n 6.f.S.S.J.G v H.f.v.4.4.j.1.U f.9.                                            ",
"                                          D D J J J J V 1.M.S.U U j.<.4.<.j.<.v.L.9.j.v.N.9.f.v.v.f.f.9.9.M.<.U v.f.                                            ",
"                                          D L J J J L V :.S.S.U U 4.<.j.4.4.3.f.v.j.j.j.f.9.v.v.9.9.f.f.j.f.,.U M.f.                                            ",
"                                          J J J J J L V :.S.S.U U 5.q.j.<.3.j.j.f.f.v.9.j.9.v.p.j.9.v.f.9.4.U :.v.j.                                            ",
"                                          J J D J D J V :.S.M.U U j.q.d.4.3.9.j.9.j.j.j.j.j.j.j.j.v.4.9.v.r.I :.S.j.                                            ",
"                                          L D J J J J V U M.H.I U M.j.9.j.U M.N.v.j.j.j.f.f.j.j.j.j.9.9.4.M.I ,.j.f.                                            ",
"                                          J D D J J J V U H.9.9.r.r.3.j.j.j.j.9.9.j.9.v.j.9.j.9.9.j.f.j.4.M.I 4.9.f.                                            ",
"                                          J J J J J J V U L.9.j.N.1.4.j.j.4.j.9.j.j.9.j.j.9.j.j.j.j.j.j.f.j.U 9.j.j.                                            ",
"                                          J J J J D K F Y '.W.W.c.c.r.r.3.3.j.j.j.9.j.j.f.f.f.4.9.j.j.9.j.9.j.j.9.j.                                            ",
"                                            J J C K Z h l *.=.-.;.3.c.W.M.B.l.u.N.N.9.N.f.j.f.9.j.f.f.f.f.c.9.7.v.9.                                            ",
"                                            J J K Z 6 6 = * * * 7 ^ j A P u.Q.9.9.v.M.9.f.9.9.v.W.W.W.Q.W.W.W.N.j.                                              ",
"                                            J J J y = y 6 7 5 5 ` X._ ) W p S Q.W.f.c.W.S.j.W.Q.>.&.j l z A -.v.M.                                              ",
"                                            C K H 5 7 7 7 7 5 4 7 ` O.+.O.) W k j d a A p.Q.>.j 5 & * R ) T & i M.                                              ",
"                                            K L g 5 - 5 y t ! { ( W W ` } o.O.R 6 # 6 @ r h @ & 6 5 } #.@.( % * *.                                              ",
"                                            K a R O.( 7 t 5 ( @.@.O.( 5 ` o.O.| p % % 2 - = W p 5 5 7 / ` i 7 5 5 5                                             ",
"                                    y y 6 y s * p ' ~ 7 y y 5 i ~ } O.} } o.' W $ # p ' X.O.$.Q $ i ! ` }  .i 5 7 6                                             ",
"                                    y 7 5 6 5 % u % # t i y 5 W ' o.o.o.} o.( 5 7 t ' +.o.o.( $ 5 } #.+.O./ 5 5 7 5                                             ",
"                            t i y y y y y 7 5 ! +.} 5 $ t i 5 i ` ` } +. .} O.~ % W [ o.O./ + t 5 i ' ' i 5 y i 5 i 5 i     5 5                                 ",
"                          i i 5 i 5 y y t 5 / +.o.O.! % < 3 i 5 2 t y Q } O.o.o.y t [ O.+.o.u # t i 2 $ 5 t i 5 5 } ' ! W ! } i 5 i                             ",
"                        i 5 i 5 5 i i 5 5 t o.O.} O.( 5 i t 3 ~ [ | ` ^ Q } o.O.y / +.` ~ t 5 $ ! %.' # t t i 5 5 } @.~ t i #.( 5 5 i                           ",
"                        t i 7 i i y 7 i 5 4 ( O.+.o.i 5 | ~ 2 } +.o.o.O.} } } W 7 } / / ~ Q u % W ~ W t 5 i y 7 7 i ~ ` 7 4 ( ! t 5 4 t                         ",
"                      y i i 5 t t 2 < 5 y p $ W / y 5 ! p y 5 ( O.| } |  .O.o.} O.^ Q +.+.+.X.i % 5 t < 3 i 5 t 2 $ i ~ { W 4 5 5 ! ' i                         ",
"                    y i 5 i 2 2 5 5 % $ ! +.~ # % i } p $ 5 5 5 ' O. . .} ` ( ` ` Q } o.} } O.@.y 5 i 3 i 5 % % y ^ i ! #.o.t t 5 ( #.+.!                       ",
"                    i 5 i y t i 5 W ( / W } @.d ! +.( i 7 i i 5 5 ` O.O.o.} / ~ ` O.+.O.O.+.O.` t t % t $ $ i ! o.#.~ ! O.` i 5 5 5 W ( ! 5                     ",
"                  i t 7 t 5 i 7 5 } +.#.} ` +.( ' O.' ` i 4 % t - 5 i ` } } } ( ' ` ` ( ( ~ i % < 2 t % p } X.O.O.( ! W 5 5 5 i i 5 5 5 5 t                     ",
"                  y y 7 t i t 5 u } +.` i ! } ` } } ` 5 $ - y 5 2 t 5 5 5 y t 4 4 t 5 5 5 4 4 % + ! ( ! #.O.' O.i i #.( i ' i t t i 5 t i                       ",
"                  y y y i 5 i 5 5 i ! 4 ! +.} | O./ ! 3 % } #.i 5 2 t t 7 5 4 t t 4 5 } ! % ! ` } } i } ' i ' O.~ ` o.' +.o.t t 7 y i y y                       ",
"                  y y y i i 5 i i 5 4 5 i } O.+.+.` $ % i / } 7 5 2 t t 5 i ` } } ` ~ i 5 ` +.O.O.i % i i ! O.| +.O.| O.O.i 5 y y y y y y y                     ",
"                y y y y 5 5 5 O.#./ 5 i 5 7 ! ( ` ! 7 2 t 5 % i % 2 t 5 t | @.+.+.+.i + ` #.} ` 5 5 i ' o.O.o.} ' } O.} i 5 y y y y y y y                       ",
"                7 y 7 i i 5 i ~ ( i 4 4 5 y 5 4 5 5 i 5 $ 5 / o.` ! $ 2 i ` ` ` ~ t $ 5 / ` ! ` 4 4 } +.O.{ ' | 5 ~ ` 5 - 5 i 7 y y y y                         ",
"              i t y t t t i 5 5 4 7 / / y 5 y y t y 5 5 5 5 } O.O.O.! 5 7 5 5 4 4 $ i i 5 4 7 i 5 4 ! } +.! 5 i 5 5 % 4 t i i t y y       y y                   ",
"              y y y 5 i i 5 i 5 5 ` #.@.+.i 5 y 5 4 i } } ` } |  .+.o.5 $ t t 2 2 2 i y t i 5 W O.{ ~ ` ~ 5 5 4 i 5 i ` O.` 5 5           y y y y               ",
"                y y i t 7 i t i y i / ( } ! 5 5 i ( ` ( o.@.o.} } ` | ' i $ 5 i t t 7 y y y t i ` o.| ' ! 4 y y 4 7 ' } ` 5 4         y     y                   ",
"                y y y y y y y y i 5 5 5 5 5 5 ` @.#.~ % ~ ` { X.` p / @.+.o.W t t i t y t 7 i 5 5 t y 5 4 5 ! { ( ! ! i i ! ` ! y y y y y                       ",
"                    y y y y y y 5 i y 5 i t 5 ` } ~ t 5 5 5 } @.| W ( o.| [ i 5 y y y 7 i 5 t 7 y 5 5 5 ( +.+.| } O.o.} O.+.#.' 5 t i                           ",
"                                      y y y i 5 5 5 5 i i 5 W ( ( i ` O.O.' y 5 y y y t y i 5 i y y y 5 ( } ( ` o.O.O.O.O.' ! t 5                               ",
"                                          y y 5 7 y y y 7 5 5 5 5 5 ~ ' } O.+.~ 5 i 5 i t 7 i t y y y y t 5 5 t ! ! ! ! W 5                                     ",
"                          y y y y i i 5 i t y y y y y y t               i W ~ ~         y y 5 i y y i 5 y 5 i 5 5 5 5                                           ",
"                            y y 7 t 5 i 5 i y y           i                               5 5 5 5 5 i i y i                                                     ",
"                              y t i t i i i               y y y       i t       y y         (               i ( ! i                                             ",
"                                i 5 i 5                               5 i         y     } O.O.| O.          ~ #.+.O.` 4                                         ",
"                                                                                      ! ` ! ~ O.O.'         5 ! } O.` !                                         ",
"                                                                                i 5 5 | +.} } O. .` i ' O.` i % 4 5 5 O.}                                       ",
"                                                                              y i 5 5 i ` }  .} ! 4 t ~ } } o.} ~ 5 5 ! !                                       ",
"                                                                          y y y y i i 5 4 i i 5 5 t i 4 5 ` o.O.` 5 t 5 5 i y                                   ",
"                                                                          y y y y y y 7 t 5 5 5 y y y i 5 5 i i 5 5 y y y y y                                   ",
"                                                                              y y y i t y   i i y y y y i t 5 5 y i y                                           ",
"                                                                                            y y y y 7                                                           ",
"                                                                                            y y y y                                                             "
};
