/* XPM */
static char *_29f7cbcae9243b8d819fcda85da75b30QgXGgofrUYBSWK1[] = {
/* columns rows colors chars-per-pixel */
"80 80 241 2 ",
"   c None",
".  c #000101",
"X  c #05050B",
"o  c #140C12",
"O  c #1A1619",
"+  c #1E1B1B",
"@  c #171216",
"#  c #13090B",
"$  c #26000A",
"%  c #280114",
"&  c #360813",
"*  c #211E1E",
"=  c #33110E",
"-  c #172215",
";  c #22241C",
":  c #27351A",
">  c #2D3018",
",  c #311821",
"<  c #252321",
"1  c #2B2B25",
"2  c #2A2B25",
"3  c #2A3726",
"4  c #32332A",
"5  c #35392C",
"6  c #393E2D",
"7  c #393928",
"8  c #3A3D32",
"9  c #363333",
"0  c #342C2E",
"q  c #1E0022",
"w  c #561817",
"e  c #481011",
"r  c #48281D",
"t  c #5B221A",
"y  c #513C1A",
"u  c #66221C",
"i  c #452A23",
"p  c #55262A",
"a  c #483626",
"s  c #563727",
"d  c #6A2929",
"f  c #733030",
"g  c #5C141B",
"h  c #3C432E",
"j  c #3B4828",
"k  c #3D4432",
"l  c #3C4F38",
"z  c #3D5A3B",
"x  c #6F581C",
"c  c #796C1A",
"v  c #464829",
"b  c #414635",
"n  c #434B34",
"m  c #424639",
"M  c #444A3A",
"N  c #4A4833",
"B  c #455334",
"V  c #4B543B",
"C  c #4E593D",
"Z  c #475738",
"A  c #505C3F",
"S  c #574532",
"D  c #69562B",
"F  c #714B2D",
"G  c #54633D",
"H  c #736226",
"J  c #58481F",
"K  c #1D2556",
"L  c #523948",
"P  c #3D4944",
"I  c #284D76",
"U  c #4D5441",
"Y  c #4C5645",
"T  c #535E42",
"R  c #555F48",
"E  c #545748",
"W  c #585858",
"Q  c #4E4A4B",
"!  c #6A4345",
"~  c #6C504F",
"^  c #546042",
"/  c #596646",
"(  c #5B6946",
")  c #59644A",
"_  c #5D6B4B",
"`  c #566547",
"'  c #586856",
"]  c #5A7650",
"[  c #626D4E",
"{  c #63674D",
"}  c #62714D",
"|  c #67774C",
" . c #626D52",
".. c #696D51",
"X. c #657353",
"o. c #697655",
"O. c #6A7B55",
"+. c #6D7D5A",
"@. c #687757",
"#. c #747A56",
"$. c #777246",
"%. c #516964",
"&. c #656869",
"*. c #687E66",
"=. c #75716D",
"-. c #893E31",
";. c #994434",
":. c #845635",
">. c #8F5330",
",. c #866827",
"<. c #86742B",
"1. c #907134",
"2. c #936D4A",
"3. c #AC794A",
"4. c #8F6973",
"5. c #90525D",
"6. c #6F805A",
"7. c #6D8759",
"8. c #72845C",
"9. c #76895F",
"0. c #748354",
"q. c #6D8666",
"w. c #748461",
"e. c #768A62",
"r. c #7A8E63",
"t. c #788869",
"y. c #7D9366",
"u. c #7D9469",
"i. c #78966B",
"p. c #7D837F",
"a. c #BA961B",
"s. c #B29731",
"d. c #B3A93B",
"f. c #A79224",
"g. c #C4922F",
"h. c #C6B236",
"j. c #F0D637",
"k. c #FFE237",
"l. c #D2CC3E",
"z. c #AC8357",
"x. c #819669",
"c. c #83996B",
"v. c #889E6F",
"b. c #819867",
"n. c #899E71",
"m. c #809B71",
"M. c #89A26F",
"N. c #85A26F",
"B. c #8CA372",
"V. c #8EA976",
"C. c #8BA978",
"Z. c #91AB76",
"A. c #92A779",
"S. c #94AC7A",
"D. c #99AD7F",
"F. c #90A676",
"G. c #95B17A",
"H. c #99B47D",
"J. c #9CB97F",
"K. c #98A669",
"L. c #CF995F",
"P. c #FFFF56",
"I. c #FFFF4E",
"U. c #283C94",
"Y. c #274598",
"T. c #23599C",
"R. c #2E4E90",
"E. c #1652AB",
"W. c #2848AA",
"Q. c #2859A9",
"!. c #2B45B4",
"~. c #1970B5",
"^. c #1F6E97",
"/. c #6D7482",
"(. c #1A6FD0",
"). c #BA7684",
"_. c #C27E84",
"`. c #6B8585",
"'. c #1685D8",
"]. c #2281D3",
"[. c #89878A",
"{. c #8A8693",
"}. c #8D8E8D",
"|. c #BA959A",
" X c #B68791",
".X c #9AAE81",
"XX c #9DB382",
"oX c #9DB984",
"OX c #A3B689",
"+X c #A5B98B",
"@X c #A9BC8E",
"#X c #A1BA85",
"$X c #ABBD91",
"%X c #A2BB92",
"&X c #A8A29F",
"*X c #929DA3",
"=X c #9DAFB7",
"-X c #A7A5A9",
";X c #A9ACB4",
":X c #B6AEB2",
">X c #A6B7BC",
",X c #B4B4B8",
"<X c #B8A1A9",
"1X c #A59AA1",
"2X c #C89097",
"3X c #D69BA4",
"4X c #D2B1B6",
"5X c #F0B7BE",
"6X c #A8C48A",
"7X c #ADC292",
"8X c #AEC992",
"9X c #B1C596",
"0X c #B4CC96",
"qX c #B5CB99",
"wX c #B4C798",
"eX c #BBD49C",
"rX c #BED3A2",
"tX c #C2DCA3",
"yX c #CCE7AC",
"uX c #B1BEC8",
"iX c #C7BBC4",
"pX c #DCBBC1",
"aX c #E4BAC2",
"sX c #B6C6CC",
"dX c #B9CAD2",
"fX c #B0CACE",
"gX c #C9C6C8",
"hX c #C6CAD2",
"jX c #C7D4D7",
"kX c #D6DADC",
"lX c #D7C6D0",
"zX c #FED7D9",
"xX c #F7CCCF",
"cX c #CFDEE3",
"vX c #E0DEE0",
"bX c #D9ECF2",
"nX c #FFE5E8",
"mX c #FDF4F4",
"MX c #FFFFFF",
"NX c #FAF8FA",
"BX c #EEEEEF",
/* pixels */
"                                                                                                                                                                ",
"                                                                                                                                                                ",
"                                                                                                                                                                ",
"                                                                                  + +                                                                           ",
"                                                                                    *                                                                           ",
"                                                                                    @                                                                           ",
"                                                            <                     2 <                                                                           ",
"                                                              @       4 R X.8.r.V.) 8 V.r.8.} U 4                                                               ",
"                                                                1 m n.n.c.B.Z.B.G.o.) Z.S.@X6XXXc.+.U                                                           ",
"                                                          2  .F.B._ 6.( o.u.N.c.b.M.B.c.c.B.D.+XOXH.J.B._                                                       ",
"                                                      1 o.S.H.y.O.C T e.B.v.x.c.c.c.c.c.c.y.y.v.#X@X+X+XqXn.h                                                   ",
"                                                  O O.H.S.O.A V b +.V.B.c.c.c.c.c.c.c.c.c.x.c.y.r.v.+X7X@XqX0XX.                                                ",
"                                                8 _ B.9.A V V A 9.V.v.x.c.c.x.c.c.c.c.c.c.c.c.c.c.b.b.D.@X+X9XqXr.O                                             ",
"                                              V 8Xe.1 C A T V 9.Z.c.x.c.c.c.c.c.c.c.c.c.c.x.c.c.c.c.x.r.A.$X+X@XqXB.<   * *                                     ",
"                                            ) 6Xc.( V A ^ V X.V.c.c.c.c.c.c.c.c.c.c.c.c.c.c.c.x.c.c.c.x.u.F.$X+X9X#Xm O                                         ",
"                                          ) 8Xr.V V / ^ C ` v.v.x.c.c.c.x.c.c.c.c.b.c.c.c.c.c.c.c.c.c.c.c.r.F.$XqXt. .c.                                        ",
"                                        m #X8.V C ^ ^ ^ V 8.V.x.c.c.c.c.c.c.c.x.c.c.c.x.c.c.c.c.c.c.c.c.c.x.u.A.@X+XwX7XX.                                      ",
"                                      2 S.8.n G ^ ^ ^ T ^ u.v.c.c.c.x.c.c.c.c.c.c.c.c.c.c.c.c.c.c.x.c.c.c.c.b.u..X$X+X$X+Xb                                     ",
"                                    o w.y.B ^ ^ T ^ ^ C } B.c.c.c.c.c.c.c.c.c.c.c.c.c.c.x.c.c.x.c.c.c.c.c.c.c.x.c.OX+X+X7XB.2                                   ",
"                                    m v.V T ^ ^ G ^ ^ V O.B.c.c.c.c.c.c.c.x.c.c.c.x.c.c.c.c.c.c.c.c.x.c.x.c.c.c.b.v.$X+X+X6X+.                                  ",
"                                  o 8.O.V ^ ^ ^ ^ ^ ^ V 8.B.c.c.c.c.c.c.c.c.x.c.c.c.c.c.c.c.c.c.c.c.x.c.c.c.c.c.c.y.A.@X+X+X#XM                                 ",
"                                  m M.C ^ ^ ^ ^ ^ ^ T C 8.B.c.c.x.c.c.c.c.c.c.c.c.c.x.c.c.c.c.c.c.c.c.c.c.c.c.c.c.x.c.+X+X$X7Xo.o                               ",
"                                  @.y.V ^ T ^ ^ ^ T T C r.B.c.c.c.c.c.c.c.c.c.b.x.c.c.c.c.c.c.c.c.c.c.c.c.x.c.c.c.c.u.S.$X+X@Xn.n                               ",
"                                * u.} A ^ ^ ^ ^ ^ ^ ( 5 _ S.x.c.c.c.c.x.c.c.b.u.b.u.b.u.u.x.c.c.x.c.c.c.c.c.c.c.c.c.u.B.@X+X@XqXB.O                             ",
"                                m x.C ^ T ^ ^ ^ G ^ / V 5 c.B.c.c.c.c.c.c.u.v..XXX.X.X.XA.x.r.c.c.c.c.c.c.c.c.c.c.c.b.b..X$XOX$X8XV                             ",
"                                { r.V ^ ^ ^ ^ ^ T T G _ 7 R S.c.x.c.c.x.c.b.B.+X$X$X9X$X$XOXF.x.b.c.c.c.x.c.c.c.c.c.c.y.B.$XOX+XwXr.o                           ",
"                              o 6.| C ^ ^ ^ ^ ^ ^ ^ ^ ^ A k c.v.c.x.c.B.c.c.x.x.c.c.S.@X+X+X$X.Xy.x.c.c.c.c.x.c.c.x.c.c.x..X$XOX$X6X8                           ",
"                              4 u.^ T ^ ^ ^ T ^ ^ ^ ^ ^ ( 4  .Z.x.v.n.8.r.c.c.c.b.u.u.D.$X+X+X$X.Xb.x.c.c.c.c.c.c.c.c.c.x.n.@X+X@X0X_                           ",
"                              M 8.V ^ ^ ^ ^ ^ ^ T ^ T ^ ( 4 R S.c.B.} A c.v.x.c.c.c.b.c.S.7X7X8X9XA.u.c.c.c.c.c.c.c.N.c.b.c.+X+X+XqXx.                          ",
"                              U _ V ^ ^ ^ ^ ^ T ^ ^ ^ ^ ( 4 ` S.V.9.n 9.B.c.v.B.B.B.B.v.u.u.v.#X$XS.x.x.c.c.c.c.c.B.8.0.c.c.+X$X+XwXA.*                         ",
"                              X.O.C ^ ^ ^ ^ ^ ^ ^ T ^ ^ ( 3 R S.v./ C B.Z.M.c.y.7.} G Z v j j j | b.v.c.c.c.c.c.B.8.A M.S.B..X$X+X9XXX1                         ",
"                            O o.} T ^ ^ ^ ^ ^ ^ ^ ^ ^ ^ ( 4 X.G.e.C C 0.y.G 7 6 m Q ' &.*.[.}.p.&.k | V.c.c.b.B.Z.B 7 O.r.( G 0.c.n.F.5                         ",
"                            * +._ A ^ ^ ^ T G ^ ^ ^ ^ ^ C 5 r.S.O.V _ j : P &.*X=XuXsXsXdXsXfXdXdX/.5 B.c.c.N.v.Z Y `.W 9 &.&.W 9 Z G.4                         ",
"                            1 8./ ^ T ^ ^ ^ T ^ ^ ^ T ( k m Z.B._ ^ j Q {.<XcXjXfX>X>XsXjXkXvXjXiXiXQ | V.c.S.Z L 4XbXW . &.bXdX=XE _ ;                         ",
"                            4 8.G T ^ ^ ^ ^ ^ ^ ^ ^ T } 4 ) H.u.^ G 3 ,X5X,XuX>X>XjXBXMXMXMXMXMXMXmX{.B Z.N.i.a ).jXdX*XQ /.fX>XbX*X#                           ",
"                            1 9.^ ^ ^ T ^ ^ ^ T ^ T ( k 2 c.Z.r.^ B Q 2X:X;X;X>XBXMXMXMXMXMXMXMXmXNX1XB Z.J.7.~ iX>X>XdXdXdXhXsX>XdX9                           ",
"                            1 w.^ T ^ ^ ^ ^ ^ ^ ^ ^ A 4 +.Z.B.8.A j Q hX,X|.=XBXmXW &.lXMXMXMXMXMXmX4.A Z.8X| `.iX XfX>XjXNXMXMXcXgXa                           ",
"                            < w.( ^ ^ ^ T ^ ^ ^ ^ ^ n 6.H.x.B.6.C j &.kX_.-XdXMXkX. . . BXMXMXMXMXMX[.Z Z.9Xq.~ 3XfX=XjXMXMXMXMXMXxXX                           ",
"                              +.| A ^ ^ ^ ^ ^ ^ G ^ C 9.B.x.B.8.V B E 3X|.<XNXMXMX-X9 =.BXMXMXMXMXmXF ] N.+Xi.! lX-X:XMXMXMXMXMXMX:X                            ",
"                              @.8.V ^ ^ T ^ ` ^ T A A u.B.x.B.r.A G a >X<X4XMXMXMXMXMXMXMXMXMXMXMXlX0 u.b.S.eXU {.3XkXMXMXMXMXMXmXS X                           ",
"                              ) 9.V T / ( C n V ^ C ( v.c.c.v.Z._ A : ;XaXvXMXMXMXMXMXMXMXMXMXMXMX5.3 S.b.c.wXA.7 {.NXmXMXNXMXMX4X3 ^                           ",
"                              8 b.C [ V < M ^ V 5 n c.B.u.v.O.r.Z.^ j S xXMXzXzXMXmXMXMXmXmXmXNXMX> ( V.x.u.A.rXXXl 4.mXMXmXMXNX! z M.@                         ",
"                                +.c.h < X.S.XXH.t.9.v.n.O.r.b.V 9.c.} - =.MXnXnXMXxXmXMXxXmXMXzXW - b.n.v.M.B.$XqX6X; }.MXzXMX X# 0.r.<                         ",
"                                m c.; n.tX$X+X$XwX7Xv.v.o.T XX9.h _ | / : =.aXMXMXnXnXMXmXMXhXi . V B.v.u.+.c.6XqXrX6X3 pXMX X2 3 X.+.                          ",
"                                  @ X.yX$XOXOX$X+X@X+Xn.9.b [ H.y.B n ^ ( : N }.,X4X4XgX&X=.4 - * o.S.Z. .< | 9.S.B.J.l 0 =.= - 4 c.E                           ",
"                                  2 7X7XA.Z.S.+XqX+X$X#Xb.G 6 [ H.c.} C V / h : j Z Z j : - h < 8 B.v.B.r.4 5 h k n 7 b + . l M _ w.+                           ",
"                                  X.0XS.c.) U U e.9X9X+XZ.O.Z n X.S.B.8.O.X.V k l n k n V 6 < M v.B.x.x.V.r.k h k 7 b c.B.R k n c.V                             ",
"                                  x.8Xe.k 4 n n * O.qXS.u.V._ V n e.V.x.6.( ^ ^ V V V n 6 5 ) Z.V.x.c.x.c.B.c.X.} 8.M.M.M.V.+.+.c.*                             ",
"                                @ x.+X^ + } ( ( V 1 e.T 1 y.y.A n  .V.v.r.| / A b 5 k M R x.G.c.u.u.u.b.c.c.B.F.B.F.v.u.u.v.oXyXw.                              ",
"                                  r.Z.v._ V ^ T ( n < 5 V V 8.O.n T c.c.v.B.c.9.8.+.9.B.S.v.c.v.B.S.#X+X6X+X7X0X7X%XXXOX8X7XwXeXo.                              ",
"                                  @.G.B.c.C n O.x.^ V ^ / A / y.T ^ c.c.c.c.c.B.B.B.B.c.x.c.A.#XoXOXn.*.q.+.#.X.X.#.#.#.' +.@.*.E                               ",
"                                  M J.c.B.e.^ y.S.e./ A V A A v.X.O.V.c.c.x.c.c.c.c.n.S.C.q.q.+.) 8 v H ,.l.H . x a.j.,.X c a.s.4                               ",
"                                    w.H.x.B.M.u.c.B.n.r.} V / Z.O.O.B.c.c.c.c.c.v.H.i.' ` $.v & e $ J k.k.P.z.X <.k.P.,.q <.k.P.v                               ",
"                                    @ u.J.c.c.c.c.c.c.B.B.O.+.S.X.O.B.c.c.c.y.Z.C.` 6 x a.P.s.o w w i c <.1.F q D d.d.s d a v v 1                               ",
"                                        X.H.Z.v.x.b.x.x.c.c.c.S.9.6.B.c.c.c.B.r.5 $ y j.h.d.D = t t w $ & g f -.f p p f ;.,                                     ",
"                                          M u.XXG.S.n.B.A.D.G.c.e.c.c.c.c.c.G.6 $ u i a % % e u t w t d f f d -.;.-.:.;.f                                       ",
"                                              k @.S.7XqXrX6X+.+ b G.c.c.c.c.V.X.= $ x f.1.t w w w u f D <.2.<.d -.-.-.-.p                                       ",
"                                                  ; b T T 5     4 Z.N.u.c.c.c.Z.q.9 H s.l.y $ e w -., c a.j.j.r w u u d %                                       ",
"                                                                  o.oXu.c.c.u.c.C.G.t.' o.O._  .{ { _ O.0.#.0.X...+.+.q.u.E O                                   ",
"                                                                  + @.oXB.c.c.c.c.c.N.B.B.Z.S.S.Z.Z.N.r.q.q.i.G.OX8XrXyXXX-                                     ",
"                                                                    i o.i.N.V.B.v.c.c.c.c.c.c.c.N.b.} / ^ C A / r.qXtXx.@                                       ",
"                                                                    2.s $...@.q.w.b.Z.G.G.S.Z.Z.S.Z.G.G.S.Z.v.y.XX+XX.o                                         ",
"                                                                  F >.F :.>.2.2...' 8 8 T R  .X._  .} X.@.+.+.X.U ;                                             ",
"                                                                  F :.3.2.F :.3.#.e.)       1 *                                                                 ",
"                                                                  D >.3.z.3.2.s     x.A.                                                                        ",
"                                                                K U.>.g.z.L.z.      M U                                                                         ",
"                                                                T.E.T.#.3.L.                                                                                    ",
"                                                                Q.T.~.(.Q.I                                                                                     ",
"                                                                W.~.Q.Y.E.E.                                                                                    ",
"                                                                Y.].^.K W.~.                                                                                    ",
"                                                                Y.].    !.].                                                                                    ",
"                                                                !.!.    !.'.                                                                                    ",
"                                                                Y.E.    Q.%.                                                                                    ",
"                                                                R i.    ] K.                                                                                    ",
"                                                                | K.    | n.                                                                                    ",
"                                                                _ n.    V F.U                                                                                   ",
"                                                                } S.B.  k b.oXw.                                                                                ",
"                                                                b V _ o.b ; 2 R M                                                                               ",
"                                                                                                                                                                ",
"                                                                                                                                                                "
};
