/* XPM */
static char *_565_1ecd73cafe9388cfeb236bc2d37b7976cde3fb36e39d26388daab66abf90d204[] = {
/* columns rows colors chars-per-pixel */
"80 80 55 1 ",
"  c #040404",
". c #070807",
"X c #080807",
"o c #0D0C0C",
"O c #11100F",
"+ c #151413",
"@ c #181716",
"# c #171816",
"$ c #191817",
"% c #1D1C1B",
"& c #201F1E",
"* c #21201F",
"= c #252322",
"- c #292626",
"; c #2A2827",
": c #2D2B2A",
"> c #312E2D",
", c #33302F",
"< c #353332",
"1 c #393635",
"2 c #3C3837",
"3 c #3E3A39",
"4 c #413E3C",
"5 c #44403F",
"6 c #464341",
"7 c #4A4544",
"8 c #4D4947",
"9 c #4F4A48",
"0 c #524D4B",
"q c #55514E",
"w c #575250",
"e c #5A5553",
"r c #5E5956",
"t c #5F5A58",
"y c #605957",
"u c #625D5A",
"i c #66615E",
"p c #68625F",
"a c #676260",
"s c #6B6562",
"d c #6E6966",
"f c #6F6A68",
"g c #706A67",
"h c #736D6A",
"j c #76716E",
"k c #78726F",
"l c #7B7572",
"z c #7E7976",
"x c #817A77",
"c c #827C7A",
"v c #87817D",
"b c #88817F",
"n c #8B8582",
"m c #918B89",
"M c None",
/* pixels */
"MMMMMMMMMMMMMMMMMMMMMMMMMMMMMMMMMMMMMMMMMMMMMMMMMMMMMMMMMMMMMMMMMMMMMMMMMMMMMMMM",
"MMMMMMMMMMMMMMMMMMMMMMMMMMMMMMMMMMMMMMMMMMMMMMMMMMMMMMMMMMMMMMMMMMMMMMMMMMMMMMMM",
"MMMMMMMMMMMMMMMMMMMMMMMMMMMMMMMMMMMMMMMMMMMMMMMMMMMMMMMMMMMMMMMMMMMMMMMMMMMMMMMM",
"MMMMMMMMMMMMMMMMMMMMMMMMMMMMMMMMMMMMMMMMMMMMMMMMMMMMMMMMMMMMMMMMMMMMMMMMMMMMMMMM",
"MMMMMMMMMMMMMMMMMMMMMMMMMMMMMMMMM>MMMMMMMMMMMMMMMMMMMMMMMMMMMMMMMMMMMMMMMMMMMMMM",
"MMMMMMMMMMMMMMMMMMMMMMMMMMMM-4:wry0,%MMMMMMMMMMMMMMMMMMMMMMMMMMMMMMMMMMMMMMMMMMM",
"MMMMMMMMMMMMMMMMMMMMMMMMMM77141459eu:5>MMMMMMMMMMMMMMMMMMMMMMMMMMMMMMMMMMMMMMMMM",
"MMMMMMMMMMMMMMMMMMMMMMMMM<75632;5745qe<=MMMMMMMMMMMMMMMMMMMMMMMMMMMMMMMMMMMMMMMM",
"MMMMMMMMMMMMMMMMMMMMMMMM4<905qq8,$*747q:$;226u<MMMMMMMMMMMMMMMMMMMMMMMMMMMMMMMMM",
"MMMMMMMMMMMMMMMMMMMMMMMM3876yjdjr:+427,=;-116q1<,MMMMMMMMMMMMMMMMMMMMMMMMMMMMMMM",
"MMMMMMMMMMMMMMMMMMMMMMM>759hvbzbk0*;3q0=:;<,iw:51==$MMMMMMMMMMMMMMMMMMMMMMMMMMMM",
"MMMMMMMMMMMMMMMMMMMMMMMdqtlzzvjmvuqq,1q94:<6qs7:<:<:$MMMMMMMMMMMMMMMMMMMMMMMMMMM",
"MMMMMMMMMMMMMMMMMMMMMMheqrjlkvkbkhdsr<30e096:77225>5;$MMMMMMMMMMMMMMMMMMMMMMMMMM",
"MMMMMMMMMMMMMMM233%;56:3uhvzkjckhkjczp6ehlat&153<<48:%$MMMMMMMMMMMMMMMMMMMMMMMMM",
"MMMMMMMM2::&,:%=;%1ujeiaqzcnxhccjvzvkvhqrdnci:<35>-;-=%MMMMMMMMMMMMMMMMMMMMMMMMM",
"MMMMMM>6eur04q:41>60ghflssczvkzcchcnhuir8uhnce=,ue>,%*=$MMMMMMMMMMMMMMMMMMMMMMMM",
"MMMMM6866784ea38q659jlczlzzaidhclczlkfep5euacu:$*0$1,$-;MMMMMMMMMMMMMMMMMMMMMMMM",
"MMMM71430qtate,:865itllnzcnjeqsjlcnlxh0wujfruu3*>2%,1=$:*MMMMMMMMMMMMMMMMMMMMMMM",
"MMM335e0:qpei86390qwukiiifnlhrivlhcnnh82ssdzhie;$=>--=*$*MMMMMMMMMMMMMMMMMMMMMMM",
"MMM5342uduis8<3wzu:9llcvlavbzjrshhhxcke<thscclj5=%;$%%;$%MMMMMMMMMMMMMMMMMMMMMMM",
"MM548a0ehq05<999py1ylzlhhpcnnlthidzclls5edlbhle9,=->+%>;%MMMMMMMMMMMMMMMMMMMMMMM",
"MM52wtptjsj515feswqgfhjhaakzzliqufgnllhuesfdhh<3==,2$%:;=MMMMMMMMMMMMMMMMMMMMMMM",
"MM88eq,69qqq,yi991ikkyjzlijkkksieyisdllpysfpr11;%-70>*-;%*MMMMMMMMMMMMMMMMMMMMMM",
"Me9qw7qew6dhq8e52yjdjplzzjpjfjzhkuusp7rlausdhu>&3$54**$:-;MMMMMMMMMMMMMMMMMMMMMM",
"M97rq9iqqeyh95uqifhgrjzkkzhvnxlvkbhtjk50w07eg04:<-<t6#$=-=$MMMMMMMMMMMMMMMMMMMMM",
"M700fe8<q7spq3q9phkltfpipklzzzlznnhkskpyw8<w01%0%339t31:%&#MMMMMMMMMMMMMMMMMMMMM",
"M252hh0q0thi0eeizlfpjftvfpiskfkkbvzkpdqia8r4:<<w<0878w1<;=$MMMMMMMMMMMMMMMMMMMMM",
"M24;6i855erw2twsfpqtde9jnfi0tpteyyww873tg03=<4433t8>u981:;=%%+MMMMMMMMMMMMMMMMMM",
"M137<1yqrq-=3qqisqikqe55ltkee9q9eq978qip0:=,375-6ud11796652-4-#MMMMMMMMMMMMMMMMM",
"MM767485w4r854qjdli8rq8qq8eseeqeseq8qqq4%@<442:6<7w37>1>363-2=%MMMMMMMMMMMMMMMMM",
"MM<qw82530r<993pttpdhqe3q5eqeeehhr97e3>,74142<96<3<33u0:-3w377=#MMMMMMMMMMMMMMMM",
"MM::5e003q<7rirq5qphrqqpiuweq5tffr5858uqu48->4f<23q5w0<3<<1<16-%XMMMMMMMMMMMMMMM",
"M44=>1q026whtyei56778007au0577weuyqitu6711w-=260q530pq6tr746:1;$oMMMMMMMMMMMMMMM",
"M57>%:2<36ufdfwueyiw700wyw7w24560qfew55i<5wi7;99055ee8qr9w6640-%+MMMMMMMMMMMMMMM",
"M644>=15>0ifihaaywutey52w440;5087qpfw=<2qsdzd56t565weq463t3944=$+MMMMMMMMMMMMMMM",
"M924:=63108ieyhhe9wiaeah772w54ww85e7958qftde957ie5099qdr8u4764:%#MMMMMMMMMMMMMMM",
"M>412<5<>5wu00iuweewyyihja4ei<8weq15336pr69q8e5isiir95hq78r:%-;%oMMMMMMMMMMMMMMM",
"M><3<:28>3405ui9w0wweydhi0w4w>255i43e9,9jqe<29i7iu7s56wppw04;;-%.MMMMMMMMMMMMMMM",
"M:,w6115<<55ee7t6w08yuhwq6uiy24w56qwp746e9t58q78e8qj3tuiwie9;-*%OMMMMMMMMMMMMMMM",
"M>-:<634<<17858se>89uea11eeq060e61:69086f98272880er88srde0w4:&%%$MMMMMMMMMMMMMMM",
"M>;>:3<<7-:47qwes>785ws858w085wat:;;<:5967731:5susuue90ew07>==:$$MMMMMMMMMMMMMMM",
"M11:<:>>52>,728ie:e580w3714>6w500w<qepeh8=4331qukaus6459439,:*-%%+MMMMMMMMMMMMMM",
"M11;<><4:5<2184582w:4253385156942wqs8atit=<23>wtswe0->=4954-;*;-%%MMMMMMMMMMMMMM",
"MM::>13:>2>2:43<2&>-:-6y64050000i66uadhle367%30ey00a;e95671:1;<==*$MMMMMMMMMMMMM",
"MMM;,:177<2=:,5>:&:117u050a766w0qtpu080zw8=718>8e0>8:r3:>1>44;;=%%%+MMMMMMMMMMMM",
"MMMM;466w4e2>;-==:24450498ua04600pisq60wfq-34t100080401-;<>44>;*%%-$MMMMMMMMMMMM",
"MMMMM056q47871>::->8858806007y33qiqte0e9tp1=>we390640<1%3671>:%%=*%:MMMMMMMMMMMM",
"MMMMM8694t>308<-11452463u7806036q07q60q8e955644><4869--%:481=;$&==-%#MMMMMMMMMMM",
"MMMMM663603,4>77>2:>54<<51958855400wt0770229767;41126;==131===%*%-;-+MMMMMMMMMMM",
"MMMMM3e464316-<<*1>-*915379663864699r6746296463-><4<-=;=-:%#%&;=%---$MMMMMMMMMMM",
"MMMMM3360e605>=>->**%*73405700yw9q7ww8643>u9591>---&%=:&&&%&&=-*:==-+MMMMMMMMMMM",
"MMMMM>1977e43=:=-,>>:*>111<17ey9659wwt9937wu27&:<--&&:>&=;%$%;:%<=--$ MMMMMMMMMM",
"MMMMM:7;>79e:;3144>>2::<-33>>399666799w6976d7;-:3--;>>-=%=+#$5,*==-=$XMMMMMMMMMM",
"MMMMM<-:::=:=;5,15,272,>:=341-00746794900544>=&;-&--;>::;,5%;==;:;=%$ MMMMMMMMMM",
"MMMMM3=-996:->1:<13%36,*:-=,<>->4><561745::1&&&&<::,>>-,;;<==;*;@;=%@MMMMMMMMMMM",
"MMMMM:r1:<1&;<>*=*,-<131:>=,&:<-1;4>2><55>22,*$&1;;;,>==-%#-=;:-=-&$oMMMMMMMMMMM",
"MMMMM:<-<%%%&**==&:-:2>w1;*:*;:=-%&:575><42-;%&&-;*:;=%=#=:=%%:;=&%#oMMMMMMMMMMM",
"MMMMM1>-$$&%*-;>%*=%>:&>---<<=:=$-:&-05:-*-*$&*&=;-;<;3>%;>;=-**==$OMMMMMMMMMMMM",
"MMMMM1=&$&&-&&&*>:-%%%%==&:>2<>&-><12:-=--:1-=*&:><31=<1:=;-=-:-=%+MMMMMMMMMMMMM",
"MMMMM>*:>---&&=*%*=-&&%:2=&;4;,2-:69<::<,;13-;=,;;&-:*=:*==::;&%#+MMMMMMMMMMMMMM",
"MMMMMM--:;;-;;*--%%==,=>4<%%:>><--=<77221-:,1,*<**%%*=;:-====-$#OMMMMMMMMMMMMMMM",
"MMMMMMM::-&&&*=*%=-::;=<1:=;*:72=<-121221<><>;**;=<:><-::;==$$+MMMMMMMMMMMMMMMMM",
"MMMMMMMM=-&**;&;*&*:>=:<>1>6,*:<>,-6<>111,:-:=1>>:3>:;;*=%$@oMMMMMMMMMMMMMMMMMMM",
"MMMMMMMMM&%-**-;-:&;%:>:=-&,-;==->-10<<1,>,*%-3::>;%%=$%++ooMMMMMMMMMMMMMMMMMMMM",
"MMMMMMMMMMMM*-==;:-<1%-;;&-::;>==><>164>2=&&%&;:-:&#OOoXoMMMMMMMMMMMMMMMMMMMMMMM",
"MMMMMMMMMMMMMM==%-&=1-;--%:;<6<3:%&>;>>&*=%&%%&%%@oXMMMMMMMMMMMMMMMMMMMMMMMMMMMM",
"MMMMMMMMMMMMMMM-*%%-==<<-:><-:132<&&&>>@-*=&$oMMMMMMMMMMMMMMMMMMMMMMMMMMMMMMMMMM",
"MMMMMMMMMMMMMMMM==*$%=;:1::1:::131:==>>;;-=&%XMMMMMMMMMMMMMMMMMMMMMMMMMMMMMMMMMM",
"MMMMMMMMMMMMMMMMMMM$%>==:::;;;1;><1<&::6><&%+ MMMMMMMMMMMMMMMMMMMMMMMMMMMMMMMMMM",
"MMMMMMMMMMMMMMMMMMMMMMMMM*+%%-<::&=:--,4-<@&OMMMMMMMMMMMMMMMMMMMMMMMMMMMMMMMMMMM",
"MMMMMMMMMMMMMMMMMMMMMMMMMMMM$&<4>>>=$2:>::%%+MMMMMMMMMMMMMMMMMMMMMMMMMMMMMMMMMMM",
"MMMMMMMMMMMMMMMMMMMMMMMMMMMMM#:;<-=344-=;&=@XMMMMMMMMMMMMMMMMMMMMMMMMMMMMMMMMMMM",
"MMMMMMMMMMMMMMMMMMMMMMMMMMMMMMM>>==3=:&;;==&MMMMMMMMMMMMMMMMMMMMMMMMMMMMMMMMMMMM",
"MMMMMMMMMMMMMMMMMMMMMMMMMMMMMMMM:=2,*----%$+MMMMMMMMMMMMMMMMMMMMMMMMMMMMMMMMMMMM",
"MMMMMMMMMMMMMMMMMMMMMMMMMMMMMMMM-%11,;=-%=@MMMMMMMMMMMMMMMMMMMMMMMMMMMMMMMMMMMMM",
"MMMMMMMMMMMMMMMMMMMMMMMMMMMMMMMMMM-;,<>:%MMMMMMMMMMMMMMMMMMMMMMMMMMMMMMMMMMMMMMM",
"MMMMMMMMMMMMMMMMMMMMMMMMMMMMMMMMMMMMMMMMMMMMMMMMMMMMMMMMMMMMMMMMMMMMMMMMMMMMMMMM",
"MMMMMMMMMMMMMMMMMMMMMMMMMMMMMMMMMMMMMMMMMMMMMMMMMMMMMMMMMMMMMMMMMMMMMMMMMMMMMMMM",
"MMMMMMMMMMMMMMMMMMMMMMMMMMMMMMMMMMMMMMMMMMMMMMMMMMMMMMMMMMMMMMMMMMMMMMMMMMMMMMMM",
"MMMMMMMMMMMMMMMMMMMMMMMMMMMMMMMMMMMMMMMMMMMMMMMMMMMMMMMMMMMMMMMMMMMMMMMMMMMMMMMM"
};
