/* XPM */
static char *_029_6b30ae70020835824a0941e5f8abaa468abff5644dcf9209466ee955dba3ae65[] = {
/* columns rows colors chars-per-pixel */
"80 80 147 2 ",
"   c #000000",
".  c #0D0100",
"X  c #0F0B01",
"o  c #130000",
"O  c #1D0000",
"+  c #140C00",
"@  c #1D1401",
"#  c #240000",
"$  c #2C0000",
"%  c #240A01",
"&  c #340000",
"*  c #3D0000",
"=  c #241302",
"-  c #251B01",
";  c #2C1A01",
":  c #341B03",
">  c #3A1E04",
",  c #2C2001",
"<  c #3C2006",
"1  c #430000",
"2  c #4B0100",
"3  c #4D0B01",
"4  c #550201",
"5  c #5C0100",
"6  c #500800",
"7  c #5D0802",
"8  c #4E1101",
"9  c #521C02",
"0  c #630000",
"q  c #6C0101",
"w  c #6B0802",
"e  c #730301",
"r  c #7D0401",
"t  c #730803",
"y  c #7B0A03",
"u  c #442103",
"i  c #492707",
"p  c #5C2402",
"a  c #552A03",
"s  c #5D2C03",
"d  c #5C3109",
"f  c #532713",
"g  c #612703",
"h  c #642A03",
"j  c #7F2203",
"k  c #663303",
"l  c #693504",
"z  c #6B3904",
"x  c #613409",
"c  c #743605",
"v  c #743C07",
"b  c #793F06",
"n  c #753D09",
"m  c #783E08",
"M  c #105C00",
"N  c #234A00",
"B  c #147A31",
"V  c #614A07",
"C  c #774206",
"Z  c #7D4109",
"A  c #7D5F0B",
"S  c #840502",
"D  c #8C0602",
"F  c #800903",
"G  c #8C0902",
"H  c #930703",
"J  c #9A0703",
"K  c #940902",
"L  c #9D0903",
"P  c #9C1404",
"I  c #951B04",
"U  c #991E04",
"Y  c #AC0504",
"T  c #A40B03",
"R  c #AD0B04",
"E  c #B40603",
"W  c #BD0502",
"Q  c #B20C04",
"!  c #BA0E04",
"~  c #A61103",
"^  c #AD1104",
"/  c #A11907",
"(  c #AA1D04",
")  c #B41404",
"_  c #BC1104",
"`  c #B51804",
"'  c #BB1B04",
"]  c #9F2304",
"[  c #9C2008",
"{  c #833101",
"}  c #90340B",
"|  c #892D14",
" . c #902511",
".. c #A02707",
"X. c #B32404",
"o. c #B82E04",
"O. c #BC230B",
"+. c #BE280D",
"@. c #B73507",
"#. c #BF3403",
"$. c #C20D04",
"%. c #CD0E05",
"&. c #D20E03",
"*. c #C41204",
"=. c #CC1504",
"-. c #CA1C04",
";. c #D21604",
":. c #DA1404",
">. c #D51804",
",. c #DA1904",
"<. c #E01403",
"1. c #E31A04",
"2. c #CB2205",
"3. c #D42204",
"4. c #D12C04",
"5. c #D83004",
"6. c #D13E04",
"7. c #874502",
"8. c #83450B",
"9. c #88470A",
"0. c #87480C",
"q. c #8A490D",
"w. c #924E0D",
"e. c #984E0B",
"r. c #905203",
"t. c #9E530E",
"y. c #9B5B0B",
"u. c #AD4C03",
"i. c #A5580F",
"p. c #B25404",
"a. c #BF6806",
"s. c #CE6404",
"d. c #CB6B04",
"f. c #D36A04",
"g. c #DA6E04",
"h. c #CC7104",
"j. c #C47804",
"k. c #CB7B04",
"l. c #DE7104",
"z. c #07883B",
"x. c #128D46",
"c. c #029749",
"v. c #0F914C",
"b. c #00994C",
"n. c #009C50",
"m. c #FC8305",
"M. c None",
/* pixels */
"M.M.M.M.M.M.M.M.M.M.M.M.M.M.M.M.M.M.M.M.M.M.M.M.M.M.M.M.M.M.M.M.M.M.M.M.M.M.M.M.M.M.M.M.M.M.M.M.M.M.M.M.M.M.M.M.M.M.M.M.M.M.M.M.M.M.M.M.M.M.M.M.M.M.M.M.M.M.M.M.",
"M.M.M.M.M.M.M.M.M.M.M.M.M.M.M.M.M.M.M.M.M.M.M.M.M.M.M.M.M.M.M.M.M.M.M.M.M.M.M.M.M.M.M.M.M.M.M.M.M.M.M.M.M.M.M.M.M.M.M.M.M.M.M.M.M.M.M.M.M.M.M.M.M.M.M.M.M.M.M.M.",
"M.M.M.M.M.M.M.M.M.M.M.M.M.M.M.M.M.M.M.M.M.M.M.M.M.M.M.M.M.M.M.M.M.M.M.M.M.M.M.M.M.M.M.M.M.M.M.M.M.M.M.M.M.M.M.M.M.M.M.M.M.M.M.M.M.M.M.M.M.M.M.M.M.M.M.M.M.M.M.M.",
"M.M.M.M.M.M.M.M.M.M.M.M.M.M.M.M.M.M.M.M.M.M.M.M.M.M.M.M.M.M.M.M.M.M.M.M.M.M.M.M.M.M.M.M.M.M.M.M.M.M.M.M.M.M.M.M.M.M.M.M.M.M.M.M.M.M.M.M.M.M.M.M.M.M.M.M.M.M.M.M.",
"M.M.M.M.M.M.M.M.M.M.M.M.M.M.M.M.M.M.M.M.M.M.M.M.M.M.M.M.M.M.M.M.M.M.M.M.M.M.M.M.M.M.M.    M.M.M.M.M.M.M.M.M.M.M.M.M.M.M.M.M.M.M.M.M.M.M.M.M.M.M.M.M.M.M.M.M.M.M.",
"M.M.M.M.M.M.M.M.M.M.M.M.M.M.M.M.M.M.M.M.M.M.M.M.M.M.M.M.M.M.M.M.M.M.M.M.M.M.M.M.M.M.  M.M.M.M.M.M.M.M.M.M.M.M.M.M.M.M.M.M.M.M.M.M.M.M.M.M.M.M.M.M.M.M.M.M.M.M.M.",
"M.M.M.M.M.M.M.M.M.M.M.M.M.M.M.M.M.M.M.M.M.M.M.M.M.M.M.M.M.M.M.M.M.M.M.M.M.M.M.M.M.M.  M.M.M.M.M.  M.M.M.M.M.M.M.M.M.M.M.M.M.M.M.M.M.M.M.M.M.M.M.M.M.M.M.M.M.M.M.",
"M.M.M.M.M.M.M.M.M.M.M.M.M.M.M.M.M.M.M.M.M.M.M.M.M.M.M.M.M.M.M.M.M.M.M.M.M.M.M.M.M.M.M.: M.M.    M.M.M.M.M.M.M.M.M.M.M.M.M.M.M.M.M.M.M.M.M.M.M.M.M.M.M.M.M.M.M.M.",
"M.M.M.M.M.M.M.M.M.M.M.M.M.M.M.M.M.M.M.M.M.M.M.M.M.M.M.M.M.M.M.q.q.q.q.q.q.w.n   0.t.i.>         M.M.    M.M.M.M.M.M.M.M.M.M.M.M.M.M.M.M.M.M.M.M.M.M.M.M.M.M.M.M.",
"M.M.M.M.M.M.M.M.M.M.M.M.M.M.M.M.M.M.M.M.M.M.M.M.M.M.M.M.M.M.q.q.m v n n v m x   n > l >                 M.M.M.M.M.M.M.M.M.M.M.M.M.M.M.M.M.M.M.M.M.M.M.M.M.M.M.M.",
"M.M.M.M.M.M.M.M.M.M.M.M.M.M.M.M.M.M.M.M.M.M.M.M.M.M.M.M.M.q.v m k k k k k l a   n   a >               M.M.M.M.M.    M.M.M.M.M.M.M.M.M.M.M.M.M.M.M.M.M.M.M.M.M.M.",
"M.M.M.M.M.M.M.M.M.M.M.M.M.M.M.M.M.M.M.M.M.M.M.M.M.M.M.M.0.v h k l k l l l z a   u   : %             M.M.            M.M.M.M.M.M.M.M.M.M.M.M.M.M.M.M.M.M.M.M.M.M.",
"M.M.M.M.M.M.M.M.M.M.M.M.M.M.M.M.M.M.M.M.M.M.M.M.M.M.M.q.m k l l k l l l l l a                                   M.M.M.M.M.M.M.M.M.M.M.M.M.M.M.M.M.M.M.M.M.M.M.M.",
"M.M.M.M.M.M.M.M.M.M.M.M.M.M.M.M.M.M.M.M.M.M.M.M.M.M.M.q.m k l k l k l l l c s X X X                           M.M.M.M.M.M.M.M.M.M.M.M.M.M.M.M.M.M.M.M.M.M.M.M.M.",
"M.M.M.M.M.M.M.M.M.M.M.M.M.M.M.M.M.M.M.M.M.M.M.M.M.M.q.m k k l k l l m q.q.0.0.0.0.w.=                       M.M.M.M.M.M.M.M.M.M.M.M.M.M.M.M.M.M.M.M.M.M.M.M.M.M.",
"M.M.M.M.M.M.M.M.M.M.M.M.M.M.M.M.M.M.M.M.M.M.M.M.q.q.v k l k l k k m q.q.q.0.0.q.0.0.q.:                           M.M.M.M.M.M.M.M.M.M.M.M.M.M.M.M.M.M.M.M.M.M.M.",
"M.M.M.M.M.M.M.M.M.M.M.M.M.M.M.M.M.M.M.M.M.M.M.M.z 9.q.v h k k k k 8.q.q.q.q.0.q.0.q.t.:                             M.M.M.M.M.M.M.M.M.M.M.M.M.M.M.M.M.M.M.M.M.M.",
"M.M.M.M.M.M.M.M.M.M.M.M.M.M.M.M.M.M.M.M.M.M.M.M.k v v Z 8.Z 8.Z Z q.q.q.q.q.q.q.q.q.w.z d x i                 M.M.M.M.M.M.M.M.M.M.M.M.M.M.M.M.M.M.M.M.M.M.M.M.M.",
"M.M.M.M.M.M.M.M.M.M.M.M.M.M.M.M.M.M.M.M.M.M.M.M.M.9 s C Z Z Z Z Z m C m m m m m m m n 8.0.0.n : :             M.M.M.M.M.M.M.M.M.M.M.M.M.M.M.M.M.M.M.M.M.M.M.M.M.",
"M.M.M.M.M.M.M.M.M.M.M.M.M.M.M.M.M.M.M.M.M.M.M.M.M.M.8 p s z k k k k l k k l l l k l k l k l l m m % O .         M.M.M.M.M.M.M.M.M.M.M.M.M.M.M.M.M.M.M.M.M.M.M.M.",
"M.M.M.M.M.M.M.M.M.M.M.M.M.M.M.M.M.M.M.M.M.M.M.M.M.M.M.* 3 h g g h g g g g g g g g g g g g g g g h 2 1 M.M.M.M.    M.M.M.M.M.M.M.M.M.M.M.M.M.M.M.M.M.M.M.M.M.M.M.",
"M.M.M.M.M.M.M.M.M.M.M.M.M.M.M.M.M.M.M.M.M.M.M.M.M.M.M.M.M.& & & & & & & & & & & & & & & & & & & & M.M.M.M.M.M.M.M.M.M.M.M.M.M.M.M.M.M.M.M.M.M.M.M.M.M.M.M.M.M.M.",
"M.M.M.M.M.M.M.M.M.M.M.M.M.M.M.M.M.M.M.M.M.M.M.M.M.  M.M.M.                                        M.  M.M.M.M.M.M.M.M.M.M.M.M.M.M.M.M.M.M.M.M.M.M.M.M.M.M.M.M.M.",
"M.M.M.M.M.M.M.M.M.M.M.M.M.M.M.M.M.M.M.M.M.M.M.M.M.M.                                                M.M.M.M.M.M.M.M.M.M.M.M.M.M.M.M.M.M.M.M.M.M.M.M.M.M.M.M.M.M.",
"M.M.M.M.M.M.M.M.M.M.M.M.M.M.M.M.M.M.M.M.M.M.M.M.M.M.M.M.M.M.                                      M.M.M.M.M.M.M.M.M.M.M.M.M.M.M.M.M.M.M.M.M.M.M.M.M.M.M.M.M.M.M.",
"M.M.M.M.M.M.M.M.M.M.M.M.M.M.M.M.M.M.M.M.M.M.M.M.M.M.M.M.M.! F t                                 t R ,.M.M.M.M.M.M.M.M.M.M.M.M.M.M.M.M.M.M.M.M.M.M.M.M.M.M.M.M.M.",
"M.M.M.M.M.M.M.M.M.M.M.M.M.M.M.M.M.M.M.M.M.M.M.M.M.M.M.M._ e J $.w q .                       o w ! Q =.,.>.M.M.M.M.M.M.M.M.M.M.M.M.M.M.M.M.M.M.M.M.M.M.M.M.M.M.M.",
"M.M.M.M.M.M.M.M.M.M.M.M.M.M.M.M.M.M.M.M.M.M.M.M.M.M.M.,.) q r H ! :.y 7 #   6 1     $ 4 7 & X %._ R *.=.=.,.M.M.M.M.M.M.M.M.M.M.M.M.M.M.M.M.M.M.M.M.M.M.M.M.M.M.",
"M.M.M.M.M.M.M.M.M.M.M.M.M.M.M.M.M.M.M.M.M.M.M.M.M.M.>.;.*.! R 5 T :.~ J 7 2 &.!   # T R K w * *.,.! J L ! =.>.>.M.M.M.M.M.M.M.M.M.M.M.M.M.M.M.M.M.M.M.M.M.M.M.M.",
"M.M.M.M.M.M.M.M.M.M.M.M.M.M.M.M.M.M.M.M.M.M.M.M.M.>.>.! R Q R 0 R 1.3 o 7 &.) R O T %.6 X 2 :.>.>.! q D ! ! ,.>.>.M.M.M.M.M.M.M.M.M.M.M.M.M.M.M.M.M.M.M.M.M.M.M.",
"M.M.M.M.M.M.M.M.M.M.M.M.M.M.M.M.M.M.M.M.M.M.M.M.>.>._ R R Q T 0 T =.,.,.>.>.>.>.! R R *.,.,.>.>.>.! q D Q _ >.>.>.>.>.M.M.M.M.M.M.M.M.M.M.M.M.M.M.M.M.M.M.M.M.M.",
"M.M.M.M.M.M.M.M.M.M.M.M.M.M.M.M.M.M.M.M.M.M.M.M.,._ R Q ! L 5 0 R ;.>.>.>.>.>.;.! R R *.,.>.>.>.>.! e 5 G ! Q ! >.>.>.1.G F 1.>.M.M.M.M.M.M.M.M.M.M.M.M.M.M.M.M.",
"M.M.M.M.M.M.M.M.M.M.M.M.M.M.M.M.M.M.M.M.M.M.>.>.! Q R ! L q 0 0 T ;.,.>.>.>.>.;.Q R R *.>.>.>.=.! ! r 5 q q r ! Q Q ;.>.>.T F 1.>.M.M.M.M.M.M.M.M.M.M.M.M.M.M.M.",
"M.M.M.M.M.M.M.M.M.M.M.M.M.M.M.M.M.M.M.M.M.>.>.,.Q ! ! J q 5 0 0 R ! =.>.>.>.>.;.R R *.;.>.>.>.>.Q S 0 0 0 5 0 S ! ! ! *.%.K e ,.>.x.n.b.b.M.M.M.M.M.M.M.M.M.M.M.",
"M.M.M.M.M.M.M.M.M.M.M.M.b.M.M.M.M.M.M.H 1.>.>.*.! D S e 5 0 0 5 R R =.,.>.>.>.;.R R ;.>.>.>.>.=.Q q 0 0 0 0 0 0 S S S r T H e 1.>.x.b.M.M.M.b.M.M.M.M.M.M.M.M.M.",
"M.M.M.M.M.M.M.M.M.M.M.M.b.M.M.M.M.M.F H 1.>._ D H q 4 0 0 5 0 S R R ! =.>.>.>.;.*.R -.>.>.>.>.>.Q q 0 M.M.0 0 0 5 5 5 5 e D H =.=.v.n.M.M.M.M.M.M.M.M.M.M.M.M.M.",
"M.M.M.M.M.M.M.M.M.M.M.M.M.M.b.b.+.<.r G :.*.T 5 5 0 0 0 q r S ! Q R R *.>.>.>.>.,.Q %.>.>.>.:.*.Q q 0 M.M.M.M.M.0 0 0 0 0 H ! R { B c.b.b.M.M.M.M.M.M.M.M.M.M.M.",
"M.M.M.M.M.M.M.M.M.b.b.b.b.b.b.b.O.$.r F T T T 0 0 0 0 5 S ! ! R R R R *.>.=.-.;.>.Q =.;.=.>.=.R Q q 0 M.M.M.M.M.M.M.M.M.M.! E P M N z.M.M.M.b.M.M.M.M.M.M.M.M.M.",
"M.M.M.M.M.M.M.M.M.M.M.M.M.b.b.b. .E ! H 5 5 0 0 0 0 M.M.S ! Q R Q Q Q R R R R R R R Q R R R Q R Q q M.M.M.M.M.M.M.M.M.M.M.M.M.M.M.M.M.n.M.M.M.M.M.M.M.M.M.M.M.M.",
"M.M.M.M.M.M.M.M.M.b.b.b.b.b.b.b.b.| $.E J 5 0 0 0 M.M.5 r ! Q Q Q R Q R Q Q R R Q R R R Q Q R R Q e M.M.M.M.M.M.M.M.M.M.M.M.M.M.M.M.M.M.M.M.M.M.M.M.M.M.M.M.M.M.",
"M.M.M.M.M.M.M.M.M.M.M.M.M.M.b.b.M.f r q q M.M.M.M.M.5 S Q Q R R Q Q R R Y / e.s.) } a.#.Y R R R Q q M.M.M.M.M.M.M.M.M.M.M.M.M.M.M.M.M.M.M.M.M.M.M.M.M.M.M.M.M.M.",
"M.M.M.M.M.M.M.M.M.M.M.M.M.M.M.M.M.M.M.M.M.M.M.M.M.M.5 D ! ! =.Q R Q R *.:.( V y.R c A @.&.*.R R R L M.M.M.M.M.M.M.M.M.M.M.M.M.M.M.M.M.M.M.M.M.M.M.M.M.M.M.M.M.M.",
"M.M.M.M.M.M.M.M.M.M.M.M.M.M.M.M.M.M.M.M.M.M.M.M.M.M.4 S E _ >.R R R ! ;.,.-.[ [ *.I ..-.,.=.R =.*.! M.M.M.M.M.M.M.M.M.M.M.M.M.M.M.M.M.M.M.M.M.M.M.M.M.M.M.M.M.M.",
"M.M.M.M.M.M.M.M.M.M.M.M.M.M.M.M.M.M.M.M.M.M.M.M.M.M.r L _ *.*.R Q R =.>.>.>.:.E >.! %.:.>.=.) ,.,.Q R M.M.M.M.M.M.M.M.M.M.M.M.M.M.M.M.M.M.M.M.M.M.M.M.M.M.M.M.M.",
"M.M.M.M.M.M.M.M.M.M.M.M.M.M.M.M.M.M.M.M.M.M.M.M.M.4 L Q *.;.R R Q Q ;.>.>.>.;.Q :.Q =.>.>.=.R =.,.*.Q M.M.M.M.M.M.M.M.M.M.M.M.M.M.M.M.M.M.M.M.M.M.M.M.M.M.M.M.M.",
"M.M.M.M.M.M.M.M.M.M.M.M.M.M.M.M.M.M.M.M.M.M.M.M.M.q L ! *.=.R Q R >.>.>.>.>.=.R >.Q =.>.>.=.Q R ) ,.! M.M.M.M.M.M.M.M.M.M.M.M.M.M.M.M.M.M.M.M.M.M.M.M.M.M.M.M.M.",
"M.M.M.M.M.M.M.M.M.M.M.M.M.M.M.M.M.M.M.M.M.M.M.M.M.! R *.,.=.R Q R ;.>.>.>.>.;.Q >.Q =.>.>.>.>.T 0 =.*.M.M.M.M.M.M.M.M.M.M.M.M.M.M.M.M.M.M.M.M.M.M.M.M.M.M.M.M.M.",
"M.M.M.M.M.M.M.M.M.M.M.M.M.M.M.M.M.M.M.M.M.M.M.M.Q R R *.,.=.R R R =.>.>.>.>.-.R >.Q =.>.>.>.;.R R ;.,._ R M.M.M.M.M.M.M.M.M.M.M.M.M.M.M.M.M.M.M.M.M.M.M.M.M.M.M.",
"M.M.M.M.M.M.M.M.M.M.M.M.M.M.M.M.M.M.M.M.M.M.M.M.Q R R *.=.Q Q Q R =.>.>.>.=.Q Q Q =.! *.1.T 4 R 2 1 ` =.R M.M.M.M.M.M.M.M.M.M.M.M.M.M.M.M.M.M.M.M.M.M.M.M.M.M.M.",
"M.M.M.M.M.M.M.M.M.M.M.M.M.M.M.M.M.M.M.M.M.M.M.R Q R *.>.*.R R Q *.>.>.>.>.=.R R R >.! _ 1.( g ^ a # R *.R M.M.M.M.M.M.M.M.M.M.M.M.M.M.M.M.M.M.M.M.M.M.M.M.M.M.M.",
"M.M.M.M.M.M.M.M.M.M.M.M.M.M.M.M.M.M.M.M.M.M.M.Q R R *.,.*.R R Q >.>.>.>.>.=.R Q R >.) *.<.X.c W U P =.=.*.M.M.M.M.M.M.M.M.M.M.M.M.M.M.M.M.M.M.M.M.M.M.M.M.M.M.M.",
"M.M.M.M.M.M.M.M.M.M.M.M.M.M.M.M.M.M.M.M.M.M.M.Q R _ ;.,.*.R Q Q =.>.>.>.>.=.R Q R >.! *.1.( u I E =.>.,.,.M.M.M.M.M.M.M.M.M.M.M.M.M.M.M.M.M.M.M.M.M.M.M.M.M.M.M.",
"M.M.M.M.M.M.M.M.M.M.M.M.M.M.M.M.M.M.M.M.M.M.M.R Y ;.,.,.*.R Q R >.>.>.>.>.=.R Q R ;.! *.1.T & C R R *.:.:.M.M.M.M.M.M.M.M.M.M.M.M.M.M.M.M.M.M.M.M.M.M.M.M.M.M.M.",
"M.M.M.M.M.M.M.M.M.M.M.M.M.M.M.M.M.M.M.M.M.M.M.Q X.*.%.=.$.R R ! >.>.>.;.,.*.Y R R ;.! _ 1.~ & h R Y 3.5.4.M.M.M.M.M.M.M.M.M.M.M.M.M.M.M.M.M.M.M.M.M.M.M.M.M.M.M.",
"M.M.M.M.M.M.M.M.M.M.M.M.M.M.M.M.M.M.M.M.M.M.M.M.h.#.^ ` ` ` ' >.>.>.;.;.>.2.` ` ` 3.' *.1.T $ 1 R ) p.j.M.M.M.M.M.M.M.M.M.M.M.M.M.M.M.M.M.M.M.M.M.M.M.M.M.M.M.M.",
"M.M.M.M.M.M.M.M.M.M.M.M.M.M.M.M.M.M.M.M.M.M.M.M.M.h.h.h.d.k.s.;.;.;.>.;.6.k.h.d.h.h.k.6.<.~ & 2 R g.@ M.M.M.M.M.M.M.M.M.M.M.M.M.M.M.M.M.M.M.M.M.M.M.M.M.M.M.M.M.",
"M.M.M.M.M.M.M.M.M.M.M.M.M.M.M.M.M.M.M.M.M.M.M.M.M.M.{ % + + ; l.g.g.l.f.d.M.M.+ + + + 7.m.u.& 6 l.:   M.M.M.M.M.M.M.M.M.M.M.M.M.M.M.M.M.M.M.M.M.M.M.M.M.M.M.M.M.",
"M.M.M.M.M.M.M.M.M.M.M.M.M.M.M.M.M.M.M.M.M.M.M.M.M.M.3 o       ; ; ; ; r.M.M.M.M.      X , @     -   M.M.M.M.M.M.M.M.M.M.M.M.M.M.M.M.M.M.M.M.M.M.M.M.M.M.M.M.M.M.",
"M.M.M.M.M.M.M.M.M.M.M.M.M.M.M.M.M.M.M.M.M.M.M.M.M.M.2 #               M.M.M.M.M.  # $ $ # # $ $ O   M.M.M.M.M.M.M.M.M.M.M.M.M.M.M.M.M.M.M.M.M.M.M.M.M.M.M.M.M.M.",
"M.M.M.M.M.M.M.M.M.M.M.M.M.M.M.M.M.M.M.M.M.M.M.M.M.M.$ o               M.M.M.M.  O 2 & # # # # $ 2 # M.M.M.M.M.M.M.M.M.M.M.M.M.M.M.M.M.M.M.M.M.M.M.M.M.M.M.M.M.M.",
"M.M.M.M.M.M.M.M.M.M.M.M.M.M.M.M.M.M.M.M.M.M.M.M.M.M..                 M.M.M.M.  1 &             # 1 M.M.M.M.M.M.M.M.M.M.M.M.M.M.M.M.M.M.M.M.M.M.M.M.M.M.M.M.M.M.",
"M.M.M.M.M.M.M.M.M.M.M.M.M.M.M.M.M.M.M.M.M.M.M.M.M.1 # o o o o       M.M.M.M.M.  1   . o o o o o   & M.M.M.M.M.M.M.M.M.M.M.M.M.M.M.M.M.M.M.M.M.M.M.M.M.M.M.M.M.M.",
"M.M.M.M.M.M.M.M.M.M.M.M.M.M.M.M.M.M.M.M.M.M.M.M.M.1 * * * * *         M.M.M.M.  & . & 2 1 1 1 1 . * M.M.M.M.M.M.M.M.M.M.M.M.M.M.M.M.M.M.M.M.M.M.M.M.M.M.M.M.M.M.",
"M.M.M.M.M.M.M.M.M.M.M.M.M.M.M.M.M.M.M.M.M.M.M.M.M.2 o                 M.M.M.M.M.  & 1 1 * 1 * 1 * M.M.M.M.M.M.M.M.M.M.M.M.M.M.M.M.M.M.M.M.M.M.M.M.M.M.M.M.M.M.M.",
"M.M.M.M.M.M.M.M.M.M.M.M.M.M.M.M.M.M.M.M.M.M.M.M.M.1 * 1 #             M.M.M.M.M.M.& 1 1 1 1 1 1 M.M.M.M.M.M.M.M.M.M.M.M.M.M.M.M.M.M.M.M.M.M.M.M.M.M.M.M.M.M.M.M.",
"M.M.M.M.M.M.M.M.M.M.M.M.M.M.M.M.M.M.M.M.M.M.M.M.M.* 1 2 1 * &       M.M.M.M.M.M.M.1 2 # . . o 2 M.M.M.M.M.M.M.M.M.M.M.M.M.M.M.M.M.M.M.M.M.M.M.M.M.M.M.M.M.M.M.M.",
"M.M.M.M.M.M.M.M.M.M.M.M.M.M.M.M.M.M.M.M.M.M.M.M.M.M.# o . o .     M.M.M.M.M.M.M.M.1 #         O 1 M.M.M.M.M.M.M.M.M.M.M.M.M.M.M.M.M.M.M.M.M.M.M.M.M.M.M.M.M.M.M.",
"M.M.M.M.M.M.M.M.M.M.M.M.M.M.M.M.M.M.M.M.M.M.M.M.M.M.  o # O O #   M.M.M.M.M.M.M.M.2 o           O 1 M.M.M.M.M.M.M.M.M.M.M.M.M.M.M.M.M.M.M.M.M.M.M.M.M.M.M.M.M.M.",
"M.M.M.M.M.M.M.M.M.M.M.M.M.M.M.M.M.M.M.M.M.M.M.M.M.M.  # 2 1 2 2   M.M.M.M.M.M.M.M.M.o             O M.M.M.M.M.M.M.M.M.M.M.M.M.M.M.M.M.M.M.M.M.M.M.M.M.M.M.M.M.M.",
"M.M.M.M.M.M.M.M.M.M.M.M.M.M.M.M.M.M.M.M.M.M.M.M.M.  . & 2 1 1 $ M.M.M.M.M.M.M.M.M.M.M.              M.M.M.M.M.M.M.M.M.M.M.M.M.M.M.M.M.M.M.M.M.M.M.M.M.M.M.M.M.M.",
"M.M.M.M.M.M.M.M.M.M.M.M.M.M.M.M.M.M.M.M.M.M.M.      # * & * $   M.M.M.M.M.M.M.M.M.M.M.M.          M.M.M.M.M.M.M.M.M.M.M.M.M.M.M.M.M.M.M.M.M.M.M.M.M.M.M.M.M.M.M.",
"M.M.M.M.M.M.M.M.M.M.M.M.M.M.M.M.M.M.M.M.M.M.M.                  M.M.M.M.M.M.M.M.M.M.M.M.M.M.M.M.M.M.M.M.M.M.M.M.M.M.M.M.M.M.M.M.M.M.M.M.M.M.M.M.M.M.M.M.M.M.M.M.",
"M.M.M.M.M.M.M.M.M.M.M.M.M.M.M.M.M.M.M.M.M.M.M.M.M.M.M.M.M.M.M.M.M.M.M.M.M.M.M.M.M.M.M.M.M.M.M.M.M.M.M.M.M.M.M.M.M.M.M.M.M.M.M.M.M.M.M.M.M.M.M.M.M.M.M.M.M.M.M.M.",
"M.M.M.M.M.M.M.M.M.M.M.M.M.M.M.M.M.M.M.M.M.M.M.M.M.M.M.M.M.M.M.M.M.M.M.M.M.M.M.M.M.M.M.M.M.M.M.M.M.M.M.M.M.M.M.M.M.M.M.M.M.M.M.M.M.M.M.M.M.M.M.M.M.M.M.M.M.M.M.M.",
"M.M.M.M.M.M.M.M.M.M.M.M.M.M.M.M.M.M.M.M.M.M.M.M.M.M.M.M.M.M.M.M.M.M.M.M.M.M.M.M.M.M.M.M.M.M.M.M.M.M.M.M.M.M.M.M.M.M.M.M.M.M.M.M.M.M.M.M.M.M.M.M.M.M.M.M.M.M.M.M.",
"M.M.M.M.M.M.M.M.M.M.M.M.M.M.M.M.M.M.M.M.M.M.M.M.M.M.M.M.M.M.M.M.M.M.M.M.M.M.M.M.M.M.M.M.M.M.M.M.M.M.M.M.M.M.M.M.M.M.M.M.M.M.M.M.M.M.M.M.M.M.M.M.M.M.M.M.M.M.M.M.",
"M.M.M.M.M.M.M.M.M.M.M.M.M.M.M.M.M.M.M.M.M.M.M.M.M.M.M.M.M.M.M.M.M.M.M.M.M.M.M.M.M.M.M.M.M.M.M.M.M.M.M.M.M.M.M.M.M.M.M.M.M.M.M.M.M.M.M.M.M.M.M.M.M.M.M.M.M.M.M.M.",
"M.M.M.M.M.M.M.M.M.M.M.M.M.M.M.M.M.M.M.M.M.M.M.M.M.M.M.M.M.M.M.M.M.M.M.M.M.M.M.M.M.M.M.M.M.M.M.M.M.M.M.M.M.M.M.M.M.M.M.M.M.M.M.M.M.M.M.M.M.M.M.M.M.M.M.M.M.M.M.M.",
"M.M.M.M.M.M.M.M.M.M.M.M.M.M.M.M.M.M.M.M.M.M.M.M.M.M.M.M.M.M.M.M.M.M.M.M.M.M.M.M.M.M.M.M.M.M.M.M.M.M.M.M.M.M.M.M.M.M.M.M.M.M.M.M.M.M.M.M.M.M.M.M.M.M.M.M.M.M.M.M.",
"M.M.M.M.M.M.M.M.M.M.M.M.M.M.M.M.M.M.M.M.M.M.M.M.M.M.M.M.M.M.M.M.M.M.M.M.M.M.M.M.M.M.M.M.M.M.M.M.M.M.M.M.M.M.M.M.M.M.M.M.M.M.M.M.M.M.M.M.M.M.M.M.M.M.M.M.M.M.M.M."
};
