/* XPM */
static char *_4087_f95356e34c89900125d5fa1c8adec605809bc5f820bf5ebcb33a3dd89df556fd[] = {
/* columns rows colors chars-per-pixel */
"80 80 13 1 ",
"  c black",
". c #430000",
"X c #670000",
"o c #6B3707",
"O c #235700",
"+ c #5F5F5F",
"@ c #B30F07",
"# c #D71B07",
"$ c #8B4B0F",
"% c #CF7307",
"& c #009B4F",
"* c #D7D7D7",
"= c None",
/* pixels */
"================================================================================",
"================================================================================",
"================================================================================",
"================================================================================",
"================================================================================",
"================================================================================",
"================================================================================",
"================================================================================",
"================================================================================",
"================================================================================",
"================================================================================",
"================================================================================",
"================================================================================",
"================================================================================",
"================================================================================",
"================================================================================",
"================================================================================",
"================================================================================",
"================================================================================",
"================================================================================",
"================================================================================",
"================================================================================",
"================================================================================",
"================================================================================",
"================================================================================",
"================================================================================",
"================================================================================",
"================================================================================",
"================================================================================",
"================================================================================",
"================================================================================",
"================================================================================",
"================================================================================",
"================================================================================",
"================================================================================",
"================================================================================",
"================================================================================",
"================================================================================",
"================================================================================",
"================================================================================",
"================================================================================",
"================================================================================",
"================================================================================",
"================================================================================",
"================================================================================",
"================================================================================",
"================================================================================",
"================================================================================",
"=============$$+$+$$$===========================================================",
"===========$$$$$+++$$$==========================================================",
"===========$$$$+$$$ooo$=========================================================",
"==========$$$$$oooooooo======  =================================================",
"=========$$$$$$o.....oo====   ===  ===================ooooo=====================",
"=========$$$$$o... O ..O =        ====&===========oooo..oooooo==================",
"=========$oo$o...OO  & $         == &=O&=========........o..oo .....======.=====",
"=========$oooo.. O O& $ O          =&O&O&=XXXX.............o.  ..... ====..=====",
"==========$ooo.. O &O$ $&         ==OO&&O=XXX.........  ..... .....  ===.. =====",
"==========$ooo.. OO&  $ &          =XXOXXXX..   .... . . .&&.    ..  =.... =====",
"===========$oo.. OOO   $ O           @XX%X...  &O ..     &..&     .  ....  =====",
"===========$ooo.        OO          X@XX% ...OO&.**&&  &&           ....   =====",
"========   $ooo.            @@  #####XX#% ...O&&+*+ .&& o=====      ....  ======",
"==========  $oo.            ########X@###% ...O&&+OOO   oo=======  = ..  =======",
"===== ===    oo..         @########@@#####% ...OOO&.     o========== ..  =======",
"======       ooo.      @X @@#####@X@######%   ......     o===========   ========",
"=======       oo       &@  @@###@XX#####@@X%%%  ..      oo======================",
"======        oo      @X@@OXX@@XXXX####@@XX@@@%      %oo========================",
"======   ==   oo ##@@  XX@@XXXXXX@X###@@XXX@@XX%%  %%%XX========================",
"======= ==    o  @XXXXXXXXXXXXXXXXXX@@@@XX@@XXXX%%%XXX==========================",
"=====         o@XX@##@X#o#@XXXXXXXXXX@@XXXXXXXXXXXX..===========================",
"===== =      $@######@####X@XXXXXXXXXXXXXXXXXXXX==================&=============",
"======    =$$o@######@#o#@XO&&&&&XXXXXXX=================&OOO===================",
"==============@@@@@@@@X@@@XO&&&&&&==============================================",
"===============@@@@@XXXXo@@XO&&OO&&=============================================",
"================================================================================",
"================================================================================",
"================================================================================",
"================================================================================",
"================================================================================",
"================================================================================",
"================================================================================"
};
