/* XPM */
static char *_2059_a726cbef75faa2b0e115c04dab52f4374bc694b85c37377553fdaa71bb230329[] = {
/* columns rows colors chars-per-pixel */
"80 80 218 2 ",
"   c #000000",
".  c #0C0000",
"X  c #060C00",
"o  c #01000C",
"O  c #140100",
"+  c #1B0000",
"@  c #120B02",
"#  c #1A0E05",
"$  c #061100",
"%  c #0B1B01",
"&  c #0C1600",
"*  c #171501",
"=  c #001C10",
"-  c #1B1C1B",
";  c #141618",
":  c #230000",
">  c #2C0000",
",  c #250E02",
"<  c #340100",
"1  c #3C0000",
"2  c #350E02",
"3  c #211204",
"4  c #3C1503",
"5  c #271E10",
"6  c #371414",
"7  c #0C2501",
"8  c #0A2908",
"9  c #162E00",
"0  c #183300",
"q  c #123D00",
"w  c #193700",
"e  c #052119",
"r  c #3C2006",
"t  c #3F2C19",
"y  c #1A1E24",
"u  c #003921",
"i  c #282A2A",
"p  c #32362C",
"a  c #313827",
"s  c #2A2E30",
"d  c #2D3134",
"f  c #313A3A",
"g  c #373438",
"h  c #430000",
"j  c #4A0000",
"k  c #4C0C02",
"l  c #430A0A",
"z  c #540000",
"x  c #5C0100",
"c  c #5B0B00",
"v  c #540A02",
"b  c #4F1202",
"n  c #421502",
"m  c #531402",
"M  c #551A03",
"N  c #5A1D04",
"B  c #491313",
"V  c #650000",
"C  c #6B0100",
"Z  c #640B04",
"A  c #6C0802",
"S  c #740101",
"D  c #7B0302",
"F  c #780B05",
"G  c #621B03",
"H  c #631104",
"J  c #4D2B06",
"K  c #452505",
"L  c #5C2304",
"P  c #572807",
"I  c #5A3103",
"U  c #50351B",
"Y  c #4C331C",
"T  c #612605",
"R  c #642C05",
"E  c #6E2807",
"W  c #7A2A07",
"Q  c #663306",
"!  c #6A3506",
"~  c #6D3A07",
"^  c #6E3B09",
"/  c #693908",
"(  c #723B06",
")  c #733D09",
"_  c #793F0A",
"`  c #793A06",
"'  c #663915",
"]  c #491E22",
"[  c #184000",
"{  c #1F5F04",
"}  c #0B5812",
"|  c #214E00",
" . c #254800",
".. c #215B03",
"X. c #285B00",
"o. c #1D6507",
"O. c #196D19",
"+. c #06791E",
"@. c #286702",
"#. c #277409",
"$. c #004A25",
"%. c #00552B",
"&. c #005C30",
"*. c #3A4121",
"=. c #2C553D",
"-. c #006938",
";. c #1A6B37",
":. c #187B22",
">. c #326D25",
",. c #6B4008",
"<. c #654C0B",
"1. c #734209",
"2. c #7A410B",
"3. c #784B0D",
"4. c #694119",
"5. c #78530E",
"6. c #674727",
"7. c #68522F",
"8. c #187742",
"9. c #5C5A5C",
"0. c #605E5A",
"q. c #5B5C61",
"w. c #5E6163",
"e. c #616666",
"r. c #830403",
"t. c #8A0403",
"y. c #840904",
"u. c #8D0A03",
"i. c #940603",
"p. c #940A04",
"a. c #9B0A05",
"s. c #8D1805",
"d. c #9A1606",
"f. c #A40705",
"g. c #A30C05",
"h. c #AC0D06",
"j. c #AD0707",
"k. c #B30E07",
"l. c #BB0B07",
"z. c #B60F08",
"x. c #B90D08",
"c. c #AB1407",
"v. c #B41107",
"b. c #BB1207",
"n. c #BB1008",
"m. c #B51D09",
"M. c #822A07",
"N. c #972D09",
"B. c #97370C",
"V. c #972513",
"C. c #AC230B",
"Z. c #A72B08",
"A. c #BD2107",
"S. c #B8280A",
"D. c #AA330C",
"F. c #BD3807",
"G. c #C40C07",
"H. c #C21407",
"J. c #CB1607",
"K. c #CC1A06",
"L. c #C31208",
"P. c #CC1508",
"I. c #D41707",
"U. c #DB1606",
"Y. c #D61B07",
"T. c #DB1C07",
"R. c #DC1C08",
"E. c #D21808",
"W. c #E21C07",
"Q. c #E41D08",
"!. c #E91908",
"~. c #C42208",
"^. c #CA2808",
"/. c #DA2808",
"(. c #D53107",
"). c #D83507",
"_. c #CD3A07",
"`. c #E82208",
"'. c #82440C",
"]. c #8A4B0F",
"[. c #87490E",
"{. c #9A590E",
"}. c #8E4D10",
"|. c #914E10",
" X c #975211",
".X c #9B4804",
"XX c #A5490E",
"oX c #AE4D0B",
"OX c #8F610D",
"+X c #BF730A",
"@X c #CC7507",
"#X c #CE7B07",
"$X c #D57406",
"%X c #D27B08",
"&X c #D36907",
"*X c #048222",
"=X c #138929",
"-X c #098A3D",
";X c #0B9730",
":X c #068645",
">X c #178042",
",X c #019A4E",
"<X c #089648",
"1X c #009E52",
"2X c #04A34E",
"3X c #00A154",
"4X c #00AB57",
"5X c #00AC59",
"6X c #00A75D",
"7X c #5A9F52",
"8X c #47AD5C",
"9X c #D18407",
"0X c #AB8647",
"qX c #F0B55D",
"wX c #DCC961",
"eX c #FFD268",
"rX c #F7CB65",
"tX c None",
/* pixels */
"tXtXtXtXtXtXtXtXtXtXtXtXtXtXtXtXtXtXtXtXtXtXtXtXtXtXtXtXtXtXtXtXtXtXtXtXtXtXtXtXtXtXtXtXtXtXtXtXtXtXtXtXtXtXtXtXtXtXtXtXtXtXtXtXtXtXtXtXtXtXtXtXtXtXtXtXtXtXtXtX",
"tXtXtXtXtXtXtXtXtXtXtXtXtXtXtXtXtXtXtXtXtXtXtXtXtXtXtXtXtXtXtX      tXtXtXtXtXtXtXtXtXtXtXtXtXtXtXtXtXtXtXtXtXtXtXtXtXtXtXtXtXtXtXtXtXtXtXtXtXtXtXtXtXtXtXtXtXtX",
"tXtXtXtXtXtXtXtXtXtXtXtXtXtXtXtXtXtXtXtXtXtXtXtXtXtXtXtXtXtXtX        tXtXtXtXtXtXtXtXtXtXtXtXtXtXtXtXtXtXtXtXtXtXtXtXtXtXtXtXtXtXtXtXtXtXtXtXtXtXtXtXtXtXtXtXtX",
"tXtXtXtXtXtXtXtXtXtXtXtXtXtXtXtXtXtXtXtXtXtXtXtXtXtXtXtXtXtXtXtX      tXtXtXtXtXtXtXtXtXtXtXtXtXtXtXtXtXtXtXtXtXtXtXtXtXtXtXtXtXtXtXtXtXtXtXtXtXtXtXtXtXtXtXtXtX",
"tXtXtXtXtXtXtXtXtXtXtXtXtXtXtXtXtXtXtXtXtXtXtXtXtXtXtXtXtX    tXtXtX    tXtX    tXtXtXtXtXtXtXtXtXtXtXtXtXtXtXtXtXtXtXtXtXtXtXtXtXtXtXtXtXtXtXtXtXtXtXtXtXtXtXtX",
"tXtXtXtXtXtXtXtXtXtXtXtXtXtXtXtXtXtXtXtXtXtXtXtXtXtXtXtXtXtXtX    tX      tXtX    tXtXtXtXtXtXtXtXtXtXtXtXtXtXtXtXtXtXtXtXtXtXtXtXtXtXtXtXtXtXtXtXtXtXtXtXtXtXtX",
"tXtXtXtXtXtXtXtXtXtXtXtXtXtXtXtXtXtXtXtXtXtXtXtXtXtXtXtXtXtXtXtX          tXtX    tXtXtXtXtXtXtXtXtXtXtXtXtXtXtXtXtXtXtXtXtXtXtXtXtXtXtXtXtXtXtXtXtXtXtXtXtXtXtX",
"tXtXtXtXtXtXtXtXtXtXtXtXtXtXtXtXtXtXtXtXtXtXtXtXtXtX                            tXtX  tX  tXtX  tXtXtXtXtXtXtXtXtXtXtXtXtXtXtXtXtXtXtXtXtXtXtXtXtXtXtXtXtXtXtXtX",
"tXtXtXtXtXtXtXtXtXtXtXtXtXtXtXtXtXtXtXtXtXtXtXtXtXtXtXtXtX  r |.}.^             tXtX3 tX  tX  tXtXtXtXtXtXtXtXtXtXtXtXtXtXtXtXtXtXtXtXtXtXtXtXtXtXtXtXtXtXtXtXtX",
"tXtXtXtXtXtXtXtXtXtXtXtXtXtXtXtXtXtXtXtXtXtXtXtXtXtXtX    J ].2.2.) 2.2.'.@         #  X2.].2.}.|.tXtXtXtXtXtXtXtXtXtXtXtXtXtXtXtXtXtXtXtXtXtXtXtXtXtXtXtXtXtXtX",
"tXtXtXtXtXtXtXtXtXtXtXtXtXtXtXtXtXtXtXtXtXtXtXtXtXtX    tX# n k M ^ 2._ 2.^ ^ ^ ^ ^ ^ ) 2.) 2.) ) '.|.|.}.tXtXtXtXtXtXtXtXtXtXtXtXtXtXtXtXtXtXtXtXtXtXtXtXtXtXtX",
"tXtXtXtXtXtXtXtXtXtXtXtXtXtXtXtXtXtXtXtXtXtXtXtXtXtXtXtXtXtXtXtXk 1.^ ^ Q 2.'.2.2.'.2.Q ! ! ! ! Q ) 2.) 2.|.}.}.tXtXtXtXtXtXtXtXtXtXtXtXtXtXtXtXtXtXtXtXtXtXtXtX",
"tXtXtXtXtXtXtXtXtXtXtXtXtXtXtXtXtXtXtXtXtXtXtXtXtXtXtXtXtXtXtXtXtXN M M ~ ~ ! ~ ^ / / ^ ^ ^ ^ ~ ! ! ! Q ! ` 2.2.].|.tXtXtXtXtXtXtXtXtXtXtXtXtXtXtXtXtXtXtXtXtXtX",
"tXtXtXtXtXtXtXtXtXtXtXtXtXtXtXtXtXtXtXtXtXtXtXtXtXtXtXtXtXtXtXtXtX1 h 1 N L L L N L L L L L N ! ^ ^ ~ ! ! 6.! ! 2.2.[.tXtXtXtXtXtXtXtXtXtXtXtXtXtXtXtXtXtXtXtXtX",
"tXtXtXtXtXtXtXtXtXtXtXtXtXtXtXtXtXtXtXtXtXtXtXtXtXtXtXtXtXtXtXtXtXj h j 1 1 h h 1 1 h h 1 1 1 N R T ' 6.7.q.! ~ ! Q ) [.}.tXtXtXtXtXtXtXtXtXtXtXtXtXtXtXtXtXtXtX",
"tXtXtXtXtXtXtXtXtXtXtXtXtXtXtXtXtXtXtXtXtXtXtXtXtXtXtXtXtXtXtXtXtXtXtX< h h h h j h < 1 l l l 1 1 1 ] 9.9.0.4.' / ~ Q 2.}.tXtXtXtXtXtXtXtXtXtXtXtXtXtXtXtXtXtXtX",
"tXtXtXtXtXtXtXtXtXtXtXtXtXtXtXtXtXtXtXtXtXtXtXtXtXtXtXtXtXtXtXtXtXtXtXtX1 1 1 1 h >   o d d g 6 h l h h B e.9.q.' ~ ! 2.}.tXtXtXtXtXtXtXtXtXtXtXtXtXtXtXtXtXtXtX",
"tXtXtXtXtXtXtXtXtXtXtXtXtXtXtXtXtXtXtXtXtXtXtXtXtXtXtXtXtXtXtX                              i g f 6 h h B 9.h ! ~ ! 2.|.tXtXtXtXtXtXtXtXtXtXtXtXtXtXtXtXtXtXtXtX",
"tXtXtXtXtXtXtXtXtXtXtXtXtXtXtXtXtXtXtXtXtXtXtXtXtXtXtXtXtX    tXtXtX              % q # qXrX5       : j h l h ! ! tXtXtXtXtXtXtXtXtXtXtXtXtXtXtXtXtXtXtXtXtXtXtX",
"tXtXtXtXtXtXtXtXtXtXtXtXtXtXtXtXtXtXtXtXtXtXtXtXtXtXtXtXtXtXtXtXtXtX            7 @.q , eXt y 0XwX7.  j tXtXtXtXtXtXtXtXtXtXtXtXtXtXtXtXtXtXtXtXtXtXtXtXtXtXtXtX",
"tXtXtXtXtXtXtXtXtXtXtXtXtXtXtXtXtXtXtXtXtXtXtXtXtXtXtXtXtXtXtXtX                X w o.:X8Xq o qX0X5 + tXtXtXtXtXtXtXtXtXtXtXtXtXtXtXtXtXtXtXtXtXtXtXtXtXtXtXtXtX",
"tXtXtXtXtXtXtXtXtXtXtXtXtXtXtXtXtXtXtXtXtXtXtXtXtXtXtXtXtXtX                        8 &.+.@.9 7X>.$ . tXtXtXtXtXtXtXtXtXtXtXtXtXtXtXtXtXtXtXtXtXtXtXtXtXtXtXtXtX",
"tXtXtXtXtXtXtXtXtXtXtXtXtXtXtXtXtXtXtXtXtXtXtXtXtXtXtXtXtXd.Z Z k                 $ %   * 7 @.*X} & tXtXtXtXtXtXtXtXtXtXtXtXtXtXtXtXtXtXtXtXtXtXtXtXtXtXtXtXtXtX",
"tXtXtXtXtXtXtXtXtXtXtXtXtXtXtXtXtXtXtXtXtXtXtXtXtXtXtXH.R.E.P.b.Z                 & [ 8 u % 0 w X tXtXtXtXtXtXtXtXtXtXtXtXtXtXtXtXtXtXtXtXtXtXtXtXtXtXtXtXtXtXtX",
"tXtXtXtXtXtXtXtXtXtXtXtXtXtXtXtXtXtXtXtXtXtXtXtXtXb.H.z.b.D S v                     X #.<X#.        tXtXtXtXtXtXtXtXtXtXtXtXtXtXtXtXtXtXtXtXtXtXtXtXtXtXtXtXtXtX",
"tXtXtXtXtXtXtXtXtXtXtXtXtXtXtXtXtXtXtXtXtXtXtXb.R.R.K.v.D S >   .                   $ |  .| X     O O tXtXtXtXtXtXtXtXtXtXtXtXtXtXtXtXtXtXtXtXtXtXtXtXtXtXtXtXtX",
"tXtXtXtXtXtXtXtXtXtXtXtXtXtXtXtXtXtXtXtXtXtXtXY.Y.E.C x h.i.> : x                                 F y.  . tXtXtXtXtXtXtXtXtXtXtXtXtXtXtXtXtXtXtXtXtXtXtXtXtXtXtX",
"tXtXtXtXtXtXtXtXtXtXtXtXtXtXtXtXtXtXtXtXtXtXY.T.K.V V V V V C h                                   Z g.S tXtXtXtXtXtXtXtXtXtXtXtXtXtXtXtXtXtXtXtXtXtXtXtXtXtXtXtX",
"tXtXtXtXtXtXtXtXtXtXtXtXtXtXtXtXtXtXtXtXtXT.T.Y.T.J.E.S z x C h                                   . < t.b.tXtXtXtXtXtXtXtXtXtXtXtXtXtXtXtXtXtXtXtXtXtXtXtXtXtXtX",
"tXtXtXtXtXtXtXtXtXtXtXtXtXtXtXtXtXtXtXR.J.H.R.Y.Y.R.Q.H.b.K.p.j z h h       -.u                     + t.L.b.tXtXtXtXtXtXtXtXtXtXtXtXtXtXtXtXtXtXtXtXtXtXtXtXtXtX",
"tXtXtXtXtXtXtXtXtXtXtXtXtXtXtXtXtXtXtXb.v.H.R.Y.T.H.b.R.`.`.H.D S k.v.1 j   -X$.        -.          : D D y.b.tXtXtXtXtXtXtXtXtXtXtXtXtXtXtXtXtXtXtXtXtXtXtXtXtX",
"tXtXtXtXtXtXtXtXtXtXtXtXtXtXtXtXtXtXtXtXn.b.K.T.H.v.v.H.K.R.E.i.x N.W.a.S z -.8.%.%.&.-.:.0   l h < j V z x t.h.tXtXtXtXtXtXtXtXtXtXtXtXtXtXtXtXtXtXtXtXtXtXtXtX",
"tXtXtXtXtXtXtXtXtXtXtXtXtXtXtXtXtXtXtXtXu.a.L.P.k.i.u.h.E.W.J.h.s.Z.T.K.S U 8.5X4X5X3X=XO.=XL G.H.r.x C g.p.z v.Y.tXtXtXtXtXtXtXtXtXtXtXtXtXtXtXtXtXtXtXtXtXtXtX",
"tXtXtXtXtXtXtXtXtXtXtXtXtXtXtXtXtXtXtXtXtXD a.p.p.x x u.b.Y.h.v.`.A.T.Q.D :X5X,X,X1X-XO.6X8.C.U.`.H.y.g.`.T.t./.R.tXtXtXtXtXtXtXtXtXtXtXtXtXtXtXtXtXtXtXtXtXtXtX",
"tXtXtXtXtXtXtXtXtXtXtXtXtXtXtXtXtXtXtXtXtXtXx V V V V x a.L.D t.~.W E.E.D 8.4X2X1X,X1X3X-Xc z v.Y.K./.P.g.Q.`.E.K.tXtXtXtXtXtXtXtXtXtXtXtXtXtXtXtXtXtXtXtXtXtXtX",
"tXtXtXtXtXtXtXtXtXtXtXtXtXtXtXtXtXtXtXtXtXtXtXtXtXV V V p.z.t.D h.v.c.k.D ;.<X:X<X1X1X<XX.{ v f.x.M.N.l.V E.K.k.k.tXtXtXtXtXtXtXtXtXtXtXtXtXtXtXtXtXtXtXtXtXtXtX",
"tXtXtXtXtXtXtXtXtXtXtXtXtXtXtXtXtXtXtXtXtXtXtXtXtXtXtXV V V V V Z ` z.z.S V V S *.5X,X,X,X{ v f.b.k.v.a.V V V h.k.tXtXtXtXtXtXtXtXtXtXtXtXtXtXtXtXtXtXtXtXtXtXtX",
"tXtXtXtXtXtXtXtXtXtXtXtXtXtXtXtXtXtXtXtXtXtXtXtXtXtXtXV V V C V V V C C V V S < 7 @...{ { 2XV.G.r.L N.f.x V V V tXtXtXtXtXtXtXtXtXtXtXtXtXtXtXtXtXtXtXtXtXtXtXtX",
"tXtXtXtXtXtXtXtXtXtXtXtXtXtXtXtXtXtXtXtXtXtXtXtXtXtXtXh.S x C V V V V V V V S > $.;X .p a = Z D C A A S V tXtXtXtXtXtXtXtXtXtXtXtXtXtXtXtXtXtXtXtXtXtXtXtXtXtXtX",
"tXtXtXtXtXtXtXtXtXtXtXtXtXtXtXtXtXtXtXtXtXtXtXtXtXtXtXn.k.D x x V A ! '.S V S : ; =.a g d   x V V V V tXtXtXtXtXtXtXtXtXtXtXtXtXtXtXtXtXtXtXtXtXtXtXtXtXtXtXtXtX",
"tXtXtXtXtXtXtXtXtXtXtXtXtXtXtXtXtXtXtXtXtXtXtXtXtXtXtXn.u.t.g.c.r.x G G A x z 6 s g f d g i h V M.W T tXtXtXtXtXtXtXtXtXtXtXtXtXtXtXtXtXtXtXtXtXtXtXtXtXtXtXtXtX",
"tXtXtXtXtXtXtXtXtXtXtXtXtXtXtXtXtXtXtXtXtXtXtXtXtXtXtXz.u.g.Q.Y.h.t.t.i.V t.S 6 - ; - Y - - l x E 5.3.tXtXtXtXtXtXtXtXtXtXtXtXtXtXtXtXtXtXtXtXtXtXtXtXtXtXtXtXtX",
"tXtXtXtXtXtXtXtXtXtXtXtXtXtXtXtXtXtXtXtXtXtXtXtXtXtXtXv.b.Y.Y.b.c.Z._.P.t.v.i.:   @ P )     x r.s.N.D.tXtXtXtXtXtXtXtXtXtXtXtXtXtXtXtXtXtXtXtXtXtXtXtXtXtXtXtXtX",
"tXtXtXtXtXtXtXtXtXtXtXtXtXtXtXtXtXtXtXtXtXtXtXtXtXtXtXb.E.W.H.k.m. X@XR.L.b.t.:   3 '.2.    z h.!.J.oXtXtXtXtXtXtXtXtXtXtXtXtXtXtXtXtXtXtXtXtXtXtXtXtXtXtXtXtXtX",
"tXtXtXtXtXtXtXtXtXtXtXtXtXtXtXtXtXtXtXtXtXtXtXtXtXtXY.T.Y.U.H.H.W.E.}.U.x.x.t.< @ @ # T . . j y.J.D.OX@XtXtXtXtXtXtXtXtXtXtXtXtXtXtXtXtXtXtXtXtXtXtXtXtXtXtXtXtX",
"tXtXtXtXtXtXtXtXtXtXtXtXtXtXtXtXtXtXtXtXtXtXtXtXtXtXT.Y.T.Y./.Y.E.T.U.Y.n.v.D G ^ ^ R 1 h k j   u.S.,.N.tXtXtXtXtXtXtXtXtXtXtXtXtXtXtXtXtXtXtXtXtXtXtXtXtXtXtXtX",
"tXtXtXtXtXtXtXtXtXtXtXtXtXtXtXtXtXtXtXtXtXtXtXtXtXtXY.Y.Y.Y.T.J.n.R.Y.v.n.D j h h h h h h ! k < u.E.R.P.k.tXtXtXtXtXtXtXtXtXtXtXtXtXtXtXtXtXtXtXtXtXtXtXtXtXtXtX",
"tXtXtXtXtXtXtXtXtXtXtXtXtXtXtXtXtXtXtXtXtXtXtXtXtXtXT.Y.T.Y.U.J.z.R.U.E.b.D j 1 h h 1 h ! ~ h E # V S.{.$XtXtXtXtXtXtXtXtXtXtXtXtXtXtXtXtXtXtXtXtXtXtXtXtXtXtXtX",
"tXtXtXtXtXtXtXtXtXtXtXtXtXtXtXtXtXtXtXtXtXtXtXtXtXY.Y.T.T.T.J.k.m.XX&X/.b.D j < b ! R ! ,.1.h R 4 r.C.<.{.tXtXtXtXtXtXtXtXtXtXtXtXtXtXtXtXtXtXtXtXtXtXtXtXtXtXtX",
"tXtXtXtXtXtXtXtXtXtXtXtXtXtXtXtXtXtXtXtXtXtXtXtXtXU.Y.Y.Y.R.H.z.d.<.{.Y.L.D j M N N ^ b m b h R M : H ^.A.tXtXtXtXtXtXtXtXtXtXtXtXtXtXtXtXtXtXtXtXtXtXtXtXtXtXtX",
"tXtXtXtXtXtXtXtXtXtXtXtXtXtXtXtXtXtXtXtXtXtXtXtXtXY.Y.T.T.K.z.k.v.Z.S.T.a.x 1 L Q M b 1 h 1 1 R ! , x !.W.tXtXtXtXtXtXtXtXtXtXtXtXtXtXtXtXtXtXtXtXtXtXtXtXtXtXtX",
"tXtXtXtXtXtXtXtXtXtXtXtXtXtXtXtXtXtXtXtXtXtXtXtXtXT.Y.Y.R.L.h.z.J.!.U.J.C h 1 N 1.L 1 h 1 M M Q 2.N j a.P.tXtXtXtXtXtXtXtXtXtXtXtXtXtXtXtXtXtXtXtXtXtXtXtXtXtXtX",
"tXtXtXtXtXtXtXtXtXtXtXtXtXtXtXtXtXtXtXtXtXtXtXtXtXY.U.U.E.n.x.p.F I.Y.k.S h 1 L 1.R 1 h M ^ 1.~ ! L n H n.tXtXtXtXtXtXtXtXtXtXtXtXtXtXtXtXtXtXtXtXtXtXtXtXtXtXtX",
"tXtXtXtXtXtXtXtXtXtXtXtXtXtXtXtXtXtXtXtXtXtXtXtXtX(.(.).b.j.G.Z + P.I.z.S h 1 N 1.L 1 k Q R L ! ^ ^ ,.M.x.tXtXtXtXtXtXtXtXtXtXtXtXtXtXtXtXtXtXtXtXtXtXtXtXtXtXtX",
"tXtXtXtXtXtXtXtXtXtXtXtXtXtXtXtXtXtXtXtXtXtXtXtXtX#X#X9XF.v.~.s.j c./.~.A h h L 1.L 1 h h h h T Q Q / M.l.tXtXtXtXtXtXtXtXtXtXtXtXtXtXtXtXtXtXtXtXtXtXtXtXtXtXtX",
"tXtXtXtXtXtXtXtXtXtXtXtXtXtXtXtXtXtXtXtXtXtXtXtXtXtXtXtX#X@X%X.X+ @ @X@X@ : R ^ ^ L 1 h h ! ^ k 1 N ,.W tXtXtXtXtXtXtXtXtXtXtXtXtXtXtXtXtXtXtXtXtXtXtXtXtXtXtXtX",
"tXtXtXtXtXtXtXtXtXtXtXtXtXtXtXtXtXtXtXtXtXtXtXtXtXtXtXtXtXI . + 1     . 1 1 L ) ) K   j h h h 1 N ^ ^ ! tXtXtXtXtXtXtXtXtXtXtXtXtXtXtXtXtXtXtXtXtXtXtXtXtXtXtXtX",
"tXtXtXtXtXtXtXtXtXtXtXtXtXtXtXtXtXtXtXtXtXtXtXtXtXtXtXtXtXX + h h 1 < < I ! ! ^ 2.K   j h h 1 T ~ ) ^ ^ tXtXtXtXtXtXtXtXtXtXtXtXtXtXtXtXtXtXtXtXtXtXtXtXtXtXtXtX",
"tXtXtXtXtXtXtXtXtXtXtXtXtXtXtXtXtXtXtXtXtXtXtXtXtXtXtXtXtX  : j 1 k ! R ~ ~ ^ N 2 tXO j h h h k k k k k tXtXtXtXtXtXtXtXtXtXtXtXtXtXtXtXtXtXtXtXtXtXtXtXtXtXtXtX",
"tXtXtXtXtXtXtXtXtXtXtXtXtXtXtXtXtXtXtXtXtXtXtXtXtXtXtXtXtX  + j h 1 M ) ) ~ 2.G tX    O h h h j j j h k tXtXtXtXtXtXtXtXtXtXtXtXtXtXtXtXtXtXtXtXtXtXtXtXtXtXtXtX",
"tXtXtXtXtXtXtXtXtXtXtXtXtXtXtXtXtXtXtXtXtXtXtXtXtXtXtXtX> : < h k L 1 m M M N tXtX. : : h h h : O + + tXtXtXtXtXtXtXtXtXtXtXtXtXtXtXtXtXtXtXtXtXtXtXtXtXtXtXtXtX",
"tXtXtXtXtXtXtXtXtXtXtXtXtXtXtXtXtXtXtXtXtXtXtXtXtXtXtXh j j j h k R N N h 1 j tX  < z j h h h : + .   tXtXtXtXtXtXtXtXtXtXtXtXtXtXtXtXtXtXtXtXtXtXtXtXtXtXtXtXtX",
"tXtXtXtXtXtXtXtXtXtXtXtXtXtXtXtXtXtXtXtXtXtXtXtXtXtXh h h h h h 1 1 J J < h tXO + z h h h h h z h +     tXtXtXtXtXtXtXtXtXtXtXtXtXtXtXtXtXtXtXtXtXtXtXtXtXtXtXtX",
"tXtXtXtXtXtXtXtXtXtXtXtXtXtXtXtXtXtXtXtXtXtXtXtXtXtX1 h h h h h h 1       tXtX  O 1 1 j h h < 1 .       tXtXtXtXtXtXtXtXtXtXtXtXtXtXtXtXtXtXtXtXtXtXtXtXtXtXtXtX",
"tXtXtXtXtXtXtXtXtXtXtXtXtXtXtXtXtXtXtXtXtXtXtXtXtX  1 h h h h h h <       tXtXtX    . 1 h h O         tXtXtXtXtXtXtXtXtXtXtXtXtXtXtXtXtXtXtXtXtXtXtXtXtXtXtXtXtX",
"tXtXtXtXtXtXtXtXtXtXtXtXtXtXtXtXtXtXtXtXtXtXtXtXtXtX  < h h h j <         tXtXtXtXtXtX  h h h j +       tXtXtXtXtXtXtXtXtXtXtXtXtXtXtXtXtXtXtXtXtXtXtXtXtXtXtXtX",
"tXtXtXtXtXtXtXtXtXtXtXtXtXtXtXtXtXtXtXtXtXtXtXtXtXtXtX    < j h h 1       tXtXtXtXtX    .       tXtXtXtXtXtXtXtXtXtXtXtXtXtXtXtXtXtXtXtXtXtXtXtXtXtXtXtXtXtXtXtX",
"tXtXtXtXtXtXtXtXtXtXtXtXtXtXtXtXtXtXtXtXtXtXtXtXtXtX        . . . .     tXtXtXtXtXO h <                 tXtXtXtXtXtXtXtXtXtXtXtXtXtXtXtXtXtXtXtXtXtXtXtXtXtXtXtX",
"tXtXtXtXtXtXtXtXtXtXtXtXtXtXtXtXtXtXtXtXtXtXtXtXtXj h           tXtXtXtXtXtXtXtXtXO z h < < < < .           tXtXtXtXtXtXtXtXtXtXtXtXtXtXtXtXtXtXtXtXtXtXtXtXtXtX",
"tXtXtXtXtXtXtXtXtXtXtXtXtXtXtXtXtXtXtXtXtXtXtXtX1 O O > > < O   tXtXtXtXtXtXtXtXtXO j h j h j j < > > > :   tXtXtXtXtXtXtXtXtXtXtXtXtXtXtXtXtXtXtXtXtXtXtXtXtXtX",
"tXtXtXtXtXtXtXtXtXtXtXtXtXtXtXtXtXtXtXtXtXtXtXtXh + + h j j < : > h tXtXtXtXtXtXtXtXtXtXtXtXtXtXtXtXtXtXtXtXtXtXtXtXtXtXtXtXtXtXtXtXtXtXtXtXtXtXtXtXtXtXtXtXtXtX",
"tXtXtXtXtXtXtXtXtXtXtXtXtXtXtXtXtXtXtXtXtXtXtXtXh j j h h h h j j 1   tXtXtXtXtXtXtXtXtXtXtXtXtXtXtXtXtXtXtXtXtXtXtXtXtXtXtXtXtXtXtXtXtXtXtXtXtXtXtXtXtXtXtXtXtX",
"tXtXtXtXtXtXtXtXtXtXtXtXtXtXtXtXtXtXtXtXtXtXtXtXtXtXh h h h h h h 1   tXtXtXtXtXtXtXtXtXtXtXtXtXtXtXtXtXtXtXtXtXtXtXtXtXtXtXtXtXtXtXtXtXtXtXtXtXtXtXtXtXtXtXtXtX",
"tXtXtXtXtXtXtXtXtXtXtXtXtXtXtXtXtXtXtXtXtXtXtXtXtXtXtXtXtXtXtXtXtXtXtXtXtXtXtXtXtXtXtXtXtXtXtXtXtXtXtXtXtXtXtXtXtXtXtXtXtXtXtXtXtXtXtXtXtXtXtXtXtXtXtXtXtXtXtXtX",
"tXtXtXtXtXtXtXtXtXtXtXtXtXtXtXtXtXtXtXtXtXtXtXtXtXtXtXtXtXtXtXtXtXtXtXtXtXtXtXtXtXtXtXtXtXtXtXtXtXtXtXtXtXtXtXtXtXtXtXtXtXtXtXtXtXtXtXtXtXtXtXtXtXtXtXtXtXtXtXtX",
"tXtXtXtXtXtXtXtXtXtXtXtXtXtXtXtXtXtXtXtXtXtXtXtXtXtXtXtXtXtXtXtXtXtXtXtXtXtXtXtXtXtXtXtXtXtXtXtXtXtXtXtXtXtXtXtXtXtXtXtXtXtXtXtXtXtXtXtXtXtXtXtXtXtXtXtXtXtXtXtX",
"tXtXtXtXtXtXtXtXtXtXtXtXtXtXtXtXtXtXtXtXtXtXtXtXtXtXtXtXtXtXtXtXtXtXtXtXtXtXtXtXtXtXtXtXtXtXtXtXtXtXtXtXtXtXtXtXtXtXtXtXtXtXtXtXtXtXtXtXtXtXtXtXtXtXtXtXtXtXtXtX",
"tXtXtXtXtXtXtXtXtXtXtXtXtXtXtXtXtXtXtXtXtXtXtXtXtXtXtXtXtXtXtXtXtXtXtXtXtXtXtXtXtXtXtXtXtXtXtXtXtXtXtXtXtXtXtXtXtXtXtXtXtXtXtXtXtXtXtXtXtXtXtXtXtXtXtXtXtXtXtXtX",
"tXtXtXtXtXtXtXtXtXtXtXtXtXtXtXtXtXtXtXtXtXtXtXtXtXtXtXtXtXtXtXtXtXtXtXtXtXtXtXtXtXtXtXtXtXtXtXtXtXtXtXtXtXtXtXtXtXtXtXtXtXtXtXtXtXtXtXtXtXtXtXtXtXtXtXtXtXtXtXtX",
"tXtXtXtXtXtXtXtXtXtXtXtXtXtXtXtXtXtXtXtXtXtXtXtXtXtXtXtXtXtXtXtXtXtXtXtXtXtXtXtXtXtXtXtXtXtXtXtXtXtXtXtXtXtXtXtXtXtXtXtXtXtXtXtXtXtXtXtXtXtXtXtXtXtXtXtXtXtXtXtX"
};
