/* XPM */
static char *_6699_da451a83137c1c04273075304db9fe593966d2b99f0fd9684fa41c7a30790df5[] = {
/* columns rows colors chars-per-pixel */
"80 80 222 2 ",
"   c #010000",
".  c #0C0100",
"X  c #040C01",
"o  c #0A0905",
"O  c #140000",
"+  c #1C0000",
"@  c #180903",
"#  c #031704",
"$  c gray8",
"%  c gray11",
"&  c #220000",
"*  c #2C0101",
"=  c #230800",
"-  c #340000",
";  c #3D0000",
":  c #231304",
">  c #2A1402",
",  c #2A1905",
"<  c #371903",
"1  c #082107",
"2  c #173F00",
"3  c #002413",
"4  c #19300D",
"5  c #3B2803",
"6  c #333D0F",
"7  c #162021",
"8  c #222222",
"9  c #2D2D2D",
"0  c #212C2C",
"q  c #3A2D2D",
"w  c #2B3939",
"e  c #343434",
"r  c #3A3B3B",
"t  c #34393A",
"y  c #430000",
"u  c #4A0100",
"i  c #450901",
"p  c #4B0B01",
"a  c #480808",
"s  c #550201",
"d  c #5D0100",
"f  c #5C0C03",
"g  c #5D090A",
"h  c #4E1202",
"j  c #471804",
"k  c #511303",
"l  c #551A03",
"z  c #5A1E04",
"x  c #581506",
"c  c #4B1A1C",
"v  c #461515",
"b  c #5B1C1C",
"n  c #650000",
"m  c #6B0101",
"M  c #620902",
"N  c #6C0903",
"B  c #720201",
"V  c #7C0302",
"C  c #770805",
"Z  c #661505",
"A  c #741501",
"S  c #711010",
"D  c #412B00",
"F  c #482707",
"G  c #5C2304",
"H  c #5D2B05",
"J  c #552E0A",
"K  c #552504",
"L  c #552C15",
"P  c #602705",
"I  c #622A05",
"U  c #6A2C05",
"Y  c #792B07",
"T  c #663205",
"R  c #6A3607",
"E  c #6C3907",
"W  c #63360B",
"Q  c #6D3B09",
"!  c #733A03",
"~  c #723C09",
"^  c #783307",
"/  c #683D15",
"(  c #5C3032",
")  c #164100",
"_  c #1B5A03",
"`  c #2C4900",
"'  c #245400",
"]  c #255B02",
"[  c #285900",
"{  c #2B5400",
"}  c #3C4C18",
"|  c #206000",
" . c #005E34",
".. c #3F5D29",
"X. c #0C7F24",
"o. c #1A6E34",
"O. c #306835",
"+. c #734209",
"@. c #7C420B",
"#. c #7A580C",
"$. c #76481C",
"%. c #694B07",
"&. c #7C660C",
"*. c #5D483F",
"=. c #5C502A",
"-. c #664C35",
";. c #67513A",
":. c #67542A",
">. c #406B27",
",. c #277D40",
"<. c #464747",
"1. c #535353",
"2. c #5B5B5B",
"3. c #595557",
"4. c #465858",
"5. c #704142",
"6. c #615041",
"7. c #5C5E61",
"8. c #5F6565",
"9. c #636565",
"0. c #6A6B6B",
"q. c #626A6A",
"w. c #797979",
"e. c #6C7777",
"r. c #840402",
"t. c #890402",
"y. c #8E0904",
"u. c #860B05",
"i. c #930504",
"p. c #930904",
"a. c #9C0A05",
"s. c #9D0605",
"d. c #991807",
"f. c #8C1405",
"g. c #AB0604",
"h. c #A40C05",
"j. c #AD0D06",
"k. c #A30301",
"l. c #B20E07",
"z. c #BD0B06",
"x. c #BD0608",
"c. c #AC1807",
"v. c #B51107",
"b. c #BB1107",
"n. c #BC1108",
"m. c #B71008",
"M. c #87360A",
"N. c #96350B",
"B. c #912707",
"V. c #A72808",
"C. c #B62808",
"Z. c #A23809",
"A. c #B0310C",
"S. c #923431",
"D. c #C40804",
"F. c #D40F05",
"G. c #C41407",
"H. c #C91507",
"J. c #CA1A07",
"K. c #C31208",
"L. c #CC1408",
"P. c #C31B08",
"I. c #D41407",
"U. c #DC1406",
"Y. c #D61B07",
"T. c #DA1C07",
"R. c #D31A08",
"E. c #DA1608",
"W. c #E11407",
"Q. c #E41A07",
"!. c #E31D08",
"~. c #E91A08",
"^. c #C52408",
"/. c #D23309",
"(. c #84460C",
"). c #8B4B0E",
"_. c #944E0E",
"`. c #885705",
"'. c #92500F",
"]. c #8D4C10",
"[. c #914F10",
"{. c #9A5310",
"}. c #945011",
"|. c #A55A0D",
" X c #B75807",
".X c #A65910",
"XX c #996509",
"oX c #B0720A",
"OX c #866F3A",
"+X c #D84807",
"@X c #C64B09",
"#X c #E55208",
"$X c #EC5409",
"%X c #D66807",
"&X c #CD6F09",
"*X c #0B832A",
"=X c #0A8C3A",
"-X c #0A8837",
";X c #03913D",
":X c #088D45",
">X c #059345",
",X c #009B4E",
"<X c #01974C",
"1X c #019D52",
"2X c #01A255",
"3X c #00AA56",
"4X c #00AA5F",
"5X c #00AA53",
"6X c #3FA352",
"7X c #00B761",
"8X c #D68206",
"9X c #978343",
"0X c #BF9048",
"qX c #ABA857",
"wX c #CAA448",
"eX c #E8A855",
"rX c #F6C963",
"tX c #FFE876",
"yX c #898989",
"uX c #939393",
"iX c #A0A1A1",
"pX c None",
/* pixels */
"pXpXpXpXpXpXpXpXpXpXpXpXpXpXpXpXpXpXpXpXpXpXpXpXpXpXpXpXpXpXpXpXpXpXpXpXpXpXpXpXpXpXpXpXpXpXpXpXpXpXpXpXpXpXpXpXpXpXpXpXpXpXpXpXpXpXpXpXpXpXpXpXpXpXpXpXpXpXpXpX",
"pXpXpXpXpXpXpXpXpXpXpXpXpXpXpXpXpXpXpXpXpXpXpXpXpXpXpXpXpXpXpXpXpXpXpXpXpXpXpXpXpXpXpXpXpXpXpXpXpXpXpXpXpXpXpXpXpXpXpXpXpXpXpXpXpXpXpXpXpXpXpXpXpXpXpXpXpXpXpXpX",
"pXpXpXpXpXpXpXpXpXpXpXpXpXpXpXpXpXpXpXpXpXpXpXpXpXpXpXpXpXpXpXpXpXpXpXpXpXpXpXpXpXpXpXpXpXpXpXpXpXpXpXpXpXpXpXpXpXpXpXpXpXpXpXpXpXpXpXpXpXpXpXpXpXpXpXpXpXpXpXpX",
"pXpXpXpXpXpXpXpXpXpXpXpXpXpXpXpXpXpXpXpXpXpXpXpXpXpXpXpXpXpXpXpXpXpXpXpXpXpXpXpXpXpXpXpXpXpXpXpXpXpXpXpXpXpXpXpXpXpXpXpXpXpXpXpXpXpXpXpXpXpXpXpXpXpXpXpXpXpXpXpX",
"pXpXpXpXpXpXpXpXpXpXpXpXpXpXpXpXpXpXpXpXpXpXpXpXpXpXpXpXpXpXpXpXpXpXpXpXpXpXpXpXpXpXpXpXpXpXpXpXpXpXpXpXpXpXpXpXpXpXpXpXpXpXpXpXpXpXpXpXpXpXpXpXpXpXpXpXpXpXpXpX",
"pXpXpXpXpXpXpXpXpXpXpXpXpXpXpXpXpXpXpXpXpXpXpXpXpX    pXpXpXpXpXpXpXpXpX  pXpXpXpXpXpXpXpXpXpXpXpXpXpXpXpXpXpXpXpXpXpXpXpXpXpXpXpXpXpXpXpXpXpXpXpXpXpXpXpXpXpXpX",
"pXpXpXpXpXpXpXpXpXpXpXpXpXpXpXpXpXpXpXpXpXpXpXpXpXpX        pXpXpX    pX  pX].).].].].].].].].].].].].pXpXpXpXpXpXpXpXpXpXpXpXpXpXpXpXpXpXpXpXpXpXpXpXpXpXpXpXpX",
"pXpXpXpXpXpXpXpXpXpXpXpXpXpXpXpXpXpXpXpX      pXpXpXpXpXpXpX  pXpXpX    ~ }.}.@.~ ~ ~ ~ ! ~ ~ ^ ! ~ ~ ).pXpXpXpXpXpXpXpXpXpXpXpXpXpXpXpXpXpXpXpXpXpXpXpXpXpXpXpX",
"pXpXpXpXpXpXpXpXpXpXpXpXpXpXpXpX                        pXpX      : W J (.@.@.Q T E R R 6./ P / ;.R R ~ (.pXpXpXpXpXpXpXpXpXpXpXpXpXpXpXpXpXpXpXpXpXpXpXpXpXpXpX",
"pXpXpXpXpXpXpXpXpXpXpXpXpXpXpXpX        pX                pX  , F W _.).T T R E Q Q Q E -.-.;.;.-.R R T @.[.pXpXpXpXpXpXpXpXpXpXpXpXpXpXpXpXpXpXpXpXpXpXpXpXpXpX",
"pXpXpXpXpXpXpXpXpXpXpXpXpXpXpXpXpXpXpXpXpXpX            . , > @.{.@.T T E Q I H I G I H / 6.3.6./ E R R (.].pXpXpXpXpXpXpXpXpXpXpXpXpXpXpXpXpXpXpXpXpXpXpXpXpXpX",
"pXpXpXpXpXpXpXpXpXpXpXpXpXpXpXpXpXpX                  @ , }._.Q T R E E U T p ; ; y y ; 3.c - c 2.I R R @.pXpXpXpXpXpXpXpXpXpXpXpXpXpXpXpXpXpXpXpXpXpXpXpXpXpXpX",
"pXpXpXpXpXpXpXpXpXpXpXpXpXpXpXpXpXpXpXpXpXpXpXpX    F {.(.R E R E R E U y y y y y y y y y y y y y i T pXpXpXpXpXpXpXpXpXpXpXpXpXpXpXpXpXpXpXpXpXpXpXpXpXpXpXpXpX",
"pXpXpXpXpXpXpXpXpXpXpXpXpXpXpXpXpXpXpXpX          J (.~ ~ R R E +.G i i y u 6 [ { { ` y y y y y y y pXpXpXpXpXpXpXpXpXpXpXpXpXpXpXpXpXpXpXpXpXpXpXpXpXpXpXpXpXpX",
"pXpXpXpXpXpXpXpXpXpXpXpXpXpXpXpXpX            W Q +.~ T R ~ ~ l h p y u y O X   # # X   ; y y y y pXpXpXpXpXpXpXpXpXpXpXpXpXpXpXpXpXpXpXpXpXpXpXpXpXpXpXpXpXpXpX",
"pXpXpXpXpXpXpXpXpXpXpXpXpXpXpX        pX: J J (.).~ Q ~ R l l u u - & = 5   =.9XL . OX9Xk ; y pXpXpXpXpXpXpXpXpXpXpXpXpXpXpXpXpXpXpXpXpXpXpXpXpXpXpXpXpXpXpXpXpX",
"pXpXpXpXpXpXpXpXpXpXpXpXpXpXpX    pXpXpX5 .X).E E H G G l ; y * - O . X |   eXrX:.O.tX0Xf ; pXpXpXpXpXpXpXpXpXpXpXpXpXpXpXpXpXpXpXpXpXpXpXpXpXpXpXpXpXpXpXpXpXpX",
"pXpXpXpXpXpXpXpXpXpXpXpXpXpXpXpXpXpXpX  : I I I T a ; ; y y - .     X 1 ] 3 qX=.3 6XwX# pXpXpXpXpXpXpXpXpXpXpXpXpXpXpXpXpXpXpXpXpXpXpXpXpXpXpXpXpXpXpXpXpXpXpXpX",
"pXpXpXpXpXpXpXpXpXpXpXpXpXpXpXpXpXpX      . y y y y y y y ;         # | ' >X,X3X .. _ 1XpXpXpXpXpXpXpXpXpXpXpXpXpXpXpXpXpXpXpXpXpXpXpXpXpXpXpXpXpXpXpXpXpXpXpXpX",
"pXpXpXpXpXpXpXpXpXpXpXpXpXpXpXpX    pXpXpXpXpXy y y y u ;               X _ ] -X4X:X' X pXpXpXpXpXpXpXpXpXpXpXpXpXpXpXpXpXpXpXpXpXpXpXpXpXpXpXpXpXpXpXpXpXpXpXpX",
"pXpXpXpXpXpXpXpXpXpXpXpXpXpXpXpXpXpXpXpXpXpXpXpXpXpX+                     X X # 3 3 X     pXpXpXpXpXpXpXpXpXpXpXpXpXpXpXpXpXpXpXpXpXpXpXpXpXpXpXpXpXpXpXpXpXpXpX",
"pXpXpXpXpXpXpXpXpXpXpXpXpXpXpXpXpXpXpXpXpXpXpXpXpXpXpXpXpXpX.               & - O         pXpXpXpXpXpXpXpXpXpXpXpXpXpXpXpXpXpXpXpXpXpXpXpXpXpXpXpXpXpXpXpXpXpXpX",
"pXpXpXpXpXpXpXpXpXpXpXpXpXpXpXpXpXpXpXpXpXpXpXpXpXpXpXpXpXpX.             F * f p o F .     pXpXpXpXpXpXpXpXpXpXpXpXpXpXpXpXpXpXpXpXpXpXpXpXpXpXpXpXpXpXpXpXpXpX",
"pXpXpXpXpXpXpXpXpXpXpXpXpXpXpXpXpXpXpXpXpXpXpXpXpXR.H.a.C N .             #.4 } ..4 #.        pXpXpXpXpXpXpXpXpXpXpXpXpXpXpXpXpXpXpXpXpXpXpXpXpXpXpXpXpXpXpXpXpX",
"pXpXpXpXpXpXpXpXpXpXpXpXpXpXpXpXpXpXpXpXpXpXpXb.R.P.v.M . .               ) [ *X3X=X)       pXpXpXpXpXpXpXpXpXpXpXpXpXpXpXpXpXpXpXpXpXpXpXpXpXpXpXpXpXpXpXpXpXpX",
"pXpXpXpXpXpXpXpXpXpXpXpXpXpXpXpXpXpXpXH.T.R.R.T.~.i   i L.j..               ) [ [ )         pXpXpXpXpXpXpXpXpXpXpXpXpXpXpXpXpXpXpXpXpXpXpXpXpXpXpXpXpXpXpXpXpXpX",
"pXpXpXpXpXpXpXpXpXpXpXpXpXpXpXpXpXm.j.J.R.h.n B R.Y.v.r.r.m..                 X X           f g.pXpXpXpXpXpXpXpXpXpXpXpXpXpXpXpXpXpXpXpXpXpXpXpXpXpXpXpXpXpXpXpX",
"pXpXpXpXpXpXpXpXpXpXpXpXpXpXpXpXY.R.Y.!.R.l.p.s B b.!.n.s +                               * y.j.m pXpXpXpXpXpXpXpXpXpXpXpXpXpXpXpXpXpXpXpXpXpXpXpXpXpXpXpXpXpXpX",
"pXpXpXpXpXpXpXpXpXpXpXpXpXpXpXv.Y.L.h.p.u.y.K.a.n B a.N + M N O                           C g.m B n.~.pXpXpXpXpXpXpXpXpXpXpXpXpXpXpXpXpXpXpXpXpXpXpXpXpXpXpXpXpX",
"pXpXpXpXpXpXpXpXpXpXpXpXpXpXpXH.T.l.n n r.r.a.a.m d n ; ; I.U.=   * a   $       . $   $   s u.B B n.V.V pXpXpXpXpXpXpXpXpXpXpXpXpXpXpXpXpXpXpXpXpXpXpXpXpXpXpXpX",
"pXpXpXpXpXpXpXpXpXpXpXpXpXpXpXT.T.H.r.p.v.p.s d m m n n V h.u.y - N C @ e 8 o   8 e   t 8 X f j.m a.^ B D pXpXpXpXpXpXpXpXpXpXpXpXpXpXpXpXpXpXpXpXpXpXpXpXpXpXpX",
"pXpXpXpXpXpXpXpXpXpXpXpXpXpXpXR.R.R.H.r.d m B n n n n m m s . f.T.f   C r 8.$ % r 8 o e q.7 d l.n n j.r.5 X.2X>X>XpXpXpXpXpXpXpXpXpXpXpXpXpXpXpXpXpXpXpXpXpXpXpX",
"pXpXpXpXpXpXpXpXpXpXpXpXpXpXpXm.l.l.v.l.l.l.j.m n m m n n m j.N.&X%.  S 7.o 8 3.r   e 7.q.b t.I.G.n R m D *X>X' ' >XpXpXpXpXpXpXpXpXpXpXpXpXpXpXpXpXpXpXpXpXpXpX",
"pXpXpXpXpXpXpXpXpXpXpXpXpXpXpXpXl.I.R.R.L.h.n n n n n n m n B T `.N.r.g r   % 7.9 $ yXuX<.<.S.F.H.n M m D X.2X-X' :XpXpXpXpXpXpXpXpXpXpXpXpXpXpXpXpXpXpXpXpXpXpX",
"pXpXpXpXpXpXpXpXpXpXpXpXpXpXpXpXJ.M.^.~.C.Y s.m n m n n d n d f.C.P.h.g e 7.t 0.2.9 uX1.w.4.c k.v.s m pXpXpXpXpX' pXpXpXpXpXpXpXpXpXpXpXpXpXpXpXpXpXpXpXpXpXpXpX",
"pXpXpXpXpXpXpXpXpXpXpXpXpXpXpXpXQ.V.J.U.V.d.D.A n n n V t.d n g.W.W.g.s e iX1.<.9.w.uX8 2.e.( V v.pXpXpXpXpXpXpXpXpXpXpXpXpXpXpXpXpXpXpXpXpXpXpXpXpXpXpXpXpXpXpX",
"pXpXpXpXpXpXpXpXpXpXpXpXpXpXpXpXV.T.T.g.s.a.:.>.Z m d t.b.V n y.C.+X^.a e 0.<.$ 2.iX0.2.0 8.5.V G.pXpXpXpXpXpXpXpXpXpXpXpXpXpXpXpXpXpXpXpXpXpXpXpXpXpXpXpXpXpXpX",
"pXpXpXpXpXpXpXpXpXpXpXpXpXpXpXpX^ J.x.A c 6 1X:Xx m d r.n.n.V s U XX Xm q e t e 1.0.9 yX<.0 v r.K.T.pXpXpXpXpXpXpXpXpXpXpXpXpXpXpXpXpXpXpXpXpXpXpXpXpXpXpXpXpXpX",
"pXpXpXpXpXpXpXpXpXpXpXpXpXpXpXpXY.n.V o.7X>X` m m n n C l.l.b.V Z $.Z.g.m 3.q.<.9 e e e q w v r.K.T.&XpXpXpXpXpXpXpXpXpXpXpXpXpXpXpXpXpXpXpXpXpXpXpXpXpXpXpXpXpX",
"pXpXpXpXpXpXpXpXpXpXpXpXpXpXpXpXY.D.O.1X1X-X` n m m m m m B J.b.h.P.R.h.n q 2.9.7.7.7.7.t w v t.G.Y._.pXpXpXpXpXpXpXpXpXpXpXpXpXpXpXpXpXpXpXpXpXpXpXpXpXpXpXpXpX",
"pXpXpXpXpXpXpXpXpXpXpXpXpXpXpXpXpXD.,.3X,X,Xo.B pXpXm n B l.T.R.I.T.I.h.m a v v L $.$.$./ j a d i.K.^.pXpXpXpXpXpXpXpXpXpXpXpXpXpXpXpXpXpXpXpXpXpXpXpXpXpXpXpXpX",
"pXpXpXpXpXpXpXpXpXpXpXpXpXpXpXpXpXpXpX2X,X2X,XO.3XpXpXn m y.G.U.C.@X+Xp.O + + i h > > @ I < O + - t.E.pXpXpXpXpXpXpXpXpXpXpXpXpXpXpXpXpXpXpXpXpXpXpXpXpXpXpXpXpX",
"pXpXpXpXpXpXpXpXpXpXpXpXpXpXpXpXpXpXpXpX1X1X,X3X3XpXpXn n n u.I.N.&.@Xl.i     F F     5 @.,     . n n.%XpXpXpXpXpXpXpXpXpXpXpXpXpXpXpXpXpXpXpXpXpXpXpXpXpXpXpXpX",
"pXpXpXpXpXpXpXpXpXpXpXpXpXpXpXpXpXpXpXpX>X=X1X,X3XpXpXn n n s G.V.M.A.!.R..   j j   . Q '.,     . m g. XpXpXpXpXpXpXpXpXpXpXpXpXpXpXpXpXpXpXpXpXpXpXpXpXpXpXpXpX",
"pXpXpXpXpXpXpXpXpXpXpXpXpXpXpXpXpXpXpXpXpX] 2XpXpXpXB n n n m P.!.U.T.T.Y.- O y u @ . . H > . . + B l.N.pXpXpXpXpXpXpXpXpXpXpXpXpXpXpXpXpXpXpXpXpXpXpXpXpXpXpXpX",
"pXpXpXpXpXpXpXpXpXpXpXpXpXpXpXpXpXpXpXpXpXpXpXpXpXpXy.n n m j.R.T.T.T.T.Y.n.V d Z Q E E p ; y y y m j.R.pXpXpXpXpXpXpXpXpXpXpXpXpXpXpXpXpXpXpXpXpXpXpXpXpXpXpXpX",
"pXpXpXpXpXpXpXpXpXpXpXpXpXpXpXpXpXpXpXpXpXpXpXpXpXn.t.s n n j.R.H.B..X%XT.K.V s i i y y ; I z ; p T m G.pXpXpXpXpXpXpXpXpXpXpXpXpXpXpXpXpXpXpXpXpXpXpXpXpXpXpXpX",
"pXpXpXpXpXpXpXpXpXpXpXpXpXpXpXpXpXpXpXpXpXpXpXpXpXm.h.p.a.a.L.T.D.B.%.|.R.n.V u ; i I P I l i p U E n h.F.+X8XpXpXpXpXpXpXpXpXpXpXpXpXpXpXpXpXpXpXpXpXpXpXpXpXpX",
"pXpXpXpXpXpXpXpXpXpXpXpXpXpXpXpXpXpXpXpXpXpXpXpXpXl.G.R.R.L.T.T.n.c.V.C.R.n.V u ; p ~ Q @.k - k +.R n a.F./.XXpXpXpXpXpXpXpXpXpXpXpXpXpXpXpXpXpXpXpXpXpXpXpXpXpX",
"pXpXpXpXpXpXpXpXpXpXpXpXpXpXpXpXpXpXpXpXpXpXpXpXpXl.J.T.T.T.T.T.G.H.~.W.Y.K.V u i G E Q G i i G Q R d h.Y.^.pXpXpXpXpXpXpXpXpXpXpXpXpXpXpXpXpXpXpXpXpXpXpXpXpXpX",
"pXpXpXpXpXpXpXpXpXpXpXpXpXpXpXpXpXpXpXpXpXpXpXpXpXl.K.T.Y.T.R.R.j.b.!.Y.Y.G.V u h +.E H p i G +.E R M p.K.E.pXpXpXpXpXpXpXpXpXpXpXpXpXpXpXpXpXpXpXpXpXpXpXpXpXpX",
"pXpXpXpXpXpXpXpXpXpXpXpXpXpXpXpXpXpXpXpXpXpXpXpXpXj.H.T.Y.Y.Y.K.m u.!.Y.R.n.V u h Q U y T ~ E R R E E f t.J.T.pXpXpXpXpXpXpXpXpXpXpXpXpXpXpXpXpXpXpXpXpXpXpXpXpX",
"pXpXpXpXpXpXpXpXpXpXpXpXpXpXpXpXpXpXpXpXpXpXpXpXpXj.K.T.Y.Y.T.L.* i I.Y.T.n.V u i y i R E R Q E E R E M i.H.Y.pXpXpXpXpXpXpXpXpXpXpXpXpXpXpXpXpXpXpXpXpXpXpXpXpX",
"pXpXpXpXpXpXpXpXpXpXpXpXpXpXpXpXpXpXpXpXpXpXpXpXpXl.J.U.Y.Y.T.L.* = a.K.T.T.r.u ; y y p R +.z k Q R E s Z.%X%XpXpXpXpXpXpXpXpXpXpXpXpXpXpXpXpXpXpXpXpXpXpXpXpXpX",
"pXpXpXpXpXpXpXpXpXpXpXpXpXpXpXpXpXpXpXpXpXpXpXpXpXpXK.W.U.F.D.D.- . m x.I.W.t.y ; y y ; p k ; p Q E E G  XpXpXpXpXpXpXpXpXpXpXpXpXpXpXpXpXpXpXpXpXpXpXpXpXpXpXpX",
"pXpXpXpXpXpXpXpXpXpXpXpXpXpXpXpXpXpXpXpXpXpXpXpXpXpX@X+X#X#X+X#X<   A #X$X$XB.p y u u y ; h G I ~ E R R pXpXpXpXpXpXpXpXpXpXpXpXpXpXpXpXpXpXpXpXpXpXpXpXpXpXpXpX",
"pXpXpXpXpXpXpXpXpXpXpXpXpXpXpXpXpXpXpXpXpXpXpXpXpXpXpXoX`.`.`.XX5 + l `.`.`.Q h pXpX* y y l U H G E R ~ p pXpXpXpXpXpXpXpXpXpXpXpXpXpXpXpXpXpXpXpXpXpXpXpXpXpXpX",
"pXpXpXpXpXpXpXpXpXpXpXpXpXpXpXpXpXpXpXpXpXpXpXpXpXpXpXpX        * d -       * pXpXpX  y y y ; ; p Q R ~ k y pXpXpXpXpXpXpXpXpXpXpXpXpXpXpXpXpXpXpXpXpXpXpXpXpXpX",
"pXpXpXpXpXpXpXpXpXpXpXpXpXpXpXpXpXpXpXpXpXpXpXpXpXpXpXpX. u y y y l +.~ R p y pXpXpX  ; y y y y p R R Q h ; pXpXpXpXpXpXpXpXpXpXpXpXpXpXpXpXpXpXpXpXpXpXpXpXpXpX",
"pXpXpXpXpXpXpXpXpXpXpXpXpXpXpXpXpXpXpXpXpXpXpXpXpXpXpXpX. y y ; G Q Q R R i y pXpXpXpX. ; y y y y y y p i y pXpXpXpXpXpXpXpXpXpXpXpXpXpXpXpXpXpXpXpXpXpXpXpXpXpX",
"pXpXpXpXpXpXpXpXpXpXpXpXpXpXpXpXpXpXpXpXpXpXpXpXpXpXpXpX- y y y y i k ~ ~ i pXpXpXpXpX  ; s y y y y y ; y y pXpXpXpXpXpXpXpXpXpXpXpXpXpXpXpXpXpXpXpXpXpXpXpXpXpX",
"pXpXpXpXpXpXpXpXpXpXpXpXpXpXpXpXpXpXpXpXpXpXpXpXpXpXpXpXy y y z I G U ~ f pXpXpXpXpXpXpXO O * u y y y y y pXpXpXpXpXpXpXpXpXpXpXpXpXpXpXpXpXpXpXpXpXpXpXpXpXpXpX",
"pXpXpXpXpXpXpXpXpXpXpXpXpXpXpXpXpXpXpXpXpXpXpXpXpXpXpXu y y y z G P K < & pXpXpXpXpXpXpX+ + * u y y y y a pXpXpXpXpXpXpXpXpXpXpXpXpXpXpXpXpXpXpXpXpXpXpXpXpXpXpX",
"pXpXpXpXpXpXpXpXpXpXpXpXpXpXpXpXpXpXpXpXpXpXpXpXpXpXy y y y y ; y u *     pXpXpXpXpXpXy u u y y y y u - * - pXpXpXpXpXpXpXpXpXpXpXpXpXpXpXpXpXpXpXpXpXpXpXpXpXpX",
"pXpXpXpXpXpXpXpXpXpXpXpXpXpXpXpXpXpXpXpXpXpXpXpXpXpXy y y y y y ; y *     pXpXpXpXpXpXy y y y y y y ; .     pXpXpXpXpXpXpXpXpXpXpXpXpXpXpXpXpXpXpXpXpXpXpXpXpXpX",
"pXpXpXpXpXpXpXpXpXpXpXpXpXpXpXpXpXpXpXpXpXpXpXpXpXpXy y y y y u O         pXpXpXpXpXpXy y y y y y ; .         pXpXpXpXpXpXpXpXpXpXpXpXpXpXpXpXpXpXpXpXpXpXpXpXpX",
"pXpXpXpXpXpXpXpXpXpXpXpXpXpXpXpXpXpXpXpXpXpXpXpXpXpXy y y y y y ; ; ; -     pXpXpXpXpX. ; u u u u u y .       pXpXpXpXpXpXpXpXpXpXpXpXpXpXpXpXpXpXpXpXpXpXpXpXpX",
"pXpXpXpXpXpXpXpXpXpXpXpXpXpXpXpXpXpXpXpXpXpXpXpXpXpXy y u u u u u u s y     pXpXpXpXpX  O O O O O O O .       pXpXpXpXpXpXpXpXpXpXpXpXpXpXpXpXpXpXpXpXpXpXpXpXpX",
"pXpXpXpXpXpXpXpXpXpXpXpXpXpXpXpXpXpXpXpXpXpXpXpXpXpXpX- + & + + + & + + pXpXpXpXpXpXpXpXpXpX              pXpXpXpXpXpXpXpXpXpXpXpXpXpXpXpXpXpXpXpXpXpXpXpXpXpXpX",
"pXpXpXpXpXpXpXpXpXpXpXpXpXpXpXpXpXpXpXpXpXpXpXpXpXpXpXpX                pXpXpXpXpXpXpXpXpXpXpX  + +       pXpXpXpXpXpXpXpXpXpXpXpXpXpXpXpXpXpXpXpXpXpXpXpXpXpXpX",
"pXpXpXpXpXpXpXpXpXpXpXpXpXpXpXpXpXpXpXpXpXpXpXpXpXpXpXpXpX.         pXpXpXpXpXpXpXpXpXpXpXpX. & s -         pXpXpXpXpXpXpXpXpXpXpXpXpXpXpXpXpXpXpXpXpXpXpXpXpXpX",
"pXpXpXpXpXpXpXpXpXpXpXpXpXpXpXpXpXpXpXpXpXpXpXpXpXpXpXpXpXy .         pXpXpXpXpXpXpXpXpXpX  & s -       .         pXpXpXpXpXpXpXpXpXpXpXpXpXpXpXpXpXpXpXpXpXpXpX",
"pXpXpXpXpXpXpXpXpXpXpXpXpXpXpXpXpXpXpXpXpXpXpXpXpXpXpXpXy y             pXpXpXpXpXpXpXpXpX  & u y y ; y u &           pXpXpXpXpXpXpXpXpXpXpXpXpXpXpXpXpXpXpXpXpX",
"pXpXpXpXpXpXpXpXpXpXpXpXpXpXpXpXpXpXpXpXpXpXpXpXpXpXpXpX- . - ; - ; *     pXpXpXpXpXpXpXpX  & u y y y y y ; - ; - ; .   pXpXpXpXpXpXpXpXpXpXpXpXpXpXpXpXpXpXpXpX",
"pXpXpXpXpXpXpXpXpXpXpXpXpXpXpXpXpXpXpXpXpXpXpXpXpXpXpXpX; * y y y u ; * * y O pXpXpXpXpXpXpXpXpXpXpXpXpXpXpXpXpXpXpXpXpXpXpXpXpXpXpXpXpXpXpXpXpXpXpXpXpXpXpXpXpX",
"pXpXpXpXpXpXpXpXpXpXpXpXpXpXpXpXpXpXpXpXpXpXpXpXpXpXpXpXy u y y y y y u u u O   pXpXpXpXpXpXpXpXpXpXpXpXpXpXpXpXpXpXpXpXpXpXpXpXpXpXpXpXpXpXpXpXpXpXpXpXpXpXpXpX",
"pXpXpXpXpXpXpXpXpXpXpXpXpXpXpXpXpXpXpXpXpXpXpXpXpXpXpXpXpXpXy y y y y y y u O pXpXpXpXpXpXpXpXpXpXpXpXpXpXpXpXpXpXpXpXpXpXpXpXpXpXpXpXpXpXpXpXpXpXpXpXpXpXpXpXpX",
"pXpXpXpXpXpXpXpXpXpXpXpXpXpXpXpXpXpXpXpXpXpXpXpXpXpXpXpXpXpXpXpXpXpXpXpXpXpXpXpXpXpXpXpXpXpXpXpXpXpXpXpXpXpXpXpXpXpXpXpXpXpXpXpXpXpXpXpXpXpXpXpXpXpXpXpXpXpXpXpX",
"pXpXpXpXpXpXpXpXpXpXpXpXpXpXpXpXpXpXpXpXpXpXpXpXpXpXpXpXpXpXpXpXpXpXpXpXpXpXpXpXpXpXpXpXpXpXpXpXpXpXpXpXpXpXpXpXpXpXpXpXpXpXpXpXpXpXpXpXpXpXpXpXpXpXpXpXpXpXpXpX",
"pXpXpXpXpXpXpXpXpXpXpXpXpXpXpXpXpXpXpXpXpXpXpXpXpXpXpXpXpXpXpXpXpXpXpXpXpXpXpXpXpXpXpXpXpXpXpXpXpXpXpXpXpXpXpXpXpXpXpXpXpXpXpXpXpXpXpXpXpXpXpXpXpXpXpXpXpXpXpXpX"
};
