/* XPM */
static char *_058_978bfd65c107e4c5be9948fe048eee8fe66b837cff8f20d87ca7627f210f1d36[] = {
/* columns rows colors chars-per-pixel */
"80 80 232 2 ",
"   c #000000",
".  c #0C0100",
"X  c #040D08",
"o  c #130100",
"O  c #1C0100",
"+  c #1B0E04",
"@  c #120B02",
"#  c #0C1E00",
"$  c #031503",
"%  c #191904",
"&  c #0F1915",
"*  c #220000",
"=  c #2C0100",
"-  c #270B09",
";  c #330100",
":  c #3C0100",
">  c #3B0901",
",  c #360D02",
"<  c #241403",
"1  c #281502",
"2  c #361705",
"3  c #0C2200",
"4  c #0D2C00",
"5  c #0F3200",
"6  c #163200",
"7  c #153C00",
"8  c #193C00",
"9  c #002714",
"0  c #002915",
"q  c #00321A",
"w  c #1E2602",
"e  c #212601",
"r  c #3A2505",
"t  c #0F1F20",
"y  c #3C1F2B",
"u  c #003E20",
"i  c #143F2D",
"p  c #272829",
"a  c #33292E",
"s  c #34272A",
"d  c #332F32",
"f  c #333237",
"g  c #430100",
"h  c #4A0000",
"j  c #4C0C02",
"k  c #470A01",
"l  c #530100",
"z  c #5C0101",
"x  c #520C03",
"c  c #5D0D07",
"v  c #4E1202",
"b  c #531402",
"n  c #5D1202",
"m  c #571C04",
"M  c #5A1E04",
"N  c #5A170B",
"B  c #441F1F",
"V  c #650000",
"C  c #6B0100",
"Z  c #630B02",
"A  c #6C0B05",
"S  c #740201",
"D  c #7C0301",
"F  c #730905",
"G  c #7B0C05",
"H  c #6A1403",
"J  c #671C03",
"K  c #7A1403",
"L  c #432305",
"P  c #402904",
"I  c #4A2805",
"U  c #5C2305",
"Y  c #552D06",
"T  c #5D2B03",
"R  c #532E09",
"E  c #582D0A",
"W  c #4F3106",
"Q  c #5D3613",
"!  c #622504",
"~  c #632B05",
"^  c #6B2B03",
"/  c #652D0C",
"(  c #732907",
")  c #663206",
"_  c #6A3607",
"`  c #6D3907",
"'  c #62340A",
"]  c #6A360A",
"[  c #6D3B08",
"{  c #723404",
"}  c #713A06",
"|  c #79330A",
" . c #723C09",
".. c #783F09",
"X. c #753709",
"o. c #76211E",
"O. c #443131",
"+. c #403339",
"@. c #5B3B2E",
"#. c #1A4400",
"$. c #1B4C02",
"%. c #0D450B",
"&. c #245400",
"*. c #235C08",
"=. c #294A0C",
"-. c #1A6916",
";. c #176F15",
":. c #306909",
">. c #00562A",
",. c #005C26",
"<. c #124626",
"1. c #2D4D37",
"2. c #06733E",
"3. c #126835",
"4. c #22603A",
"5. c #664A08",
"6. c #744209",
"7. c #7C420B",
"8. c #6A421C",
"9. c #74540E",
"0. c #58403B",
"q. c #674728",
"w. c #634E3B",
"e. c #65513D",
"r. c #245940",
"t. c #1C6A43",
"y. c #3C7C40",
"u. c #434B4C",
"i. c #494E51",
"p. c #5F564E",
"a. c #685848",
"s. c #675950",
"d. c #68494F",
"f. c #466055",
"g. c #840402",
"h. c #8C0604",
"j. c #880903",
"k. c #930A04",
"l. c #9B0A05",
"z. c #970404",
"x. c #961405",
"c. c #A30C04",
"v. c #AC0D06",
"b. c #A00706",
"n. c #B40F07",
"m. c #B80D07",
"M. c #A61707",
"N. c #B61007",
"B. c #BD1207",
"V. c #BB1008",
"C. c #BB1A08",
"Z. c #872808",
"A. c #992C07",
"S. c #883B0A",
"D. c #A92507",
"F. c #B82709",
"G. c #AF330C",
"H. c #C40D05",
"J. c #CE0C08",
"K. c #C90905",
"L. c #C31307",
"P. c #CA1406",
"I. c #CE1907",
"U. c #C31308",
"Y. c #CC1408",
"T. c #CF1C09",
"R. c #C61B07",
"E. c #D31306",
"W. c #DA1407",
"Q. c #D61B07",
"!. c #DB1C07",
"~. c #D61308",
"^. c #D11F08",
"/. c #DE0E06",
"(. c #E21506",
"). c #E41D07",
"_. c #E31D08",
"`. c #E71508",
"'. c #F41E08",
"]. c #C62508",
"[. c #D72208",
"{. c #D73007",
"}. c #E52208",
"|. c #83460D",
" X c #86480E",
".X c #8B4B0F",
"XX c #8F400F",
"oX c #944F0E",
"OX c #88570E",
"+X c #955908",
"@X c #8F4F10",
"#X c #924F11",
"$X c #9E5511",
"%X c #845B10",
"&X c #B34F0A",
"*X c #98650D",
"=X c #A26809",
"-X c #B76A08",
";X c #8D6E36",
":X c #D34E06",
">X c #E44608",
",X c #D27107",
"<X c #D16807",
"1X c #058E3D",
"2X c #0C8735",
"3X c #1F823F",
"4X c #03913E",
"5X c #26893F",
"6X c #0B854B",
"7X c #048742",
"8X c #04944A",
"9X c #009C4F",
"0X c #089248",
"qX c #019D53",
"wX c #178D4A",
"eX c #248F5E",
"rX c #249840",
"tX c #0DA040",
"yX c #00A352",
"uX c #04A458",
"iX c #07AA5A",
"pX c #598345",
"aX c #779548",
"sX c #77B059",
"dX c #EB8D08",
"fX c #BDAA57",
"gX c #CCA050",
"hX c #D4A654",
"jX c #A5E577",
"kX c #F9C060",
"lX c #FFD66A",
"zX c None",
/* pixels */
"zXzXzXzXzXzXzXzXzXzXzXzXzXzXzXzXzXzXzXzXzXzXzXzXzXzXzXzXzXzXzXzXzXzXzXzXzXzXzXzXzXzXzXzXzXzXzXzXzXzXzXzXzXzXzXzXzXzXzXzXzXzXzXzXzXzXzXzXzXzXzXzXzXzXzXzXzXzXzXzX",
"zXzXzXzXzXzXzXzXzXzXzXzXzXzXzXzXzXzXzXzXzXzXzXzXzXzXzXzXzXzXzXzXzXzXzXzXzXzXzXzXzXzXzXzXzXzXzXzXzXzXzXzXzXzXzXzXzXzXzXzXzXzXzXzXzXzXzXzXzXzXzXzXzXzXzXzXzXzXzXzX",
"zXzXzXzXzXzXzXzXzXzXzXzXzXzXzXzXzXzXzXzXzXzXzXzXzXzXzXzXzXzXzXzXzXzXzXzXzXzXzXzXzXzXzXzXzXzXzXzXzXzXzXzXzXzXzXzXzXzXzXzXzXzXzXzXzXzXzXzXzXzXzXzXzXzXzXzXzXzXzXzX",
"zXzXzXzXzXzXzXzXzXzXzXzXzXzXzXzXzXzXzXzXzXzXzXzXzXzXzXzXzXzXzXzXzXzXzXzXzXzXzXzXzXzXzXzXzXzXzXzXzXzXzXzXzXzXzXzXzXzXzXzXzXzXzXzXzXzXzXzXzXzXzXzXzXzXzXzXzXzXzXzX",
"zXzXzXzXzXzXzXzXzXzXzXzXzXzXzXzXzXzXzXzXzXzXzXzXzXzXzXzXzXzXzXzXzXzXzXzXzXzXzXzXzXzXzXzXzXzXzXzXzXzXzXzXzXzXzXzXzXzXzXzXzXzXzXzXzXzXzXzXzXzXzXzXzXzXzXzXzXzXzXzX",
"zXzXzXzXzXzXzXzXzXzXzXzXzXzXzXzXzXzXzXzXzXzX.X.X.X.X@X.X.X.X.X.XzXzXI   zXzXzXzXzXzXzXzXzXzXzXzXzXzXzXzXzXzXzXzXzXzXzXzXzXzXzXzXzXzXzXzXzXzXzXzXzXzXzXzXzXzXzXzX",
"zXzXzXzXzXzXzXzXzXzXzXzXzXzXzXzXzXzXzXzX@X.X` { } [ } `  .} ` ` @X@X.XI zX      zXzXzXzXzXzXzXzXzXzXzXzXzXzXzXzXzXzXzXzXzXzXzXzXzXzXzXzXzXzXzXzXzXzXzXzXzXzXzXzX",
"zXzXzXzXzXzXzXzXzXzXzXzXzXzXzXzXzXzX#X X . ._ p.] ^ q.e.) _ _ _  .[ oXR   zXzX    zXzXzXzXzXzXzXzXzXzXzXzXzXzXzXzXzXzXzXzXzXzXzXzXzXzXzXzXzXzXzXzXzXzXzXzXzXzXzX",
"zXzXzXzXzXzXzXzXzXzXzXzXzXzXzXzXzX7.7. .) ) _ q.a.a.w.8._ ` ] ] ] )  .] ' zXzX    zXzXzX  zXzXzXzXzXzXzXzXzXzXzXzXzXzXzXzXzXzXzXzXzXzXzXzXzXzXzXzXzXzXzXzXzXzXzX",
"zXzXzXzXzXzXzXzXzXzXzXzXzXzXzXzX@X..) _ _ _ _ q.w.a.e.q.` [ [ [ [ ` ) ..@X6.r     zXzX    zXzXzXzXzXzXzXzXzXzXzXzXzXzXzXzXzXzXzXzXzXzXzXzXzXzXzXzXzXzXzXzXzXzXzX",
"zXzXzXzXzXzXzXzXzXzXzXzXzXzXzXzX X ._ ` ` _ [ s.E J @.@.! ! / U ~ ) [ ] ) ` @X2 .     zXzXzXzXzXzXzXzXzXzXzXzXzXzXzXzXzXzXzXzXzXzXzXzXzXzXzXzXzXzXzXzXzXzXzXzXzX",
"zXzXzXzXzXzXzXzXzXzXzXzXzXzXzX.X` ) _ _ [ _ ) ) g : : g : g : g : m [ _ _ _ _ $XzXzXzXzXzXzXzXzXzXzXzXzXzXzXzXzXzXzXzXzXzXzXzXzXzXzXzXzXzXzXzXzXzXzXzXzXzXzXzXzX",
"zXzXzXzXzXzXzXzXzXzXzXzXzXzXzX.X[ _ _ ` ` ) g g h : g g g g g g g : m [ _ _ ` .XzX1     zXzXzXzXzXzXzXzXzXzXzXzXzXzXzXzXzXzXzXzXzXzXzXzXzXzXzXzXzXzXzXzXzXzXzXzX",
"zXzXzXzXzXzXzXzXzXzXzXzXzXzXzX@X .) _ [ T g g g h h y p         : h g h g k ` [ ..1       zXzXzXzXzXzXzXzXzXzXzXzXzXzXzXzXzXzXzXzXzXzXzXzXzXzXzXzXzXzXzXzXzXzXzX",
"zXzXzXzXzXzXzXzXzXzXzXzXzXzXzXx ] 6.6.U k : g g O .   $ 4   gX@ . . * h g g j _ [ T ' zXzX    zXzXzXzXzXzXzXzXzXzXzXzXzXzXzXzXzXzXzXzXzXzXzXzXzXzXzXzXzXzXzXzXzX",
"zXzXzXzXzXzXzXzXzXzXzXzXzXzXzXzXj v ) U : h g g .   Q aXrXhXlXO 4 $ O l h g : j )  .|.$X@XzX    zXzXzXzXzXzXzXzXzXzXzXzXzXzXzXzXzXzXzXzXzXzXzXzXzXzXzXzXzXzXzXzX",
"zXzXzXzXzXzXzXzXzXzXzXzXzXzXzXzXzXzXv b h h h h . q.kXfX<.;XsX3.-.$.% * = h g : v ) 6.7.@XzXzX  zXzXzXzXzXzXzXzXzXzXzXzXzXzXzXzXzXzXzXzXzXzXzXzXzXzXzXzXzXzXzXzX",
"zXzXzXzXzXzXzXzXzXzXzXzXzXzXzXzXzXzXzX: = * = =   aXjXpXq q qXtX%.8 3   . = h g : v ) [ ] / zXzXzXzXzXzXzXzXzXzXzXzXzXzXzXzXzXzXzXzXzXzXzXzXzXzXzXzXzXzXzXzXzXzX",
"zXzXzXzXzXzXzXzXzXzXzXzXzXzXzXzXzXzXzXzXzX        ,.4X4XrX7XwX#.1 .         ; g h : x ) M : zXzXzXzXzXzXzXzXzXzXzXzXzXzXzXzXzXzXzXzXzXzXzXzXzXzXzXzXzXzXzXzXzXzX",
"zXzXzXzXzXzXzXzXzXzXzXzXzXzXzXzXzXzXzXzX          6 &.5.( o S.O  .L .         ; : : : ; : zXzXzXzXzXzXzXzXzXzXzXzXzXzXzXzXzXzXzXzXzXzXzXzXzXzXzXzXzXzXzXzXzXzXzX",
"zXzXzXzXzXzXzXzXzXzXzXzXzXzXzXzXzXzXzXzXzXzXzXzX    R | x .Xg .X@ ' R                   zXzXzXzXzXzXzXzXzXzXzXzXzXzXzXzXzXzXzXzXzXzXzXzXzXzXzXzXzXzXzXzXzXzXzXzX",
"zXzXzXzXzXzXzXzXzXzXzXzXzXzXzXzXzXzXzXzXzXzXzX      ' ^ & iX8X:.  [ E                       zXzXzXzXzXzXzXzXzXzXzXzXzXzXzXzXzXzXzXzXzXzXzXzXzXzXzXzXzXzXzXzXzXzX",
"zXzXzXzXzXzXzXzXzXzXzXzXzXzXzXzXzXzXzXzXzX          @ w $.0 0 $ #.w w 6           zXzXzXzXzX  zXzXzXzXzXzXzXzXzXzXzXzXzXzXzXzXzXzXzXzXzXzXzXzXzXzXzXzXzXzXzXzXzX",
"zXzXzXzXzXzXzXzXzXzXzXzXzXzXzXzXzXzXzXzX  zX        3 7 #       # 5 *.#.          j.`.zXzXzXzXzXzXzXzXzXzXzXzXzXzXzXzXzXzXzXzXzXzXzXzXzXzXzXzXzXzXzXzXzXzXzXzXzX",
"zXzXzXzXzXzXzXzXzXzXzXzXzXzXzXzXzXzXzX    zX        3 3           # 7 #           ; l F `.zXzXzXzXzXzXzXzXzXzXzXzXzXzXzXzXzXzXzXzXzXzXzXzXzXzXzXzXzXzXzXzXzXzXzX",
"zXzXzXzXzXzXzXzXzXzXzXzXzXzXzXzXzXzXzXzX  zX                                      X - x F F zXzXzXzXzXzXzXzXzXzXzXzXzXzXzXzXzXzXzXzXzXzXzXzXzXzXzXzXzXzXzXzXzXzX",
"zXzXzXzXzXzXzXzXzXzXzXzXzXzXzXzXzXzXzXzXzXzX  zX.                                 t o.S   . l.~.Q.P.N.zXzXzXzXzXzXzXzXzXzXzXzXzXzXzXzXzXzXzXzXzXzXzXzXzXzXzXzXzX",
"zXzXzXzXzXzXzXzXzXzXzXzXzXzXzXzXzXzXzXzXzXzX. zX;                         X           + g.S V l.N.S S B.Q.zXzXzXzXzXzXzXzXzXzXzXzXzXzXzXzXzXzXzXzXzXzXzXzXzXzXzX",
"zXzXzXzXzXzXzXzXzXzXzXzXzXzXzXzXzXzXzXzXzXzXzXQ.,                       0 8X        >.y.K.v.C C V C V V G Q.n.zXzXzXzXzXzXzXzXzXzXzXzXzXzXzXzXzXzXzXzXzXzXzXzXzX",
"zXzXzXzXzXzXzXzXzXzXzXzXzXzXzXzXzXzXzXzXzXzXzX).O                       0 iXa a . >.t.r.3.S z Y D.W.l.C B.!.Q.Q.zXzXzXzXzXzXzXzXzXzXzXzXzXzXzXzXzXzXzXzXzXzXzXzX",
"zXzXzXzXzXzXzXzXzXzXzXzXzXzXzXzXzXzXzXzXzXzXzXU.v.O   * ;           = V , q 6X6X2.8XiX4.! F R.F.!.'.c.l h._.!.L.zXzXzXzXzXzXzXzXzXzXzXzXzXzXzXzXzXzXzXzXzXzXzXzX",
"zXzXzXzXzXzXzXzXzXzXzXzXzXzXzXzXzXzXzXzXzXzXv.v.h.x.= = v.= ;       o C v.; yXyXuXuX2X-.1.S l.W.A.D.L.k.C I.P.N.zXzXzXzXzXzXzXzXzXzXzXzXzXzXzXzXzXzXzXzXzXzXzXzX",
"zXzXzXzXzXzXzXzXzXzXzXzXzXzXzXzXzXzXzXzXzXzXR.P.k.!.M.j.).c.c.; ; .   j `.c qX9XqXqX2X;.3.W l I.G.x.E.n.V h.h.v.zXzXzXzXzXzXzXzXzXzXzXzXzXzXzXzXzXzXzXzXzXzXzXzX",
"zXzXzXzXzXzXzXzXzXzXzXzXzXzXzXzXzXzXzXzXzXzX!.I._.Q.}._.Q.).).k.S l , ! E.x yXyXqXqXuX8X;.&.V B.W.C.M.l.V z z c.zXzXzXzXzXzXzXzXzXzXzXzXzXzXzXzXzXzXzXzXzXzXzXzX",
"zXzXzXzXzXzXzXzXzXzXzXzXzXzXzXzXzXzXzXzXzXV.T.n.I.!.Q.L.n.Q.Q.U.D H.F.A.H.c 6X6X7X1X1X0X1X*.V l.m.Z.Z.z.V V zXzXzXzXzXzXzXzXzXzXzXzXzXzXzXzXzXzXzXzXzXzXzXzXzXzX",
"zXzXzXzXzXzXzXzXzXzXzXzXzXzXzXzXzXzXzXzXzXn.v.n.I.!.L.v.v.v.v.v.N.n.n.N.l.V s f =.&.&.&.;.8XV z l.B.h.z V zXzXzXzXzXzXzXzXzXzXzXzXzXzXzXzXzXzXzXzXzXzXzXzXzXzXzX",
"zXzXzXzXzXzXzXzXzXzXzXzXzXzXzXzXzXzXzXzXzXn.n.N.N.N.B.k.V V C V c.H.Z.~ C V V 0X1.y t.qXyX8XV C C C C V zXzXzXzXzXzXzXzXzXzXzXzXzXzXzXzXzXzXzXzXzXzXzXzXzXzXzXzX",
"zXzXzXzXzXzXzXzXzXzXzXzXzXzXzXzXzXzXzXzXzXzXS C v.U.k.V V V V V F S A Z V V C N d.eXt.r.f.$ V C V V C V zXzXzXzXzXzXzXzXzXzXzXzXzXzXzXzXzXzXzXzXzXzXzXzXzXzXzXzX",
"zXzXzXzXzXzXzXzXzXzXzXzXzXzXzXzXzXzXzXzXzXzXzXV G D S V V C C V V V V K S.! V S - i 1.+.f   S V | | n S zXzXzXzXzXzXzXzXzXzXzXzXzXzXzXzXzXzXzXzXzXzXzXzXzXzXzXzX",
"zXzXzXzXzXzXzXzXzXzXzXzXzXzXzXzXzXzXzXzXzXzXzXzXzXzXzXV V C V V V V V K 9.7.V C O.f a d p & = z | %X( D zXzXzXzXzXzXzXzXzXzXzXzXzXzXzXzXzXzXzXzXzXzXzXzXzXzXzXzX",
"zXzXzXzXzXzXzXzXzXzXzXzXzXzXzXzXzXzXzXzXzXzXzXzXzXzXzXzXC V V V V V V Z ! ( V V d u.i.u.u.u.  l H ( H g.U.zXzXzXzXzXzXzXzXzXzXzXzXzXzXzXzXzXzXzXzXzXzXzXzXzXzXzX",
"zXzXzXzXzXzXzXzXzXzXzXzXzXzXzXzXzXzXzXzXzXzXzXzXzXzXzXzXzXV V D g.S V C D D h.h.* s s.a.a.a.< l z D S C l.zXzXzXzXzXzXzXzXzXzXzXzXzXzXzXzXzXzXzXzXzXzXzXzXzXzXzX",
"zXzXzXzXzXzXzXzXzXzXzXzXzXzXzXzXzXzXzXzXzXzXzXzXzXzXzXzXzXV S N.V.D z h.U.U._.P.z : b ) T T .., l P.C.c j.N.zXzXzXzXzXzXzXzXzXzXzXzXzXzXzXzXzXzXzXzXzXzXzXzXzXzX",
"zXzXzXzXzXzXzXzXzXzXzXzXzXzXzXzXzXzXzXzXzXzXzXzXzXzXzXzXzXzXV.n.S z k.Y.!.[.Q.U.O P L     @ `   F W.G.*X<Xv.zXzXzXzXzXzXzXzXzXzXzXzXzXzXzXzXzXzXzXzXzXzXzXzXzXzX",
"zXzXzXzXzXzXzXzXzXzXzXzXzXzXzXzXzXzXzXzXzXzXzXzXzXzXzXzXzXzXN.C z k.n.H.].#X,X].O P L   + #X.X@ . D D.5.|.C zXzXzXzXzXzXzXzXzXzXzXzXzXzXzXzXzXzXzXzXzXzXzXzXzXzX",
"zXzXzXzXzXzXzXzXzXzXzXzXzXzXzXzXzXzXzXzXzXzXzXzXzXzXzXzXzXzXS V z h.Y.!.C.5.#XC.* > :     +  .@   . Z T.].U.n.zXzXzXzXzXzXzXzXzXzXzXzXzXzXzXzXzXzXzXzXzXzXzXzXzX",
"zXzXzXzXzXzXzXzXzXzXzXzXzXzXzXzXzXzXzXzXzXzXzXzXzXzXzXzXzXzXz V h.v.R._.T.F.F.U.* : H W W I v ; = = O F }.&X:XzXzXzXzXzXzXzXzXzXzXzXzXzXzXzXzXzXzXzXzXzXzXzXzXzX",
"zXzXzXzXzXzXzXzXzXzXzXzXzXzXzXzXzXzXzXzXzXzXzXzXzXzXzXzXzXn.k.z c.n.U.!.!.`./.H.. * Z U M b : M x h . = [.5.=XzXzXzXzXzXzXzXzXzXzXzXzXzXzXzXzXzXzXzXzXzXzXzXzXzX",
"zXzXzXzXzXzXzXzXzXzXzXzXzXzXzXzXzXzXzXzXzXzXzXzXzXzXzXzXzXn.V.g.n.U.R.Y.[.G.:XT.A * = g : b b  .j j , * A Z.G.zXzXzXzXzXzXzXzXzXzXzXzXzXzXzXzXzXzXzXzXzXzXzXzXzX",
"zXzXzXzXzXzXzXzXzXzXzXzXzXzXzXzXzXzXzXzXzXzXzXzXzXzXzXzXzXN.B.U.Q._.U.U.].9.-X[.`.> . h k 6. . .j U ( , o J.W.zXzXzXzXzXzXzXzXzXzXzXzXzXzXzXzXzXzXzXzXzXzXzXzXzX",
"zXzXzXzXzXzXzXzXzXzXzXzXzXzXzXzXzXzXzXzXzXzXzXzXzXzXzXzXzXN.!.!.Q.Q.B.U.].| XX[.E.: . h b ` ` ) g m 6.E l l.!.P.zXzXzXzXzXzXzXzXzXzXzXzXzXzXzXzXzXzXzXzXzXzXzXzX",
"zXzXzXzXzXzXzXzXzXzXzXzXzXzXzXzXzXzXzXzXzXzXzXzXzXzXzXzXzXN.Q.Q.Q.U.v.U.!.!.Q.!.Y.: . b  ._ ` k g U 6.~ = . R.[.zXzXzXzXzXzXzXzXzXzXzXzXzXzXzXzXzXzXzXzXzXzXzXzX",
"zXzXzXzXzXzXzXzXzXzXzXzXzXzXzXzXzXzXzXzXzXzXzXzXzXzXzXzXzXN.!.Q.!.B.n.N.U.!.!.!.~.: . h g g k : U [ ` ` T : h &XzXzXzXzXzXzXzXzXzXzXzXzXzXzXzXzXzXzXzXzXzXzXzXzX",
"zXzXzXzXzXzXzXzXzXzXzXzXzXzXzXzXzXzXzXzXzXzXzXzXzXzXzXzXzXB.Q.Q.!.U.P.G ; U.Q.!.Y.> . h g : : U [ 6.` _ ] ~ ; -XzXzXzXzXzXzXzXzXzXzXzXzXzXzXzXzXzXzXzXzXzXzXzXzX",
"zXzXzXzXzXzXzXzXzXzXzXzXzXzXzXzXzXzXzXzXzXzXzXzXzXzXzXzXzXN.Q.Q.!.Y.D O o U.Q.!.Y.: . h : h ~ 6.M j U [ ] ` U zXzXzXzXzXzXzXzXzXzXzXzXzXzXzXzXzXzXzXzXzXzXzXzXzX",
"zXzXzXzXzXzXzXzXzXzXzXzXzXzXzXzXzXzXzXzXzXzXzXzXzXzXzXzXzXN.Q.!.!.~.j   = ~.~.~.J.; . x m g M M : k T [ _ ` ` zXzXzXzXzXzXzXzXzXzXzXzXzXzXzXzXzXzXzXzXzXzXzXzXzX",
"zXzXzXzXzXzXzXzXzXzXzXzXzXzXzXzXzXzXzXzXzXzXzXzXzXzXzXzXzXzXQ.W.Y.W.z   = G >X>X>Xb * ! ` h : : v ) 6.[ ` _ ` zXzXzXzXzXzXzXzXzXzXzXzXzXzXzXzXzXzXzXzXzXzXzXzXzX",
"zXzXzXzXzXzXzXzXzXzXzXzXzXzXzXzXzXzXzXzXzXzXzXzXzXzXzXzXzXzXQ.{.].M.> O : X +X+X=X^ M 6.T ; g : U ~ ~ T ~ ` ` zXzXzXzXzXzXzXzXzXzXzXzXzXzXzXzXzXzXzXzXzXzXzXzXzX",
"zXzXzXzXzXzXzXzXzXzXzXzXzXzXzXzXzXzXzXzXzXzXzXzXzXzXzXzXzXzXzX,XdXr . l g g       L ..} Y   g g g g : g j ` ` k zXzXzXzXzXzXzXzXzXzXzXzXzXzXzXzXzXzXzXzXzXzXzXzX",
"zXzXzXzXzXzXzXzXzXzXzXzXzXzXzXzXzXzXzXzXzXzXzXzXzXzXzXzXzXzXzXzXzXr . k g g ` ` ` ` _ ..Y   : h g g g v [ ` [ k zXzXzXzXzXzXzXzXzXzXzXzXzXzXzXzXzXzXzXzXzXzXzXzX",
"zXzXzXzXzXzXzXzXzXzXzXzXzXzXzXzXzXzXzXzXzXzXzXzXzXzXzXzXzXzXzXzXzX  O h g g g k ~ 6.m b zXzX. : h h : h g g k h zXzXzXzXzXzXzXzXzXzXzXzXzXzXzXzXzXzXzXzXzXzXzXzX",
"zXzXzXzXzXzXzXzXzXzXzXzXzXzXzXzXzXzXzXzXzXzXzXzXzXzXzXzXzXzXzXzX  * h g : g g g k j g k zXzXzX. . * h : g g h h zXzXzXzXzXzXzXzXzXzXzXzXzXzXzXzXzXzXzXzXzXzXzXzX",
"zXzXzXzXzXzXzXzXzXzXzXzXzXzXzXzXzXzXzXzXzXzXzXzXzXzXzXzXzXzXzXzX. . = b ~ M : : g h h zXzXzX  * = ; h g g : o o zXzXzXzXzXzXzXzXzXzXzXzXzXzXzXzXzXzXzXzXzXzXzXzX",
"zXzXzXzXzXzXzXzXzXzXzXzXzXzXzXzXzXzXzXzXzXzXzXzXzXzXzXzXzXzXzXzX= O = j ~ 6.U U x = zXzXzXzX  : h h : g h : * * zXzXzXzXzXzXzXzXzXzXzXzXzXzXzXzXzXzXzXzXzXzXzXzX",
"zXzXzXzXzXzXzXzXzXzXzXzXzXzXzXzXzXzXzXzXzXzXzXzXzXzXzXzXzXzXzXg h h g : g U ~ ^ > . zXzXzXzXo : h g : h h h = ; zXzXzXzXzXzXzXzXzXzXzXzXzXzXzXzXzXzXzXzXzXzXzXzX",
"zXzXzXzXzXzXzXzXzXzXzXzXzXzXzXzXzXzXzXzXzXzXzXzXzXzXzXzXzXzXzXg g g g g h : = ; .     zXzX  h h g g h : = ;     zXzXzXzXzXzXzXzXzXzXzXzXzXzXzXzXzXzXzXzXzXzXzXzX",
"zXzXzXzXzXzXzXzXzXzXzXzXzXzXzXzXzXzXzXzXzXzXzXzXzXzXzXzXzXzXg g g g g g g :           zXzX. : g g g h =         zXzXzXzXzXzXzXzXzXzXzXzXzXzXzXzXzXzXzXzXzXzXzXzX",
"zXzXzXzXzXzXzXzXzXzXzXzXzXzXzXzXzXzXzXzXzXzXzXzXzXzXzXzXzXzXg g g g g h g g g .       zXzX    : g g g h :       zXzXzXzXzXzXzXzXzXzXzXzXzXzXzXzXzXzXzXzXzXzXzXzX",
"zXzXzXzXzXzXzXzXzXzXzXzXzXzXzXzXzXzXzXzXzXzXzXzXzXzXzXzXzXzXzX. . . * h h g .         zXzXzXzXzXO .   . .   zXzXzXzXzXzXzXzXzXzXzXzXzXzXzXzXzXzXzXzXzXzXzXzXzXzX",
"zXzXzXzXzXzXzXzXzXzXzXzXzXzXzXzXzXzXzXzXzXzXzXzXzXzXzXzXzXzXzXzXzX  . . o .     zXzXzXzXzXzXzXzX  o : *       zXzXzXzXzXzXzXzXzXzXzXzXzXzXzXzXzXzXzXzXzXzXzXzXzX",
"zXzXzXzXzXzXzXzXzXzXzXzXzXzXzXzXzXzXzXzXzXzXzXzXzXzXzXzXzXzXzXzXzX          zXzXzXzXzXzXzXzXzX  O g ; o             zXzXzXzXzXzXzXzXzXzXzXzXzXzXzXzXzXzXzXzXzXzX",
"zXzXzXzXzXzXzXzXzXzXzXzXzXzXzXzXzXzXzXzXzXzXzXzXzXzXzXzXzXzXzXzX; .         zXzXzXzXzXzXzXzXzX  : h = O * O *         zXzXzXzXzXzXzXzXzXzXzXzXzXzXzXzXzXzXzXzXzX",
"zXzXzXzXzXzXzXzXzXzXzXzXzXzXzXzXzXzXzXzXzXzXzXzXzXzXzXzXzXzXzXh ; O O O .   zXzXzXzXzXzXzXzXzX  ; h h h h h h O o o O .   zXzXzXzXzXzXzXzXzXzXzXzXzXzXzXzXzXzXzX",
"zXzXzXzXzXzXzXzXzXzXzXzXzXzXzXzXzXzXzXzXzXzXzXzXzXzXzXzXzXzX: h . = l h : . . zXzXzXzXzXzXzXzX  = h g : g g h h h h l ;   zXzXzXzXzXzXzXzXzXzXzXzXzXzXzXzXzXzXzX",
"zXzXzXzXzXzXzXzXzXzXzXzXzXzXzXzXzXzXzXzXzXzXzXzXzXzXzXzXzXzXg g h g g g h h g h o zXzXzXzXzXzXzXzXzXzXzXzXzXzXzXzXzXzXzXzXzXzXzXzXzXzXzXzXzXzXzXzXzXzXzXzXzXzXzX",
"zXzXzXzXzXzXzXzXzXzXzXzXzXzXzXzXzXzXzXzXzXzXzXzXzXzXzXzXzXzXzXzXg g g g g g g h o zXzXzXzXzXzXzXzXzXzXzXzXzXzXzXzXzXzXzXzXzXzXzXzXzXzXzXzXzXzXzXzXzXzXzXzXzXzXzX",
"zXzXzXzXzXzXzXzXzXzXzXzXzXzXzXzXzXzXzXzXzXzXzXzXzXzXzXzXzXzXzXzXzXzXzXzXzXzXzXzXzXzXzXzXzXzXzXzXzXzXzXzXzXzXzXzXzXzXzXzXzXzXzXzXzXzXzXzXzXzXzXzXzXzXzXzXzXzXzXzX",
"zXzXzXzXzXzXzXzXzXzXzXzXzXzXzXzXzXzXzXzXzXzXzXzXzXzXzXzXzXzXzXzXzXzXzXzXzXzXzXzXzXzXzXzXzXzXzXzXzXzXzXzXzXzXzXzXzXzXzXzXzXzXzXzXzXzXzXzXzXzXzXzXzXzXzXzXzXzXzXzX",
"zXzXzXzXzXzXzXzXzXzXzXzXzXzXzXzXzXzXzXzXzXzXzXzXzXzXzXzXzXzXzXzXzXzXzXzXzXzXzXzXzXzXzXzXzXzXzXzXzXzXzXzXzXzXzXzXzXzXzXzXzXzXzXzXzXzXzXzXzXzXzXzXzXzXzXzXzXzXzXzX",
"zXzXzXzXzXzXzXzXzXzXzXzXzXzXzXzXzXzXzXzXzXzXzXzXzXzXzXzXzXzXzXzXzXzXzXzXzXzXzXzXzXzXzXzXzXzXzXzXzXzXzXzXzXzXzXzXzXzXzXzXzXzXzXzXzXzXzXzXzXzXzXzXzXzXzXzXzXzXzXzX"
};
