/* XPM */
static char *_5933_9583bedd1a1c6816676ed01075e957d13cac134b5701155f6e7cb1fd9bb96d3c[] = {
/* columns rows colors chars-per-pixel */
"80 80 225 2 ",
"   c #000000",
".  c #0B0100",
"X  c #050C01",
"o  c #0F0801",
"O  c #0F070C",
"+  c #140000",
"@  c #1B0000",
"#  c #140B02",
"$  c #1B0D02",
"%  c #021200",
"&  c #091501",
"*  c #021B09",
"=  c #1E1003",
"-  c #171B1A",
";  c #220000",
":  c #2C0000",
">  c #340100",
",  c #3C0000",
"<  c #340A01",
"1  c #3C0801",
"2  c #3E0A0A",
"3  c #231203",
"4  c #2A1603",
"5  c #281A01",
"6  c #3A1101",
"7  c #341B03",
"8  c #2F1616",
"9  c #0A2301",
"0  c #162500",
"q  c #1A2801",
"w  c #163D00",
"e  c #00371C",
"r  c #3D3403",
"t  c #273D10",
"y  c #313D1D",
"u  c #192223",
"i  c #2C2729",
"p  c #2A352F",
"a  c #363729",
"s  c #382E3A",
"d  c #2C3734",
"f  c #33313A",
"g  c #37393B",
"h  c #430000",
"j  c #4A0100",
"k  c #460901",
"l  c #4A0B01",
"z  c #530100",
"x  c #5C0000",
"c  c #590A02",
"v  c #4D1202",
"b  c #491C04",
"n  c #531503",
"m  c #551C03",
"M  c #5D1D04",
"N  c #5B1206",
"B  c #650000",
"V  c #6B0100",
"C  c #6C0D03",
"Z  c #660801",
"A  c #730101",
"S  c #7B0101",
"D  c #760A04",
"F  c #7D0B04",
"G  c #671301",
"H  c #6B1403",
"J  c #671B05",
"K  c #741705",
"L  c #4C2409",
"P  c #412500",
"I  c #5D2405",
"U  c #522B05",
"Y  c #532D09",
"T  c #582806",
"R  c #553106",
"E  c #5D320A",
"W  c #512010",
"Q  c #5D3414",
"!  c #513F13",
"~  c #622404",
"^  c #632C06",
"/  c #6A2505",
"(  c #663206",
")  c #6A3607",
"_  c #6D3907",
"`  c #6B3708",
"'  c #6E3B08",
"]  c #62350B",
"[  c #703602",
"{  c #713B07",
"}  c #793309",
"|  c #733D09",
" . c #7B3F09",
".. c #793E1F",
"X. c #752907",
"o. c #41372D",
"O. c #4B3E32",
"+. c #5A3D3F",
"@. c #5E392B",
"#. c #184700",
"$. c #1B5400",
"%. c #084C1C",
"&. c #235501",
"*. c #245B01",
"=. c #295A0A",
"-. c #35461B",
";. c #1B680A",
":. c #176B16",
">. c #1C7C1C",
",. c #266200",
"<. c #084B26",
"1. c #29473A",
"2. c #2D5F35",
"3. c #25512B",
"4. c #01722D",
"5. c #187623",
"6. c #006A36",
"7. c #524609",
"8. c #684A0B",
"9. c #734108",
"0. c #7C420B",
"q. c #7B4B0A",
"w. c #69530B",
"e. c #73580D",
"r. c #574D32",
"t. c #6A4926",
"y. c #67543D",
"u. c #416530",
"i. c #576620",
"p. c #127E40",
"a. c #594A4F",
"s. c #840402",
"d. c #8C0402",
"f. c #840A04",
"g. c #8E0904",
"h. c #940504",
"j. c #930A04",
"k. c #9A0A05",
"l. c #9D0000",
"z. c #941B06",
"x. c #971506",
"c. c #861205",
"v. c #A30405",
"b. c #AD0304",
"n. c #A40C06",
"m. c #AB0D06",
"M. c #B30F07",
"N. c #BA0A05",
"B. c #B70F08",
"V. c #BB0E08",
"C. c #AB1706",
"Z. c #B61206",
"A. c #BC1207",
"S. c #BD1108",
"D. c #BD1D09",
"F. c #BB1D06",
"G. c #852E07",
"H. c #982909",
"J. c #853409",
"K. c #9B3A0E",
"L. c #953318",
"P. c #AC230A",
"I. c #A82707",
"U. c #BA2407",
"Y. c #BF2908",
"T. c #A0350D",
"R. c #BB3A08",
"E. c #DA0D08",
"W. c #C51507",
"Q. c #CA1607",
"!. c #C41208",
"~. c #CB1509",
"^. c #CB1B07",
"/. c #D31407",
"(. c #DB1607",
"). c #D51B07",
"_. c #DA1B07",
"`. c #D71608",
"'. c #C80D05",
"]. c #E41506",
"[. c #E31D08",
"{. c #ED1E08",
"}. c #E71907",
"|. c #F31F08",
" X c #F71907",
".X c #EB0B01",
"XX c #C42107",
"oX c #C9250A",
"OX c #CF3608",
"+X c #EA2008",
"@X c #82450D",
"#X c #86480E",
"$X c #8B4B0F",
"%X c #88470B",
"&X c #81580F",
"*X c #95570F",
"=X c #8E4D10",
"-X c #81491D",
";X c #914F10",
":X c #955111",
">X c #9B5411",
",X c #A45811",
"<X c #A85309",
"1X c #83660D",
"2X c #B86A09",
"3X c #B36F09",
"4X c #D94608",
"5X c #C94E08",
"6X c #EF4E09",
"7X c #D16F07",
"8X c #D57A06",
"9X c #C36408",
"0X c #01922B",
"qX c #008F37",
"wX c #0C8124",
"eX c #029B4F",
"rX c #059447",
"tX c #008F51",
"yX c #009E52",
"uX c #0E904C",
"iX c #00A153",
"pX c #00AA57",
"aX c #00AD58",
"sX c #DC8408",
"dX c None",
/* pixels */
"dXdXdXdXdXdXdXdXdXdXdXdXdXdXdXdXdXdXdXdXdXdXdXdXdXdXdXdXdXdXdXdXdXdXdXdXdXdXdXdXdXdXdXdXdXdXdXdXdXdXdXdXdXdXdXdXdXdXdXdXdXdXdXdXdXdXdXdXdXdXdXdXdXdXdXdXdXdXdXdX",
"dXdXdXdXdXdXdXdXdXdXdXdXdXdXdXdXdXdXdXdXdXdXdXdXdXdXdXdXdXdXdXdXdXdXdXdXdXdXdXdXdXdXdXdXdXdXdXdXdXdXdXdXdXdXdXdXdXdXdXdXdXdXdXdXdXdXdXdXdXdXdXdXdXdXdXdXdXdXdXdX",
"dXdXdXdXdXdXdXdXdXdXdXdXdXdXdXdXdXdXdXdXdXdXdXdXdXdXdXdXdXdXdXdXdXdXdXdXdXdXdXdXdXdXdXdXdXdXdXdXdXdXdXdXdXdXdXdXdXdXdXdXdXdXdXdXdXdXdXdXdXdXdXdXdXdXdXdXdXdXdXdX",
"dXdXdXdXdXdXdXdXdXdXdXdXdXdXdXdXdXdXdXdXdXdXdXdXdXdXdXdXdXdXdXdXdXdXdXdXdXdXdXdXdXdXdXdXdXdXdXdXdXdXdXdXdXdXdXdXdXdXdXdXdXdXdXdXdXdXdXdXdXdXdXdXdXdXdXdXdXdXdXdX",
"dXdXdXdXdXdXdXdXdXdXdXdXdXdXdXdXdXdXdXdXdXdXdXdXdXdX  dXdXdXdXdXdXdXdXdXdXdXdXdXdXdXdXdXdXdXdXdXdXdXdXdXdXdXdXdXdXdXdXdXdXdXdXdXdXdXdXdXdXdXdXdXdXdXdXdXdXdXdXdX",
"dXdXdXdXdXdXdXdXdXdXdXdXdXdXdXdXdXdXdXdXdXdXdXdXdXdXdX  dXdXdXdXdXdXdXdXdXdXdXdXdXdXdXdXdXdXdXdXdXdXdXdXdXdXdXdXdXdXdXdXdXdXdXdXdXdXdXdXdXdXdXdXdXdXdXdXdXdXdXdX",
"dXdXdXdXdXdXdXdXdXdXdXdXdXdXdXdXdXdXdXdXdXdX      dXdX    dXdXdXdXdXdX  dXdXdXdXdXdXdXdXdXdXdXdXdXdXdXdXdXdXdXdXdXdXdXdXdXdXdXdXdXdXdXdXdXdXdXdXdXdXdXdXdXdXdXdX",
"dXdXdXdXdXdXdXdXdXdXdXdXdXdXdXdXdXdXdXdXdXdXdXdXdX          dXdX    dX        dXdXdXdXdXdXdXdXdXdXdXdXdXdXdXdXdXdXdXdXdXdXdXdXdXdXdXdXdXdXdXdXdXdXdXdXdXdXdXdXdX",
"dXdXdXdXdXdXdXdXdXdXdXdXdXdXdXdXdXdXdXdXdXdXdX                      dXo     = dXdXdXdXdXdXdXdXdXdXdXdXdXdXdXdXdXdXdXdXdXdXdXdXdXdXdXdXdXdXdXdXdXdXdXdXdXdXdXdXdX",
"dXdXdXdXdXdXdXdXdXdXdXdXdXdXdXdXdXdXdXdXdXdX            Y =       . :X' =   7 ,X=X=X=X=XdXdXdXdXdXdXdXdXdXdXdXdXdXdXdXdXdXdXdXdXdXdXdXdXdXdXdXdXdXdXdXdXdXdXdXdX",
"dXdXdXdXdXdXdXdXdXdXdXdXdXdXdXdXdXdXdXdXdXdXdXdXdX      ] 4       o @X0.3   4 $X0.@X@X0.@XdXdXdXdXdXdXdXdXdXdXdXdXdXdXdXdXdXdXdXdXdXdXdXdXdXdXdXdXdXdXdXdXdXdXdX",
"dXdXdXdXdXdXdXdXdXdXdXdXdXdXdXdXdXdXdXdXdXdXdXdXdXdX=               Y       3 { ) ( ) ( | $X#XdXdXdXdXdXdXdXdXdXdXdXdXdXdXdXdXdXdXdXdXdXdXdXdXdXdXdXdXdXdXdXdXdX",
"dXdXdXdXdXdXdXdXdXdXdXdXdXdXdXdXdXdXdXdX          dX#X.                     4 { ` _ _ ` ) ( ' $XdXdXdXdXdXdXdXdXdXdXdXdXdXdXdXdXdXdXdXdXdXdXdXdXdXdXdXdXdXdXdXdX",
"dXdXdXdXdXdXdXdXdXdXdXdXdXdXdXdXdXdXdX  dXdX        # ` #                 4 ' _ ) ) _ ` _ ` ' =X=X$XdXdXdXdXdXdXdXdXdXdXdXdXdXdXdXdXdXdXdXdXdXdXdXdXdXdXdXdXdXdX",
"dXdXdXdXdXdXdXdXdXdXdXdXdXdXdXdXdXdXdXdXdXdX          =                 L #X$X@X@X#X' ( ) _ _ | { ' @XdXdXdXdXdXdXdXdXdXdXdXdXdXdXdXdXdXdXdXdXdXdXdXdXdXdXdXdXdX",
"dXdXdXdXdXdXdXdXdXdXdXdXdXdXdXdXdXdXdX                                  ] ,X$X=X=X=X@X| ( ` ) ( ` ( 0.;XdXdXdXdXdXdXdXdXdXdXdXdXdXdXdXdXdXdXdXdXdXdXdXdXdXdXdXdX",
"dXdXdXdXdXdXdXdXdXdXdXdXdXdXdXdXdXdXdX                                  Y >X$X$X$X$X=X0.) ` ) ' ` ) | @X=XdXdXdXdXdXdXdXdXdXdXdXdXdXdXdXdXdXdXdXdXdXdXdXdXdXdXdX",
"dXdXdXdXdXdXdXdXdXdXdXdXdXdXdXdXdXdXdX    4 3 3 o                     3 ' :X$X$X$X$X=X| ( ) ) ) ) ) ( | =XdXdXdXdXdXdXdXdXdXdXdXdXdXdXdXdXdXdXdXdXdXdXdXdXdXdXdX",
"dXdXdXdXdXdXdXdXdXdXdXdXdXdXdXdXdXdXdXdX  @X%X@XU o o # o # $ # # # # 0.>X$X$X$X$X$X=X0.) ) ) ) ) ' ' 0.=X@XdXdXdXdXdXdXdXdXdXdXdXdXdXdXdXdXdXdXdXdXdXdXdXdXdXdX",
"dXdXdXdXdXdXdXdXdXdXdXdXdXdXdXdXdXdXdXdXdXE %X;X@X` ` { ) @X=X$X=X=X$X$X$X$X$X$X$X$X$X=X0.) ` ) ) @X=X=X@X) dXdXdXdXdXdXdXdXdXdXdXdXdXdXdXdXdXdXdXdXdXdXdXdXdXdX",
"dXdXdXdXdXdXdXdXdXdXdXdXdXdXdXdXdXdXdXdXdX) ' ` 0.$X$X$X=X .` ` { ' ' ' ' ` { ` ' =X=X=X$X$X$X$X$X=X0.) ' ) dXdXdXdXdXdXdXdXdXdXdXdXdXdXdXdXdXdXdXdXdXdXdXdXdXdX",
"dXdXdXdXdXdXdXdXdXdXdXdXdXdXdXdXdXdXdXdXdX) ' _ ` | | | | ` ` ) ` ` ) ) ) ) ) ) _ { | ' | | | | | { _ ` ' ` dXdXdXdXdXdXdXdXdXdXdXdXdXdXdXdXdXdXdXdXdXdXdXdXdXdX",
"dXdXdXdXdXdXdXdXdXdXdXdXdXdXdXdXdXdXdXdXdXdXm ^ 9.' ' ) ) ` ` ) ) ` ) ` ) ) ( _ _ _ ) ( ( ) ' ' ' ' 9.^ m dXdXdXdXdXdXdXdXdXdXdXdXdXdXdXdXdXdXdXdXdXdXdXdXdXdXdX",
"dXdXdXdXdXdXdXdXdXdXdXdXdXdXdXdXdXdXdXdXdXdXdXl ~ M I ' { ' t.y.t.[ [ [ [ t.t.' _ ' ' ' { ) I M M ~ ~ l dXdXdXdXdXdXdXdXdXdXdXdXdXdXdXdXdXdXdXdXdXdXdXdXdXdXdXdX",
"dXdXdXdXdXdXdXdXdXdXdXdXdXdXdXdXdXdXdXdXdXdXdXdX: : : I ^ ~ @.a.a.E Q Q Q r.+.J ~ ~ ^ ^ T b h : : : : dXdXdXdXdXdXdXdXdXdXdXdXdXdXdXdXdXdXdXdXdXdXdXdXdXdXdXdXdX",
"dXdXdXdXdXdXdXdXdXdXdXdXdXdXdXdXdXdXdXdXdXdXdXdXdX  @ > , > , , < d p d d 8 h 1 1 1 , , + + x     dXdXdXdXdXdXdXdXdXdXdXdXdXdXdXdXdXdXdXdXdXdXdXdXdXdXdXdXdXdXdX",
"dXdXdXdXdXdXdXdXdXdXdXdXdXdXdXdXdXdXdXdXdXdX'.l   > m.          & *.&.,.& 9 ,.&.&.*.&                 k dXdXdXdXdXdXdXdXdXdXdXdXdXdXdXdXdXdXdXdXdXdXdXdXdXdXdXdX",
"dXdXdXdXdXdXdXdXdXdXdXdXdXdXdXdXdXdXdXdXdXdX!.m.S.c..             X p =.$.$.,.#.X %               h g.m.S._.dXdXdXdXdXdXdXdXdXdXdXdXdXdXdXdXdXdXdXdXdXdXdXdXdXdX",
"dXdXdXdXdXdXdXdXdXdXdXdXdXdXdXdXdXdXdXdX_.[.k.h < k f.              -X& 7.r q w.            . z   . D !.S._._.dXdXdXdXdXdXdXdXdXdXdXdXdXdXdXdXdXdXdXdXdXdXdXdXdX",
"dXdXdXdXdXdXdXdXdXdXdXdXdXdXdXdXdXdXdX_._.Q.n.j ; j g.          # E L L H G M K E .         . , , > f.!.S.Q._.).).dXdXdXdXdXdXdXdXdXdXdXdXdXdXdXdXdXdXdXdXdXdXdX",
"dXdXdXdXdXdXdXdXdXdXdXdXdXdXdXdXdXdX).W.Q.Z.!.j.V S x           $ E & w.-.u.i.7 E               B S s.j.g.j.)._._.dXdXdXdXdXdXdXdXdXdXdXdXdXdXdXdXdXdXdXdXdXdXdX",
"dXdXdXdXdXdXdXdXdXdXdXdXdXdXdXdXdX_.^.B.M.n.n.s.x z h             % #.#.4.tX4.w %             @ h z B B x f.)._.)._.dXdXdXdXdXdXdXdXdXdXdXdXdXdXdXdXdXdXdXdXdXdX",
"dXdXdXdXdXdXdXdXdXdXdXdXdXdXdXdX)._.).^.m.A V A >     .         & &.          X &.X         + V +   D n.f.[.).).).).).dXdXdXdXdXdXdXdXdXdXdXdXdXdXdXdXdXdXdXdXdX",
"dXdXdXdXdXdXdXdXdXdXdXdXdXdXdXdX)._.Z.x B W.|.N   + V B +                                   + B V   C {.).).B.).[.!.M.dXdXdXdXdXdXdXdXdXdXdXdXdXdXdXdXdXdXdXdXdX",
"dXdXdXdXdXdXdXdXdXdXdXdXdXdXdXdX_._.).W.Q._.|.1 : ).Z.                                C [.f.    U I.S.!.!.S.M.B.A.A.B.dXdXdXdXdXdXdXdXdXdXdXdXdXdXdXdXdXdXdXdXdX",
"dXdXdXdXdXdXdXdXdXdXdXdXdXdXdXdXA.!.!.W.W.A.(.C.C.+X).x., F ~ T c.>                 A l.b.s.j D I.+X`.j.A f.S.S.j.S F dXdXdXdXdXdXdXdXdXdXdXdXdXdXdXdXdXdXdXdXdX",
"dXdXdXdXdXdXdXdXdXdXdXdXdXdXdXdXZ.Z.M.M.V.B.A._.{._._.).m.].oXY.].l.j <.*     q q 0 r.7.t a S !./.I.C.j.x B d.j.V x dXdXdXdXdXdXdXdXdXdXdXdXdXdXdXdXdXdXdXdXdXdX",
"dXdXdXdXdXdXdXdXdXdXdXdXdXdXdXdXZ.n.j.k.k.j.m.W.Q.Q.Q.M.[.U.XX XoX..s.uX6.e %.wX>.5.qX:.0XtXS B.N.J z.k.x B x B B dXdXdXdXdXdXdXdXdXdXdXdXdXdXdXdXdXdXdXdXdXdXdX",
"dXdXdXdXdXdXdXdXdXdXdXdXdXdXdXdXdXdXz B x x j.M.B.m.n.n./.G.H..XL.aXW p.aXaXpXiXyXeX:.&.:.2.s.m.C.A d.j.B B B B dXdXdXdXdXdXdXdXdXdXdXdXdXdXdXdXdXdXdXdXdXdXdXdX",
"dXdXdXdXdXdXdXdXdXdXdXdXdXdXdXdXdXdXdXdXB B x g.S.k.x B n.N.M.N.L.iXiXyXeXeXeXeXeX&.rXwXP d.m.B ` G B B B B dXdXdXdXdXdXdXdXdXdXdXdXdXdXdXdXdXdXdXdXdXdXdXdXdXdX",
"dXdXdXdXdXdXdXdXdXdXdXdXdXdXdXdXdXdXdXdXdXdXdXB A B B V B b.H.G.b.N yXiXyXyXyXyXyXyX:.;.P D B B V B B B B dXdXdXdXdXdXdXdXdXdXdXdXdXdXdXdXdXdXdXdXdXdXdXdXdXdXdX",
"dXdXdXdXdXdXdXdXdXdXdXdXdXdXdXdXdXdXdXdXdXdXdXdXB B B B B A C V S B * 1.1.1.3.:.,.:.9 1 Z B B B B dXdXdXdXdXdXdXdXdXdXdXdXdXdXdXdXdXdXdXdXdXdXdXdXdXdXdXdXdXdXdX",
"dXdXdXdXdXdXdXdXdXdXdXdXdXdXdXdXdXdXdXdXdXdXdXdXdXB B B B B K } J B   O i o.y &.a y X , A B Z J./ C dXdXdXdXdXdXdXdXdXdXdXdXdXdXdXdXdXdXdXdXdXdXdXdXdXdXdXdXdXdX",
"dXdXdXdXdXdXdXdXdXdXdXdXdXdXdXdXdXdXdXdXdXdXdXdXdXB B B B B X.e.' x :   - g p -.f f u 2 B S x.q.&XH dXdXdXdXdXdXdXdXdXdXdXdXdXdXdXdXdXdXdXdXdXdXdXdXdXdXdXdXdXdX",
"dXdXdXdXdXdXdXdXdXdXdXdXdXdXdXdXdXdXdXdXdXdXdXdXdXdXdXB B B G } H.S d.+ u g f f a d g 8 : Z m.~ } f.dXdXdXdXdXdXdXdXdXdXdXdXdXdXdXdXdXdXdXdXdXdXdXdXdXdXdXdXdXdX",
"dXdXdXdXdXdXdXdXdXdXdXdXdXdXdXdXdXdXdXdXdXdXdXdXdXdXdXA V B B s.D.XXW.@ u a o.a i o.O.-   . x A V v.5XdXdXdXdXdXdXdXdXdXdXdXdXdXdXdXdXdXdXdXdXdXdXdXdXdXdXdXdXdX",
"dXdXdXdXdXdXdXdXdXdXdXdXdXdXdXdXdXdXdXdXdXdXdXdXdXdXdXS.A x h.P.*X7XA.;   7  .U   0.>X7     + B.(.K.3X8XdXdXdXdXdXdXdXdXdXdXdXdXdXdXdXdXdXdXdXdXdXdXdXdXdXdXdXdX",
"dXdXdXdXdXdXdXdXdXdXdXdXdXdXdXdXdXdXdXdXdXdXdXdXdXdXdX).V g.V.z.8.:XW.;   , z     . ` 7     + S.(.G.w.T.dXdXdXdXdXdXdXdXdXdXdXdXdXdXdXdXdXdXdXdXdXdXdXdXdXdXdXdX",
"dXdXdXdXdXdXdXdXdXdXdXdXdXdXdXdXdXdXdXdXdXdXdXdXdXdXdX_.m.m.W.^.Y.x.: : > z C R R R l < > > > x _.^.XXS.Z.dXdXdXdXdXdXdXdXdXdXdXdXdXdXdXdXdXdXdXdXdXdXdXdXdXdXdX",
"dXdXdXdXdXdXdXdXdXdXdXdXdXdXdXdXdXdXdXdXdXdXdXdXdXdX_._.S.S.).].E.n.  > j h c m n n m I n h l U C /. XU.<X8XdXdXdXdXdXdXdXdXdXdXdXdXdXdXdXdXdXdXdXdXdXdXdXdXdXdX",
"dXdXdXdXdXdXdXdXdXdXdXdXdXdXdXdXdXdXdXdXdXdXdXdXdXdX).W.M./.XX5XOXm.. > h h , h m n ` q.I , h ' b D '.I.e.2XdXdXdXdXdXdXdXdXdXdXdXdXdXdXdXdXdXdXdXdXdXdXdXdXdXdX",
"dXdXdXdXdXdXdXdXdXdXdXdXdXdXdXdXdXdXdXdXdXdXdXdXdXdX).M.m.(.H.1X9Xm.  > h h h n ^ { ^ ^ n h n ) 9.2 B z.K.T.dXdXdXdXdXdXdXdXdXdXdXdXdXdXdXdXdXdXdXdXdXdXdXdXdXdX",
"dXdXdXdXdXdXdXdXdXdXdXdXdXdXdXdXdXdXdXdXdXdXdXdXdXdX).M.M.`.I.| T.m.  > l k m ) h ^ l , , n | _ ' n < D ]._.).dXdXdXdXdXdXdXdXdXdXdXdXdXdXdXdXdXdXdXdXdXdXdXdXdX",
"dXdXdXdXdXdXdXdXdXdXdXdXdXdXdXdXdXdXdXdXdXdXdXdXdXdX).M.).).)._.).m.  : ~ ' ' ^ h h h h , v ' ) _ ` { b B [.).dXdXdXdXdXdXdXdXdXdXdXdXdXdXdXdXdXdXdXdXdXdXdXdXdX",
"dXdXdXdXdXdXdXdXdXdXdXdXdXdXdXdXdXdXdXdXdXdXdXdXdXdXZ.M.)._.Q.Q.).m.. : ~ ' ' ) ^ h h h n ) _ | ' _ 9.L x Q.).dXdXdXdXdXdXdXdXdXdXdXdXdXdXdXdXdXdXdXdXdXdXdXdXdX",
"dXdXdXdXdXdXdXdXdXdXdXdXdXdXdXdXdXdXdXdXdXdXdXdXdXdXM.b.Q.{.g.F (.m.  : ~ ' ) ) ' k h , m q._ l k ^ 9.m , B Q.dXdXdXdXdXdXdXdXdXdXdXdXdXdXdXdXdXdXdXdXdXdXdXdXdX",
"dXdXdXdXdXdXdXdXdXdXdXdXdXdXdXdXdXdXdXdXdXdXdXdXdXdXZ.5X_.E.B B ].v.  : ~ | _ _ ) h h h l m n , m ) 9.( L m V dXdXdXdXdXdXdXdXdXdXdXdXdXdXdXdXdXdXdXdXdXdXdXdXdX",
"dXdXdXdXdXdXdXdXdXdXdXdXdXdXdXdXdXdXdXdXdXdXdXdXdXdXdXsX4X4XK H 6XR.; > I ' ) _ ) k h h h , h m I I m ^ 9.` v dXdXdXdXdXdXdXdXdXdXdXdXdXdXdXdXdXdXdXdXdXdXdXdXdX",
"dXdXdXdXdXdXdXdXdXdXdXdXdXdXdXdXdXdXdXdXdXdXdXdXdXdXdXdXsX3X~ M 2X,Xc , I ' ) ` ) dXh h h h k ^ h , h m { ' | dXdXdXdXdXdXdXdXdXdXdXdXdXdXdXdXdXdXdXdXdXdXdXdXdX",
"dXdXdXdXdXdXdXdXdXdXdXdXdXdXdXdXdXdXdXdXdXdXdXdXdXdXdXdXdX5 . j , , h , I ' ) _ ( dXh h h h h , h h I 9.) ) ( dXdXdXdXdXdXdXdXdXdXdXdXdXdXdXdXdXdXdXdXdXdXdXdXdX",
"dXdXdXdXdXdXdXdXdXdXdXdXdXdXdXdXdXdXdXdXdXdXdXdXdXdXdXdXdX  ; j h h h h I ' _ ( h dXdXh h h h h , I ' ' ` ) h dXdXdXdXdXdXdXdXdXdXdXdXdXdXdXdXdXdXdXdXdXdXdXdXdX",
"dXdXdXdXdXdXdXdXdXdXdXdXdXdXdXdXdXdXdXdXdXdXdXdXdXdXdXdXdX  ; j k ) ) ^ ` ) ' ) dXdXdXdXj j j h h l l l l l j dXdXdXdXdXdXdXdXdXdXdXdXdXdXdXdXdXdXdXdXdXdXdXdXdX",
"dXdXdXdXdXdXdXdXdXdXdXdXdXdXdXdXdXdXdXdXdXdXdXdXdXdXdXdXdX. @ j k n n ` 9.9.Y 3 dXdXdXdXdX+ + j j j h j j h + dXdXdXdXdXdXdXdXdXdXdXdXdXdXdXdXdXdXdXdXdXdXdXdXdX",
"dXdXdXdXdXdXdXdXdXdXdXdXdXdXdXdXdXdXdXdXdXdXdXdXdXdXdXdXdX. @ j h , , n m ~ 1   dXdXdXdX    @ @ @ ; @ ; ; @   dXdXdXdXdXdXdXdXdXdXdXdXdXdXdXdXdXdXdXdXdXdXdXdXdX",
"dXdXdXdXdXdXdXdXdXdXdXdXdXdXdXdXdXdXdXdXdXdXdXdXdXdXdXdXj @ : j h j j h h , @   dXdXdX  . : h + +             dXdXdXdXdXdXdXdXdXdXdXdXdXdXdXdXdXdXdXdXdXdXdXdXdX",
"dXdXdXdXdXdXdXdXdXdXdXdXdXdXdXdXdXdXdXdXdXdXdXdXdXdXdXdXh j h h , > > > , +   dXdXdXdX  ; z h j j ;           dXdXdXdXdXdXdXdXdXdXdXdXdXdXdXdXdXdXdXdXdXdXdXdXdX",
"dXdXdXdXdXdXdXdXdXdXdXdXdXdXdXdXdXdXdXdXdXdXdXdXdXdXdXh h h h j >             dXdXdX    @ j h h h j @         dXdXdXdXdXdXdXdXdXdXdXdXdXdXdXdXdXdXdXdXdXdXdXdXdX",
"dXdXdXdXdXdXdXdXdXdXdXdXdXdXdXdXdXdXdXdXdXdXdXdXdXdXdXh h h h h h h h +       dXdXdX      @ j j j +           dXdXdXdXdXdXdXdXdXdXdXdXdXdXdXdXdXdXdXdXdXdXdXdXdX",
"dXdXdXdXdXdXdXdXdXdXdXdXdXdXdXdXdXdXdXdXdXdXdXdXdXdX  . h h h h h h .         dXdXdXdXdXdXdX. . h j @         dXdXdXdXdXdXdXdXdXdXdXdXdXdXdXdXdXdXdXdXdXdXdXdXdX",
"dXdXdXdXdXdXdXdXdXdXdXdXdXdXdXdXdXdXdXdXdXdXdXdXdXdXdXdX+ , j j j j >         dXdXdXdXdXdX      + @ .   dXdXdXdXdXdXdXdXdXdXdXdXdXdXdXdXdXdXdXdXdXdXdXdXdXdXdXdX",
"dXdXdXdXdXdXdXdXdXdXdXdXdXdXdXdXdXdXdXdXdXdXdXdXdXdXdXdX  + : ; ; ; : .     dXdXdXdXdXdX. : @           dXdXdXdXdXdXdXdXdXdXdXdXdXdXdXdXdXdXdXdXdXdXdXdXdXdXdXdX",
"dXdXdXdXdXdXdXdXdXdXdXdXdXdXdXdXdXdXdXdXdXdXdXdXdXdXdXdX.                 dXdXdXdXdXdX  ; z h + + + @ .       dXdXdXdXdXdXdXdXdXdXdXdXdXdXdXdXdXdXdXdXdXdXdXdXdX",
"dXdXdXdXdXdXdXdXdXdXdXdXdXdXdXdXdXdXdXdXdXdXdXdXdXdXdX> + . . . .   dXdXdXdXdXdXdXdXdX  @ j h j j j z : . . . .     dXdXdXdXdXdXdXdXdXdXdXdXdXdXdXdXdXdXdXdXdXdX",
"dXdXdXdXdXdXdXdXdXdXdXdXdXdXdXdXdXdXdXdXdXdXdXdXdXdX,   , j h j ,     dXdXdXdXdXdXdXdX  ; j h h h h h h h h j j @ dXdXdXdXdXdXdXdXdXdXdXdXdXdXdXdXdXdXdXdXdXdXdX",
"dXdXdXdXdXdXdXdXdXdXdXdXdXdXdXdXdXdXdXdXdXdXdXdXdXdXh , h h h h h , , j @ dXdXdXdXdXdXdXdXdXdXdXdXdXdXdXdXdXdXdXdXdXdXdXdXdXdXdXdXdXdXdXdXdXdXdXdXdXdXdXdXdXdXdX",
"dXdXdXdXdXdXdXdXdXdXdXdXdXdXdXdXdXdXdXdXdXdXdXdXdXdXdXdXh h h h h h h j +   dXdXdXdXdXdXdXdXdXdXdXdXdXdXdXdXdXdXdXdXdXdXdXdXdXdXdXdXdXdXdXdXdXdXdXdXdXdXdXdXdXdX",
"dXdXdXdXdXdXdXdXdXdXdXdXdXdXdXdXdXdXdXdXdXdXdXdXdXdXdXdXdXdXdXdXdXdXdXdXdXdXdXdXdXdXdXdXdXdXdXdXdXdXdXdXdXdXdXdXdXdXdXdXdXdXdXdXdXdXdXdXdXdXdXdXdXdXdXdXdXdXdXdX",
"dXdXdXdXdXdXdXdXdXdXdXdXdXdXdXdXdXdXdXdXdXdXdXdXdXdXdXdXdXdXdXdXdXdXdXdXdXdXdXdXdXdXdXdXdXdXdXdXdXdXdXdXdXdXdXdXdXdXdXdXdXdXdXdXdXdXdXdXdXdXdXdXdXdXdXdXdXdXdXdX",
"dXdXdXdXdXdXdXdXdXdXdXdXdXdXdXdXdXdXdXdXdXdXdXdXdXdXdXdXdXdXdXdXdXdXdXdXdXdXdXdXdXdXdXdXdXdXdXdXdXdXdXdXdXdXdXdXdXdXdXdXdXdXdXdXdXdXdXdXdXdXdXdXdXdXdXdXdXdXdXdX",
"dXdXdXdXdXdXdXdXdXdXdXdXdXdXdXdXdXdXdXdXdXdXdXdXdXdXdXdXdXdXdXdXdXdXdXdXdXdXdXdXdXdXdXdXdXdXdXdXdXdXdXdXdXdXdXdXdXdXdXdXdXdXdXdXdXdXdXdXdXdXdXdXdXdXdXdXdXdXdXdX"
};
