/* XPM */
static char *_7260_6705447c7b2552e4b80ed7e53c2ea0508576af0f5bdead83dc18fd3fba7616a5[] = {
/* columns rows colors chars-per-pixel */
"80 80 237 2 ",
"   c #010000",
".  c #0B0300",
"X  c #000C02",
"o  c #030B09",
"O  c #0E0C05",
"+  c #130000",
"@  c #1C0100",
"#  c #130B02",
"$  c #1A0C05",
"%  c #051704",
"&  c #1D1103",
"*  c #181702",
"=  c #0B1313",
"-  c #131414",
";  c #171C1D",
":  c #240100",
">  c #2B0100",
",  c #2A0901",
"<  c #340000",
"1  c #3D0100",
"2  c #380903",
"3  c #231404",
"4  c #2B1402",
"5  c #391803",
"6  c #072803",
"7  c #1D2603",
"8  c #143301",
"9  c #183500",
"0  c #003B1E",
"q  c #1D3918",
"w  c #0A3D00",
"e  c #3C2703",
"r  c #2D3900",
"t  c #353701",
"y  c #2C2810",
"u  c #3E1D21",
"i  c #033A22",
"p  c #1F373B",
"a  c #242323",
"s  c #2A2A2A",
"d  c #352B2E",
"f  c #3D342A",
"g  c #3C2D32",
"h  c #2D3436",
"j  c #2A383B",
"k  c #333434",
"l  c #373838",
"z  c #440100",
"x  c #4B0101",
"c  c #4A0D02",
"v  c #450805",
"b  c #530101",
"n  c #5C0101",
"m  c #530B02",
"M  c #580E00",
"N  c #4E1102",
"B  c #4B1909",
"V  c #531402",
"C  c #591404",
"Z  c #551B04",
"A  c #591B08",
"S  c #4A1214",
"D  c #650100",
"F  c #6B0101",
"G  c #620C03",
"H  c #6D0A03",
"J  c #730201",
"K  c #7B0402",
"L  c #740A05",
"P  c #7E0C05",
"I  c #641704",
"U  c #72181A",
"Y  c #72180C",
"T  c #4B2B0A",
"R  c #492803",
"E  c #5B2104",
"W  c #562A06",
"Q  c #593804",
"!  c #472813",
"~  c #593C19",
"^  c #49330F",
"/  c #642D05",
"(  c #6B2C04",
")  c #662406",
"_  c #782806",
"`  c #663206",
"'  c #6A3607",
"]  c #6D3907",
"[  c #6D3A0A",
"{  c #69360A",
"}  c #713D09",
"|  c #793807",
" . c #693C14",
".. c #783F15",
"X. c #451D25",
"o. c #671C20",
"O. c #4C2527",
"+. c #533230",
"@. c #622B2C",
"#. c #174600",
"$. c #195900",
"%. c #03491C",
"&. c #004A00",
"*. c #224A00",
"=. c #2B4801",
"-. c #255300",
";. c #235D0A",
":. c #33570B",
">. c #186B19",
",. c #14741D",
"<. c #0E6506",
"1. c #276418",
"2. c #33600C",
"3. c #005127",
"4. c #3D4324",
"5. c #345324",
"6. c #0A7A2A",
"7. c #137927",
"8. c #097834",
"9. c #0F6B37",
"0. c #2F6D35",
"q. c #6E400B",
"w. c #744209",
"e. c #7C420B",
"r. c #774B07",
"t. c #7B590C",
"y. c #6B5002",
"u. c #5F483B",
"i. c #674524",
"p. c #654F3A",
"a. c #625346",
"s. c #5E5F61",
"d. c #840402",
"f. c #8A0502",
"g. c #8C0A05",
"h. c #820E04",
"j. c #950903",
"k. c #9D0B05",
"l. c #970505",
"z. c #881505",
"x. c #98190A",
"c. c #901B16",
"v. c #A40B06",
"b. c #AC0C06",
"n. c #AA0808",
"m. c #B30D07",
"M. c #BB0D06",
"N. c #B80807",
"B. c #A91405",
"V. c #B51106",
"C. c #BC1207",
"Z. c #B81708",
"A. c #A51A11",
"S. c #8A2405",
"D. c #9C2607",
"F. c #893506",
"G. c #9A3609",
"H. c #90331C",
"J. c #AC2908",
"K. c #BB2808",
"L. c #AF350B",
"P. c #B43704",
"I. c #C50B06",
"U. c #C31407",
"Y. c #CB1607",
"T. c #CD1A07",
"R. c #C51208",
"E. c #CD1608",
"W. c #C41B07",
"Q. c #D41A07",
"!. c #DB1C07",
"~. c #D01508",
"^. c #D31B08",
"/. c #D91607",
"(. c #D80D07",
"). c #E31B07",
"_. c #E31E09",
"`. c #EB1B08",
"'. c #E71607",
"]. c #F01906",
"[. c #C62508",
"{. c #D82607",
"}. c #C63304",
"|. c #D73C07",
" X c #E52608",
".X c #EC3D08",
"XX c #83460C",
"oX c #8C4B0E",
"OX c #85460B",
"+X c #97430E",
"@X c #88550A",
"#X c #8E4D10",
"$X c #9A5813",
"%X c #97510F",
"&X c #A45506",
"*X c #AB4409",
"=X c #9D7107",
"-X c #A96B0B",
";X c #BD7709",
":X c #AE6C0D",
">X c #C64807",
",X c #D25D08",
"<X c #CD4E07",
"1X c #E34F09",
"2X c #CE7407",
"3X c #D36909",
"4X c #E27C08",
"5X c #E16A09",
"6X c #038419",
"7X c #028126",
"8X c #098839",
"9X c #268535",
"0X c #778B2F",
"qX c #08874A",
"wX c #1A8644",
"eX c #019B4F",
"rX c #069646",
"tX c #009D51",
"yX c #149E53",
"uX c #2A8948",
"iX c #00A154",
"pX c #00A359",
"aX c #00A046",
"sX c #00B466",
"dX c #35AE6D",
"fX c #7A9844",
"gX c #4EA558",
"hX c #7DC965",
"jX c #D78207",
"kX c #8B8951",
"lX c #DDB55A",
"zX c #BED06A",
"xX c #EEE068",
"cX c #AAB793",
"vX c #AFE7DB",
"bX c #E8D5D3",
"nX c None",
/* pixels */
"nXnXnXnXnXnXnXnXnXnXnXnXnXnXnXnXnXnXnXnXnXnXnXnXnXnXnXnXnXnXnXnXnXnXnXnXnXnXnXnXnXnXnXnXnXnXnXnXnXnXnXnXnXnXnXnXnXnXnXnXnXnXnXnXnXnXnXnXnXnXnXnXnXnXnXnXnXnXnXnX",
"nXnXnXnXnXnXnXnXnXnXnXnXnXnXnXnXnXnXnXnXnXnXnXnXnXnXnXnXnXnXnXnXnXnXnXnXnXnXnXnXnXnXnXnXnXnXnXnXnXnXnXnXnXnXnXnXnXnXnXnXnXnXnXnXnXnXnXnXnXnXnXnXnXnXnXnXnXnXnXnX",
"nXnXnXnXnXnXnXnXnXnXnXnXnXnXnXnXnXnXnXnXnXnXnXnXnXnXnXnXnXnXnXnXnXnXnXnXnXnXnXnXnXnXnXnXnXnXnXnXnXnXnXnXnXnXnXnXnXnXnXnXnXnXnXnXnXnXnXnXnXnXnXnXnXnXnXnXnXnXnXnX",
"nXnXnXnXnXnXnXnXnXnXnXnXnXnXnXnXnXnXnXnXnXnXnXnXnXnXnXnXnXnXnXnXnXnXnXnXnXnXnXnXnXnXnXnXnXnXnXnXnXnXnXnXnXnXnXnXnXnXnXnXnXnXnXnXnXnXnXnXnXnXnXnXnXnXnXnXnXnXnXnX",
"nXnXnXnXnXnXnXnXnXnXnXnXnXnXnXnXnXnXnXnXnXnXnXnXnXnXnXnXnXnXnXnXnXnXnXnXnXnXnXnXnXnXnXnXnXnXnXnXnXnXnXnXnXnXnXnXnXnXnXnXnXnXnXnXnXnXnXnXnXnXnXnXnXnXnXnXnXnXnXnX",
"nXnXnXnXnXnXnXnXnXnXnXnXnXnXnXnXnXnXnXnXnXnXnXnXnXnXnXnXnXnXnXnXnXnXnXnXnXnXnXnXnXnXnXnXnXnXnXnXnXnXnXnXnXnXnXnXnXnXnXnXnXnXnXnXnXnXnXnXnXnXnXnXnXnXnXnXnXnXnXnX",
"nXnXnXnXnXnXnXnXnXnXnXnXnXnXnXnXnXnXnXnXnXnXnXnXnXnXnXnXnXnXnXnXnXnXnXnXnXnXnXnXnXnXnXnXnXnXnXnXnXnXnXnXnXnXnXnXnXnXnXnXnXnXnXnXnXnXnXnXnXnXnXnXnXnXnXnXnXnXnXnX",
"nXnXnXnXnXnXnXnXnXnXnXnXnXnXnXnXnXnXnXnXnXnXnXnXnXnXnXnXnXnXnXnXnXnXnXnXnXnXnXnXnXnXnXnXnXnXnXnXnXnXnXnXnXnXnXnXnXnXnXnXnXnXnXnXnXnXnXnXnXnXnXnXnXnXnXnXnXnXnXnX",
"nXnXnXnXnXnXnXnXnXnXnXnXnXnXnXnXnXnXnXnXnXnXnXnXnXnXnXnXnXnXnXnXnXnXnXnXnXnXnXnXnXnXnXnXnXnXnXnXnXnXnXnXnXnXnXnXnXnXnXnXnXnXnXnXnXnXnXnXnXnXnXnXnXnXnXnXnXnXnXnX",
"nXnXnXnXnXnXnXnXnXnXnXnXnXnXnXnXnXnXnXnXnXnXnXnXnXnXnXnXnXnXnXnXnXnXnXnXnXnXnXnXnXnXnXnXnXnXnXnXnXnXnXnXnXnXnXnXnXnXnXnXnXnXnXnXnXnXnXnXnXnXnXnXnXnXnXnXnXnXnXnX",
"nXnXnXnXnXnXnXnXnXnXnXnXnXnXnXnXnXnXnXnXnXnXnXnXnXnXnXnXnXnXnXnXnXnXnXnXnXnXnXnXnXnXnXnXnXnXnXnXnXnXnXnXnXnXnXnXnXnXnXnXnXnXnXnXnXnXnXnXnXnXnXnXnXnXnXnXnXnXnXnX",
"nXnXnXnXnXnXnXnXnXnXnXnXnXnXnXnXnXnXnXnXnXnXnXnXnXnXnXnXnXnXnXnXnXnXnXnXnXnXnXnXnXnXnXnXnXnXnXnXnXnXnXnXnXnXnXnXnXnXnXnXnXnXnXnXnXnXnXnXnXnXnXnXnXnXnXnXnXnXnXnX",
"nXnXnXnXnXnXnXnXnXnXnXnXnXnXnXnXnXnXnXnXnXnXnXnXnXnXnXnXnXnXnXnXnXnXnXnXnXnXnXnXnXnXnXnXnXnXnXnXnXnXnXnXnXnXnXnXnXnXnXnXnXnXnXnXnXnXnXnXnXnXnXnXnXnXnXnXnXnXnXnX",
"nXnXnXnXnXnXnXnXnXnXnXnXnXnXnXnXnXnXnXnXnXnX    nX  nXnXnXnXnXnXnXnXnXnXnXnXnXnXnXnXnXnXnXnXnXnXnXnXnXnXnXnXnXnXnXnXnXnXnXnXnXnXnXnXnXnXnXnXnXnXnXnXnXnXnXnXnXnX",
"nXnXnXnXnXnXnXnXnXnXnXnXnXnXnXnXnXnXnX    nXnX    nXnXnXnX  nXnXnXnXnXnXnXnXnXnXnXnXnXnXnXnXnXnXnXnXnXnXnXnXnXnXnXnXnXnXnXnXnXnXnXnXnXnXnXnXnXnXnXnXnXnXnXnXnXnX",
"nXnXnXnXnXnXnXnXnXnXnXnXnXnXnXnXnXnX            nXnXnX    nXnXnXnXnX#X#X#XoX#X#X#XnXnXnXnXnXnXnXnXnXnXnXnXnXnXnXnXnXnXnXnXnXnXnXnXnXnXnXnXnXnXnXnXnXnXnXnXnXnXnX",
"nXnXnXnXnXnXnXnXnXnXnXnXnXnXnXnXnXnX            nXnX    . nXnXnXnXOXw.XXe.| e.XX| OXnXnXnXnXnXnXnXnXnXnXnXnXnXnXnXnXnXnXnXnXnXnXnXnXnXnXnXnXnXnXnXnXnXnXnXnXnXnX",
"nXnXnXnXnXnXnXnXnXnXnXnXnXnXnXnX    nX          nX    . W nXXXXXXX| ` ' ' i.' ( { i.XXnXnXnXnXnXnXnXnXnXnXnXnXnXnXnXnXnXnXnXnXnXnXnXnXnXnXnXnXnXnXnXnXnXnXnXnXnX",
"nXnXnXnXnXnXnXnXnXnXnXnXnXnXnX                    # 3 T $XXX' ' ' [ ] ] [ a.i.i.p.p.} oXnXnXnXnXnXnXnXnXnXnXnXnXnXnXnXnXnXnXnXnXnXnXnXnXnXnXnXnXnXnXnXnXnXnXnXnX",
"nXnXnXnXnXnXnXnXnXnXnXnXnX                      # { oXw.} { ' ' ' ] ' ' ' i.a.s.p. .] XXnXnXnXnXnXnXnXnXnXnXnXnXnXnXnXnXnXnXnXnXnXnXnXnXnXnXnXnXnXnXnXnXnXnXnXnX",
"nXnXnXnXnXnXnXnXnXnXnXnX                      . [ OXXX} ` ' ' [ q.E c c S a.+.X.+.u.c ' nXnXnXnXnXnXnXnXnXnXnXnXnXnXnXnXnXnXnXnXnXnXnXnXnXnXnXnXnXnXnXnXnXnXnXnX",
"nXnXnXnXnXnXnXnXnXnXnXnX      nXnX          # { XX] ` ' q.w.[ Z V x 1 z z O.v 1 S O.z nXnXnXnXnXnXnXnXnXnXnXnXnXnXnXnXnXnXnXnXnXnXnXnXnXnXnXnXnXnXnXnXnXnXnXnXnX",
"nXnXnXnXnXnXnXnXnXnXnXnX        nX      4 T Q XX' ' } / Z E Z x 5 t t t e z z z z 1 nXnXnXnXnXnXnXnXnXnXnXnXnXnXnXnXnXnXnXnXnXnXnXnXnXnXnXnXnXnXnXnXnXnXnXnXnXnX",
"nXnXnXnXnXnXnXnXnXnXnXnX              & [ %XXX{ ] [ ` N 1 z z > 7 #.#.#.9 , z x x z nXnXnXnXnXnXnXnXnXnXnXnXnXnXnXnXnXnXnXnXnXnXnXnXnXnXnXnXnXnXnXnXnXnXnXnXnXnX",
"nXnXnXnXnXnXnXnXnXnXnXnXnX    O $ # 3 w.e.' ' ] [ ` N z z 1 2 . o X   X o   > nXnXnXnXnXnXnXnXnXnXnXnXnXnXnXnXnXnXnXnXnXnXnXnXnXnXnXnXnXnXnXnXnXnXnXnXnXnXnXnXnX",
"nXnXnXnXnXnXnXnXnXnXnXnXnXnX  5 #XOXXX} ' [ ' ] ' c z x : % *.. 9.9Xy i wXq . nXnXnXnXnXnXnXnXnXnXnXnXnXnXnXnXnXnXnXnXnXnXnXnXnXnXnXnXnXnXnXnXnXnXnXnXnXnXnXnXnX",
"nXnXnXnXnXnXnXnXnXnXnXnXnXnXnX, I A A ` [ w./ c c z z > . % $.% kXzXfXuXzXlXy .         nXnXnXnXnXnXnXnXnXnXnXnXnXnXnXnXnXnXnXnXnXnXnXnXnXnXnXnXnXnXnXnXnXnXnXnX",
"nXnXnXnXnXnXnXnXnXnXnXnXnXnXnXnX1 1 1 c N V c 1 z x >   % *.;.8.gXzX9Xq 0XhXq       nXnXnXnXnXnXnXnXnXnXnXnXnXnXnXnXnXnXnXnXnXnXnXnXnXnXnXnXnXnXnXnXnXnXnXnXnXnX",
"nXnXnXnXnXnXnXnXnXnXnXnXnXnXnXnXnXnXz nX1 z x z > : .   % 8 8 3.6.rXqX%.&.%.o     nXnXnXnX    nXnXnXnXnXnXnXnXnXnXnXnXnXnXnXnXnXnXnXnXnXnXnXnXnXnXnXnXnXnXnXnXnX",
"nXnXnXnXnXnXnXnXnXnXnXnXnXnXnXnXnXnXnXnXnX1 < :               2 7 1.wX9.:.+       nXnX        nXnXnXnXnXnXnXnXnXnXnXnXnXnXnXnXnXnXnXnXnXnXnXnXnXnXnXnXnXnXnXnXnX",
"nXnXnXnXnXnXnXnXnXnXnXnXnXnXnXnXnXnXnXnXnXnXnX            . 3 { 4 E ) 5 _ 5 o             nXnXnXnXnXnXnXnXnXnXnXnXnXnXnXnXnXnXnXnXnXnXnXnXnXnXnXnXnXnXnXnXnXnXnX",
"nXnXnXnXnXnXnXnXnXnXnXnXnXnXnXnXnXnXnXnXnXnX              3 e.$ Q ) A  .A e.3                     nXnXnXnXnXnXnXnXnXnXnXnXnXnXnXnXnXnXnXnXnXnXnXnXnXnXnXnXnXnXnX",
"nXnXnXnXnXnXnXnXnXnXnXnXnXnXnXnXnXnXnXnXnX    nX          4 oX# / y.>.yXqX2.*                   nXnXnXnXnXnXnXnXnXnXnXnXnXnXnXnXnXnXnXnXnXnXnXnXnXnXnXnXnXnXnXnX",
"nXnXnXnXnXnXnXnXnXnXnXnXnXnXnXnXnXnXnXnXnX                . 3 X t =.6 i i % X               < nXnXnXnXnXnXnXnXnXnXnXnXnXnXnXnXnXnXnXnXnXnXnXnXnXnXnXnXnXnXnXnXnX",
"nXnXnXnXnXnXnXnXnXnXnXnXnXnXnXnXnXnXnXnXnXnX                  8 $.8               : H v < x g.nXnXnXnXnXnXnXnXnXnXnXnXnXnXnXnXnXnXnXnXnXnXnXnXnXnXnXnXnXnXnXnXnX",
"nXnXnXnXnXnXnXnXnXnXnXnXnXnXnXnXnXnXnXnXnXnXx v               9 #.%               @ H x n m.~.E.nXnXnXnXnXnXnXnXnXnXnXnXnXnXnXnXnXnXnXnXnXnXnXnXnXnXnXnXnXnXnXnX",
"nXnXnXnXnXnXnXnXnXnXnXnXnXnXnXnXnXnXnXnXnXnXm.L : @ : @                         o - @ : C j.m.E.!.^.K m G k.'.nXnXnXnXnXnXnXnXnXnXnXnXnXnXnXnXnXnXnXnXnXnXnXnXnX",
"nXnXnXnXnXnXnXnXnXnXnXnXnXnXnXnXnXnXnXnXnX!.P > v.d.k.m                         = O.n.C.G.( n g.!.V.F ) J.~.N.A.:.8XiXeXnXnXnXnXnXnXnXnXnXnXnXnXnXnXnXnXnXnXnXnX",
"nXnXnXnXnXnXnXnXnXnXnXnXnXnXnXnXnXnXnXnX!.!.W.Z.!.R.l.<                           ; @.Z.F.r.) J C.m.F B. XY.A wXeXeXtXtXeXtXnXnXnXnXnXnXnXnXnXnXnXnXnXnXnXnXnXnX",
"nXnXnXnXnXnXnXnXnXnXnXnXnXnXnXnXnXnXnXnX!.!._.`.!.C.J K m           - a o a s a s ; o > z.K.g.n d.V.b.S.Z.H.8X7X>.qXpXtXtXiXnXnXnXnXnXnXnXnXnXnXnXnXnXnXnXnXnXnX",
"nXnXnXnXnXnXnXnXnXnXnXnXnXnXnXnXnXnXnXnXW.C.C.R. XR.J j.b.G e       o =   - k l l d ; ; v.W.*XG.D d.g.x.j.) 4.R -.8X8X7.iX7.nXnXnXnXnXnXnXnXnXnXnXnXnXnXnXnXnXnX",
"nXnXnXnXnXnXnXnXnXnXnXnXnXnXnXnXnXnXnXnXE.C.U.C.b.j.F f.(.{.D.O > n < - - - - s l l l l U | -X$XD n n f.z.G F F R 8X8X>.7.-.nXnXnXnXnXnXnXnXnXnXnXnXnXnXnXnXnXnX",
"nXnXnXnXnXnXnXnXnXnXnXnXnXnXnXnXnXnXnX^.!.!.!.R.D b D d.m.Y.V., P  XH.j j l = a l k k h j ! | _ F L D n ) / D F J 0.sX8X*.-.nXnXnXnXnXnXnXnXnXnXnXnXnXnXnXnXnXnX",
"nXnXnXnXnXnXnXnXnXnXnXnXnXnXnXnXnXnXnX!.!.U.v.k.F D D D D D J F | ;X$Xg g h h j k k k h l S D D J nXnXnXnXnXnXnXnXnXnXnX-.nXnXnXnXnXnXnXnXnXnXnXnXnXnXnXnXnXnXnX",
"nXnXnXnXnXnXnXnXnXnXnXnXnXnXnXnXnXnX!.Q.R.g.D J D D D D n J b.m.F.t.G.m.c.+.j l h h h k k O.k X.K m.nXnXnXnXnXnXnXnXnXnXnXnXnXnXnXnXnXnXnXnXnXnXnXnXnXnXnXnXnXnX",
"nXnXnXnXnXnXnXnXnXnXnXnXnXnXnXnXnXnXQ.U.m.V.V.j.F n D D D F K d.F C L d.K ..-XL.o.p k ~  .q.l d F J nXnXnXnXnXnXnXnXnXnXnXnXnXnXnXnXnXnXnXnXnXnXnXnXnXnXnXnXnXnX",
"nXnXnXnXnXnXnXnXnXnXnXnXnXnXnXnXnXV.!.T.U._.Y.L F v.K V I D n n n D b D P | =X}.n.c.U 4 3 , e ! < j.R.^./.'.[.@X2XnXnXnXnXnXnXnXnXnXnXnXnXnXnXnXnXnXnXnXnXnXnXnX",
"nXnXnXnXnXnXnXnXnXnXnXnXnXnXnXnXnXC.U.!.Q.Q.U.P I T.C.D.S.n D D K f.K l.R.D.G.Z.C.}.}.x   * e.Q   G H V.`.`.{.L.>X|.nXnXnXnXnXnXnXnXnXnXnXnXnXnXnXnXnXnXnXnXnXnX",
"nXnXnXnXnXnXnXnXnXnXnXnXnXnXnXnXnXv.V.E.C.R._.Q.F.[.'._.C.J D D k.E.U.U.!.!.!.'.L.t.2XW.b R q.T 3   . v g.L B.].`.).E.N.nXnXnXnXnXnXnXnXnXnXnXnXnXnXnXnXnXnXnXnX",
"nXnXnXnXnXnXnXnXnXnXnXnXnXnXnXnXnXF v.V.b.R.E.{._.!.M.n.N.n.F D v.Q.!.!.!./././.J.q.G. X].G O 4 W +   . . . , V.U.T./.R.K.nXnXnXnXnXnXnXnXnXnXnXnXnXnXnXnXnXnXnX",
"nXnXnXnXnXnXnXnXnXnXnXnXnXnXnXnXnXnXF v.V.M.x.| Q.R.K n f.b.F G j.^.!.!.^.C.m.m.U.^.^.!.!./.D.W v z 1 1 < x b @ . P /.|.2X2XnXnXnXnXnXnXnXnXnXnXnXnXnXnXnXnXnXnX",
"nXnXnXnXnXnXnXnXnXnXnXnXnXnXnXnXnXnXnXJ J j.V.B.M.d.e $._ A.wXqX! n.~.!.Q.E.^.C.m.R.R.!.!.).E.x.W / / V 1 m ] R . z P.4XnXnXnXnXnXnXnXnXnXnXnXnXnXnXnXnXnXnXnXnX",
"nXnXnXnXnXnXnXnXnXnXnXnXnXnXnXnXnXnXnXnXn Y D.M.m.J r 6X9X0.7.5.C F v._.!.!.!.E.L : x U.`.!.I.K.:Xw.q.V c / q.| T + R nXnXnXnXnXnXnXnXnXnXnXnXnXnXnXnXnXnXnXnXnX",
"nXnXnXnXnXnXnXnXnXnXnXnXnXnXnXnXnXnXnXnXnXA | M.m.R =.7XsXaX=.F K n f.E.E.^.!.!.j.: . x R..X1X}.F.A Z z Z w.[ ] e.5 R nXnXnXnXnXnXnXnXnXnXnXnXnXnXnXnXnXnXnXnXnX",
"nXnXnXnXnXnXnXnXnXnXnXnXnXnXnXnXnXnXnXnXnXnXnXM.m.Q -.7.pXrX>.+.T C K k.C.!.(.(. X|.(   x F.=X@Xc 1 1 c / ' / ' ' | } ' nXnXnXnXnXnXnXnXnXnXnXnXnXnXnXnXnXnXnXnX",
"nXnXnXnXnXnXnXnXnXnXnXnXnXnXnXnXnXnXnXnXnXnXnXnXM.M.Q 7XpXpXtXrX;.V D D v.E.{. X<X;X&X* X   6 :.` z 1 E ] Z z ' q.[ [ ' [ nXnXnXnXnXnXnXnXnXnXnXnXnXnXnXnXnXnXnX",
"nXnXnXnXnXnXnXnXnXnXnXnXnXnXnXnXnXnXnXnXnXnXnXnXnXnXQ 7XtXtXeX,.T D F n J b.,X4Xr.& * -.1.~ f $.=.z x x c 1 c ` ] ' ' ' q.' nXnXnXnXnXnXnXnXnXnXnXnXnXnXnXnXnXnX",
"nXnXnXnXnXnXnXnXnXnXnXnXnXnXnXnXnXnXnXnXnXnXnXnXnXnXnXnXnX>.eXrXrXf f.b.v.m.5Xr.O X w ;.cXbXfX<.8X2 x z 1 N / c c v E [ q.' c nXnXnXnXnXnXnXnXnXnXnXnXnXnXnXnXnX",
"nXnXnXnXnXnXnXnXnXnXnXnXnXnXnXnXnXnXnXnXnXnXnXnXnXnXnXnXnXnX>.7.5.B d.[.>XP B #   % ;.<.dXvXbXnXnXr $ + > m C x z Z ' ` N N z nXnXnXnXnXnXnXnXnXnXnXnXnXnXnXnXnX",
"nXnXnXnXnXnXnXnXnXnXnXnXnXnXnXnXnXnXnXnXnXnXnXnXnXnXnXnXnXnXnXnXC f.l.[.jX&X2   # v R e =.nXnXnXnXnXnX  + : @ : @ N E N 1 z z nXnXnXnXnXnXnXnXnXnXnXnXnXnXnXnXnX",
"nXnXnXnXnXnXnXnXnXnXnXnXnXnXnXnXnXnXnXnXnXnXnXnXnXnXnXnXnXnXnXnXnXnXV.Z.<X,XP.4 : K F F F nXnXnXeXnXnXnX        + < z z z x z nXnXnXnXnXnXnXnXnXnXnXnXnXnXnXnXnX",
"nXnXnXnXnXnXnXnXnXnXnXnXnXnXnXnXnXnXnXnXnXnXnXnXnXnXnXnXnXnXnXnXnXnXnXV.n.N.3XQ @ J nXnXnXnXnXnXnXeXnXnXnXnX    > 1 1 z 1 < < nXnXnXnXnXnXnXnXnXnXnXnXnXnXnXnXnX",
"nXnXnXnXnXnXnXnXnXnXnXnXnXnXnXnXnXnXnXnXnXnXnXnXnXnXnXnXnXnXnXnXnXnXnXnXnXnXnXnXnXnXnXnXnXnXnXnXnXiXnXnXnXnX. . .   : x < . . nXnXnXnXnXnXnXnXnXnXnXnXnXnXnXnXnX",
"nXnXnXnXnXnXnXnXnXnXnXnXnXnXnXnXnXnXnXnXnXnXnXnXnXnXnXnXnXnXnXnXnXnXnXnXnXnXnXnXnXnXnXnXnXnXnXnXnXiXnXnXnX+ 1 1 < < 1 x z 1 < nXnXnXnXnXnXnXnXnXnXnXnXnXnXnXnXnX",
"nXnXnXnXnXnXnXnXnXnXnXnXnXnXnXnXnXnXnXnXnXnXnXnXnXnXnXnXnXnXnXnXnXnXnXnXnXnXnXnXnXnXnXnXnXnXnXnXtXnXnXnXnX+ x x x x x z x x : . nXnXnXnXnXnXnXnXnXnXnXnXnXnXnXnX",
"nXnXnXnXnXnXnXnXnXnXnXnXnXnXnXnXnXnXnXnXnXnXnXnXnXnXnXnXnXnXnXnXnXnXnXnXnXnXnXnXnXnXnXnXnXnXnXnXiXnXnXnX# < z z z x : @ : @     nXnXnXnXnXnXnXnXnXnXnXnXnXnXnXnX",
"nXnXnXnXnXnXnXnXnXnXnXnXnXnXnXnXnXnXnXnXnXnXnXnXnXnXnXnXnXnXnXnXnXnXnXnXnXnXnXnXnXnXnXnXnXnXnXnXnXnXnXo > b x x x x < .         nXnXnXnXnXnXnXnXnXnXnXnXnXnXnXnX",
"nXnXnXnXnXnXnXnXnXnXnXnXnXnXnXnXnXnXnXnXnXnXnXnXnXnXnXnXnXnXnXnXnXnXnXnXnXnXnXnXnXnXnXnXnXnXnXnXnXnXnX0 @ 1 < < < < 1 :         nXnXnXnXnXnXnXnXnXnXnXnXnXnXnXnX",
"nXnXnXnXnXnXnXnXnXnXnXnXnXnXnXnXnXnXnXnXnXnXnXnXnXnXnXnXnXnXnXnXnXnXnXnXnXnXnXnXnXnXnXnXnXnXnXnXnXnXiXnXnX  .     .         nXnXnXnXnXnXnXnXnXnXnXnXnXnXnXnXnXnX",
"nXnXnXnXnXnXnXnXnXnXnXnXnXnXnXnXnXnXnXnXnXnXnXnXnXnXnXnXnXnXnXnXnXnXnXnXnXnXnXnXnXnXnXnXnXnXnXnXnXnXnXnXnXnXnX              nXnXnXnXnXnXnXnXnXnXnXnXnXnXnXnXnXnX",
"nXnXnXnXnXnXnXnXnXnXnXnXnXnXnXnXnXnXnXnXnXnXnXnXnXnXnXnXnXnXnXnXnXnXnXnXnXnXnXnXnXnXnXnXnXnXnXnXnXnXnXnXnXnX. < 1 . .             nXnXnXnXnXnXnXnXnXnXnXnXnXnXnX",
"nXnXnXnXnXnXnXnXnXnXnXnXnXnXnXnXnXnXnXnXnXnXnXnXnXnXnXnXnXnXnXnXnXnXnXnXnXnXnXnXnXnXnXnXnXnXnXnXnXnXnXnXnXnX+ z x < : : > :             nXnXnXnXnXnXnXnXnXnXnXnX",
"nXnXnXnXnXnXnXnXnXnXnXnXnXnXnXnXnXnXnXnXnXnXnXnXnXnXnXnXnXnXnXnXnXnXnXnXnXnXnXnXnXnXnXnXnXnXnXnXnXnXnXnXnXnX. 1 z x x x x x : @ @ : +   nXnXnXnXnXnXnXnXnXnXnXnX",
"nXnXnXnXnXnXnXnXnXnXnXnXnXnXnXnXnXnXnXnXnXnXnXnXnXnXnXnXnXnXnXnXnXnXnXnXnXnXnXnXnXnXnXnXnXnXnXnXnXnXnXnXnXnX+ z z z z z z z z x z x 1   nXnXnXnXnXnXnXnXnXnXnXnX",
"nXnXnXnXnXnXnXnXnXnXnXnXnXnXnXnXnXnXnXnXnXnXnXnXnXnXnXnXnXnXnXnXnXnXnXnXnXnXnXnXnXnXnXnXnXnXnXnXnXnXnXnXnXnXnXnXnXnXnXnXnXnXnXnXnXnXnXnXnXnXnXnXnXnXnXnXnXnXnXnX",
"nXnXnXnXnXnXnXnXnXnXnXnXnXnXnXnXnXnXnXnXnXnXnXnXnXnXnXnXnXnXnXnXnXnXnXnXnXnXnXnXnXnXnXnXeXeXeXtXeXeXnXnXnXnXnXnXnXnXnXnXnXnXnXnXnXnXnXnXnXnXnXnXnXnXnXnXnXnXnXnX",
"nXnXnXnXnXnXnXnXnXnXnXnXnXnXnXnXnXnXnXnXnXnXnXnXnXnXnXnXnXnXnXnXnXnXnXnXnXnXnXnXnXnXnXnXnXnXnXnXnXnXnXnXnXnXnXnXnXnXnXnXnXnXnXnXnXnXnXnXnXnXnXnXnXnXnXnXnXnXnXnX",
"nXnXnXnXnXnXnXnXnXnXnXnXnXnXnXnXnXnXnXnXnXnXnXnXnXnXnXnXnXnXnXnXnXnXnXnXnXnXnXnXnXnXnXnXnXnXnXnXnXnXnXnXnXnXnXnXnXnXnXnXnXnXnXnXnXnXnXnXnXnXnXnXnXnXnXnXnXnXnXnX",
"nXnXnXnXnXnXnXnXnXnXnXnXnXnXnXnXnXnXnXnXnXnXnXnXnXnXnXnXnXnXnXnXnXnXnXnXnXnXnXnXnXnXnXnXnXnXnXnXnXnXnXnXnXnXnXnXnXnXnXnXnXnXnXnXnXnXnXnXnXnXnXnXnXnXnXnXnXnXnXnX",
"nXnXnXnXnXnXnXnXnXnXnXnXnXnXnXnXnXnXnXnXnXnXnXnXnXnXnXnXnXnXnXnXnXnXnXnXnXnXnXnXnXnXnXnXnXnXnXnXnXnXnXnXnXnXnXnXnXnXnXnXnXnXnXnXnXnXnXnXnXnXnXnXnXnXnXnXnXnXnXnX"
};
