/* XPM */
static char *_100_f40ea873b8e8ea8a450d3cfb2c078991ca1e78e03bddf849efe48e2258ecd7d1[] = {
/* columns rows colors chars-per-pixel */
"80 80 215 2 ",
"   c #010000",
".  c #0B0000",
"X  c #030A00",
"o  c #0B0C05",
"O  c #130100",
"+  c #1C0000",
"@  c #190C00",
"#  c #061100",
"$  c #081603",
"%  c #171702",
"&  c #001D10",
"*  c gray7",
"=  c #191C1D",
"-  c #230000",
";  c #2C0000",
":  c #200F00",
">  c #330000",
",  c #3D0000",
"<  c #380D0D",
"1  c #271603",
"2  c #331B02",
"3  c #3B1F02",
"4  c #371517",
"5  c #2D1819",
"6  c #0F2100",
"7  c #092808",
"8  c #143300",
"9  c #012B12",
"0  c #033618",
"q  c #3E3800",
"w  c #331B20",
"e  c #003C24",
"r  c #242B2B",
"t  c #2C2C2C",
"y  c #242424",
"u  c #3A2224",
"i  c #35292B",
"p  c #2C3728",
"a  c #2F2F30",
"s  c #2E3333",
"d  c #253737",
"f  c #323334",
"g  c #3A3A3A",
"h  c #343C3C",
"j  c #420000",
"k  c #4A0000",
"l  c #4B0D01",
"z  c #46090D",
"x  c #540000",
"c  c #5C0000",
"v  c #5B0A0A",
"b  c #580A01",
"n  c #4B1001",
"m  c #461B02",
"M  c #521601",
"N  c #551D03",
"B  c #5A1C02",
"V  c #451111",
"C  c #5E1111",
"Z  c #640000",
"A  c #6C0100",
"S  c #6C0A03",
"D  c #730201",
"F  c #7B0301",
"G  c #760E03",
"H  c #442403",
"J  c #4C2402",
"K  c #572203",
"L  c #5B2203",
"P  c #522C08",
"I  c #5C2803",
"U  c #5C3109",
"Y  c #50211C",
"T  c #612503",
"R  c #632D03",
"E  c #6A2B04",
"W  c #6D2D08",
"Q  c #732C05",
"!  c #653304",
"~  c #6A3504",
"^  c #6D3A04",
"/  c #6B3908",
"(  c #673708",
")  c #733B07",
"_  c #763D08",
"`  c #793F08",
"'  c #7A3305",
"]  c #6B3E11",
"[  c #743718",
"{  c #482828",
"}  c #463725",
"|  c #593D3D",
" . c #164800",
".. c #1E5601",
"X. c #1D5903",
"o. c #1A5E04",
"O. c #04431D",
"+. c #0E5B1D",
"@. c #105A18",
"#. c #2E4200",
"$. c #234E00",
"%. c #3C4300",
"&. c #215300",
"*. c #146C17",
"=. c #004A28",
"-. c #2D4129",
";. c #0C7827",
":. c #127624",
">. c #167032",
",. c #06682C",
"<. c #27793C",
"1. c #43520D",
"2. c #7D4209",
"3. c #7A4609",
"4. c #7B5509",
"5. c #6B480A",
"6. c #674E32",
"7. c #3B4343",
"8. c #007942",
"9. c #424949",
"0. c #484848",
"q. c #4A5252",
"w. c #5B5B5B",
"e. c #505656",
"r. c #645149",
"t. c #656767",
"y. c #797979",
"u. c #820401",
"i. c #8C0502",
"p. c #850901",
"a. c #8E0A03",
"s. c #930502",
"d. c #930C02",
"f. c #9E0903",
"g. c #9D0703",
"h. c #841B04",
"j. c #881F01",
"k. c #971403",
"l. c #9C1103",
"z. c #A10201",
"x. c #AD0503",
"c. c #A40B03",
"v. c #AD0C04",
"b. c #B30402",
"n. c #B30D04",
"m. c #BB0D04",
"M. c #B90404",
"N. c #A41305",
"B. c #AE1204",
"V. c #A81A05",
"C. c #B31304",
"Z. c #BA1404",
"A. c #B21A06",
"S. c #8A2603",
"D. c #912A01",
"F. c #853308",
"G. c #89330A",
"H. c #873C07",
"J. c #98340A",
"K. c #A12609",
"L. c #BD2204",
"P. c #BE2508",
"I. c #B63807",
"U. c #AC3C05",
"Y. c #C20002",
"T. c #C50E04",
"R. c #C80F04",
"E. c #DF0E03",
"W. c #D40E04",
"Q. c #C41104",
"!. c #CB1404",
"~. c #CF1F06",
"^. c #D31604",
"/. c #DB1203",
"(. c #D51904",
"). c #DA1904",
"_. c #E21304",
"`. c #E21B04",
"'. c #EB1904",
"]. c #F21B04",
"[. c #C62B06",
"{. c #D62804",
"}. c #CD3404",
"|. c #D53404",
" X c #83440B",
".X c #874A0C",
"XX c #8A490C",
"oX c #89410A",
"OX c #84540B",
"+X c #9E530D",
"@X c #91431C",
"#X c #AE4200",
"$X c #BA4A06",
"%X c #956F0A",
"&X c #876A0A",
"*X c #A36F08",
"=X c #B36F09",
"-X c #CC4906",
";X c #E64D04",
":X c #CE6704",
">X c #CE7904",
",X c #C67205",
"<X c #D27B04",
"1X c #09893B",
"2X c #078838",
"3X c #008C4A",
"4X c #01984C",
"5X c #059748",
"6X c #009D51",
"7X c #15944A",
"8X c #2A8647",
"9X c #02A758",
"0X c #04A74D",
"qX c #969696",
"wX c None",
/* pixels */
"wXwXwXwXwXwXwXwXwXwXwXwXwXwXwXwXwXwXwXwXwXwXwXwXwXwXwXwXwXwXwXwXwXwXwXwXwXwXwXwXwXwXwXwXwXwXwXwXwXwXwXwXwXwXwXwXwXwXwXwXwXwXwXwXwXwXwXwXwXwXwXwXwXwXwXwXwXwXwXwX",
"wXwXwXwXwXwXwXwXwXwXwXwXwXwXwXwXwXwXwXwXwXwXwXwXwXwXwXwXwXwXwXwXwXwXwXwXwXwXwXwXwXwXwXwXwXwXwXwXwXwXwXwXwXwXwXwXwXwXwXwXwXwXwXwXwXwXwXwXwXwXwXwXwXwXwXwXwXwXwXwX",
"wXwXwXwXwXwXwXwXwXwXwXwXwXwXwXwXwXwXwXwXwXwXwXwXwXwXwXwXwXwXwXwXwXwXwXwXwXwXwXwXwXwXwXwXwXwXwXwXwXwXwXwXwXwXwXwXwXwXwXwXwXwXwXwXwXwXwXwXwXwXwXwXwXwXwXwXwXwXwXwX",
"wXwXwXwXwXwXwXwXwXwXwXwXwXwXwXwXwXwXwXwXwXwXwXwXwXwXwXwXwXwXwXwXwXwXwXwXwXwXwXwXwXwXwXwXwXwXwXwXwXwXwXwXwXwXwXwXwXwXwXwXwXwXwXwXwXwXwXwXwXwXwXwXwXwXwXwXwXwXwXwX",
"wXwXwXwXwXwXwXwXwXwXwXwXwXwXwXwXwXwXwXwXwXwXwXwXwXwXwXwXwXwXwXwXwXwXwXwXwXwXwXwXwXwXwXwXwXwXwXwXwXwXwXwXwXwXwXwXwXwXwXwXwXwXwXwXwXwXwXwXwXwXwXwXwXwXwXwXwXwXwXwX",
"wXwXwXwXwXwXwXwXwXwXwXwXwXwXwXwXwXwXwXwXwXwXwXwXwXwXwXwXwXwXwXwXwXwXwXwXwXwXwXwXwXwXwXwXwXwXwXwXwXwXwXwXwXwXwXwXwXwXwXwXwXwXwXwXwXwXwXwXwXwXwXwXwXwXwXwXwXwXwXwX",
"wXwXwXwXwXwXwXwXwXwXwXwXwXwXwXwXwXwXwXwXwXwXwXwXwXwXwXwXwXwXwXwXwXwXwXwXwXwXwXwXwXwXwXwXwXwXwXwXwXwXwXwXwXwXwXwXwXwXwXwXwXwXwXwXwXwXwXwXwXwXwXwXwXwXwXwXwXwXwXwX",
"wXwXwXwXwXwXwXwXwXwXwXwXwXwXwXwXwXwXwXwXwXwXwXwXwXwXwXwXwXwXwXwXwXwX  wXwXwXwXwXwXwXwXwXwXwXwXwXwXwXwXwXwXwXwXwXwXwXwXwXwXwXwXwXwXwXwXwXwXwXwXwXwXwXwXwXwXwXwXwX",
"wXwXwXwXwXwXwXwXwXwXwXwXwXwXwXwXwXwXwXwXwXwXwXwXwXwXwXwXwX  wXwXwXwXwX  wXwXwXwXwXwXwXwXwXwXwXwXwXwXwXwXwXwXwXwXwXwXwXwXwXwXwXwXwXwXwXwXwXwXwXwXwXwXwXwXwXwXwXwX",
"wXwXwXwXwXwXwXwXwXwXwXwXwXwXwXwXwXwXwXwXwXwXwXwXwXwXwXwXwXwX  wXwXwXwX: wXwXwXwXwXwXwXwXwXwXwXwXwXwXwXwXwXwXwXwXwXwXwXwXwXwXwXwXwXwXwXwXwXwXwXwXwXwXwXwXwXwXwXwX",
"wXwXwXwXwXwXwXwXwXwXwXwXwXwXwXwXwXwXwXwXwXwXwXwXwXwXwXwXwXwX    wXwXwXXXXX XXXXXXX.XXXXXXXXXwXwXwXwXwXwXwXwXwXwXwXwXwXwXwXwXwXwXwXwXwXwXwXwXwXwXwXwXwXwXwXwXwXwX",
"wXwXwXwXwXwXwXwXwXwXwXwXwXwXwXwXwXwXwXwXwXwXwXwXwXwXwXwX        H +X X~ ^ ~ ~ ~ ! ^ ~ ~ ! ) XXXXwXwXwXwXwXwXwXwXwXwXwXwXwXwXwXwXwXwXwXwXwXwXwXwXwXwXwXwXwXwXwXwX",
"wXwXwXwXwXwXwXwXwXwXwXwXwXwXwXwXwXwXwXwX                    P 3./ ) ^ ! ! ! ! ! ! E ! ! ~ ! ) ~ XXXXwXwXwXwXwXwXwXwXwXwXwXwXwXwXwXwXwXwXwXwXwXwXwXwXwXwXwXwXwXwX",
"wXwXwXwXwXwXwXwXwXwXwXwXwXwXwXwXwXwXwX  wX              U ( _ 2./ ! ! ~ ^ ^ r.] Q 6.6.~ ~ ~ ! ! ^ / XXXXwXwXwXwXwXwXwXwXwXwXwXwXwXwXwXwXwXwXwXwXwXwXwXwXwXwXwXwX",
"wXwXwXwXwXwXwXwXwXwXwXwXwXwXwXwXwXwXwX  wXwX    @ U P P 2. X~ ! ~ ^ ^ ! M M { } } } Y M B ) ^ ! ! ! ) ) 2.XXXXXXwXwXwXwXwXwXwXwXwXwXwXwXwXwXwXwXwXwXwXwXwXwXwXwX",
"wXwXwXwXwXwXwXwXwXwXwXwXwXwXwXwXwXwXwXwXwXwXwX  3 +XXX X! ! ! ~ T N B N j , < 4 5 4 < j k L N ~ ^ ^ ! R ^ 2.2.` wXwXwXwXwXwXwXwXwXwXwXwXwXwXwXwXwXwXwXwXwXwXwXwX",
"wXwXwXwXwXwXwXwXwXwXwXwXwXwXwXwXwXwXwXwXwXwXwX  @ J L ~ ! ~ ~ ! n j > ; ; 4 s 4 < i i < - ; , 3 K K ! ^ ~ R K ! wXwXwXwXwXwXwXwXwXwXwXwXwXwXwXwXwXwXwXwXwXwXwXwX",
"wXwXwXwXwXwXwXwXwXwXwXwXwXwXwXwXwXwXwXwXwX          , R ~ R R l > > -     r p p r p p =     > . > , M R R N , wXwXwXwXwXwXwXwXwXwXwXwXwXwXwXwXwXwXwXwXwXwXwXwXwX",
"wXwXwXwXwXwXwXwXwXwXwXwXwXwXwXwXwXwXwX      wXwXwX  . j R j , k -       X    ...X 8 8   X     j , , , , , , wXwXwXwXwXwXwXwXwXwXwXwXwXwXwXwXwXwXwXwXwXwXwXwXwXwX",
"wXwXwXwXwXwXwXwXwXwXwXwXwXwXwXwXwXwXwXwXwXwX        . wX, j , , k -   # &.  .         6  .. j ,   - k j wXwXwXwXwXwXwXwXwXwXwXwXwXwXwXwXwXwXwXwXwXwXwXwXwXwXwXwX",
"wXwXwXwXwXwXwXwXwXwXwXwXwXwXwXwXwXwXwXwXwX      wXwXwXwXwXwXwX+       # ..  ' 1.1Xe j 4. .    . wX. ; wXwXwXwXwXwXwXwXwXwXwXwXwXwXwXwXwXwXwXwXwXwXwXwXwXwXwXwXwX",
"wXwXwXwXwXwXwXwXwXwXwXwXwXwXwXwXwXwXwXwX  wXwXwXwXwXwXwXwXwXwXwX        $ 3X7X5X9 =.9X>.X         wXwXwXwXwXwXwXwXwXwXwXwXwXwXwXwXwXwXwXwXwXwXwXwXwXwXwXwXwXwXwX",
"wXwXwXwXwXwXwXwXwXwXwXwXwXwXwXwXwXwXwXwXwXwXwXwXwXwXwX  wXwX              0 *.0X3X:.+.9         wXwXwXwXwXwXwXwXwXwXwXwXwXwXwXwXwXwXwXwXwXwXwXwXwXwXwXwXwXwXwXwX",
"wXwXwXwXwXwXwXwXwXwXwXwXwXwXwXwXwXwXwXwXwXwXwXwXwXwXwX                      o 9 e 7 .             wXwX  wXwXwXwXwXwXwXwXwXwXwXwXwXwXwXwXwXwXwXwXwXwXwXwXwXwXwXwX",
"wXwXwXwXwXwXwXwXwXwXwXwXwXwXwXwXwXwXwXwXwXwXwXwXwXwXwXwX                    6 O.=.0 $                   wXwXwXwXwXwXwXwXwXwXwXwXwXwXwXwXwXwXwXwXwXwXwXwXwXwXwXwX",
"wXwXwXwXwXwXwXwXwXwXwXwXwXwXwXwXwXwXwXwXwXwXwXwXwXwXwXwXwXwX.               8 ,.8.+.6 .           > wXwXwXwXwXwXwXwXwXwXwXwXwXwXwXwXwXwXwXwXwXwXwXwXwXwXwXwXwXwX",
"wXwXwXwXwXwXwXwXwXwXwXwXwXwXwXwXwXwXwXwXwXwXwXwXwXwXwXwXwXwXO                                   wXwXwXwXwXwXwXwXwXwXwXwXwXwXwXwXwXwXwXwXwXwXwXwXwXwXwXwXwXwXwXwX",
"wXwXwXwXwXwXwXwXwXwXwXwXwXwXwXwXwXwXwXwXwXwXwXwXwXwXwXC.(.A O                                     S F u.Q.wXwXwXwXwXwXwXwXwXwXwXwXwXwXwXwXwXwXwXwXwXwXwXwXwXwXwX",
"wXwXwXwXwXwXwXwXwXwXwXwXwXwXwXwXwXwXwXwXwXwXwXwXwX).C.  c.O   . .                           . . . X > s.Q.).(.wXwXwXwXwXwXwXwXwXwXwXwXwXwXwXwXwXwXwXwXwXwXwXwXwX",
"wXwXwXwXwXwXwXwXwXwXwXwXwXwXwXwXwXwXwXwXwXwXwXwX(.).^.c..     k.S                         O B.!.!.(.p.F Q.).(.(.(.wXwXwXwXwXwXwXwXwXwXwXwXwXwXwXwXwXwXwXwXwXwXwX",
"wXwXwXwXwXwXwXwXwXwXwXwXwXwXwXwXwXwXwXwXwXwXwX(.).^.n.v.x B.Z.].S   O v r                   . ).`.).m.c.Z.m.m.n.(.).(.wXwXwXwXwXwXwXwXwXwXwXwXwXwXwXwXwXwXwXwXwX",
"wXwXwXwXwXwXwXwXwXwXwXwXwXwXwXwXwXwXwXwXv.^.`.^.Z.n.v.n.Z m.].b b B.F v r   y o   * r 5 c a.k.+ B.`.R.s.A D F m.Q.m.^.).wXwXwXwXwXwXwXwXwXwXwXwXwXwXwXwXwXwXwXwX",
"wXwXwXwXwXwXwXwXwXwXwXwXwXwXwXwXwXwXwX).^.d.p.u.s.m.n.F Z D n.a.C._.z.v 9.  a . * t s u u.R._.u.Q.`.R.p.x Z Z F F D c.(.`.wXwXwXwXwXwXwXwXwXwXwXwXwXwXwXwXwXwXwX",
"wXwXwXwXwXwXwXwXwXwXwXwXwXwXwXwXwXwX(.Q.`.c.Z k Z d.u.c Z c s.P.-X}.s.C t.0.f * y 0.7.4 F n.I.;X{.R.T.s.c Z Z c c F f.Q.'.N.wXwXwXwXwXwXwXwXwXwXwXwXwXwXwXwXwXwX",
"wXwXwXwXwXwXwXwXwXwXwXwXwXwXwXwXwXwX(.v.N.c.i.i.F x c Z Z c x.G.&X$Xz.v e.qXh w.g g q.{ F B.5.*X{.m.f.F c Z Z Z Z v.m.R.Z.d.c.wXwXwXwXwXwXwXwXwXwXwXwXwXwXwXwXwX",
"wXwXwXwXwXwXwXwXwXwXwXwXwXwXwXwXwX_.(.n.F x p.v.i.c Z Z Z Z s.h.G.K.i.V f qXg t.t.i 0.r.D n.S.H.~.R.F wXwXwXZ Z Z d.f.g.D d.].^.wXwXwXwXwXwXwXwXwXwXwXwXwXwXwXwX",
"wXwXwXwXwXwXwXwXwXwXwXwXwXwXwXwX1._.!.n.m.F c c Z Z Z Z wXZ x s._.b.< d g y.g = y.t.h 0.D m./.E.^.m.u.c wXwXwXwXZ c c c s.R.^.@XwXwXwXwXwXwXwXwXwXwXwXwXwXwXwXwX",
"wXwXwXwXwXwXwXwXwXwXwXwXwXwX&.;.8XE.v.v.v.F Z Z Z wXwXwXwXZ c a.(.n.z s s t a t y.w.r 4 D v.B.{.n.n.u.wXwXwXwXwXwXZ c d.n.M.[ 9X4X5X4XwXwXwXwXwXwXwXwXwXwXwXwXwX",
"wXwXwXwXwXwXwXwXwXwXwXwXwX$.:.9X<.Y.v.A Z Z wXwXwXwXwXwXwXZ Z Q =X#Xz s s s a f s s f s u A XX,X[.F wXwXwXwXwXwXwXwXZ Z A M *.9X4X..&.$.2XwXwXwXwXwXwXwXwXwXwXwX",
"wXwXwXwXwXwXwXwXwXwXwXwXwXwXwX9X2Xq D A wXwXwXwXwXwXwXwXwXv.A B OXG.x z j , ! / / ( K , z Z / OXA.F wXwXwXwXwXwXwXwXwXA H ....o.&.$.$.wXwX4X4XwXwXwXwXwXwXwXwXwX",
"wXwXwXwXwXwXwXwXwXwXwXwXwXwXwX;.wX1X#.#.wXwXwXwXwXwXwXwXwXn.c.l.V.a.j . O I : @ O J J . + D l.N.C.F wXwXwXwXwXwXwXwXwXwXwXo.&.X.1XwXwX1XwXwXwXwXwXwXwXwXwXwXwXwX",
"wXwXwXwXwXwXwXwXwXwXwXwXwX&.&.wXwX*.wX..wXwXwXwXwXwXwXwXwXn.M.b.M.g.,   . ^ X   2 ^ 3   O D M.b.m.D wXwXwXwXwXwXwXwXwXwXwXwXwXwXwX6XwXwXwXwXwXwXwXwXwXwXwXwXwXwX",
"wXwXwXwXwXwXwXwXwXwXwXwXwXwXwXwXwX&.wXwXwXwXwXwXwXwXwXwX).!.K.$X[.z.k   . !     @ U 3   . D J.-XC.c.wXwXwXwXwXwXwXwXwXwXwXwXwXwXwXwXwXwXwXwXwXwXwXwXwXwXwXwXwXwX",
"wXwXwXwXwXwXwXwXwXwXwXwXwXwXwXwXwX&.wXwXwXwXwXwXwXwXwXwX(./.H.%XU.A -   X ^ 2 2 2 m m + - S 3.=XV.^.wXwXwXwXwXwXwXwXwXwXwXwXwXwXwXwXwXwXwXwXwXwXwXwXwXwXwXwXwXwX",
"wXwXwXwXwXwXwXwXwXwXwXwXwXwXwXwXwXwXwXwXwXwXwXwXwXwXwXwX^.).S.G.h.>   + + L E E E n , k k c T G.B.!.wXwXwXwXwXwXwXwXwXwXwXwXwXwXwXwXwXwXwXwXwXwXwXwXwXwXwXwXwXwX",
"wXwXwXwXwXwXwXwXwXwXwXwXwXwXwXwXwXwXwXwXwXwXwXwXwXwXwXwX(.!.T.M.F -   , , ; ; , , , , j , , Z x.x.Q.).wXwXwXwXwXwXwXwXwXwXwXwXwXwXwXwXwXwXwXwXwXwXwXwXwXwXwXwXwX",
"wXwXwXwXwXwXwXwXwXwXwXwXwXwXwXwXwXwXwXwXwXwXwXwXwXwXwXwX).C.Z.p.-   .         ; , , j j , j Z c.B.!.(.^.wXwXwXwXwXwXwXwXwXwXwXwXwXwXwXwXwXwXwXwXwXwXwXwXwXwXwXwX",
"wXwXwXwXwXwXwXwXwXwXwXwXwXwXwXwXwXwXwXwXwXwXwXwXwXwXwXwX(.H.,XD.k , , j j , k .   - k , , k Z  X=X|./.(.wXwXwXwXwXwXwXwXwXwXwXwXwXwXwXwXwXwXwXwXwXwXwXwXwXwXwXwX",
"wXwXwXwXwXwXwXwXwXwXwXwXwXwXwXwXwXwXwXwXwXwXwXwXwXwXwX(.(.~ OXh.;           , , , +           ! OX[./.wXwXwXwXwXwXwXwXwXwXwXwXwXwXwXwXwXwXwXwXwXwXwXwXwXwXwXwXwX",
"wXwXwXwXwXwXwXwXwXwXwXwXwXwXwXwXwXwXwXwXwXwXwXwXwXwXwX(.).B.G x > ; > ; ; > . , k , > > > > > b V.C.!.(.(.wXwXwXwXwXwXwXwXwXwXwXwXwXwXwXwXwXwXwXwXwXwXwXwXwXwXwX",
"wXwXwXwXwXwXwXwXwXwXwXwXwXwXwXwXwXwXwXwXwXwXwXwXwXwXwX^.m.T.F B I T T R L j ; . > k k k k j k k A f.!.).(.wXwXwXwXwXwXwXwXwXwXwXwXwXwXwXwXwXwXwXwXwXwXwXwXwXwXwX",
"wXwXwXwXwXwXwXwXwXwXwXwXwXwXwXwXwXwXwXwXwXwXwXwXwXwXwX^.n.i.x K ^ ~ ! ~ ~ K k ; O > > O + j , , x f.Q.!./.wXwXwXwXwXwXwXwXwXwXwXwXwXwXwXwXwXwXwXwXwXwXwXwXwXwXwX",
"wXwXwXwXwXwXwXwXwXwXwXwXwXwXwXwXwXwXwXwXwXwXwXwXwXwXwX^.n.Z n ! 2.` 2.) ! 5.k k O . + + + k , , k F z.T.{.wXwXwXwXwXwXwXwXwXwXwXwXwXwXwXwXwXwXwXwXwXwXwXwXwXwXwX",
"wXwXwXwXwXwXwXwXwXwXwXwXwXwXwXwXwXwXwXwXwXwXwXwXwXwXwX^.M.Z E XXXXXXXX X! K k > . . ; k k , , j , k i.M.}.wXwXwXwXwXwXwXwXwXwXwXwXwXwXwXwXwXwXwXwXwXwXwXwXwXwXwX",
"wXwXwXwXwXwXwXwXwXwXwXwXwXwXwXwXwXwXwXwXwXwXwXwXwXwX:X{.L.S.oXXX.XXXXX.XR , > .   + j j , j j , , k k.[.I.<XwXwXwXwXwXwXwXwXwXwXwXwXwXwXwXwXwXwXwXwXwXwXwXwXwXwX",
"wXwXwXwXwXwXwXwXwXwXwXwXwXwXwXwXwXwXwXwXwXwXwXwXwXwXwX>X>X,XXX XXXXXXX2.! j   wXwX  + k j j , j , ; H.<X<XwXwXwXwXwXwXwXwXwXwXwXwXwXwXwXwXwXwXwXwXwXwXwXwXwXwXwX",
"wXwXwXwXwXwXwXwXwXwXwXwXwXwXwXwXwXwXwXwXwXwXwXwXwXwXwXwXwXl > W XXXXH.! R ,   wXwX  + k j , j , , j > ' wXwXwXwXwXwXwXwXwXwXwXwXwXwXwXwXwXwXwXwXwXwXwXwXwXwXwXwX",
"wXwXwXwXwXwXwXwXwXwXwXwXwXwXwXwXwXwXwXwXwXwXwXwXwXwXwXwXwX, , j , M 5.T , . wXwXwXwXwXO k j j , j j , j wXwXwXwXwXwXwXwXwXwXwXwXwXwXwXwXwXwXwXwXwXwXwXwXwXwXwXwX",
"wXwXwXwXwXwXwXwXwXwXwXwXwXwXwXwXwXwXwXwXwXwXwXwXwXwXwXwXwX, L ! ! ! ^ ! ,   wXwXwXwXwXO k , j j , j j , wXwXwXwXwXwXwXwXwXwXwXwXwXwXwXwXwXwXwXwXwXwXwXwXwXwXwXwX",
"wXwXwXwXwXwXwXwXwXwXwXwXwXwXwXwXwXwXwXwXwXwXwXwXwXwXwXwXj j l n n l n l , ; j wXwXwXwXwX+ j j , , j , k wXwXwXwXwXwXwXwXwXwXwXwXwXwXwXwXwXwXwXwXwXwXwXwXwXwXwXwX",
"wXwXwXwXwXwXwXwXwXwXwXwXwXwXwXwXwXwXwXwXwXwXwXwXwXwXwXwX, j , , , , , , , j j wXwXwXwXwX. j , , , k k wXwXwXwXwXwXwXwXwXwXwXwXwXwXwXwXwXwXwXwXwXwXwXwXwXwXwXwXwX",
"wXwXwXwXwXwXwXwXwXwXwXwXwXwXwXwXwXwXwXwXwXwXwXwXwXwXwXwXj j k j k j k k k , j wXwXwXwXwX. k k k k ; - .   wXwXwXwXwXwXwXwXwXwXwXwXwXwXwXwXwXwXwXwXwXwXwXwXwXwXwX",
"wXwXwXwXwXwXwXwXwXwXwXwXwXwXwXwXwXwXwXwXwXwXwXwXwXwXwXwXj ; - + - - - - - j k wXwXwXwXwXwX; - ; ; .         wXwXwXwXwXwXwXwXwXwXwXwXwXwXwXwXwXwXwXwXwXwXwXwXwXwX",
"wXwXwXwXwXwXwXwXwXwXwXwXwXwXwXwXwXwXwXwXwXwXwXwXwXwXwXwXj   . . . . . . . > ; wXwXwXwXwXwX                  wXwXwXwXwXwXwXwXwXwXwXwXwXwXwXwXwXwXwXwXwXwXwXwXwXwX",
"wXwXwXwXwXwXwXwXwXwXwXwXwXwXwXwXwXwXwXwXwXwXwXwXwXwXwXwXwX  > k j k j k ,     wXwXwXwXwXwX                  wXwXwXwXwXwXwXwXwXwXwXwXwXwXwXwXwXwXwXwXwXwXwXwXwXwX",
"wXwXwXwXwXwXwXwXwXwXwXwXwXwXwXwXwXwXwXwXwXwXwXwXwXwXwXwXwXwX; j j , j j , wXwXwXwXwXwXwXwXwX                wXwXwXwXwXwXwXwXwXwXwXwXwXwXwXwXwXwXwXwXwXwXwXwXwXwX",
"wXwXwXwXwXwXwXwXwXwXwXwXwXwXwXwXwXwXwXwXwXwXwXwXwXwXwXwXwXwXwX; j j j j , wXwXwXwXwXwXwXwXwX              wXwXwXwXwXwXwXwXwXwXwXwXwXwXwXwXwXwXwXwXwXwXwXwXwXwXwX",
"wXwXwXwXwXwXwXwXwXwXwXwXwXwXwXwXwXwXwXwXwXwXwXwXwXwXwXwXwX    . . . + j j wXwXwXwXwXwXwXwXwXwXwX            wXwXwXwXwXwXwXwXwXwXwXwXwXwXwXwXwXwXwXwXwXwXwXwXwXwX",
"wXwXwXwXwXwXwXwXwXwXwXwXwXwXwXwXwXwXwXwXwXwXwXwXwXwXwXwXwX          O k j j wXwXwXwXwXwXwXwXwXwX                wXwXwXwXwXwXwXwXwXwXwXwXwXwXwXwXwXwXwXwXwXwXwXwX",
"wXwXwXwXwXwXwXwXwXwXwXwXwXwXwXwXwXwXwXwXwXwXwXwXwXwXwXwXwXwX        . + k j wXwXwXwXwXwXwXwXwXwX                  wXwXwXwXwXwXwXwXwXwXwXwXwXwXwXwXwXwXwXwXwXwXwX",
"wXwXwXwXwXwXwXwXwXwXwXwXwXwXwXwXwXwXwXwXwXwXwXwXwXwXwXwXwXwXwX          - + wXwXwXwXwXwXwXwXwXwXwXwXwXwXwXwXwXwX  wXwXwXwXwXwXwXwXwXwXwXwXwXwXwXwXwXwXwXwXwXwXwX",
"wXwXwXwXwXwXwXwXwXwXwXwXwXwXwXwXwXwXwXwXwXwXwXwXwXwXwXwXwXwXwXwX            wXwXwXwXwXwXwXwXwXwXwXwXwXwXwXwXwXwXwXwXwXwXwXwXwXwXwXwXwXwXwXwXwXwXwXwXwXwXwXwXwXwX",
"wXwXwXwXwXwXwXwXwXwXwXwXwXwXwXwXwXwXwXwXwXwXwXwXwXwXwXwXwXwXwXwXwXwXwXwXwXwXwXwXwXwXwXwXwXwXwXwXwXwXwXwXwXwXwXwXwXwXwXwXwXwXwXwXwXwXwXwXwXwXwXwXwXwXwXwXwXwXwXwX",
"wXwXwXwXwXwXwXwXwXwXwXwXwXwXwXwXwXwXwXwXwXwXwXwXwXwXwXwXwXwXwXwXwXwXwXwXwXwXwXwXwXwXwXwXwXwXwXwXwXwXwXwXwXwXwXwXwXwXwXwXwXwXwXwXwXwXwXwXwXwXwXwXwXwXwXwXwXwXwXwX",
"wXwXwXwXwXwXwXwXwXwXwXwXwXwXwXwXwXwXwXwXwXwXwXwXwXwXwXwXwXwXwXwXwXwXwXwXwXwXwXwXwXwXwXwXwXwXwXwXwXwXwXwXwXwXwXwXwXwXwXwXwXwXwXwXwXwXwXwXwXwXwXwXwXwXwXwXwXwXwXwX",
"wXwXwXwXwXwXwXwXwXwXwXwXwXwXwXwXwXwXwXwXwXwXwXwXwXwXwXwXwXwXwXwXwXwXwXwXwXwXwXwXwXwXwXwXwXwXwXwXwXwXwXwXwXwXwXwXwXwXwXwXwXwXwXwXwXwXwXwXwXwXwXwXwXwXwXwXwXwXwXwX",
"wXwXwXwXwXwXwXwXwXwXwXwXwXwXwXwXwXwXwXwXwXwXwXwXwXwXwXwXwXwXwXwXwXwXwXwXwXwXwXwXwXwXwXwXwXwXwXwXwXwXwXwXwXwXwXwXwXwXwXwXwXwXwXwXwXwXwXwXwXwXwXwXwXwXwXwXwXwXwXwX",
"wXwXwXwXwXwXwXwXwXwXwXwXwXwXwXwXwXwXwXwXwXwXwXwXwXwXwXwXwXwXwXwXwXwXwXwXwXwXwXwXwXwXwXwXwXwXwXwXwXwXwXwXwXwXwXwXwXwXwXwXwXwXwXwXwXwXwXwXwXwXwXwXwXwXwXwXwXwXwXwX",
"wXwXwXwXwXwXwXwXwXwXwXwXwXwXwXwXwXwXwXwXwXwXwXwXwXwXwXwXwXwXwXwXwXwXwXwXwXwXwXwXwXwXwXwXwXwXwXwXwXwXwXwXwXwXwXwXwXwXwXwXwXwXwXwXwXwXwXwXwXwXwXwXwXwXwXwXwXwXwXwX",
"wXwXwXwXwXwXwXwXwXwXwXwXwXwXwXwXwXwXwXwXwXwXwXwXwXwXwXwXwXwXwXwXwXwXwXwXwXwXwXwXwXwXwXwXwXwXwXwXwXwXwXwXwXwXwXwXwXwXwXwXwXwXwXwXwXwXwXwXwXwXwXwXwXwXwXwXwXwXwXwX"
};
