/* XPM */
static char *_103_457131db02346fccd4957cdbd4aee7fcad04316a6db20d6f9843cec417e42fe6[] = {
/* columns rows colors chars-per-pixel */
"80 80 211 2 ",
"   c #000000",
".  c #0D0100",
"X  c #030C00",
"o  c #0E0D0D",
"O  c #070B0B",
"+  c #130000",
"@  c #1C0100",
"#  c #140B01",
"$  c #180C01",
"%  c #061503",
"&  c #061A00",
"*  c #061B06",
"=  c #001E10",
"-  c #161616",
";  c #240000",
":  c #2C0000",
">  c #340000",
",  c #3D0000",
"<  c #390A0C",
"1  c #3A1701",
"2  c #360F12",
"3  c #2F1D1D",
"4  c #391617",
"5  c #0D2000",
"6  c #142200",
"7  c #132A02",
"8  c #0F3E0B",
"9  c #173803",
"0  c #00361E",
"q  c #3D2002",
"w  c #342211",
"e  c #282929",
"r  c #332625",
"t  c #272D32",
"y  c #2E3131",
"u  c #2B3E3E",
"i  c #323333",
"p  c #323A3D",
"a  c #3C3B3B",
"s  c #420000",
"d  c #4A0000",
"f  c #430801",
"g  c #4B0B01",
"h  c #450D0D",
"j  c #540100",
"k  c #5C0000",
"l  c #5B0904",
"z  c #550907",
"x  c #4E1302",
"c  c #461904",
"v  c #541101",
"b  c #551B02",
"n  c #591C01",
"m  c #461818",
"M  c #5B1B1B",
"N  c #640000",
"B  c #690100",
"V  c #6B0C02",
"C  c #630C08",
"Z  c #730201",
"A  c #7C0301",
"S  c #700B02",
"D  c #651112",
"F  c #432305",
"G  c #4B2603",
"H  c #482A03",
"J  c #5B2504",
"K  c #5D2C03",
"L  c #542D0B",
"P  c #522903",
"I  c #5C320A",
"U  c #4D2311",
"Y  c #642002",
"T  c #632D03",
"R  c #6A2A04",
"E  c #752804",
"W  c #653203",
"Q  c #693504",
"!  c #6C3A04",
"~  c #623409",
"^  c #653B05",
"/  c #743B06",
"(  c #783302",
")  c #623A1A",
"_  c #4C393E",
"`  c #5C3334",
"'  c #4B292E",
"]  c #094D0D",
"[  c #1B4600",
"{  c #1F5805",
"}  c #1D5807",
"|  c #234D01",
" . c #2A4500",
".. c #215401",
"X. c #0F640A",
"o. c #16701B",
"O. c #166715",
"+. c #346301",
"@. c #296402",
"#. c #024D21",
"$. c #025D2D",
"%. c #0E7B2C",
"&. c #127222",
"*. c #006C3A",
"=. c #006135",
"-. c #087B32",
";. c #157B3D",
":. c #066D27",
">. c #266131",
",. c #207F3E",
"<. c #584312",
"1. c #7D4109",
"2. c #794507",
"3. c #75530A",
"4. c #684508",
"5. c #6D4F32",
"6. c #406632",
"7. c #373F42",
"8. c #157A40",
"9. c #444A4B",
"0. c #464747",
"q. c #554A4F",
"w. c #525757",
"e. c #666A6A",
"r. c #840402",
"t. c #8C0502",
"y. c #8D0903",
"u. c #840A03",
"i. c #930702",
"p. c #9C0602",
"a. c #950A02",
"s. c #9B0903",
"d. c #841A04",
"f. c #9B1305",
"g. c #961503",
"h. c #A30302",
"j. c #AC0503",
"k. c #A50A03",
"l. c #AC0B04",
"z. c #B40303",
"x. c #BB0503",
"c. c #B30C04",
"v. c #BC0D04",
"b. c #A01304",
"n. c #AD1105",
"m. c #AA1906",
"M. c #B31204",
"N. c #BB1304",
"B. c #B41A05",
"V. c #B81807",
"C. c #8D2908",
"Z. c #952B06",
"A. c #823306",
"S. c #9D340A",
"D. c #963707",
"F. c #BA2107",
"G. c #A03908",
"H. c #AB2E09",
"J. c #CB0D04",
"K. c #C40E04",
"L. c #C41304",
"P. c #CB1404",
"I. c #CC1B05",
"U. c #D31604",
"Y. c #DC1404",
"T. c #D51904",
"R. c #DB1A04",
"E. c #E00E01",
"W. c #E31A04",
"Q. c #E51804",
"!. c #F81C05",
"~. c #CA2405",
"^. c #D42C04",
"/. c #C13D06",
"(. c #D53B04",
"). c #824309",
"_. c #8C4A0C",
"`. c #834509",
"'. c #914C0C",
"]. c #88540C",
"[. c #AE4F03",
"{. c #B85805",
"}. c #85660A",
"|. c #8D620B",
" X c #986A09",
".X c #AE6C09",
"XX c #B46008",
"oX c #BD7606",
"OX c #C84903",
"+X c #C35705",
"@X c #CC7305",
"#X c #D77404",
"$X c #D67C04",
"%X c #CA6A04",
"&X c #09812C",
"*X c #088538",
"=X c #128E31",
"-X c #338D38",
";X c #3F903E",
":X c #158040",
">X c #02954A",
",X c #009848",
"<X c #019B52",
"1X c #009351",
"2X c #02A142",
"3X c #00A453",
"4X c #00AC5B",
"5X c #848484",
"6X c #898C8C",
"7X c #959593",
"8X c None",
/* pixels */
"8X8X8X8X8X8X8X8X8X8X8X8X8X8X8X8X8X8X8X8X8X8X8X8X8X8X8X8X8X8X8X8X8X8X8X8X8X8X8X8X8X8X8X8X8X8X8X8X8X8X8X8X8X8X8X8X8X8X8X8X8X8X8X8X8X8X8X8X8X8X8X8X8X8X8X8X8X8X8X8X",
"8X8X8X8X8X8X8X8X8X8X8X8X8X8X8X8X8X8X8X8X8X8X8X8X8X8X8X8X8X8X8X8X8X8X8X8X8X8X8X8X8X8X8X8X8X8X8X8X8X8X8X8X8X8X8X8X8X8X8X8X8X8X8X8X8X8X8X8X8X8X8X8X8X8X8X8X8X8X8X8X",
"8X8X8X8X8X8X8X8X8X8X8X8X8X8X8X8X8X8X8X8X8X8X8X8X8X8X8X8X8X8X8X8X8X8X8X8X8X8X8X8X8X8X8X8X8X8X8X8X8X8X8X8X8X8X8X8X8X8X8X8X8X8X8X8X8X8X8X8X8X8X8X8X8X8X8X8X8X8X8X8X",
"8X8X8X8X8X8X8X8X8X8X8X8X8X8X8X8X8X8X8X8X8X8X8X8X8X8X8X8X8X8X8X8X8X8X8X8X8X8X8X8X8X8X8X8X8X8X8X8X8X8X8X8X8X8X8X8X8X8X8X8X8X8X8X8X8X8X8X8X8X8X8X8X8X8X8X8X8X8X8X8X",
"8X8X8X8X8X8X8X8X8X8X8X8X8X8X8X8X8X8X8X8X8X8X8X8X8X8X8X8X8X8X8X8X8X8X8X8X8X8X8X8X8X8X8X8X8X8X8X8X8X8X8X8X8X8X8X8X8X8X8X8X8X8X8X8X8X8X8X8X8X8X8X8X8X8X8X8X8X8X8X8X",
"8X8X8X8X8X8X8X8X8X8X8X8X8X8X8X8X8X8X8X8X8X8X8X8X8X8X8X8X8X8X8X8X8X8X8X8X8X8X8X8X8X8X8X8X8X8X8X8X8X8X8X8X8X8X8X8X8X8X8X8X8X8X8X8X8X8X8X8X8X8X8X8X8X8X8X8X8X8X8X8X",
"8X8X8X8X8X8X8X8X8X8X8X8X8X8X8X8X8X8X8X8X8X8X8X8X8X8X8X8X8X8X8X8X8X8X8X8X8X8X8X8X8X8X8X8X8X8X8X8X8X8X8X8X8X8X8X8X8X8X8X8X8X8X8X8X8X8X8X8X8X8X8X8X8X8X8X8X8X8X8X8X",
"8X8X8X8X8X8X8X8X8X8X8X8X8X8X8X8X8X8X8X8X8X8X8X8X8X8X8X8X8X8X8X8X  8X8X8X8X8X8X8X8X8X8X8X8X8X8X8X8X8X8X8X8X8X8X8X8X8X8X8X8X8X8X8X8X8X8X8X8X8X8X8X8X8X8X8X8X8X8X8X",
"8X8X8X8X8X8X8X8X8X8X8X8X8X8X8X8X8X8X8X8X8X8X            8X8X8X8X8X  8X8X8X8X8X8X8X8X8X8X8X8X8X8X8X8X8X8X8X8X8X8X8X8X8X8X8X8X8X8X8X8X8X8X8X8X8X8X8X8X8X8X8X8X8X8X",
"8X8X8X8X8X8X8X8X8X8X8X8X8X8X8X8X8X8X8X8X8X8X8X8X8X            8X8X8X  8X8X    8X  8X8X8X8X8X8X8X8X8X8X8X8X8X8X8X8X8X8X8X8X8X8X8X8X8X8X8X8X8X8X8X8X8X8X8X8X8X8X8X",
"8X8X8X8X8X8X8X8X8X8X8X8X8X8X8X8X8X8X8X8X8X8X                      8X      8X8X  8X8X8X8X8X8X8X8X8X8X8X8X8X8X8X8X8X8X8X8X8X8X8X8X8X8X8X8X8X8X8X8X8X8X8X8X8X8X8X8X",
"8X8X8X8X8X8X8X8X8X8X8X8X8X8X8X8X8X8X8X8X8X8X8X8X8X                                8X8X8X8X8X8X8X8X8X8X8X8X8X8X8X8X8X8X8X8X8X8X8X8X8X8X8X8X8X8X8X8X8X8X8X8X8X8X8X",
"8X8X8X8X8X8X8X8X8X8X8X8X8X8X8X8X8X8X8X8X8X8X8X8X8X8X8X8X                            8X8X8X8X8X8X8X8X8X8X8X8X8X8X8X8X8X8X8X8X8X8X8X8X8X8X8X8X8X8X8X8X8X8X8X8X8X8X",
"8X8X8X8X8X8X8X8X8X8X8X8X8X8X8X8X8X8X8X8X8X8X8X                  ~ ~ ~ ~ ~ ~ ~ W ~ ~ _._._._._.8X8X8X8X8X8X8X8X8X8X8X8X8X8X8X8X8X8X8X8X8X8X8X8X8X8X8X8X8X8X8X8X8X",
"8X8X8X8X8X8X8X8X8X8X8X8X8X8X8X8X8X8X8X8X                  # I L ).).).).).).).).).)./ / / / / 1._.8X8X8X8X8X8X8X8X8X8X8X8X8X8X8X8X8X8X8X8X8X8X8X8X8X8X8X8X8X8X8X",
"8X8X8X8X8X8X8X8X8X8X8X8X8X8X8X8X8X8X8X          8X8X8XF F I _.).W W W W Q W W Q Q T Q ! Q W W ! 1.1.8X8X8X8X8X8X8X8X8X8X8X8X8X8X8X8X8X8X8X8X8X8X8X8X8X8X8X8X8X8X",
"8X8X8X8X8X8X8X8X8X8X8X8X8X8X8X8X8X8X8X      8X8X8X8X8X'._.).T Q Q Q Q T J ) ) J J 5.J J W Q Q Q W Q 1.1.8X8X8X8X8X8X8X8X8X8X8X8X8X8X8X8X8X8X8X8X8X8X8X8X8X8X8X8X",
"8X8X8X8X8X8X8X8X8X8X8X8X8X8X8X8X8X8X8X8X8X8X8X8X/ _.`./ W W Q Q Q T T f > ' _ < 2 q., , n T K T Q W W W 1.`.).8X8X8X8X8X8X8X8X8X8X8X8X8X8X8X8X8X8X8X8X8X8X8X8X8X",
"8X8X8X8X8X8X8X8X8X8X8X8X8X8X8X8X8X8X8X8X8X8X    P K T Q Q Q W W T s , , s s 2 i r , s s , , , x Q Q Q Q W W W 8X8X8X8X8X8X8X8X8X8X8X8X8X8X8X8X8X8X8X8X8X8X8X8X8X",
"8X8X8X8X8X8X8X8X8X8X8X8X8X8X8X8X8X8X8X8X8X8X8X8X    G / W Q J , s , s s s 3 r s < y , , , s s , g ! Q ~ Q 8X8X8X8X8X8X8X8X8X8X8X8X8X8X8X8X8X8X8X8X8X8X8X8X8X8X8X",
"8X8X8X8X8X8X8X8X8X8X8X8X8X8X8X8X8X8X8X8X8X8X8X8X8X8X  X : >   . s s .     7 @.9 . ..      > d , s f f 8X8X8X8X8X8X8X8X8X8X8X8X8X8X8X8X8X8X8X8X8X8X8X8X8X8X8X8X8X",
"8X8X8X8X8X8X8X8X8X8X8X8X8X8X8X8X8X8X8X8X8X8X8X8X8X8X8X8X8X8X:   . .   9 & X X     X   [ %   : d s s 8X8X8X8X8X8X8X8X8X8X8X8X8X8X8X8X8X8X8X8X8X8X8X8X8X8X8X8X8X8X",
"8X8X8X8X8X8X8X8X8X8X8X8X8X8X8X8X8X8X8X8X8X8X8X8X8X8X8X8X8X8X8X8X8X    ..& , K ] *.  E +.%   . 8X8X+ 8X8X8X8X8X8X8X8X8X8X8X8X8X8X8X8X8X8X8X8X8X8X8X8X8X8X8X8X8X8X",
"8X8X8X8X8X8X8X8X8X8X8X8X8X8X8X8X8X8X8X8X8X8X8X8X8X8X8X8X8X      8X    & #.,.-X:.0 *.;X9 X         8X8X8X8X8X8X8X8X8X8X8X8X8X8X8X8X8X8X8X8X8X8X8X8X8X8X8X8X8X8X8X",
"8X8X8X8X8X8X8X8X8X8X8X8X8X8X8X8X8X8X8X8X8X8X8X8X8X8X8X8X8X      8X      0 -.2X1X#.=X$.          8X8X  8X8X8X8X8X8X8X8X8X8X8X8X8X8X8X8X8X8X8X8X8X8X8X8X8X8X8X8X8X",
"8X8X8X8X8X8X8X8X8X8X8X8X8X8X8X8X8X8X8X8X8X8X8X8X8X8X8X8X8X8X8X8X          . 8 =.$.6             8X    8X8X8X8X8X8X8X8X8X8X8X8X8X8X8X8X8X8X8X8X8X8X8X8X8X8X8X8X8X",
"8X8X8X8X8X8X8X8X8X8X8X8X8X8X8X8X8X8X8X8X8X8X8X8X8X8X8X8X8X8X8X8X            % = = %             + , 8X8X8X8X8X8X8X8X8X8X8X8X8X8X8X8X8X8X8X8X8X8X8X8X8X8X8X8X8X8X",
"8X8X8X8X8X8X8X8X8X8X8X8X8X8X8X8X8X8X8X8X8X8X8X8X8X8X8XV @ g u.            6 o.<X*X[             f 8X8X8X8X8X8X8X8X8X8X8X8X8X8X8X8X8X8X8X8X8X8X8X8X8X8X8X8X8X8X8X",
"8X8X8X8X8X8X8X8X8X8X8X8X8X8X8X8X8X8X8X8X8X8X8X8X8X8XU.R.T.Z                                     < Q.L.N 8X8X8X8X8X8X8X8X8X8X8X8X8X8X8X8X8X8X8X8X8X8X8X8X8X8X8X8X",
"8X8X8X8X8X8X8X8X8X8X8X8X8X8X8X8X8X8X8X8X8X8X8X8XT.T.Y.L.r.r.y.                                  g I.  N P.T.8X8X8X8X8X8X8X8X8X8X8X8X8X8X8X8X8X8X8X8X8X8X8X8X8X8X",
"8X8X8X8X8X8X8X8X8X8X8X8X8X8X8X8X8X8X8X8X8X8XT.R.N.U.R.P.r.B N                                     : s.N l.U.R.T.8X8X8X8X8X8X8X8X8X8X8X8X8X8X8X8X8X8X8X8X8X8X8X8X",
"8X8X8X8X8X8X8X8X8X8X8X8X8X8X8X8X8X8X8X8X8XT.U.A Z c.P.L.k.s                                   g L.f.c.N k.c.T.R.T.8X8X8X8X8X8X8X8X8X8X8X8X8X8X8X8X8X8X8X8X8X8X8X",
"8X8X8X8X8X8X8X8X8X8X8X8X8X8X8X8X8X8X8X8XW.T.c.j k A A t.d + j a.f..                           + f.!.k.N n.v.i.c.W.R.8X8X8X8X8X8X8X8X8X8X8X8X8X8X8X8X8X8X8X8X8X8X",
"8X8X8X8X8X8X8X8X8X8X8X8X8X8X8X8X8X8X8XN.s.L.l.i.N k k N s > a.!.C                           : >   S c.N r.i.j y.P.P.P.8X8X8X8X8X8X8X8X8X8X8X8X8X8X8X8X8X8X8X8X8X",
"8X8X8X8X8X8X8X8X8X8X8X8X8X8X8X8X8X8X~.k.N v.c.s.B N N N B B V S f l       O o       -     : b.n.g z c.N k j Z k.l.r.s.P.8X8X8X8X8X8X8X8X8X8X8X8X8X8X8X8X8X8X8X8X",
"8X8X8X8X8X8X8X8X8X8X8X8X8X8X8X8X8X8X( x.A s.i.k N N N N N B d : Q.!.V   . 3 e o o o e   ; y.Y.W.Q.Y.k.N N k i.l.A d B c.R.8X8X8X8X8X8X8X8X8X8X8X8X8X8X8X8X8X8X8X",
"8X8X8X8X8X8X8X8X8X8X8X8X8X8X8X....X.<.V.l.N k N N N 8X8XN k A L.l.P.U.f d M p i i i o . s.v.v.U.P.l.l.N N N N j N Z A v.U.8X8X8X8X8X8X8X8X8X8X8X8X8X8X8X8X8X8X8X",
"8X8X8X8X8X8X8X8X8X8X8X8X8X8X8X8X8X-.4X6.v.f.l N 8X8X8X8X8X8XZ c.l.N.. u.t.` w.e i i e.C h.M.n.M.l.c.l.N 8XN N k r.v.c.l.l.P.8X8X8X8X8X8X8X8X8X8X8X8X8X8X8X8X8X8X",
"8X8X8X8X8X8X8X8X8X8X8X8X8X8X8X......%.<X<X*X .8X8X8X8X8X8X8XA n._.@XF.A 4 9.9.a w.i 6XD h.Z..XOXj.c.k.N 8X8XN k u.v.c.l.N B N 8X8X8X8X8X8X8X8X8X8X8X8X8X8X8X8X8X",
"8X8X8X8X8X8X8X8X8X8X8X8X8X8X8X8X8X..} } } O.>X8X8X8X8X8X8X8XZ n.^ ].V.r.2 e.e.0.5Xi 7Xa l Y 3.G.x.k.B N 8X8X8Xk y.l.B Z B B N 8X8X8X8X8X8X8X8X8X8X8X8X8X8X8X8X8X",
"8X8X8X8X8X8X8X8X8X8X8X8X8X8X8X8X..8X8X8X8X8X8X8X8X8X8X8X8XA l.l.b.m.r.m y 7.7.9.6Xt 9.7.z s.m.n.c.l.k N 8X8X8Xk Z B | ;.;.;.l 8X8X8X8X8X8X8X8X8X8X8X8X8X8X8X8X8X",
"8X8X8X8X8X8X8X8X8X8X8X8X8X8X8X8X8X8X8X8X8X8X8X8X8X8X8X8X8XA v.x.z.c.Z h 2 c I 5.7XL < 2 @ j k.v.h.N N N l.8X8XZ U ;.,X3X4X3X8.8X8X8X8X8X8X8X8X8X8X8X8X8X8X8X8X8X",
"8X8X8X8X8X8X8X8X8X8X8X8X8X8X8X8X8X8X8X8X8X8X8X8X8X8X8X8XA l.m.G.OXN.A : 1 x 1 w a Q ; ;   > h.V.S.D.N N k.8X8X>.;.8X%.>X&.>X&X8X8X8X8X8X8X8X8X8X8X8X8X8X8X8X8X8X",
"8X8X8X8X8X8X8X8X8X8X8X8X8X8X8X8X8X8X8X8X8X8X8X8X8X8X8Xy.N.Y.f.3..Xa.d   H q     1 Q       ; B d.|.XXk k k.E.8X8X8X8X} <X| <X..8X8X8X8X8X8X8X8X8X8X8X8X8X8X8X8X8X",
"8X8X8X8X8X8X8X8X8X8X8X8X8X8X8X8X8X8X8X8X8X8X8X8X8X8X8XW.Q.J.b.E D.B     P 1   # K W         : V R E N A c.I.8X8X8X8X8X*X8X*X8X8X8X8X8X8X8X8X8X8X8X8X8X8X8X8X8X8X",
"8X8X8X8X8X8X8X8X8X8X8X8X8X8X8X8X8X8X8X8X8X8X8X8X8X8X8XI.~.~.c.x.h.j .   H U # # $ K + . +   ; N N k B B.^.T.8X8X8X8X8X| 8X| 8X8X8X8X8X8X8X8X8X8X8X8X8X8X8X8X8X8X",
"8X8X8X8X8X8X8X8X8X8X8X8X8X8X8X8X8X8X8X8X8X8X8X8X8X8XQ.Z. X+Xz.s.j       c / Q Q T , s s d @   ; B B V `.oX^.Y.8X8X8X8X8X8X8X8X8X8X8X8X8X8X8X8X8X8X8X8X8X8X8X8X8X",
"8X8X8X8X8X8X8X8X8X8X8X8X8X8X8X8X8X8X8X8X8X8X8X8X8X8XY.Z.4.S.h.j       : s s , s , s s , , d @   + A l.Q 2.~.Y.8X8X8X8X8X8X8X8X8X8X8X8X8X8X8X8X8X8X8X8X8X8X8X8X8X",
"8X8X8X8X8X8X8X8X8X8X8X8X8X8X8X8X8X8X8X8X8X8X8X8X8X8XT.U.N.c.l.j     , s s s s s s s s s s s s ;   @ A l.l.I.R.8X8X8X8X8X8X8X8X8X8X8X8X8X8X8X8X8X8X8X8X8X8X8X8X8X",
"8X8X8X8X8X8X8X8X8X8X8X8X8X8X8X8X8X8X8X8X8X8X8X8X8X8XY.Y.J.p.j +     . . . .   + d s s s s d ;       @ Z l.v.J.8X8X8X8X8X8X8X8X8X8X8X8X8X8X8X8X8X8X8X8X8X8X8X8X8X",
"8X8X8X8X8X8X8X8X8X8X8X8X8X8X8X8X8X8X8X8X8X8X8X8X8XY.H.+XOXj.d             + , ; . . . . . + @ > : ;   B z.Z.%X8X8X8X8X8X8X8X8X8X8X8X8X8X8X8X8X8X8X8X8X8X8X8X8X8X",
"8X8X8X8X8X8X8X8X8X8X8X8X8X8X8X8X8X8X8X8X8X8X8X8X8XY.A.}.S.N @ . ; ; ; ; : @ : s ; : ; : ; @ > d d >   : A / }.H.8X8X8X8X8X8X8X8X8X8X8X8X8X8X8X8X8X8X8X8X8X8X8X8X",
"8X8X8X8X8X8X8X8X8X8X8X8X8X8X8X8X8X8X8X8X8X8X8X8X8XY.f.C.d.>     d d s d d : + ; : : ; ; , d s , s , @   d d.C.F.Y.8X8X8X8X8X8X8X8X8X8X8X8X8X8X8X8X8X8X8X8X8X8X8X",
"8X8X8X8X8X8X8X8X8X8X8X8X8X8X8X8X8X8X8X8X8X8X8X8X8XR.K.x.i.,   @ , , , , , d > .       . > s s s , s s   j j.x.K.P.8X8X8X8X8X8X8X8X8X8X8X8X8X8X8X8X8X8X8X8X8X8X8X",
"8X8X8X8X8X8X8X8X8X8X8X8X8X8X8X8X8X8X8X8X8X8X8X8X8XP.N.c.p.>   d g g g g f , s > .   + s s , s , s s , . j l.c.j.l.8X8X8X8X8X8X8X8X8X8X8X8X8X8X8X8X8X8X8X8X8X8X8X",
"8X8X8X8X8X8X8X8X8X8X8X8X8X8X8X8X8X8X8X8X8X8X8X8X8Xl.c.c.t.: . g ! ! ! ! b s s s ,   , s s s , s s , s s j i.M.B.B.8X8X8X8X8X8X8X8X8X8X8X8X8X8X8X8X8X8X8X8X8X8X8X",
"8X8X8X8X8X8X8X8X8X8X8X8X8X8X8X8X8X8X8X8X8X8X8X8X8XM.v.t.:   $ ! Q Q W Q ! b , s > 8X  , s , , s , s s , , j [.$X@X8X8X8X8X8X8X8X8X8X8X8X8X8X8X8X8X8X8X8X8X8X8X8X",
"8X8X8X8X8X8X8X8X8X8X8X8X8X8X8X8X8X8X8X8X8X8X8X8X8X%X#XZ.:   # / Q W Q Q ! b , s 8X8X8X  > s s , s , s s > {.8X8X8X8X8X8X8X8X8X8X8X8X8X8X8X8X8X8X8X8X8X8X8X8X8X8X",
"8X8X8X8X8X8X8X8X8X8X8X8X8X8X8X8X8X8X8X8X8X8X8X8X8X8X8X#XK . ^ Q Q Q Q Q ! b , s 8X8X8X  > d , s , s s , , v 8X8X8X8X8X8X8X8X8X8X8X8X8X8X8X8X8X8X8X8X8X8X8X8X8X8X",
"8X8X8X8X8X8X8X8X8X8X8X8X8X8X8X8X8X8X8X8X8X8X8X8X8X8X8X8X4.# A.W ! ^ ! ! ! b , 8X8X8X8X8X. > d , , s s , , , 8X8X8X8X8X8X8X8X8X8X8X8X8X8X8X8X8X8X8X8X8X8X8X8X8X8X",
"8X8X8X8X8X8X8X8X8X8X8X8X8X8X8X8X8X8X8X8X8X8X8X8X8X8X8X8X8X  F ! x x x x W T > 8X8X8X8X8X8X+ : d s d s d s d 8X8X8X8X8X8X8X8X8X8X8X8X8X8X8X8X8X8X8X8X8X8X8X8X8X8X",
"8X8X8X8X8X8X8X8X8X8X8X8X8X8X8X8X8X8X8X8X8X8X8X8X8X8X8X8X8X  . n , , , , v f . 8X8X8X8X8X8X8X; , @ ; ; @ ; ;   8X8X8X8X8X8X8X8X8X8X8X8X8X8X8X8X8X8X8X8X8X8X8X8X8X",
"8X8X8X8X8X8X8X8X8X8X8X8X8X8X8X8X8X8X8X8X8X8X8X8X8X8X8X8X    . s s s s d > .     8X8X8X8X8X8X8X; +           + 8X8X8X8X8X8X8X8X8X8X8X8X8X8X8X8X8X8X8X8X8X8X8X8X8X",
"8X8X8X8X8X8X8X8X8X8X8X8X8X8X8X8X8X8X8X8X8X8X8X8X8X8X8X8X8X+ + > : : : > + . .   8X8X8X8X8X8X  + > + + + + + : 8X8X8X8X8X8X8X8X8X8X8X8X8X8X8X8X8X8X8X8X8X8X8X8X8X",
"8X8X8X8X8X8X8X8X8X8X8X8X8X8X8X8X8X8X8X8X8X8X8X8X8X8X8X8X8Xd >       .   : j :   8X8X8X8X8X8X8X  . s , , , s . 8X8X8X8X8X8X8X8X8X8X8X8X8X8X8X8X8X8X8X8X8X8X8X8X8X",
"8X8X8X8X8X8X8X8X8X8X8X8X8X8X8X8X8X8X8X8X8X8X8X8X8X8X8X8X8Xs s s s s s s s d :   8X8X8X8X8X8X8X8X              8X8X8X8X8X8X8X8X8X8X8X8X8X8X8X8X8X8X8X8X8X8X8X8X8X",
"8X8X8X8X8X8X8X8X8X8X8X8X8X8X8X8X8X8X8X8X8X8X8X8X8X8X8X8X8Xs s s s , s s s d :   8X8X8X8X8X8X8X8X              8X8X8X8X8X8X8X8X8X8X8X8X8X8X8X8X8X8X8X8X8X8X8X8X8X",
"8X8X8X8X8X8X8X8X8X8X8X8X8X8X8X8X8X8X8X8X8X8X8X8X8X8X8X8X8X8X+ d d s s s s ;   8X8X8X8X8X8X8X8X8X8X          8X8X8X8X8X8X8X8X8X8X8X8X8X8X8X8X8X8X8X8X8X8X8X8X8X8X",
"8X8X8X8X8X8X8X8X8X8X8X8X8X8X8X8X8X8X8X8X8X8X8X8X8X8X8X8X8X8X8X+ . + . . : , 8X8X8X8X8X8X8X8X8X8X8X8X            8X8X8X8X8X8X8X8X8X8X8X8X8X8X8X8X8X8X8X8X8X8X8X8X",
"8X8X8X8X8X8X8X8X8X8X8X8X8X8X8X8X8X8X8X8X8X8X8X8X8X8X8X8X8X8X8X          ; d 8X8X8X8X8X8X8X8X8X8X8X8X                8X8X8X8X8X8X8X8X8X8X8X8X8X8X8X8X8X8X8X8X8X8X",
"8X8X8X8X8X8X8X8X8X8X8X8X8X8X8X8X8X8X8X8X8X8X8X8X8X8X8X8X8X8X. ; ; ; ; ; > s , 8X8X8X8X8X8X8X8X8X8X8X8X8X8X8X8X8X  8X8X8X8X8X8X8X8X8X8X8X8X8X8X8X8X8X8X8X8X8X8X8X",
"8X8X8X8X8X8X8X8X8X8X8X8X8X8X8X8X8X8X8X8X8X8X8X8X8X8X8X8X8X8X+ d s d s d s , s 8X8X8X8X8X8X8X8X8X8X8X8X8X8X8X8X8X8X8X8X8X8X8X8X8X8X8X8X8X8X8X8X8X8X8X8X8X8X8X8X8X",
"8X8X8X8X8X8X8X8X8X8X8X8X8X8X8X8X8X8X8X8X8X8X8X8X8X8X8X8X8X8X. s s s s s , s s 8X8X8X8X8X8X8X8X8X8X8X8X8X8X8X8X8X8X8X8X8X8X8X8X8X8X8X8X8X8X8X8X8X8X8X8X8X8X8X8X8X",
"8X8X8X8X8X8X8X8X8X8X8X8X8X8X8X8X8X8X8X8X8X8X8X8X8X8X8X8X8X8X8X8X8X8X8X8X8X8X8X8X8X8X8X8X8X8X8X8X8X8X8X8X8X8X8X8X8X8X8X8X8X8X8X8X8X8X8X8X8X8X8X8X8X8X8X8X8X8X8X8X",
"8X8X8X8X8X8X8X8X8X8X8X8X8X8X8X8X8X8X8X8X8X8X8X8X8X8X8X8X8X8X8X8X8X8X8X8X8X8X8X8X8X8X8X8X8X8X8X8X8X8X8X8X8X8X8X8X8X8X8X8X8X8X8X8X8X8X8X8X8X8X8X8X8X8X8X8X8X8X8X8X",
"8X8X8X8X8X8X8X8X8X8X8X8X8X8X8X8X8X8X8X8X8X8X8X8X8X8X8X8X8X8X8X8X8X8X8X8X8X8X8X8X8X8X8X8X8X8X8X8X8X8X8X8X8X8X8X8X8X8X8X8X8X8X8X8X8X8X8X8X8X8X8X8X8X8X8X8X8X8X8X8X",
"8X8X8X8X8X8X8X8X8X8X8X8X8X8X8X8X8X8X8X8X8X8X8X8X8X8X8X8X8X8X8X8X8X8X8X8X8X8X8X8X8X8X8X8X8X8X8X8X8X8X8X8X8X8X8X8X8X8X8X8X8X8X8X8X8X8X8X8X8X8X8X8X8X8X8X8X8X8X8X8X",
"8X8X8X8X8X8X8X8X8X8X8X8X8X8X8X8X8X8X8X8X8X8X8X8X8X8X8X8X8X8X8X8X8X8X8X8X8X8X8X8X8X8X8X8X8X8X8X8X8X8X8X8X8X8X8X8X8X8X8X8X8X8X8X8X8X8X8X8X8X8X8X8X8X8X8X8X8X8X8X8X",
"8X8X8X8X8X8X8X8X8X8X8X8X8X8X8X8X8X8X8X8X8X8X8X8X8X8X8X8X8X8X8X8X8X8X8X8X8X8X8X8X8X8X8X8X8X8X8X8X8X8X8X8X8X8X8X8X8X8X8X8X8X8X8X8X8X8X8X8X8X8X8X8X8X8X8X8X8X8X8X8X",
"8X8X8X8X8X8X8X8X8X8X8X8X8X8X8X8X8X8X8X8X8X8X8X8X8X8X8X8X8X8X8X8X8X8X8X8X8X8X8X8X8X8X8X8X8X8X8X8X8X8X8X8X8X8X8X8X8X8X8X8X8X8X8X8X8X8X8X8X8X8X8X8X8X8X8X8X8X8X8X8X"
};
