/* XPM */
static char *_5954_e3e76fb668bfa3a9317f57d0bc6ead094a09f302c3b754e12ac2175a92590e9b[] = {
/* columns rows colors chars-per-pixel */
"80 80 216 2 ",
"   c #000000",
".  c #0B0100",
"X  c #000B06",
"o  c #0C0B0C",
"O  c #07070A",
"+  c #140000",
"@  c #1B0000",
"#  c #150A01",
"$  c #1A0E07",
"%  c #0A1300",
"&  c #051900",
"*  c #1F1103",
"=  c #031512",
"-  c #151214",
";  c #16161B",
":  c #240100",
">  c #2B0000",
",  c #270907",
"<  c #340100",
"1  c #3C0101",
"2  c #3E0D0D",
"3  c #221101",
"4  c #2B1202",
"5  c #340E16",
"6  c #0E2E00",
"7  c #10280C",
"8  c #1A320E",
"9  c #003219",
"0  c #002717",
"q  c #3C2006",
"w  c #383400",
"e  c #3B3D1E",
"r  c #172222",
"t  c #2E2E2E",
"y  c #282626",
"u  c #322929",
"i  c #3A2425",
"p  c #2F3638",
"a  c #323232",
"s  c #3A3B3B",
"d  c #33393C",
"f  c #430100",
"g  c #4B0000",
"h  c #460A01",
"j  c #4A0C01",
"k  c #540000",
"l  c #5D0000",
"z  c #580A03",
"x  c #4D1302",
"c  c #4B1B0F",
"v  c #531201",
"b  c #5A1902",
"n  c #551C08",
"m  c #43191B",
"M  c #4A1314",
"N  c #541616",
"B  c #640000",
"V  c #6C0200",
"C  c #630C02",
"Z  c #6A0B02",
"A  c #750101",
"S  c #7B0301",
"D  c #750C03",
"F  c #6B1B00",
"G  c #432304",
"H  c #43210B",
"J  c #5D2601",
"K  c #522A03",
"L  c #5E2903",
"P  c #512B08",
"I  c #5F3004",
"U  c #472A15",
"Y  c #413C1E",
"T  c #632B03",
"R  c #612B05",
"E  c #782705",
"W  c #653303",
"Q  c #693504",
"!  c #6C3A04",
"~  c #633409",
"^  c #723C04",
"/  c #773D09",
"(  c #793F08",
")  c #7C3708",
"_  c #663F19",
"`  c #04410E",
"'  c #194301",
"]  c #195D00",
"[  c #1B541A",
"{  c #244C00",
"}  c #205300",
"|  c #2C530E",
" . c #1F640B",
".. c #166100",
"X. c #186615",
"o. c #004B2B",
"O. c #005028",
"+. c #384825",
"@. c #2C552A",
"#. c #26592A",
"$. c #305028",
"%. c #0E7B27",
"&. c #177629",
"*. c #086D38",
"=. c #1F6935",
"-. c #186633",
";. c #00773D",
":. c #18753D",
">. c #2D632E",
",. c #3E732E",
"<. c #246432",
"1. c #494F13",
"2. c #7E410A",
"3. c #794E09",
"4. c #604907",
"5. c #756009",
"6. c #434422",
"7. c #614325",
"8. c #62523F",
"9. c #436435",
"0. c #384343",
"q. c #4E4E4E",
"w. c #564E52",
"e. c #475959",
"r. c #545254",
"t. c #5F5F5F",
"y. c #564742",
"u. c #6A5B5B",
"i. c #676768",
"p. c #706063",
"a. c gray50",
"s. c #840402",
"d. c #8C0302",
"f. c #8C0902",
"g. c #820E03",
"h. c #930402",
"j. c #980A04",
"k. c #851301",
"l. c #8E1A02",
"z. c #881603",
"x. c #951404",
"c. c #AD0303",
"v. c #A60C03",
"b. c #AE0B04",
"n. c #B30404",
"m. c #B30D04",
"M. c #BB0E04",
"N. c #BA0704",
"B. c #A51C06",
"V. c #A81506",
"C. c #B31203",
"Z. c #BC1204",
"A. c #BB1C05",
"S. c #892A07",
"D. c #9B2A08",
"F. c #9F3E0A",
"G. c #A82505",
"H. c #B82408",
"J. c #C10F04",
"K. c #C80A02",
"L. c #C41104",
"P. c #CD1504",
"I. c #C81B04",
"U. c #D31504",
"Y. c #DC1504",
"T. c #D51904",
"R. c #DB1904",
"E. c #D80F04",
"W. c #E21A04",
"Q. c #EA1A04",
"!. c #E51404",
"~. c #FD1D05",
"^. c #F01B05",
"/. c #CA2005",
"(. c #D62A04",
"). c #C73805",
"_. c #D63B03",
"`. c #86450A",
"'. c #87490C",
"]. c #8B4B0D",
"[. c #864408",
"{. c #924D0C",
"}. c #9A4F0B",
"|. c #9A570B",
" X c #A94F03",
".X c #B95B05",
"XX c #BC4708",
"oX c #966B0A",
"OX c #A56F0B",
"+X c #BD7606",
"@X c #C64205",
"#X c #CC5806",
"$X c #C66904",
"%X c #D26103",
"&X c #CC7304",
"*X c #CD7E04",
"=X c #D27403",
"-X c #00833F",
";X c #098935",
":X c #00983E",
">X c #26943F",
",X c #4B8034",
"<X c #0E8442",
"1X c #0A8F48",
"2X c #02944B",
"3X c #019A4D",
"4X c #039543",
"5X c #069951",
"6X c #00A24F",
"7X c #00A456",
"8X c #00AF5C",
"9X c #00AD56",
"0X c #908B83",
"qX c gray62",
"wX c #8B8588",
"eX c None",
/* pixels */
"eXeXeXeXeXeXeXeXeXeXeXeXeXeXeXeXeXeXeXeXeXeXeXeXeXeXeXeXeXeXeXeXeXeXeXeXeXeXeXeXeXeXeXeXeXeXeXeXeXeXeXeXeXeXeXeXeXeXeXeXeXeXeXeXeXeXeXeXeXeXeXeXeXeXeXeXeXeXeXeX",
"eXeXeXeXeXeXeXeXeXeXeXeXeXeXeXeXeXeXeXeXeXeXeXeXeXeXeXeXeXeXeXeXeXeXeXeXeXeXeXeXeXeXeXeXeXeXeXeXeXeXeXeXeXeXeXeXeXeXeXeXeXeXeXeXeXeXeXeXeXeXeXeXeXeXeXeXeXeXeXeX",
"eXeXeXeXeXeXeXeXeXeXeXeXeXeXeXeXeXeXeXeXeXeXeXeXeXeXeXeXeXeXeXeXeXeXeXeXeXeXeXeXeXeXeXeXeXeXeXeXeXeXeXeXeXeXeXeXeXeXeXeXeXeXeXeXeXeXeXeXeXeXeXeXeXeXeXeXeXeXeXeX",
"eXeXeXeXeXeXeXeXeXeXeXeXeXeXeXeXeXeXeXeXeXeXeXeXeXeXeXeXeXeXeXeXeXeXeXeXeXeXeXeXeXeXeXeXeXeXeXeXeXeXeXeXeXeXeXeXeXeXeXeXeXeXeXeXeXeXeXeXeXeXeXeXeXeXeXeXeXeXeXeX",
"eXeXeXeXeXeXeXeXeXeXeXeXeXeXeXeXeXeXeXeXeXeXeXeXeXeXeXeXeXeXeXeXeXeXeXeXeXeXeXeXeXeXeXeXeXeXeXeXeXeXeXeXeXeXeXeXeXeXeXeXeXeXeXeXeXeXeXeXeXeXeXeXeXeXeXeXeXeXeXeX",
"eXeXeXeXeXeXeXeXeXeXeXeXeXeXeXeXeXeXeXeXeXeXeXeXeXeXeXeXeXeXeXeXeXeXeXeXeXeXeXeXeXeXeXeXeXeXeXeXeXeXeXeXeXeXeXeXeXeXeXeXeXeXeXeXeXeXeXeXeXeXeXeXeXeXeXeXeXeXeXeX",
"eXeXeXeXeXeXeXeXeXeXeXeXeXeXeXeXeXeXeXeXeXeXeXeXeXeXeXeXeXeXeXeXeXeXeXeXeXeXeXeXeXeXeXeXeXeXeXeXeXeXeXeXeXeXeXeXeXeXeXeXeXeXeXeXeXeXeXeXeXeXeXeXeXeXeXeXeXeXeXeX",
"eXeXeXeXeXeXeXeXeXeXeXeXeXeXeXeXeXeXeXeXeXeXeXeXeXeXeXeXeXeXeXeXeXeXeXeXeXeXeXeXeXeXeXeXeXeXeXeXeXeXeXeXeXeXeXeXeXeXeXeXeXeXeXeXeXeXeXeXeXeXeXeXeXeXeXeXeXeXeXeX",
"eXeXeXeXeXeXeXeXeXeXeXeXeXeXeXeXeXeXeXeXeXeX          eXeXeXeXeX    eXeXeXeXeXeXeXeXeXeXeXeXeXeXeXeXeXeXeXeXeXeXeXeXeXeXeXeXeXeXeXeXeXeXeXeXeXeXeXeXeXeXeXeXeXeX",
"eXeXeXeXeXeXeXeXeXeXeXeXeXeXeXeXeXeXeXeXeXeXeXeX            eXeXeX    eXeXeXeXeXeXeXeXeXeXeXeXeXeXeXeXeXeXeXeXeXeXeXeXeXeXeXeXeXeXeXeXeXeXeXeXeXeXeXeXeXeXeXeXeX",
"eXeXeXeXeXeXeXeXeXeXeXeXeXeXeXeXeXeXeXeXeX      eXeX          eXeXeX    eX  eX  eXeXeXeXeXeXeXeXeXeXeXeXeXeXeXeXeXeXeXeXeXeXeXeXeXeXeXeXeXeXeXeXeXeXeXeXeXeXeXeX",
"eXeXeXeXeXeXeXeXeXeXeXeXeXeXeXeXeXeXeXeXeXeXeXeX                          eX  eXeXeXeXeXeXeXeXeXeXeXeXeXeXeXeXeXeXeXeXeXeXeXeXeXeXeXeXeXeXeXeXeXeXeXeXeXeXeXeXeX",
"eXeXeXeXeXeXeXeXeXeXeXeXeXeXeXeXeXeXeXeXeXeXeXeXeXeX                            eXeXeXeXeXeXeXeXeXeXeXeXeXeXeXeXeXeXeXeXeXeXeXeXeXeXeXeXeXeXeXeXeXeXeXeXeXeXeXeX",
"eXeXeXeXeXeXeXeXeXeXeXeXeXeXeXeXeXeXeXeXeXeXeXeXeXeXeXeX                          eXeXeXeXeXeXeXeXeXeXeXeXeXeXeXeXeXeXeXeXeXeXeXeXeXeXeXeXeXeXeXeXeXeXeXeXeXeXeX",
"eXeXeXeXeXeXeXeXeXeXeXeXeXeXeXeXeXeXeXeXeX                    G P P P P P P P P P 2.{.'.].].eXeXeXeXeXeXeXeXeXeXeXeXeXeXeXeXeXeXeXeXeXeXeXeXeXeXeXeXeXeXeXeXeXeX",
"eXeXeXeXeXeXeXeXeXeXeXeXeXeXeXeXeXeX                      G G 2.].[.[.`.[.'.[.'.[.2.( 2.( ( 2.eXeXeXeXeXeXeXeXeXeXeXeXeXeXeXeXeXeXeXeXeXeXeXeXeXeXeXeXeXeXeXeXeX",
"eXeXeXeXeXeXeXeXeXeXeXeXeXeXeXeXeXeX                  . q {.].Q W Q W Q W T Q ~ W W W W Q W Q 2.2.eXeXeXeXeXeXeXeXeXeXeXeXeXeXeXeXeXeXeXeXeXeXeXeXeXeXeXeXeXeXeX",
"eXeXeXeXeXeXeXeXeXeXeXeXeXeXeXeXeXeXeXeXeXeXeX# 3 * * q {.W W Q Q R L L ~ _ R L _ ~ L L R Q Q Q W 2.eXeXeXeXeXeXeXeXeXeXeXeXeXeXeXeXeXeXeXeXeXeXeXeXeXeXeXeXeXeX",
"eXeXeXeXeXeXeXeXeXeXeXeXeXeXeXeXeXeXeXeXeXeXeXeXeXeX].[.W Q Q Q Q j 1 1 m w.1 1 r.M 1 1 x Q Q Q Q W 2.'.eXeXeXeXeXeXeXeXeXeXeXeXeXeXeXeXeXeXeXeXeXeXeXeXeXeXeXeX",
"eXeXeXeXeXeXeXeXeXeXeXeXeXeXeXeXeXeXeXeX      ~ {.( W Q W W Q Q h 1 f f f 1 p a 1 1 f 1 1 x Q Q W Q W W 2.].].eXeXeXeXeXeXeXeXeXeXeXeXeXeXeXeXeXeXeXeXeXeXeXeXeX",
"eXeXeXeXeXeXeXeXeXeXeXeXeXeXeXeXeXeXeXeXeXeX  K / Q W Q ! W h 1 f f f f 2 t f f u 2 g f g f j ! Q Q Q Q Q Q Q eXeXeXeXeXeXeXeXeXeXeXeXeXeXeXeXeXeXeXeXeXeXeXeXeX",
"eXeXeXeXeXeXeXeXeXeXeXeXeXeXeXeXeXeXeXeXeXeXeX. # G [.K . j g g @ .   . - d u . a - .   . @ g h j Q Q Q Q eXeXeXeXeXeXeXeXeXeXeXeXeXeXeXeXeXeXeXeXeXeXeXeXeXeXeX",
"eXeXeXeXeXeXeXeXeXeXeXeXeXeXeXeXeXeXeXeXeXeXeXeXeX. 3 3 > + + +     ; ;   O O   o   ; -     @ f + h eXeXeXeXeXeXeXeXeXeXeXeXeXeXeXeXeXeXeXeXeXeXeXeXeXeXeXeXeXeX",
"eXeXeXeXeXeXeXeXeXeXeXeXeXeXeXeXeXeXeXeXeXeXeXeXeXeXeXeXeXeXeX      8 8 @ J 6 *.  v 1.7       @ eXeXeXeXeXeXeXeXeXeXeXeXeXeXeXeXeXeXeXeXeXeXeXeXeXeXeXeXeXeXeXeX",
"eXeXeXeXeXeXeXeXeXeXeXeXeXeXeXeXeXeXeXeXeXeXeXeXeXeXeXeXeXeXeX      & ` -.,X%.O.O.,X| &       eXeXeXeXeXeXeXeXeXeXeXeXeXeXeXeXeXeXeXeXeXeXeXeXeXeXeXeXeXeXeXeXeX",
"eXeXeXeXeXeXeXeXeXeXeXeXeXeXeXeXeXeXeXeXeXeXeXeXeXeXeXeXeXeX          0 -X:X7X9 ;X-X=         eXeXeXeXeXeXeXeXeXeXeXeXeXeXeXeXeXeXeXeXeXeXeXeXeXeXeXeXeXeXeXeXeX",
"eXeXeXeXeXeXeXeXeXeXeXeXeXeXeXeXeXeXeXeXeXeXeXeXeXeXeXeX                . ' *.-X' .                 eXeXeXeXeXeXeXeXeXeXeXeXeXeXeXeXeXeXeXeXeXeXeXeXeXeXeXeXeXeX",
"eXeXeXeXeXeXeXeXeXeXeXeXeXeXeXeXeXeXeXeXeXeXeXeXeXeXeX+ eXeX              X X X                 eXeXeXeXeXeXeXeXeXeXeXeXeXeXeXeXeXeXeXeXeXeXeXeXeXeXeXeXeXeXeXeX",
"eXeXeXeXeXeXeXeXeXeXeXeXeXeXeXeXeXeXeXeXeXeXeXeXeXeXeXeXeXeX            %  .7X3X .%           + eXeXeXeXeXeXeXeXeXeXeXeXeXeXeXeXeXeXeXeXeXeXeXeXeXeXeXeXeXeXeXeX",
"eXeXeXeXeXeXeXeXeXeXeXeXeXeXeXeXeXeXeXeXeXeXeXeXeXeXeXf.                      X               + R.R.J.eXeXeXeXeXeXeXeXeXeXeXeXeXeXeXeXeXeXeXeXeXeXeXeXeXeXeXeXeX",
"eXeXeXeXeXeXeXeXeXeXeXeXeXeXeXeXeXeXeXeXeXeXeXeXeXeXZ . B j.                                    . R.f.k s.eXeXeXeXeXeXeXeXeXeXeXeXeXeXeXeXeXeXeXeXeXeXeXeXeXeXeX",
"eXeXeXeXeXeXeXeXeXeXeXeXeXeXeXeXeXeXeXeXeXeXeXT.R.P.S g m.Q.Z.                              : C.x., g s.M.T.eXeXeXeXeXeXeXeXeXeXeXeXeXeXeXeXeXeXeXeXeXeXeXeXeXeX",
"eXeXeXeXeXeXeXeXeXeXeXeXeXeXeXeXeXeXeXeXeXeXP.T.R.L.s.A M.< h z.+                           < ~.W.k.l b.R.T.T.eXeXeXeXeXeXeXeXeXeXeXeXeXeXeXeXeXeXeXeXeXeXeXeXeX",
"eXeXeXeXeXeXeXeXeXeXeXeXeXeXeXeXeXeXeXeXeXeXP.R.T.U.m.f.S C z ^.C.:                           C Q.R.V Z.W.T.T.T.eXeXeXeXeXeXeXeXeXeXeXeXeXeXeXeXeXeXeXeXeXeXeXeX",
"eXeXeXeXeXeXeXeXeXeXeXeXeXeXeXeXeXeXeXeXeXZ.R.R.R.T.J.s.V W.~.k.l.C >                     . z h D b.V f.P.W.R.T.L.eXeXeXeXeXeXeXeXeXeXeXeXeXeXeXeXeXeXeXeXeXeXeX",
"eXeXeXeXeXeXeXeXeXeXeXeXeXeXeXeXeXeXeXeXm.R.Z.V.P.M.S k V b.x.< : v.Z     o     o       + D ~.R.3 j.A g f.Z.C.C.b.eXeXeXeXeXeXeXeXeXeXeXeXeXeXeXeXeXeXeXeXeXeXeX",
"eXeXeXeXeXeXeXeXeXeXeXeXeXeXeXeXeXeXeXeXm.R.V g f.s.k B A b.. L.^.Z.g + ; a   O a -   . l Y.T.R.!.B B B k B B A m.b.eXeXeXeXeXeXeXeXeXeXeXeXeXeXeXeXeXeXeXeXeXeX",
"eXeXeXeXeXeXeXeXeXeXeXeXeXeXeXeXeXeXeXB m.U.S B l B B B V b.M.P.Q.h : N d y X a a a = < d.Z.R.P.b.V B B B f.L.m.m.m.eXeXeXeXeXeXeXeXeXeXeXeXeXeXeXeXeXeXeXeXeXeX",
"eXeXeXeXeXeXeXeXeXeXeXeXeXeXeXeXeXeXj.V T.M.M.S l B B B B V b.b.U.U.g = d t u a a O r N B f.T.b.b.V B k v.R.T.T.P.b.m.eXeXeXeXeXeXeXeXeXeXeXeXeXeXeXeXeXeXeXeXeX",
"eXeXeXeXeXeXeXeXeXeXeXeXeXeXeXeXeXeXc.V R.T.M.S l B eXeXB B m.m.m.J.d.2 0.r.t t t q.0.M B S L.m.m.V k h.M.M.L.R.T.T.m.eXeXeXeXeXeXeXeXeXeXeXeXeXeXeXeXeXeXeXeXeX",
"eXeXeXeXeXeXeXeXeXeXeXeXeXeXeXeXeXw d.v.S J.s.B B eXeXeXl B D c.n.d.N y s t.a q.t t.s y M V s.n.V B j.d.S A h.K.L.R.M.eXeXeXeXeXeXeXeXeXeXeXeXeXeXeXeXeXeXeXeXeX",
"eXeXeXeXeXeXeXeXeXeXeXeXeXeXeXeXeX#.S S l S B B eXeXeXeXf.l l S.#Xl.5 e.i.s p a.d p i.e.i V V F. XV K.F [ :.Y d.s.Z.s.eXeXeXeXeXeXeXeXeXeXeXeXeXeXeXeXeXeXeXeXeX",
"eXeXeXeXeXeXeXeXeXeXeXeXeXeXeXeX%.5Xe V V B B eXeXeXeXU.b.d.l ~ OXS.f u.wX, 7.qX7.H 0Xp.1 B C 3..X>.9.&.4X9X1Xe A m.B eXeXeXeXeXeXeXeXeXeXeXeXeXeXeXeXeXeXeXeXeX",
"eXeXeXeXeXeXeXeXeXeXeXeXeXeXeX{ &.8X2X6.G G B eXeXeXeXP.b.N.s.z.E C < i y.j G r.H Q y.i @ < D S.9.<.<.2X7X3X9X2X6.f.V eXeXeXeXeXeXeXeXeXeXeXeXeXeXeXeXeXeXeXeXeX",
"eXeXeXeXeXeXeXeXeXeXeXeXeXeXeX{ X.1X3X;X] ..eXeXeXeXT.P.M.B.).J.S g @   @ W     # Q @     . B j.*.B n $.1X<X:.3X<.l eXeXeXeXeXeXeXeXeXeXeXeXeXeXeXeXeXeXeXeXeXeX",
"eXeXeXeXeXeXeXeXeXeXeXeXeXeXeXeX{ X.;X{ } } eXeXeX!.T.Y./.3.+XH.S g +   3 I     K ^ 3       . V D z.7Xn @.$.U <XA B eXeXeXeXeXeXeXeXeXeXeXeXeXeXeXeXeXeXeXeXeXeX",
"eXeXeXeXeXeXeXeXeXeXeXeXeXeXeXeXeX} } eXeXeX} eXeXeXT.Y.I.Q S.B.S @     3 W . X   L 4   .   + Z ].=X>Xc <.@.U <XV eXeXeXeXeXeXeXeXeXeXeXeXeXeXeXeXeXeXeXeXeXeXeX",
"eXeXeXeXeXeXeXeXeXeXeXeXeXeXeXeX} } eXeXeXeXeXeXeXeXT.T.P.b.m.A +       * ^ Q Q ! j 1 f g : . V W ].Z V =.@.U <XeXeXeXeXeXeXeXeXeXeXeXeXeXeXeXeXeXeXeXeXeXeXeXeX",
"eXeXeXeXeXeXeXeXeXeXeXeXeXeXeXeXeXeXeXeXeXeXeXeXeXeXH.|.%Xm.m.S +   @ f 1 h f f h f 1 1 g : . A B V l B z D b.x.eXeXeXeXeXeXeXeXeXeXeXeXeXeXeXeXeXeXeXeXeXeXeXeX",
"eXeXeXeXeXeXeXeXeXeXeXeXeXeXeXeXeXeXeXeXeXeXeXeXeX!.G.4.}.c.S @ > 1 f g g h 1 1 1 f 1 g g <   @ B ) $XF h.U.U.U.eXeXeXeXeXeXeXeXeXeXeXeXeXeXeXeXeXeXeXeXeXeXeXeX",
"eXeXeXeXeXeXeXeXeXeXeXeXeXeXeXeXeXeXeXeXeXeXeXeXT.R.P.V.B.m.A   . + . . . + g g g g g > .       B ! oXG.L.R.T.T.R.eXeXeXeXeXeXeXeXeXeXeXeXeXeXeXeXeXeXeXeXeXeXeX",
"eXeXeXeXeXeXeXeXeXeXeXeXeXeXeXeXeXeXeXeXeXeXeXeXT./.@X@Xc.S : : @ @ @ @ : @ @ + + + + @ : > @ . B l.x.K.Y.T.T.T.T.eXeXeXeXeXeXeXeXeXeXeXeXeXeXeXeXeXeXeXeXeXeXeX",
"eXeXeXeXeXeXeXeXeXeXeXeXeXeXeXeXeXeXeXeXeXeXeXeXY.D.5..Xc.l + 1 v b b b v 1   @ + + @ 1 k k <   V M.B.@X(.Y.T.T.T.eXeXeXeXeXeXeXeXeXeXeXeXeXeXeXeXeXeXeXeXeXeXeX",
"eXeXeXeXeXeXeXeXeXeXeXeXeXeXeXeXeXeXeXeXeXeXeXeXW.B.E D.d.1 g j T ^ ! ^ J < + < g g 1 : : : : + 1 h.( oX).E.P.T.E.eXeXeXeXeXeXeXeXeXeXeXeXeXeXeXeXeXeXeXeXeXeXeX",
"eXeXeXeXeXeXeXeXeXeXeXeXeXeXeXeXeXeXeXeXeXeXeXeXT.K.n.h.g   1 W Q Q Q Q T j f   > 1 + .   . + f   k E ) H.Y.E.T.(.eXeXeXeXeXeXeXeXeXeXeXeXeXeXeXeXeXeXeXeXeXeXeX",
"eXeXeXeXeXeXeXeXeXeXeXeXeXeXeXeXeXeXeXeXeXeXeXeX(.P.d.k k g h R Q Q Q Q ! T < .     > g g f g f f l j.N./.(.T._.*XeXeXeXeXeXeXeXeXeXeXeXeXeXeXeXeXeXeXeXeXeXeXeX",
"eXeXeXeXeXeXeXeXeXeXeXeXeXeXeXeXeXeXeXeXeXeXeXeX*X@Xf.k 1 f Q Q Q Q Q Q Q L 1 f eX< f f f 1 1 f f 1 z  X=X&X&X&XeXeXeXeXeXeXeXeXeXeXeXeXeXeXeXeXeXeXeXeXeXeXeXeX",
"eXeXeXeXeXeXeXeXeXeXeXeXeXeXeXeXeXeXeXeXeXeXeXeXeX&X=X X< f W Q Q Q W W ! W 1 f eX    : g f f 1 f 1 1 < eXeXeXeXeXeXeXeXeXeXeXeXeXeXeXeXeXeXeXeXeXeXeXeXeXeXeXeX",
"eXeXeXeXeXeXeXeXeXeXeXeXeXeXeXeXeXeXeXeXeXeXeXeXeXeXeXeX< f Q Q Q Q Q W L f 1 eXeXeX  > g 1 1 f 1 f f 1 eXeXeXeXeXeXeXeXeXeXeXeXeXeXeXeXeXeXeXeXeXeXeXeXeXeXeXeX",
"eXeXeXeXeXeXeXeXeXeXeXeXeXeXeXeXeXeXeXeXeXeXeXeXeXeXeXeX1 1 ! Q Q Q Q 2.L 1 f eXeXeXeX. : g 1 f 1 f f f eXeXeXeXeXeXeXeXeXeXeXeXeXeXeXeXeXeXeXeXeXeXeXeXeXeXeXeX",
"eXeXeXeXeXeXeXeXeXeXeXeXeXeXeXeXeXeXeXeXeXeXeXeXeXeXeXeXeXg x Q ^ 4.J x x 1 1 eXeXeXeX  @ g 1 1 f 1 1 g @ eXeXeXeXeXeXeXeXeXeXeXeXeXeXeXeXeXeXeXeXeXeXeXeXeXeXeX",
"eXeXeXeXeXeXeXeXeXeXeXeXeXeXeXeXeXeXeXeXeXeXeXeXeXeXeXeXeX@ 1 v b n h 1 f g eXeXeXeXeXeX+ > g g g f g < .   eXeXeXeXeXeXeXeXeXeXeXeXeXeXeXeXeXeXeXeXeXeXeXeXeXeX",
"eXeXeXeXeXeXeXeXeXeXeXeXeXeXeXeXeXeXeXeXeXeXeXeXeXeXeXeXeX+ > 1 f f f 1 : > eXeXeXeXeXeXeX  > > > > >       eXeXeXeXeXeXeXeXeXeXeXeXeXeXeXeXeXeXeXeXeXeXeXeXeXeX",
"eXeXeXeXeXeXeXeXeXeXeXeXeXeXeXeXeXeXeXeXeXeXeXeXeXeXeXeXeXf   : > > < @   + f eXeXeXeXeXeX                X eXeXeXeXeXeXeXeXeXeXeXeXeXeXeXeXeXeXeXeXeXeXeXeXeXeX",
"eXeXeXeXeXeXeXeXeXeXeXeXeXeXeXeXeXeXeXeXeXeXeXeXeXeXeXeXeX1 . .         @ g g eXeXeXeXeXeX                    eXeXeXeXeXeXeXeXeXeXeXeXeXeXeXeXeXeXeXeXeXeXeXeXeX",
"eXeXeXeXeXeXeXeXeXeXeXeXeXeXeXeXeXeXeXeXeXeXeXeXeXeXeXeXeX1 1 f f f g f f 1 1 eXeXeXeXeXeXeX                  eXeXeXeXeXeXeXeXeXeXeXeXeXeXeXeXeXeXeXeXeXeXeXeXeX",
"eXeXeXeXeXeXeXeXeXeXeXeXeXeXeXeXeXeXeXeXeXeXeXeXeXeXeXeXeX    1 g f g >       eXeXeXeXeXeXeXeX                eXeXeXeXeXeXeXeXeXeXeXeXeXeXeXeXeXeXeXeXeXeXeXeXeX",
"eXeXeXeXeXeXeXeXeXeXeXeXeXeXeXeXeXeXeXeXeXeXeXeXeXeXeXeXeXeX  . .   .       eXeXeXeXeXeXeXeXeX              eXeXeXeXeXeXeXeXeXeXeXeXeXeXeXeXeXeXeXeXeXeXeXeXeXeX",
"eXeXeXeXeXeXeXeXeXeXeXeXeXeXeXeXeXeXeXeXeXeXeXeXeXeXeXeXeXeXeXeX              eXeXeXeXeXeXeXeXeX                eXeXeXeXeXeXeXeXeXeXeXeXeXeXeXeXeXeXeXeXeXeXeXeX",
"eXeXeXeXeXeXeXeXeXeXeXeXeXeXeXeXeXeXeXeXeXeXeXeXeXeXeXeXeXeX        + > > > > eXeXeXeXeXeXeXeXeX                  eXeXeXeXeXeXeXeXeXeXeXeXeXeXeXeXeXeXeXeXeXeXeX",
"eXeXeXeXeXeXeXeXeXeXeXeXeXeXeXeXeXeXeXeXeXeXeXeXeXeXeXeXeX  : : @ : < g g f g eXeXeXeXeXeXeXeXeXeXeXeXeXeXeXeXeXeXeXeXeXeXeXeXeXeXeXeXeXeXeXeXeXeXeXeXeXeXeXeXeX",
"eXeXeXeXeXeXeXeXeXeXeXeXeXeXeXeXeXeXeXeXeXeXeXeXeXeXeXeXeX  f g g g f 1 f 1 f eXeXeXeXeXeXeXeXeXeXeXeXeXeXeXeXeXeXeXeXeXeXeXeXeXeXeXeXeXeXeXeXeXeXeXeXeXeXeXeXeX",
"eXeXeXeXeXeXeXeXeXeXeXeXeXeXeXeXeXeXeXeXeXeXeXeXeXeXeXeXeXeXeXeXeXeXeXeXeXeXeXeXeXeXeXeXeXeXeXeXeXeXeXeXeXeXeXeXeXeXeXeXeXeXeXeXeXeXeXeXeXeXeXeXeXeXeXeXeXeXeXeX",
"eXeXeXeXeXeXeXeXeXeXeXeXeXeXeXeXeXeXeXeXeXeXeXeXeXeXeXeXeXeXeXeXeXeXeXeXeXeXeXeXeXeXeXeXeXeXeXeXeXeXeXeXeXeXeXeXeXeXeXeXeXeXeXeXeXeXeXeXeXeXeXeXeXeXeXeXeXeXeXeX",
"eXeXeXeXeXeXeXeXeXeXeXeXeXeXeXeXeXeXeXeXeXeXeXeXeXeXeXeXeXeXeXeXeXeXeXeXeXeXeXeXeXeXeXeXeXeXeXeXeXeXeXeXeXeXeXeXeXeXeXeXeXeXeXeXeXeXeXeXeXeXeXeXeXeXeXeXeXeXeXeX",
"eXeXeXeXeXeXeXeXeXeXeXeXeXeXeXeXeXeXeXeXeXeXeXeXeXeXeXeXeXeXeXeXeXeXeXeXeXeXeXeXeXeXeXeXeXeXeXeXeXeXeXeXeXeXeXeXeXeXeXeXeXeXeXeXeXeXeXeXeXeXeXeXeXeXeXeXeXeXeXeX",
"eXeXeXeXeXeXeXeXeXeXeXeXeXeXeXeXeXeXeXeXeXeXeXeXeXeXeXeXeXeXeXeXeXeXeXeXeXeXeXeXeXeXeXeXeXeXeXeXeXeXeXeXeXeXeXeXeXeXeXeXeXeXeXeXeXeXeXeXeXeXeXeXeXeXeXeXeXeXeXeX",
"eXeXeXeXeXeXeXeXeXeXeXeXeXeXeXeXeXeXeXeXeXeXeXeXeXeXeXeXeXeXeXeXeXeXeXeXeXeXeXeXeXeXeXeXeXeXeXeXeXeXeXeXeXeXeXeXeXeXeXeXeXeXeXeXeXeXeXeXeXeXeXeXeXeXeXeXeXeXeXeX",
"eXeXeXeXeXeXeXeXeXeXeXeXeXeXeXeXeXeXeXeXeXeXeXeXeXeXeXeXeXeXeXeXeXeXeXeXeXeXeXeXeXeXeXeXeXeXeXeXeXeXeXeXeXeXeXeXeXeXeXeXeXeXeXeXeXeXeXeXeXeXeXeXeXeXeXeXeXeXeXeX",
"eXeXeXeXeXeXeXeXeXeXeXeXeXeXeXeXeXeXeXeXeXeXeXeXeXeXeXeXeXeXeXeXeXeXeXeXeXeXeXeXeXeXeXeXeXeXeXeXeXeXeXeXeXeXeXeXeXeXeXeXeXeXeXeXeXeXeXeXeXeXeXeXeXeXeXeXeXeXeXeX"
};
