/* XPM */
static char *_527_1d505e7b42539f31aaf5ce55bfa7883cc553fd0ae14b5e96779cf437004e771f[] = {
/* columns rows colors chars-per-pixel */
"80 80 207 2 ",
"   c #000000",
".  c #0B0200",
"X  c #020C01",
"o  c #0E0902",
"O  c #090A0A",
"+  c #120000",
"@  c #1A0100",
"#  c #1A0D02",
"$  c #011300",
"%  c #081B06",
"&  c #001B11",
"*  c gray7",
"=  c #1D190C",
"-  c #230100",
";  c #2C0000",
":  c #280C0D",
">  c #340100",
",  c #3C0100",
"<  c #3C0A01",
"1  c #340A01",
"2  c #271208",
"3  c #2A1C02",
"4  c #351C02",
"5  c #3A161B",
"6  c #360E17",
"7  c #0B2702",
"8  c #102F00",
"9  c #0F3D03",
"0  c #123D00",
"q  c #123100",
"w  c #002211",
"e  c #003119",
"r  c #2C2400",
"t  c #232C00",
"y  c #282900",
"u  c #3C2201",
"i  c #332400",
"p  c #363600",
"a  c #323D00",
"s  c #2C2C2C",
"d  c #282421",
"f  c #302124",
"g  c #312A22",
"h  c #3F3428",
"j  c #2A2E31",
"k  c #293030",
"l  c #383636",
"z  c #430000",
"x  c #4B0100",
"c  c #450B01",
"v  c #4A0A01",
"b  c #420509",
"n  c #540100",
"m  c #5B0100",
"M  c #540902",
"N  c #5C0A02",
"B  c #580A0A",
"V  c #441400",
"C  c #4D1302",
"Z  c #4C1E01",
"A  c #411F02",
"S  c #511601",
"D  c #551B02",
"F  c #5B1D02",
"G  c #580F10",
"H  c #441C1D",
"J  c #640100",
"K  c #6B0101",
"L  c #690C02",
"P  c #720201",
"I  c #7D0401",
"U  c #7A0903",
"Y  c #740F02",
"T  c #6D1706",
"R  c #711C02",
"E  c #661011",
"W  c #452301",
"Q  c #4B2302",
"!  c #4B2803",
"~  c #462903",
"^  c #5B2303",
"/  c #5E2803",
"(  c #542402",
")  c #4E3A00",
"_  c #512214",
"`  c #622C03",
"'  c #692501",
"]  c #732E03",
"[  c #663304",
"{  c #6A3504",
"}  c #6D3A04",
"|  c #673709",
" . c #733B06",
".. c #743E0B",
"X. c #492326",
"o. c #513A3B",
"O. c #7C2726",
"+. c #154500",
"@. c #1A5B00",
"#. c #195108",
"$. c #145900",
"%. c #0E5813",
"&. c #294A04",
"*. c #205400",
"=. c #1F6B0F",
"-. c #1B630A",
";. c #10710B",
":. c #176A18",
">. c #0D751B",
",. c #0F7615",
"<. c #004222",
"1. c #2C4920",
"2. c #127323",
"3. c #495C08",
"4. c #694509",
"5. c #774108",
"6. c #7A540B",
"7. c #724311",
"8. c #54493F",
"9. c #007E41",
"0. c #1A7540",
"q. c #505151",
"w. c #484D4F",
"e. c #62574A",
"r. c #596263",
"t. c #6C7274",
"y. c #840402",
"u. c #8C0402",
"i. c #8D0803",
"p. c #920402",
"a. c #9A0202",
"s. c #930803",
"d. c #9C0A03",
"f. c #891D02",
"g. c #951C04",
"h. c #9A1504",
"j. c #AE0404",
"k. c #A50B03",
"l. c #AC0B04",
"z. c #B20404",
"x. c #BB0304",
"c. c #B20C04",
"v. c #BB0D04",
"b. c #AC1203",
"n. c #A81805",
"m. c #B51305",
"M. c #B91205",
"N. c #BD1C05",
"B. c #B01806",
"V. c #862104",
"C. c #892805",
"Z. c #9A2409",
"A. c #962605",
"S. c #873F0C",
"D. c #953507",
"F. c #A72306",
"G. c #AC2405",
"H. c #BA2A04",
"J. c #A93806",
"K. c #C20F04",
"L. c #C70704",
"P. c #D20F04",
"I. c #C31204",
"U. c #CB1404",
"Y. c #C61B06",
"T. c #D31504",
"R. c #DB1304",
"E. c #D41804",
"W. c #DC1A04",
"Q. c #E71A04",
"!. c #C73804",
"~. c #D83905",
"^. c #C42A07",
"/. c #E13605",
"(. c #85460C",
"). c #8A490C",
"_. c #864204",
"`. c #974A08",
"'. c #825B12",
"]. c #A24807",
"[. c #AD5F03",
"{. c #A2560C",
"}. c #A55605",
"|. c #BA4C04",
" X c #95650A",
".X c #A86807",
"XX c #BF7306",
"oX c #B76803",
"OX c #C64903",
"+X c #C25D05",
"@X c #D66203",
"#X c #C07205",
"$X c #D37904",
"%X c #8C7F73",
"&X c #0F8326",
"*X c #05842E",
"=X c #048935",
"-X c #018441",
";X c #00954B",
":X c #05984E",
">X c #029E53",
",X c #00AA55",
"<X c #00A153",
"1X c #00AC61",
"2X c #00B067",
"3X c #909396",
"4X c None",
/* pixels */
"4X4X4X4X4X4X4X4X4X4X4X4X4X4X4X4X4X4X4X4X4X4X4X4X4X4X4X4X4X4X4X4X4X4X4X4X4X4X4X4X4X4X4X4X4X4X4X4X4X4X4X4X4X4X4X4X4X4X4X4X4X4X4X4X4X4X4X4X4X4X4X4X4X4X4X4X4X4X4X4X",
"4X4X4X4X4X4X4X4X4X4X4X4X4X4X4X4X4X4X4X4X4X4X4X4X4X4X4X4X4X4X4X4X4X4X4X4X4X4X4X4X4X4X4X4X4X4X4X4X4X4X4X4X4X4X4X4X4X4X4X4X4X4X4X4X4X4X4X4X4X4X4X4X4X4X4X4X4X4X4X4X",
"4X4X4X4X4X4X4X4X4X4X4X4X4X4X4X4X4X4X4X4X4X4X4X4X4X4X4X4X4X4X4X4X4X4X4X4X4X4X4X4X4X4X4X4X4X4X4X4X4X4X4X4X4X4X4X4X4X4X4X4X4X4X4X4X4X4X4X4X4X4X4X4X4X4X4X4X4X4X4X4X",
"4X4X4X4X4X4X4X4X4X4X4X4X4X4X4X4X4X4X4X4X4X4X4X4X4X4X4X4X4X4X4X4X4X4X4X4X4X4X4X4X4X4X4X4X4X4X4X4X4X4X4X4X4X4X4X4X4X4X4X4X4X4X4X4X4X4X4X4X4X4X4X4X4X4X4X4X4X4X4X4X",
"4X4X4X4X4X4X4X4X4X4X4X4X4X4X4X4X4X4X4X4X4X4X4X4X4X4X4X4X4X4X4X4X  4X4X4X4X4X4X4X4X4X4X4X4X4X4X4X4X4X4X4X4X4X4X4X4X4X4X4X4X4X4X4X4X4X4X4X4X4X4X4X4X4X4X4X4X4X4X4X",
"4X4X4X4X4X4X4X4X4X4X4X4X4X4X4X4X4X4X4X4X4X4X          4X4X4X4X4X4X  4X4X4X4X4X4X4X4X4X4X4X4X4X4X4X4X4X4X4X4X4X4X4X4X4X4X4X4X4X4X4X4X4X4X4X4X4X4X4X4X4X4X4X4X4X4X",
"4X4X4X4X4X4X4X4X4X4X4X4X4X4X4X4X4X4X4X4X4X4X4X          4X4X4X4X4X4X  4X4X4X  4X  4X4X4X4X4X4X4X4X4X4X4X4X4X4X4X4X4X4X4X4X4X4X4X4X4X4X4X4X4X4X4X4X4X4X4X4X4X4X4X",
"4X4X4X4X4X4X4X4X4X4X4X4X4X4X4X4X4X4X4X4X4X4X4X4X4X            4X4X4X    4X4X  4X  4X4X4X4X4X4X4X4X4X4X4X4X4X4X4X4X4X4X4X4X4X4X4X4X4X4X4X4X4X4X4X4X4X4X4X4X4X4X4X",
"4X4X4X4X4X4X4X4X4X4X4X4X4X4X4X4X4X4X4X4X4X4X                      4X        4X  4X4X4X4X4X4X4X4X4X4X4X4X4X4X4X4X4X4X4X4X4X4X4X4X4X4X4X4X4X4X4X4X4X4X4X4X4X4X4X4X",
"4X4X4X4X4X4X4X4X4X4X4X4X4X4X4X4X4X4X4X4X4X4X4X4X4X4X                              4X4X4X4X4X4X4X4X4X4X4X4X4X4X4X4X4X4X4X4X4X4X4X4X4X4X4X4X4X4X4X4X4X4X4X4X4X4X4X",
"4X4X4X4X4X4X4X4X4X4X4X4X4X4X4X4X4X4X4X4X4X4X4X4X4X4X4X4X4X      . o o . . o . o . o 4X4X4X4X4X4X4X4X4X4X4X4X4X4X4X4X4X4X4X4X4X4X4X4X4X4X4X4X4X4X4X4X4X4X4X4X4X4X",
"4X4X4X4X4X4X4X4X4X4X4X4X4X4X4X4X4X4X4X4X4X4X4X                  | ).).).).).).).).(.).).(.).).).4X4X4X4X4X4X4X4X4X4X4X4X4X4X4X4X4X4X4X4X4X4X4X4X4X4X4X4X4X4X4X4X",
"4X4X4X4X4X4X4X4X4X4X4X4X4X4X4X4X4X4X4X4X                    5.(.} { { { { { { { { { { { { } {  .).).4X4X4X4X4X4X4X4X4X4X4X4X4X4X4X4X4X4X4X4X4X4X4X4X4X4X4X4X4X4X",
"4X4X4X4X4X4X4X4X4X4X4X4X4X4X4X4X4X4X4X      4X4X4X4X4X4X..4. . .{ { [ { } } [ } } [ { } { [ [ {  . .).).4X4X4X4X4X4X4X4X4X4X4X4X4X4X4X4X4X4X4X4X4X4X4X4X4X4X4X4X",
"4X4X4X4X4X4X4X4X4X4X4X4X4X4X4X4X4X4X4X4X4X4X4X4X4X{.`.).5. .[ [ [ } } ` c _ e.v v e._ c / } } { [ [  .} ).).).4X4X4X4X4X4X4X4X4X4X4X4X4X4X4X4X4X4X4X4X4X4X4X4X4X",
"4X4X4X4X4X4X4X4X4X4X4X4X4X4X4X4X4X4X4X4X4X4X    W ).5...[ [ { } } ^ S c , b X.f f X.b , v S C ^ } { [ [  ... ...4X4X4X4X4X4X4X4X4X4X4X4X4X4X4X4X4X4X4X4X4X4X4X4X",
"4X4X4X4X4X4X4X4X4X4X4X4X4X4X4X4X4X4X4X4X4X4X4X  # 4 W  . .}  .T D z , z x b 6 5 5 6 b x z , , , ^ } } { [ [ 4X4X4X4X4X4X4X4X4X4X4X4X4X4X4X4X4X4X4X4X4X4X4X4X4X4X",
"4X4X4X4X4X4X4X4X4X4X4X4X4X4X4X4X4X4X4X4X4X4X4X4X4X  . W A D 4 - > x > - - 2 1.4 ; 1.2 - - > x , z D ( [ { 4X4X4X4X4X4X4X4X4X4X4X4X4X4X4X4X4X4X4X4X4X4X4X4X4X4X4X",
"4X4X4X4X4X4X4X4X4X4X4X4X4X4X4X4X4X4X4X4X4X4X4X4X4X4X4X    z .   - > + X $ X +.9   0 $ $ X . , x z z , 4X4X4X4X4X4X4X4X4X4X4X4X4X4X4X4X4X4X4X4X4X4X4X4X4X4X4X4X4X",
"4X4X4X4X4X4X4X4X4X4X4X4X4X4X4X4X4X4X4X4X4X4X4X4X4X4X4X4X4X4X, .       q +.. #   w   @ &.8   . , > > 4X4X4X4X4X4X4X4X4X4X4X4X4X4X4X4X4X4X4X4X4X4X4X4X4X4X4X4X4X4X",
"4X4X4X4X4X4X4X4X4X4X4X4X4X4X4X4X4X4X4X4X4X4X4X4X4X4X4X4X4X4X4X4X4X    7 9 = '.-.;X& 7.3.7     4X4X  4X4X4X4X4X4X4X4X4X4X4X4X4X4X4X4X4X4X4X4X4X4X4X4X4X4X4X4X4X4X",
"4X4X4X4X4X4X4X4X4X4X4X4X4X4X4X4X4X4X4X4X4X4X4X4X4X4X4X4X4X      4X      e ,X:X;X  -X,Xe           4X4X4X4X4X4X4X4X4X4X4X4X4X4X4X4X4X4X4X4X4X4X4X4X4X4X4X4X4X4X4X",
"4X4X4X4X4X4X4X4X4X4X4X4X4X4X4X4X4X4X4X4X4X4X4X4X4X4X4X4X4X4X4X4X          % =.<X;X=.%           4X4X  4X4X4X4X4X4X4X4X4X4X4X4X4X4X4X4X4X4X4X4X4X4X4X4X4X4X4X4X4X",
"4X4X4X4X4X4X4X4X4X4X4X4X4X4X4X4X4X4X4X4X4X4X4X4X4X4X4X4X4X4X4X4X            O X X X                 4X4X4X4X4X4X4X4X4X4X4X4X4X4X4X4X4X4X4X4X4X4X4X4X4X4X4X4X4X4X",
"4X4X4X4X4X4X4X4X4X4X4X4X4X4X4X4X4X4X4X4X4X4X4X4X4X4X4X4X+ > i.-           X #.-X-X#.X           @ M 4X4X4X4X4X4X4X4X4X4X4X4X4X4X4X4X4X4X4X4X4X4X4X4X4X4X4X4X4X4X",
"4X4X4X4X4X4X4X4X4X4X4X4X4X4X4X4X4X4X4X4X4X4X4X4X4X4X4Xd.n > > .             8 <.<.7 X           - , P y.4X4X4X4X4X4X4X4X4X4X4X4X4X4X4X4X4X4X4X4X4X4X4X4X4X4X4X4X",
"4X4X4X4X4X4X4X4X4X4X4X4X4X4X4X4X4X4X4X4X4X4X4X4X4X4XI.v.k.J N .                                 - U L m M.4X4X4X4X4X4X4X4X4X4X4X4X4X4X4X4X4X4X4X4X4X4X4X4X4X4X4X",
"4X4X4X4X4X4X4X4X4X4X4X4X4X4X4X4X4X4X4X4X4X4X4X4Xl.U.M.l.c.v.l.@                                   L < J l.c.4X4X4X4X4X4X4X4X4X4X4X4X4X4X4X4X4X4X4X4X4X4X4X4X4X4X",
"4X4X4X4X4X4X4X4X4X4X4X4X4X4X4X4X4X4X4X4X4X4X4X4Xc.c.c.l.c.k.x                                 + M < v.d.K s.v.4X4X4X4X4X4X4X4X4X4X4X4X4X4X4X4X4X4X4X4X4X4X4X4X4X",
"4X4X4X4X4X4X4X4X4X4X4X4X4X4X4X4X4X4X4X4X4X4X4Xl.U.W.I.l.c.l., < M -                           > M.W.c.v.K b.U.l.4X4X4X4X4X4X4X4X4X4X4X4X4X4X4X4X4X4X4X4X4X4X4X4X",
"4X4X4X4X4X4X4X4X4X4X4X4X4X4X4X4X4X4X4X4X4X4X4Xc.I P K u.c.l.l.T.v.N                         . . @ U.c.K d.M.c.l.4X4X4X4X4X4X4X4X4X4X4X4X4X4X4X4X4X4X4X4X4X4X4X4X",
"4X4X4X4X4X4X4X4X4X4X4X4X4X4X4X4X4X4X4X4X4X4Xc.l.l.P n y.I.l.c.E.< . .                       N m.. - c.K K P k.U.l.4X4X4X4X4X4X4X4X4X4X4X4X4X4X4X4X4X4X4X4X4X4X4X",
"4X4X4X4X4X4X4X4X4X4X4X4X4X4X4X4X4X4X4X4X4X4Xc.E.d.K m K s.c.l.b.D.J.L     O s       s *   c F.W.U.T.c.K m x l.W.k.4X4X4X4X4X4X4X4X4X4X4X4X4X4X4X4X4X4X4X4X4X4X4X",
"4X4X4X4X4X4X4X4X4X4X4X4X4X4X4X4X4X4X4X4X4Xc.c.d.m m K m I v.I.T.Z.C.v.T   G k s s l O   M g.B.Q.E.E.c.K J m U k.c.4X4X4X4X4X4X4X4X4X4X4X4X4X4X4X4X4X4X4X4X4X4X4X",
"4X4X4X4X4X4X4X4X4X4X4X4X4X4X4X4X4X4X4X4X4Xc.c.I y.P m n I M.W.T.L.L.I.J O.E q.j j q.l G j.L.x.k.W.E.m.J m I I p.c.c.4X4X4X4X4X4X4X4X4X4X4X4X4X4X4X4X4X4X4X4X4X4X",
"4X4X4X4X4X4X4X4X4X4X4X4X4X4X4X4X4X4X4X4X4Xl.c.v.c.I z z y.K.W.~.^.W.U.J o.r.w.3Xj t.H u.Y.~.g., Q.E.c.x n i.c.M.c.c.4X4X4X4X4X4X4X4X4X4X4X4X4X4X4X4X4X4X4X4X4X4X",
"4X4X4X4X4X4X4X4X4X4X4X4X4X4X4X4X4X4X4X4X4Xc.k.k.K J x x y.v.N.XX6.H.U.P : d w.%Xh g 1 a.S..X`.P W.U.k.x m n I k.k.c.4X4X4X4X4X4X4X4X4X4X4X4X4X4X4X4X4X4X4X4X4X4X",
"4X4X4X4X4X4X4X4X4X4X4X4X4X4X4X4X4X4X4X4X4Xl.J J K K x z y.d.> (.[ n.c.L > C  .S.(.} > p.f.| J.R.T.k.J , m K K J I c.4X4X4X4X4X4X4X4X4X4X4X4X4X4X4X4X4X4X4X4X4X4X",
"4X4X4X4X4X4X4X4X4X4X4X4X4X4X4X4X4X4X4X4X4Xc.E.T.Q.i.z z y.d.z l.c.v.J > F !     . [ O - i.K.U J W.l.J z x c.W.E.U.l.4X4X4X4X4X4X4X4X4X4X4X4X4X4X4X4X4X4X4X4X4X4X",
"4X4X4X4X4X4X4X4X4X4X4X4X4X4X4X4X4X4X4X4X4Xc.c.c.v.c.I n y.d.x P.R.K.J . 4 !   + ).).o @ y.R.s.n W.l.J m s.v.v.c.c.c.c.4X4X4X4X4X4X4X4X4X4X4X4X4X4X4X4X4X4X4X4X4X",
"4X4X4X4X4X4X4X4X4X4X4X4X4X4X4X4X4X4X4X4Xn.] l.v.C.G.p.n y.a.< @X].m.K   4 !     #  .X @ p.G.{.OXT.l.K m c.C.g.x.h.] c.4X4X4X4X4X4X4X4X4X4X4X4X4X4X4X4X4X4X4X4X4X",
"4X4X4X4X4X4X4X4X4X4X4X4X4X4X4X4X4X4X4X4Xl.g.v.P v m J m I c.d. X4.n.K   3  .! ~ u C ; ; y.C.6.{.x.l.J J K M n p.M.h.c.4X4X4X4X4X4X4X4X4X4X4X4X4X4X4X4X4X4X4X4X4X",
"4X4X4X4X4X4X4X4X4X4X4X4X4X4X4X4X4X4X4X4Xc.c.K r r t C J y.l.U Z.g.c.K - 1 D F R R n x > y.Y D F.c.l.K J i y t V p.v.c.4X4X4X4X4X4X4X4X4X4X4X4X4X4X4X4X4X4X4X4X4X",
"4X4X4X4X4X4X4X4X4X4X4X4X4X4X4X4X4X4X4X4Xc.l.P :.&X;.W J y.s.> z.x.v.N , x x n K J K x > i.p.y.z.c.l.K K &.,.&X%.S v.l.4X4X4X4X4X4X4X4X4X4X4X4X4X4X4X4X4X4X4X4X4X",
"4X4X4X4X4X4X4X4X4X4X4X4X4X4X4X4X4X4X4X4X4Xc.A.:X1X>.Z J y.k.L H.F.m.J > x m n n n m z > y.M.H.H.z.l.J K p =X2X=X) L.4X4X4X4X4X4X4X4X4X4X4X4X4X4X4X4X4X4X4X4X4X4X",
"4X4X4X4X4X4X4X4X4X4X4X4X4X4X4X4X4X4X4X4X4X4X$.=X>X>.W J I v.N.#X6.B.J > c b c c c c z > u.A. X+Xz.l.J K &.*X>X*X) 4X4X4X4X4X4X4X4X4X4X4X4X4X4X4X4X4X4X4X4X4X4X4X",
"4X4X4X4X4X4X4X4X4X4X4X4X4X4X4X4X4X4X4X4X4X4X4X&.4X>.W J I z.b.S.{ b.J > D  .} { [ { c > u.g.} D.z.l.J K 0.:.2.4X4X4X4X4X4X4X4X4X4X4X4X4X4X4X4X4X4X4X4X4X4X4X4X4X",
"4X4X4X4X4X4X4X4X4X4X4X4X4X4X4X4X4X4X4X4X4X4X4X#.4X4XW J I v.c.l.c.v.J > S } [ [ , z , > i.v.c.l.c.l.J J K 4X@.*.4X4X4X4X4X4X4X4X4X4X4X4X4X4X4X4X4X4X4X4X4X4X4X4X",
"4X4X4X4X4X4X4X4X4X4X4X4X4X4X4X4X4X4X4X4X4X4X4X4X@.4X4Xm I l.K c.c.v.m > , c z z z , , > y.v.c.s.x c.l.K K 4X@.*.4X4X4X4X4X4X4X4X4X4X4X4X4X4X4X4X4X4X4X4X4X4X4X4X",
"4X4X4X4X4X4X4X4X4X4X4X4X4X4X4X4X4X4X4X4X4X4X4X4X4X4XJ I c.l.J l.c.v.m ( S , , z , , / V y.v.v.u.x c.c.K J p @.4X4X4X4X4X4X4X4X4X4X4X4X4X4X4X4X4X4X4X4X4X4X4X4X4X",
"4X4X4X4X4X4X4X4X4X4X4X4X4X4X4X4X4X4X4X4X4X4X4X4X4X4XJ u.l.K K l.c.v.J < ^ D , , , ` C > i.I.c.s.x v.c.P K a 4X4X4X4X4X4X4X4X4X4X4X4X4X4X4X4X4X4X4X4X4X4X4X4X4X4X",
"4X4X4X4X4X4X4X4X4X4X4X4X4X4X4X4X4X4X4X4X4X4X4X4X4X4Xn y.d.m K c.c.v.m V D D Z z ^ D D z M s.K.i.x c.j.J m 4X4X4X4X4X4X4X4X4X4X4X4X4X4X4X4X4X4X4X4X4X4X4X4X4X4X4X",
"4X4X4X4X4X4X4X4X4X4X4X4X4X4X4X4X4X4X4X4X4X4X4X4X4X4X`.G.a.n m j.j.x.m ( D v [ z ^ > [ S - P L.u.z c.OXJ.D.4X4X4X4X4X4X4X4X4X4X4X4X4X4X4X4X4X4X4X4X4X4X4X4X4X4X4X",
"4X4X4X4X4X4X4X4X4X4X4X4X4X4X4X4X4X4X4X4X4X4X4X4X4X4X}.|.G.n c !.!.!.N ( / C D , , C { v ; f.~.A.c !.}.}.$X4X4X4X4X4X4X4X4X4X4X4X4X4X4X4X4X4X4X4X4X4X4X4X4X4X4X4X",
"4X4X4X4X4X4X4X4X4X4X4X4X4X4X4X4X4X4X4X4X4X4X4X4X4X4X4X] ].x v [..XoX' S 5./ > z b ` } S > ] #X_.x [.> - 4X4X4X4X4X4X4X4X4X4X4X4X4X4X4X4X4X4X4X4X4X4X4X4X4X4X4X4X",
"4X4X4X4X4X4X4X4X4X4X4X4X4X4X4X4X4X4X4X4X4X4X4X4X4X4X4X4X> z , > , > / } { D , , 4X, / } D , , , , > z z 4X4X4X4X4X4X4X4X4X4X4X4X4X4X4X4X4X4X4X4X4X4X4X4X4X4X4X4X",
"4X4X4X4X4X4X4X4X4X4X4X4X4X4X4X4X4X4X4X4X4X4X4X4X4X4X4X4Xz , , z ` { [ } S , , z 4Xz , / { { } / , , z , z 4X4X4X4X4X4X4X4X4X4X4X4X4X4X4X4X4X4X4X4X4X4X4X4X4X4X4X",
"4X4X4X4X4X4X4X4X4X4X4X4X4X4X4X4X4X4X4X4X4X4X4X4X4X4X4X4X, z z , z z ` D , z , 4X4X4X, , ` ^ , z z z , z , 4X4X4X4X4X4X4X4X4X4X4X4X4X4X4X4X4X4X4X4X4X4X4X4X4X4X4X",
"4X4X4X4X4X4X4X4X4X4X4X4X4X4X4X4X4X4X4X4X4X4X4X4X4X4X4X4Xx , , , , , v x z x z 4X4X4X, z x x , , , z , , z 4X4X4X4X4X4X4X4X4X4X4X4X4X4X4X4X4X4X4X4X4X4X4X4X4X4X4X",
"4X4X4X4X4X4X4X4X4X4X4X4X4X4X4X4X4X4X4X4X4X4X4X4X4X4X4X4X4Xx x x x x @ . . - 4X4X4X4X4X@ . - x x x x x x 4X4X4X4X4X4X4X4X4X4X4X4X4X4X4X4X4X4X4X4X4X4X4X4X4X4X4X4X",
"4X4X4X4X4X4X4X4X4X4X4X4X4X4X4X4X4X4X4X4X4X4X4X4X4X4X4X4X  + + + + + @ ; . . 4X4X4X4X4X- - @ + . . + . + 4X4X4X4X4X4X4X4X4X4X4X4X4X4X4X4X4X4X4X4X4X4X4X4X4X4X4X4X",
"4X4X4X4X4X4X4X4X4X4X4X4X4X4X4X4X4X4X4X4X4X4X4X4X4X4X4X4X- + @ @ @ @ , x -   4X4X4X4X4Xx x > @ @ @ @ @ @ 4X4X4X4X4X4X4X4X4X4X4X4X4X4X4X4X4X4X4X4X4X4X4X4X4X4X4X4X",
"4X4X4X4X4X4X4X4X4X4X4X4X4X4X4X4X4X4X4X4X4X4X4X4X4X4X4Xx x z z x x x x x -   4X4X4X4X4Xz z z x z z x x x x 4X4X4X4X4X4X4X4X4X4X4X4X4X4X4X4X4X4X4X4X4X4X4X4X4X4X4X",
"4X4X4X4X4X4X4X4X4X4X4X4X4X4X4X4X4X4X4X4X4X4X4X4X4X4X> > z z z z z z > > @   4X4X4X4X4X; , x z z z z z z > 4X4X4X4X4X4X4X4X4X4X4X4X4X4X4X4X4X4X4X4X4X4X4X4X4X4X4X",
"4X4X4X4X4X4X4X4X4X4X4X4X4X4X4X4X4X4X4X4X4X4X4X4X4X4X  + z > > > > , .       4X4X4X4X4X  - , > > > > > , . 4X4X4X4X4X4X4X4X4X4X4X4X4X4X4X4X4X4X4X4X4X4X4X4X4X4X4X",
"4X4X4X4X4X4X4X4X4X4X4X4X4X4X4X4X4X4X4X4X4X4X4X4X4X4X                        4X4X4X4X4X                    4X4X4X4X4X4X4X4X4X4X4X4X4X4X4X4X4X4X4X4X4X4X4X4X4X4X4X",
"4X4X4X4X4X4X4X4X4X4X4X4X4X4X4X4X4X4X4X4X4X4X4X4X4X4X4X4X4X. x , x .       4X4X4X4X4X4X4X    + x z , z 4X4X4X4X4X4X4X4X4X4X4X4X4X4X4X4X4X4X4X4X4X4X4X4X4X4X4X4X4X",
"4X4X4X4X4X4X4X4X4X4X4X4X4X4X4X4X4X4X4X4X4X4X4X4X4X4X4X4X4X  . . .         4X4X4X4X4X4X4X      . . . . 4X4X4X4X4X4X4X4X4X4X4X4X4X4X4X4X4X4X4X4X4X4X4X4X4X4X4X4X4X",
"4X4X4X4X4X4X4X4X4X4X4X4X4X4X4X4X4X4X4X4X4X4X4X4X4X4X4X                    4X4X4X4X4X4X4X                  4X4X4X4X4X4X4X4X4X4X4X4X4X4X4X4X4X4X4X4X4X4X4X4X4X4X4X",
"4X4X4X4X4X4X4X4X4X4X4X4X4X4X4X4X4X4X4X4X4X4X4X4X    + ; ; ; ; ; ;         4X4X4X4X4X4X4X    + ; ; ; ; ; ; .   4X4X4X4X4X4X4X4X4X4X4X4X4X4X4X4X4X4X4X4X4X4X4X4X4X",
"4X4X4X4X4X4X4X4X4X4X4X4X4X4X4X4X4X4X4X4X4X4X4X4X  + , x z x x z x ; .     4X4X4X4X4X4X4X    @ x x z x z x > +   4X4X4X4X4X4X4X4X4X4X4X4X4X4X4X4X4X4X4X4X4X4X4X4X",
"4X4X4X4X4X4X4X4X4X4X4X4X4X4X4X4X4X4X4X4X4X4X4X4X4X> x , , z , , z x +   4X4X4X4X4X4X4X4X4X  @ x , , z , , x - 4X4X4X4X4X4X4X4X4X4X4X4X4X4X4X4X4X4X4X4X4X4X4X4X4X",
"4X4X4X4X4X4X4X4X4X4X4X4X4X4X4X4X4X4X4X4X4X4X4X4X4X4X4X4X4X4X4X4X4X4X4X4X4X4X4X4X4X4X4X4X4X4X4X4X4X4X4X4X4X4X4X4X4X4X4X4X4X4X4X4X4X4X4X4X4X4X4X4X4X4X4X4X4X4X4X4X",
"4X4X4X4X4X4X4X4X4X4X4X4X4X4X4X4X4X4X4X4X4X4X4X4X4X4X4X4X4X4X4X4X4X4X4X4X4X4X4X4X4X4X4X4X4X4X4X4X4X4X4X4X4X4X4X4X4X4X4X4X4X4X4X4X4X4X4X4X4X4X4X4X4X4X4X4X4X4X4X4X",
"4X4X4X4X4X4X4X4X4X4X4X4X4X4X4X4X4X4X4X4X4X4X4X4X4X4X4X4X4X4X4X4X4X4X4X4X4X4X4X4X4X4X4X4X4X4X4X4X4X4X4X4X4X4X4X4X4X4X4X4X4X4X4X4X4X4X4X4X4X4X4X4X4X4X4X4X4X4X4X4X",
"4X4X4X4X4X4X4X4X4X4X4X4X4X4X4X4X4X4X4X4X4X4X4X4X4X4X4X4X4X4X4X4X4X4X4X4X4X4X4X4X4X4X4X4X4X4X4X4X4X4X4X4X4X4X4X4X4X4X4X4X4X4X4X4X4X4X4X4X4X4X4X4X4X4X4X4X4X4X4X4X",
"4X4X4X4X4X4X4X4X4X4X4X4X4X4X4X4X4X4X4X4X4X4X4X4X4X4X4X4X4X4X4X4X4X4X4X4X4X4X4X4X4X4X4X4X4X4X4X4X4X4X4X4X4X4X4X4X4X4X4X4X4X4X4X4X4X4X4X4X4X4X4X4X4X4X4X4X4X4X4X4X",
"4X4X4X4X4X4X4X4X4X4X4X4X4X4X4X4X4X4X4X4X4X4X4X4X4X4X4X4X4X4X4X4X4X4X4X4X4X4X4X4X4X4X4X4X4X4X4X4X4X4X4X4X4X4X4X4X4X4X4X4X4X4X4X4X4X4X4X4X4X4X4X4X4X4X4X4X4X4X4X4X",
"4X4X4X4X4X4X4X4X4X4X4X4X4X4X4X4X4X4X4X4X4X4X4X4X4X4X4X4X4X4X4X4X4X4X4X4X4X4X4X4X4X4X4X4X4X4X4X4X4X4X4X4X4X4X4X4X4X4X4X4X4X4X4X4X4X4X4X4X4X4X4X4X4X4X4X4X4X4X4X4X",
"4X4X4X4X4X4X4X4X4X4X4X4X4X4X4X4X4X4X4X4X4X4X4X4X4X4X4X4X4X4X4X4X4X4X4X4X4X4X4X4X4X4X4X4X4X4X4X4X4X4X4X4X4X4X4X4X4X4X4X4X4X4X4X4X4X4X4X4X4X4X4X4X4X4X4X4X4X4X4X4X"
};
