/* XPM */
static char *_977_39bb21996c3ccba31f3238d4783d69749d90e930037010e3359f26578f613f7c[] = {
/* columns rows colors chars-per-pixel */
"80 80 213 2 ",
"   c #000000",
".  c #0C0100",
"X  c #060D00",
"o  c #090B03",
"O  c #130000",
"+  c #1B0100",
"@  c #1A0C00",
"#  c #160C02",
"$  c #0B1A00",
"%  c #001509",
"&  c #071603",
"*  c #0F1516",
"=  c gray9",
"-  c #230100",
";  c #2B0000",
":  c #240C01",
">  c #340000",
",  c #3D0000",
"<  c #37090B",
"1  c #2C1603",
"2  c #321C02",
"3  c #3A1502",
"4  c #390F14",
"5  c #3C1A1C",
"6  c #391318",
"7  c #082605",
"8  c #0B3C00",
"9  c #143200",
"0  c #1D3200",
"q  c #002112",
"w  c #00341F",
"e  c #3F1F22",
"r  c #252525",
"t  c #212926",
"y  c #232C2C",
"u  c #2D2D2D",
"i  c #283C27",
"p  c #2D3333",
"a  c #323232",
"s  c #3C3C3C",
"d  c #313939",
"f  c #3B2223",
"g  c #430100",
"h  c #4A0100",
"j  c #4A0C01",
"k  c #460B01",
"l  c #540101",
"z  c #5C0000",
"x  c #5F0D0D",
"c  c #4C1101",
"v  c #471D02",
"b  c #521202",
"n  c #541C03",
"m  c #5B1F02",
"M  c #480811",
"N  c #481112",
"B  c #640000",
"V  c #6C0200",
"C  c #680C06",
"Z  c #730301",
"A  c #7C0401",
"S  c #770B01",
"D  c #791803",
"F  c #7B1218",
"G  c #432406",
"H  c #4D2907",
"J  c #4E2605",
"K  c #5C2303",
"L  c #5B2A03",
"P  c #532B05",
"I  c #5E3309",
"U  c #462313",
"Y  c #622605",
"T  c #632C03",
"R  c #6B2B03",
"E  c #682303",
"W  c #7A2503",
"Q  c #653303",
"!  c #693504",
"~  c #6C3A04",
"^  c #67370A",
"/  c #693609",
"(  c #6A3909",
")  c #733B06",
"_  c #763D08",
"`  c #793708",
"'  c #6B3C10",
"]  c #551C20",
"[  c #482224",
"{  c #5B2627",
"}  c #413224",
"|  c #57393B",
" . c #194B00",
".. c #124000",
"X. c #0F5E02",
"o. c #1F5603",
"O. c #1C5B08",
"+. c #0F4A11",
"@. c #0F4011",
"#. c #244B00",
"$. c #264700",
"%. c #205301",
"&. c #325101",
"*. c #1B630E",
"=. c #156D1F",
"-. c #045C2B",
";. c #00552C",
":. c #2B4825",
">. c #365830",
",. c #0E7B2D",
"<. c #147B24",
"1. c #006637",
"2. c #3B6D36",
"3. c #27783C",
"4. c #6C4A08",
"5. c #7C420A",
"6. c #784608",
"7. c #6E5C09",
"8. c #735827",
"9. c #654A31",
"0. c #427137",
"q. c #4F3F40",
"w. c #384040",
"e. c #414141",
"r. c #414A4A",
"t. c #484848",
"y. c #5F5043",
"u. c #595858",
"i. c #4E5959",
"p. c #634849",
"a. c #635A4C",
"s. c #60625F",
"d. c #4E6060",
"f. c #646464",
"g. c #7A7A7A",
"h. c #840401",
"j. c #8B0301",
"k. c #870C02",
"l. c #930402",
"z. c #950A02",
"x. c #9B0A03",
"c. c #941802",
"v. c #A40B03",
"b. c #AC0B04",
"n. c #AC0204",
"m. c #B30302",
"M. c #B30C04",
"N. c #BA0B04",
"B. c #B80304",
"V. c #AB1304",
"C. c #B31303",
"Z. c #BB1204",
"A. c #872303",
"S. c #982908",
"D. c #9D3504",
"F. c #8B380A",
"G. c #AD2304",
"H. c #A72608",
"J. c #A53504",
"K. c #B13115",
"L. c #B4360A",
"P. c #C20B04",
"I. c #C90803",
"U. c #DB0A02",
"Y. c #C41304",
"T. c #CC1404",
"R. c #C81B05",
"E. c #D31604",
"W. c #DA1404",
"Q. c #D51804",
"!. c #DA1A04",
"~. c #E30300",
"^. c #F10B00",
"/. c #E31604",
"(. c #E41B04",
"). c #EB1C04",
"_. c #C62A06",
"`. c #D72504",
"'. c #C13104",
"]. c #D53704",
"[. c #85460B",
"{. c #8B4A0C",
"}. c #88460D",
"|. c #9D440B",
" X c #97520E",
".X c #83530C",
"XX c #A14502",
"oX c #A0540C",
"OX c #87650A",
"+X c #99620A",
"@X c #BB7607",
"#X c #BD7908",
"$X c #AA7409",
"%X c #CA5005",
"&X c #C66305",
"*X c #D56003",
"=X c #0A8234",
"-X c #098638",
";X c #29823F",
":X c #03964A",
">X c #00994D",
",X c #049444",
"<X c #009751",
"1X c #088B40",
"2X c #03A24E",
"3X c #00AB5A",
"4X c #01A453",
"5X c #03B35C",
"6X c #D28204",
"7X c gray55",
"8X c gray51",
"9X c #939393",
"0X c None",
/* pixels */
"0X0X0X0X0X0X0X0X0X0X0X0X0X0X0X0X0X0X0X0X0X0X0X0X0X0X0X0X0X0X0X0X0X0X0X0X0X0X0X0X0X0X0X0X0X0X0X0X0X0X0X0X0X0X0X0X0X0X0X0X0X0X0X0X0X0X0X0X0X0X0X0X0X0X0X0X0X0X0X0X",
"0X0X0X0X0X0X0X0X0X0X0X0X0X0X0X0X0X0X0X0X0X0X0X0X0X0X0X0X0X0X0X0X0X0X0X0X0X0X0X0X0X0X0X0X0X0X0X0X0X0X0X0X0X0X0X0X0X0X0X0X0X0X0X0X0X0X0X0X0X0X0X0X0X0X0X0X0X0X0X0X",
"0X0X0X0X0X0X0X0X0X0X0X0X0X0X0X0X0X0X0X0X0X0X0X0X0X0X0X0X0X0X0X0X0X0X0X0X0X0X0X0X0X0X0X0X0X0X0X0X0X0X0X0X0X0X0X0X0X0X0X0X0X0X0X0X0X0X0X0X0X0X0X0X0X0X0X0X0X0X0X0X",
"0X0X0X0X0X0X0X0X0X0X0X0X0X0X0X0X0X0X0X0X0X0X0X0X0X0X0X0X0X0X0X0X0X0X0X0X0X0X0X0X0X0X0X0X0X0X0X0X0X0X0X0X0X0X0X0X0X0X0X0X0X0X0X0X0X0X0X0X0X0X0X0X0X0X0X0X0X0X0X0X",
"0X0X0X0X0X0X0X0X0X0X0X0X0X0X0X0X0X0X0X0X0X0X0X0X0X0X0X0X0X0X0X0X    0X0X0X0X0X0X0X0X0X0X0X0X0X0X0X0X0X0X0X0X0X0X0X0X0X0X0X0X0X0X0X0X0X0X0X0X0X0X0X0X0X0X0X0X0X0X",
"0X0X0X0X0X0X0X0X0X0X0X0X0X0X0X0X0X0X0X0X0X0X0X0X0X0X0X0X0X0X0X0X0X  0X0X0X0X0X0X0X0X0X0X0X0X0X0X0X0X0X0X0X0X0X0X0X0X0X0X0X0X0X0X0X0X0X0X0X0X0X0X0X0X0X0X0X0X0X0X",
"0X0X0X0X0X0X0X0X0X0X0X0X0X0X0X0X0X0X0X0X0X0X0X0X0X0X0X0X0X0X0X0X0X0X  0X0X0X0X0X0X0X0X0X0X0X0X0X0X0X0X0X0X0X0X0X0X0X0X0X0X0X0X0X0X0X0X0X0X0X0X0X0X0X0X0X0X0X0X0X",
"0X0X0X0X0X0X0X0X0X0X0X0X0X0X0X0X0X0X0X0X0X0X0X0X0X0X0X0X  0X0X0X0X. 1 0X0X0X0X0X0X0X0X0X0X0X0X0X0X0X0X0X0X0X0X0X0X0X0X0X0X0X0X0X0X0X0X0X0X0X0X0X0X0X0X0X0X0X0X0X",
"0X0X0X0X0X0X0X0X0X0X0X0X0X0X0X0X0X0X0X0X0X0X0X0X0X0X0X0X0X    0Xo H 0X0X0X0X0X0X0X0X0X0X0X0X0X0X0X0X0X0X0X0X0X0X0X0X0X0X0X0X0X0X0X0X0X0X0X0X0X0X0X0X0X0X0X0X0X0X",
"0X0X0X0X0X0X0X0X0X0X0X0X0X0X0X0X0X0X0X0X0X0X0X0X0X    0X0X    . H  X[.}.[.[.[.[.[.[.[.[.}.}.0X0X0X0X0X0X0X0X0X0X0X0X0X0X0X0X0X0X0X0X0X0X0X0X0X0X0X0X0X0X0X0X0X0X",
"0X0X0X0X0X0X0X0X0X0X0X0X0X0X0X0X0X0X0X0X0X0X0X0X0X0X          P  X_ Q ! ! ! ! Q Q ! ! Q ~ }.}.0X0X0X0X0X0X0X0X0X0X0X0X0X0X0X0X0X0X0X0X0X0X0X0X0X0X0X0X0X0X0X0X0X",
"0X0X0X0X0X0X0X0X0X0X0X0X0X0X0X0X0X0X0X            0X0X      ^ _ ~ ! ! Q / u.^ R y.9.Q ! ! ! ~ }.0X0X0X0X0X0X0X0X0X0X0X0X0X0X0X0X0X0X0X0X0X0X0X0X0X0X0X0X0X0X0X0X",
"0X0X0X0X0X0X0X0X0X0X0X0X0X0X0X0X0X0X0X0X0X                I _ ~ Q Q ! ~ ~ ' a.s.9.( ~ ! ! Q ! ! [.0X0X0X0X0X0X0X0X0X0X0X0X0X0X0X0X0X0X0X0X0X0X0X0X0X0X0X0X0X0X0X",
"0X0X0X0X0X0X0X0X0X0X0X0X0X0X0X0X0X0X0X0X0X0X              5._ Q ~ ) Q c n f [ [ } U c n ~ ! Q Q [.0X0X0X0X0X0X0X0X0X0X0X0X0X0X0X0X0X0X0X0X0X0X0X0X0X0X0X0X0X0X0X",
"0X0X0X0X0X0X0X0X0X0X0X0X0X0X0X0X0X0X0X0X0X0X0X          H ) ~ ~ K b b g , 4 , g < < g h K ~ ) ! ) [.0X0X0X0X0X0X0X0X0X0X0X0X0X0X0X0X0X0X0X0X0X0X0X0X0X0X0X0X0X0X",
"0X0X0X0X0X0X0X0X0X0X0X0X0X0X0X0X0X0X0X0X0X0X0X  # G G G [.~ Q Y b > - - 5 6 6 5 N 5 < + ; m 2 Q Q ) [.0X0X0X0X0X0X0X0X0X0X0X0X0X0X0X0X0X0X0X0X0X0X0X0X0X0X0X0X0X",
"0X0X0X0X0X0X0X0X0X0X0X0X0X0X0X0X0X0X0X0X        2 oX{.{.Q ! ) 3 - +     t :.:.t i i *     - . Q ~ Q ) 5.5.0X0X0X0X0X0X0X0X0X0X0X0X0X0X0X0X0X0X0X0X0X0X0X0X0X0X0X",
"0X0X0X0X0X0X0X0X0X0X0X0X0X0X0X0X0X0X0X          @ L ~ Q ~ T R 1       &   .. .  9 7   X   . h J Q ! Q Q Q 0X0X0X0X0X0X0X0X0X0X0X0X0X0X0X0X0X0X0X0X0X0X0X0X0X0X0X",
"0X0X0X0X0X0X0X0X0X0X0X0X0X0X0X0X0X0X0X0X0X0X      O ! T Q g > g -   $ %.  O   %     0  .  h ,   J ! T Q ! 0X0X0X0X0X0X0X0X0X0X0X0X0X0X0X0X0X0X0X0X0X0X0X0X0X0X0X",
"0X0X0X0X0X0X0X0X0X0X0X0X0X0X0X0X0X0X0X0X0X        . h , , g O       & o.  {.&.,Xw n 7.8       , g , , n 0X0X0X0X0X0X0X0X0X0X0X0X0X0X0X0X0X0X0X0X0X0X0X0X0X0X0X0X",
"0X0X0X0X0X0X0X0X0X0X0X0X0X0X0X0X0X0X0X0X    0X0X0X0X0Xg g g h +       % 2X>X2X% ;.5X-.o           ; 0X0X0X0X0X0X0X0X0X0X0X0X0X0X0X0X0X0X0X0X0X0X0X0X0X0X0X0X0X0X",
"0X0X0X0X0X0X0X0X0X0X0X0X0X0X0X0X0X0X0X0X0X0X0X0X0X0X0X0X0XO .         X q *.2X<X<.8 %         0X0X0X0X0X0X0X0X0X0X0X0X0X0X0X0X0X0X0X0X0X0X0X0X0X0X0X0X0X0X0X0X0X",
"0X0X0X0X0X0X0X0X0X0X0X0X0X0X0X0X0X0X0X0X0X0X0X0X0X0X  0X0X                o % q & .             0X0X0X  0X0X0X0X0X0X0X0X0X0X0X0X0X0X0X0X0X0X0X0X0X0X0X0X0X0X0X0X",
"0X0X0X0X0X0X0X0X0X0X0X0X0X0X0X0X0X0X0X0X0X0X0X0X0X0X                      9 -.1.+.&                   0X0X0X0X0X0X0X0X0X0X0X0X0X0X0X0X0X0X0X0X0X0X0X0X0X0X0X0X0X",
"0X0X0X0X0X0X0X0X0X0X0X0X0X0X0X0X0X0X0X0X0X0X0X0X0X0X0Xl > .               9 -.1.+.&           0X-   0X0X0X0X0X0X0X0X0X0X0X0X0X0X0X0X0X0X0X0X0X0X0X0X0X0X0X0X0X0X",
"0X0X0X0X0X0X0X0X0X0X0X0X0X0X0X0X0X0X0X0X0X0X0X0X0X0X0X0X0X.                                   0X0X0X0X0X0X0X0X0X0X0X0X0X0X0X0X0X0X0X0X0X0X0X0X0X0X0X0X0X0X0X0X0X",
"0X0X0X0X0X0X0X0X0X0X0X0X0X0X0X0X0X0X0X0X0X0X0X0X0X0XQ.C.l .                                     h Z 0X0X0X0X0X0X0X0X0X0X0X0X0X0X0X0X0X0X0X0X0X0X0X0X0X0X0X0X0X0X",
"0X0X0X0X0X0X0X0X0X0X0X0X0X0X0X0X0X0X0X0X0X0X0XQ.R.C.W.E.    + .                           O + - k.A z 0X0X0X0X0X0X0X0X0X0X0X0X0X0X0X0X0X0X0X0X0X0X0X0X0X0X0X0X0X",
"0X0X0X0X0X0X0X0X0X0X0X0X0X0X0X0X0X0X0X0X0XQ.Q.).k.. M.v.O . N.C                         O Z W.).; , V B 0X0X0X0X0X0X0X0X0X0X0X0X0X0X0X0X0X0X0X0X0X0X0X0X0X0X0X0X",
"0X0X0X0X0X0X0X0X0X0X0X0X0X0X0X0X0X0X0XM.E.!.Q.!.Q.A   . Z.T.).M   ; C y                 . Z Q.W.Z.B v.V.l 0X0X0X0X0X0X0X0X0X0X0X0X0X0X0X0X0X0X0X0X0X0X0X0X0X0X0X",
"0X0X0X0X0X0X0X0X0X0X0X0X0X0X0X0XQ.Q.Q.Z V v.E.!.T.b.x.z.Q.!./.P.< . x p   r     = s * . V m.W.Q.T.V x.(.v.z 0X0X0X0X0X0X0X0X0X0X0X0X0X0X0X0X0X0X0X0X0X0X0X0X0X0X",
"0X0X0X0X0X0X0X0X0X0X0X0X0X0Xh.(.(.Q.Q.B l B v.T.v.Z h.Y.Q.!.J.&XL.A l y   p u   = s y 6 S |.*X`.h.h.Y.).C.l 0X0X0X0X0X0X0X0X0X0X0X0X0X0X0X0X0X0X0X0X0X0X0X0X0X0X",
"0X0X0X0X0X0X0X0X0X0X0X0X0X~.I.Z.h.T.Z.v.V z Z h.Z z B h.E.W.` OXJ.F q.u = u a r o = w.q.V 6.+X`.V x.P.T.b.l Z 0X0X0X0X0X0X0X0X0X0X0X0X0X0X0X0X0X0X0X0X0X0X0X0X0X",
"0X0X0X0X0X0X0X0X>X0X0X0X0.8.K.~.k.j.M.z.V B z z z B B z E.!.V.H.S { d.a f.a r a e.d r.p.V A.K.!.Z V v.v.Z z Z Q.0X0X0X0X0X0X0X0X0X0X0X0X0X0X0X0X0X0X0X0X0X0X0X0X",
"0X0X0X0X0X0X0X0X:X0X,.,.2X5X;XK.P.z l.z B B B B B B B V Z.E./.I.j.{ i.>.9Xa u.u g.f.w.p.Z P.U.T.z.z A h.z z V Q.0X0X0X0X0X0X0X0X0X0X0X0X0X0X0X0X0X0X0X0X0X0X0X0X",
"0X0X0X0X0X0X0X>X0X0X#.$.<.:X3X3.m.z z B B B B B 0X0XB B v.E._.'.z.] w.e.9Xp 7Xq.g.s.d | Z G.`.V.N.A z z B B k.Q.!.V C.0X0X0X0X-X>X0X0X0X0X0X0X0X0X0X0X0X0X0X0X0X",
"0X0X0X0X0X0X0X0X:X*.o.%.%.,.3X2.m.z B B B 0X0X0X0X0XB B b.W.F.$XD.M y s g.u 7Xe.f.u.y 5 V .X@XC.N.A z B B Z N.E.Q.Z v.^.8.3X=X0X0X0X0X0X0X0X0X0X0X0X0X0X0X0X0X0X",
"0X0X0X0X0X0X0X>X0X0XO.#.0X0X4X2.m.0X0X0X0X0X0X0X0X0XB B b.W.A.5.W M p u u u 8Xq.r u p [ V ~ }.V.N.A B B B z B v.b.B l.~.8.4X=Xo.:X>X>X0X0X0X0X0X0X0X0X0X0X0X0X0X",
"0X0X0X0X0X0X0X0X0X>X0X0X=X0X0X0X0X0X0X0X0X0X0X0X0X0X0XB b.E.N.M.l.N p u a a p p p p d f Z M.Q.M.M.0X0XB B B B B B B x.I.R X.o.%.o.0X0X0X0X0X0X0X0X0X0X0X0X0X0X0X",
"0X0X0X0X0X0X0X0X>X0X0X0X0X0X0X0X0X0X0X0X0X0X0X0X0X0X0XB b.M.M.B.j.h < M , ^ ^ ^ / n < h Z N.m.M.M.0X0Xz B B B B B B Z >.<.#.#.O.,X>X>X0X0X0X0X0X0X0X0X0X0X0X0X0X",
"0X0X0X0X0X0X0X0X0X0X0X0X0X0X0X0X0X0X0X0X0X0X0X0X0X0X0Xx.M.M.S.@XJ., . + L @ @ # P 3 . - S |.&XC.M.0X0X0X0X0X0X0XB B V 0X0X1X,.O.0X0X0X0X0X0X0X0X0X0X0X0X0X0X0X0X",
"0X0X0X0X0X0X0X0X0X0X0X0X0X0X0X0X0X0X0X0X0X0X0X0X0X0X0XM.b.B.W OXJ.,   o ~     2 ~ 3   O C 4.+XC.n.0X0X0X0X0X0X0X0X0X0X0X0X0X0X0X>X0X0X0X0X0X0X0X0X0X0X0X0X0X0X0X",
"0X0X0X0X0X0X0X0X0X0X0X0X0X0X0X0X0X0X0X0X0X0X0X0X0X0X0XY.b.M.c.A.b +   o Q     @ Q 2   , Z c.S.b.Y.0X0X0X0X0X0X0X0X0X0X0X0X0X0X0X0X0X0X0X0X0X0X0X0X0X0X0X0X0X0X0X",
"0X0X0X0X0X0X0X0X0X0X0X0X0X0X0X0X0X0X0X0X0X0X0X0X0X0X0X!.T.n.P.l.+   - : ~ 2 2 1 v 3 - l Z I.B.n.T.!.0X0X0X0X0X0X0X0X0X0X0X0X0X0X0X0X0X0X0X0X0X0X0X0X0X0X0X0X0X0X",
"0X0X0X0X0X0X0X0X0X0X0X0X0X0X0X0X0X0X0X0X0X0X0X0X0X0X0XQ._.L.V.Z > - h h Y R R R j , g g B x.H.L.Q.Q.0X0X0X0X0X0X0X0X0X0X0X0X0X0X0X0X0X0X0X0X0X0X0X0X0X0X0X0X0X0X",
"0X0X0X0X0X0X0X0X0X0X0X0X0X0X0X0X0X0X0X0X0X0X0X0X0X0X0XQ.6.@XA.> > > > > > ; ; , g g g g g B 6.@X].E.0X0X0X0X0X0X0X0X0X0X0X0X0X0X0X0X0X0X0X0X0X0X0X0X0X0X0X0X0X0X",
"0X0X0X0X0X0X0X0X0X0X0X0X0X0X0X0X0X0X0X0X0X0X0X0X0X0XQ.Q.W 5.D -               ; , , > > , z Q [.R.Q.0X0X0X0X0X0X0X0X0X0X0X0X0X0X0X0X0X0X0X0X0X0X0X0X0X0X0X0X0X0X",
"0X0X0X0X0X0X0X0X0X0X0X0X0X0X0X0X0X0X0X0X0X0X0X0X0X0XT.b.M.Z h , h -   . h , h .           . B v.b.T.Q.Q.0X0X0X0X0X0X0X0X0X0X0X0X0X0X0X0X0X0X0X0X0X0X0X0X0X0X0X0X",
"0X0X0X0X0X0X0X0X0X0X0X0X0X0X0X0X0X0X0X0X0X0X0X0X0XQ.Q.b.Z h K Q ! n > ;   g g , , , , g , , B M.M.T.Q.Q.0X0X0X0X0X0X0X0X0X0X0X0X0X0X0X0X0X0X0X0X0X0X0X0X0X0X0X0X",
"0X0X0X0X0X0X0X0X0X0X0X0X0X0X0X0X0X0X0X0X0X0X0X0X0XE.M.M.B K Q Q Q Q m , >   , h h h ;     . h B v.M.T.Q.Q.0X0X0X0X0X0X0X0X0X0X0X0X0X0X0X0X0X0X0X0X0X0X0X0X0X0X0X",
"0X0X0X0X0X0X0X0X0X0X0X0X0X0X0X0X0X0X0X0X0X0X0X0XQ.E.b.A E ! Q _ [.6.Q n , ; O O O . O > ; ; , z b.M.Y.!.Q.0X0X0X0X0X0X0X0X0X0X0X0X0X0X0X0X0X0X0X0X0X0X0X0X0X0X0X",
"0X0X0X0X0X0X0X0X0X0X0X0X0X0X0X0X0X0X0X0X0X0X0XU.E.C.A h Q ! 6.{. X{.) Q n h ;     . > g h m , h Z v.Z.T.Q.0X0X0X0X0X0X0X0X0X0X0X0X0X0X0X0X0X0X0X0X0X0X0X0X0X0X0X",
"0X0X0X0X0X0X0X0X0X0X0X0X0X0X0X0X0X0X0X0X0X0X0X%X_.l.h , Q K Y R Y `  X_ ~ , h . O > h g K ! n , h Z x.P.W.0X0X0X0X0X0X0X0X0X0X0X0X0X0X0X0X0X0X0X0X0X0X0X0X0X0X0X",
"0X0X0X0X0X0X0X0X0X0X0X0X0X0X0X0X0X0X0X0X0X0X0X0X&XG.W g ! g , > > j _ 5.! , h   ; h , c 6.Q ~ , > h j.R.].0X0X0X0X0X0X0X0X0X0X0X0X0X0X0X0X0X0X0X0X0X0X0X0X0X0X0X",
"0X0X0X0X0X0X0X0X0X0X0X0X0X0X0X0X0X0X0X0X0X0X0X0X0X6X&X, L j , , g , k ~ K g 0X. + g , j Q Q ! c , h z.%X6X0X0X0X0X0X0X0X0X0X0X0X0X0X0X0X0X0X0X0X0X0X0X0X0X0X0X0X",
"0X0X0X0X0X0X0X0X0X0X0X0X0X0X0X0X0X0X0X0X0X0X0X0X0X0X0Xg > > , h g , k L , g 0X0X  + h , g ~ ! ~ k h XX0X0X0X0X0X0X0X0X0X0X0X0X0X0X0X0X0X0X0X0X0X0X0X0X0X0X0X0X0X",
"0X0X0X0X0X0X0X0X0X0X0X0X0X0X0X0X0X0X0X0X0X0X0X0X0X0X0X0X    ; g , g ;   g , 0X0X  - h , k Q ! ~ j ; 0X0X0X0X0X0X0X0X0X0X0X0X0X0X0X0X0X0X0X0X0X0X0X0X0X0X0X0X0X0X",
"0X0X0X0X0X0X0X0X0X0X0X0X0X0X0X0X0X0X0X0X0X0X0X0X0X0X0X0X, g O       . g , 0X0X0X0X  + h , k Q ~ j , 0X0X0X0X0X0X0X0X0X0X0X0X0X0X0X0X0X0X0X0X0X0X0X0X0X0X0X0X0X0X",
"0X0X0X0X0X0X0X0X0X0X0X0X0X0X0X0X0X0X0X0X0X0X0X0X0X0X0Xh h h , , , , , h g   0X0X0X  + h , g ~ ~ j , 0X0X0X0X0X0X0X0X0X0X0X0X0X0X0X0X0X0X0X0X0X0X0X0X0X0X0X0X0X0X",
"0X0X0X0X0X0X0X0X0X0X0X0X0X0X0X0X0X0X0X0X0X0X0X0X0X0X0XO O . O O O O + h ,   0X0X0X  + h g g k c g h 0X0X0X0X0X0X0X0X0X0X0X0X0X0X0X0X0X0X0X0X0X0X0X0X0X0X0X0X0X0X",
"0X0X0X0X0X0X0X0X0X0X0X0X0X0X0X0X0X0X0X0X0X0X0X0X0X0X0X                - ,   0X0X0X0X. ; h h g g h ; . 0X0X0X0X0X0X0X0X0X0X0X0X0X0X0X0X0X0X0X0X0X0X0X0X0X0X0X0X0X",
"0X0X0X0X0X0X0X0X0X0X0X0X0X0X0X0X0X0X0X0X0X0X0X0X0X0X0X                  h   0X0X0X0X    - - + - -       0X0X0X0X0X0X0X0X0X0X0X0X0X0X0X0X0X0X0X0X0X0X0X0X0X0X0X0X",
"0X0X0X0X0X0X0X0X0X0X0X0X0X0X0X0X0X0X0X0X0X0X0X0X0X0X0X0X                -   0X0X0X                      0X0X0X0X0X0X0X0X0X0X0X0X0X0X0X0X0X0X0X0X0X0X0X0X0X0X0X0X",
"0X0X0X0X0X0X0X0X0X0X0X0X0X0X0X0X0X0X0X0X0X0X0X0X0X0X0X0X0X  . O + .   O   0X0X0X0X                      0X0X0X0X0X0X0X0X0X0X0X0X0X0X0X0X0X0X0X0X0X0X0X0X0X0X0X0X",
"0X0X0X0X0X0X0X0X0X0X0X0X0X0X0X0X0X0X0X0X0X0X0X0X0X0X0X0X0X  ; g , - O g 0X0X0X0X0X                      0X0X0X0X0X0X0X0X0X0X0X0X0X0X0X0X0X0X0X0X0X0X0X0X0X0X0X0X",
"0X0X0X0X0X0X0X0X0X0X0X0X0X0X0X0X0X0X0X0X0X0X0X0X0X0X0X0Xg .       + h g 0X0X0X0X0X0X                    0X0X0X0X0X0X0X0X0X0X0X0X0X0X0X0X0X0X0X0X0X0X0X0X0X0X0X0X",
"0X0X0X0X0X0X0X0X0X0X0X0X0X0X0X0X0X0X0X0X0X0X0X0X0X0X0X0X, , , , , g , g 0X0X0X0X0X0X0X              0X0X0X0X0X0X0X0X0X0X0X0X0X0X0X0X0X0X0X0X0X0X0X0X0X0X0X0X0X0X",
"0X0X0X0X0X0X0X0X0X0X0X0X0X0X0X0X0X0X0X0X0X0X0X0X0X0X0Xg g g g g , g g , 0X0X0X0X0X0X0X0X            0X0X0X0X0X0X0X0X0X0X0X0X0X0X0X0X0X0X0X0X0X0X0X0X0X0X0X0X0X0X",
"0X0X0X0X0X0X0X0X0X0X0X0X0X0X0X0X0X0X0X0X0X0X0X0X0X0X0Xg h h h h h g , g 0X0X0X0X0X0X0X0X0X            0X0X0X0X0X0X0X0X0X0X0X0X0X0X0X0X0X0X0X0X0X0X0X0X0X0X0X0X0X",
"0X0X0X0X0X0X0X0X0X0X0X0X0X0X0X0X0X0X0X0X0X0X0X0X0X0X0X0XO O O O + - 0X0X0X0X0X0X0X0X0X0X0X                  0X0X0X0X0X0X0X0X0X0X0X0X0X0X0X0X0X0X0X0X0X0X0X0X0X0X",
"0X0X0X0X0X0X0X0X0X0X0X0X0X0X0X0X0X0X0X0X0X0X0X0X0X0X0X0X0X0X0X0X0X0X0X0X0X0X0X0X0X0X0X0X0X                  0X0X0X0X0X0X0X0X0X0X0X0X0X0X0X0X0X0X0X0X0X0X0X0X0X0X",
"0X0X0X0X0X0X0X0X0X0X0X0X0X0X0X0X0X0X0X0X0X0X0X0X0X0X0X0X0X0X0X0X0X0X0X0X0X0X0X0X0X0X0X0X0X                0X0X0X0X0X0X0X0X0X0X0X0X0X0X0X0X0X0X0X0X0X0X0X0X0X0X0X",
"0X0X0X0X0X0X0X0X0X0X0X0X0X0X0X0X0X0X0X0X0X0X0X0X0X0X0X0X0X0X0X0X0X0X0X0X0X0X0X0X0X0X0X0X0X0X0X0X0X0X0X0X0X0X0X0X0X0X0X0X0X0X0X0X0X0X0X0X0X0X0X0X0X0X0X0X0X0X0X0X",
"0X0X0X0X0X0X0X0X0X0X0X0X0X0X0X0X0X0X0X0X0X0X0X0X0X0X0X0X0X0X0X0X0X0X0X0X0X0X0X0X0X0X0X0X0X0X0X0X0X0X0X0X0X0X0X0X0X0X0X0X0X0X0X0X0X0X0X0X0X0X0X0X0X0X0X0X0X0X0X0X",
"0X0X0X0X0X0X0X0X0X0X0X0X0X0X0X0X0X0X0X0X0X0X0X0X0X0X0X0X0X0X0X0X0X0X0X0X0X0X0X0X0X0X0X0X0X0X0X0X0X0X0X0X0X0X0X0X0X0X0X0X0X0X0X0X0X0X0X0X0X0X0X0X0X0X0X0X0X0X0X0X",
"0X0X0X0X0X0X0X0X0X0X0X0X0X0X0X0X0X0X0X0X0X0X0X0X0X0X0X0X0X0X0X0X0X0X0X0X0X0X0X0X0X0X0X0X0X0X0X0X0X0X0X0X0X0X0X0X0X0X0X0X0X0X0X0X0X0X0X0X0X0X0X0X0X0X0X0X0X0X0X0X",
"0X0X0X0X0X0X0X0X0X0X0X0X0X0X0X0X0X0X0X0X0X0X0X0X0X0X0X0X0X0X0X0X0X0X0X0X0X0X0X0X0X0X0X0X0X0X0X0X0X0X0X0X0X0X0X0X0X0X0X0X0X0X0X0X0X0X0X0X0X0X0X0X0X0X0X0X0X0X0X0X",
"0X0X0X0X0X0X0X0X0X0X0X0X0X0X0X0X0X0X0X0X0X0X0X0X0X0X0X0X0X0X0X0X0X0X0X0X0X0X0X0X0X0X0X0X0X0X0X0X0X0X0X0X0X0X0X0X0X0X0X0X0X0X0X0X0X0X0X0X0X0X0X0X0X0X0X0X0X0X0X0X",
"0X0X0X0X0X0X0X0X0X0X0X0X0X0X0X0X0X0X0X0X0X0X0X0X0X0X0X0X0X0X0X0X0X0X0X0X0X0X0X0X0X0X0X0X0X0X0X0X0X0X0X0X0X0X0X0X0X0X0X0X0X0X0X0X0X0X0X0X0X0X0X0X0X0X0X0X0X0X0X0X",
"0X0X0X0X0X0X0X0X0X0X0X0X0X0X0X0X0X0X0X0X0X0X0X0X0X0X0X0X0X0X0X0X0X0X0X0X0X0X0X0X0X0X0X0X0X0X0X0X0X0X0X0X0X0X0X0X0X0X0X0X0X0X0X0X0X0X0X0X0X0X0X0X0X0X0X0X0X0X0X0X"
};
