/* XPM */
static char *_2302_d4116cf8d075d153853a77bad92c485d0ca7c35b83fd53575ddd0748e31e8f39[] = {
/* columns rows colors chars-per-pixel */
"80 80 199 2 ",
"   c #000000",
".  c #0C0100",
"X  c #050C00",
"o  c #130100",
"O  c #1B0000",
"+  c #130E00",
"@  c #180D00",
"#  c #001700",
"$  c #0A1500",
"%  c #011409",
"&  c #041B00",
"*  c #1D1001",
"=  c #081818",
"-  c #240000",
";  c #2B0000",
":  c #270900",
">  c #340100",
",  c #3D0000",
"<  c #3D0909",
"1  c #281303",
"2  c #371F01",
"3  c #0C2E00",
"4  c #0F3800",
"5  c #0E3005",
"6  c #183E00",
"7  c #002312",
"8  c #0A3310",
"9  c #2D3C00",
"0  c #2A2C2F",
"q  c #3E2020",
"w  c #332D2D",
"e  c #32302F",
"r  c #243232",
"t  c #420000",
"y  c #4B0000",
"u  c #440A01",
"i  c #4C0A01",
"p  c #540000",
"a  c #5C0100",
"s  c #5D0A02",
"d  c #520A0F",
"f  c #4C1102",
"g  c #4B1D01",
"h  c #451808",
"j  c #521402",
"k  c #521C02",
"l  c #581805",
"z  c #440A14",
"x  c #4A0711",
"c  c #481313",
"v  c #521313",
"b  c #640000",
"n  c #6C0201",
"m  c #6F0C03",
"M  c #730201",
"N  c #7C0301",
"B  c #740C03",
"V  c #7A0C03",
"C  c #641101",
"Z  c #7A1A01",
"A  c #761F04",
"S  c #412206",
"D  c #4C2807",
"F  c #5C2402",
"G  c #552A03",
"H  c #5F2D03",
"J  c #562D08",
"K  c #453D01",
"L  c #5A3008",
"P  c #5F3904",
"I  c #522A19",
"U  c #632D03",
"Y  c #692301",
"T  c #732402",
"R  c #752F04",
"E  c #7E2503",
"W  c #653303",
"Q  c #693504",
"!  c #633904",
"~  c #6C3A04",
"^  c #64350A",
"/  c #67380E",
"(  c #743B07",
")  c #783C06",
"_  c #743D09",
"`  c #783502",
"'  c #7E2612",
"]  c #683C11",
"[  c #472827",
"{  c #402425",
"}  c #5A2421",
"|  c #792020",
" . c #184000",
".. c #1C4900",
"X. c #1D5602",
"o. c #155B00",
"O. c #1C5C0A",
"+. c #1C5608",
"@. c #254700",
"#. c #274800",
"$. c #384A00",
"%. c #215301",
"&. c #215109",
"*. c #176105",
"=. c #166B1A",
"-. c #197F1C",
";. c #276C00",
":. c #004724",
">. c #166A21",
",. c #0E7D2D",
"<. c #0F7C25",
"1. c #127223",
"2. c #107927",
"3. c #007A3E",
"4. c #7C410A",
"5. c #7D4D0A",
"6. c #744409",
"7. c #65401D",
"8. c #764813",
"9. c #47600F",
"0. c #5E4732",
"q. c #664626",
"w. c #59514E",
"e. c #60564D",
"r. c #58626E",
"t. c #840502",
"y. c #8B0502",
"u. c #8A0C02",
"i. c #810803",
"p. c #920602",
"a. c #9E0603",
"s. c #950803",
"d. c #9B0A03",
"f. c #8C1C03",
"g. c #9A1303",
"h. c #971A02",
"j. c #A40202",
"k. c #AB0603",
"l. c #A40A03",
"z. c #AD0B04",
"x. c #B30503",
"c. c #BB0504",
"v. c #B20C04",
"b. c #BA0E04",
"n. c #A31203",
"m. c #A41802",
"M. c #BD1104",
"N. c #B51D04",
"B. c #BB1E04",
"V. c #B41204",
"C. c #8B2005",
"Z. c #872304",
"A. c #8A3608",
"S. c #983706",
"D. c #A22409",
"F. c #BA2104",
"G. c #B02404",
"H. c #A03400",
"J. c #BA3204",
"K. c #C20D04",
"L. c #C90E04",
"P. c #C90604",
"I. c #C31204",
"U. c #CC1404",
"Y. c #C31E04",
"T. c #CE1C04",
"R. c #D31604",
"E. c #DC1504",
"W. c #D51804",
"Q. c #DA1904",
"!. c #E51B04",
"~. c #EC1A04",
"^. c #E81705",
"/. c #C82C02",
"(. c #D52504",
"). c #84440A",
"_. c #88460A",
"`. c #8C4A0C",
"'. c #914D0C",
"]. c #9D580A",
"[. c #A65609",
"{. c #A56F0A",
"}. c #A87509",
"|. c #B57808",
" X c #C04405",
".X c #CA5D05",
"XX c #C86F04",
"oX c #C46302",
"OX c #CA7104",
"+X c #DB7B04",
"@X c #038C3B",
"#X c #0A8638",
"$X c #029244",
"%X c #019A4D",
"&X c #009149",
"*X c #069950",
"=X c #01A353",
"-X c #00A55A",
";X c None",
/* pixels */
";X;X;X;X;X;X;X;X;X;X;X;X;X;X;X;X;X;X;X;X;X;X;X;X;X;X;X;X;X;X;X;X;X;X;X;X;X;X;X;X;X;X;X;X;X;X;X;X;X;X;X;X;X;X;X;X;X;X;X;X;X;X;X;X;X;X;X;X;X;X;X;X;X;X;X;X;X;X;X;X",
";X;X;X;X;X;X;X;X;X;X;X;X;X;X;X;X;X;X;X;X;X;X;X;X;X;X;X;X;X;X;X;X;X;X;X    ;X;X;X;X;X;X;X        ;X;X;X;X;X;X;X;X;X;X;X;X;X;X;X;X;X;X;X;X;X;X;X;X;X;X;X;X;X;X;X;X",
";X;X;X;X;X;X;X;X;X;X;X;X;X;X;X;X;X;X;X;X;X;X;X;X;X;X;X;X;X;X;X;X;X;X    ;X;X;X;X              ;X;X;X;X;X;X;X;X;X;X;X;X;X;X;X;X;X;X;X;X;X;X;X;X;X;X;X;X;X;X;X;X;X",
";X;X;X;X;X;X;X;X;X;X;X;X;X;X;X;X;X;X;X;X;X;X;X;X;X;X;X;X;X;X;X;X;X;X  ;X;X;X;X;X        ;X;X;X;X;X;X;X;X;X;X;X;X;X;X;X;X;X;X;X;X;X;X;X;X;X;X;X;X;X;X;X;X;X;X;X;X",
";X;X;X;X;X;X;X;X;X;X;X;X;X;X;X;X;X;X;X;X;X;X;X;X;X;X;X;X;X;X;X;X;X;X  ;X;X;X;X          ;X;X;X;X;X;X;X;X;X;X;X;X;X;X;X;X;X;X;X;X;X;X;X;X;X;X;X;X;X;X;X;X;X;X;X;X",
";X;X;X;X;X;X;X;X;X;X;X;X;X;X;X;X;X;X;X;X;X;X;X;X;X;X  ;X;X    ;X;X;X  ;X;X;X      ;X;X;X            ;X;X;X;X;X;X;X;X;X;X;X;X;X;X;X;X;X;X;X;X;X;X;X;X;X;X;X;X;X;X",
";X;X;X;X;X;X;X;X;X;X;X;X;X;X;X;X;X;X;X;X;X;X;X;X;X;X;X  ;X    ;X;X    ;X;X              ;X;X;X;X;X;X;X;X;X;X;X;X;X;X;X;X;X;X;X;X;X;X;X;X;X;X;X;X;X;X;X;X;X;X;X;X",
";X;X;X;X;X;X;X;X;X;X;X;X;X;X;X;X`.`.`.`.`.`.`.`.'.;X;X                                        ;X;X;X;X;X;X;X;X;X;X;X;X;X;X;X;X;X;X;X;X;X;X;X;X;X;X;X;X;X;X;X;X;X",
";X;X;X;X;X;X;X;X;X;X;X;X;X;X;X;X( ( ( ( ( ` ) ( ( ).`.L L ^ 1             + ^ L L L L ^ D         ;X;X;X;X;X;X;X;X;X;X;X;X;X;X;X;X;X;X;X;X;X;X;X;X;X;X;X;X;X;X;X",
";X;X;X;X;X;X;X;X;X;X;X;X;X;X;X;XW W W U W 0.^ U U ~ 4.)._.'.^ S S S 2 S S J `.)._.)._.'.6.                ;X;X;X;X;X;X;X;X;X;X;X;X;X;X;X;X;X;X;X;X;X;X;X;X;X;X;X",
";X;X;X;X;X;X;X;X;X;X;X;X;X;X;X;X;X;X] 7.q.w.] ~ Q Q W W W H ) '.`.'.'.'.`.).W Q Q Q U F k ;X;X;X          ;X;X;X;X;X;X;X;X;X;X;X;X;X;X;X;X;X;X;X;X;X;X;X;X;X;X;X",
";X;X;X;X;X;X;X;X;X;X;X;X;X;X;X;X;X;X;Xr.w.W W U U W W Q Q Q Q W W W W W W Q W U U Q j > t ;X;X;X;X;X;X;X;X;X;X;X;X;X;X;X;X;X;X;X;X;X;X;X;X;X;X;X;X;X;X;X;X;X;X;X",
";X;X;X;X;X;X;X;X;X;X;X;X;X;X;X;X;X;X;X;X, e < t , t u Q Q Q Q Q Q Q ~ Q Q ~ U , , t t , ;X;X;X;X;X;X;X;X;X;X;X;X;X;X;X;X;X;X;X;X;X;X;X;X;X;X;X;X;X;X;X;X;X;X;X;X",
";X;X;X;X;X;X;X;X;X;X;X;X;X;X;X;X;X;X;X;X;X;X< t , , t y i i i i i i i i i i i t t , t ;X;X;X;X;X;X;X;X;X;X;X;X;X;X;X;X;X;X;X;X;X;X;X;X;X;X;X;X;X;X;X;X;X;X;X;X;X",
";X;X;X;X;X;X;X;X;X;X;X;X;X;X;X;X;X;X;X;X;X;X;X;X;X;X;X9 @ o . o o o o o o o O y t , ;X;X;X;X;X;X;X;X;X;X;X;X;X;X;X;X;X;X;X;X;X;X;X;X;X;X;X;X;X;X;X;X;X;X;X;X;X;X",
";X;X;X;X;X;X;X;X;X;X;X;X;X;X;X;X;X;X;X;X;X;X;X;X;X;X;X4   # 3 &               - t ;X;X;X;X;X;X;X;X;X;X;X;X;X;X;X;X;X;X;X;X;X;X;X;X;X;X;X;X;X;X;X;X;X;X;X;X;X;X;X",
";X;X;X;X;X;X;X;X;X;X;X;X;X;X;X;X;X;X;X;X;X;X;X;X;X;X;X  : #.;. .                ;X;X;X;X;X;X;X;X;X;X;X;X;X;X;X;X;X;X;X;X;X;X;X;X;X;X;X;X;X;X;X;X;X;X;X;X;X;X;X;X",
";X;X;X;X;X;X;X;X;X;X;X;X;X;X;X;X;X;X;X;X;X;X;X;X;X;X3.% 8.9.O.6 X               ;X;X;X;X;X;X;X;X;X;X;X;X;X;X;X;X;X;X;X;X;X;X;X;X;X;X;X;X;X;X;X;X;X;X;X;X;X;X;X;X",
";X;X;X;X;X;X;X;X;X;X;X;X;X;X;X;X;X;X;X;X;X;X;X;X;X;X% &X%X*X2.%...                ;X;X;X;X;X;X;X;X;X;X;X;X;X;X;X;X;X;X;X;X;X;X;X;X;X;X;X;X;X;X;X;X;X;X;X;X;X;X;X",
";X;X;X;X;X;X;X;X;X;X;X;X;X;X;X;X;X;X;X;X;X;X;X;X;X;X;X-X-.8 % $ X                       ;X;X;X;X;X;X;X;X;X;X;X;X;X;X;X;X;X;X;X;X;X;X;X;X;X;X;X;X;X;X;X;X;X;X;X;X",
";X;X;X;X;X;X;X;X;X;X;X;X;X;X;X;X;X;X;X;X;X;X;X;X;X;X;X7 $                                   ;X;X;X;X;X;X;X;X;X;X;X;X;X;X;X;X;X;X;X;X;X;X;X;X;X;X;X;X;X;X;X;X;X;X",
";X;X;X;X;X;X;X;X;X;X;X;X;X;X;X;X;X;X;X;X;X;X;X;X;X;X;X:.5 X                                 ;X;X;X;X;X;X;X;X;X;X;X;X;X;X;X;X;X;X;X;X;X;X;X;X;X;X;X;X;X;X;X;X;X;X",
";X;X;X;X;X;X;X;X;X;X;X;X;X;X;X;X;X;X;X;X;X;X;X;X;X;X;X3.+.$               o u >       ;X;X;X;X;X;X;X;X;X;X;X;X;X;X;X;X;X;X;X;X;X;X;X;X;X;X;X;X;X;X;X;X;X;X;X;X;X",
";X;X;X;X;X;X;X;X;X;X;X;X;X;X;X;X;X;X;X;X;X;X;X;X;X;X;X                    > b.K.>       ;X    ;X;X;X;X;X;X;X;X;X;X;X;X;X;X;X;X;X;X;X;X;X;X;X;X;X;X;X;X;X;X;X;X;X",
";X;X;X;X;X;X;X;X;X;X;X;X;X;X;X;X;X;X;X;X;X;X;X;X;X;X;X                      O b.b.>       ;X;X;X;X;X;X;X;X;X;X;X;X;X;X;X;X;X;X;X;X;X;X;X;X;X;X;X;X;X;X;X;X;X;X;X",
";X;X;X;X;X;X;X;X;X;X;X;X;X;X;X;X;X;X;X;X;X;X;X;X;X;X;X                        . l.z.s.g.;X;X;X;X;X;X;X;X;X;X;X;X;X;X;X;X;X;X;X;X;X;X;X;X;X;X;X;X;X;X;X;X;X;X;X;X",
";X;X;X;X;X;X;X;X;X;X;X;X;X;X;X;X;X;X;X;X;X;X;X;X;X;X;X                  , i.B B M a.U.E.!.!.!.;X;X;X;X;X;X;X;X;X;X;X;X;X;X;X;X;X;X;X;X;X;X;X;X;X;X;X;X;X;X;X;X;X",
";X;X;X;X;X;X;X;X;X;X;X;X;X;X;X;X;X;X;X;X;X;X;X;X;X;X;X                  a E.L.a.N z.W.W.I.M.M.U.;X;X;X;X;X;X;X;X;X;X;X;X;X;X;X;X;X;X;X;X;X;X;X;X;X;X;X;X;X;X;X;X",
";X;X;X;X;X;X;X;X;X;X;X;X;X;X;X;X;X;X;X;X;X;X;X;X;X;X;X                  s ^.I.a l.U.W.b.z.b.b.U.W.W.;X;X;X;X;X;X;X;X;X;X;X;X;X;X;X;X;X;X;X;X;X;X;X;X;X;X;X;X;X;X",
";X;X;X;X;X;X;X;X;X;X;X;X;X;X;X;X;X;X;X;X;X;X;X;X;X;X;X;X                s Q.U.b l.v.z.z.v.T.W.W.W.W.W.W.;X;X;X;X;X;X;X;X;X;X;X;X;X;X;X;X;X;X;X;X;X;X;X;X;X;X;X;X",
";X;X;X;X;X;X;X;X;X;X;X;X;X;X;X;X;X;X;X;X;X;X;X;X;X;X;X;X                  i W.b l.v.z.v.z.v.z.z.I.W.W.W.W.;X;X;X;X;X;X;X;X;X;X;X;X;X;X;X;X;X;X;X;X;X;X;X;X;X;X;X",
";X;X;X;X;X;X;X;X;X;X;X;X;X;X;X;X;X;X;X;X;X;X;X;X;X;X;X;Xa q =   o l.z.-     O a n l.b.v.z.b.N a s.K.M.W.W.W.;X;X;X;X;X;X;X;X;X;X;X;X;X;X;X;X;X;X;X;X;X;X;X;X;X;X",
";X;X;X;X;X;X;X;X;X;X;X;X;X;X;X;X;X;X;X;X;X;X;X;X;X;X;X;XM { } p   > K.d.m B u.s.a n N s.b.N a t.i.t.v.b.W.Q.W.;X;X;X;X;X;X;X;X;X;X;X;X;X;X;X;X;X;X;X;X;X;X;X;X;X",
";X;X;X;X;X;X;X;X;X;X;X;X;X;X;X;X;X;X;X;X;X;X;X;X;X;X;X;Xv r | k.a u > l.E.E.^.b.p.b p n t.a a z.l.t.b.I.I.M.U.Q.;X;X;X;X;X;X;X;X;X;X;X;X;X;X;X;X;X;X;X;X;X;X;X;X",
";X;X;X;X;X;X;X;X;X;X;X;X;X;X;X;X;X;X;X;X;X;X;X;X;X;X;Xb w 0 Z./.B.U.< g.~.W.I.z.b.p.b a a b a t.v.b.I.U.z.k.K.E.!.;X;X;X;X;X;X;X;X;X;X;X;X;X;X;X;X;X;X;X;X;X;X;X",
";X;X;X;X;X;X;X;X;X;X;X;X;X;X;X;X;X;X;X;X;X;X;X;X;X;X;Xb w x S.|.).W.^.Q.W.I.z.v.v.b.s.b b b b a N M.I.z.v.n.g.m.B.B.;X;X;X;X;X;X;X;X;X;X;X;X;X;X;X;X;X;X;X;X;X;X",
";X;X;X;X;X;X;X;X;X;X;X;X;X;X;X;X;X;X;X;X;X;X;X;X;X;Xb n w d E 5.R W.W.W.W.I.z.v.z.v.b.s.a b b ;X;Xb M z.c.K o.X.X.@./.;X;X;X;X;X;X;X;X;X;X;X;X;X;X;X;X;X;X;X;X;X",
";X;X;X;X;X;X;X;X;X;X;X;X;X;X;X;X;X;X;X;X;X;X;X;X;X;Xa.b w c t.B.T.W.W.W.Q.U.z.z.U.b.v.s.p b b b ;X;Xb M K #X$X$X$X$X$.;X;X;X;X;X;X;X;X;X;X;X;X;X;X;X;X;X;X;X;X;X",
";X;X;X;X;X;X;X;X;X;X;X;X;X;X;X;X;X;X;X;X;X;X;X;X;Xb.z.b w c y.P.L.W.W.W.Q.I.z.U.Q.W.b.l.y.a b a ;X;X;Xa #.@X-X-X-X%X@X%X;X;X;X;X;X;X;X;X;X;X;X;X;X;X;X;X;X;X;X;X",
";X;X;X;X;X;X;X;X;X;X;X;X;X;X;X;X;X;X;X;X;X;X;Xb.z.b.v.b w x g.[.D.W.W.W.W.U.I.W.W.Q.I.z.b.y.b a s.;X;X;X;X@X#X>.,.%X,.1.#X;X;X;X;X;X;X;X;X;X;X;X;X;X;X;X;X;X;X;X",
";X;X;X;X;X;X;X;X;X;X;X;X;X;X;X;X;X;X;X;X;X;Xz.b.b.z.y.b 0 z S.}.4.I.W.W.W.W.W.W.W.W.I.b.z.b.t.a t.b.;X;X;X;X#X&.X.%X=.#.1.;X;X;X;X;X;X;X;X;X;X;X;X;X;X;X;X;X;X;X",
";X;X;X;X;X;X;X;X;X;X;X;X;X;X;X;X;X;X;X;X;Xl d.z.v.y.a b [ d A A.T z.T.W.W.W.W.W.W.W.W.U.v.v.b.N y.b.;X;X;X;X;X;X;X;X-X;X;X;X;X;X;X;X;X;X;X;X;X;X;X;X;X;X;X;X;X;X",
";X;X;X;X;X;X;X;X;X;X;X;X;X;X;X;X;X;X;X%.*.%Xc j.p.a b b z.N N b.z.v.W.W.W.W.W.W.W.W.W.W.T.z.z.v.v.z.v.;X;X;X;X;X;X;X;X;X;X;X;X;X;X;X;X;X;X;X;X;X;X;X;X;X;X;X;X;X",
";X;X;X;X;X;X;X;X;X;X;X;X;X;X;X;X%.@.1.%X$X%X%XI M b b b n d.y.N x.x.U.W.W.W.W.W.W.W.W.W.W.U.b.z.v.v.v.;X;X;X;X;X;X;X;X;X;X;X;X;X;X;X;X;X;X;X;X;X;X;X;X;X;X;X;X;X",
";X;X;X;X;X;X;X;X;X;X;X;X;X;X;X;X;X;X&.#X-X*X<.&.g n b b a a.t.Z .XS.T.W.W.W.W.W.Q.Q.W.W.W.W.v.z.z.v.z.v.;X;X;X;X;X;X;X;X;X;X;X;X;X;X;X;X;X;X;X;X;X;X;X;X;X;X;X;X",
";X;X;X;X;X;X;X;X;X;X;X;X;X;X;X;X;X;X;XX.,.;XO.o.;X;X;X;Xp j.p.A {.8.V.R.W.W.W.W.a.U.Q.W.W.W.b.z.v.z.z.v.;X;X;X;X;X;X;X;X;X;X;X;X;X;X;X;X;X;X;X;X;X;X;X;X;X;X;X;X",
";X;X;X;X;X;X;X;X;X;X;X;X;X;X;X;X;X%.%.;X%.;XO.;X;X;X;X;XN s.N B A.W g.U.Q.W.E.W.C u.U.Q.W.W.V.z.z.v.b.z.;X;X;X;X;X;X;X;X;X;X;X;X;X;X;X;X;X;X;X;X;X;X;X;X;X;X;X;X",
";X;X;X;X;X;X;X;X;X;X;X;X;X;X;X;X;X;X;X%.;X;X%.;X;X;X;X;XK.M y N z.Q l.L.W.T.Y.W.( i p.Q.W.U.b.z.v.z.l.z.;X;X;X;X;X;X;X;X;X;X;X;X;X;X;X;X;X;X;X;X;X;X;X;X;X;X;X;X",
";X;X;X;X;X;X;X;X;X;X;X;X;X;X;X;X;X;X;X;X;X;X;X;X;X;X;Xv.b.N a C ! Q n.z.U.G.R W.` j y.v.v.z.v.z.b.s.b v.;X;X;X;X;X;X;X;X;X;X;X;X;X;X;X;X;X;X;X;X;X;X;X;X;X;X;X;X",
";X;X;X;X;X;X;X;X;X;X;X;X;X;X;X;X;X;X;X;X;X;X;X;X;X;Xv.z.v.x.f.W Q Q oX[.D.g.Q E.V.b N b.z.z.z.v.b.y.b b.v.;X;X;X;X;X;X;X;X;X;X;X;X;X;X;X;X;X;X;X;X;X;X;X;X;X;X;X",
";X;X;X;X;X;X;X;X;X;X;X;X;X;X;X;X;X;X;X;X;X;X;X;X;X;Xc.v.Z.E R Q W Q ].5.f.k.h.A.Q.K.M.U.U.I.U.b.z.z.y.N z.;X;X;X;X;X;X;X;X;X;X;X;X;X;X;X;X;X;X;X;X;X;X;X;X;X;X;X",
";X;X;X;X;X;X;X;X;X;X;X;X;X;X;X;X;X;X;X;X;X;X;X;X;X;X;Xf.Q P Q Q Q Q _ ! f.P.l.g V U.!.Q.Q.Q.Q.M.z.M.l.p l.c.;X;X;X;X;X;X;X;X;X;X;X;X;X;X;X;X;X;X;X;X;X;X;X;X;X;X",
";X;X;X;X;X;X;X;X;X;X;X;X;X;X;X;X;X;X;X;X;X;X;X;X;X;X;X! Q W Q ~ Q ~ Q ! Z j.a.> . n.~.U.L.K.L.v.k.x.j.N j.F.J.;X;X;X;X;X;X;X;X;X;X;X;X;X;X;X;X;X;X;X;X;X;X;X;X;X",
";X;X;X;X;X;X;X;X;X;X;X;X;X;X;X;X;X;X;X;X;X;X;X;X;X;XQ W Q Q U U U F U W 2 s B.l   V (.(.N.G.N.B.F.F.B.F.;XoX;X;X;X;X;X;X;X;X;X;X;X;X;X;X;X;X;X;X;X;X;X;X;X;X;X;X",
";X;X;X;X;X;X;X;X;X;X;X;X;X;X;X;X;X;X;X;X;X;X;X;X;X;XQ Q Q ~ k > t t , , > Y +XOX*   ! +XXXXXXXXXXXXXOXOX;X;X;X;X;X;X;X;X;X;X;X;X;X;X;X;X;X;X;X;X;X;X;X;X;X;X;X;X",
";X;X;X;X;X;X;X;X;X;X;X;X;X;X;X;X;X;X;X;X;X;X;X;X;X;XQ Q ~ i f ^ Q W u t - . * @     X @ + + + + + @ 2 ;X;X;X;X;X;X;X;X;X;X;X;X;X;X;X;X;X;X;X;X;X;X;X;X;X;X;X;X;X",
";X;X;X;X;X;X;X;X;X;X;X;X;X;X;X;X;X;X;X;X;X;X;X;X;X;XQ Q Q F W Q i f t y -         - > ; - - ; ; .     ;X;X;X;X;X;X;X;X;X;X;X;X;X;X;X;X;X;X;X;X;X;X;X;X;X;X;X;X;X",
";X;X;X;X;X;X;X;X;X;X;X;X;X;X;X;X;X;X;X;X;X;X;X;X;X;XW Q Q ~ U i , > , ; o   ;X;X  O - > p y t y > o     ;X;X;X;X;X;X;X;X;X;X;X;X;X;X;X;X;X;X;X;X;X;X;X;X;X;X;X;X",
";X;X;X;X;X;X;X;X;X;X;X;X;X;X;X;X;X;X;X;X;X;X;X;X;X;X;X~ Q ~ f > t j l +   ;X;X;X      . ; ; t t y > o   ;X;X;X;X;X;X;X;X;X;X;X;X;X;X;X;X;X;X;X;X;X;X;X;X;X;X;X;X",
";X;X;X;X;X;X;X;X;X;X;X;X;X;X;X;X;X;X;X;X;X;X;X;X;X;X;XG Q ~ F u f W ~ : ;X;X;X;X;X          ; > , y t . ;X;X;X;X;X;X;X;X;X;X;X;X;X;X;X;X;X;X;X;X;X;X;X;X;X;X;X;X",
";X;X;X;X;X;X;X;X;X;X;X;X;X;X;X;X;X;X;X;X;X;X;X;X;X;X;X;XG Q W Q U , , t t ;X;X;X;X;X;X  . t .   - t t t   ;X;X;X;X;X;X;X;X;X;X;X;X;X;X;X;X;X;X;X;X;X;X;X;X;X;X;X",
";X;X;X;X;X;X;X;X;X;X;X;X;X;X;X;X;X;X;X;X;X;X;X;X;X;X;X  . + ; i u t , t t t ;X;X;X;X;X;X;X. > t -         ; p ; ;X;X;X;X;X;X;X;X;X;X;X;X;X;X;X;X;X;X;X;X;X;X;X;X",
";X;X;X;X;X;X;X;X;X;X;X;X;X;X;X;X;X;X;X;X;X;X;X;X;X;X;X        - y t t t t t ;X;X;X;X;X;X;X;Xo O       > > > y ;   ;X;X;X;X;X;X;X;X;X;X;X;X;X;X;X;X;X;X;X;X;X;X;X",
";X;X;X;X;X;X;X;X;X;X;X;X;X;X;X;X;X;X;X;X;X;X;X;X;X;X;X;X        O , t t t y ;X;X;X;X;X;X;X;X;X  o ; > y t t t > O   ;X;X;X;X;X;X;X;X;X;X;X;X;X;X;X;X;X;X;X;X;X;X",
";X;X;X;X;X;X;X;X;X;X;X;X;X;X;X;X;X;X;X;X;X;X;X;X;X;X;X;X      X O t y > ; ; - ;X;X;X;X;X;X;X;X;XO > > ; , y t y ,   ;X;X;X;X;X;X;X;X;X;X;X;X;X;X;X;X;X;X;X;X;X;X",
";X;X;X;X;X;X;X;X;X;X;X;X;X;X;X;X;X;X;X;X;X;X;X;X;X;X;X;X      o , > > o         ;X;X;X;X;X;X;X;X;X      ; > > > ;     ;X;X;X;X;X;X;X;X;X;X;X;X;X;X;X;X;X;X;X;X;X",
";X;X;X;X;X;X;X;X;X;X;X;X;X;X;X;X;X;X;X;X;X;X;X;X;X;X;X;X;X                    ;X;X;X;X;X;X;X;X;X;X;X                  ;X;X;X;X;X;X;X;X;X;X;X;X;X;X;X;X;X;X;X;X;X",
";X;X;X;X;X;X;X;X;X;X;X;X;X;X;X;X;X;X;X;X;X;X;X;X;X;X;X;X;X;X;X;X        O t > ;X;X;X;X;X;X;X;X;X;X;X;X;X;X              ;X;X;X;X;X;X;X;X;X;X;X;X;X;X;X;X;X;X;X;X",
";X;X;X;X;X;X;X;X;X;X;X;X;X;X;X;X;X;X;X;X;X;X;X;X;X;X;X;X;X;X;X      ; > > t t t ;X;X;X;X;X;X;X;X;X;X;X;X                  ;X;X;X;X;X;X;X;X;X;X;X;X;X;X;X;X;X;X;X",
";X;X;X;X;X;X;X;X;X;X;X;X;X;X;X;X;X;X;X;X;X;X;X;X;X;X;X;X;X  . ; - - , y t t t , ;X;X;X;X;X;X;X;X;X;X;X                        ;X;X;X;X;X;X;X;X;X;X;X;X;X;X;X;X;X",
";X;X;X;X;X;X;X;X;X;X;X;X;X;X;X;X;X;X;X;X;X;X;X;X;X;X;X;Xo O ; y y t t t t t t t ;X;X;X;X;X;X;X;X;X;X;X                        ;X;X;X;X;X;X;X;X;X;X;X;X;X;X;X;X;X",
";X;X;X;X;X;X;X;X;X;X;X;X;X;X;X;X;X;X;X;X;X;X;X;X;X;X;X  > t t t , t , t t t t t ;X;X;X;X;X;X;X;X;X;X;X;X;X;X;X;X;X;X;X;X;X;X;X;X;X;X;X;X;X;X;X;X;X;X;X;X;X;X;X;X",
";X;X;X;X;X;X;X;X;X;X;X;X;X;X;X;X;X;X;X;X;X;X;X;X;X;X;X;X;X;X;X;X;X;X;X;X;X;X;X;X;X;X;X;X;X;X;X;X;X;X;X;X;X;X;X;X;X;X;X;X;X;X;X;X;X;X;X;X;X;X;X;X;X;X;X;X;X;X;X;X",
";X;X;X;X;X;X;X;X;X;X;X;X;X;X;X;X;X;X;X;X;X;X;X;X;X;X;X;X;X;X;X;X;X;X;X;X;X;X;X;X;X;X;X;X;X;X;X;X;X;X;X;X;X;X;X;X;X;X;X;X;X;X;X;X;X;X;X;X;X;X;X;X;X;X;X;X;X;X;X;X",
";X;X;X;X;X;X;X;X;X;X;X;X;X;X;X;X;X;X;X;X;X;X;X;X;X;X;X;X;X;X;X;X;X;X;X;X;X;X;X;X;X;X;X;X;X;X;X;X;X;X;X;X;X;X;X;X;X;X;X;X;X;X;X;X;X;X;X;X;X;X;X;X;X;X;X;X;X;X;X;X",
";X;X;X;X;X;X;X;X;X;X;X;X;X;X;X;X;X;X;X;X;X;X;X;X;X;X;X;X;X;X;X;X;X;X;X;X;X;X;X;X;X;X;X;X;X;X;X;X;X;X;X;X;X;X;X;X;X;X;X;X;X;X;X;X;X;X;X;X;X;X;X;X;X;X;X;X;X;X;X;X",
";X;X;X;X;X;X;X;X;X;X;X;X;X;X;X;X;X;X;X;X;X;X;X;X;X;X;X;X;X;X;X;X;X;X;X;X;X;X;X;X;X;X;X;X;X;X;X;X;X;X;X;X;X;X;X;X;X;X;X;X;X;X;X;X;X;X;X;X;X;X;X;X;X;X;X;X;X;X;X;X",
";X;X;X;X;X;X;X;X;X;X;X;X;X;X;X;X;X;X;X;X;X;X;X;X;X;X;X;X;X;X;X;X;X;X;X;X;X;X;X;X;X;X;X;X;X;X;X;X;X;X;X;X;X;X;X;X;X;X;X;X;X;X;X;X;X;X;X;X;X;X;X;X;X;X;X;X;X;X;X;X",
";X;X;X;X;X;X;X;X;X;X;X;X;X;X;X;X;X;X;X;X;X;X;X;X;X;X;X;X;X;X;X;X;X;X;X;X;X;X;X;X;X;X;X;X;X;X;X;X;X;X;X;X;X;X;X;X;X;X;X;X;X;X;X;X;X;X;X;X;X;X;X;X;X;X;X;X;X;X;X;X",
";X;X;X;X;X;X;X;X;X;X;X;X;X;X;X;X;X;X;X;X;X;X;X;X;X;X;X;X;X;X;X;X;X;X;X;X;X;X;X;X;X;X;X;X;X;X;X;X;X;X;X;X;X;X;X;X;X;X;X;X;X;X;X;X;X;X;X;X;X;X;X;X;X;X;X;X;X;X;X;X"
};
