/* XPM */
static char *_626_959ab002f0b470662512cf53cb14da0977df60d29463009d8544883724f87d03[] = {
/* columns rows colors chars-per-pixel */
"80 80 199 2 ",
"   c #000000",
".  c #0C0100",
"X  c #050C00",
"o  c #130100",
"O  c #1B0000",
"+  c #130E00",
"@  c #180D00",
"#  c #001700",
"$  c #0A1500",
"%  c #011409",
"&  c #041B00",
"*  c #1D1001",
"=  c #081818",
"-  c #240000",
";  c #2B0000",
":  c #270900",
">  c #340100",
",  c #3D0000",
"<  c #3D0909",
"1  c #281303",
"2  c #371F01",
"3  c #0C2E00",
"4  c #0F3800",
"5  c #0E3005",
"6  c #183E00",
"7  c #002312",
"8  c #0A3310",
"9  c #2D3C00",
"0  c #2A2C2F",
"q  c #3E2020",
"w  c #332D2D",
"e  c #32302F",
"r  c #243232",
"t  c #420000",
"y  c #4B0000",
"u  c #440A01",
"i  c #4C0A01",
"p  c #540000",
"a  c #5C0100",
"s  c #5D0A02",
"d  c #520A0F",
"f  c #4C1102",
"g  c #4B1D01",
"h  c #451808",
"j  c #521402",
"k  c #521C02",
"l  c #581805",
"z  c #440A14",
"x  c #4A0711",
"c  c #481313",
"v  c #521313",
"b  c #640000",
"n  c #6C0201",
"m  c #6F0C03",
"M  c #730201",
"N  c #7C0301",
"B  c #740C03",
"V  c #7A0C03",
"C  c #641101",
"Z  c #7A1A01",
"A  c #761F04",
"S  c #412206",
"D  c #4C2807",
"F  c #5C2402",
"G  c #552A03",
"H  c #5F2D03",
"J  c #562D08",
"K  c #453D01",
"L  c #5A3008",
"P  c #5F3904",
"I  c #522A19",
"U  c #632D03",
"Y  c #692301",
"T  c #732402",
"R  c #752F04",
"E  c #7E2503",
"W  c #653303",
"Q  c #693504",
"!  c #633904",
"~  c #6C3A04",
"^  c #64350A",
"/  c #67380E",
"(  c #743B07",
")  c #783C06",
"_  c #743D09",
"`  c #783502",
"'  c #7E2612",
"]  c #683C11",
"[  c #472827",
"{  c #402425",
"}  c #5A2421",
"|  c #792020",
" . c #184000",
".. c #1C4900",
"X. c #1D5602",
"o. c #155B00",
"O. c #1C5C0A",
"+. c #1C5608",
"@. c #254700",
"#. c #274800",
"$. c #384A00",
"%. c #215301",
"&. c #215109",
"*. c #176105",
"=. c #166B1A",
"-. c #197F1C",
";. c #276C00",
":. c #004724",
">. c #166A21",
",. c #0E7D2D",
"<. c #0F7C25",
"1. c #127223",
"2. c #107927",
"3. c #007A3E",
"4. c #7C410A",
"5. c #7D4D0A",
"6. c #744409",
"7. c #65401D",
"8. c #764813",
"9. c #47600F",
"0. c #5E4732",
"q. c #664626",
"w. c #59514E",
"e. c #60564D",
"r. c #58626E",
"t. c #840502",
"y. c #8B0502",
"u. c #8A0C02",
"i. c #810803",
"p. c #920602",
"a. c #9E0603",
"s. c #950803",
"d. c #9B0A03",
"f. c #8C1C03",
"g. c #9A1303",
"h. c #971A02",
"j. c #A40202",
"k. c #AB0603",
"l. c #A40A03",
"z. c #AD0B04",
"x. c #B30503",
"c. c #BB0504",
"v. c #B20C04",
"b. c #BA0E04",
"n. c #A31203",
"m. c #A41802",
"M. c #BD1104",
"N. c #B51D04",
"B. c #BB1E04",
"V. c #B41204",
"C. c #8B2005",
"Z. c #872304",
"A. c #8A3608",
"S. c #983706",
"D. c #A22409",
"F. c #BA2104",
"G. c #B02404",
"H. c #A03400",
"J. c #BA3204",
"K. c #C20D04",
"L. c #C90E04",
"P. c #C90604",
"I. c #C31204",
"U. c #CC1404",
"Y. c #C31E04",
"T. c #CE1C04",
"R. c #D31604",
"E. c #DC1504",
"W. c #D51804",
"Q. c #DA1904",
"!. c #E51B04",
"~. c #EC1A04",
"^. c #E81705",
"/. c #C82C02",
"(. c #D52504",
"). c #84440A",
"_. c #88460A",
"`. c #8C4A0C",
"'. c #914D0C",
"]. c #9D580A",
"[. c #A65609",
"{. c #A56F0A",
"}. c #A87509",
"|. c #B57808",
" X c #C04405",
".X c #CA5D05",
"XX c #C86F04",
"oX c #C46302",
"OX c #CA7104",
"+X c #DB7B04",
"@X c #038C3B",
"#X c #0A8638",
"$X c #029244",
"%X c #019A4D",
"&X c #009149",
"*X c #069950",
"=X c #01A353",
"-X c #00A55A",
";X c None",
/* pixels */
";X;X;X;X;X;X;X;X;X;X;X;X;X;X;X;X;X;X;X;X;X;X;X;X;X;X;X;X;X;X;X;X;X;X;X;X;X;X;X;X;X;X;X;X;X;X;X;X;X;X;X;X;X;X;X;X;X;X;X;X;X;X;X;X;X;X;X;X;X;X;X;X;X;X;X;X;X;X;X;X",
";X;X;X;X;X;X;X;X;X;X;X;X;X;X;X;X;X;X;X;X;X;X;X;X;X;X;X;X;X;X;X;X        ;X;X;X;X;X;X;X    ;X;X;X;X;X;X;X;X;X;X;X;X;X;X;X;X;X;X;X;X;X;X;X;X;X;X;X;X;X;X;X;X;X;X;X",
";X;X;X;X;X;X;X;X;X;X;X;X;X;X;X;X;X;X;X;X;X;X;X;X;X;X;X;X;X;X;X;X;X              ;X;X;X;X    ;X;X;X;X;X;X;X;X;X;X;X;X;X;X;X;X;X;X;X;X;X;X;X;X;X;X;X;X;X;X;X;X;X;X",
";X;X;X;X;X;X;X;X;X;X;X;X;X;X;X;X;X;X;X;X;X;X;X;X;X;X;X;X;X;X;X;X;X;X;X;X        ;X;X;X;X;X  ;X;X;X;X;X;X;X;X;X;X;X;X;X;X;X;X;X;X;X;X;X;X;X;X;X;X;X;X;X;X;X;X;X;X",
";X;X;X;X;X;X;X;X;X;X;X;X;X;X;X;X;X;X;X;X;X;X;X;X;X;X;X;X;X;X;X;X;X;X;X;X          ;X;X;X;X  ;X;X;X;X;X;X;X;X;X;X;X;X;X;X;X;X;X;X;X;X;X;X;X;X;X;X;X;X;X;X;X;X;X;X",
";X;X;X;X;X;X;X;X;X;X;X;X;X;X;X;X;X;X;X;X;X;X;X;X;X;X;X;X;X;X            ;X;X;X      ;X;X;X  ;X;X;X    ;X;X  ;X;X;X;X;X;X;X;X;X;X;X;X;X;X;X;X;X;X;X;X;X;X;X;X;X;X",
";X;X;X;X;X;X;X;X;X;X;X;X;X;X;X;X;X;X;X;X;X;X;X;X;X;X;X;X;X;X;X;X;X;X;X;X              ;X;X    ;X;X    ;X  ;X;X;X;X;X;X;X;X;X;X;X;X;X;X;X;X;X;X;X;X;X;X;X;X;X;X;X",
";X;X;X;X;X;X;X;X;X;X;X;X;X;X;X;X;X;X;X;X;X;X;X;X;X;X;X;X;X;X;X;X;X                                        ;X;X'.`.`.`.`.`.`.`.`.;X;X;X;X;X;X;X;X;X;X;X;X;X;X;X;X",
";X;X;X;X;X;X;X;X;X;X;X;X;X;X;X;X;X;X;X;X;X;X;X;X;X;X;X;X;X;X;X        D ^ J L L L ^ +             1 ^ J L '.4._ _ _ ` ( ( ( ( ( ;X;X;X;X;X;X;X;X;X;X;X;X;X;X;X;X",
";X;X;X;X;X;X;X;X;X;X;X;X;X;X;X;X;X;X;X;X;X;X;X;X;X;X;X                _ '._._._._.`.L 2 S S S S S ^ `._._.4.Q W U / 0.W U W W W ;X;X;X;X;X;X;X;X;X;X;X;X;X;X;X;X",
";X;X;X;X;X;X;X;X;X;X;X;X;X;X;X;X;X;X;X;X;X;X;X;X;X;X;X          ;X;X;Xk H U W W W U ).'.'.`.`.'.'.4.U W W W Q Q Q ] e.q.7./ ;X;X;X;X;X;X;X;X;X;X;X;X;X;X;X;X;X;X",
";X;X;X;X;X;X;X;X;X;X;X;X;X;X;X;X;X;X;X;X;X;X;X;X;X;X;X;X;X;X;X;X;X;X;X, > j Q W W Q W W W W W W W W Q Q W W W W U U W w.r.;X;X;X;X;X;X;X;X;X;X;X;X;X;X;X;X;X;X;X",
";X;X;X;X;X;X;X;X;X;X;X;X;X;X;X;X;X;X;X;X;X;X;X;X;X;X;X;X;X;X;X;X;X;X;X;Xt t t t t U ~ Q Q Q Q Q ~ Q Q Q W u t t t < e , ;X;X;X;X;X;X;X;X;X;X;X;X;X;X;X;X;X;X;X;X",
";X;X;X;X;X;X;X;X;X;X;X;X;X;X;X;X;X;X;X;X;X;X;X;X;X;X;X;X;X;X;X;X;X;X;X;X;Xt , t , i i i p i i i i i i i y t , , t < ;X;X;X;X;X;X;X;X;X;X;X;X;X;X;X;X;X;X;X;X;X;X",
";X;X;X;X;X;X;X;X;X;X;X;X;X;X;X;X;X;X;X;X;X;X;X;X;X;X;X;X;X;X;X;X;X;X;X;X;X;X, t t O o o o o o o o o o @ 9 ;X;X;X;X;X;X;X;X;X;X;X;X;X;X;X;X;X;X;X;X;X;X;X;X;X;X;X",
";X;X;X;X;X;X;X;X;X;X;X;X;X;X;X;X;X;X;X;X;X;X;X;X;X;X;X;X;X;X;X;X;X;X;X;X;X;X;Xt -               & 3 #   4 ;X;X;X;X;X;X;X;X;X;X;X;X;X;X;X;X;X;X;X;X;X;X;X;X;X;X;X",
";X;X;X;X;X;X;X;X;X;X;X;X;X;X;X;X;X;X;X;X;X;X;X;X;X;X;X;X;X;X;X;X;X;X;X;X;X;X;X;X                 .;.#.:   ;X;X;X;X;X;X;X;X;X;X;X;X;X;X;X;X;X;X;X;X;X;X;X;X;X;X;X",
";X;X;X;X;X;X;X;X;X;X;X;X;X;X;X;X;X;X;X;X;X;X;X;X;X;X;X;X;X;X;X;X;X;X;X;X;X;X;X;X              X 6 *.9.8.% 3.;X;X;X;X;X;X;X;X;X;X;X;X;X;X;X;X;X;X;X;X;X;X;X;X;X;X",
";X;X;X;X;X;X;X;X;X;X;X;X;X;X;X;X;X;X;X;X;X;X;X;X;X;X;X;X;X;X;X;X;X;X;X;X;X;X;X                ..%.2.*X%X&X% ;X;X;X;X;X;X;X;X;X;X;X;X;X;X;X;X;X;X;X;X;X;X;X;X;X;X",
";X;X;X;X;X;X;X;X;X;X;X;X;X;X;X;X;X;X;X;X;X;X;X;X;X;X;X;X;X;X;X;X;X;X;X;X                      X X $ 5 #X-X;X;X;X;X;X;X;X;X;X;X;X;X;X;X;X;X;X;X;X;X;X;X;X;X;X;X;X",
";X;X;X;X;X;X;X;X;X;X;X;X;X;X;X;X;X;X;X;X;X;X;X;X;X;X;X;X;X;X;X;X;X;X                                  $ 7 ;X;X;X;X;X;X;X;X;X;X;X;X;X;X;X;X;X;X;X;X;X;X;X;X;X;X;X",
";X;X;X;X;X;X;X;X;X;X;X;X;X;X;X;X;X;X;X;X;X;X;X;X;X;X;X;X;X;X;X;X;X;X                                X 5 :.;X;X;X;X;X;X;X;X;X;X;X;X;X;X;X;X;X;X;X;X;X;X;X;X;X;X;X",
";X;X;X;X;X;X;X;X;X;X;X;X;X;X;X;X;X;X;X;X;X;X;X;X;X;X;X;X;X;X;X;X;X;X;X;X;X      > t o               $ +.3.;X;X;X;X;X;X;X;X;X;X;X;X;X;X;X;X;X;X;X;X;X;X;X;X;X;X;X",
";X;X;X;X;X;X;X;X;X;X;X;X;X;X;X;X;X;X;X;X;X;X;X;X;X;X;X;X;X;X;X;X;X    ;X      > K.M.>                     ;X;X;X;X;X;X;X;X;X;X;X;X;X;X;X;X;X;X;X;X;X;X;X;X;X;X;X",
";X;X;X;X;X;X;X;X;X;X;X;X;X;X;X;X;X;X;X;X;X;X;X;X;X;X;X;X;X;X;X;X;X;X;X      > M.v.O                       ;X;X;X;X;X;X;X;X;X;X;X;X;X;X;X;X;X;X;X;X;X;X;X;X;X;X;X",
";X;X;X;X;X;X;X;X;X;X;X;X;X;X;X;X;X;X;X;X;X;X;X;X;X;X;X;X;X;X;X;X;X;X;X;Xg.p.z.l..                         ;X;X;X;X;X;X;X;X;X;X;X;X;X;X;X;X;X;X;X;X;X;X;X;X;X;X;X",
";X;X;X;X;X;X;X;X;X;X;X;X;X;X;X;X;X;X;X;X;X;X;X;X;X;X;X;X;X;X;X;X;X!.!.!.Q.L.a.m M B V ,                   ;X;X;X;X;X;X;X;X;X;X;X;X;X;X;X;X;X;X;X;X;X;X;X;X;X;X;X",
";X;X;X;X;X;X;X;X;X;X;X;X;X;X;X;X;X;X;X;X;X;X;X;X;X;X;X;X;X;X;X;XT.M.K.I.W.Q.z.N a.U.E.a                   ;X;X;X;X;X;X;X;X;X;X;X;X;X;X;X;X;X;X;X;X;X;X;X;X;X;X;X",
";X;X;X;X;X;X;X;X;X;X;X;X;X;X;X;X;X;X;X;X;X;X;X;X;X;X;X;X;X;XW.W.U.v.b.z.M.R.U.l.a I.^.C                   ;X;X;X;X;X;X;X;X;X;X;X;X;X;X;X;X;X;X;X;X;X;X;X;X;X;X;X",
";X;X;X;X;X;X;X;X;X;X;X;X;X;X;X;X;X;X;X;X;X;X;X;X;X;X;X;XW.W.W.R.W.W.R.v.z.z.v.l.b U.Q.s                 ;X;X;X;X;X;X;X;X;X;X;X;X;X;X;X;X;X;X;X;X;X;X;X;X;X;X;X;X",
";X;X;X;X;X;X;X;X;X;X;X;X;X;X;X;X;X;X;X;X;X;X;X;X;X;X;XW.W.W.W.I.z.v.v.v.z.v.v.l.b R.i                   ;X;X;X;X;X;X;X;X;X;X;X;X;X;X;X;X;X;X;X;X;X;X;X;X;X;X;X;X",
";X;X;X;X;X;X;X;X;X;X;X;X;X;X;X;X;X;X;X;X;X;X;X;X;X;XW.W.W.M.I.p.a N v.v.v.b.l.n a O     : z.l.o   = q a ;X;X;X;X;X;X;X;X;X;X;X;X;X;X;X;X;X;X;X;X;X;X;X;X;X;X;X;X",
";X;X;X;X;X;X;X;X;X;X;X;X;X;X;X;X;X;X;X;X;X;X;X;X;XW.Q.W.M.v.i.N t.a N v.s.N n a s.u.V n d.K.>   p } q M ;X;X;X;X;X;X;X;X;X;X;X;X;X;X;X;X;X;X;X;X;X;X;X;X;X;X;X;X",
";X;X;X;X;X;X;X;X;X;X;X;X;X;X;X;X;X;X;X;X;X;X;X;XQ.U.M.I.I.v.y.l.z.a a t.M p b s.v.!.Q.E.n.> t a x.| r v ;X;X;X;X;X;X;X;X;X;X;X;X;X;X;X;X;X;X;X;X;X;X;X;X;X;X;X;X",
";X;X;X;X;X;X;X;X;X;X;X;X;X;X;X;X;X;X;X;X;X;X;X!.W.K.k.z.U.I.K.v.t.b b a a b p.b.z.U.W.~.g.> R.B./.' 0 e b ;X;X;X;X;X;X;X;X;X;X;X;X;X;X;X;X;X;X;X;X;X;X;X;X;X;X;X",
";X;X;X;X;X;X;X;X;X;X;X;X;X;X;X;X;X;X;X;X;X;XB.F.m.g.n.v.z.U.M.N p b b b b s.b.z.v.l.U.W.Q.^.Q.).|.H.x e b ;X;X;X;X;X;X;X;X;X;X;X;X;X;X;X;X;X;X;X;X;X;X;X;X;X;X;X",
";X;X;X;X;X;X;X;X;X;X;X;X;X;X;X;X;X;X;X;X;XY.%.X.%.o.K c.v.M a ;X;Xb b a d.v.v.v.z.z.U.W.W.W.R.R 8.f.x w b b ;X;X;X;X;X;X;X;X;X;X;X;X;X;X;X;X;X;X;X;X;X;X;X;X;X;X",
";X;X;X;X;X;X;X;X;X;X;X;X;X;X;X;X;X;X;X;X;X$.@X$X$X&X#XK n n ;X;Xb b b p s.v.b.U.z.z.U.W.W.W.R.T.N.t.c w n a.;X;X;X;X;X;X;X;X;X;X;X;X;X;X;X;X;X;X;X;X;X;X;X;X;X;X",
";X;X;X;X;X;X;X;X;X;X;X;X;X;X;X;X;X;X;X;X%X$X%X-X-X-X#X@.a ;X;X;Xb b a u.z.M.W.W.U.z.U.W.W.R.R.L.c.y.c w b z.b.;X;X;X;X;X;X;X;X;X;X;X;X;X;X;X;X;X;X;X;X;X;X;X;X;X",
";X;X;X;X;X;X;X;X;X;X;X;X;X;X;X;X;X;X;X#X1.<.%X,.>.#X@X;X;X;X;Xp.p b y.v.z.K.Q.W.W.I.U.W.W.Q.W.D. Xh.x w b z.v.v.v.;X;X;X;X;X;X;X;X;X;X;X;X;X;X;X;X;X;X;X;X;X;X;X",
";X;X;X;X;X;X;X;X;X;X;X;X;X;X;X;X;X;X;X2.#.=.%XX.&.#X;X;X;X;XI.t.a t.b.z.v.U.W.W.W.W.W.W.W.W.U.8.}.S.z 0 b y.z.v.b.k.;X;X;X;X;X;X;X;X;X;X;X;X;X;X;X;X;X;X;X;X;X;X",
";X;X;X;X;X;X;X;X;X;X;X;X;X;X;X;X;X;X;X;X;X-X;X;X;X;X;X;X;X;Xv.y.N b.v.v.U.W.W.W.W.W.W.W.W.R.z.T A.Z d [ b a y.v.v.d.l ;X;X;X;X;X;X;X;X;X;X;X;X;X;X;X;X;X;X;X;X;X",
";X;X;X;X;X;X;X;X;X;X;X;X;X;X;X;X;X;X;X;X;X;X;X;X;X;X;X;X;Xv.z.z.v.v.z.R.W.W.W.W.W.W.W.W.Q.U.v.v.V.N N z.b b a p.j.h %X&.%.;X;X;X;X;X;X;X;X;X;X;X;X;X;X;X;X;X;X;X",
";X;X;X;X;X;X;X;X;X;X;X;X;X;X;X;X;X;X;X;X;X;X;X;X;X;X;X;X;Xv.v.v.z.v.U.W.W.W.W.R.W.W.W.W.W.U.x.c.N u.d.n b b b N I %X%X$X%X2.%.%.;X;X;X;X;X;X;X;X;X;X;X;X;X;X;X;X",
";X;X;X;X;X;X;X;X;X;X;X;X;X;X;X;X;X;X;X;X;X;X;X;X;X;X;X;Xv.v.z.v.z.V.W.W.W.W.Q.!.W.W.W.W.Q.T.S..XZ y.j.p b b n g &.2.%X-X,.O.;X;X;X;X;X;X;X;X;X;X;X;X;X;X;X;X;X;X",
";X;X;X;X;X;X;X;X;X;X;X;X;X;X;X;X;X;X;X;X;X;X;X;X;X;X;X;Xz.z.v.z.v.v.W.W.W.Q.I.a.W.W.W.W.R.V._ {.A y.l.p ;X;X;X;Xo.O.;X#X%.;X;X;X;X;X;X;X;X;X;X;X;X;X;X;X;X;X;X;X",
";X;X;X;X;X;X;X;X;X;X;X;X;X;X;X;X;X;X;X;X;X;X;X;X;X;X;X;Xv.v.v.v.z.v.Q.W.Q.U.u.C T.E.W.W.U.g.^ A.m N p.N ;X;X;X;X;XO.;X%.;X%.%.;X;X;X;X;X;X;X;X;X;X;X;X;X;X;X;X;X",
";X;X;X;X;X;X;X;X;X;X;X;X;X;X;X;X;X;X;X;X;X;X;X;X;X;X;X;Xv.l.z.v.z.v.U.W.Q.s.f ) R.Y.W.W.L.n.W n.N y N K.;X;X;X;X;X%.;X;X%.;X;X;X;X;X;X;X;X;X;X;X;X;X;X;X;X;X;X;X",
";X;X;X;X;X;X;X;X;X;X;X;X;X;X;X;X;X;X;X;X;X;X;X;X;X;X;X;Xv.b p.v.z.v.z.z.b.y.s ` R.Q G.L.v.n.Q ! C a N v.z.;X;X;X;X;X;X;X;X;X;X;X;X;X;X;X;X;X;X;X;X;X;X;X;X;X;X;X",
";X;X;X;X;X;X;X;X;X;X;X;X;X;X;X;X;X;X;X;X;X;X;X;X;X;X;Xv.b.b y.M.v.z.z.z.v.N b V.!.~ g.D.[.oXW W W f.x.c.v.z.;X;X;X;X;X;X;X;X;X;X;X;X;X;X;X;X;X;X;X;X;X;X;X;X;X;X",
";X;X;X;X;X;X;X;X;X;X;X;X;X;X;X;X;X;X;X;X;X;X;X;X;X;X;Xk.N y.z.z.V.U.U.U.U.M.I.W.A.h.v.f.5.].W Q ! R E Z.c.c.;X;X;X;X;X;X;X;X;X;X;X;X;X;X;X;X;X;X;X;X;X;X;X;X;X;X",
";X;X;X;X;X;X;X;X;X;X;X;X;X;X;X;X;X;X;X;X;X;X;X;X;X;Xv.l.p l.M.z.M.!.Q.Q.W.!.T.V h l.P.f.P _ Q Q ~ ! P Q C.;X;X;X;X;X;X;X;X;X;X;X;X;X;X;X;X;X;X;X;X;X;X;X;X;X;X;X",
";X;X;X;X;X;X;X;X;X;X;X;X;X;X;X;X;X;X;X;X;X;X;X;X;XJ.F.j.N j.x.k.v.L.L.K.R.~.l.. > j.j.A ! Q Q Q ~ Q Q W ! ;X;X;X;X;X;X;X;X;X;X;X;X;X;X;X;X;X;X;X;X;X;X;X;X;X;X;X",
";X;X;X;X;X;X;X;X;X;X;X;X;X;X;X;X;X;X;X;X;X;X;X;X;X;X.X;XB.F.F.F.F.N.G.N.(.(.B   l B.b 2 U U U H U U Q W W Q ;X;X;X;X;X;X;X;X;X;X;X;X;X;X;X;X;X;X;X;X;X;X;X;X;X;X",
";X;X;X;X;X;X;X;X;X;X;X;X;X;X;X;X;X;X;X;X;X;X;X;X;X;X;X;XOXOXOXXXXXXXXXXX+X!   * OX+XY > t t , , , k ~ Q Q Q ;X;X;X;X;X;X;X;X;X;X;X;X;X;X;X;X;X;X;X;X;X;X;X;X;X;X",
";X;X;X;X;X;X;X;X;X;X;X;X;X;X;X;X;X;X;X;X;X;X;X;X;X;X;X;X;X2 @ @ + + + + + X     @ @ . - t u W W W f i ~ Q ^ ;X;X;X;X;X;X;X;X;X;X;X;X;X;X;X;X;X;X;X;X;X;X;X;X;X;X",
";X;X;X;X;X;X;X;X;X;X;X;X;X;X;X;X;X;X;X;X;X;X;X;X;X;X;X;X;X    . ; - - - ; , -         - y t f f U W H Q W Q ;X;X;X;X;X;X;X;X;X;X;X;X;X;X;X;X;X;X;X;X;X;X;X;X;X;X",
";X;X;X;X;X;X;X;X;X;X;X;X;X;X;X;X;X;X;X;X;X;X;X;X;X;X;X;X    o > y t y p ; - O   ;X;X  . ; t , , i U ~ W Q Q ;X;X;X;X;X;X;X;X;X;X;X;X;X;X;X;X;X;X;X;X;X;X;X;X;X;X",
";X;X;X;X;X;X;X;X;X;X;X;X;X;X;X;X;X;X;X;X;X;X;X;X;X;X;X;X  o > y t , - ; .       ;X;X;X  + l j t > j ~ Q ~ ;X;X;X;X;X;X;X;X;X;X;X;X;X;X;X;X;X;X;X;X;X;X;X;X;X;X;X",
";X;X;X;X;X;X;X;X;X;X;X;X;X;X;X;X;X;X;X;X;X;X;X;X;X;X;X;X. , y , > > .         ;X;X;X;X;X: ~ U f u F ( W J ;X;X;X;X;X;X;X;X;X;X;X;X;X;X;X;X;X;X;X;X;X;X;X;X;X;X;X",
";X;X;X;X;X;X;X;X;X;X;X;X;X;X;X;X;X;X;X;X;X;X;X;X;X;X;X  , t t O   . t .   ;X;X;X;X;X;Xt t , , U ! W Q G ;X;X;X;X;X;X;X;X;X;X;X;X;X;X;X;X;X;X;X;X;X;X;X;X;X;X;X;X",
";X;X;X;X;X;X;X;X;X;X;X;X;X;X;X;X;X;X;X;X;X;X;X;X; y ;     . . - t ,   ;X;X;X;X;X;X;Xt t t , t t p : X .   ;X;X;X;X;X;X;X;X;X;X;X;X;X;X;X;X;X;X;X;X;X;X;X;X;X;X;X",
";X;X;X;X;X;X;X;X;X;X;X;X;X;X;X;X;X;X;X;X;X;X;X  ; t , > ;       O o ;X;X;X;X;X;X;X;Xt , t , t y -         ;X;X;X;X;X;X;X;X;X;X;X;X;X;X;X;X;X;X;X;X;X;X;X;X;X;X;X",
";X;X;X;X;X;X;X;X;X;X;X;X;X;X;X;X;X;X;X;X;X;X  O > t t y y ; > o   ;X;X;X;X;X;X;X;X;Xy y t t t -         ;X;X;X;X;X;X;X;X;X;X;X;X;X;X;X;X;X;X;X;X;X;X;X;X;X;X;X;X",
";X;X;X;X;X;X;X;X;X;X;X;X;X;X;X;X;X;X;X;X;X;X  , y t t t ; > > o ;X;X;X;X;X;X;X;X;X- ; - > y t O         ;X;X;X;X;X;X;X;X;X;X;X;X;X;X;X;X;X;X;X;X;X;X;X;X;X;X;X;X",
";X;X;X;X;X;X;X;X;X;X;X;X;X;X;X;X;X;X;X;X;X    ; , > > ;       ;X;X;X;X;X;X;X;X;X        . , > , o       ;X;X;X;X;X;X;X;X;X;X;X;X;X;X;X;X;X;X;X;X;X;X;X;X;X;X;X;X",
";X;X;X;X;X;X;X;X;X;X;X;X;X;X;X;X;X;X;X;X;X                  ;X;X;X;X;X;X;X;X;X;X;X                    ;X;X;X;X;X;X;X;X;X;X;X;X;X;X;X;X;X;X;X;X;X;X;X;X;X;X;X;X;X",
";X;X;X;X;X;X;X;X;X;X;X;X;X;X;X;X;X;X;X;X              ;X;X;X;X;X;X;X;X;X;X;X;X;X;X, t O         ;X;X;X;X;X;X;X;X;X;X;X;X;X;X;X;X;X;X;X;X;X;X;X;X;X;X;X;X;X;X;X;X",
";X;X;X;X;X;X;X;X;X;X;X;X;X;X;X;X;X;X;X                  ;X;X;X;X;X;X;X;X;X;X;X;Xt t t , > -       ;X;X;X;X;X;X;X;X;X;X;X;X;X;X;X;X;X;X;X;X;X;X;X;X;X;X;X;X;X;X;X",
";X;X;X;X;X;X;X;X;X;X;X;X;X;X;X;X;X                        ;X;X;X;X;X;X;X;X;X;X;Xt t t t t t - - ; .   ;X;X;X;X;X;X;X;X;X;X;X;X;X;X;X;X;X;X;X;X;X;X;X;X;X;X;X;X;X",
";X;X;X;X;X;X;X;X;X;X;X;X;X;X;X;X;X                        ;X;X;X;X;X;X;X;X;X;X;Xt t , , t t t t y ; O o ;X;X;X;X;X;X;X;X;X;X;X;X;X;X;X;X;X;X;X;X;X;X;X;X;X;X;X;X",
";X;X;X;X;X;X;X;X;X;X;X;X;X;X;X;X;X;X;X;X;X;X;X;X;X;X;X;X;X;X;X;X;X;X;X;X;X;X;X;X, t t t t t t t t t t ,   ;X;X;X;X;X;X;X;X;X;X;X;X;X;X;X;X;X;X;X;X;X;X;X;X;X;X;X",
";X;X;X;X;X;X;X;X;X;X;X;X;X;X;X;X;X;X;X;X;X;X;X;X;X;X;X;X;X;X;X;X;X;X;X;X;X;X;X;X;X;X;X;X;X;X;X;X;X;X;X;X;X;X;X;X;X;X;X;X;X;X;X;X;X;X;X;X;X;X;X;X;X;X;X;X;X;X;X;X",
";X;X;X;X;X;X;X;X;X;X;X;X;X;X;X;X;X;X;X;X;X;X;X;X;X;X;X;X;X;X;X;X;X;X;X;X;X;X;X;X;X;X;X;X;X;X;X;X;X;X;X;X;X;X;X;X;X;X;X;X;X;X;X;X;X;X;X;X;X;X;X;X;X;X;X;X;X;X;X;X",
";X;X;X;X;X;X;X;X;X;X;X;X;X;X;X;X;X;X;X;X;X;X;X;X;X;X;X;X;X;X;X;X;X;X;X;X;X;X;X;X;X;X;X;X;X;X;X;X;X;X;X;X;X;X;X;X;X;X;X;X;X;X;X;X;X;X;X;X;X;X;X;X;X;X;X;X;X;X;X;X",
";X;X;X;X;X;X;X;X;X;X;X;X;X;X;X;X;X;X;X;X;X;X;X;X;X;X;X;X;X;X;X;X;X;X;X;X;X;X;X;X;X;X;X;X;X;X;X;X;X;X;X;X;X;X;X;X;X;X;X;X;X;X;X;X;X;X;X;X;X;X;X;X;X;X;X;X;X;X;X;X",
";X;X;X;X;X;X;X;X;X;X;X;X;X;X;X;X;X;X;X;X;X;X;X;X;X;X;X;X;X;X;X;X;X;X;X;X;X;X;X;X;X;X;X;X;X;X;X;X;X;X;X;X;X;X;X;X;X;X;X;X;X;X;X;X;X;X;X;X;X;X;X;X;X;X;X;X;X;X;X;X",
";X;X;X;X;X;X;X;X;X;X;X;X;X;X;X;X;X;X;X;X;X;X;X;X;X;X;X;X;X;X;X;X;X;X;X;X;X;X;X;X;X;X;X;X;X;X;X;X;X;X;X;X;X;X;X;X;X;X;X;X;X;X;X;X;X;X;X;X;X;X;X;X;X;X;X;X;X;X;X;X",
";X;X;X;X;X;X;X;X;X;X;X;X;X;X;X;X;X;X;X;X;X;X;X;X;X;X;X;X;X;X;X;X;X;X;X;X;X;X;X;X;X;X;X;X;X;X;X;X;X;X;X;X;X;X;X;X;X;X;X;X;X;X;X;X;X;X;X;X;X;X;X;X;X;X;X;X;X;X;X;X",
";X;X;X;X;X;X;X;X;X;X;X;X;X;X;X;X;X;X;X;X;X;X;X;X;X;X;X;X;X;X;X;X;X;X;X;X;X;X;X;X;X;X;X;X;X;X;X;X;X;X;X;X;X;X;X;X;X;X;X;X;X;X;X;X;X;X;X;X;X;X;X;X;X;X;X;X;X;X;X;X"
};
