/* XPM */
static char *_2235_295c6fcf7139de5fbd6d0064396e7cd27300a64ca0a2d817ad6ed45e67e59618[] = {
/* columns rows colors chars-per-pixel */
"80 80 92 1 ",
"  c #030101",
". c #0B0203",
"X c #070902",
"o c #0C0B04",
"O c #140306",
"+ c #190207",
"@ c #170907",
"# c #170408",
"$ c #1D0509",
"% c #1F0A0A",
"& c #0E1105",
"* c #101005",
"= c #161515",
"- c #1D1315",
"; c #23060B",
": c #2B070E",
"> c #240B0C",
", c #2E090F",
"< c #30060E",
"1 c #30080F",
"2 c #260E13",
"3 c #2F0810",
"4 c #340911",
"5 c #3B0913",
"6 c #211619",
"7 c #2A1518",
"8 c #231B1C",
"9 c #351017",
"0 c #1D2309",
"q c #2E330E",
"w c #372211",
"e c #3C3513",
"r c #3E3814",
"t c #3E3839",
"y c #4D0715",
"u c #440B16",
"i c #480C17",
"p c #4A0C18",
"a c #560717",
"s c #540817",
"d c #451017",
"f c #4C1318",
"g c #4D1919",
"h c #6A091C",
"j c #4F2A19",
"k c #50241A",
"l c #532B1A",
"z c #55341B",
"x c #573C1B",
"c c #7C0921",
"v c #3E4913",
"b c #424C14",
"n c #484B16",
"m c #5A471C",
"M c #524A1A",
"N c #5B4D1C",
"B c #435015",
"V c #5D521D",
"C c #555F1A",
"Z c #5F701D",
"A c #61611E",
"S c #656D1F",
"D c #67741F",
"F c #677720",
"G c #677820",
"H c #687920",
"J c #4F4A4A",
"K c #504C4C",
"L c #605B5C",
"P c #646060",
"I c #6C6A6B",
"U c #830A22",
"Y c #890A23",
"T c #900B25",
"R c #9E0C29",
"E c #A50C2B",
"W c #AB0D2C",
"Q c #B40D2E",
"! c #C40E32",
"~ c #CA0E34",
"^ c #D10F36",
"/ c #D61037",
"( c #D81037",
") c #D91038",
"_ c #959595",
"` c gray61",
"' c LightGray",
"] c #DDDDDD",
"[ c #E7E7E7",
"{ c #EAEAEA",
"} c #FFFFFF",
"| c None",
/* pixels */
"||||||||||||||||||||||||||||||||||||||||||||||||||||||||||||||||||||||||||||||||",
"||||||||||||||||||||||||||||||||||||||||||||||||||||||||||||||||||||||||||||||||",
"||||||||||||||||||||||||||||||||||||||||||||||||||||||||||||||||||||||||||||||||",
"||||||||||||||||||||||||||||||||||||||||||||||||||||||||||||||||||||||||||||||||",
"||||||||||||||||||||||||||||||||||||||||||||||||||||||||||||||||||||||||||||||||",
"||||||||||||||||||||||||||||||||||||||||||||||||||||||||||||||||||||||||||||||||",
"||||||||||||||||||||||||||||||||||||||||||||||||||||||||||||||||||||||||||||||||",
"||||||||||||||||||||||||||||||||||||||||||||||||||||||||||||||||||||||||||||||||",
"||||||||||||||||||||||||||||||||||||||||||||||||||||||||||||||||||||||||||||||||",
"||||||||||||||||||||||||||||||||||||||||||||||||||||||||||||||||||||||||||||||||",
"||||||||||||||||||||||||||||||||||||||||||||||||||||||||||||||||||||||||||||||||",
"||||||||||||||||||||||||||||||||||||||||||||||||||||||||||||||||||||||||||||||||",
"||||||||||||||||||||||||||||||||||||||||||||||||||||||||||||||||||||||||||||||||",
"||||||||||||||||||||||||||||||||||||||||||||||||||||||||||||||||||||||||||||||||",
"||||||||||||||||||||||||||||||||||||||||||||||||||||||||||||||||||||||||||||||||",
"||||||||||||||||||||||||||||||||||||||||||||||||||||||||||||||||||||||||||||||||",
"||||||||||||||||||||||||||||||||||||||||||||||||||||||||||||||||||||||||||||||||",
"||||||||||||||||||||||||||||||||||||||||||||||||||||||||||||||||||||||||||||||||",
"||||||||||||||||||||||||||||||||||||||||||||||||||||||||||||||||||||||||||||||||",
"||||||||||||||||||||||||||||||||||||||||||||||||||||||||||||||||||||||||||||||||",
"||||||||||||||||||||||||||||||||||||||||||||||||||||||||||||||||||||||||||||||||",
"||||||||||||||||||||||||||||||||||||||||||||||||||||||||||||||||||||||||||||||||",
"||||||||||||||||||||||||||||||||||||||||||||||||||||||||||||||||||||||||||||||||",
"||||||||||||||||||||||||||||||||||||||||||||||||||||||||||||||||||||||||||||||||",
"||||||||||||||||||||||||||||||||||||||||||||||||||||||||||||||||||||||||||||||||",
"||||||||||||||||||||||||||||||||||||||||||||||||||||||||||||||||||||||||||||||||",
"||||||||||||||||||||||||||||||||||||||||||||||||||||||||||||||||||||||||||||||||",
"||||||||||||||||||||||||||||||||||||||||||||||||||||||||||||||||||||||||||||||||",
"||||||||||||||||||||||||||||||||||||||||||||||||||||||||||||||||||||||||||||||||",
"||||||||||||||||||||||||||||||||||||||||||||||||||||||||||||||||||||||||||||||||",
"||||||||||||||||||||||||||||||||||||||||||||||||||||||||||||||||||||||||||||||||",
"||||||||||||||||||||||||||||||||||||||||||||||||||||||||||||||||||||||||||||||||",
"|||||||||||||||||||||||||||||||||||||||||||| |||||||||||||||||||||||||||||||||||",
"|||||||||||||||||||||||||||||||||||||||||||| |||||||||||||||||||||||||||||||||||",
"|||||||||||||||||||||||||||||||||||||||||||| |||||||||||||||||||||||||||||||||||",
"|||||||||||||||||||||||||||||||||||||||||||| |||||||||||||||||||||||||||||||||||",
"|||||||||||||||||||||||||||||||||||||||||||| |||||||||||||||||||||||||||||||||||",
"|||||||||||||||||||||||||||||||||  ||||||||  |||||||||||||||||||||||||||||||||||",
"|||||||||||||||||||||||||||||||||O.||||||||.O|||||||||||||||||||||||||||||||||||",
"|||||||||||||||||||||||||||||||||OO |||||| #$|||||||||||||||||||||||||||||||||||",
"||||||||||||||||||||||||||||||||| $.||||||.:$|||||||||||||||||||||||||||||||||||",
"||||||||||||||||||||||||||||||||| $O |||| O:$|||||||||||||||||||||||||||||||||||",
"||||||||||||||||||||||||||||||||| $$ | .. #:$|||||||||||||||||||||||||||||||||||",
"||||||||||||||||||||||||||||||||| OO$4uuu:;$# ||||||||||||||||||||||||||||||||||",
"||||||||||||||||||||||||||||||||| O:uiiiiiiu4$O|||||||||||||||||||||||||||||||||",
"|||||||||||||||||||||||||||||||||+;uiu5<4ippii4 ||||||||||||||||||||||||||||||||",
"|||||||||||||||||||  |||||||||||aYU5u5hYh5ppppu.||||||||||||||||||||||||||||||||",
"|||||||||||||||||||   O$;. ||||aW!)YOUE)^a5pppp:.|||||||||||||||||  ||||||||||||",
"|||||||||||||||||||   :iu:.||||sRQ)Y+cT/^a5pppp4.|||||||||||||||||| ||||||||||||",
"|||||||||||||||||||| .1pii4;.. :c~!a1sR~Eu5pppp3.|||||||||||||||||| ||||||||||||",
"||||||||||||||||||||| ,pppp54:34uas5iuyayuipppp:.||||||||||||||||| |||||||||||||",
"|||||||||||||||||||||#4pppppppppuuupppiuipppppiO|||||||||||||||||  |||||||||||||",
"|||||||||||||||||||||$5pppppppppypppppppppppppi ||||||||||||||||| ||||||||||||||",
"||||||||||||||||||||| O35iuipppipppu4$$ippppppu ||| .*q3;.&*o. |  ||||||||||||||",
"|||||||||||||||||||||||-7224uuuiuiu$O..uppppppu  Xo@3rCf54eBe,#  |||||||||||||||",
"|||||||||||||||||||||||{{|'IJJPJtPL||| upppppu$$%nZNgxAfpgVDVfp4;.||||||||||||||",
"|||||||||||||||||||||||}}||{]]{]|[[|| #ippppi4:udVHVfgxppfVGVfpiu+ |||||||||||||",
"||||||||||||||||||||||||}||}}}}}|}}||.,ppppi4O1pplAVfppppplDVfppp4O|||||||||||||",
"||||||||||||||||||||||||}||}||}||}|||.4pppp4+;5ppgVVfpppppgSVfpppu$|||||||||||||",
"||||||||||||||||||||||||}||}||}||||||:ipp54.$ipppfVVfpppppgSVpppppu.||||||||||||",
"||||||||||||||||||||||||}||||||||}}| 4ppp$..:ppppfxNfpppppgSVpppppi# |||||||||||",
"|||||||||||||||||||||||||||||}}||[]8$5pi4O|$ipppppgmfppppppmNfppppp: |||||||||||",
"|||||||||||||||||||||||||||||}}||PL94ip4$||$upppppgmfppppppzmfppppp3.|||||||||||",
"|||||||||||||||||||||||||||||`_6$4ipppi; || $ippppfzfpppppppppppppp5$|||||||||||",
"|||||||||||||||||||||||||||||==:5iipii4.||||$ippppppppfkppppppppppp5$|||||||||||",
"|||||||||||||||||||||||||||||| $$$$$$+.|||||$upfpppppfxNgppppfzfppp1.|||||||||||",
"||||||||||||||||||||||||||||||||||||||||||||O5fzfppppgNVfppppgNfppp: |||||||||||",
"|||||||||||||||||||||||||||||||||||||||||||||3jVgppppgVVgppppNSfppiO||||||||||||",
"|||||||||||||||||||||||||||||||||||||||||||||>MVfpppplAVgppppVDgpi5 ||||||||||||",
"|||||||||||||||||||||||||||||||||||||||||||||ovVfppppVHVgppplSDfpu$|||||||||||||",
"|||||||||||||||||||||||||||||||||||||||||||  X0MgpffgVHVgpifzFDfu:+|||||||||||||",
"||||||||||||||||||||||||||||||||||||||||   |||  #,,,9bBe4,,4wbb>.|||||||||||||||",
"|||||||||||||||||||||||||||||||||||||||  |||||   ...o&&o....ooo  |||||||||||||||",
"||||||||||||||||||||||||||||||||||||||| |||||  |||||||||||||| ||||||||||||||||||",
"|||||||||||||||||||||||||||||||||||||| |||||| ||||||||||||||| ||||||||||||||||||",
"|||||||||||||||||||||||||||||||||||||  |||||| ||||||||||||||| ||| ||||||||||||||",
"||||||||||||||||||||||||||||||||||||| ||||||| |||||||||||||||  ||| |||||||||||||",
"||||||||||||||||||||||||||||||||||||||||||||||||||||||||||||||||||||||||||||||||",
"||||||||||||||||||||||||||||||||||||||||||||||||||||||||||||||||||||||||||||||||",
"||||||||||||||||||||||||||||||||||||||||||||||||||||||||||||||||||||||||||||||||"
};
